<svg xmlns="http://www.w3.org/2000/svg" xmlns:xlink="http://www.w3.org/1999/xlink" width="310" height="280" viewBox="0 0 310 280">
  <defs>
    <clipPath id="clip-path">
      <rect id="Rectángulo_375107" data-name="Rectángulo 375107" width="256.913" height="236.996" fill="none"/>
    </clipPath>
  </defs>
  <g id="Grupo_1067341" data-name="Grupo 1067341" transform="translate(10208 5855)">
    <rect id="Rectángulo_375109" data-name="Rectángulo 375109" width="310" height="280" transform="translate(-10208 -5855)" fill="none"/>
    <g id="Grupo_1067333" data-name="Grupo 1067333" transform="translate(-10181 -5833)">
      <g id="Grupo_1067339" data-name="Grupo 1067339" clip-path="url(#clip-path)">
        <path id="Trazado_802380" data-name="Trazado 802380" d="M550.116,657.84l-15.36-2.792a2.288,2.288,0,0,0-.487-.141l-14.084-2.56,3.147,20.413c1.508.274,18.236-5.534,19.732-6.712l7.074-5.569c1.5-1.178,1.486-2.365-.023-2.64" transform="translate(-347.892 -436.28)" fill="#efe5da"/>
        <path id="Trazado_802381" data-name="Trazado 802381" d="M240.626,164.948c37.192-55.394,9.545-139.576-71.242-160.874C149.246-1.235,61.8-14.132,8.376,67.839-19.6,110.767,24.6,193.18,109.773,143.729c24.67-14.322,35.338,83.115,110.646,41.006,6.17-3.45,16.538-14.322,20.207-19.787" transform="translate(0 0)" fill="#e3eef2"/>
        <path id="Trazado_802382" data-name="Trazado 802382" d="M248.069,395.993h0a1.549,1.549,0,0,1-1.2,1.854l-2.938-.48c-.77.063-1.2-2.032.23-2.475l2.18-.125a2.6,2.6,0,0,1,.849.082c.515.144.791.39.877,1.144" transform="translate(-162.661 -264.011)" fill="#c95836"/>
        <path id="Trazado_802383" data-name="Trazado 802383" d="M643.634,413.7a3.212,3.212,0,1,1-3.212-3.212A3.212,3.212,0,0,1,643.634,413.7Z" transform="translate(-426.157 -274.531)" fill="none" stroke="#1f1406" stroke-linecap="round" stroke-linejoin="round" stroke-width="2.277"/>
        <path id="Trazado_802384" data-name="Trazado 802384" d="M522.053,96.728a3.212,3.212,0,1,1-3.212-3.212A3.212,3.212,0,0,1,522.053,96.728Z" transform="translate(-344.845 -62.542)" fill="none" stroke="#1f1406" stroke-linecap="round" stroke-linejoin="round" stroke-width="2.277"/>
        <path id="Trazado_802385" data-name="Trazado 802385" d="M206.98,214.268a3.212,3.212,0,1,1-3.212-3.212A3.212,3.212,0,0,1,206.98,214.268Z" transform="translate(-134.129 -141.151)" fill="none" stroke="#1f1406" stroke-linecap="round" stroke-linejoin="round" stroke-width="2.277"/>
        <path id="Trazado_802386" data-name="Trazado 802386" d="M457.477,568.358l-18.106-3.187a2.75,2.75,0,0,0-.575-.161L376.23,554a9.658,9.658,0,0,0-6.442,1.889L350.11,570.959c-1.765,1.352-1.754,2.714.024,3.027l18.106,3.188a2.768,2.768,0,0,0,.574.161l43.337,13.04c1.778.313,35.239-11.245,37-12.6l8.345-6.393c1.765-1.352,1.754-2.714-.024-3.027" transform="translate(-233.268 -370.461)" fill="#efe5da"/>
        <path id="Trazado_802387" data-name="Trazado 802387" d="M353.022,352.82l54.7,9.807c5.617,1.007,10.219-2.612,10.279-8.083l1.282-117.07c.06-5.472-4.445-10.723-10.062-11.731l-54.7-9.807c-5.617-1.007-10.219,2.612-10.279,8.083l-1.282,117.07c-.06,5.471,4.445,10.723,10.062,11.73" transform="translate(-229.366 -144.302)" fill="#b0c5fd"/>
        <path id="Trazado_802388" data-name="Trazado 802388" d="M412.164,367.543c.045-.028,4.248-3.323,4.248-3.323L348.742,220.847l-3.815,2.953Z" transform="translate(-230.682 -147.699)" fill="#8f612a"/>
        <path id="Trazado_802389" data-name="Trazado 802389" d="M342.266,361.126l54.7,9.807c5.617,1.007,10.219-2.612,10.279-8.083l1.282-117.07c.06-5.472-4.445-10.723-10.062-11.731l-54.7-9.807c-5.617-1.007-10.219,2.612-10.279,8.083L332.2,349.4c-.06,5.471,4.445,10.723,10.062,11.73" transform="translate(-222.173 -149.858)" fill="#708bd2"/>
        <path id="Trazado_802390" data-name="Trazado 802390" d="M409.851,253.411a7.031,7.031,0,0,0-5.772-6.638l-55.931-9.854c-3.223-.568-5.865,1.484-5.9,4.582l-1.343,116.757a7.032,7.032,0,0,0,5.772,6.638l55.93,9.853c3.223.568,5.866-1.483,5.9-4.581Z" transform="translate(-227.992 -158.385)" fill="#d9d0c5"/>
        <path id="Trazado_802391" data-name="Trazado 802391" d="M349.842,375.126l-42.291-7.343c-6.784-1.178-12.3-8.06-12.252-15.294l.541-87.036c.045-7.234,5.632-12.189,12.416-11.011l42.291,7.343c6.784,1.178,12.3,8.06,12.252,15.294l-.541,87.036c-.045,7.234-5.632,12.189-12.416,11.011" transform="translate(-197.491 -170.051)" fill="#fff"/>
        <path id="Trazado_802392" data-name="Trazado 802392" d="M306.773,450.693c-6.784-1.178-12.3-8.06-12.252-15.294l.612-57.092" transform="translate(-196.971 -253.006)" fill="none" stroke="#1f1406" stroke-linecap="round" stroke-linejoin="round" stroke-width="1.413"/>
        <line id="Línea_1775" data-name="Línea 1775" x1="0.405" y2="65.263" transform="translate(164.763 117.686)" fill="none" stroke="#1f1406" stroke-linecap="round" stroke-linejoin="round" stroke-width="1.413"/>
        <path id="Trazado_802393" data-name="Trazado 802393" d="M354.31,354.207a23.566,23.566,0,0,0,11.5,4.62c11.99,1.261,21.151-8.187,20.46-21.1a28.029,28.029,0,0,0-5.056-14.437" transform="translate(-236.957 -216.211)" fill="none" stroke="#1f1406" stroke-linecap="round" stroke-linejoin="round" stroke-width="1.413"/>
        <path id="Trazado_802394" data-name="Trazado 802394" d="M370.951,328.336c-.059,9.474-7.309,15.9-16.192,14.361s-16.038-10.473-15.98-19.947,7.309-15.9,16.193-14.361,16.038,10.473,15.979,19.947" transform="translate(-226.57 -206.094)" fill="#d9e2f7"/>
        <path id="Trazado_802395" data-name="Trazado 802395" d="M382.13,327.2a3.772,3.772,0,0,1-4.453,3.949,5.628,5.628,0,0,1-4.393-5.484,3.772,3.772,0,0,1,4.453-3.949,5.628,5.628,0,0,1,4.393,5.484" transform="translate(-249.647 -215.114)" fill="#7083fa"/>
        <path id="Trazado_802396" data-name="Trazado 802396" d="M373.107,358.816a8.353,8.353,0,0,1-.9-.286l-2.791-.736a26.482,26.482,0,0,0-4.606-.795l-2.673-.218a7.262,7.262,0,0,1-.9-.028,3.815,3.815,0,0,0-4.041,4.043l-.016,2.619,9.889,1.717.121.021,9.888,1.717.017-2.618a5.744,5.744,0,0,0-3.982-5.437" transform="translate(-238.873 -238.586)" fill="#7083fa"/>
        <path id="Trazado_802397" data-name="Trazado 802397" d="M364.339,549.633l-23.992-4.166a6.948,6.948,0,0,1-5.406-6.748,4.651,4.651,0,0,1,5.478-4.858l23.992,4.166a6.949,6.949,0,0,1,5.406,6.748h0a4.652,4.652,0,0,1-5.478,4.858" transform="translate(-224.003 -356.987)" fill="#5267eb"/>
        <path id="Trazado_802398" data-name="Trazado 802398" d="M364.62,504.332l-23.992-4.166a6.948,6.948,0,0,1-5.406-6.748,4.651,4.651,0,0,1,5.478-4.858l23.992,4.166a6.948,6.948,0,0,1,5.406,6.748h0a4.652,4.652,0,0,1-5.478,4.858" transform="translate(-224.191 -326.691)" fill="#f9305f"/>
        <path id="Trazado_802399" data-name="Trazado 802399" d="M358.638,502.568l-.931-.162.662-.587a.1.1,0,0,0,.03-.066c.033-.659-.554-.936-.852-.672l-.528.468.006-.992a.134.134,0,0,0-.026-.077c-.417-.564-.951-.337-.954.109l-.005.791-.653-.816a.122.122,0,0,0-.066-.043c-.623-.138-.79.46-.5.826l.521.65-.93-.162a.086.086,0,0,0-.068.016.6.6,0,0,0,.251,1.06l.742.129-.663.588a.093.093,0,0,0-.03.066c-.032.659.554.936.851.672l.528-.468-.006.992a.129.129,0,0,0,.025.077c.417.564.951.337.954-.109l0-.791.654.816a.122.122,0,0,0,.066.043c.623.138.79-.46.5-.826l-.521-.65.742.129c.418.073.721-.442.264-.97a.121.121,0,0,0-.068-.039" transform="translate(-236.826 -334.49)" fill="#fff"/>
        <path id="Trazado_802400" data-name="Trazado 802400" d="M376.87,505.733l-.93-.162.662-.587a.1.1,0,0,0,.03-.066c.032-.659-.554-.936-.851-.672l-.528.468.006-.992a.134.134,0,0,0-.026-.077c-.417-.564-.951-.337-.954.109l0,.791-.654-.816a.122.122,0,0,0-.066-.043c-.623-.138-.79.46-.5.826l.521.65-.93-.162a.086.086,0,0,0-.068.016.6.6,0,0,0,.251,1.06l.742.129-.663.588a.1.1,0,0,0-.03.066c-.032.659.554.936.851.672l.528-.468-.006.992a.132.132,0,0,0,.025.077c.417.564.951.337.954-.109l0-.791.654.816a.122.122,0,0,0,.066.043c.623.138.79-.46.5-.826l-.521-.65.742.129c.418.073.721-.442.264-.97a.121.121,0,0,0-.068-.039" transform="translate(-249.019 -336.606)" fill="#fff"/>
        <path id="Trazado_802401" data-name="Trazado 802401" d="M395.1,508.9l-.931-.162.662-.587a.1.1,0,0,0,.03-.066c.032-.659-.554-.936-.852-.672l-.528.468.006-.992a.136.136,0,0,0-.026-.077c-.417-.564-.951-.336-.954.109l0,.791-.654-.816a.122.122,0,0,0-.066-.043c-.623-.138-.79.46-.5.826l.521.65-.93-.162a.086.086,0,0,0-.068.016.6.6,0,0,0,.251,1.06l.742.129-.663.588a.093.093,0,0,0-.03.066c-.032.659.554.936.851.672l.528-.468-.006.992a.13.13,0,0,0,.025.077c.417.564.951.336.954-.109l0-.791.654.816a.121.121,0,0,0,.066.043c.623.138.79-.46.5-.826l-.521-.65.742.129c.418.073.721-.442.264-.97a.121.121,0,0,0-.068-.039" transform="translate(-261.213 -338.724)" fill="#fff"/>
        <path id="Trazado_802402" data-name="Trazado 802402" d="M413.334,512.065l-.931-.162.662-.587a.1.1,0,0,0,.03-.066c.032-.659-.554-.936-.851-.672l-.528.468.006-.992a.134.134,0,0,0-.026-.077c-.417-.564-.951-.337-.954.109l0,.791-.654-.816a.122.122,0,0,0-.066-.043c-.623-.138-.79.46-.5.826l.521.65-.93-.162a.086.086,0,0,0-.068.016.6.6,0,0,0,.251,1.06l.742.129-.663.588a.093.093,0,0,0-.03.066c-.032.659.554.936.851.672l.528-.468-.006.992a.132.132,0,0,0,.025.077c.417.564.951.337.954-.109l0-.791.654.816a.122.122,0,0,0,.066.043c.623.138.79-.46.5-.826l-.521-.65.742.129c.418.073.721-.442.264-.97a.121.121,0,0,0-.068-.039" transform="translate(-273.406 -340.841)" fill="#fff"/>
        <path id="Trazado_802403" data-name="Trazado 802403" d="M364.9,459.031l-23.992-4.166a6.948,6.948,0,0,1-5.406-6.748,4.652,4.652,0,0,1,5.478-4.858l23.992,4.166a6.949,6.949,0,0,1,5.406,6.748,4.652,4.652,0,0,1-5.478,4.858" transform="translate(-224.379 -296.394)" fill="#d9e2f7"/>
        <line id="Línea_1776" data-name="Línea 1776" x2="23.04" y2="4" transform="translate(116.667 152.686)" fill="none" stroke="#1f1406" stroke-linecap="round" stroke-linejoin="round" stroke-width="1.413"/>
        <line id="Línea_1777" data-name="Línea 1777" x2="23.04" y2="4" transform="translate(116.48 182.708)" fill="none" stroke="#1f1406" stroke-linecap="round" stroke-linejoin="round" stroke-width="1.413"/>
        <path id="Trazado_802404" data-name="Trazado 802404" d="M145.83,371.924l16.817,9.311L177.311,379l.173,3.147c-.055.912-11.11,6.65-14.337,7.881a3.787,3.787,0,0,1-2.314.129c-4.846-1.258-17.251-7.783-17.251-7.783Z" transform="translate(-96.026 -248.737)" fill="#f9305f"/>
        <path id="Trazado_802405" data-name="Trazado 802405" d="M236.3,667.721c.012,2.154,4.109,3.876,9.151,3.848s9.119-1.8,9.107-3.951-4.109-3.876-9.151-3.848-9.119,1.8-9.107,3.951" transform="translate(-158.037 -443.919)" fill="#efe5da"/>
        <path id="Trazado_802406" data-name="Trazado 802406" d="M53.971,656.919c6.217-3.125,16.87-3.231,23.795-.237a14.687,14.687,0,0,1,2.983,1.686,23.278,23.278,0,0,1,14.446.7c4.866,2.1,5.268,5.588.9,7.784-4.2,2.11-11.269,2.255-16.132.4-.288.173-.591.343-.916.506-6.217,3.125-16.87,3.231-23.795.237s-7.5-7.953-1.28-11.078" transform="translate(-33.211 -437.723)" fill="#efe5da"/>
        <path id="Trazado_802407" data-name="Trazado 802407" d="M152.66,662.957l-4.322-4.5a4.393,4.393,0,0,0-3.16-1.374,7.053,7.053,0,0,0-1.251.11.92.92,0,0,0-.824.942l-.1.938c-.118,1.571-.308,2.092.746,2.584l6.259,2.926c1.3.9,4.858.367,2.654-1.624" transform="translate(-95.574 -439.446)" fill="#663a24"/>
        <path id="Trazado_802408" data-name="Trazado 802408" d="M134.238,542.652a2.094,2.094,0,0,0,2.106,1.846c.513-.04.875-.331.976-1.292.167-10.814,1.487-19.794,1.65-29.9.182-11.35-.224-8.014.029-25.414l-10.315-2.452c1.844,12.606,2.428,28.448,2.428,28.448-3.079,11.54,1.123,15.131,3.126,28.767" transform="translate(-86.062 -324.652)" fill="#de5840"/>
        <path id="Trazado_802409" data-name="Trazado 802409" d="M122.19,461.579l3.923,26.278a22.542,22.542,0,0,1-.315,7.961c-.884,4.174-.6,12.614,2.715,24.926a4.069,4.069,0,0,0,5.161.242s2.23-27.151,2.337-32.394-.442-33.514-.442-33.514Z" transform="translate(-81.719 -304.349)" fill="#ab988d"/>
        <path id="Trazado_802410" data-name="Trazado 802410" d="M80.73,667.278l-.195,3.417a17.079,17.079,0,0,1-.657,2.552,2.31,2.31,0,0,1-2.046,1.278,2.866,2.866,0,0,1-2.158-3.731c.682-1.752,2.02-4.537,2.02-4.537a7.227,7.227,0,0,0,3.036,1.02" transform="translate(-50.489 -445.584)" fill="#663a24"/>
        <path id="Trazado_802411" data-name="Trazado 802411" d="M78.461,553.376c-.235,1.334,1.923,2.005,2.87.683,1.393-10.69,3.619-20.341,4.926-30.333,1.469-11.219,2.462-10.511,4.686-27.712l-11.379.175c.411,12.637-.8,28.368-.8,28.368-4.553,11.592-.484,13.8-.3,28.818" transform="translate(-51.238 -331.727)" fill="#de5840"/>
        <path id="Trazado_802412" data-name="Trazado 802412" d="M76.269,464.683s.641,22.767-.162,27.743c-.624,3.867-2.143,10.2-2.789,12.824a13.582,13.582,0,0,0-.379,2.609c-.184,3.873-.064,14.533,1.182,21.1,1.17,1.826,3.861,1.537,5.912.55L85.241,503.6c.076-.3,4.549-22.369,4.549-22.369l6.188-1.07-3.471-15.371s-17.056,1.308-16.239-.1" transform="translate(-48.734 -310.773)" fill="#ab988d"/>
        <path id="Trazado_802413" data-name="Trazado 802413" d="M95.724,366.432a7.756,7.756,0,0,1-3-.394,5.11,5.11,0,0,0-4.811-.183l-6.884,2.331c-8.7,2.49-7.226,8.449-7.38,12.241,0,0,3.612,4.8,3.8,8.363.164,3.084,2.028,9.993,1.532,11-.371.756-.354,5.363,3.425,6.476,3.339.983,8.734,3.947,11.586,3.825,15-.645,10.813-8.415,10.5-13.515-.2-3.209-.992-12.679-1.006-15.228s1.056-8.834-3-12.8a8.207,8.207,0,0,0-4.758-2.12" transform="translate(-49.249 -244.328)" fill="#f9305f"/>
        <path id="Trazado_802414" data-name="Trazado 802414" d="M116.546,361.709l.314-.278c.844.236,1.583.178,1.721-.556l.776-4.135a1.659,1.659,0,0,0-1.284-1.763l-.25-.07c-.844-.236-3.169-.266-3.307.467l-.434,4.385c-.138.733,1.62,1.712,2.464,1.949" transform="translate(-76.292 -237.257)" fill="#de5840"/>
        <path id="Trazado_802415" data-name="Trazado 802415" d="M122.858,363.27a4.182,4.182,0,0,1-2.92-2.058s1.093,2.747,2.729,3.176Z" transform="translate(-80.213 -241.573)" fill="#ba422d"/>
        <path id="Trazado_802416" data-name="Trazado 802416" d="M115.017,338.944a1.688,1.688,0,0,1,2.617-.6c.924-.368,2.022.234,2.813,1.711,1.1,2.057,1.592,5.291.6,6.892a2.692,2.692,0,0,1-2.077,1.088,11.556,11.556,0,0,1-2.7-.758c-2.036-.829-1.528-.4-2.262-1.767-1.1-2.057.018-4.962,1.012-6.563" transform="translate(-75.941 -226.015)" fill="#de5840"/>
        <path id="Trazado_802417" data-name="Trazado 802417" d="M111.571,340.479c-.806,1.935-.55,5.288-.679,5.883,0,0-3.11-2.259-2.9-4,.7-5.8,4.08-2.612,4.08-2.612Z" transform="translate(-72.217 -226.638)" fill="#663a24"/>
        <path id="Trazado_802418" data-name="Trazado 802418" d="M112.582,334.8c-1.217.263-1.969,1.158-2.382,2.742-.053.2-.5,1.111-.518,1.282l.783-.209c-.158,1.371.692-.726,2.072-.444,2.156-.741,3.872-.468,6,1.387.274.239,1.024-.178.739-.855a6.93,6.93,0,0,0-4.354-3.812l-.4-.07a5.072,5.072,0,0,0-1.937-.023" transform="translate(-73.354 -223.855)" fill="#663a24"/>
        <path id="Trazado_802419" data-name="Trazado 802419" d="M129.792,361.242h0a1.078,1.078,0,0,0,.716-1.26l-1.731.325c.082.606.537,1.025,1.015.935" transform="translate(-86.124 -240.751)" fill="#fff"/>
        <path id="Trazado_802420" data-name="Trazado 802420" d="M111.859,355.65a1.224,1.224,0,0,0,1.06,1.322,1.138,1.138,0,0,0,1.285-1.024,1.224,1.224,0,0,0-1.06-1.322,1.138,1.138,0,0,0-1.285,1.025" transform="translate(-74.806 -237.162)" fill="#de5840"/>
        <path id="Trazado_802421" data-name="Trazado 802421" d="M126.621,367.992a2.092,2.092,0,0,0,1.316-.1s.572,2.725-.417,3.543l-1.817-1.185a3.542,3.542,0,0,0,.918-2.253" transform="translate(-84.068 -246.038)" fill="#fff"/>
        <path id="Trazado_802422" data-name="Trazado 802422" d="M113.94,369.873l-1.206,1.837s-4.337-1.322-4.5-3.469l1.9-.84s2.124,2.63,3.8,2.472" transform="translate(-72.386 -245.712)" fill="#fff"/>
        <path id="Trazado_802423" data-name="Trazado 802423" d="M80.162,428.152c.227-1.749.215-10.716.051-13.8-.107-2.019-.385-7.9-.671-10.89,1.491,2.813,2.551,3.874,2.709,4.569,1.245,5.465,1.544,8.46,4.2,11.583,5.094,5.991,6.465,9.863,11.488,15.983-11.53.125-13.665-.464-15.858-1.7-2.723-1.534-2.035-4.849-1.919-5.745" transform="translate(-53.197 -269.829)" fill="#e33961"/>
        <line id="Línea_1778" data-name="Línea 1778" x1="0.273" y2="4.996" transform="translate(53.833 132.512)" fill="none" stroke="#e33961" stroke-linecap="round" stroke-linejoin="round" stroke-width="1.436"/>
        <path id="Trazado_802424" data-name="Trazado 802424" d="M83.607,476.214h0a1.489,1.489,0,0,1-1.578-1.354l.711-2.684c.015-.727.017-1.259.9-1.24s1.378.453,1.333,1.768l-.089,2.053a2.455,2.455,0,0,1-.154.782c-.179.463-.43.69-1.124.675" transform="translate(-54.86 -314.955)" fill="#de5840"/>
        <path id="Trazado_802425" data-name="Trazado 802425" d="M54.276,382.153s-10.287,8.658-12.886,16.76S55.065,413.85,55.065,413.85l2.43-1.794a.722.722,0,0,0,.006-1.13c-2.253-1.86-8.932-7.555-8.03-8.964,1.5-2.344,11.69-12.589,11.69-12.589Z" transform="translate(-27.493 -255.578)" fill="#f9305f"/>
        <line id="Línea_1779" data-name="Línea 1779" y1="5.305" x2="0.681" transform="translate(28.935 133.928)" fill="none" stroke="#e33961" stroke-linecap="round" stroke-linejoin="round" stroke-width="1.436"/>
        <line id="Línea_1780" data-name="Línea 1780" x1="1.848" y1="1.266" transform="translate(37.189 112.823)" fill="none" stroke="#422617" stroke-linecap="round" stroke-linejoin="round" stroke-width="0.812"/>
        <path id="Trazado_802426" data-name="Trazado 802426" d="M254.922,658.176h0a2.06,2.06,0,0,0-2.048-2.06l-2.222-.006a2.054,2.054,0,0,0-.012,4.107l2.222.006a2.06,2.06,0,0,0,2.059-2.048" transform="translate(-166.255 -438.797)" fill="#6a7beb"/>
        <path id="Trazado_802427" data-name="Trazado 802427" d="M256.045,639.707h0a2.06,2.06,0,0,0-2.048-2.06l-2.222-.006a2.054,2.054,0,0,0-.012,4.107l2.222.006a2.06,2.06,0,0,0,2.059-2.048" transform="translate(-167.006 -426.445)" fill="#6a7beb"/>
        <path id="Trazado_802428" data-name="Trazado 802428" d="M223.668,423.516a11.958,11.958,0,1,0-11.924-11.993,11.958,11.958,0,0,0,11.924,11.993" transform="translate(-141.611 -267.246)" fill="#6a7beb"/>
        <path id="Trazado_802429" data-name="Trazado 802429" d="M243.974,499.206l.23-80.614a3.152,3.152,0,1,0-6.3-.018l-.23,80.614a3.152,3.152,0,0,0,6.3.018" transform="translate(-158.951 -277.834)" fill="#6a7beb"/>
        <path id="Trazado_802430" data-name="Trazado 802430" d="M243.922,470.353a10.264,10.264,0,0,1-6.607-.106" transform="translate(-158.713 -314.494)" fill="none" stroke="#162070" stroke-linecap="round" stroke-linejoin="round" stroke-width="2.166"/>
        <path id="Trazado_802431" data-name="Trazado 802431" d="M239.622,410.4a9.451,9.451,0,0,0-7.814-4.592,9.579,9.579,0,0,0-8.156,5.053" transform="translate(-149.574 -271.401)" fill="none" stroke="#162070" stroke-linecap="round" stroke-linejoin="round" stroke-width="1.976"/>
        <path id="Trazado_802432" data-name="Trazado 802432" d="M245.4,415a2.411,2.411,0,1,1-2.4-2.221A2.318,2.318,0,0,1,245.4,415" transform="translate(-160.903 -276.062)" fill="#fff"/>
        <path id="Trazado_802433" data-name="Trazado 802433" d="M446.754,686.827l-25.64-4.648c-4.5-.815-5.66-3.5-2.586-5.97s9.267-3.822,13.763-3.007l25.64,4.648c4.5.815,5.66,3.5,2.586,5.971s-9.267,3.821-13.763,3.006" transform="translate(-278.756 -450.069)" fill="#6889e3"/>
        <path id="Trazado_802434" data-name="Trazado 802434" d="M416.821,603.759l-.011,28.634,45.425,2.341V605.944Z" transform="translate(-278.756 -403.785)" fill="#6e80eb"/>
        <path id="Trazado_802435" data-name="Trazado 802435" d="M507.868,607.954v29.2h0c.014,1.188-.727,2.489-2.293,3.747h0a15.414,15.414,0,0,1-3.171,1.91l1.695.307c4.5.815,10.689-.538,13.763-3.006a3.779,3.779,0,0,0,1.716-2.8h0l-.116-28.233Z" transform="translate(-335.998 -406.591)" fill="#5a6bcc"/>
        <path id="Trazado_802436" data-name="Trazado 802436" d="M464.246,661.251h0a3.47,3.47,0,0,1-2.492-3.112V650.49a1.833,1.833,0,0,1,2.492-1.772,3.47,3.47,0,0,1,2.492,3.112v7.649a1.833,1.833,0,0,1-2.492,1.772" transform="translate(-308.814 -433.793)" fill="#2b4ca1"/>
        <path id="Trazado_802437" data-name="Trazado 802437" d="M464.734,641.977a3.7,3.7,0,0,1-4,4.1,5.132,5.132,0,0,1-4.834-4.441,3.7,3.7,0,0,1,4-4.1,5.131,5.131,0,0,1,4.834,4.441" transform="translate(-304.883 -426.373)" fill="#2b4ca1"/>
        <path id="Trazado_802438" data-name="Trazado 802438" d="M459.57,651.337v-5.721a4.924,4.924,0,0,1-1.927-3.356,3.7,3.7,0,0,1,4-4.1,4.646,4.646,0,0,1,.541.055,4.982,4.982,0,0,0-2.287-.673,3.7,3.7,0,0,0-4,4.1A4.925,4.925,0,0,0,457.823,645v5.721a3.47,3.47,0,0,0,2.492,3.112,2.5,2.5,0,0,0,.674.087,3.38,3.38,0,0,1-1.419-2.581" transform="translate(-304.883 -426.372)" fill="#18398f"/>
        <path id="Trazado_802439" data-name="Trazado 802439" d="M446.754,600.035l-25.64-4.648c-4.5-.815-5.66-3.5-2.586-5.97s9.267-3.822,13.763-3.007l25.64,4.648c4.5.815,5.66,3.5,2.586,5.971s-9.267,3.822-13.763,3.006" transform="translate(-278.756 -392.024)" fill="#6e80eb"/>
        <path id="Trazado_802440" data-name="Trazado 802440" d="M507.195,607.1c0,.9-1.649,1.752-3.683,1.9s-3.683-.471-3.683-1.375,1.649-1.752,3.683-1.9,3.683.471,3.683,1.374" transform="translate(-334.278 -405.089)" fill="#27427a"/>
        <path id="Trazado_802441" data-name="Trazado 802441" d="M456.033,597.9c0,.9-1.649,1.752-3.683,1.9s-3.683-.471-3.683-1.375,1.649-1.752,3.683-1.9,3.683.471,3.683,1.374" transform="translate(-300.061 -398.933)" fill="#27427a"/>
        <path id="Trazado_802442" data-name="Trazado 802442" d="M461.554,536.868s-14.92-3.289-13.174,21.573l7.367-.522s-2.085-14.439,3.771-14.523a3.7,3.7,0,0,1,1.389.126c1.617.678,5.453,3.618,4.437,18.1l7.367-.522s1.49-22.712-11.157-24.23" transform="translate(-299.775 -358.953)" fill="#27427a"/>
        <path id="Trazado_802443" data-name="Trazado 802443" d="M429.806,613.993l25.64,4.648s3.466.612,3.873.208" transform="translate(-287.448 -410.629)" fill="none" stroke="#2d3973" stroke-linecap="round" stroke-linejoin="round" stroke-width="1.249"/>
        <path id="Trazado_802444" data-name="Trazado 802444" d="M499.828,610.705s.157,1.69,3.683,1.374,3.7-1.766,3.7-1.766" transform="translate(-334.278 -408.168)" fill="none" stroke="#fffcfa" stroke-linecap="round" stroke-linejoin="round" stroke-width="0.853"/>
        <path id="Trazado_802445" data-name="Trazado 802445" d="M447.778,601.563s.157,1.691,3.683,1.374,3.7-1.766,3.7-1.766" transform="translate(-299.467 -402.054)" fill="none" stroke="#fffcfa" stroke-linecap="round" stroke-linejoin="round" stroke-width="0.853"/>
      </g>
    </g>
  </g>
</svg>
