<svg xmlns="http://www.w3.org/2000/svg" width="110" height="110" viewBox="0 0 110 110">
  <g id="Grupo_1068687" data-name="Grupo 1068687" transform="translate(-300 -6371)">
    <g id="Grupo_1068686" data-name="Grupo 1068686">
      <g id="Grupo_1067346" data-name="Grupo 1067346" transform="translate(300.42 6371.42)">
        <path id="Rectángulo_373436" data-name="Rectángulo 373436" d="M10,0H110a0,0,0,0,1,0,0V110a0,0,0,0,1,0,0H10A10,10,0,0,1,0,100V10A10,10,0,0,1,10,0Z" transform="translate(-0.42 -0.42)" fill="#b0c5fd"/>
      </g>
      <g id="_021---Cyber-Security" data-name="021---Cyber-Security" transform="translate(320 6391)">
        <path id="Path" d="M51.333,32.667A18.667,18.667,0,1,1,14,32.878v-.211c0-.211,0-.435.013-.647a18.667,18.667,0,0,1,16.326-17.87A18.054,18.054,0,0,1,32.667,14h.2A18.667,18.667,0,0,1,51.333,32.667Z" transform="translate(2.333 2.333)" fill="#a3d274"/>
        <rect id="Rectangle" width="16" height="15" rx="2" transform="translate(27 31)" fill="#e5e8eb"/>
        <ellipse id="Oval" cx="3" cy="2" rx="3" ry="2" transform="translate(32 35)" fill="#abb1bb"/>
        <path id="Path-2" data-name="Path" d="M14,4.5a3.363,3.363,0,0,1-.2,1.143,3.5,3.5,0,1,1,0-2.287A3.363,3.363,0,0,1,14,4.5Z" transform="translate(1.166 0.167)" fill="#b8df8a"/>
        <path id="Path-3" data-name="Path" d="M54,4.5a3.5,3.5,0,0,1-6.8,1.143,3.4,3.4,0,0,1,0-2.287A3.5,3.5,0,0,1,54,4.5Z" transform="translate(7.833 0.169)" fill="#b8df8a"/>
        <path id="Path-4" data-name="Path" d="M14,56.5a3.364,3.364,0,0,1-.2,1.143,3.5,3.5,0,1,1,0-2.287A3.364,3.364,0,0,1,14,56.5Z" transform="translate(1.166 8.833)" fill="#b8df8a"/>
        <path id="Path-5" data-name="Path" d="M54,56.5a3.5,3.5,0,0,1-6.8,1.143,3.4,3.4,0,0,1,0-2.287A3.5,3.5,0,0,1,54,56.5Z" transform="translate(7.833 8.836)" fill="#b8df8a"/>
        <path id="Path-6" data-name="Path" d="M8,40.5a3.363,3.363,0,0,1-.2,1.143,3.5,3.5,0,1,1,0-2.287A3.364,3.364,0,0,1,8,40.5Z" transform="translate(0.166 6.167)" fill="#b8df8a"/>
        <path id="Path-7" data-name="Path" d="M8,20.5a3.364,3.364,0,0,1-.2,1.143,3.5,3.5,0,1,1,0-2.287A3.363,3.363,0,0,1,8,20.5Z" transform="translate(0.166 2.833)" fill="#b8df8a"/>
        <path id="Path-8" data-name="Path" d="M60,40.5a3.5,3.5,0,0,1-6.8,1.143,3.4,3.4,0,0,1,0-2.287A3.5,3.5,0,0,1,60,40.5Z" transform="translate(8.833 6.169)" fill="#b8df8a"/>
        <path id="Path-9" data-name="Path" d="M60,20.5a3.5,3.5,0,0,1-6.8,1.143,3.4,3.4,0,0,1,0-2.287A3.5,3.5,0,0,1,60,20.5Z" transform="translate(8.833 2.836)" fill="#b8df8a"/>
        <g id="Grupo_1067345" data-name="Grupo 1067345">
          <path id="Shape" d="M37.167,42.5H25.5A3.5,3.5,0,0,1,22,39V28.5A3.5,3.5,0,0,1,25.5,25H37.167a3.5,3.5,0,0,1,3.5,3.5V39A3.5,3.5,0,0,1,37.167,42.5ZM25.5,27.333A1.167,1.167,0,0,0,24.333,28.5V39A1.167,1.167,0,0,0,25.5,40.167H37.167A1.167,1.167,0,0,0,38.333,39V28.5a1.167,1.167,0,0,0-1.167-1.167Z" transform="translate(3.667 4.167)" fill="#373737"/>
          <path id="Shape-2" data-name="Shape" d="M30.5,36A3.5,3.5,0,1,1,34,32.5,3.5,3.5,0,0,1,30.5,36Zm0-4.667A1.167,1.167,0,1,0,31.667,32.5,1.167,1.167,0,0,0,30.5,31.333Z" transform="translate(4.5 4.833)" fill="#373737"/>
          <path id="Path-10" data-name="Path" d="M32.833,51.764A19.833,19.833,0,0,1,17.958,18.811a1.167,1.167,0,1,1,1.75,1.545A17.5,17.5,0,0,0,43.036,46.15,1.167,1.167,0,0,1,44.4,48.045a19.7,19.7,0,0,1-11.565,3.719Z" transform="translate(2.167 3.069)" fill="#373737"/>
          <path id="Path-11" data-name="Path" d="M46.237,45.666a1.167,1.167,0,0,1-.909-1.9,17.308,17.308,0,0,0,3.838-10.936A17.5,17.5,0,0,0,21.823,18.366a1.167,1.167,0,1,1-1.314-1.928A19.833,19.833,0,0,1,47.149,45.23a1.167,1.167,0,0,1-.912.436Z" transform="translate(3.333 2.167)" fill="#373737"/>
          <path id="Shape-3" data-name="Shape" d="M10.667,9.333a4.667,4.667,0,1,1,3.3-1.367A4.667,4.667,0,0,1,10.667,9.333Zm0-7a2.333,2.333,0,1,0,1.65.683,2.333,2.333,0,0,0-1.65-.683Z" transform="translate(1)" fill="#373737"/>
          <path id="Shape-4" data-name="Shape" d="M50.667,9.333a4.667,4.667,0,1,1,3.3-1.367A4.667,4.667,0,0,1,50.667,9.333Zm0-7a2.333,2.333,0,1,0,1.65.683,2.333,2.333,0,0,0-1.65-.683Z" transform="translate(7.667)" fill="#373737"/>
          <path id="Shape-5" data-name="Shape" d="M10.667,61.333a4.667,4.667,0,1,1,4.667-4.667A4.667,4.667,0,0,1,10.667,61.333Zm0-7A2.333,2.333,0,1,0,13,56.667,2.333,2.333,0,0,0,10.667,54.333Z" transform="translate(1 8.667)" fill="#373737"/>
          <path id="Shape-6" data-name="Shape" d="M50.667,61.333a4.667,4.667,0,1,1,4.667-4.667A4.667,4.667,0,0,1,50.667,61.333Zm0-7A2.333,2.333,0,1,0,53,56.667,2.333,2.333,0,0,0,50.667,54.333Z" transform="translate(7.667 8.667)" fill="#373737"/>
          <path id="Shape-7" data-name="Shape" d="M4.667,45.333a4.667,4.667,0,1,1,4.667-4.667A4.667,4.667,0,0,1,4.667,45.333Zm0-7A2.333,2.333,0,1,0,7,40.667,2.333,2.333,0,0,0,4.667,38.333Z" transform="translate(0 6)" fill="#373737"/>
          <path id="Shape-8" data-name="Shape" d="M4.667,25.333a4.667,4.667,0,1,1,4.667-4.667A4.667,4.667,0,0,1,4.667,25.333Zm0-7A2.333,2.333,0,1,0,7,20.667,2.333,2.333,0,0,0,4.667,18.333Z" transform="translate(0 2.667)" fill="#373737"/>
          <path id="Shape-9" data-name="Shape" d="M56.667,45.333a4.667,4.667,0,1,1,4.667-4.667A4.667,4.667,0,0,1,56.667,45.333Zm0-7A2.333,2.333,0,1,0,59,40.667,2.333,2.333,0,0,0,56.667,38.333Z" transform="translate(8.667 6)" fill="#373737"/>
          <path id="Shape-10" data-name="Shape" d="M56.667,25.333a4.667,4.667,0,1,1,4.667-4.667A4.667,4.667,0,0,1,56.667,25.333Zm0-7A2.333,2.333,0,1,0,59,20.667,2.333,2.333,0,0,0,56.667,18.333Z" transform="translate(8.667 2.667)" fill="#373737"/>
          <path id="Path-12" data-name="Path" d="M35.5,28.5a1.167,1.167,0,0,1-1.167-1.167v-3.5a3.5,3.5,0,0,0-7,0v3.5a1.167,1.167,0,1,1-2.333,0v-3.5a5.833,5.833,0,1,1,11.667,0v3.5A1.167,1.167,0,0,1,35.5,28.5Z" transform="translate(4.167 3)" fill="#373737"/>
          <path id="Path-13" data-name="Path" d="M30.167,36.5A1.167,1.167,0,0,1,29,35.333V34.167a1.167,1.167,0,1,1,2.333,0v1.167A1.167,1.167,0,0,1,30.167,36.5Z" transform="translate(4.833 5.5)" fill="#373737"/>
          <path id="Path-14" data-name="Path" d="M45.491,18.054a1.167,1.167,0,0,1-.833-.35A22.107,22.107,0,0,0,37.7,12.9a1.167,1.167,0,0,1,.933-2.137,24.39,24.39,0,0,1,7.7,5.311,1.167,1.167,0,0,1-.833,1.983Z" transform="translate(6.171 1.779)" fill="#373737"/>
          <path id="Path-15" data-name="Path" d="M34.833,11.8a1.139,1.139,0,0,1-.233-.023,22.342,22.342,0,0,0-4.433-.443,1.167,1.167,0,0,1,0-2.333,24.638,24.638,0,0,1,4.9.491,1.167,1.167,0,0,1-.233,2.309Z" transform="translate(4.833 1.5)" fill="#373737"/>
          <path id="Path-16" data-name="Path" d="M22.166,13.208a1.167,1.167,0,0,1-.467-2.235,24.4,24.4,0,0,1,4.9-1.549,1.167,1.167,0,1,1,.467,2.288,22.111,22.111,0,0,0-4.433,1.4,1.141,1.141,0,0,1-.467.1Z" transform="translate(3.5 1.567)" fill="#373737"/>
          <path id="Path-17" data-name="Path" d="M12.841,22.333a1.154,1.154,0,0,1-.583-.157,1.167,1.167,0,0,1-.426-1.593,24.476,24.476,0,0,1,6.522-7.35,1.167,1.167,0,1,1,1.4,1.867,22.128,22.128,0,0,0-5.9,6.65,1.167,1.167,0,0,1-1.01.583Z" transform="translate(1.946 2.167)" fill="#373737"/>
          <path id="Path-18" data-name="Path" d="M10.167,32.377A1.167,1.167,0,0,1,9,31.21a24.459,24.459,0,0,1,1.225-7.669,1.167,1.167,0,0,1,2.217.729,22.155,22.155,0,0,0-1.108,6.939,1.167,1.167,0,0,1-1.167,1.167Z" transform="translate(1.5 3.79)" fill="#373737"/>
          <path id="Path-19" data-name="Path" d="M13.223,42.333a1.167,1.167,0,0,1-1.012-.583A24.35,24.35,0,0,1,9.423,34.4a1.167,1.167,0,1,1,2.287-.467,21.975,21.975,0,0,0,2.522,6.65,1.167,1.167,0,0,1-.427,1.594,1.147,1.147,0,0,1-.582.156Z" transform="translate(1.567 5.5)" fill="#373737"/>
          <path id="Path-20" data-name="Path" d="M23.369,50.562a1.141,1.141,0,0,1-.467-.1,24.68,24.68,0,0,1-8.818-6.533,1.167,1.167,0,1,1,1.772-1.517,22.373,22.373,0,0,0,7.979,5.913,1.167,1.167,0,0,1-.467,2.235Z" transform="translate(2.297 6.997)" fill="#373737"/>
          <path id="Path-21" data-name="Path" d="M30.837,51.4a24.637,24.637,0,0,1-4.9-.491,1.167,1.167,0,1,1,.467-2.285,22.517,22.517,0,0,0,8.867,0,1.167,1.167,0,0,1,.467,2.285,24.637,24.637,0,0,1-4.9.491Z" transform="translate(4.163 8.099)" fill="#373737"/>
          <path id="Path-22" data-name="Path" d="M38.166,50.392a1.167,1.167,0,0,1-.467-2.235,22.107,22.107,0,0,0,6.963-4.807,1.168,1.168,0,1,1,1.671,1.633,24.39,24.39,0,0,1-7.7,5.311,1.135,1.135,0,0,1-.467.1Z" transform="translate(6.167 7.166)" fill="#373737"/>
          <path id="Path-23" data-name="Path" d="M47.489,42.334a1.154,1.154,0,0,1-.583-.157,1.167,1.167,0,0,1-.425-1.594A21.968,21.968,0,0,0,49,33.932a1.167,1.167,0,1,1,2.288.467,24.267,24.267,0,0,1-2.789,7.35A1.167,1.167,0,0,1,47.489,42.334Z" transform="translate(7.721 5.5)" fill="#373737"/>
          <path id="Path-24" data-name="Path" d="M50.609,32.994a1.167,1.167,0,0,1-1.167-1.167,22.153,22.153,0,0,0-2.965-11.083A1.167,1.167,0,0,1,48.5,19.577a24.484,24.484,0,0,1,3.279,12.25A1.167,1.167,0,0,1,50.609,32.994Z" transform="translate(7.724 3.173)" fill="#373737"/>
          <path id="Path-25" data-name="Path" d="M23.667,14.282A1.167,1.167,0,0,1,22.5,13.115V5.333H13.167a1.167,1.167,0,1,1,0-2.333H22.5a2.333,2.333,0,0,1,2.333,2.333v7.782A1.167,1.167,0,0,1,23.667,14.282Z" transform="translate(2 0.5)" fill="#373737"/>
          <path id="Path-26" data-name="Path" d="M38.167,14.282A1.167,1.167,0,0,1,37,13.115V5.333A2.333,2.333,0,0,1,39.333,3h9.333a1.167,1.167,0,1,1,0,2.333H39.333v7.782A1.167,1.167,0,0,1,38.167,14.282Z" transform="translate(6.167 0.5)" fill="#373737"/>
          <path id="Path-27" data-name="Path" d="M22.5,58.612H13.167a1.167,1.167,0,1,1,0-2.333H22.5V48.5a1.167,1.167,0,0,1,2.333,0v7.782A2.333,2.333,0,0,1,22.5,58.612Z" transform="translate(2 7.888)" fill="#373737"/>
          <path id="Path-28" data-name="Path" d="M48.667,58.612H39.333A2.333,2.333,0,0,1,37,56.278V48.5a1.167,1.167,0,0,1,2.333,0v7.782h9.333a1.167,1.167,0,1,1,0,2.333Z" transform="translate(6.167 7.888)" fill="#373737"/>
          <path id="Path-29" data-name="Path" d="M30.167,61.833A1.167,1.167,0,0,1,29,60.667v-10.5a1.167,1.167,0,1,1,2.333,0v10.5A1.167,1.167,0,0,1,30.167,61.833Z" transform="translate(4.833 8.167)" fill="#373737"/>
          <path id="Path-30" data-name="Path" d="M30.167,12.833A1.167,1.167,0,0,1,29,11.667V1.167a1.167,1.167,0,0,1,2.333,0v10.5A1.167,1.167,0,0,1,30.167,12.833Z" transform="translate(4.833)" fill="#373737"/>
          <path id="Path-31" data-name="Path" d="M13.805,41.333H7.167a1.167,1.167,0,0,1,0-2.333h6.638a1.167,1.167,0,0,1,0,2.333Z" transform="translate(1 6.5)" fill="#373737"/>
          <path id="Path-32" data-name="Path" d="M13.805,21.333H7.167a1.167,1.167,0,1,1,0-2.333h6.638a1.167,1.167,0,1,1,0,2.333Z" transform="translate(1 3.167)" fill="#373737"/>
          <path id="Path-33" data-name="Path" d="M54.115,41.333H47.477a1.167,1.167,0,0,1,0-2.333h6.638a1.167,1.167,0,0,1,0,2.333Z" transform="translate(7.718 6.5)" fill="#373737"/>
          <path id="Path-34" data-name="Path" d="M54.115,21.333H47.477a1.167,1.167,0,0,1,0-2.333h6.638a1.167,1.167,0,0,1,0,2.333Z" transform="translate(7.718 3.167)" fill="#373737"/>
          <path id="Path-35" data-name="Path" d="M60.667,31.333h-10.5a1.167,1.167,0,1,1,0-2.333h10.5a1.167,1.167,0,0,1,0,2.333Z" transform="translate(8.167 4.833)" fill="#373737"/>
          <path id="Path-36" data-name="Path" d="M11.667,31.333H1.167a1.167,1.167,0,0,1,0-2.333h10.5a1.167,1.167,0,1,1,0,2.333Z" transform="translate(0 4.833)" fill="#373737"/>
        </g>
      </g>
    </g>
  </g>
</svg>
