<svg xmlns="http://www.w3.org/2000/svg" width="190" height="115" viewBox="0 0 190 115">
  <g id="Grupo_1067358" data-name="Grupo 1067358" transform="translate(-180 -6606)">
    <path id="Rectángulo_375112" data-name="Rectángulo 375112" d="M0,0H133a57,57,0,0,1,57,57v1a57,57,0,0,1-57,57H0a0,0,0,0,1,0,0V0A0,0,0,0,1,0,0Z" transform="translate(180 6606)" fill="#ccbcfe"/>
    <g id="globe-grid" transform="translate(232.733 6621)">
      <g id="Grupo_1067348" data-name="Grupo 1067348" transform="translate(1.51 1.242)">
        <path id="Trazado_802446" data-name="Trazado 802446" d="M84.513,41.157l-.441-1.984.363-.459h0a38.374,38.374,0,0,0-2.563-8.152l-2.819-3.8.295-.97A38.892,38.892,0,0,0,66.871,13.31l-.184.452-3.578-1.927-1.583-1.3a38.335,38.335,0,0,0-7.581-2.318l-.111.232-2.109-.218-.766-.479a39.346,39.346,0,0,0-9.039.006l-.463.389L39.369,8.6l-.384-.379a38.379,38.379,0,0,0-7.991,2.494l-.75.767-3.664,2.246-.521-.419A38.9,38.9,0,0,0,13.582,25.788l.317.2-.938,2.45L11.1,30.464a38.357,38.357,0,0,0-2.609,8.25l.285.145-.218,1.783-.522.972a39.326,39.326,0,0,0,.006,9.211l.4.295.351,1.8-.3.755a38.377,38.377,0,0,0,2.647,8.337h0l1.572,1.665,1.374,2.615-.5.311A38.893,38.893,0,0,0,26.059,79.078l.42-.318,3.728,2.193.745.7a38.376,38.376,0,0,0,8.034,2.512l.215-.223,2.416.374.259.3a39.242,39.242,0,0,0,8.987.022l.667-.383L53.706,84l.048.2A38.709,38.709,0,0,0,85.16,46.194a39.129,39.129,0,0,0-.269-4.563Z" transform="translate(-7.77 -7.498)" fill="#b3dafe"/>
        <g id="Grupo_1067347" data-name="Grupo 1067347" transform="translate(0 1.076)">
          <path id="Trazado_802447" data-name="Trazado 802447" d="M274.6,197.9a5.064,5.064,0,0,0-6.161,0l-1.209.927a24.047,24.047,0,0,1-11.244,4.716l-3.547.5a4.388,4.388,0,0,0-3.758,4.325v14.415a28.574,28.574,0,0,0,7.348,19.135,38.709,38.709,0,0,0,30.127-37.741c0-.262-.006-.522-.012-.783a24.051,24.051,0,0,1-10.336-4.568Z" transform="translate(-208.763 -166.56)" fill="#8ac9fe"/>
          <path id="Trazado_802448" data-name="Trazado 802448" d="M21.976,53.07c0-15.828,6.018-29.933,15.4-39.076a38.38,38.38,0,0,0-6.384,2.14l-.75.767-3.664,2.246-.521-.419A38.9,38.9,0,0,0,13.582,31.207l.317.2-.938,2.45L11.1,35.884a38.357,38.357,0,0,0-2.609,8.25l.285.145-.218,1.783-.522.972a39.325,39.325,0,0,0,.006,9.211l.4.295.351,1.8-.3.755a38.377,38.377,0,0,0,2.647,8.337h0l1.572,1.665,1.374,2.615-.5.311A38.893,38.893,0,0,0,26.059,84.5l.42-.318,3.728,2.193.745.7q1.38.6,2.814,1.1C26.478,79.16,21.976,66.759,21.976,53.07Z" transform="translate(-7.77 -13.994)" fill="#8ac9fe"/>
          <path id="Trazado_802449" data-name="Trazado 802449" d="M288.166,264.521l-4.314-1.881a25.273,25.273,0,0,1-15.173-23.167V225.058a1.055,1.055,0,0,1,.907-1.044l3.547-.5a27.314,27.314,0,0,0,12.8-5.367l1.209-.926a1.751,1.751,0,0,1,2.13,0l1.209.926a27.315,27.315,0,0,0,12.8,5.367l3.547.5a1.055,1.055,0,0,1,.907,1.044v14.415a25.273,25.273,0,0,1-15.173,23.167l-4.314,1.881A.093.093,0,0,1,288.166,264.521Z" transform="translate(-225.45 -183.247)" fill="#d7d0d6"/>
          <circle id="Elipse_8579" data-name="Elipse 8579" cx="13.718" cy="13.718" r="13.718" transform="translate(49.035 43.33)" fill="#bbec6c"/>
        </g>
      </g>
      <g id="Grupo_1067349" data-name="Grupo 1067349" transform="translate(0.267)">
        <path id="Trazado_802450" data-name="Trazado 802450" d="M83.054,41.855l-2.941-.415c.02-.51.031-1.013.031-1.5A39.944,39.944,0,0,0,3.427,24.344a1.243,1.243,0,1,0,2.288.971q.525-1.236,1.13-2.42a42.09,42.09,0,0,1,7.5-4.409A64.013,64.013,0,0,0,11.7,29.665,62.027,62.027,0,0,0,3.614,31.93q.172-.79.377-1.572a1.243,1.243,0,1,0-2.4-.634A39.961,39.961,0,0,0,52.08,78.078a26.49,26.49,0,0,0,7.335,4.773l4.352,1.9a1.242,1.242,0,0,0,.993,0l4.352-1.9A26.534,26.534,0,0,0,75.021,79.3a1.243,1.243,0,1,0-1.547-1.945,24.046,24.046,0,0,1-5.355,3.222l-3.855,1.681-3.855-1.681a24,24,0,0,1-7.14-4.792l-.03-.029a24.023,24.023,0,0,1-7.256-17.207V44.293l3.385-.478A28.615,28.615,0,0,0,62.746,38.2l1.209-.926a.509.509,0,0,1,.618,0l1.209.927A28.613,28.613,0,0,0,79.16,43.815l3.385.478V58.544A24.1,24.1,0,0,1,77.064,73.82a1.243,1.243,0,0,0,1.919,1.58A26.585,26.585,0,0,0,85.03,58.545V44.13a2.308,2.308,0,0,0-1.976-2.275ZM69.038,32.3a52.922,52.922,0,0,1,8.269,2.491,38.006,38.006,0,0,1,.352,5.151c0,.353-.006.714-.017,1.08a26.152,26.152,0,0,1-8.231-3.326q-.084-2.726-.372-5.4ZM50.994,14.022a59.768,59.768,0,0,1,11.955,3.151,60.1,60.1,0,0,1,3.162,11.974A126.471,126.471,0,0,0,52.684,27.46a126.384,126.384,0,0,0-1.69-13.438ZM50.168,27.29C46.945,27.1,43.609,27,40.205,27s-6.739.1-9.963.288a123.616,123.616,0,0,1,1.787-13.629,69.8,69.8,0,0,1,16.352,0A123.669,123.669,0,0,1,50.168,27.29ZM57.237,6.563a41.912,41.912,0,0,1,4.408,7.51,64.007,64.007,0,0,0-11.168-2.639A62.075,62.075,0,0,0,48.212,3.34,37,37,0,0,1,57.237,6.563Zm8.818,11.918a42.077,42.077,0,0,1,7.526,4.425A37.009,37.009,0,0,1,76.8,31.933a62.037,62.037,0,0,0-8.1-2.267,64.294,64.294,0,0,0-2.651-11.185ZM70.571,18a49.85,49.85,0,0,0-5.705-2.739,49.988,49.988,0,0,0-2.734-5.7A37.9,37.9,0,0,1,70.571,18ZM45.356,2.837a52.913,52.913,0,0,1,2.49,8.265,72,72,0,0,0-15.282,0A52.945,52.945,0,0,1,35.054,2.84a37.759,37.759,0,0,1,10.3,0ZM32.2,3.347a62.043,62.043,0,0,0-2.264,8.088,64,64,0,0,0-11.18,2.642,42.086,42.086,0,0,1,4.413-7.5A37.355,37.355,0,0,1,32.2,3.347ZM9.828,18.011a37.382,37.382,0,0,1,8.453-8.454,49.827,49.827,0,0,0-2.744,5.712A49.768,49.768,0,0,0,9.828,18.011Zm7.618-.832a59.743,59.743,0,0,1,11.97-3.157,126.426,126.426,0,0,0-1.69,13.437,126.394,126.394,0,0,0-13.437,1.69,59.74,59.74,0,0,1,3.157-11.97ZM44.734,66.544c-1.5.1-3.021.152-4.529.152a69.542,69.542,0,0,1-8.176-.48,123.659,123.659,0,0,1-1.787-13.629c3.224.19,6.559.289,9.963.289,1.094,0,2.2-.011,3.291-.032v5.7a26.5,26.5,0,0,0,1.238,8Zm-15.318-.69A59.752,59.752,0,0,1,17.446,62.7a59.76,59.76,0,0,1-3.157-11.97,126.434,126.434,0,0,0,13.437,1.69A126.472,126.472,0,0,0,29.416,65.854Zm-6.242,7.459A42.067,42.067,0,0,1,18.755,65.8a64.024,64.024,0,0,0,11.179,2.642A62.006,62.006,0,0,0,32.2,76.537,37,37,0,0,1,23.174,73.313ZM3.607,47.943A62.052,62.052,0,0,0,11.7,50.21a63.993,63.993,0,0,0,2.642,11.179,42.064,42.064,0,0,1-7.513-4.42,37,37,0,0,1-3.223-9.026Zm10.321.171a69.8,69.8,0,0,1,0-16.352,123.625,123.625,0,0,1,13.629-1.787c-.19,3.224-.289,6.559-.289,9.963s.1,6.739.289,9.963a123.663,123.663,0,0,1-13.629-1.787ZM11.369,32.3a72,72,0,0,0,0,15.282A52.937,52.937,0,0,1,3.1,45.089a37.759,37.759,0,0,1,0-10.3A52.94,52.94,0,0,1,11.369,32.3ZM9.84,61.873a49.821,49.821,0,0,0,5.7,2.735,49.826,49.826,0,0,0,2.735,5.7A37.92,37.92,0,0,1,9.84,61.873ZM35.055,77.039a52.932,52.932,0,0,1-2.491-8.265,71.949,71.949,0,0,0,7.641.407c1.809,0,3.63-.072,5.429-.207a26.519,26.519,0,0,0,1.447,2.878,46.046,46.046,0,0,1-1.725,5.186,37.833,37.833,0,0,1-10.3,0Zm13.822-2.484q.588.776,1.231,1.509-.943.258-1.9.466Q48.553,75.588,48.877,74.556Zm.143-33.2-3.547.5A2.308,2.308,0,0,0,43.5,44.13v6.228c-1.1.021-2.2.032-3.291.032-3.448,0-6.848-.107-10.139-.312-.2-3.291-.312-6.692-.312-10.139s.107-6.848.312-10.139c3.291-.2,6.692-.312,10.139-.312s6.848.107,10.139.312c.2,3.291.312,6.691.312,10.139,0,.361,0,.733,0,1.132q-.811.168-1.633.284Zm13.423-6.049-1.209.926a26.12,26.12,0,0,1-8.093,4.193q0-.247,0-.486c0-3.4-.1-6.739-.288-9.963a123.68,123.68,0,0,1,13.621,1.786q.243,2.039.365,4.123l-.756-.579a3,3,0,0,0-3.642,0Z" transform="translate(-0.267)"/>
        <path id="Trazado_802451" data-name="Trazado 802451" d="M321.284,273.609a1.243,1.243,0,0,0-.091-1.755,14.925,14.925,0,1,0,3.468,4.617,1.243,1.243,0,0,0-2.238,1.081,12.354,12.354,0,0,1,1.235,5.419,12.479,12.479,0,1,1-4.13-9.271A1.243,1.243,0,0,0,321.284,273.609Z" transform="translate(-247.186 -223.605)"/>
        <path id="Trazado_802452" data-name="Trazado 802452" d="M362.232,319.112l-7.179,9.491-1.7-1.358a1.243,1.243,0,0,0-1.553,1.941l2.695,2.156a1.243,1.243,0,0,0,.776.272,1.258,1.258,0,0,0,.154-.01,1.243,1.243,0,0,0,.837-.483l7.949-10.509a1.242,1.242,0,1,0-1.982-1.5Z" transform="translate(-293.169 -265.829)"/>
      </g>
    </g>
  </g>
</svg>
