<svg xmlns="http://www.w3.org/2000/svg" width="120" height="120" viewBox="0 0 120 120">
  <g id="Grupo_1068688" data-name="Grupo 1068688" transform="translate(-268 -7733)">
    <circle id="Elipse_8582" data-name="Elipse 8582" cx="60" cy="60" r="60" transform="translate(268 7733)" fill="#01c3fd"/>
    <g id="laptop" transform="translate(284 7700.15)">
      <path id="Trazado_802453" data-name="Trazado 802453" d="M78.829,109.284H74.185V73.87a4.068,4.068,0,0,0-4.064-4.064H56.437a16.234,16.234,0,0,0-24.883,0H17.87a4.068,4.068,0,0,0-4.064,4.064v35.415H9.161A1.161,1.161,0,0,0,8,110.445v6.386a4.068,4.068,0,0,0,4.064,4.064H75.926a4.068,4.068,0,0,0,4.064-4.064v-6.386A1.161,1.161,0,0,0,78.829,109.284ZM44,66.322A13.934,13.934,0,1,1,30.062,80.256,13.934,13.934,0,0,1,44,66.322Zm15.578,9.289h8.806V105.8H19.611V75.611h8.806a16.256,16.256,0,1,0,31.156,0ZM16.128,73.87a1.743,1.743,0,0,1,1.742-1.742H29.921q-.327.566-.611,1.161H18.45a1.161,1.161,0,0,0-1.161,1.161v32.512a1.161,1.161,0,0,0,1.161,1.161H69.54a1.161,1.161,0,0,0,1.161-1.161V74.45a1.161,1.161,0,0,0-1.161-1.161H58.681q-.283-.594-.611-1.161H70.121a1.743,1.743,0,0,1,1.742,1.742v35.415H16.128Zm34.384,37.737-.388,1.161H37.866l-.388-1.161Zm27.156,5.225a1.743,1.743,0,0,1-1.742,1.742H12.064a1.743,1.743,0,0,1-1.742-1.742v-5.225H35.03l.9,2.689a1.161,1.161,0,0,0,1.1.794H50.962a1.161,1.161,0,0,0,1.1-.794l.9-2.689H77.668Z" fill="#12263f"/>
      <path id="Trazado_802454" data-name="Trazado 802454" d="M249.161,137.289a1.161,1.161,0,0,0,1.161-1.161v-6.967a1.161,1.161,0,1,0-2.322,0v6.967A1.161,1.161,0,0,0,249.161,137.289Z" transform="translate(-205.166 -54.711)" fill="#12263f"/>
      <path id="Trazado_802455" data-name="Trazado 802455" d="M249.161,211.483a1.161,1.161,0,0,0,1.161-1.161v-1.161a1.161,1.161,0,0,0-2.322,0v1.161A1.161,1.161,0,0,0,249.161,211.483Z" transform="translate(-205.166 -123.1)" fill="#12263f"/>
    </g>
  </g>
</svg>
