<svg xmlns="http://www.w3.org/2000/svg" width="120" height="120" viewBox="0 0 120 120">
  <g id="Grupo_1067353" data-name="Grupo 1067353" transform="translate(-898 -7733)">
    <circle id="Elipse_8584" data-name="Elipse 8584" cx="60" cy="60" r="60" transform="translate(898 7733)" fill="#01c3fd"/>
    <g id="padlock" transform="translate(893.87 7749.428)">
      <path id="Trazado_802467" data-name="Trazado 802467" d="M102.138,224.009a5.737,5.737,0,0,0-3.84,10.313v2.3a3.442,3.442,0,0,0,6.885,0v-2.293a5.739,5.739,0,0,0-3.045-10.315Zm1.323,8.707a1.147,1.147,0,0,0-.573.993v2.909a1.147,1.147,0,0,1-2.295,0v-2.909a1.148,1.148,0,0,0-.573-.993,3.443,3.443,0,0,1,1.719-6.425q.121,0,.244.008a3.442,3.442,0,0,1,1.478,6.418Z" transform="translate(-54.823 -185.012)" fill="#12263f"/>
      <ellipse id="Elipse_8586" data-name="Elipse 8586" cx="1.5" cy="1" rx="1.5" ry="1" transform="translate(35.13 39.572)" fill="#12263f"/>
      <circle id="Elipse_8587" data-name="Elipse 8587" cx="1" cy="1" r="1" transform="translate(56.13 39.572)" fill="#12263f"/>
      <ellipse id="Elipse_8588" data-name="Elipse 8588" cx="1.5" cy="1" rx="1.5" ry="1" transform="translate(35.13 52.572)" fill="#12263f"/>
      <path id="Trazado_802468" data-name="Trazado 802468" d="M95.112,35.54H76.752V19.475a4.59,4.59,0,0,1,9.18,0v8.032a1.147,1.147,0,0,0,1.147,1.147h4.59a1.147,1.147,0,0,0,1.147-1.147V19.475a11.475,11.475,0,1,0-22.95,0V35.54H67.572a1.147,1.147,0,0,0-1.147,1.147V47.835a4.031,4.031,0,0,0-4.59,0V36.687a1.148,1.148,0,0,0-1.148-1.147H58.392V19.475a11.475,11.475,0,0,0-22.95,0V35.54H33.147A1.147,1.147,0,0,0,32,36.687V57.342a1.147,1.147,0,0,0,1.147,1.147H55.3L46.85,73.275a.436.436,0,0,0-.03.057,4.015,4.015,0,0,0,3.592,5.812H77.848a4.015,4.015,0,0,0,3.592-5.812.436.436,0,0,0-.03-.057L72.957,58.49H95.112a1.147,1.147,0,0,0,1.147-1.147V36.687A1.147,1.147,0,0,0,95.112,35.54ZM72.162,19.475a9.18,9.18,0,1,1,18.36,0V26.36H88.227V19.475a6.885,6.885,0,0,0-13.77,0V35.54H72.162Zm-34.425,0a9.18,9.18,0,0,1,18.36,0V35.54H53.8V19.475a6.885,6.885,0,0,0-13.77,0V35.54H37.737Zm13.77,0V35.54h-9.18V19.475a4.59,4.59,0,1,1,9.18,0ZM34.295,56.195V37.835H59.54V50.381a1.133,1.133,0,0,0,.115.5l-3.039,5.316ZM79.4,74.384a1.721,1.721,0,0,1-1.552,2.466H50.412a1.721,1.721,0,0,1-1.552-2.466l13.7-23.963.03-.056a1.72,1.72,0,0,1,3.078,0l.03.056ZM93.965,56.195H71.645l-3.039-5.316a1.133,1.133,0,0,0,.115-.5V37.835H93.965Z" fill="#12263f"/>
      <path id="Trazado_802469" data-name="Trazado 802469" d="M338.3,234.324v2.293a3.442,3.442,0,1,0,6.885,0v-2.295a5.736,5.736,0,1,0-6.885,0Zm3.2-8.026a3.443,3.443,0,0,1,1.963,6.418,1.148,1.148,0,0,0-.573.993v2.909a1.148,1.148,0,0,1-2.3,0v-2.909a1.147,1.147,0,0,0-.573-.993A3.442,3.442,0,0,1,341.5,226.3Z" transform="translate(-260.397 -185.012)" fill="#12263f"/>
      <ellipse id="Elipse_8589" data-name="Elipse 8589" cx="1.5" cy="1" rx="1.5" ry="1" transform="translate(90.13 39.572)" fill="#12263f"/>
      <ellipse id="Elipse_8590" data-name="Elipse 8590" cx="1.5" cy="1" rx="1.5" ry="1" transform="translate(90.13 52.572)" fill="#12263f"/>
      <path id="Trazado_802470" data-name="Trazado 802470" d="M249.147,360A1.147,1.147,0,0,0,248,361.147v6.885a1.148,1.148,0,0,0,2.3,0v-6.885A1.147,1.147,0,0,0,249.147,360Z" transform="translate(-185.018 -301.51)" fill="#12263f"/>
      <path id="Trazado_802471" data-name="Trazado 802471" d="M249.147,440A1.148,1.148,0,0,0,248,441.147v1.147a1.148,1.148,0,0,0,2.3,0v-1.147A1.148,1.148,0,0,0,249.147,440Z" transform="translate(-185.018 -370.035)" fill="#12263f"/>
    </g>
  </g>
</svg>
