<svg xmlns="http://www.w3.org/2000/svg" width="120" height="120" viewBox="0 0 120 120">
  <g id="Grupo_1067356" data-name="Grupo 1067356" transform="translate(-740 -8003)">
    <circle id="Elipse_8607" data-name="Elipse 8607" cx="60" cy="60" r="60" transform="translate(740 8003)" fill="#01c3fd"/>
    <g id="lock" transform="translate(773 8028)">
      <path id="Trazado_802475" data-name="Trazado 802475" d="M116.875,8h-45A1.125,1.125,0,0,0,70.75,9.125V14.75H65.125A1.125,1.125,0,0,0,64,15.875v60.75a1.125,1.125,0,0,0,1.125,1.125h45a1.125,1.125,0,0,0,1.125-1.125V71h5.625A1.125,1.125,0,0,0,118,69.875V9.125A1.125,1.125,0,0,0,116.875,8ZM109,75.5H66.25V17H100v7.875A1.125,1.125,0,0,0,101.125,26H109Zm-6.75-51.75V18.7l5.129,5.05Zm13.5,45h-4.5V24.875a1.123,1.123,0,0,0-.336-.8l-9.141-9a1.125,1.125,0,0,0-.789-.323H73v-4.5h42.75Z" transform="translate(-64 -8)" fill="#12263f"/>
      <path id="Trazado_802476" data-name="Trazado 802476" d="M156.471,164.414l-13.5-4.359a1.118,1.118,0,0,0-.692,0l-13.5,4.359a1.124,1.124,0,0,0-.779,1.07v16.53a12.36,12.36,0,0,0,5.437,10.247l8.557,5.794a1.124,1.124,0,0,0,1.263,0l8.557-5.794a12.36,12.36,0,0,0,5.437-10.247v-16.53A1.124,1.124,0,0,0,156.471,164.414ZM155,182.015a10.116,10.116,0,0,1-4.448,8.384l-7.927,5.368L134.7,190.4a10.116,10.116,0,0,1-4.448-8.384V166.3l12.375-4,12.375,4Z" transform="translate(-119 -138.625)" fill="#12263f"/>
      <path id="Trazado_802477" data-name="Trazado 802477" d="M190.625,217H189.5v-3.375a5.625,5.625,0,1,0-11.25,0V217h-1.125A1.125,1.125,0,0,0,176,218.125v9a1.125,1.125,0,0,0,1.125,1.125h13.5a1.125,1.125,0,0,0,1.125-1.125v-9A1.125,1.125,0,0,0,190.625,217ZM180.5,213.625a3.375,3.375,0,1,1,6.75,0V217H180.5Zm9,12.375H178.25v-6.75H189.5Z" transform="translate(-160.25 -179.875)" fill="#12263f"/>
    </g>
  </g>
</svg>
