<svg id="Grupo_1067894" data-name="Grupo 1067894" xmlns="http://www.w3.org/2000/svg" xmlns:xlink="http://www.w3.org/1999/xlink" width="278.166" height="185.591" viewBox="0 0 278.166 185.591">
  <defs>
    <clipPath id="clip-path">
      <rect id="Rectángulo_375363" data-name="Rectángulo 375363" width="278.166" height="185.591" fill="none"/>
    </clipPath>
  </defs>
  <g id="Grupo_1067893" data-name="Grupo 1067893" clip-path="url(#clip-path)">
    <path id="Trazado_802695" data-name="Trazado 802695" d="M82.546,329.885,71.27,427.046l7.275,8.834a1.28,1.28,0,0,1-1.124,1.892H50.563a6.232,6.232,0,0,1-6.1-7.483L54.3,382.282,36.627,433.571a6.232,6.232,0,0,1-5.892,4.2H2.293a1.28,1.28,0,0,1-.853-2.234l10.143-9.061s-.409.545,35.88-101.6Z" transform="translate(-0.785 -252.405)" fill="#fff"/>
    <path id="Trazado_802696" data-name="Trazado 802696" d="M76.636,437.218H49.779a6.455,6.455,0,0,1-6.323-7.751L52.6,384.826,36.053,432.866a6.457,6.457,0,0,1-6.1,4.352H1.508a1.5,1.5,0,0,1-1-2.624L10.62,425.56c.061-.25.22-.715.532-1.623.739-2.156,2.063-5.953,3.935-11.284,4.072-11.6,12.822-36.391,31.382-88.632a.223.223,0,0,1,.242-.146l35.083,5.012a.223.223,0,0,1,.19.246L70.717,426.2l7.215,8.76a.207.207,0,0,1,.024.035,1.5,1.5,0,0,1-1.32,2.222M53.513,381.281a.223.223,0,0,1,.219.268l-9.839,48.008a6.009,6.009,0,0,0,5.886,7.215H76.636a1.057,1.057,0,0,0,.938-1.545l-7.261-8.816a.224.224,0,0,1-.049-.168L81.515,329.3l-34.687-4.955c-34,95.7-35.73,101.1-35.81,101.4a.223.223,0,0,1-.071.127L.8,434.927a1.057,1.057,0,0,0,.7,1.845H29.95a6.011,6.011,0,0,0,5.681-4.051L53.3,381.432a.223.223,0,0,1,.211-.15" transform="translate(0 -251.628)"/>
    <path id="Trazado_802697" data-name="Trazado 802697" d="M239.632,452.282a.22.22,0,0,1-.058-.008.223.223,0,0,1-.157-.273c.335-1.243,8.225-30.468,9.59-32.858a5.541,5.541,0,0,1,3.574-2.843.223.223,0,0,1,.073.44,5.2,5.2,0,0,0-3.26,2.624c-1.337,2.34-9.464,32.449-9.546,32.752a.223.223,0,0,1-.215.165" transform="translate(-186.005 -323.435)"/>
    <path id="Trazado_802698" data-name="Trazado 802698" d="M208.994,783.842a.223.223,0,0,1-.014-.446l23.692-1.481a.223.223,0,1,1,.028.445l-23.692,1.481h-.014" transform="translate(-162.201 -607.497)"/>
    <path id="Trazado_802699" data-name="Trazado 802699" d="M71.666,782.2h-.022L47.61,779.806a.223.223,0,0,1,.044-.444l24.034,2.392a.223.223,0,0,1-.022.445" transform="translate(-36.834 -605.512)"/>
    <path id="Trazado_802700" data-name="Trazado 802700" d="M179.472,253.792l-4.6,29.717s11.321.884,22.642,1.592a77.581,77.581,0,0,0,22.288-2.3V262.99Z" transform="translate(-135.865 -197.18)" fill="#5479f7"/>
    <path id="Trazado_802701" data-name="Trazado 802701" d="M239.6,149.472l5.056-12.224s24.9,1.982,29.916-2.543c5.092-4.595,1.814-13.551-1.894-21.8l-12.9,2.9s2.429,5.841,1.051,6.691c-4.038,2.492-39.905-.284-39.905-.284l-9.994,21.855L232.9,156.508Z" transform="translate(-163.878 -87.719)" fill="#5479f7"/>
    <path id="Trazado_802702" data-name="Trazado 802702" d="M414.587,42.908s8.089.37,12.9-2.9l-5.915-14.047a2.463,2.463,0,0,0,.257-2.153c-.419-1.239-1.365-2.774-2.686-1.8,0,0-1.045-1.42-1.914.432,0,0-1.528-1.971-2.873.863l-1.824-3.548a1.243,1.243,0,0,0-2.3.9L412.1,27.5s-1.357,2.166-.848,3.862,3.333,11.543,3.333,11.543" transform="translate(-318.688 -14.818)" fill="#fff"/>
    <path id="Trazado_802703" data-name="Trazado 802703" d="M413.812,42.359a.223.223,0,0,1-.215-.162c-.028-.1-2.829-9.865-3.332-11.54-.479-1.6.569-3.528.822-3.959L409.24,19.93a1.466,1.466,0,0,1,2.718-1.056l1.627,3.164a2.144,2.144,0,0,1,1.516-1.259,1.718,1.718,0,0,1,1.3.5,1.375,1.375,0,0,1,1-.792,1.3,1.3,0,0,1,1.007.445,1.382,1.382,0,0,1,1.167-.176c.957.3,1.5,1.64,1.691,2.2a2.7,2.7,0,0,1-.217,2.246l5.87,13.938a.223.223,0,1,1-.411.173l-5.915-14.047a.224.224,0,0,1,.026-.219,2.224,2.224,0,0,0,.225-1.948,2.9,2.9,0,0,0-1.4-1.919,1.019,1.019,0,0,0-.939.224.223.223,0,0,1-.312-.048,1.006,1.006,0,0,0-.746-.427c-.348.035-.62.466-.786.822a.223.223,0,0,1-.177.127.221.221,0,0,1-.2-.085,1.493,1.493,0,0,0-1.133-.576c-.483.054-.953.537-1.362,1.4a.222.222,0,0,1-.2.127.215.215,0,0,1-.2-.121l-1.825-3.548a1.02,1.02,0,0,0-1.891.735l1.872,6.86a.224.224,0,0,1-.026.177c-.013.021-1.3,2.1-.823,3.68.5,1.678,3.305,11.447,3.333,11.545a.224.224,0,0,1-.214.285" transform="translate(-317.912 -14.046)"/>
    <path id="Trazado_802704" data-name="Trazado 802704" d="M422.881,54.983a.223.223,0,0,1-.091-.427,1.019,1.019,0,0,0,.428-1.078A4.3,4.3,0,0,0,423,52.7a5.9,5.9,0,0,1-.2-.679,3.089,3.089,0,0,1,1.168-3.075c.133-.1.272-.184.407-.268a3.532,3.532,0,0,0,.539-.38.84.84,0,0,0,.313-.809.718.718,0,0,0-.5-.419,2.087,2.087,0,0,0-.81-.014,9.529,9.529,0,0,0-4.656,1.917.223.223,0,1,1-.273-.353,9.972,9.972,0,0,1,4.873-2.007,2.533,2.533,0,0,1,.983.027,1.141,1.141,0,0,1,.81.71,1.278,1.278,0,0,1-.436,1.277,3.922,3.922,0,0,1-.606.431c-.133.082-.259.16-.377.247a2.671,2.671,0,0,0-1,2.624,5.482,5.482,0,0,0,.187.627,4.682,4.682,0,0,1,.233.86,1.445,1.445,0,0,1-.689,1.548.22.22,0,0,1-.09.019" transform="translate(-325.459 -36.188)"/>
    <path id="Trazado_802705" data-name="Trazado 802705" d="M428.792,40.219a.223.223,0,0,1-.218-.176,13.985,13.985,0,0,0-.789-2.476.223.223,0,1,1,.41-.174,14.4,14.4,0,0,1,.814,2.555.223.223,0,0,1-.17.266.234.234,0,0,1-.048.005" transform="translate(-332.348 -28.946)"/>
    <path id="Trazado_802706" data-name="Trazado 802706" d="M441.87,37.14a.223.223,0,0,1-.211-.151l-1-2.906a.223.223,0,0,1,.422-.145l1,2.906a.223.223,0,0,1-.139.284.228.228,0,0,1-.072.012" transform="translate(-342.357 -26.251)"/>
    <path id="Trazado_802707" data-name="Trazado 802707" d="M448.119,38.087a1.039,1.039,0,0,1-.685-.267.847.847,0,0,1-.3-.643.223.223,0,0,1,.223-.22h0a.223.223,0,0,1,.22.226.417.417,0,0,0,.149.3.583.583,0,0,0,.444.149.947.947,0,0,0,.7-.623,2.44,2.44,0,0,0,.083-1.108,7.526,7.526,0,0,0-1.175-3.322.223.223,0,1,1,.374-.244,7.975,7.975,0,0,1,1.246,3.52,2.88,2.88,0,0,1-.11,1.313,1.373,1.373,0,0,1-1.062.907.958.958,0,0,1-.11.006" transform="translate(-347.395 -25.048)"/>
    <path id="Trazado_802708" data-name="Trazado 802708" d="M455.568,50.9a.223.223,0,0,1-.005-.446.887.887,0,0,0,.738-.442.223.223,0,0,1,.388.22,1.342,1.342,0,0,1-1.116.668h-.005" transform="translate(-353.773 -38.764)"/>
    <path id="Trazado_802709" data-name="Trazado 802709" d="M193.95,170.47a69.677,69.677,0,0,0-7.555,7.508c-3.76,4.24-4.966,12.288-.8,16.126,3.888,3.579,9.213,8.224,15.334,12.878a17.267,17.267,0,0,0,19.787.758,59.4,59.4,0,0,0,11.245-9.127l-7.189-14.135-14.226,9.1-8.259-8.762Z" transform="translate(-142.161 -132.444)" fill="#5479f7"/>
    <path id="Trazado_802710" data-name="Trazado 802710" d="M231.515,302.876a17.447,17.447,0,0,1-10.568-3.544c-3.956-3.008-7.981-6.317-11.962-9.835a.223.223,0,1,1,.3-.334c3.973,3.511,7.989,6.813,11.937,9.814a17.093,17.093,0,0,0,19.531.749c1.97-1.267,3.821-2.58,5.5-3.9a.223.223,0,1,1,.276.351c-1.694,1.333-3.557,2.654-5.538,3.929a17.5,17.5,0,0,1-9.475,2.776" transform="translate(-162.309 -224.617)"/>
    <path id="Trazado_802711" data-name="Trazado 802711" d="M370.362,193.448s3.038,11.1,7.189,14.135c0,0,8.76-8.639,10.423-9.954a2.334,2.334,0,0,0,2.807-2.066s2.437-1.338,1.789-3.4c0,0,3.493-2.628-1.066-5.22a2.348,2.348,0,0,1,2.458-1.572c1.911.163,5.274-.178,5.306-1.64s-5.8-2.2-10.542-1.382c-5.027.866-18.365,11.093-18.365,11.093" transform="translate(-287.747 -141.414)" fill="#fff"/>
    <path id="Trazado_802712" data-name="Trazado 802712" d="M401.813,234.512a.223.223,0,0,1-.157-.382c.358-.353,8.787-8.663,10.441-9.97a.226.226,0,0,1,.178-.045,2.576,2.576,0,0,0,1.762-.372,2.1,2.1,0,0,0,.784-1.5.224.224,0,0,1,.114-.167c.023-.012,2.268-1.277,1.684-3.133a.224.224,0,0,1,.079-.245,3.122,3.122,0,0,0,1.19-2.087.223.223,0,0,1,.223-.219h0a.223.223,0,0,1,.219.227,3.407,3.407,0,0,1-1.247,2.338c.477,1.876-1.383,3.168-1.838,3.452a2.485,2.485,0,0,1-.951,1.7,2.942,2.942,0,0,1-2,.464c-1.8,1.473-10.245,9.793-10.331,9.878a.222.222,0,0,1-.157.064" transform="translate(-312.009 -168.12)"/>
    <path id="Trazado_802713" data-name="Trazado 802713" d="M369.586,224.6a.223.223,0,0,1-.136-.4c.013-.01,1.283-.983,3.154-2.332a.223.223,0,1,1,.261.362c-1.866,1.345-3.131,2.315-3.144,2.324a.221.221,0,0,1-.135.046" transform="translate(-286.971 -172.346)"/>
    <path id="Trazado_802714" data-name="Trazado 802714" d="M460.1,214.493a.223.223,0,0,1-.218-.178,4.05,4.05,0,0,0-2.331-2.859.223.223,0,1,1,.176-.41,4.5,4.5,0,0,1,2.592,3.178.224.224,0,0,1-.219.268" transform="translate(-355.38 -163.955)"/>
    <path id="Trazado_802715" data-name="Trazado 802715" d="M451.415,229.34a.223.223,0,0,1-.216-.17,4.979,4.979,0,0,0-2.626-3.251.223.223,0,1,1,.2-.4,5.429,5.429,0,0,1,2.864,3.545.223.223,0,0,1-.163.27.234.234,0,0,1-.053.006" transform="translate(-348.414 -175.196)"/>
    <path id="Trazado_802716" data-name="Trazado 802716" d="M448.2,246.162a.223.223,0,0,1-.156-.382,4.805,4.805,0,0,0,.972-1.365.223.223,0,0,1,.4.192,5.254,5.254,0,0,1-1.062,1.491.222.222,0,0,1-.156.064" transform="translate(-348.048 -189.796)"/>
    <path id="Trazado_802717" data-name="Trazado 802717" d="M461.909,201.946a.223.223,0,0,1-.124-.038l-.707-.474a.223.223,0,0,1,.249-.371l.707.474a.223.223,0,0,1-.125.408" transform="translate(-358.15 -156.183)"/>
    <path id="Trazado_802718" data-name="Trazado 802718" d="M297.535,245.277a.223.223,0,0,1-.121-.411l15.22-9.764a.223.223,0,0,1,.241.376l-15.22,9.764a.222.222,0,0,1-.12.035" transform="translate(-230.992 -182.632)"/>
    <path id="Trazado_802719" data-name="Trazado 802719" d="M277.043,242.973a.222.222,0,0,1-.162-.07l-8.259-8.762a.223.223,0,1,1,.325-.306l8.259,8.762a.223.223,0,0,1-.162.376" transform="translate(-208.654 -181.619)"/>
    <path id="Trazado_802720" data-name="Trazado 802720" d="M224.194,61.97a4.369,4.369,0,0,1-1.038-1.936,1.757,1.757,0,0,1,.615-1.8,4.552,4.552,0,0,1-1.73-3.393,5.273,5.273,0,0,1,1.132-3.308c1.477-1.99,3.189-1.89,6.717-3.717,3.917-2.028,4.162-3.37,5.325-3.055,3.385.917,1.129,12.24.966,12.893a1.825,1.825,0,0,1-.651.979.474.474,0,0,1-.3.07,5.967,5.967,0,0,0-2.146.169c-.3.1-.59,1.316-.7,1.6q-.345.869-.623,1.767t-.49,1.819c-.147.642-.081.888-.846.887a8.615,8.615,0,0,1-6.222-2.975" transform="translate(-172.509 -34.739)"/>
    <path id="Trazado_802721" data-name="Trazado 802721" d="M235.006,152.21s-6.22-1.379-7.916.859a5.876,5.876,0,0,0-1.273,4.371,25.556,25.556,0,0,0,10.635,5.336l.581-5.688,2.141,2.095a5.966,5.966,0,0,0-.023-4.958c-.544-1.441-4.144-2.015-4.144-2.015" transform="translate(-175.409 -117.931)" fill="#fff"/>
    <path id="Trazado_802722" data-name="Trazado 802722" d="M225.032,156.878a.223.223,0,0,1-.219-.18,6.055,6.055,0,0,1,1.314-4.55c1.762-2.325,7.882-1,8.142-.942a.223.223,0,0,1-.1.436c-.061-.014-6.1-1.322-7.69.776a5.69,5.69,0,0,0-1.232,4.193.223.223,0,0,1-.219.267" transform="translate(-174.624 -117.145)"/>
    <path id="Trazado_802723" data-name="Trazado 802723" d="M244.671,136.05l-2.358,6.136s3.053,3.522,8.242.495l1.189-4.554s-4.02-4.078-7.073-2.077" transform="translate(-188.261 -105.273)" fill="#fff"/>
    <path id="Trazado_802724" data-name="Trazado 802724" d="M245.721,143.326a6.1,6.1,0,0,1-4.355-1.792.223.223,0,0,1-.04-.226l2.358-6.136a.224.224,0,0,1,.086-.106c3.169-2.076,7.185,1.936,7.354,2.108a.223.223,0,0,1,.057.213l-1.189,4.554a.224.224,0,0,1-.1.136,8.239,8.239,0,0,1-4.168,1.25m-3.928-1.988c.532.539,3.3,2.971,7.791.4l1.133-4.338c-.6-.565-4.028-3.631-6.642-2Z" transform="translate(-187.483 -104.475)"/>
    <path id="Trazado_802725" data-name="Trazado 802725" d="M241.984,161.916q-.238,0-.487-.015a6.569,6.569,0,0,1-5.071-3.186.223.223,0,0,1,.39-.216,6.232,6.232,0,0,0,4.708,2.957,6.534,6.534,0,0,0,4.958-1.718.223.223,0,0,1,.328.3,6.8,6.8,0,0,1-4.826,1.875" transform="translate(-183.666 -123.054)"/>
    <path id="Trazado_802726" data-name="Trazado 802726" d="M249.241,84.979s4.186,7.843,4.285,10.532c.131,3.568-5.492,7.016-9,2.29,0,0-3.991.639-4.435-2.2-.4-2.564,2.958-1.378,3.413-.481l.79-.143s-2.134-3.274-1.81-5.139,6.76-4.863,6.76-4.863" transform="translate(-186.507 -66.023)" fill="#fff"/>
    <path id="Trazado_802727" data-name="Trazado 802727" d="M247.878,99.55a5.355,5.355,0,0,1-4.229-2.288,5.425,5.425,0,0,1-3.523-.667,2.544,2.544,0,0,1-1.033-1.733c-.19-1.215.425-1.6.809-1.728a3.262,3.262,0,0,1,2.931.967l.32-.058c-.516-.85-1.948-3.394-1.667-5.016.334-1.925,6.216-4.715,6.886-5.027a.223.223,0,0,1,.291.1c.172.322,4.211,7.92,4.311,10.629a5.164,5.164,0,0,1-5.1,4.824m-4.13-2.749a.223.223,0,0,1,.179.09,4.641,4.641,0,0,0,5.443,1.952,4.542,4.542,0,0,0,3.158-4.1c-.088-2.379-3.527-9.042-4.16-10.247-1.883.9-6.2,3.222-6.442,4.608-.305,1.759,1.756,4.947,1.777,4.979a.223.223,0,0,1-.147.341l-.79.143a.222.222,0,0,1-.239-.119,2.75,2.75,0,0,0-2.488-.89c-.441.143-.611.558-.505,1.235a2.116,2.116,0,0,0,.853,1.44,5.252,5.252,0,0,0,3.326.57l.035,0" transform="translate(-185.732 -65.246)"/>
    <path id="Trazado_802728" data-name="Trazado 802728" d="M250.8,135.023a.222.222,0,0,1-.1-.024,2.008,2.008,0,0,0-1.484-.126.223.223,0,1,1-.132-.426,2.457,2.457,0,0,1,1.817.154.223.223,0,0,1-.1.422" transform="translate(-193.397 -104.373)"/>
    <path id="Trazado_802729" data-name="Trazado 802729" d="M408.044,5.1A2.345,2.345,0,1,1,405.7,2.752,2.346,2.346,0,0,1,408.044,5.1" transform="translate(-313.379 -2.138)" fill="#5479f7"/>
    <path id="Trazado_802730" data-name="Trazado 802730" d="M465.338,12.713H431.584a.223.223,0,1,1,0-.446h33.754a.223.223,0,1,1,0,.446" transform="translate(-335.139 -9.531)"/>
    <path id="Trazado_802731" data-name="Trazado 802731" d="M498.285,25.725H473.99a.223.223,0,1,1,0-.446h24.295a.223.223,0,0,1,0,.446" transform="translate(-368.086 -19.64)"/>
    <path id="Trazado_802732" data-name="Trazado 802732" d="M498.285,38.738H473.99a.223.223,0,1,1,0-.446h24.295a.223.223,0,0,1,0,.446" transform="translate(-368.086 -29.75)"/>
    <path id="Trazado_802733" data-name="Trazado 802733" d="M671.586,148.1a1.172,1.172,0,0,1-.447-.089,41.474,41.474,0,0,0-10.561-2.317,1.18,1.18,0,1,1,.262-2.345,43.739,43.739,0,0,1,11.194,2.479,1.18,1.18,0,0,1-.448,2.271" transform="translate(-512.411 -111.369)" fill="#fff"/>
    <path id="Trazado_802734" data-name="Trazado 802734" d="M670.809,147.546a1.393,1.393,0,0,1-.532-.105,41.254,41.254,0,0,0-10.5-2.3,1.4,1.4,0,1,1,.311-2.788,43.954,43.954,0,0,1,11.254,2.495,1.4,1.4,0,0,1-.533,2.7m-10.879-4.758a.957.957,0,0,0-.948.851.958.958,0,0,0,.844,1.057,41.69,41.69,0,0,1,10.621,2.333.956.956,0,1,0,.726-1.77,43.522,43.522,0,0,0-11.134-2.464.979.979,0,0,0-.108-.006" transform="translate(-511.634 -110.591)"/>
    <path id="Trazado_802735" data-name="Trazado 802735" d="M478.7,178.636a1.18,1.18,0,0,1-.072-2.357c7.806-.485,15.342-1.275,22.4-2.349a1.18,1.18,0,1,1,.355,2.332c-7.125,1.084-14.73,1.882-22.606,2.371l-.074,0" transform="translate(-371.001 -135.121)" fill="#e2eaff"/>
    <path id="Trazado_802736" data-name="Trazado 802736" d="M512.3,88.555a1.18,1.18,0,0,1-.136-2.354c7.79-.7,15.3-1.694,22.325-2.961a1.18,1.18,0,0,1,.418,2.322c-7.092,1.279-14.673,2.284-22.532,2.989l-.074,0" transform="translate(-397.086 -64.657)" fill="#fff"/>
    <path id="Trazado_802737" data-name="Trazado 802737" d="M511.5,88a1.4,1.4,0,0,1-.124-2.8c7.783-.7,15.288-1.693,22.3-2.958a1.4,1.4,0,0,1,.5,2.761c-7.1,1.28-14.687,2.286-22.552,2.991l-.088.005H511.5m.033-.224h0Zm22.4-5.11a.963.963,0,0,0-.17.015c-7.03,1.267-14.547,2.264-22.344,2.963a.957.957,0,0,0,.11,1.909l.061,0c7.852-.7,15.427-1.709,22.513-2.986a.957.957,0,0,0-.17-1.9" transform="translate(-396.309 -63.881)"/>
    <path id="Trazado_802738" data-name="Trazado 802738" d="M437.96,283.779a1.222,1.222,0,0,1-.021-2.443c6.814-.117,13.622-.465,20.235-1.033a1.222,1.222,0,1,1,.209,2.435c-6.669.573-13.533.924-20.4,1.042h-.021" transform="translate(-339.317 -217.773)" fill="#fff"/>
    <path id="Trazado_802739" data-name="Trazado 802739" d="M437.183,283.224a1.445,1.445,0,0,1-.025-2.89c6.809-.117,13.612-.464,20.22-1.033a1.445,1.445,0,0,1,.248,2.879c-6.674.574-13.544.925-20.417,1.043h-.025m20.321-3.482c-.029,0-.058,0-.087,0-6.618.569-13.431.917-20.25,1.034a1,1,0,0,0,.017,2V283l.017-.223c6.865-.118,13.724-.468,20.388-1.041a1,1,0,0,0-.084-1.994" transform="translate(-338.54 -216.995)"/>
    <path id="Trazado_802740" data-name="Trazado 802740" d="M400.921,91.317a.223.223,0,1,1,0-.446c18.73,0,37.194-1.778,51.991-5.007,13.187-2.878,21.38-6.555,21.38-9.6,0-2.632-5.633-4.9-14.7-5.908a.223.223,0,1,1,.049-.443c9.454,1.055,15.1,3.429,15.1,6.352,0,3.312-8.124,7.062-21.73,10.032-14.827,3.236-33.324,5.018-52.086,5.018" transform="translate(-311.316 -54.319)" fill="#e2eaff"/>
    <path id="Trazado_802741" data-name="Trazado 802741" d="M645.267,91.184a1.089,1.089,0,0,1-.256-2.147,79.7,79.7,0,0,0,11.1-3.433,1.089,1.089,0,1,1,.824,2.016,81.881,81.881,0,0,1-11.413,3.533,1.091,1.091,0,0,1-.258.031" transform="translate(-500.485 -66.445)" fill="#e2eaff"/>
    <path id="Trazado_802742" data-name="Trazado 802742" d="M400.921,143.9a.223.223,0,1,1,0-.446c18.73,0,37.194-1.778,51.991-5.007,13.187-2.878,21.38-6.555,21.38-9.6,0-2.632-5.633-4.9-14.7-5.908a.223.223,0,1,1,.049-.443c9.454,1.055,15.1,3.429,15.1,6.352,0,3.312-8.124,7.062-21.73,10.032-14.827,3.236-33.324,5.018-52.086,5.018" transform="translate(-311.316 -95.172)" fill="#e2eaff"/>
    <path id="Trazado_802743" data-name="Trazado 802743" d="M400.921,196.481a.223.223,0,1,1,0-.446c18.73,0,37.194-1.778,51.991-5.007,13.187-2.878,21.38-6.555,21.38-9.6,0-2.632-5.633-4.9-14.7-5.908a.223.223,0,1,1,.049-.443c9.454,1.055,15.1,3.429,15.1,6.352,0,3.312-8.124,7.062-21.73,10.032-14.827,3.236-33.324,5.018-52.086,5.018" transform="translate(-311.316 -136.025)" fill="#e2eaff"/>
    <path id="Trazado_802744" data-name="Trazado 802744" d="M400.921,249.062a.223.223,0,1,1,0-.446c18.73,0,37.194-1.778,51.991-5.007,13.187-2.878,21.38-6.555,21.38-9.6,0-2.632-5.633-4.9-14.7-5.908a.223.223,0,1,1,.049-.443c9.454,1.055,15.1,3.429,15.1,6.352,0,3.312-8.124,7.063-21.73,10.032-14.827,3.236-33.324,5.018-52.086,5.018" transform="translate(-311.316 -176.877)" fill="#e2eaff"/>
    <path id="Trazado_802745" data-name="Trazado 802745" d="M364.652,83.662c-3.387,0-6.815-.059-10.195-.176a.223.223,0,0,1-.441-.047V20.813a.223.223,0,0,1,.231-.223c3.448.122,6.949.184,10.405.184,18.73,0,37.194-1.778,51.991-5.007,13.187-2.878,21.38-6.555,21.38-9.6,0-2.88-7.513-3.134-19.961-3.554l-1.873-.064v11.98a.223.223,0,1,1-.446,0V2.322a.223.223,0,0,1,.068-.16.227.227,0,0,1,.162-.062l2.1.071c13.149.444,20.392.689,20.392,4s-8.124,7.062-21.73,10.032c-14.827,3.236-33.324,5.018-52.086,5.018-3.385,0-6.812-.059-10.19-.176v62c3.378.117,6.805.177,10.19.177,18.73,0,37.194-1.778,51.991-5.007,13.187-2.878,21.38-6.555,21.38-9.6a.223.223,0,0,1,.446,0c0,3.312-8.124,7.062-21.73,10.032-14.827,3.236-33.324,5.018-52.086,5.018" transform="translate(-275.047 -1.631)"/>
    <path id="Trazado_802746" data-name="Trazado 802746" d="M630.957,109.4a.223.223,0,0,1-.223-.223v-36.7a.223.223,0,1,1,.446,0v36.7a.223.223,0,0,1-.223.223" transform="translate(-490.039 -56.138)"/>
    <path id="Trazado_802747" data-name="Trazado 802747" d="M653.237,266.01a.223.223,0,0,1-.223-.223c0-1.532-2-3.005-5.622-4.149a65.114,65.114,0,0,0-16.442-2.277.223.223,0,0,1-.215-.223v-2.9a.223.223,0,1,1,.446,0v2.688c13.543.491,22.28,3.18,22.28,6.864a.223.223,0,0,1-.223.223" transform="translate(-490.039 -198.904)"/>
    <path id="Trazado_802748" data-name="Trazado 802748" d="M730.838,82.24a.223.223,0,0,1-.223-.223V19.575a.223.223,0,1,1,.446,0V82.017a.223.223,0,0,1-.223.223" transform="translate(-567.64 -15.035)"/>
    <path id="Trazado_802749" data-name="Trazado 802749" d="M556.189,214.677a1.18,1.18,0,0,1-.176-2.346,151.541,151.541,0,0,0,19.615-4.171,1.18,1.18,0,0,1,.67,2.262,153.922,153.922,0,0,1-19.93,4.241,1.194,1.194,0,0,1-.179.014" transform="translate(-431.207 -161.689)" fill="#5479f7"/>
    <path id="Trazado_802750" data-name="Trazado 802750" d="M36.167,26.283H3.907a2.906,2.906,0,0,1-2.9-2.9V3.9A2.906,2.906,0,0,1,3.907,1h32.26a2.906,2.906,0,0,1,2.9,2.9V23.386a2.906,2.906,0,0,1-2.9,2.9" transform="translate(-0.784 -0.777)" fill="#fff"/>
    <path id="Trazado_802751" data-name="Trazado 802751" d="M35.391,25.73H3.13a3.124,3.124,0,0,1-3.12-3.12V3.121A3.124,3.124,0,0,1,3.13,0h32.26a3.124,3.124,0,0,1,3.121,3.121V22.609a3.124,3.124,0,0,1-3.121,3.12M3.13.446A2.677,2.677,0,0,0,.456,3.121V22.609A2.677,2.677,0,0,0,3.13,25.283h32.26a2.677,2.677,0,0,0,2.675-2.674V3.121A2.678,2.678,0,0,0,35.391.446Z" transform="translate(-0.008)"/>
    <path id="Trazado_802752" data-name="Trazado 802752" d="M150.739,136.317a17.977,17.977,0,0,1-15.453-9.993.223.223,0,1,1,.393-.21c5.409,10.112,15.107,9.76,15.2,9.755a.226.226,0,0,1,.234.212.223.223,0,0,1-.212.234c-.007,0-.064,0-.166,0" transform="translate(-105.087 -97.891)"/>
    <path id="Trazado_802753" data-name="Trazado 802753" d="M36.224,54.257a.939.939,0,0,0,1.34.444,3.835,3.835,0,0,0,.82.8.958.958,0,0,0-.05.1.943.943,0,0,0,1.751.7.957.957,0,0,0,.036-.109,3.856,3.856,0,0,0,1.148-.013.943.943,0,1,0,1.773-.633,1,1,0,0,0-.052-.1,3.847,3.847,0,0,0,.8-.82.943.943,0,1,0,.807-1.7.954.954,0,0,0-.109-.035,3.846,3.846,0,0,0-.012-1.147.942.942,0,1,0-.632-1.772.917.917,0,0,0-.1.052,3.846,3.846,0,0,0-.82-.8.958.958,0,0,0,.05-.1.943.943,0,1,0-1.786-.593,3.858,3.858,0,0,0-1.148.013A.916.916,0,0,0,40,48.435a.943.943,0,0,0-1.735.741.933.933,0,0,0,.052.1,3.842,3.842,0,0,0-.8.82.943.943,0,1,0-.807,1.7.914.914,0,0,0,.109.035,3.845,3.845,0,0,0,.012,1.147.938.938,0,0,0-.606,1.275m2.819-1.2a1.752,1.752,0,1,1,2.3.922,1.751,1.751,0,0,1-2.3-.922" transform="translate(-28.06 -37.161)" fill="#e2eaff"/>
    <path id="Trazado_802754" data-name="Trazado 802754" d="M79.621,35.859a1.315,1.315,0,0,0,1.879.623,5.386,5.386,0,0,0,1.15,1.125,1.353,1.353,0,0,0-.07.145,1.322,1.322,0,0,0,2.454.984,1.3,1.3,0,0,0,.05-.153,5.4,5.4,0,0,0,1.609-.018,1.367,1.367,0,0,0,.053.152,1.322,1.322,0,1,0,2.359-1.182,5.4,5.4,0,0,0,1.126-1.15,1.353,1.353,0,0,0,.145.07A1.322,1.322,0,1,0,91.363,34a1.386,1.386,0,0,0-.153-.05,5.389,5.389,0,0,0-.017-1.608,1.352,1.352,0,0,0,.152-.053,1.321,1.321,0,1,0-1.182-2.357,5.4,5.4,0,0,0-1.15-1.125,1.321,1.321,0,1,0-2.384-1.129,1.3,1.3,0,0,0-.05.153,5.4,5.4,0,0,0-1.609.018,1.363,1.363,0,0,0-.053-.152,1.323,1.323,0,1,0-2.36,1.182,5.4,5.4,0,0,0-1.126,1.15A1.322,1.322,0,1,0,80.3,32.413a1.386,1.386,0,0,0,.153.05,5.388,5.388,0,0,0,.017,1.608,1.347,1.347,0,0,0-.152.053,1.322,1.322,0,0,0-.7,1.735m3.952-1.687A2.456,2.456,0,1,1,86.8,35.464a2.455,2.455,0,0,1-3.222-1.292" transform="translate(-61.743 -20.86)" fill="#fff"/>
    <path id="Trazado_802755" data-name="Trazado 802755" d="M83.026,39.012A1.544,1.544,0,0,1,81.591,36.9a5.606,5.606,0,0,1-.934-.913,1.544,1.544,0,0,1-1.213-2.841,5.605,5.605,0,0,1-.014-1.306,1.545,1.545,0,0,1,1.152-2.867,5.619,5.619,0,0,1,.914-.933,1.546,1.546,0,0,1,2.843-1.214,5.616,5.616,0,0,1,1.307-.014,1.545,1.545,0,0,1,2.868,1.15,5.612,5.612,0,0,1,.934.913,1.544,1.544,0,0,1,1.213,2.841,5.606,5.606,0,0,1,.014,1.306,1.545,1.545,0,0,1-1.152,2.867,5.612,5.612,0,0,1-.914.934,1.545,1.545,0,0,1-2.843,1.213,5.614,5.614,0,0,1-1.306.015,1.549,1.549,0,0,1-1.434.962m-2.3-3.529a.223.223,0,0,1,.178.089A5.157,5.157,0,0,0,82,36.65a.223.223,0,0,1,.065.289,1.1,1.1,0,0,0-.058.12,1.1,1.1,0,0,0,.61,1.429,1.1,1.1,0,0,0,1.43-.611,1.161,1.161,0,0,0,.041-.127.224.224,0,0,1,.246-.163,5.178,5.178,0,0,0,1.543-.017.224.224,0,0,1,.25.158,1.1,1.1,0,1,0,2.066-.737,1.125,1.125,0,0,0-.06-.119.223.223,0,0,1,.058-.29,5.161,5.161,0,0,0,1.079-1.1.223.223,0,0,1,.288-.065,1.117,1.117,0,0,0,.121.058,1.1,1.1,0,1,0,.82-2.039,1.143,1.143,0,0,0-.127-.041.223.223,0,0,1-.164-.246,5.171,5.171,0,0,0-.017-1.542.223.223,0,0,1,.158-.25,1.134,1.134,0,0,0,.126-.044A1.1,1.1,0,1,0,89.5,29.35a.223.223,0,0,1-.29-.059,5.162,5.162,0,0,0-1.1-1.078.223.223,0,0,1-.065-.289A1.2,1.2,0,0,0,88.1,27.8a1.1,1.1,0,0,0-2.04-.817,1.1,1.1,0,0,0-.042.127.223.223,0,0,1-.246.163,5.178,5.178,0,0,0-1.543.017.221.221,0,0,1-.25-.158,1.131,1.131,0,0,0-.044-.126,1.1,1.1,0,0,0-2.022.863,1.067,1.067,0,0,0,.061.119.223.223,0,0,1-.059.29,5.167,5.167,0,0,0-1.08,1.1.223.223,0,0,1-.288.065,1.067,1.067,0,0,0-.12-.058,1.1,1.1,0,0,0-1.43.61,1.091,1.091,0,0,0,.737,1.47.223.223,0,0,1,.163.246,5.178,5.178,0,0,0,.017,1.542.223.223,0,0,1-.158.25,1.1,1.1,0,1,0,.856,2,.222.222,0,0,1,.112-.03m4.335-.375a2.68,2.68,0,1,1,1.049-.215,2.682,2.682,0,0,1-1.049.215M83,33.308a2.231,2.231,0,1,0-.018-1.707A2.235,2.235,0,0,0,83,33.308" transform="translate(-60.965 -20.084)"/>
    <path id="Trazado_802756" data-name="Trazado 802756" d="M625.98,97.846q-3.06,2.862-6.435,5.759c-5.092,4.361-10.108,8.208-14.932,11.6,0,0-6.333-11.007-7.24-13.435s-4.644-6.35-5.761-8.3-1.857-3.385-2.634-3.173c-2.827.769,1.918,7.74,1.918,7.74-3.665-2.938-3.835.834-3.835.834-2.612.124-1.674,3.16-1.674,3.16-1.933-.183-2.028,1.256-1.347,3.19a2.648,2.648,0,0,0,2.467,1.879s5.67,25.992,16.288,27.3c5.349.661,10.218-3.211,13.622-7.012h11.129c1.009-10.569,1.728-19.4,1.917-21.767a10.254,10.254,0,0,0-1.519-5.229,11.614,11.614,0,0,0-1.964-2.551" transform="translate(-453.461 -70.14)" fill="#fff"/>
    <path id="Trazado_802757" data-name="Trazado 802757" d="M603.206,133.919a9.931,9.931,0,0,1-1.222-.075c-4.489-.554-8.63-5.359-12.3-14.28a90.094,90.094,0,0,1-4.137-13.031,2.9,2.9,0,0,1-2.5-2.018c-.5-1.427-.53-2.4-.083-2.971a1.586,1.586,0,0,1,1.328-.531h.024a3.163,3.163,0,0,1,.29-2.347,1.945,1.945,0,0,1,1.469-.783,2.314,2.314,0,0,1,1.086-1.84,2.362,2.362,0,0,1,2.158.384c-.972-1.591-2.7-4.746-2.129-6.281a1.321,1.321,0,0,1,.948-.844c.882-.24,1.576.979,2.627,2.824l.259.454a30.279,30.279,0,0,0,2.175,2.966,25.361,25.361,0,0,1,3.6,5.365c.822,2.2,6.22,11.648,7.1,13.19,5.068-3.572,10.018-7.422,14.716-11.445,2.174-1.861,4.336-3.8,6.428-5.753a.223.223,0,0,1,.309,0,11.834,11.834,0,0,1,2,2.6,10.569,10.569,0,0,1,1.547,5.357c-.2,2.441-.91,11.224-1.917,21.77a.223.223,0,0,1-.222.2H615.733c-3,3.326-7.5,7.085-12.527,7.085M585.723,106.1a.223.223,0,0,1,.218.176c.056.258,5.757,25.853,16.1,27.13,5.367.663,10.265-3.408,13.429-6.939a.224.224,0,0,1,.166-.074H626.56c1-10.453,1.7-19.137,1.9-21.561a10.1,10.1,0,0,0-1.49-5.1,11.381,11.381,0,0,0-1.775-2.351c-2.047,1.91-4.161,3.8-6.284,5.618-4.77,4.086-9.8,7.992-14.949,11.612a.223.223,0,0,1-.322-.071c-.259-.45-6.352-11.05-7.256-13.468a25.187,25.187,0,0,0-3.533-5.245,30.433,30.433,0,0,1-2.212-3.021l-.26-.455c-.879-1.544-1.576-2.763-2.122-2.614a.885.885,0,0,0-.647.568c-.565,1.53,1.751,5.449,2.691,6.831a.223.223,0,0,1-.324.3c-1.132-.907-2.041-1.247-2.629-.982-.773.348-.843,1.64-.844,1.652a.223.223,0,0,1-.212.213,1.6,1.6,0,0,0-1.317.607,3.088,3.088,0,0,0-.154,2.264.223.223,0,0,1-.234.288,1.367,1.367,0,0,0-1.268.346c-.336.43-.283,1.311.152,2.548a2.436,2.436,0,0,0,2.25,1.73h.007" transform="translate(-452.678 -69.357)"/>
    <path id="Trazado_802758" data-name="Trazado 802758" d="M615.436,141.728a3.207,3.207,0,0,1-2.677-1.464,6.265,6.265,0,0,1-.457-.96,2.432,2.432,0,0,0-1.539-1.762c-.125-.06-.25-.121-.372-.186a1.745,1.745,0,0,1-.987-1.129,1.483,1.483,0,0,1,.627-1.43,3.155,3.155,0,0,1,1.4-.5,9.229,9.229,0,0,1,5.069.665.223.223,0,1,1-.179.408,8.782,8.782,0,0,0-4.821-.632,2.709,2.709,0,0,0-1.2.421,1.044,1.044,0,0,0-.455.982,1.4,1.4,0,0,0,.763.826c.115.062.234.12.353.177a2.851,2.851,0,0,1,1.758,2,5.807,5.807,0,0,0,.422.892,2.738,2.738,0,0,0,2.7,1.222.223.223,0,1,1,.072.44,2.925,2.925,0,0,1-.471.038" transform="translate(-473.449 -104.256)"/>
    <path id="Trazado_802759" data-name="Trazado 802759" d="M602.294,135.546a1.759,1.759,0,0,1-.782-.19,3.244,3.244,0,0,1-1.042-.922,8.262,8.262,0,0,1-1.782-5.046.223.223,0,0,1,.221-.225h0a.223.223,0,0,1,.223.221,7.813,7.813,0,0,0,1.685,4.772,2.834,2.834,0,0,0,.892.8,1.13,1.13,0,0,0,1.043.03.667.667,0,0,0,.3-.82.223.223,0,0,1,.4-.2,1.1,1.1,0,0,1-.478,1.412,1.377,1.377,0,0,1-.682.171" transform="translate(-465.141 -100.351)"/>
    <path id="Trazado_802760" data-name="Trazado 802760" d="M594.5,147.237a1.992,1.992,0,0,1-.441-.049,3,3,0,0,1-1.909-1.6,8.452,8.452,0,0,1-.707-2.331.223.223,0,1,1,.437-.088,8.122,8.122,0,0,0,.665,2.21,2.561,2.561,0,0,0,1.612,1.378,1.505,1.505,0,0,0,1.708-.8.223.223,0,0,1,.418.155,1.892,1.892,0,0,1-1.783,1.13" transform="translate(-459.509 -111.09)"/>
    <path id="Trazado_802761" data-name="Trazado 802761" d="M596.289,161.162a.223.223,0,0,1-.012-.446.85.85,0,0,0,.761-.693.223.223,0,1,1,.441.066,1.3,1.3,0,0,1-1.178,1.073h-.013" transform="translate(-463.104 -124.18)"/>
    <path id="Trazado_802762" data-name="Trazado 802762" d="M718.034,113.05a2.349,2.349,0,0,0-1.675,1.665c-3.227,11.97-12.063,36.578-14.824,48.686a12.75,12.75,0,0,0-.2,6.406,9.851,9.851,0,0,0,3.393,4.722,29.352,29.352,0,0,0,5.04,3.056c2.42-5.474,5.718-25.162,7.656-30.825a140.638,140.638,0,0,0,4.944-16.669c.83-3.976,13.988-3.623,13.872-7.689-.033-1.154,4.1-7.375,3.329-8.319-1.847-2.262-19.949-1.447-21.538-1.032" transform="translate(-544.633 -87.452)" fill="#fff"/>
    <path id="Trazado_802763" data-name="Trazado 802763" d="M709,177.061a.222.222,0,0,1-.1-.025,29.59,29.59,0,0,1-5.077-3.081,10.044,10.044,0,0,1-3.467-4.832,13.045,13.045,0,0,1,.194-6.519c1.582-6.935,5.108-17.827,8.519-28.36,2.534-7.825,4.927-15.216,6.307-20.334a2.581,2.581,0,0,1,1.835-1.822c1.451-.379,19.811-1.288,21.767,1.107.508.622-.357,2.4-1.843,5.253a14.16,14.16,0,0,0-1.436,3.2c.064,2.254-3.353,3.18-6.97,4.161-3.21.87-6.529,1.77-6.907,3.58a141.371,141.371,0,0,1-4.951,16.7c-.833,2.434-1.926,7.511-3.084,12.886-1.571,7.289-3.194,14.826-4.578,17.958a.224.224,0,0,1-.13.12.222.222,0,0,1-.074.012m8.32-64.542a2.133,2.133,0,0,0-1.517,1.507c-1.383,5.128-3.778,12.525-6.313,20.355-3.408,10.524-6.932,21.406-8.509,28.322a12.654,12.654,0,0,0-.2,6.293,9.607,9.607,0,0,0,3.32,4.612,28.139,28.139,0,0,0,4.79,2.922c1.349-3.228,3-10.882,4.457-17.653,1.161-5.388,2.257-10.478,3.1-12.936a141.045,141.045,0,0,0,4.937-16.642c.434-2.078,3.887-3.014,7.227-3.92,3.292-.892,6.7-1.815,6.641-3.718a11.775,11.775,0,0,1,1.486-3.42c.842-1.617,2.252-4.325,1.893-4.764-1.722-2.108-19.772-1.358-21.309-.957m-.056-.216h0Z" transform="translate(-543.86 -86.705)"/>
    <path id="Trazado_802764" data-name="Trazado 802764" d="M609.6,180.465a.223.223,0,0,1-.139-.4c6.73-5.361,10.567-6.7,10.727-6.752a.223.223,0,0,1,.143.422c-.039.013-3.934,1.374-10.592,6.678a.222.222,0,0,1-.139.049" transform="translate(-473.446 -134.646)"/>
    <path id="Trazado_802765" data-name="Trazado 802765" d="M663.565,298.826s-5.806,48.8-16.529,109.572l-6.7,6.8a1.362,1.362,0,0,0,.97,2.318h29.039c3.178,0,4.662-2.849,4.98-6.011,1.318-13.073,5.53-67.763,5.53-67.763l3.613,66.467-4.607,5.05a1.362,1.362,0,0,0,1.007,2.28h29.014c3.5,0,5.244-3.288,4.78-6.754-5.446-40.708-10.311-96.992-18.461-111.477Z" transform="translate(-497.195 -232.168)" fill="#fff"/>
    <path id="Trazado_802766" data-name="Trazado 802766" d="M709.106,416.982H680.092a1.585,1.585,0,0,1-1.171-2.654l4.543-4.98-3.425-62.992c-.941,12.135-4.157,53.352-5.269,64.391-.392,3.889-2.337,6.211-5.2,6.211H640.529a1.585,1.585,0,0,1-1.129-2.7l6.647-6.746c10.592-60.039,16.458-109,16.515-109.492a.225.225,0,0,1,.225-.2l32.64.479a.223.223,0,0,1,.191.114c6.315,11.223,10.634,47.2,14.811,81.983,1.253,10.439,2.437,20.3,3.678,29.574a6.9,6.9,0,0,1-1.381,5.413,4.666,4.666,0,0,1-3.621,1.594m-29.027-74.243h0a.223.223,0,0,1,.22.211l3.613,66.467a.222.222,0,0,1-.058.163l-4.606,5.05a1.139,1.139,0,0,0,.842,1.907h29.014a4.23,4.23,0,0,0,3.285-1.441,6.454,6.454,0,0,0,1.274-5.06c-1.241-9.278-2.425-19.139-3.679-29.58-4.157-34.63-8.456-70.434-14.694-81.706l-32.31-.474c-.42,3.483-6.25,51.254-16.507,109.385a.224.224,0,0,1-.061.118l-6.7,6.8a1.139,1.139,0,0,0,.812,1.938h29.039c3.766,0,4.583-4.063,4.758-5.81,1.3-12.921,5.487-67.211,5.529-67.758a.223.223,0,0,1,.222-.206m-33.823,64.883h0Z" transform="translate(-496.415 -231.391)"/>
    <path id="Trazado_802767" data-name="Trazado 802767" d="M856.173,798.3c-8.956,0-17.29-.707-17.408-.717a.223.223,0,0,1,.038-.444c.168.014,16.879,1.431,28.392.238a.223.223,0,1,1,.046.444,110.789,110.789,0,0,1-11.069.48" transform="translate(-651.507 -619.326)"/>
    <path id="Trazado_802768" data-name="Trazado 802768" d="M690.7,791.334c-14.073,0-19.752-1.841-19.815-1.862a.223.223,0,1,1,.142-.423c.072.024,7.466,2.413,26.37,1.711a.221.221,0,0,1,.231.215.223.223,0,0,1-.215.231c-2.422.09-4.658.129-6.713.129" transform="translate(-521.116 -613.03)"/>
    <path id="Trazado_802769" data-name="Trazado 802769" d="M809.966,440.385a.223.223,0,0,1-.223-.216l-.411-12.631a4.258,4.258,0,0,0-3.061-2.774.223.223,0,1,1,.1-.435,4.707,4.707,0,0,1,3.394,3.1.222.222,0,0,1,.011.062l.412,12.664a.222.222,0,0,1-.216.23h-.007" transform="translate(-626.286 -329.671)"/>
    <path id="Trazado_802770" data-name="Trazado 802770" d="M767.231,149.173H741.006a2.022,2.022,0,0,1-1.95-2.561c.819-2.961,2.317-8.37,4.328-15.6,3.117-11.2,5.129-19.1,6.218-21.715s1.279-4.036,5.718-4.234c4.092-.182,9.007-.809,9.491,3.814a3.229,3.229,0,0,0,1.307,2.243l2.905,2.153Z" transform="translate(-574.14 -81.524)" fill="#5479f7"/>
    <path id="Trazado_802771" data-name="Trazado 802771" d="M868.032,182.586a110.811,110.811,0,0,0-.729-25c-1.9-11.616-6.923-23.118-15.972-30.646-1.485-1.235-3.169-2.508-3.618-4.387-.3-1.263-.365-3.081-1.658-3.2,0,0-2.6-.288-4.4,2.711a13.1,13.1,0,0,0-1.4,5.029c-1.537,11.288-1.87,22.7-2.2,34.089-.044,1.5.719,19.848,1.051,21.314.852,3.762,4.022,4.227,6.562,4.4s7.421,0,7.421,0l-.288-6.2s4.405,2.506,8.1,2.746a18.793,18.793,0,0,0,7.13-.862" transform="translate(-651.118 -92.725)" fill="#fff"/>
    <path id="Trazado_802772" data-name="Trazado 802772" d="M848.606,186.455c-1.494,0-3.176-.022-4.325-.1-2.151-.149-5.753-.4-6.679-4.753-.334-1.571-1.236-20.3-1.195-21.728a.223.223,0,0,1,.446.013c-.047,1.622.9,20.268,1.185,21.622.791,3.716,3.533,4.212,6.274,4.4,2.193.151,6.354.091,7.381.073l-.393-6.044a.223.223,0,0,1,.355-.194,15.942,15.942,0,0,0,7.971,2.7,19.874,19.874,0,0,0,6.908-.8c.642-10.1.415-17.756-.736-24.8-2.107-12.9-7.752-23.736-15.895-30.51l-.324-.268c-1.442-1.191-2.934-2.423-3.368-4.239-.056-.234-.1-.479-.151-.738-.206-1.086-.418-2.208-1.309-2.287a4.382,4.382,0,0,0-3.438,1.583.223.223,0,0,1-.332-.3,4.741,4.741,0,0,1,3.814-1.728c1.222.108,1.478,1.457,1.7,2.648.048.254.094.494.147.718.4,1.671,1.832,2.854,3.218,4l.325.269c8.225,6.842,13.925,17.774,16.05,30.781,1.162,7.115,1.387,14.842.731,25.053a.223.223,0,0,1-.152.2,20.164,20.164,0,0,1-7.209.873,16.187,16.187,0,0,1-7.834-2.526l.379,5.82a.223.223,0,0,1-.218.238c-.028,0-1.545.031-3.329.031" transform="translate(-649.832 -91.946)"/>
    <path id="Trazado_802773" data-name="Trazado 802773" d="M884.838,254.184a.223.223,0,0,1-.223-.219c-.152-8.915-1.912-30.282-5.292-39.279a.223.223,0,1,1,.418-.157c3.4,9.047,5.167,30.487,5.32,39.428a.223.223,0,0,1-.219.227h0" transform="translate(-683.165 -166.563)"/>
    <path id="Trazado_802774" data-name="Trazado 802774" d="M979.445,329.96l-10.247-.58c.1,2.466.249,6.273.249,8.492,0,3.478-.852,11.357-.852,11.357s-.468,5.2-.6,6.743l.17.006,8.509.5a1.072,1.072,0,0,0,1.108-.954l2.689-24.373a1.073,1.073,0,0,0-1.024-1.189" transform="translate(-752.067 -255.907)"/>
    <path id="Trazado_802775" data-name="Trazado 802775" d="M861.906,341.413s-.532-8.411-1.182-15.459l-8.1-.147a1.073,1.073,0,0,0-1.111.984L849.5,351.336a1.072,1.072,0,0,0,1.033,1.16l24.828.68c-2.552-2.193-13.451-11.763-13.451-11.763" transform="translate(-659.999 -253.13)"/>
    <path id="Trazado_802776" data-name="Trazado 802776" d="M918.578,406.494c.335-3.5.656-7,.819-10.209a17.736,17.736,0,0,1-15.225-1.884q.112,3.329.314,6.653c.169,2.764.489,5.768,2.413,7.759a6.158,6.158,0,0,0,6.27,1.513,2.969,2.969,0,0,0,3.818-.358,1.971,1.971,0,1,0,1.592-3.475" transform="translate(-702.482 -306.424)" fill="#fff"/>
    <path id="Trazado_802777" data-name="Trazado 802777" d="M914.072,410.3a3.062,3.062,0,0,1-1.717-.506,6.353,6.353,0,0,1-6.393-1.606c-1.963-2.031-2.3-5.017-2.476-7.9-.134-2.189-.239-4.43-.314-6.659a.223.223,0,0,1,.343-.2,17.514,17.514,0,0,0,15.035,1.86.223.223,0,0,1,.293.223c-.163,3.189-.484,6.7-.8,10.027a2.232,2.232,0,0,1,1.3,1.121,2.063,2.063,0,0,1-1.407,3.072,2.229,2.229,0,0,1-1.7-.256,3.177,3.177,0,0,1-2.162.819m-1.68-.976a.223.223,0,0,1,.133.044,2.742,2.742,0,0,0,3.52-.33.223.223,0,0,1,.3-.023,1.734,1.734,0,1,0,1.412-3.082.223.223,0,0,1-.182-.241c.313-3.272.631-6.722.8-9.876a17.946,17.946,0,0,1-14.748-1.786c.074,2.088.174,4.181.3,6.23.171,2.8.493,5.7,2.351,7.618a5.976,5.976,0,0,0,6.037,1.457.226.226,0,0,1,.072-.012" transform="translate(-701.706 -305.647)"/>
    <path id="Trazado_802778" data-name="Trazado 802778" d="M952.255,443.518a.222.222,0,0,1-.132-.043,6.07,6.07,0,0,1-2.34-5.817.223.223,0,0,1,.44.077,5.614,5.614,0,0,0,2.165,5.38.223.223,0,0,1-.132.4" transform="translate(-737.855 -339.888)"/>
    <path id="Trazado_802779" data-name="Trazado 802779" d="M936.52,445.48a.222.222,0,0,1-.154-.062,7.274,7.274,0,0,1-2.2-5.727.223.223,0,1,1,.445.033,6.825,6.825,0,0,0,2.061,5.373.223.223,0,0,1-.154.384" transform="translate(-725.773 -341.45)"/>
    <path id="Trazado_802780" data-name="Trazado 802780" d="M918.908,443.673a.223.223,0,0,1-.161-.069,7.878,7.878,0,0,1-2.121-6.187.223.223,0,1,1,.444.046,7.424,7.424,0,0,0,2,5.833.223.223,0,0,1-.161.377" transform="translate(-712.127 -339.689)"/>
    <path id="Trazado_802781" data-name="Trazado 802781" d="M800.365,12.142c-.105-.425-.423-.668-.627-1.028-.162-.287.29-.786.416-1.066a1.506,1.506,0,0,0,.126-1.035,3.177,3.177,0,0,0-.542-.9.662.662,0,0,1-.052-.785,1.748,1.748,0,0,0,.184-1.126,1.584,1.584,0,0,0-.572-.928c-.145-.113-.39-.174-.508-.309-.135-.154-.045-.444-.035-.629a1.484,1.484,0,0,0-1.445-1.582,3.2,3.2,0,0,1-.782-.046c-.3-.131-.4-.464-.512-.605a1.1,1.1,0,0,0-1.117-.415c-.418.074-1.133.759-1.889-.09a1.592,1.592,0,0,0-1.13-.542,2.128,2.128,0,0,0-1.185.436c-.366.214-.62.014-.943-.183a1.483,1.483,0,0,0-.995-.293,1.426,1.426,0,0,0-.867.656c-.106.133-.209.27-.392.272a2.27,2.27,0,0,1-.633-.179,1.386,1.386,0,0,0-1.248.158,1.7,1.7,0,0,0-.589,1.154c-.1.439-.474.472-.853.59a1.614,1.614,0,0,0-.961.678,1.442,1.442,0,0,0-.149,1.162c.056.176.225.368.145.551s-.3.332-.419.484a1.487,1.487,0,0,0-.265,1.393,2.127,2.127,0,0,0,.345.585.574.574,0,0,1,.089.651,1.786,1.786,0,0,0,.743,1.959,1.65,1.65,0,0,0,.543,1.8,1.478,1.478,0,0,0,1.08.144,1.477,1.477,0,0,1,.489-.023c.256.05.2.241.178.457a1.584,1.584,0,0,0,.725,1.782,3.946,3.946,0,0,0,.822.214.744.744,0,0,1,.361.129c.123.129.063.373.078.535.073.8.819.992,1.506.989.261,0,.615-.034.747.242.169.354.159.737.533.969a1.14,1.14,0,0,0,.932.079c.359-.108.768-.526,1.15-.484.282.031.5.354.7.522a1.232,1.232,0,0,0,.886.33,1.783,1.783,0,0,0,.883-.413,2.361,2.361,0,0,1,.344-.225,1.058,1.058,0,0,1,.628-.031,1.775,1.775,0,0,0,1.795-.66c.207-.348.089-.821.335-1.134a7.14,7.14,0,0,1,.861-.684,1.34,1.34,0,0,0,.48-.956,1.307,1.307,0,0,0-.144-.534c-.057-.125-.15-.252-.1-.392.084-.24.454-.426.614-.621a1.141,1.141,0,0,0,.234-1.019" transform="translate(-607.914 -0.777)"/>
    <path id="Trazado_802782" data-name="Trazado 802782" d="M800.164,78.762l.786,9.65s8.277-4.035,8.332-4.108-1.268-8.793-1.268-8.793-1.722-2.882-7.85,3.251" transform="translate(-621.675 -58.142)" fill="#fff"/>
    <path id="Trazado_802783" data-name="Trazado 802783" d="M808.5,83.752a.223.223,0,0,1-.221-.248c-.016-.387-.756-5.366-1.259-8.684a1.482,1.482,0,0,0-1.042-.523c-1.054-.12-3.012.439-6.364,3.774l.289,3.279a.223.223,0,0,1-.444.039l-.3-3.383a.223.223,0,0,1,.064-.177c3.541-3.543,5.666-4.116,6.828-3.972a1.855,1.855,0,0,1,1.371.765.229.229,0,0,1,.029.081c1.337,8.812,1.3,8.861,1.226,8.96a.223.223,0,0,1-.179.089" transform="translate(-620.898 -57.367)"/>
    <path id="Trazado_802784" data-name="Trazado 802784" d="M793.223,45.089s-1.416,1.877-.657-1.394a2.014,2.014,0,0,0,.044-.28,2.033,2.033,0,0,1-.466-.175,1.143,1.143,0,0,1-.645-.948,1.236,1.236,0,0,0-.138-.6c-.122-.18-.322-.173-.517-.152a2.859,2.859,0,0,1-1.254-.051,3.063,3.063,0,0,1-1.023-.749.989.989,0,0,0-.629-.272,2.214,2.214,0,0,0-.709.135,4.845,4.845,0,0,1-1.871.323,1.467,1.467,0,0,1-.908-.4c-.281.551-.454,1.338-.8,2.322,0,0-2.779,7.325,0,9.684,1.649,1.4,6.86,2.133,10.191-2.9a2.8,2.8,0,0,0,2.833-2.247c.526-2.36-1.543-3.951-3.45-2.291" transform="translate(-607.883 -31.44)" fill="#fff"/>
    <path id="Trazado_802785" data-name="Trazado 802785" d="M786.295,53.011a5.756,5.756,0,0,1-3.582-1.087c-2.867-2.433-.181-9.628-.065-9.933.132-.372.241-.726.338-1.039a8.509,8.509,0,0,1,.475-1.305.223.223,0,0,1,.354-.058,1.243,1.243,0,0,0,.773.338,4.71,4.71,0,0,0,1.783-.314,2.4,2.4,0,0,1,.782-.145,1.2,1.2,0,0,1,.77.327c.071.062.138.125.2.188a2.064,2.064,0,0,0,.742.518,2.662,2.662,0,0,0,1.158.04.715.715,0,0,1,.725.248,1.2,1.2,0,0,1,.168.61l.008.094a.922.922,0,0,0,.526.772,1.8,1.8,0,0,0,.415.156.223.223,0,0,1,.17.237,2.3,2.3,0,0,1-.049.311,3.849,3.849,0,0,0-.193,1.645,1.709,1.709,0,0,0,.454-.437.21.21,0,0,1,.032-.034,2.334,2.334,0,0,1,2.783-.46,2.664,2.664,0,0,1,1.031,2.968,3.012,3.012,0,0,1-2.931,2.42,8.347,8.347,0,0,1-5.8,3.863,7.6,7.6,0,0,1-1.07.076M783.744,40.1c-.114.279-.217.612-.332.983-.1.317-.209.675-.345,1.061-.029.076-2.693,7.209-.065,9.439a5.741,5.741,0,0,0,4.3.909,7.943,7.943,0,0,0,5.562-3.766.222.222,0,0,1,.2-.1,2.563,2.563,0,0,0,2.6-2.072,2.231,2.231,0,0,0-.824-2.488,1.9,1.9,0,0,0-2.245.4c-.187.244-.628.741-.99.57-.258-.12-.442-.466-.048-2.168.006-.023.01-.046.015-.069a2.195,2.195,0,0,1-.324-.138,1.373,1.373,0,0,1-.763-1.123l-.009-.1a.835.835,0,0,0-.092-.394c-.038-.056-.1-.079-.308-.056a3.041,3.041,0,0,1-1.349-.062,2.471,2.471,0,0,1-.9-.615c-.064-.059-.128-.12-.195-.179a.77.77,0,0,0-.487-.216,2.027,2.027,0,0,0-.637.125,5.049,5.049,0,0,1-1.959.332,1.764,1.764,0,0,1-.8-.271" transform="translate(-607.093 -30.664)"/>
    <path id="Trazado_802786" data-name="Trazado 802786" d="M831.853,66.033a.223.223,0,0,1-.193-.334,2.187,2.187,0,0,1,1.87-1.084h.008a.223.223,0,0,1,0,.446h-.007a1.758,1.758,0,0,0-1.483.859.224.224,0,0,1-.194.112" transform="translate(-646.122 -50.202)"/>
    <path id="Trazado_802787" data-name="Trazado 802787" d="M1092.648,72.174a4.394,4.394,0,0,0-1.368-2.946,8.387,8.387,0,0,0-3.539-1.639,14.816,14.816,0,0,0-6.413-.228,8.314,8.314,0,0,1-.86.168.6.6,0,0,1-.345-.039c-.146-.117.015-.367.071-.5a4.04,4.04,0,0,0,.393-1.983,2.525,2.525,0,0,0-.8-1.5,6.048,6.048,0,0,0-3.49-1.43,11.164,11.164,0,0,0-2.063-.035,4.038,4.038,0,0,1-2.011-.008,1.538,1.538,0,0,1-.7-1.351,6.213,6.213,0,0,1,.461-2,4.687,4.687,0,0,0-.274-3.623,4.077,4.077,0,0,0-1.548-1.6.258.258,0,0,0-.061-.444,7.222,7.222,0,0,0-6,.792,5.842,5.842,0,0,0-3.164,4.483,4.007,4.007,0,0,0,.682,2.6c.507.705,1.575,1.266,1.52,2.242-.032.58-.209,1.159-.267,1.74a10.812,10.812,0,0,0-.04,1.654,9.616,9.616,0,0,0,.721,3.222,7.877,7.877,0,0,0,4.251,4.274c.214,2.425.527,5.018,2.133,6.959,1.665,2.011,4.461,3.006,6.973,3.352a14.163,14.163,0,0,0,13.406-5.607,10.009,10.009,0,0,0,2.324-6.555" transform="translate(-824.275 -40.919)"/>
    <path id="Trazado_802788" data-name="Trazado 802788" d="M860.441,777.167,867.2,771.4l.451-3.43,8.327-2.624,13.77,8.02-.4,3.553a3.461,3.461,0,0,1-3.439,3.073H861.482a1.6,1.6,0,0,1-1.042-2.825" transform="translate(-668.066 -594.624)" fill="#fff"/>
    <path id="Trazado_802789" data-name="Trazado 802789" d="M885.129,779.437H860.708a1.828,1.828,0,0,1-1.187-3.218l6.69-5.711.44-3.345a.223.223,0,0,1,.154-.184l8.327-2.623a.223.223,0,0,1,.179.02l13.77,8.02a.224.224,0,0,1,.109.218l-.4,3.552a3.682,3.682,0,0,1-3.661,3.271m-18.054-12.075-.433,3.289a.224.224,0,0,1-.076.141l-6.755,5.767h0a1.381,1.381,0,0,0,.9,2.432h24.421a3.236,3.236,0,0,0,3.218-2.875l.385-3.408-13.559-7.9Zm-7.409,9.027h0Z" transform="translate(-667.292 -593.846)"/>
    <path id="Trazado_802790" data-name="Trazado 802790" d="M1136.111,779.643a3.418,3.418,0,0,1-3.264,4.432H1109.7a3.418,3.418,0,0,1-3.348-2.728l-1.6-7.75,8.514-3,21.688,5.34Z" transform="translate(-858.325 -598.707)" fill="#fff"/>
    <path id="Trazado_802791" data-name="Trazado 802791" d="M1132.071,783.521h-23.142a3.655,3.655,0,0,1-3.566-2.906l-1.6-7.75a.223.223,0,0,1,.144-.256l8.514-3a.221.221,0,0,1,.127-.006l21.688,5.34a.224.224,0,0,1,.16.15l1.15,3.7a3.641,3.641,0,0,1-3.477,4.721m-27.83-10.554,1.559,7.559a3.207,3.207,0,0,0,3.129,2.549h23.142a3.195,3.195,0,0,0,3.051-4.142l-1.112-3.581-21.5-5.294Z" transform="translate(-857.549 -597.93)"/>
    <path id="Trazado_802792" data-name="Trazado 802792" d="M907.061,293.09,919.147,274.9l16.123,5.113,5.161,9.9,31.342,100.9-30.2-2.344L925.486,315.6l-8.671,76.723-22.1-5.4Z" transform="translate(-695.137 -213.575)" fill="#5479f5"/>
    <path id="Trazado_802793" data-name="Trazado 802793" d="M1009.924,381.695a.223.223,0,0,1-.219-.182l-2.584-13.731a7.176,7.176,0,0,0-2.592-4.294l-1.211-.961a.223.223,0,0,1,.277-.35l1.211.961a7.622,7.622,0,0,1,2.753,4.561l2.584,13.731a.223.223,0,0,1-.178.26.218.218,0,0,1-.042,0" transform="translate(-779.447 -281.351)"/>
    <path id="Trazado_802794" data-name="Trazado 802794" d="M976.667,235.685l6.711,27.712s-11.482,3.467-20.362-9.557c0,0-3.045,10.336-16.19,9.557l8.385-29.362Z" transform="translate(-735.622 -181.83)" fill="#fff"/>
    <path id="Trazado_802795" data-name="Trazado 802795" d="M946.049,262.843a.215.215,0,0,1-.061-.009.223.223,0,0,1-.153-.276l8.385-29.362a.224.224,0,0,1,.232-.161l21.456,1.65a.223.223,0,0,1,.2.17l6.711,27.712a.223.223,0,1,1-.433.105l-6.673-27.555L954.6,233.495l-8.335,29.187a.223.223,0,0,1-.214.162" transform="translate(-734.844 -181.053)"/>
    <path id="Trazado_802796" data-name="Trazado 802796" d="M1009.3,292.913a.223.223,0,0,1-.2-.125,27.083,27.083,0,0,1-2.452-7.959.223.223,0,0,1,.442-.064,26.637,26.637,0,0,0,2.411,7.828.223.223,0,0,1-.2.321" transform="translate(-782.096 -221.095)"/>
    <path id="Trazado_802797" data-name="Trazado 802797" d="M960.13,113.333l-7.648-.673-2.076,3.516-7.976-.1a8.79,8.79,0,0,0-6.5,2.761c-4.859,5.151-12.789,12.464-11.31,25.094l15.1-2.249,19.7.122,1.313-9.066L972.589,142.8l-7.346,3.665,5.615,12.079s8.9-4.27,16.115-8.507a8.654,8.654,0,0,0,2.413-12.844c-4.761-5.98-13.393-14.341-27.926-21.2Z" transform="translate(-718.227 -87.529)" fill="#fff"/>
    <path id="Trazado_802798" data-name="Trazado 802798" d="M970.074,157.988a.222.222,0,0,1-.2-.129l-5.615-12.079a.223.223,0,0,1,.1-.294l7.043-3.514L960.1,132.4l-1.255,8.667a.221.221,0,0,1-.222.191l-19.68-.122-15.08,2.246a.223.223,0,0,1-.255-.195c-1.395-11.916,5.417-19.042,10.391-24.246q.505-.528.978-1.028a9.042,9.042,0,0,1,6.667-2.831l7.847.1,2.01-3.4a.224.224,0,0,1,.212-.109l7.648.673a.224.224,0,0,1,.18.122l1.3,2.586c14.623,6.919,23.261,15.364,27.935,21.234a8.877,8.877,0,0,1-2.474,13.175c-7.138,4.193-16.042,8.473-16.131,8.516a.225.225,0,0,1-.1.022m-5.322-12.2,5.429,11.677c1.37-.663,9.373-4.569,15.895-8.4a8.43,8.43,0,0,0,2.351-12.513c-4.652-5.843-13.259-14.253-27.846-21.142a.224.224,0,0,1-.1-.1l-1.274-2.543-7.384-.65-2,3.395a.219.219,0,0,1-.195.11l-7.976-.1h-.1a8.593,8.593,0,0,0-6.234,2.692c-.315.334-.643.677-.98,1.03-4.881,5.106-11.553,12.086-10.3,23.657l14.868-2.215a.15.15,0,0,1,.034,0l19.5.121,1.285-8.874a.223.223,0,0,1,.365-.138l11.864,10.055a.223.223,0,0,1-.045.37Z" transform="translate(-717.443 -86.752)"/>
    <path id="Trazado_802799" data-name="Trazado 802799" d="M1142.8,237.9a.223.223,0,0,1-.1-.424,33.476,33.476,0,0,1,5.885-2.189.223.223,0,1,1,.116.431,33.037,33.037,0,0,0-5.806,2.16.223.223,0,0,1-.1.022" transform="translate(-887.709 -182.8)"/>
    <path id="Trazado_802800" data-name="Trazado 802800" d="M1044.69,132.568a.223.223,0,0,1-.169-.368l6.345-7.4a.223.223,0,1,1,.338.29l-6.345,7.4a.222.222,0,0,1-.169.078" transform="translate(-811.482 -96.901)"/>
    <path id="Trazado_802801" data-name="Trazado 802801" d="M1063.667,249.823c-.063.326-.5,16.065-.3,16.367s1.2,1.359,1.2,1.359,1.107-.969,1.207-1.371.166-15.8.2-16.254-2.247-.427-2.309-.1" transform="translate(-826.125 -193.908)"/>
    <path id="Trazado_802802" data-name="Trazado 802802" d="M1052.378,261.709a18.965,18.965,0,0,1,5.615,12.079s-5.946,2.378-7.148,2.422c-1.079.04-7.707-4.228-10.559-5.652a1,1,0,0,1-.492-1.242l.132-.356-1.246-.447a1.015,1.015,0,0,1-.646-1.185l.018-.075a.926.926,0,0,1,.974-.713l1.433.112-3.108-1.216a1.2,1.2,0,0,1-.762-1.116.9.9,0,0,1,.889-.906,18.525,18.525,0,0,1,4.052.259s-4.059-.973-4.189-1.422c-.191-.66.63-1.763,4.74-.994a13.34,13.34,0,0,1,6.045,2.475Z" transform="translate(-805.362 -202.775)" fill="#fff"/>
    <path id="Trazado_802803" data-name="Trazado 802803" d="M1050.056,275.65c-.713,0-2.985-1.295-6.358-3.263-1.66-.968-3.227-1.883-4.289-2.413a1.221,1.221,0,0,1-.6-1.52l.054-.145-1.033-.371a1.237,1.237,0,0,1-.787-1.446l.017-.075a1.148,1.148,0,0,1,1.149-.888l-1.713-.671a1.414,1.414,0,0,1-.9-1.324,1.133,1.133,0,0,1,1.108-1.129c.438-.007.924-.009,1.411,0-1.1-.348-1.69-.642-1.758-.878a.915.915,0,0,1,.226-.88c.456-.5,1.654-.979,4.769-.4a14.068,14.068,0,0,1,6.036,2.432l4.123-1.962a.223.223,0,0,1,.242.033,19.372,19.372,0,0,1,5.691,12.229.223.223,0,0,1-.14.226c-.244.1-6,2.393-7.223,2.438h-.02m-11.88-9.675a.7.7,0,0,0-.683.543l-.017.075a.792.792,0,0,0,.5.925l1.245.447a.223.223,0,0,1,.134.288l-.132.356a.775.775,0,0,0,.382.965c1.074.537,2.648,1.455,4.314,2.427,2.447,1.428,5.488,3.2,6.125,3.2h.012a46.726,46.726,0,0,0,6.92-2.345,19,19,0,0,0-5.419-11.667l-4.115,1.958a.223.223,0,0,1-.243-.034,13.307,13.307,0,0,0-5.938-2.423c-3.182-.6-4.107-.018-4.356.257a.476.476,0,0,0-.134.435,17.08,17.08,0,0,0,3.8,1.23c.087.018.169.038.245.06a.223.223,0,0,1-.113.432l-.241-.058a21.217,21.217,0,0,0-3.755-.194.685.685,0,0,0-.67.683.97.97,0,0,0,.62.909l3.109,1.216a.223.223,0,0,1-.1.43l-1.434-.113-.057,0" transform="translate(-804.586 -201.991)"/>
    <path id="Trazado_802804" data-name="Trazado 802804" d="M1055.992,286.616a.223.223,0,0,1-.065-.01l-1.611-.487a.223.223,0,0,1,.129-.427l1.611.487a.223.223,0,0,1-.065.437" transform="translate(-819.011 -221.957)"/>
    <path id="Trazado_802805" data-name="Trazado 802805" d="M1054.032,297.3a.219.219,0,0,1-.089-.019,26,26,0,0,0-3.422-1.227.223.223,0,0,1,.121-.43,26.483,26.483,0,0,1,3.481,1.248.223.223,0,0,1-.09.427" transform="translate(-816.059 -229.675)"/>
    <path id="Trazado_802806" data-name="Trazado 802806" d="M1058.657,78.277l-1.982,8.123-6.025,7.111-1.321-4.252s1.131-3.824,2.3-8.169,7.03-2.814,7.03-2.814" transform="translate(-815.26 -60.613)" fill="#fff"/>
    <path id="Trazado_802807" data-name="Trazado 802807" d="M1049.874,92.992a.217.217,0,0,1-.044,0,.224.224,0,0,1-.169-.152l-1.321-4.252a.223.223,0,0,1,0-.129c.011-.038,1.144-3.872,2.3-8.163,1.21-4.506,7.241-2.988,7.3-2.972a.223.223,0,0,1,.16.269l-1.982,8.123a.224.224,0,0,1-.047.091l-6.025,7.111a.224.224,0,0,1-.17.079m-1.088-4.476,1.181,3.8,5.728-6.761,1.916-7.853c-1.055-.227-5.558-.967-6.545,2.706-1.072,3.991-2.126,7.586-2.28,8.109" transform="translate(-814.483 -59.871)"/>
    <path id="Trazado_802808" data-name="Trazado 802808" d="M1046.532,25.277c-.317-1.61-.861-1.854-1.985-1.88a9.138,9.138,0,0,0-4.213-1.988,10.283,10.283,0,0,0-4.08.012c-5.655,1.427-5.27,6.057-4.621,7.474a2.262,2.262,0,0,0-1.431,2.566,2.738,2.738,0,0,0,2.24,2.04,3.489,3.489,0,0,0,2.933-1.019c.819-.812,1.358-2.022,2.462-2.356.587.634,1.059,1.364,1.588,2.047a6.035,6.035,0,0,0,1.9,1.733,2.775,2.775,0,0,0,2.492.123,3.416,3.416,0,0,0,1.341-1.358c.274-.5.6-.991.849-1.509a8.261,8.261,0,0,0,.754-3.731,11.947,11.947,0,0,0-.229-2.153" transform="translate(-800.365 -16.478)"/>
    <path id="Trazado_802809" data-name="Trazado 802809" d="M1058,49.9a1.394,1.394,0,0,1,1.758-.167,1.771,1.771,0,0,1,.7,1.687,2.447,2.447,0,0,1-.994,1.59,4.021,4.021,0,0,1-1.776.7,8.592,8.592,0,0,1-2.806,3.545,3.593,3.593,0,0,1-5.833-2.222,9.423,9.423,0,0,1-.107-2.905,30.756,30.756,0,0,1,1.586-7.515,10.972,10.972,0,0,1,2.9.13,4.164,4.164,0,0,1,2.459,1.444,4.854,4.854,0,0,1,.722,3.443c-.039.375-.251,1.624.437,1.577.462-.032.678-1,.95-1.3" transform="translate(-814.913 -34.632)" fill="#fff"/>
    <path id="Trazado_802810" data-name="Trazado 802810" d="M1051.663,57.444a3.483,3.483,0,0,1-1.995-.594,4.173,4.173,0,0,1-1.613-2.546,9.615,9.615,0,0,1-.112-2.974,30.944,30.944,0,0,1,1.6-7.569.223.223,0,0,1,.2-.15,11.211,11.211,0,0,1,2.959.135,4.376,4.376,0,0,1,2.589,1.528,4.971,4.971,0,0,1,.766,3.6l-.013.118c-.032.266-.116.971.075,1.171a.153.153,0,0,0,.138.043c.17-.012.36-.415.485-.682a2.363,2.363,0,0,1,.315-.548,1.621,1.621,0,0,1,2.048-.2,2,2,0,0,1,.8,1.9,2.662,2.662,0,0,1-1.082,1.739,4.15,4.15,0,0,1-1.76.717,8.816,8.816,0,0,1-2.834,3.531,4.809,4.809,0,0,1-2.565.782m-1.749-13.395a30.511,30.511,0,0,0-1.526,7.318,9.208,9.208,0,0,0,.1,2.836,3.372,3.372,0,0,0,5.494,2.085,8.54,8.54,0,0,0,2.728-3.457.224.224,0,0,1,.165-.122,3.777,3.777,0,0,0,1.678-.654,2.215,2.215,0,0,0,.907-1.441,1.543,1.543,0,0,0-.608-1.472,1.178,1.178,0,0,0-1.468.132,2.227,2.227,0,0,0-.242.44c-.2.425-.427.907-.858.937a.6.6,0,0,1-.492-.18c-.309-.325-.262-.961-.195-1.531l.013-.111a4.548,4.548,0,0,0-.678-3.286,3.934,3.934,0,0,0-2.328-1.361,10.371,10.371,0,0,0-2.691-.133" transform="translate(-814.135 -33.855)"/>
    <path id="Trazado_802811" data-name="Trazado 802811" d="M1085.691,77.549a.223.223,0,0,1-.184-.349,2.468,2.468,0,0,1,1.712-1.043.225.225,0,0,1,.249.194.223.223,0,0,1-.194.248,2.016,2.016,0,0,0-1.4.852.223.223,0,0,1-.185.1" transform="translate(-843.338 -59.168)"/>
    <path id="Trazado_802812" data-name="Trazado 802812" d="M948.536,95.177s21.2,14.039,21.471,14.865-9.222,13.351-9.5,13.764S938.9,108.941,938.9,108.941Z" transform="translate(-729.464 -73.946)"/>
    <path id="Trazado_802813" data-name="Trazado 802813" d="M927.438,126.177l2.866-.356s10.266-17.053,13.358-21.106,4.406-3.314,4.788-2.406a2.921,2.921,0,0,1-.031,1.755s2.91-2.391,3.158,1.185c0,0,2.228-.422,2.162,1.728,0,0,1.142-.292,1.01,1.509s-2.126,4.221-2.219,1.658l-3.8,4.948s-5.085,25.483-16.206,26.432c-8.1.691-8.247-7.624-7.73-12.191a15.094,15.094,0,0,1,2.645-3.154" transform="translate(-718.369 -78.933)" fill="#fff"/>
    <path id="Trazado_802814" data-name="Trazado 802814" d="M932.488,140.966c-3.5,0-5.746-1.789-6.7-5.33a.223.223,0,1,1,.431-.116c.972,3.615,3.39,5.283,7.186,4.959,10.829-.924,15.956-26,16.006-26.253a.221.221,0,0,1,.042-.092l3.8-4.948a.223.223,0,0,1,.4.128c.024.66.177.9.3.9h0c.437,0,1.381-1.377,1.468-2.565a1.4,1.4,0,0,0-.272-1.17.573.573,0,0,0-.461-.107.223.223,0,0,1-.279-.223,1.438,1.438,0,0,0-.419-1.2,2.011,2.011,0,0,0-1.478-.3.222.222,0,0,1-.178-.042.224.224,0,0,1-.086-.161c-.065-.934-.317-1.5-.749-1.689-.669-.288-1.7.379-2.045.661a.223.223,0,0,1-.353-.244,2.957,2.957,0,0,0,.03-1.616.765.765,0,0,0-.589-.559c-.4-.069-1.563.088-3.809,3.032-3.049,4-13.242,20.915-13.344,21.086a.223.223,0,1,1-.382-.23c.1-.171,10.308-17.11,13.372-21.126,2.192-2.873,3.515-3.327,4.24-3.2a1.2,1.2,0,0,1,.938.863,3.073,3.073,0,0,1,.093,1.317,2.377,2.377,0,0,1,2.026-.393c.555.239.89.856,1,1.835a2.267,2.267,0,0,1,1.608.431,1.752,1.752,0,0,1,.574,1.307.965.965,0,0,1,.582.22,1.764,1.764,0,0,1,.43,1.544c-.09,1.238-1.093,2.979-1.914,2.979h-.011c-.251,0-.546-.154-.675-.764l-3.434,4.47a80.246,80.246,0,0,1-3.935,12.849c-3.566,8.7-7.758,13.308-12.461,13.709q-.493.042-.957.042" transform="translate(-719.272 -78.112)"/>
    <path id="Trazado_802815" data-name="Trazado 802815" d="M924.31,222.4a.223.223,0,0,1-.215-.165c-1.179-4.383.112-9.833.167-10.063a.223.223,0,1,1,.433.1c-.013.055-1.319,5.571-.17,9.843a.223.223,0,0,1-.157.273.23.23,0,0,1-.058.008" transform="translate(-717.577 -164.71)"/>
    <path id="Trazado_802816" data-name="Trazado 802816" d="M982.3,187.494h-.017a14.645,14.645,0,0,1-9.974-5.083.223.223,0,0,1,.34-.289,14.2,14.2,0,0,0,9.668,4.928.223.223,0,0,1-.017.445" transform="translate(-755.378 -141.435)"/>
    <path id="Trazado_802817" data-name="Trazado 802817" d="M468.933,337.21a.223.223,0,0,1-.223-.223V299.5a.223.223,0,0,1,.446,0v37.486a.223.223,0,0,1-.223.223" transform="translate(-364.157 -232.519)"/>
    <path id="Trazado_802818" data-name="Trazado 802818" d="M457.316,290.2a2.764,2.764,0,1,0,2.765-2.764,2.765,2.765,0,0,0-2.765,2.764" transform="translate(-355.304 -223.32)"/>
    <path id="Trazado_802819" data-name="Trazado 802819" d="M566.036,287.522a.223.223,0,0,1-.223-.223V252.834l-14.17-16.949a.223.223,0,1,1,.342-.286l14.222,17.011a.223.223,0,0,1,.052.143V287.3a.223.223,0,0,1-.223.223" transform="translate(-428.549 -182.983)"/>
    <path id="Trazado_802820" data-name="Trazado 802820" d="M545.727,226.89a2.764,2.764,0,1,1-2.764-2.764,2.764,2.764,0,0,1,2.764,2.764" transform="translate(-419.698 -174.131)"/>
    <path id="Trazado_802821" data-name="Trazado 802821" d="M452.01,503.67l-3.436-1.881c-17.252-9.447-21.115-26.89-22.764-46.459l1.277-.2c11.647-.813,17.349-2.764,24.923-11.281,9.041,8.192,17.674,11.182,26.139,11.182l.084.017c-1.563,19.724-5.5,37.328-22.9,46.809Z" transform="translate(-330.826 -344.842)" fill="#fff"/>
    <path id="Trazado_802822" data-name="Trazado 802822" d="M451.233,503.116a.224.224,0,0,1-.107-.027l-3.436-1.881c-16.488-9.028-21.071-25.173-22.879-46.636a.223.223,0,0,1,.188-.239l1.277-.2c11.151-.779,17.053-2.508,24.791-11.208a.223.223,0,0,1,.317-.017c8.261,7.486,16.762,11.125,25.99,11.125a.219.219,0,0,1,.045,0l.084.017a.223.223,0,0,1,.177.236c-.64,8.077-1.847,18.481-5.526,27.314a38.2,38.2,0,0,1-17.488,19.674l-3.326,1.812a.224.224,0,0,1-.107.027m-25.96-48.375c1.808,21.216,6.371,37.171,22.631,46.075l3.329,1.823,3.219-1.754c16.5-8.988,21.049-25.053,22.764-46.407-9.221-.04-17.718-3.669-25.966-11.089-7.769,8.673-13.736,10.407-24.924,11.187Z" transform="translate(-330.05 -344.065)"/>
    <path id="Trazado_802823" data-name="Trazado 802823" d="M460.205,513.5a.222.222,0,0,1-.137-.047,32.544,32.544,0,0,1-10.727-15.487c-2.341-6.658-3.205-14.2-3.7-20.036a.223.223,0,0,1,.188-.239l1.051-.164c9.171-.641,14.023-2.062,20.383-9.213a.223.223,0,0,1,.317-.017c6.792,6.155,13.781,9.147,21.367,9.147a.221.221,0,0,1,.045,0l.069.014a.223.223,0,1,1-.09.437l-.047-.01c-7.63-.006-14.657-2.987-21.477-9.112-6.391,7.123-11.309,8.55-20.517,9.192l-.826.13c1.314,15.395,4.256,27.241,14.235,35a.223.223,0,0,1-.137.4" transform="translate(-346.236 -363.788)"/>
    <path id="Trazado_802824" data-name="Trazado 802824" d="M542.547,581.428a.223.223,0,0,1-.107-.419l2.737-1.491c9.989-5.442,15.457-14.495,17.729-29.353a.223.223,0,1,1,.441.068c-2.3,15.009-7.834,24.162-17.957,29.678l-2.737,1.491a.223.223,0,0,1-.107.027" transform="translate(-421.35 -427.294)"/>
    <path id="Trazado_802825" data-name="Trazado 802825" d="M518.556,567.044H501.811a1.138,1.138,0,0,0-1.14,1.137V573.2a7.761,7.761,0,0,0,7.771,7.751h3.483A7.761,7.761,0,0,0,519.7,573.2v-5.014a1.138,1.138,0,0,0-1.14-1.137" transform="translate(-388.988 -440.556)"/>
    <path id="Trazado_802826" data-name="Trazado 802826" d="M524.022,528.179a.7.7,0,0,1-.7-.7v-2.355a5.014,5.014,0,0,0-5.014-5h-2.151a5.014,5.014,0,0,0-5.014,5v2.355a.7.7,0,0,1-1.4,0v-2.355a6.412,6.412,0,0,1,6.413-6.4h2.151a6.412,6.412,0,0,1,6.413,6.4v2.355a.7.7,0,0,1-.7.7" transform="translate(-396.038 -403.018)"/>
    <path id="Trazado_802827" data-name="Trazado 802827" d="M539.054,582a1.716,1.716,0,1,0-2.54,1.5v3.3a.823.823,0,0,0,1.646,0v-3.3a1.711,1.711,0,0,0,.893-1.5" transform="translate(-416.142 -450.845)" fill="#fff"/>
    <path id="Trazado_802828" data-name="Trazado 802828" d="M4.747,272.269H.74a.223.223,0,1,1,0-.446H4.747a.223.223,0,1,1,0,.446" transform="translate(-0.402 -211.189)"/>
    <path id="Trazado_802829" data-name="Trazado 802829" d="M50.737,158.02H33.455a.223.223,0,1,1,0-.446H50.514V125a.223.223,0,1,1,.446,0v32.8a.223.223,0,0,1-.223.223" transform="translate(-25.819 -96.94)"/>
    <path id="Trazado_802830" data-name="Trazado 802830" d="M14.658,297.037H.74a.223.223,0,1,1,0-.446H14.658a.223.223,0,1,1,0,.446" transform="translate(-0.402 -230.432)"/>
    <path id="Trazado_802831" data-name="Trazado 802831" d="M86.223,297.037H79.129a.223.223,0,1,1,0-.446h7.094a.223.223,0,1,1,0,.446" transform="translate(-61.305 -230.432)"/>
    <path id="Trazado_802832" data-name="Trazado 802832" d="M.74,366.028a.223.223,0,0,1-.223-.223V321.582a.223.223,0,0,1,.223-.223H6.193a.223.223,0,1,1,0,.446H.963v44a.223.223,0,0,1-.223.223" transform="translate(-0.402 -249.675)"/>
    <path id="Trazado_802833" data-name="Trazado 802833" d="M59.266,321.805H44.433a.223.223,0,1,1,0-.446H59.266a.223.223,0,1,1,0,.446" transform="translate(-34.348 -249.675)"/>
    <path id="Trazado_802834" data-name="Trazado 802834" d="M18.83,386.106a3.063,3.063,0,1,1,3.059-3.063,3.061,3.061,0,0,1-3.059,3.063" transform="translate(-12.253 -295.22)" fill="#e2eaff"/>
    <path id="Trazado_802835" data-name="Trazado 802835" d="M18.83,426.178a3.063,3.063,0,1,1,3.059-3.063,3.061,3.061,0,0,1-3.059,3.063" transform="translate(-12.253 -326.353)" fill="#fff"/>
    <path id="Trazado_802836" data-name="Trazado 802836" d="M18.053,425.624a3.286,3.286,0,1,1,3.283-3.286,3.288,3.288,0,0,1-3.283,3.286m0-6.126a2.84,2.84,0,1,0,2.837,2.84,2.841,2.841,0,0,0-2.837-2.84" transform="translate(-11.476 -325.576)"/>
    <path id="Trazado_802837" data-name="Trazado 802837" d="M18.83,466.251a3.063,3.063,0,1,1,3.059-3.063,3.061,3.061,0,0,1-3.059,3.063" transform="translate(-12.253 -357.487)" fill="#fff"/>
    <path id="Trazado_802838" data-name="Trazado 802838" d="M18.053,465.7a3.286,3.286,0,1,1,3.283-3.286,3.288,3.288,0,0,1-3.283,3.286m0-6.126a2.84,2.84,0,1,0,2.837,2.84,2.841,2.841,0,0,0-2.837-2.84" transform="translate(-11.476 -356.71)"/>
  </g>
</svg>
