<svg xmlns="http://www.w3.org/2000/svg" xmlns:xlink="http://www.w3.org/1999/xlink" width="278.102" height="185.589" viewBox="0 0 278.102 185.589">
  <defs>
    <clipPath id="clip-path">
      <rect id="Rect치ngulo_375365" data-name="Rect치ngulo 375365" width="278.102" height="185.588" fill="none"/>
    </clipPath>
  </defs>
  <g id="Grupo_1067897" data-name="Grupo 1067897" transform="translate(0)">
    <rect id="Rect치ngulo_375364" data-name="Rect치ngulo 375364" width="237.828" height="55.112" transform="translate(26.357 130.145)" fill="#fff"/>
    <g id="Grupo_1067896" data-name="Grupo 1067896" transform="translate(0)">
      <g id="Grupo_1067895" data-name="Grupo 1067895" clip-path="url(#clip-path)">
        <path id="Trazado_802839" data-name="Trazado 802839" d="M355.209,637.994a.223.223,0,0,1-.223-.223V582.882H117.6v54.888a.223.223,0,1,1-.446,0V582.659a.223.223,0,0,1,.223-.223H355.209a.223.223,0,0,1,.223.223v55.111a.223.223,0,0,1-.223.223" transform="translate(-91.024 -452.514)"/>
        <path id="Trazado_802840" data-name="Trazado 802840" d="M2,571.6H221.937l57.272-9.59V553.09L2,562.68Z" transform="translate(-1.552 -429.715)" fill="#fff"/>
        <path id="Trazado_802841" data-name="Trazado 802841" d="M221.16,571.049H1.221A.223.223,0,0,1,1,570.826V561.9a.223.223,0,0,1,.215-.223l277.211-9.59a.232.232,0,0,1,.162.062.224.224,0,0,1,.068.161v8.923a.223.223,0,0,1-.186.22l-57.272,9.59a.225.225,0,0,1-.037,0M1.444,570.6h219.7l57.067-9.556v-8.5L1.444,562.118Z" transform="translate(-0.775 -428.937)"/>
        <path id="Trazado_802842" data-name="Trazado 802842" d="M2,562.68H221.937l57.272-9.59H21.172Z" transform="translate(-1.552 -429.715)" fill="#fff"/>
        <path id="Trazado_802843" data-name="Trazado 802843" d="M221.16,562.126H1.221a.223.223,0,0,1-.1-.423l19.174-9.59a.225.225,0,0,1,.1-.023H278.432a.223.223,0,0,1,.037.443l-57.272,9.59a.219.219,0,0,1-.037,0M2.166,561.68H221.142l54.608-9.144H20.448Z" transform="translate(-0.776 -428.938)"/>
        <path id="Trazado_802844" data-name="Trazado 802844" d="M988.905,607.507a.223.223,0,0,1-.223-.223v-5.959a.223.223,0,1,1,.446,0v5.959a.223.223,0,0,1-.223.223" transform="translate(-768.141 -467.017)"/>
        <path id="Trazado_802845" data-name="Trazado 802845" d="M1038.905,677.015a.223.223,0,0,1-.223-.223V635.306a.223.223,0,1,1,.446,0v41.486a.223.223,0,0,1-.223.223" transform="translate(-806.988 -493.418)"/>
        <path id="Trazado_802846" data-name="Trazado 802846" d="M160.155,549.168a3.74,3.74,0,0,0-3.653,3.358,3.026,3.026,0,0,0,3.062,3.357H222.84a3.74,3.74,0,0,0,3.653-3.357,3.026,3.026,0,0,0-3.062-3.358Z" transform="translate(-121.582 -426.667)" fill="#fff"/>
        <path id="Trazado_802847" data-name="Trazado 802847" d="M222.063,555.33H158.787a3.249,3.249,0,0,1-3.284-3.6,3.972,3.972,0,0,1,3.875-3.561h3.4a.223.223,0,1,1,0,.446h-3.4a3.517,3.517,0,0,0-3.431,3.154,2.8,2.8,0,0,0,2.84,3.115h63.276a3.517,3.517,0,0,0,3.431-3.154,2.8,2.8,0,0,0-2.84-3.115h-3.7a.223.223,0,1,1,0-.446h3.7a3.249,3.249,0,0,1,3.284,3.6,3.972,3.972,0,0,1-3.875,3.561" transform="translate(-120.805 -425.891)"/>
        <path id="Trazado_802848" data-name="Trazado 802848" d="M210.792,489l-1.181,13.43h46.906L257.7,489Z" transform="translate(-162.854 -379.921)" fill="#fff"/>
        <path id="Trazado_802849" data-name="Trazado 802849" d="M255.74,501.876H208.833a.223.223,0,0,1-.222-.243l1.181-13.43a.223.223,0,0,1,.222-.2h46.906a.223.223,0,0,1,.222.243l-1.181,13.43a.223.223,0,0,1-.222.2m-46.663-.446h46.459l1.142-12.984H210.219Z" transform="translate(-162.076 -379.144)"/>
        <path id="Trazado_802850" data-name="Trazado 802850" d="M4.447,166.888H132.072a3.448,3.448,0,0,0,3.433-3.115l8.625-88.992A3.448,3.448,0,0,0,140.7,71H13.072a3.448,3.448,0,0,0-3.433,3.115L1.014,163.108a3.448,3.448,0,0,0,3.433,3.78" transform="translate(-0.775 -55.163)" fill="#fff"/>
        <path id="Trazado_802851" data-name="Trazado 802851" d="M131.3,166.334H3.672a3.672,3.672,0,0,1-3.655-4.025L8.641,73.317A3.658,3.658,0,0,1,12.3,70H139.921a3.671,3.671,0,0,1,3.655,4.025l-8.625,88.992a3.658,3.658,0,0,1-3.655,3.317M12.3,70.446A3.214,3.214,0,0,0,9.085,73.36L.461,162.352a3.226,3.226,0,0,0,3.211,3.536H131.3a3.214,3.214,0,0,0,3.211-2.914l8.625-88.992a3.225,3.225,0,0,0-3.211-3.535Z" transform="translate(0 -54.385)"/>
        <path id="Trazado_802852" data-name="Trazado 802852" d="M294.949,187.893h-.023a.223.223,0,0,1-.2-.244l7.9-77.854a.223.223,0,0,1,.444.045l-7.9,77.854a.223.223,0,0,1-.222.2" transform="translate(-228.983 -85.146)"/>
        <path id="Trazado_802853" data-name="Trazado 802853" d="M166.245,290.039H44.19a.223.223,0,1,1,0-.446H166.245a.223.223,0,0,1,0,.446" transform="translate(-34.159 -224.995)"/>
        <path id="Trazado_802854" data-name="Trazado 802854" d="M251.115,143.49H247.4l3.129-32.1h3.717Z" transform="translate(-192.212 -86.54)" fill="#e2eaff"/>
        <path id="Trazado_802855" data-name="Trazado 802855" d="M221,172.9h-3.73l2.758-28.354h3.73Z" transform="translate(-168.805 -112.303)" fill="#e2eaff"/>
        <path id="Trazado_802856" data-name="Trazado 802856" d="M192.469,161.831h-3.747l3.045-31.531h3.746Z" transform="translate(-146.625 -101.234)" fill="#e2eaff"/>
        <path id="Trazado_802857" data-name="Trazado 802857" d="M165.759,149.691h-3.731l2.865-29.487h3.731Z" transform="translate(-125.885 -93.391)" fill="#e2eaff"/>
        <path id="Trazado_802858" data-name="Trazado 802858" d="M136.878,140.164H133.13l3.189-33.059h3.748Z" transform="translate(-103.434 -83.213)" fill="#e2eaff"/>
        <path id="Trazado_802859" data-name="Trazado 802859" d="M106.928,171.857H103.19l2.779-28.653h3.738Z" transform="translate(-80.172 -111.26)" fill="#e2eaff"/>
        <path id="Trazado_802860" data-name="Trazado 802860" d="M79.921,150.341H76.166l2.9-30.137h3.755Z" transform="translate(-59.176 -93.391)" fill="#e2eaff"/>
        <path id="Trazado_802861" data-name="Trazado 802861" d="M51.381,155.22H47.617l2.761-28.737h3.764Z" transform="translate(-36.995 -98.269)" fill="#e2eaff"/>
        <path id="Trazado_802862" data-name="Trazado 802862" d="M251.82,152.969h-4.446l2.389-24.886h4.446Z" transform="translate(-192.193 -99.512)" fill="#5479f7"/>
        <path id="Trazado_802863" data-name="Trazado 802863" d="M226,173.9h-4.446l1.026-10.574h4.446Z" transform="translate(-172.133 -126.896)" fill="#5479f7"/>
        <path id="Trazado_802864" data-name="Trazado 802864" d="M222.034,225.424h-4.446l.757-7.743h4.446Z" transform="translate(-169.051 -169.124)" fill="#5479f7"/>
        <path id="Trazado_802865" data-name="Trazado 802865" d="M194.465,169.61h-4.446l2-20.815h4.446Z" transform="translate(-147.632 -115.603)" fill="#5479f7"/>
        <path id="Trazado_802866" data-name="Trazado 802866" d="M166.861,187.192h-4.446l1.244-12.861H168.1Z" transform="translate(-126.186 -135.444)" fill="#5479f7"/>
        <path id="Trazado_802867" data-name="Trazado 802867" d="M173.182,144.56h-4.446l.594-6.038h4.446Z" transform="translate(-131.097 -107.623)" fill="#5479f7"/>
        <path id="Trazado_802868" data-name="Trazado 802868" d="M277.235,153.988H273.5l3.275-33.783h3.731Z" transform="translate(-212.495 -93.391)" fill="#e2eaff"/>
        <path id="Trazado_802869" data-name="Trazado 802869" d="M280.211,187.192h-4.446l1.244-12.861h4.446Z" transform="translate(-214.251 -135.444)" fill="#5479f7"/>
        <path id="Trazado_802870" data-name="Trazado 802870" d="M286.532,144.56h-4.446l.594-6.038h4.446Z" transform="translate(-219.162 -107.623)" fill="#5479f7"/>
        <path id="Trazado_802871" data-name="Trazado 802871" d="M139.436,149.119H134.99l1.953-20.308h4.446Z" transform="translate(-104.878 -100.078)" fill="#5479f7"/>
        <path id="Trazado_802872" data-name="Trazado 802872" d="M110.307,173.332h-4.446l1.505-15.6h4.446Z" transform="translate(-82.247 -122.546)" fill="#5479f7"/>
        <path id="Trazado_802873" data-name="Trazado 802873" d="M108.317,236.488h-4.446l.35-3.47h4.446Z" transform="translate(-80.701 -181.039)" fill="#5479f7"/>
        <path id="Trazado_802874" data-name="Trazado 802874" d="M80.85,188.5H76.4l1.342-13.891h4.446Z" transform="translate(-59.361 -135.658)" fill="#5479f7"/>
        <path id="Trazado_802875" data-name="Trazado 802875" d="M87.475,138.551H83.029l.805-8.251h4.446Z" transform="translate(-64.508 -101.234)" fill="#5479f7"/>
        <path id="Trazado_802876" data-name="Trazado 802876" d="M53.178,163.729H48.732L50.5,145.37h4.446Z" transform="translate(-37.861 -112.943)" fill="#5479f7"/>
        <path id="Trazado_802877" data-name="Trazado 802877" d="M54.528,327.105H42.578a.223.223,0,0,1-.222-.243L43.431,314.9a.223.223,0,0,1,.222-.2H54.92a.223.223,0,0,1,0,.446H43.857l-1.035,11.512h11.5l.768-8.542a.223.223,0,1,1,.444.04l-.787,8.746a.223.223,0,0,1-.222.2" transform="translate(-32.907 -244.502)"/>
        <path id="Trazado_802878" data-name="Trazado 802878" d="M55.94,319.924h-.014a.223.223,0,0,1-.176-.1l-4.092-6.559a.223.223,0,0,1,.379-.236l3.926,6.293,8.987-11.134a.223.223,0,1,1,.347.28l-9.184,11.378a.223.223,0,0,1-.174.083" transform="translate(-40.109 -239.373)"/>
        <path id="Trazado_802879" data-name="Trazado 802879" d="M217.088,322.849h-8.46a.223.223,0,0,1,0-.446h8.46a.223.223,0,1,1,0,.446" transform="translate(-161.917 -250.486)" fill="#e2eaff"/>
        <path id="Trazado_802880" data-name="Trazado 802880" d="M172.967,322.849h-8.141a.223.223,0,0,1,0-.446h8.141a.223.223,0,1,1,0,.446" transform="translate(-127.886 -250.486)" fill="#e2eaff"/>
        <path id="Trazado_802881" data-name="Trazado 802881" d="M137.672,322.849h-5.7a.223.223,0,1,1,0-.446h5.7a.223.223,0,0,1,0,.446" transform="translate(-102.362 -250.486)" fill="#e2eaff"/>
        <path id="Trazado_802882" data-name="Trazado 802882" d="M226.378,341.269h-3.219a.223.223,0,0,1,0-.446h3.219a.223.223,0,1,1,0,.446" transform="translate(-173.207 -264.797)" fill="#e2eaff"/>
        <path id="Trazado_802883" data-name="Trazado 802883" d="M167.277,341.269H153.33a.223.223,0,1,1,0-.446h13.947a.223.223,0,1,1,0,.446" transform="translate(-118.954 -264.797)" fill="#e2eaff"/>
        <path id="Trazado_802884" data-name="Trazado 802884" d="M128.142,341.269h-5.133a.223.223,0,1,1,0-.446h5.133a.223.223,0,0,1,0,.446" transform="translate(-95.397 -264.797)" fill="#e2eaff"/>
        <path id="Trazado_802885" data-name="Trazado 802885" d="M196.019,359.688H182.462a.223.223,0,0,1,0-.446h13.557a.223.223,0,0,1,0,.446" transform="translate(-141.588 -279.107)" fill="#e2eaff"/>
        <path id="Trazado_802886" data-name="Trazado 802886" d="M133.354,359.688h-12a.223.223,0,0,1,0-.446h12a.223.223,0,0,1,0,.446" transform="translate(-94.11 -279.107)" fill="#e2eaff"/>
        <path id="Trazado_802887" data-name="Trazado 802887" d="M46.243,419.205H34.293a.223.223,0,0,1-.222-.243L35.147,407a.223.223,0,0,1,.222-.2H46.635a.223.223,0,0,1,0,.446H35.573l-1.036,11.512h11.5l.768-8.543a.223.223,0,1,1,.444.04L46.466,419a.223.223,0,0,1-.222.2" transform="translate(-26.47 -316.058)"/>
        <path id="Trazado_802888" data-name="Trazado 802888" d="M47.655,412.023h-.014a.223.223,0,0,1-.176-.1l-4.092-6.559a.223.223,0,1,1,.379-.236l3.926,6.293,8.987-11.134a.223.223,0,0,1,.347.28L47.829,411.94a.223.223,0,0,1-.174.083" transform="translate(-33.673 -310.928)"/>
        <path id="Trazado_802889" data-name="Trazado 802889" d="M191.048,414.948H177.49a.223.223,0,0,1,0-.446h13.557a.223.223,0,1,1,0,.446" transform="translate(-137.725 -322.041)" fill="#e2eaff"/>
        <path id="Trazado_802890" data-name="Trazado 802890" d="M128.382,414.948h-12a.223.223,0,0,1,0-.446h12a.223.223,0,1,1,0,.446" transform="translate(-90.247 -322.041)" fill="#e2eaff"/>
        <path id="Trazado_802891" data-name="Trazado 802891" d="M198.762,433.368H187.9a.223.223,0,0,1,0-.446h10.867a.223.223,0,0,1,0,.446" transform="translate(-145.809 -336.352)" fill="#e2eaff"/>
        <path id="Trazado_802892" data-name="Trazado 802892" d="M155.192,433.368H147.9a.223.223,0,0,1,0-.446h7.292a.223.223,0,0,1,0,.446" transform="translate(-114.735 -336.352)" fill="#e2eaff"/>
        <path id="Trazado_802893" data-name="Trazado 802893" d="M120.5,433.368h-5.77a.223.223,0,0,1,0-.446h5.77a.223.223,0,0,1,0,.446" transform="translate(-88.961 -336.352)" fill="#e2eaff"/>
        <path id="Trazado_802894" data-name="Trazado 802894" d="M169.076,451.788H162.75a.223.223,0,1,1,0-.446h6.326a.223.223,0,1,1,0,.446" transform="translate(-126.273 -350.663)" fill="#e2eaff"/>
        <path id="Trazado_802895" data-name="Trazado 802895" d="M122.52,451.788h-9.452a.223.223,0,1,1,0-.446h9.452a.223.223,0,1,1,0,.446" transform="translate(-87.673 -350.663)" fill="#e2eaff"/>
        <path id="Trazado_802896" data-name="Trazado 802896" d="M398.262,157.771H338.232l2.31-25.675h60.029Z" transform="translate(-262.784 -102.63)" fill="#e2eaff"/>
        <path id="Trazado_802897" data-name="Trazado 802897" d="M374.127,146.021a11.027,11.027,0,0,0-10.76,9.877,8.878,8.878,0,0,0,8.982,9.878,11.026,11.026,0,0,0,10.76-9.878,8.878,8.878,0,0,0-8.982-9.877m-1.481,16.46a5.917,5.917,0,0,1-5.986-6.583,7.349,7.349,0,0,1,7.171-6.583,5.917,5.917,0,0,1,5.986,6.583,7.349,7.349,0,0,1-7.171,6.583" transform="translate(-282.281 -113.449)" fill="#fff"/>
        <path id="Trazado_802898" data-name="Trazado 802898" d="M366.658,191.285h-3.292a8.865,8.865,0,0,0,8.887,9.655l.3-3.295a5.9,5.9,0,0,1-5.891-6.361" transform="translate(-282.293 -148.616)" fill="#5479f7"/>
        <path id="Trazado_802899" data-name="Trazado 802899" d="M735.8,544.484a3.74,3.74,0,0,0-3.653,3.357,3.026,3.026,0,0,0,3.062,3.357h63.276a3.74,3.74,0,0,0,3.653-3.357,3.026,3.026,0,0,0-3.062-3.357Z" transform="translate(-568.82 -423.028)" fill="#fff"/>
        <path id="Trazado_802900" data-name="Trazado 802900" d="M797.708,550.645H734.432a3.249,3.249,0,0,1-3.285-3.6,3.972,3.972,0,0,1,3.875-3.561h3.4a.223.223,0,0,1,0,.446h-3.4a3.517,3.517,0,0,0-3.43,3.154,2.8,2.8,0,0,0,2.84,3.115h63.276a3.517,3.517,0,0,0,3.431-3.154,2.8,2.8,0,0,0-2.84-3.115h-3.7a.223.223,0,0,1,0-.446h3.7a3.249,3.249,0,0,1,3.284,3.6,3.972,3.972,0,0,1-3.875,3.561" transform="translate(-568.043 -422.251)"/>
        <path id="Trazado_802901" data-name="Trazado 802901" d="M786.437,484.316l-1.181,13.43h46.906l1.181-13.43Z" transform="translate(-610.093 -376.282)" fill="#fff"/>
        <path id="Trazado_802902" data-name="Trazado 802902" d="M831.386,497.192H784.479a.223.223,0,0,1-.222-.243l1.181-13.429a.223.223,0,0,1,.222-.2h46.907a.223.223,0,0,1,.222.243l-1.181,13.43a.223.223,0,0,1-.222.2m-46.663-.446h46.459l1.142-12.984H785.865Z" transform="translate(-609.316 -375.505)"/>
        <path id="Trazado_802903" data-name="Trazado 802903" d="M607.447,166.888H735.072a3.448,3.448,0,0,0,3.433-3.115l8.625-88.992A3.448,3.448,0,0,0,743.7,71H616.072a3.449,3.449,0,0,0-3.433,3.115l-8.625,88.992a3.448,3.448,0,0,0,3.433,3.78" transform="translate(-469.266 -55.163)" fill="#fff"/>
        <path id="Trazado_802904" data-name="Trazado 802904" d="M734.3,166.334H606.672a3.672,3.672,0,0,1-3.655-4.025l8.625-88.992A3.658,3.658,0,0,1,615.3,70H742.921a3.671,3.671,0,0,1,3.655,4.025l-8.625,88.992a3.658,3.658,0,0,1-3.655,3.317m-119-95.887a3.213,3.213,0,0,0-3.211,2.914l-8.625,88.992a3.225,3.225,0,0,0,3.211,3.536H734.3a3.214,3.214,0,0,0,3.211-2.914l8.625-88.992a3.225,3.225,0,0,0-3.211-3.535Z" transform="translate(-468.491 -54.385)"/>
        <path id="Trazado_802905" data-name="Trazado 802905" d="M897.949,241.882h-.023a.223.223,0,0,1-.2-.244l6.326-62.353a.223.223,0,1,1,.444.045l-6.326,62.353a.223.223,0,0,1-.222.2" transform="translate(-697.474 -139.136)"/>
        <path id="Trazado_802906" data-name="Trazado 802906" d="M769.245,290.039H647.19a.223.223,0,0,1,0-.446H769.245a.223.223,0,0,1,0,.446" transform="translate(-502.651 -224.995)"/>
        <path id="Trazado_802907" data-name="Trazado 802907" d="M1003.021,147.939H939.926a.223.223,0,0,1,0-.446h63.095a.223.223,0,0,1,0,.446" transform="translate(-730.088 -114.592)" fill="#e2eaff"/>
        <path id="Trazado_802908" data-name="Trazado 802908" d="M996.478,208.624H933.383a.223.223,0,1,1,0-.446h63.095a.223.223,0,0,1,0,.446" transform="translate(-725.004 -161.741)" fill="#e2eaff"/>
        <path id="Trazado_802909" data-name="Trazado 802909" d="M989.934,269.309H926.839a.223.223,0,1,1,0-.446h63.095a.223.223,0,0,1,0,.446" transform="translate(-719.92 -208.889)" fill="#e2eaff"/>
        <path id="Trazado_802910" data-name="Trazado 802910" d="M935.2,214.138h-.021a.223.223,0,0,1-.2-.243l1.447-15.242a.223.223,0,1,1,.444.042l-1.447,15.242a.223.223,0,0,1-.222.2" transform="translate(-726.414 -154.182)"/>
        <path id="Trazado_802911" data-name="Trazado 802911" d="M948.738,240.224h-.021a.223.223,0,0,1-.2-.243l.736-7.752a.223.223,0,1,1,.444.042l-.736,7.752a.223.223,0,0,1-.222.2" transform="translate(-736.933 -180.269)"/>
        <path id="Trazado_802912" data-name="Trazado 802912" d="M962.278,215.145h-.021a.223.223,0,0,1-.2-.243l1.42-14.953a.223.223,0,1,1,.444.042l-1.42,14.953a.223.223,0,0,1-.222.2" transform="translate(-747.453 -155.19)"/>
        <path id="Trazado_802913" data-name="Trazado 802913" d="M975.818,202.007H975.8a.223.223,0,0,1-.2-.243l1.778-18.725a.223.223,0,1,1,.444.042l-1.778,18.725a.223.223,0,0,1-.222.2" transform="translate(-757.973 -142.052)"/>
        <path id="Trazado_802914" data-name="Trazado 802914" d="M989.359,166.6h-.021a.223.223,0,0,1-.2-.243l2.743-28.891a.223.223,0,1,1,.444.042L989.58,166.4a.223.223,0,0,1-.222.2" transform="translate(-768.493 -106.645)"/>
        <path id="Trazado_802915" data-name="Trazado 802915" d="M1002.9,173.122h-.021a.223.223,0,0,1-.2-.243l2.566-27.018a.223.223,0,1,1,.444.042l-2.566,27.018a.223.223,0,0,1-.222.2" transform="translate(-779.013 -113.166)"/>
        <path id="Trazado_802916" data-name="Trazado 802916" d="M1016.438,179.163h-.021a.223.223,0,0,1-.2-.243l2.4-25.284a.223.223,0,1,1,.444.042l-2.4,25.284a.223.223,0,0,1-.222.2" transform="translate(-789.532 -119.207)"/>
        <path id="Trazado_802917" data-name="Trazado 802917" d="M1029.979,193.941h-.021a.223.223,0,0,1-.2-.243l2-21.04a.223.223,0,1,1,.444.042l-2,21.04a.223.223,0,0,1-.222.2" transform="translate(-800.052 -133.986)"/>
        <path id="Trazado_802918" data-name="Trazado 802918" d="M1043.519,255.656h-.021a.223.223,0,0,1-.2-.243l.315-3.322a.223.223,0,1,1,.444.042l-.315,3.322a.223.223,0,0,1-.222.2" transform="translate(-810.572 -195.7)"/>
        <path id="Trazado_802919" data-name="Trazado 802919" d="M1057.06,208.433h-.021a.223.223,0,0,1-.2-.243l1.6-16.88a.223.223,0,1,1,.444.042l-1.6,16.88a.223.223,0,0,1-.222.2" transform="translate(-821.092 -148.478)"/>
        <path id="Trazado_802920" data-name="Trazado 802920" d="M1070.6,199.764h-.021a.223.223,0,0,1-.2-.243l1.839-19.369a.223.223,0,1,1,.444.042l-1.839,19.369a.223.223,0,0,1-.222.2" transform="translate(-831.612 -139.808)"/>
        <path id="Trazado_802921" data-name="Trazado 802921" d="M1084.14,189.512h-.021a.223.223,0,0,1-.2-.243l2.119-22.312a.223.223,0,1,1,.444.042l-2.119,22.312a.223.223,0,0,1-.222.2" transform="translate(-842.132 -129.557)"/>
        <path id="Trazado_802922" data-name="Trazado 802922" d="M1097.68,166.6h-.021a.223.223,0,0,1-.2-.243l2.744-28.891a.223.223,0,1,1,.444.042L1097.9,166.4a.223.223,0,0,1-.222.2" transform="translate(-852.651 -106.645)"/>
        <path id="Trazado_802923" data-name="Trazado 802923" d="M1111.221,194.872h-.021a.223.223,0,0,1-.2-.243l1.973-20.773a.223.223,0,1,1,.444.042l-1.973,20.773a.223.223,0,0,1-.222.2" transform="translate(-863.172 -134.917)"/>
        <path id="Trazado_802924" data-name="Trazado 802924" d="M1124.76,226.693h-.021a.223.223,0,0,1-.2-.243l1.1-11.637a.223.223,0,1,1,.444.042l-1.1,11.637a.223.223,0,0,1-.222.2" transform="translate(-873.692 -166.738)"/>
        <path id="Trazado_802925" data-name="Trazado 802925" d="M1138.3,240.561h-.021a.223.223,0,0,1-.2-.243l.727-7.656a.223.223,0,1,1,.444.042l-.727,7.656a.223.223,0,0,1-.222.2" transform="translate(-884.211 -180.606)"/>
        <path id="Trazado_802926" data-name="Trazado 802926" d="M1151.841,187.843h-.021a.223.223,0,0,1-.2-.243l2.164-22.792a.223.223,0,1,1,.444.042l-2.164,22.792a.223.223,0,0,1-.222.2" transform="translate(-894.731 -127.888)"/>
        <path id="Trazado_802927" data-name="Trazado 802927" d="M1165.381,229.629h-.021a.223.223,0,0,1-.2-.243l1.025-10.794a.223.223,0,1,1,.444.042l-1.025,10.794a.223.223,0,0,1-.222.2" transform="translate(-905.251 -169.674)"/>
        <path id="Trazado_802928" data-name="Trazado 802928" d="M1178.922,255.993h-.021a.223.223,0,0,1-.2-.243l.306-3.225a.223.223,0,1,1,.444.042l-.306,3.225a.223.223,0,0,1-.222.2" transform="translate(-915.771 -196.037)"/>
        <path id="Trazado_802929" data-name="Trazado 802929" d="M1192.462,247.323h-.022a.223.223,0,0,1-.2-.243l.542-5.714a.223.223,0,1,1,.444.042l-.543,5.714a.223.223,0,0,1-.222.2" transform="translate(-926.291 -187.368)"/>
        <path id="Trazado_802930" data-name="Trazado 802930" d="M965.1,350.2H908.3a.224.224,0,0,1-.222-.248l3.982-35.365a.223.223,0,0,1,.443.05l-3.954,35.117H965.1a.223.223,0,0,1,0,.446" transform="translate(-705.515 -244.26)"/>
        <path id="Trazado_802931" data-name="Trazado 802931" d="M925.721,382H920.7l2.676-23.764H928.4Z" transform="translate(-715.32 -278.325)" fill="#e2eaff"/>
        <path id="Trazado_802932" data-name="Trazado 802932" d="M961.182,420.3h-5.025l1.438-12.768h5.026Z" transform="translate(-742.871 -316.624)" fill="#e2eaff"/>
        <path id="Trazado_802933" data-name="Trazado 802933" d="M996.644,402.992h-5.026l2-17.737h5.025Z" transform="translate(-770.423 -299.317)" fill="#5479f7"/>
        <path id="Trazado_802934" data-name="Trazado 802934" d="M1032.106,375.921h-5.025l2.872-25.509h5.025Z" transform="translate(-797.974 -272.247)" fill="#e2eaff"/>
        <path id="Trazado_802935" data-name="Trazado 802935" d="M1067.882,357.334h-4.772l3.473-30.846h4.772Z" transform="translate(-825.967 -253.659)" fill="#e2eaff"/>
        <path id="Trazado_802936" data-name="Trazado 802936" d="M1103.03,351.63H1098l3.657-32.484h5.025Z" transform="translate(-853.077 -247.956)" fill="#5479f7"/>
        <path id="Trazado_802937" data-name="Trazado 802937" d="M1138.492,365.724h-5.026l3.2-28.437h5.025Z" transform="translate(-880.629 -262.049)" fill="#e2eaff"/>
        <path id="Trazado_802938" data-name="Trazado 802938" d="M680.866,180.3a.971.971,0,0,0-.566.528,8.626,8.626,0,0,1-2.216,3.035c-2.263,1.454-2.259,4.147-1.318,4.806s1.387.743,1.01,1.8a55.951,55.951,0,0,0-2.152,6.193,10.27,10.27,0,0,0,.084,3.307c.217.437,1.032.762,1.125-.785s.055-2.284,1.074-3.035a18.15,18.15,0,0,0,3.373-3.27,2.191,2.191,0,0,1,1.386-1.166,4.592,4.592,0,0,0,1.574-.458c.333-.236.228-1.027.388-1.7s.334-1.06,1.652-1.456a1.289,1.289,0,0,0,.151-2.5c-1.3-.564-1.848-1.5-1.306-2.3s-.671-.857-1.191-1.33-.227-1.086-.87-1.47a2.548,2.548,0,0,0-2.2-.2" transform="translate(-524.849 -139.955)" fill="#e2eaff"/>
        <path id="Trazado_802939" data-name="Trazado 802939" d="M691.543,99.829a4.063,4.063,0,0,0,.884-2c-.047-.372-.4-1.008-1.917-.269s-1.8.706-1.831.015a2.943,2.943,0,0,1,2.82-2.144c1.411.165,1.926-.325,2.141-.712a.734.734,0,0,0-.481-1.018c-.445-.144-.662.152-3.065.787a5.536,5.536,0,0,1-2.833.072.624.624,0,0,1-.473-.614c-.022-.565-.176-1.243-1.345-.8-1.537.58-2.581,1.633-2.965,1.346s-.185-1.023-.238-1.409a2.658,2.658,0,0,0-3.1-1.294c-1.69.563-4.57,1.573-4.482,2.24s1.047.813,2.683.658.715.981.723,1.4.375.6.026,1.453a2.572,2.572,0,0,1-1.306,1.644,2.853,2.853,0,0,0-1.518,1.687c-1.62,4.741.257,7.558.916,7.946s.872.412,1.049.951a.1.1,0,0,0,.019.032,5.508,5.508,0,0,0,.627,2.1c.492.515,1.058-.508,1.426-1.335a7.636,7.636,0,0,0,.538-2.859,3.246,3.246,0,0,1,.588-1.992c.3-.378.837-.452.986-.022a1.072,1.072,0,0,0,1.251.666c.592-.248.937-1.447,1.273-1.82s1.339-.531,2.069-1.316,2.037-.4,2.922-.532a4.085,4.085,0,0,0,2.152-.891c.689-.83-.045-1.29.467-1.963" transform="translate(-524.135 -71.212)" fill="#e2eaff"/>
        <path id="Trazado_802940" data-name="Trazado 802940" d="M764.979,101.54a1.288,1.288,0,0,0-.95,1.129.76.76,0,0,0,.083.4c.192.28,1.342.565,1.332,1.1s-1.795,3.01-1.162,3.57c.4.357,4.3-.645,6.364-1.909s3.109-2.11,2.313-2.267-2.852-.069-4-.354-2.716-1.56-3.315-1.7a1.421,1.421,0,0,0-.663.038" transform="translate(-593.6 -78.842)" fill="#e2eaff"/>
        <path id="Trazado_802941" data-name="Trazado 802941" d="M751.281,143.983s-2.732.45-3.41-.321.659-1.832-.815-1.98-4.249-.434-6.276,2.257-2.5,3.933-1.607,5.183,3.636.067,3.766.875-.285,1.3-.674,2.565c-1.158,3.751-1.715,7.612-.83,8.228.528.368,2.421-.134,3.667-1.4s2.271-1.994,2.884-3.177c.478-.924-.12-1.808,1.3-2.8s2.948-1.239,3.253-1.956-.075-.938-.57-1.166a2.342,2.342,0,0,1-.828-2.648c.53-.972,1.041-1.444,1.184-1.118s-.344,1.255-.29,1.683-.061,1.7.918,1.271a10.117,10.117,0,0,1,1.844-.8c.5-.079,1.327-1.466,1.135-1.9s-.647-.248-.745-.572-.2-1.073.444-.825-.008.8,1.19,1.074a2.419,2.419,0,0,1,1.949,2.39c-.073,1.058-.389,2.58.095,2.659s1.225-2,2.338-2.632,1.97-1.431,2.279-.83a16.32,16.32,0,0,0,1.012,2.6c.421.448,1.534,1.04,1.722.042s-.431-2.2.389-2.58,2.031.643,2.817-.323a3.3,3.3,0,0,0,.565-2.995c-.266-.7.382-1.677.8-1.23s.674,1.736,1.11,1.707-.04-.9.882-1.969,1.623-1.609,1.285-2.477-1.314-1.559-.63-1.839,1.263.016,1.906.052,1.151-1.051,1.341-.722-.738,2.295-.021,2.6.592-1.507,1.521-2.146,2.1-1.636,1.753-2.027-2.273-.072-2.581-.567-1.026-.906-2.768-.789-4.512.442-5.4-.244-.135-1.122-1.338-1.613a10.722,10.722,0,0,0-5.052-.172,9.867,9.867,0,0,1-4.269,1.2c-3.114.359-2.414-1.513-3.5-1.732s-1.818-.259-3.726.8-2.931,1.59-2.354,1.781a2.02,2.02,0,0,0,1.724.148c1.143-.256,1.523-.818,1.846-.695s.493.611-.758,1.232-1.149-.063-1.834.111-.652.76-1.311,1.1-.4-.393-1.394.295a11.63,11.63,0,0,0-1.691,1.659c-.43.348-.607-.564-1.26.09s-.774,1.6-.087,1.535,1.746-1.125,2.709-1.178,1.984-.687,1.7.093-.658,1.663-.246,1.579.868-1.492,1.167-1.422.227,1.127.739,1.474,1.358.234,1.8.63,1.2.772-.784,1.929" transform="translate(-573.955 -103.097)" fill="#e2eaff"/>
        <path id="Trazado_802942" data-name="Trazado 802942" d="M672,338.022c2.726-8.519,11.7-13.893,20.042-12s12.9,10.328,10.171,18.847-11.7,13.893-20.042,12-12.9-10.328-10.171-18.847" transform="translate(-521.489 -253.002)" fill="#fff"/>
        <path id="Trazado_802943" data-name="Trazado 802943" d="M684.762,356.7a15.544,15.544,0,0,1-3.437-.382,14.032,14.032,0,0,1-9.216-6.748,15.287,15.287,0,0,1-1.118-12.385c2.755-8.613,11.863-14.065,20.3-12.153a14.032,14.032,0,0,1,9.216,6.748,15.287,15.287,0,0,1,1.118,12.385A18.139,18.139,0,0,1,684.762,356.7m3.089-31.6a17.681,17.681,0,0,0-16.436,12.225,14.846,14.846,0,0,0,1.081,12.027,13.589,13.589,0,0,0,8.927,6.534,15.121,15.121,0,0,0,3.345.372A17.681,17.681,0,0,0,701.2,344.027,14.845,14.845,0,0,0,700.122,332a13.589,13.589,0,0,0-8.927-6.534,15.121,15.121,0,0,0-3.345-.372M671.2,337.251h0Z" transform="translate(-520.688 -252.23)"/>
        <path id="Trazado_802944" data-name="Trazado 802944" d="M660.314,397.064a16.156,16.156,0,0,0,12.508,17.489l5.707-17.837s-15.189.322-18.215.348" transform="translate(-512.971 -308.222)" fill="#e2eaff"/>
        <path id="Trazado_802945" data-name="Trazado 802945" d="M748.553,412.488a19.564,19.564,0,0,0,9.855-9.567c-3.781-1.435-15.43-5.837-15.43-5.837s4.677,12.83,5.575,15.4" transform="translate(-577.245 -308.508)" fill="#fff"/>
        <path id="Trazado_802946" data-name="Trazado 802946" d="M747.776,411.934a.223.223,0,0,1-.211-.15c-.888-2.543-5.527-15.273-5.574-15.4a.223.223,0,0,1,.289-.285s11.65,4.4,15.43,5.838a.223.223,0,0,1,.123.3,19.894,19.894,0,0,1-9.968,9.677.224.224,0,0,1-.089.018m-5.2-15.247c.817,2.242,4.392,12.06,5.33,14.722a19.461,19.461,0,0,0,9.419-9.143c-3.516-1.335-12.61-4.771-14.748-5.579" transform="translate(-576.468 -307.731)"/>
        <path id="Trazado_802947" data-name="Trazado 802947" d="M877.752,451.625a1.664,1.664,0,0,1,1.619-1.476,1.313,1.313,0,0,1,1.332,1.472,1.664,1.664,0,0,1-1.619,1.476,1.313,1.313,0,0,1-1.333-1.472" transform="translate(-681.95 -349.736)" fill="#5479f7"/>
        <path id="Trazado_802948" data-name="Trazado 802948" d="M858.447,451.65a1.664,1.664,0,0,1,1.619-1.476,1.313,1.313,0,0,1,1.333,1.472,1.664,1.664,0,0,1-1.619,1.476,1.313,1.313,0,0,1-1.333-1.472" transform="translate(-666.951 -349.756)" fill="#5479f7"/>
        <path id="Trazado_802949" data-name="Trazado 802949" d="M839.142,451.674a1.664,1.664,0,0,1,1.619-1.476,1.313,1.313,0,0,1,1.332,1.472,1.664,1.664,0,0,1-1.619,1.476,1.313,1.313,0,0,1-1.333-1.472" transform="translate(-651.952 -349.775)" fill="#5479f7"/>
        <path id="Trazado_802950" data-name="Trazado 802950" d="M788.518,446.586a.221.221,0,0,1-.087-.018l-6.562-2.787a.223.223,0,0,1,.174-.411l6.52,2.77,4.868-.006a.223.223,0,1,1,0,.446Z" transform="translate(-607.355 -344.456)"/>
        <path id="Trazado_802951" data-name="Trazado 802951" d="M303.916,674.429l13.395-44.817h50.58l3.915,44.92Z" transform="translate(-236.123 -489.167)" fill="#fff"/>
        <path id="Trazado_802952" data-name="Trazado 802952" d="M371.029,673.979a.223.223,0,0,1-.222-.2l-3.9-44.717H316.7l-13.347,44.657a.223.223,0,0,1-.427-.128l13.395-44.817a.223.223,0,0,1,.214-.159h50.58a.223.223,0,0,1,.222.2l3.915,44.921a.223.223,0,0,1-.2.242h-.02" transform="translate(-235.346 -488.39)"/>
        <path id="Trazado_802953" data-name="Trazado 802953" d="M451.048,786.706a.223.223,0,0,1-.222-.21l-.4-6.911a8.318,8.318,0,0,1,1.842-5.44.223.223,0,1,1,.347.28,7.873,7.873,0,0,0-1.743,5.142l.4,6.9a.223.223,0,0,1-.21.235h-.013" transform="translate(-349.952 -601.396)"/>
        <path id="Trazado_802954" data-name="Trazado 802954" d="M493.2,182.069l2.156-11.424s.014-5.08-1.643-8.311-5.082-12.517,11.534-13.285l-.414-1.066s8.891-3.7,10.9,3.343a8.038,8.038,0,0,1-3.411,9.35s1.367,6.529,1.973,11.313a4.611,4.611,0,0,1-3.414,5.047,11.134,11.134,0,0,1-5.245.3l-.387,4.014Z" transform="translate(-382.446 -114.217)" fill="#fff"/>
        <path id="Trazado_802955" data-name="Trazado 802955" d="M492.434,181.5a.223.223,0,0,1-.219-.264l2.152-11.4c0-.35-.058-5.145-1.619-8.188-1-1.948-2.411-5.675-.632-8.745,1.67-2.88,5.721-4.511,12.044-4.849l-.3-.778a.223.223,0,0,1,.122-.287c.194-.081,4.8-1.963,8.184-.33a5.736,5.736,0,0,1,3.014,3.818,8.3,8.3,0,0,1-3.375,9.519c.209,1.014,1.4,6.844,1.944,11.177a4.842,4.842,0,0,1-3.579,5.291,11.5,11.5,0,0,1-5.1.358l-.362,3.761a.223.223,0,0,1-.209.2l-12.046.72h-.013m11.921-34.181.333.858a.224.224,0,0,1-.2.3c-6.339.293-10.373,1.855-11.988,4.642-1.673,2.887-.316,6.451.643,8.318,1.663,3.242,1.669,8.2,1.668,8.413a.226.226,0,0,1,0,.041l-2.1,11.143,11.57-.692.368-3.824a.223.223,0,0,1,.277-.195,10.634,10.634,0,0,0,5.135-.3,4.4,4.4,0,0,0,3.248-4.8c-.6-4.72-1.956-11.23-1.97-11.295a.223.223,0,0,1,.109-.24,7.748,7.748,0,0,0,3.305-9.095,5.308,5.308,0,0,0-2.778-3.538c-2.821-1.361-6.693-.079-7.616.262" transform="translate(-381.681 -113.424)"/>
        <path id="Trazado_802956" data-name="Trazado 802956" d="M513.77,248.212a.221.221,0,0,1-.066-.01,19.786,19.786,0,0,0-8.682-.65.223.223,0,1,1-.066-.441,20.244,20.244,0,0,1,8.609.584,24.2,24.2,0,0,0-.1-3.981.223.223,0,0,1,.444-.048,24.653,24.653,0,0,1,.079,4.338.223.223,0,0,1-.222.207" transform="translate(-392.17 -189.158)"/>
        <path id="Trazado_802957" data-name="Trazado 802957" d="M547.619,229.327a.223.223,0,0,1-.209-.146,2.14,2.14,0,0,0-1.74-1.356.223.223,0,1,1,.048-.443,2.594,2.594,0,0,1,2.11,1.644.223.223,0,0,1-.131.287.228.228,0,0,1-.078.014" transform="translate(-423.795 -176.66)"/>
        <path id="Trazado_802958" data-name="Trazado 802958" d="M538.387,229.079h-.016a.223.223,0,0,1-.206-.239l.55-7.584a.222.222,0,0,1,.079-.155c.08-.068,1.95-1.724.711-5.641a2.2,2.2,0,0,0-1.923-1.674,2.459,2.459,0,0,0-2.449,1.436,3.443,3.443,0,0,0,.159,3,5.489,5.489,0,0,0,2.268,2.176.223.223,0,1,1-.215.391,5.93,5.93,0,0,1-2.448-2.36,3.841,3.841,0,0,1-.167-3.4,2.911,2.911,0,0,1,2.912-1.687,2.638,2.638,0,0,1,2.289,1.981c1.21,3.826-.4,5.682-.777,6.05l-.544,7.5a.223.223,0,0,1-.222.207" transform="translate(-415.201 -165.738)"/>
        <path id="Trazado_802959" data-name="Trazado 802959" d="M562.266,200.07a2.825,2.825,0,0,1-1.578-.413,2.638,2.638,0,0,1-1.093-2.017,9.838,9.838,0,0,0-.637-2.644c-1.2-2.961-1.536-4.853-1-5.624,1.041-1.51,4.284-.173,4.422-.115a.223.223,0,0,1,.13.152l.886,3.569a.223.223,0,0,1-.433.108l-.858-3.459c-.918-.362-3.111-.97-3.779,0-.423.613-.04,2.51,1.05,5.2a10.275,10.275,0,0,1,.667,2.762,2.182,2.182,0,0,0,.893,1.693,3.841,3.841,0,0,0,3.191.011.223.223,0,1,1,.133.426,6.8,6.8,0,0,1-1.99.349" transform="translate(-433.305 -146.573)"/>
        <path id="Trazado_802960" data-name="Trazado 802960" d="M473.614,296.86s-.491-5.057,5.454-5.169c7.165-.135,16.083-3.047,15.7,3.451Z" transform="translate(-367.959 -226.03)" fill="#fff"/>
        <path id="Trazado_802961" data-name="Trazado 802961" d="M472.834,296.31a.223.223,0,0,1-.222-.2,5.239,5.239,0,0,1,1.208-3.7,5.852,5.852,0,0,1,4.464-1.717c1.675-.032,3.458-.217,5.182-.4,4.083-.424,7.939-.825,9.729.886a3.85,3.85,0,0,1,1.019,3.2.223.223,0,0,1-.2.209l-21.158,1.718h-.018m15.744-5.935c-1.529,0-3.275.182-5.066.368-1.733.18-3.526.367-5.22.4a5.433,5.433,0,0,0-4.139,1.568,4.786,4.786,0,0,0-1.106,3.137l20.73-1.683a3.328,3.328,0,0,0-.89-2.655c-.9-.862-2.444-1.133-4.309-1.133" transform="translate(-367.18 -225.257)"/>
        <path id="Trazado_802962" data-name="Trazado 802962" d="M680.807,194.434c-1.775-4.429-4.491-11.828-5.39-17.667-1.377-8.938,2.315-13.412,3.932-13.031s.963,2.3.544,3.961a23.594,23.594,0,0,0-.561,3.068s1.952-2.874,4.081-.221c0,0,2.3-3.093,3.978-.241,0,0,2.579-2.588,4.269.731s-1.288,3.68-1.288,3.68.726,5.668.018,8.531a68.664,68.664,0,0,1,8.126,7.6c-2.579,2.981-8.525,6.942-17.709,3.593" transform="translate(-524.52 -127.194)" fill="#fff"/>
        <path id="Trazado_802963" data-name="Trazado 802963" d="M679.647,192.931a.224.224,0,0,1-.208-.142c-1.834-4.67-4.2-11.369-5.027-16.766-1.024-6.648.7-10.941,2.5-12.6a1.994,1.994,0,0,1,1.707-.684,1.466,1.466,0,0,1,.971.657c.468.777.15,1.993-.157,3.169-.035.137-.071.272-.1.406-.229.906-.375,1.743-.46,2.308a2.82,2.82,0,0,1,1.776-.862,2.542,2.542,0,0,1,1.986,1,3.364,3.364,0,0,1,2.394-1.321,2.133,2.133,0,0,1,1.635,1.086,3.184,3.184,0,0,1,2.373-.816,2.92,2.92,0,0,1,2.046,1.788,3.094,3.094,0,0,1,.316,2.864,2.367,2.367,0,0,1-1.556,1.1c.123,1.045.612,5.642.021,8.263a70.089,70.089,0,0,1,8.042,7.535.223.223,0,0,1-.331.3,69.022,69.022,0,0,0-8.1-7.569.224.224,0,0,1-.081-.231c.69-2.791-.015-8.393-.022-8.449a.223.223,0,0,1,.195-.25A2.064,2.064,0,0,0,691,172.8a2.7,2.7,0,0,0-.321-2.449,2.51,2.51,0,0,0-1.718-1.549,2.987,2.987,0,0,0-2.194.875.223.223,0,0,1-.35-.045,1.861,1.861,0,0,0-1.418-1.1c-1.114-.063-2.178,1.343-2.189,1.357a.223.223,0,0,1-.353.006,2.271,2.271,0,0,0-1.794-1.04,2.956,2.956,0,0,0-1.929,1.247.223.223,0,0,1-.406-.148,24.136,24.136,0,0,1,.567-3.1c.034-.135.07-.272.106-.409.284-1.087.578-2.211.207-2.827a1.028,1.028,0,0,0-.691-.453,1.621,1.621,0,0,0-1.3.578c-1.378,1.274-3.426,5.277-2.359,12.2.825,5.357,3.175,12.022,5,16.671a.223.223,0,0,1-.126.289.219.219,0,0,1-.081.016" transform="translate(-523.737 -126.416)"/>
        <path id="Trazado_802964" data-name="Trazado 802964" d="M739.68,203.479a.223.223,0,0,1-.211-.149l-.517-1.477a.223.223,0,0,1,.421-.147l.517,1.477a.223.223,0,0,1-.211.3" transform="translate(-574.108 -156.596)"/>
        <path id="Trazado_802965" data-name="Trazado 802965" d="M318.525,564.034s-7.574-4.184-11.139-20.409l14.751.717Z" transform="translate(-238.819 -422.361)" fill="#fff"/>
        <path id="Trazado_802966" data-name="Trazado 802966" d="M317.748,563.481a.224.224,0,0,1-.108-.028c-.313-.173-7.7-4.418-11.249-20.556a.223.223,0,0,1,.229-.271l14.751.717a.223.223,0,0,1,.209.263L317.967,563.3a.223.223,0,0,1-.219.183M306.89,543.086c3.141,13.982,9.337,18.878,10.7,19.805l3.506-19.115Z" transform="translate(-238.042 -421.585)"/>
        <path id="Trazado_802967" data-name="Trazado 802967" d="M311.08,358.646h59.99l11.842-54.711s14.205-.224,25.953-1.294a10.432,10.432,0,0,0,8.384-15.043c-2.666-5.365-5.585-10.494-9.153-13.343,0,0-12.35-1.622-18.427.238l1.764,6.5s-38.091-1.787-58.118,1.548-33.788,23.59-29.115,51.288l11.563,3.993Z" transform="translate(-235.632 -212.569)" fill="#5479f7"/>
        <path id="Trazado_802968" data-name="Trazado 802968" d="M385.644,402.477l3.381-13.956Z" transform="translate(-299.62 -301.855)" fill="#fff"/>
        <path id="Trazado_802969" data-name="Trazado 802969" d="M384.867,401.923a.227.227,0,0,1-.053-.006.223.223,0,0,1-.164-.269l3.381-13.956a.223.223,0,1,1,.433.105l-3.381,13.956a.223.223,0,0,1-.217.171" transform="translate(-298.843 -301.078)"/>
        <path id="Trazado_802970" data-name="Trazado 802970" d="M624.91,412.207a.223.223,0,0,1-.18-.355l1.465-2a2.73,2.73,0,0,1,2.166-1.257h4.259a.223.223,0,1,1,0,.446h-4.259a2.3,2.3,0,0,0-1.806,1.074l-1.465,2a.223.223,0,0,1-.18.091" transform="translate(-485.341 -317.448)"/>
        <path id="Trazado_802971" data-name="Trazado 802971" d="M699.625,311.327a.223.223,0,0,1-.2-.129c-.856-1.85-1.948-5.111-1.959-5.143a.223.223,0,0,1,.423-.141c.011.033,1.095,3.27,1.94,5.1a.223.223,0,0,1-.2.317" transform="translate(-541.875 -237.556)"/>
        <path id="Trazado_802972" data-name="Trazado 802972" d="M330.033,467.367l8.875-37.2H323.939l3.683,37.287Z" transform="translate(-251.679 -334.209)"/>
        <path id="Trazado_802973" data-name="Trazado 802973" d="M327.092,467.179l-.01-.1-3.695-37.41H338.62l-.033.137-8.895,37.285Zm-3.459-37.291,3.661,37.061,2.221-.078,8.823-36.982Z" transform="translate(-251.25 -333.821)"/>
        <path id="Trazado_802974" data-name="Trazado 802974" d="M837.91,191.478l-3.013-1.75c-15.132-8.786-17.036-25.01-16.676-43.21l1.206-.185c10.911-.756,16.4-2.57,24.272-10.492,7.616,7.619,15.356,10.4,23.229,10.4l.076.016c-3.362,18.344-8.723,34.717-25.826,43.535Z" transform="translate(-635.674 -105.54)" fill="#5479f7"/>
        <path id="Trazado_802975" data-name="Trazado 802975" d="M844.789,200.3a.332.332,0,0,1-.216-.079c-4.207-3.559-7-8.3-8.529-14.484-1.537-6.208-1.611-13.239-1.5-18.67a.334.334,0,0,1,.284-.324l.993-.153.028,0c8.545-.592,13.18-1.909,19.765-8.538a.336.336,0,0,1,.237-.1h0a.334.334,0,0,1,.237.1c5.692,5.695,11.869,8.463,18.885,8.463a.323.323,0,0,1,.069.007l.063.013a.335.335,0,0,1-.138.655l-.029-.006c-7.089-.009-13.337-2.766-19.085-8.423-6.61,6.574-11.332,7.9-19.943,8.5l-.7.108c-.258,14.234,1.334,25.185,9.8,32.349a.335.335,0,0,1-.216.59" transform="translate(-648.358 -122.716)" fill="#fff"/>
        <path id="Trazado_802976" data-name="Trazado 802976" d="M907.649,263.482a.335.335,0,0,1-.153-.632l2.69-1.387c9.791-5.048,15.737-13.448,19.281-27.237a.335.335,0,0,1,.648.167c-3.6,13.99-9.647,22.522-19.623,27.665l-2.69,1.387a.335.335,0,0,1-.153.037" transform="translate(-704.923 -181.783)" fill="#fff"/>
        <path id="Trazado_802977" data-name="Trazado 802977" d="M895.464,250.42H879.89a1.2,1.2,0,0,0-1.17,1.057l-.485,4.663a6.386,6.386,0,0,0,6.477,7.21h3.239a8.2,8.2,0,0,0,7.978-7.21l.485-4.663a.936.936,0,0,0-.95-1.057" transform="translate(-682.3 -194.56)" fill="#fff"/>
        <path id="Trazado_802978" data-name="Trazado 802978" d="M903.556,214.271a.575.575,0,0,1-.583-.649l.228-2.19a4.125,4.125,0,0,0-4.18-4.652h-2a5.3,5.3,0,0,0-5.148,4.652l-.228,2.19a.738.738,0,0,1-.718.649.575.575,0,0,1-.583-.649l.228-2.19a6.778,6.778,0,0,1,6.584-5.95h2a5.276,5.276,0,0,1,5.345,5.95l-.228,2.19a.738.738,0,0,1-.718.649" transform="translate(-691.737 -159.646)" fill="#fff"/>
        <path id="Trazado_802979" data-name="Trazado 802979" d="M914.684,264.329a1.411,1.411,0,0,0-1.431-1.592,1.812,1.812,0,0,0-1.762,1.592,1.414,1.414,0,0,0,.685,1.4l-.319,3.07a.677.677,0,0,0,.686.764.869.869,0,0,0,.845-.764l.319-3.07a1.813,1.813,0,0,0,.976-1.4" transform="translate(-708.162 -204.129)" fill="#5479f7"/>
        <path id="Trazado_802980" data-name="Trazado 802980" d="M761.1,786.19a1.834,1.834,0,0,0,1.856,2.036,2.268,2.268,0,0,0,2.215-2.036,1.834,1.834,0,0,0-1.856-2.036,2.268,2.268,0,0,0-2.215,2.036" transform="translate(-591.321 -609.237)" fill="#e2eaff"/>
        <path id="Trazado_802981" data-name="Trazado 802981" d="M727.475,786.19a1.834,1.834,0,0,0,1.856,2.036,2.268,2.268,0,0,0,2.215-2.036,1.834,1.834,0,0,0-1.856-2.036,2.268,2.268,0,0,0-2.215,2.036" transform="translate(-565.194 -609.237)" fill="#e2eaff"/>
        <path id="Trazado_802982" data-name="Trazado 802982" d="M693.847,786.19a1.834,1.834,0,0,0,1.856,2.036,2.268,2.268,0,0,0,2.215-2.036,1.834,1.834,0,0,0-1.856-2.036,2.268,2.268,0,0,0-2.215,2.036" transform="translate(-539.067 -609.237)" fill="#e2eaff"/>
        <path id="Trazado_802983" data-name="Trazado 802983" d="M771.373,710.406H754.705a.223.223,0,1,1,0-.446h16.667a.223.223,0,1,1,0,.446" transform="translate(-586.183 -551.592)"/>
        <path id="Trazado_802984" data-name="Trazado 802984" d="M709.036,710.406h-8.674a.223.223,0,1,1,0-.446h8.674a.223.223,0,0,1,0,.446" transform="translate(-543.962 -551.592)"/>
        <path id="Trazado_802985" data-name="Trazado 802985" d="M794.832,737.149h-9.255a.223.223,0,0,1,0-.446h9.255a.223.223,0,1,1,0,.446" transform="translate(-610.169 -572.37)"/>
        <path id="Trazado_802986" data-name="Trazado 802986" d="M714.037,737.149H698a.223.223,0,0,1,0-.446h16.035a.223.223,0,0,1,0,.446" transform="translate(-542.128 -572.37)"/>
        <path id="Trazado_802987" data-name="Trazado 802987" d="M945.225,533.9h-.02a.223.223,0,0,1-.2-.242l2.331-26.411a.223.223,0,1,1,.444.039L945.447,533.7a.223.223,0,0,1-.222.2" transform="translate(-734.205 -393.942)"/>
        <path id="Trazado_802988" data-name="Trazado 802988" d="M695.6,656.792a.223.223,0,0,1,0-.446l52.763-.119,2.7-30.578a.223.223,0,1,1,.444.039l-2.716,30.781a.223.223,0,0,1-.222.2l-52.967.119Z" transform="translate(-540.259 -485.93)"/>
        <path id="Trazado_802989" data-name="Trazado 802989" d="M849.424,4.048A3.412,3.412,0,0,1,852.752,1a2.735,2.735,0,0,1,2.769,3.048A3.412,3.412,0,0,1,852.192,7.1a2.735,2.735,0,0,1-2.769-3.048" transform="translate(-659.936 -0.777)" fill="#fff"/>
        <path id="Trazado_802990" data-name="Trazado 802990" d="M851.415,6.543a2.958,2.958,0,0,1-2.991-3.292A3.643,3.643,0,0,1,851.974,0a2.958,2.958,0,0,1,2.991,3.292,3.643,3.643,0,0,1-3.55,3.251m.56-6.1a3.188,3.188,0,0,0-3.106,2.846A2.512,2.512,0,0,0,851.415,6.1a3.189,3.189,0,0,0,3.106-2.846A2.512,2.512,0,0,0,851.974.446m-3.328,2.825h0Z" transform="translate(-659.159)"/>
        <path id="Trazado_802991" data-name="Trazado 802991" d="M809.543,4.048A3.412,3.412,0,0,1,812.871,1a2.735,2.735,0,0,1,2.768,3.048A3.412,3.412,0,0,1,812.311,7.1a2.735,2.735,0,0,1-2.768-3.048" transform="translate(-628.951 -0.777)" fill="#fff"/>
        <path id="Trazado_802992" data-name="Trazado 802992" d="M811.534,6.544a2.958,2.958,0,0,1-2.991-3.292A3.644,3.644,0,0,1,812.094,0a2.958,2.958,0,0,1,2.991,3.292,3.644,3.644,0,0,1-3.55,3.251m-2.546-3.251a2.512,2.512,0,0,0,2.546,2.8,3.189,3.189,0,0,0,3.106-2.846,2.512,2.512,0,0,0-2.546-2.8,3.189,3.189,0,0,0-3.106,2.846" transform="translate(-628.174 -0.001)"/>
        <path id="Trazado_802993" data-name="Trazado 802993" d="M769.663,4.048A3.412,3.412,0,0,1,772.991,1a2.735,2.735,0,0,1,2.768,3.048A3.412,3.412,0,0,1,772.431,7.1a2.735,2.735,0,0,1-2.768-3.048" transform="translate(-597.967 -0.777)" fill="#fff"/>
        <path id="Trazado_802994" data-name="Trazado 802994" d="M771.654,6.543a2.958,2.958,0,0,1-2.991-3.292A3.643,3.643,0,0,1,772.213,0,2.958,2.958,0,0,1,775.2,3.292a3.643,3.643,0,0,1-3.55,3.251m.56-6.1a3.188,3.188,0,0,0-3.106,2.846A2.512,2.512,0,0,0,771.654,6.1a3.188,3.188,0,0,0,3.106-2.846A2.512,2.512,0,0,0,772.213.446m-3.328,2.825h0Z" transform="translate(-597.19)"/>
        <path id="Trazado_802995" data-name="Trazado 802995" d="M901.463,38.867h-.021a.223.223,0,0,1-.2-.242l2.25-24.511H892.969a.223.223,0,1,1,0-.446h10.766a.223.223,0,0,1,.222.244l-2.273,24.754a.223.223,0,0,1-.222.2" transform="translate(-693.605 -10.618)" fill="#5479f7"/>
        <path id="Trazado_802996" data-name="Trazado 802996" d="M444.1,41.694h-.021a.223.223,0,0,1-.2-.242l2.169-23.632a.223.223,0,0,1,.444.041l-2.169,23.632a.223.223,0,0,1-.222.2" transform="translate(-344.865 -13.686)" fill="#5479f7"/>
        <path id="Trazado_802997" data-name="Trazado 802997" d="M521.946,18.062H454.075a.223.223,0,1,1,0-.446h67.871a.223.223,0,1,1,0,.446" transform="translate(-352.613 -13.686)" fill="#5479f7"/>
        <path id="Trazado_802998" data-name="Trazado 802998" d="M40.557,707.728a3.144,3.144,0,0,0-.025-.38,12.791,12.791,0,0,0,3.525-1.46,3.135,3.135,0,1,0,4.4-4.4,12.786,12.786,0,0,0,1.46-3.525,3.167,3.167,0,0,0,.381.025,3.135,3.135,0,1,0-.381-6.244,12.787,12.787,0,0,0-1.46-3.525,3.133,3.133,0,1,0-4.146-4.684,3.077,3.077,0,0,0-.251.287,12.8,12.8,0,0,0-3.525-1.46,3.133,3.133,0,1,0-6.244-.38,3.189,3.189,0,0,0,.025.38,12.789,12.789,0,0,0-3.525,1.46,3.134,3.134,0,1,0-4.4,4.4,12.793,12.793,0,0,0-1.46,3.525,3.135,3.135,0,1,0,0,6.218,12.791,12.791,0,0,0,1.46,3.525,3.135,3.135,0,1,0,4.4,4.4,12.791,12.791,0,0,0,3.525,1.46,3.134,3.134,0,1,0,6.244.38M31.6,694.856a5.821,5.821,0,1,1,5.821,5.821,5.821,5.821,0,0,1-5.821-5.821" transform="translate(-16.639 -527.422)" fill="#e2eaff"/>
        <path id="Trazado_802999" data-name="Trazado 802999" d="M158.858,661.4a1.835,1.835,0,0,0-.015-.223,7.5,7.5,0,0,0,2.064-.855,1.873,1.873,0,0,0,.147.168,1.836,1.836,0,0,0,2.6-2.6,1.869,1.869,0,0,0-.168-.147,7.489,7.489,0,0,0,.855-2.064,1.836,1.836,0,1,0,0-3.642,7.487,7.487,0,0,0-.855-2.064,1.816,1.816,0,0,0,.168-.147,1.836,1.836,0,1,0-2.6-2.6,1.881,1.881,0,0,0-.147.168,7.5,7.5,0,0,0-2.064-.855,1.836,1.836,0,1,0-3.642,0,7.5,7.5,0,0,0-2.064.855,1.815,1.815,0,0,0-.147-.168,1.836,1.836,0,0,0-2.6,2.6,1.9,1.9,0,0,0,.168.147,7.5,7.5,0,0,0-.855,2.064,1.835,1.835,0,1,0-.223,3.657,1.825,1.825,0,0,0,.223-.015,7.5,7.5,0,0,0,.855,2.064,1.876,1.876,0,0,0-.168.147,1.836,1.836,0,0,0,2.6,2.6,1.807,1.807,0,0,0,.147-.168,7.5,7.5,0,0,0,2.064.855,1.835,1.835,0,1,0,3.656.223m-5.245-7.538a3.409,3.409,0,1,1,3.409,3.409,3.409,3.409,0,0,1-3.409-3.409" transform="translate(-114.714 -500.724)" fill="#e2eaff"/>
      </g>
    </g>
  </g>
</svg>
