<svg id="Grupo_1067899" data-name="Grupo 1067899" xmlns="http://www.w3.org/2000/svg" xmlns:xlink="http://www.w3.org/1999/xlink" width="278.038" height="185.377" viewBox="0 0 278.038 185.377">
  <defs>
    <clipPath id="clip-path">
      <rect id="Rect치ngulo_375367" data-name="Rect치ngulo 375367" width="278.038" height="185.377" fill="none"/>
    </clipPath>
  </defs>
  <g id="Grupo_1067898" data-name="Grupo 1067898" clip-path="url(#clip-path)">
    <path id="Trazado_803000" data-name="Trazado 803000" d="M794.445,506.091H756.9a8.541,8.541,0,0,1-8.542-8.541v-9.01h54.627v9.01a8.541,8.541,0,0,1-8.541,8.541" transform="translate(-581.426 -379.563)" fill="#fff"/>
    <path id="Trazado_803001" data-name="Trazado 803001" d="M793.668,505.537H756.124a8.774,8.774,0,0,1-8.765-8.764v-9.01a.223.223,0,0,1,.223-.223h54.627a.223.223,0,0,1,.223.223v9.01a8.774,8.774,0,0,1-8.764,8.764m-45.863-17.551v8.787a8.328,8.328,0,0,0,8.318,8.318h37.544a8.328,8.328,0,0,0,8.318-8.318v-8.787Z" transform="translate(-580.649 -378.787)"/>
    <path id="Trazado_803002" data-name="Trazado 803002" d="M687.178,1H543.422A7.226,7.226,0,0,0,536.2,8.226v102.8a7.222,7.222,0,0,0,7.222,7.222h143.9a7.085,7.085,0,0,0,7.084-7.085V8.226A7.226,7.226,0,0,0,687.178,1" transform="translate(-416.589 -0.777)"/>
    <path id="Trazado_803003" data-name="Trazado 803003" d="M686.542,117.7h-143.9a7.454,7.454,0,0,1-7.445-7.445V7.449A7.457,7.457,0,0,1,542.645,0H686.4a7.457,7.457,0,0,1,7.449,7.449v102.94a7.316,7.316,0,0,1-7.308,7.308M542.645.446a7.011,7.011,0,0,0-7,7v102.8a7.007,7.007,0,0,0,7,7h143.9a6.869,6.869,0,0,0,6.862-6.862V7.449a7.011,7.011,0,0,0-7-7Z" transform="translate(-415.812)"/>
    <path id="Trazado_803004" data-name="Trazado 803004" d="M667.166,1H523.41a7.226,7.226,0,0,0-7.226,7.226v102.8a7.222,7.222,0,0,0,7.222,7.222h143.9a7.085,7.085,0,0,0,7.085-7.085V8.226A7.226,7.226,0,0,0,667.166,1" transform="translate(-401.041 -0.777)" fill="#fff"/>
    <path id="Trazado_803005" data-name="Trazado 803005" d="M666.531,117.7h-143.9a7.454,7.454,0,0,1-7.445-7.445V7.449A7.457,7.457,0,0,1,522.633,0H666.389a7.457,7.457,0,0,1,7.449,7.449v102.94a7.316,7.316,0,0,1-7.308,7.308M522.633.446a7.011,7.011,0,0,0-7,7v102.8a7.007,7.007,0,0,0,7,7h143.9a6.869,6.869,0,0,0,6.862-6.862V7.449a7.011,7.011,0,0,0-7-7Z" transform="translate(-400.264)"/>
    <path id="Trazado_803006" data-name="Trazado 803006" d="M546.369,130.757a4.13,4.13,0,0,1-4.131-4.129V27.708a4.13,4.13,0,0,1,4.131-4.129H684.691a4.13,4.13,0,0,1,4.131,4.129v98.366a4.685,4.685,0,0,1-4.686,4.683Z" transform="translate(-421.283 -18.319)" fill="#fff"/>
    <path id="Trazado_803007" data-name="Trazado 803007" d="M683.359,130.2H545.592a4.358,4.358,0,0,1-4.354-4.352V26.931a4.358,4.358,0,0,1,4.354-4.352H683.915a4.357,4.357,0,0,1,4.353,4.352V125.3a4.913,4.913,0,0,1-4.909,4.906M545.592,23.025a3.911,3.911,0,0,0-3.908,3.905v98.92a3.911,3.911,0,0,0,3.908,3.905H683.359a4.466,4.466,0,0,0,4.463-4.46V26.931a3.911,3.911,0,0,0-3.907-3.905Z" transform="translate(-420.506 -17.542)"/>
    <path id="Trazado_803008" data-name="Trazado 803008" d="M1001.944,566.668h-47.76a.223.223,0,1,1,0-.446h47.76a.223.223,0,0,1,0,.446" transform="translate(-741.165 -439.917)"/>
    <path id="Trazado_803009" data-name="Trazado 803009" d="M572.328,577.554a.223.223,0,0,1-.223-.223V566.445a.223.223,0,0,1,.223-.223h15.925a.223.223,0,0,1,0,.446h-15.7v10.663a.223.223,0,0,1-.223.223" transform="translate(-444.488 -439.917)"/>
    <path id="Trazado_803010" data-name="Trazado 803010" d="M638.735,787.035H572.328a.223.223,0,0,1-.223-.223V774.624a.223.223,0,0,1,.446,0v11.965h66.184a.223.223,0,1,1,0,.446" transform="translate(-444.488 -601.659)"/>
    <path id="Trazado_803011" data-name="Trazado 803011" d="M657.686,726.379H608.022a.223.223,0,0,1,0-.446h49.664a.223.223,0,0,1,0,.446" transform="translate(-472.22 -564.002)"/>
    <path id="Trazado_803012" data-name="Trazado 803012" d="M822.665,604.667h-53.74a.223.223,0,1,1,0-.446h53.517v-17.7a.223.223,0,1,1,.446,0v17.919a.223.223,0,0,1-.223.223" transform="translate(-597.231 -455.518)" fill="#5479f7"/>
    <path id="Trazado_803013" data-name="Trazado 803013" d="M1073.743,56.482a2.886,2.886,0,1,1-2.886-2.885,2.885,2.885,0,0,1,2.886,2.885" transform="translate(-829.743 -41.641)" fill="#e2eaff"/>
    <path id="Trazado_803014" data-name="Trazado 803014" d="M1111.5,56.482a2.886,2.886,0,1,1-2.886-2.885,2.886,2.886,0,0,1,2.886,2.885" transform="translate(-859.076 -41.641)" fill="#e2eaff"/>
    <path id="Trazado_803015" data-name="Trazado 803015" d="M1149.251,56.482a2.886,2.886,0,1,1-2.886-2.885,2.886,2.886,0,0,1,2.886,2.885" transform="translate(-888.408 -41.641)" fill="#5479f7"/>
    <path id="Trazado_803016" data-name="Trazado 803016" d="M582.216,112.469h16.916a1.089,1.089,0,0,0,1.089-1.089v-3.188a1.089,1.089,0,0,0-1.089-1.089H582.216a1.089,1.089,0,0,0-1.089,1.089v3.188a1.089,1.089,0,0,0,1.089,1.089" transform="translate(-451.498 -83.213)" fill="#e2eaff"/>
    <path id="Trazado_803017" data-name="Trazado 803017" d="M581.353,168.916h16.916a1.089,1.089,0,0,0,1.089-1.089V164.64a1.089,1.089,0,0,0-1.089-1.089H581.353a1.089,1.089,0,0,0-1.089,1.089v3.188a1.089,1.089,0,0,0,1.089,1.089" transform="translate(-450.827 -127.068)" fill="#e2eaff"/>
    <path id="Trazado_803018" data-name="Trazado 803018" d="M581.353,220.231h16.916a1.089,1.089,0,0,0,1.089-1.089v-3.188a1.089,1.089,0,0,0-1.089-1.089H581.353a1.089,1.089,0,0,0-1.089,1.089v3.188a1.089,1.089,0,0,0,1.089,1.089" transform="translate(-450.827 -166.937)" fill="#e2eaff"/>
    <path id="Trazado_803019" data-name="Trazado 803019" d="M713.354,112.469h38.951a1.089,1.089,0,0,0,1.089-1.089v-3.188a1.089,1.089,0,0,0-1.089-1.089H713.354a1.089,1.089,0,0,0-1.089,1.089v3.188a1.089,1.089,0,0,0,1.089,1.089" transform="translate(-553.383 -83.213)" fill="#e2eaff"/>
    <path id="Trazado_803020" data-name="Trazado 803020" d="M712.491,168.916h16.14a1.089,1.089,0,0,0,1.089-1.089V164.64a1.089,1.089,0,0,0-1.089-1.089h-16.14a1.089,1.089,0,0,0-1.089,1.089v3.188a1.089,1.089,0,0,0,1.089,1.089" transform="translate(-552.713 -127.068)" fill="#e2eaff"/>
    <path id="Trazado_803021" data-name="Trazado 803021" d="M712.491,220.231h25.275a1.089,1.089,0,0,0,1.089-1.089v-3.188a1.089,1.089,0,0,0-1.089-1.089H712.491a1.089,1.089,0,0,0-1.089,1.089v3.188a1.089,1.089,0,0,0,1.089,1.089" transform="translate(-552.713 -166.937)" fill="#e2eaff"/>
    <path id="Trazado_803022" data-name="Trazado 803022" d="M582.216,272.511h16.916a1.089,1.089,0,0,0,1.089-1.089v-3.188a1.089,1.089,0,0,0-1.089-1.089H582.216a1.089,1.089,0,0,0-1.089,1.089v3.188a1.089,1.089,0,0,0,1.089,1.089" transform="translate(-451.498 -207.555)" fill="#e2eaff"/>
    <path id="Trazado_803023" data-name="Trazado 803023" d="M713.354,272.511H770.6a1.089,1.089,0,0,0,1.089-1.089v-3.188a1.089,1.089,0,0,0-1.089-1.089H713.354a1.089,1.089,0,0,0-1.089,1.089v3.188a1.089,1.089,0,0,0,1.089,1.089" transform="translate(-553.383 -207.555)" fill="#e2eaff"/>
    <path id="Trazado_803024" data-name="Trazado 803024" d="M1000,272.511h33.432a1.089,1.089,0,0,0,1.089-1.089v-3.188a1.089,1.089,0,0,0-1.089-1.089H1000a1.089,1.089,0,0,0-1.089,1.089v3.188a1.089,1.089,0,0,0,1.089,1.089" transform="translate(-776.086 -207.555)" fill="#e2eaff"/>
    <path id="Trazado_803025" data-name="Trazado 803025" d="M916.3,112.469h52.1a1.089,1.089,0,0,0,1.089-1.089v-3.188A1.089,1.089,0,0,0,968.4,107.1H916.3a1.089,1.089,0,0,0-1.089,1.089v3.188a1.089,1.089,0,0,0,1.089,1.089" transform="translate(-711.061 -83.213)" fill="#e2eaff"/>
    <path id="Trazado_803026" data-name="Trazado 803026" d="M814.864,168.916h47.963a1.089,1.089,0,0,0,1.089-1.089V164.64a1.089,1.089,0,0,0-1.089-1.089H814.864a1.089,1.089,0,0,0-1.089,1.089v3.188a1.089,1.089,0,0,0,1.089,1.089" transform="translate(-632.25 -127.068)" fill="#e2eaff"/>
    <path id="Trazado_803027" data-name="Trazado 803027" d="M583.852,418.068h16.916a1.089,1.089,0,0,0,1.089-1.089v-3.188a1.089,1.089,0,0,0-1.089-1.089H583.852a1.089,1.089,0,0,0-1.089,1.089v3.188a1.089,1.089,0,0,0,1.089,1.089" transform="translate(-452.769 -320.643)" fill="#e2eaff"/>
    <path id="Trazado_803028" data-name="Trazado 803028" d="M714.99,418.068h16.14a1.089,1.089,0,0,0,1.089-1.089v-3.188a1.089,1.089,0,0,0-1.089-1.089H714.99a1.089,1.089,0,0,0-1.089,1.089v3.188a1.089,1.089,0,0,0,1.089,1.089" transform="translate(-554.654 -320.643)" fill="#e2eaff"/>
    <path id="Trazado_803029" data-name="Trazado 803029" d="M817.362,418.068h47.963a1.089,1.089,0,0,0,1.089-1.089v-3.188a1.089,1.089,0,0,0-1.089-1.089H817.362a1.089,1.089,0,0,0-1.089,1.089v3.188a1.089,1.089,0,0,0,1.089,1.089" transform="translate(-634.191 -320.643)" fill="#e2eaff"/>
    <path id="Trazado_803030" data-name="Trazado 803030" d="M855.813,220.231h50.394a1.089,1.089,0,0,0,1.089-1.089v-3.188a1.089,1.089,0,0,0-1.089-1.089H855.813a1.089,1.089,0,0,0-1.089,1.089v3.188a1.089,1.089,0,0,0,1.089,1.089" transform="translate(-664.064 -166.937)" fill="#e2eaff"/>
    <path id="Trazado_803031" data-name="Trazado 803031" d="M583.078,325.462h16.916a1.089,1.089,0,0,0,1.089-1.089v-3.188a1.089,1.089,0,0,0-1.089-1.089H583.078a1.089,1.089,0,0,0-1.089,1.089v3.188a1.089,1.089,0,0,0,1.089,1.089" transform="translate(-452.167 -248.694)" fill="#e2eaff"/>
    <path id="Trazado_803032" data-name="Trazado 803032" d="M583.852,372.331h16.916a1.089,1.089,0,0,0,1.089-1.089v-3.188a1.089,1.089,0,0,0-1.089-1.089H583.852a1.089,1.089,0,0,0-1.089,1.089v3.188a1.089,1.089,0,0,0,1.089,1.089" transform="translate(-452.769 -285.108)" fill="#e2eaff"/>
    <path id="Trazado_803033" data-name="Trazado 803033" d="M714.216,325.462h57.245a1.089,1.089,0,0,0,1.089-1.089v-3.188a1.089,1.089,0,0,0-1.089-1.089H714.216a1.089,1.089,0,0,0-1.089,1.089v3.188a1.089,1.089,0,0,0,1.089,1.089" transform="translate(-554.053 -248.694)" fill="#e2eaff"/>
    <path id="Trazado_803034" data-name="Trazado 803034" d="M714.99,372.331h25.275a1.089,1.089,0,0,0,1.089-1.089v-3.188a1.089,1.089,0,0,0-1.089-1.089H714.99a1.089,1.089,0,0,0-1.089,1.089v3.188a1.089,1.089,0,0,0,1.089,1.089" transform="translate(-554.654 -285.108)" fill="#e2eaff"/>
    <path id="Trazado_803035" data-name="Trazado 803035" d="M1000.859,325.462h33.433a1.089,1.089,0,0,0,1.089-1.089v-3.188a1.089,1.089,0,0,0-1.089-1.089h-33.433a1.089,1.089,0,0,0-1.089,1.089v3.188a1.089,1.089,0,0,0,1.089,1.089" transform="translate(-776.756 -248.694)" fill="#e2eaff"/>
    <path id="Trazado_803036" data-name="Trazado 803036" d="M583.852,462.539h16.916a1.089,1.089,0,0,0,1.089-1.089v-3.188a1.089,1.089,0,0,0-1.089-1.089H583.852a1.089,1.089,0,0,0-1.089,1.089v3.188a1.089,1.089,0,0,0,1.089,1.089" transform="translate(-452.769 -355.194)" fill="#e2eaff"/>
    <path id="Trazado_803037" data-name="Trazado 803037" d="M714.99,462.539h57.245a1.089,1.089,0,0,0,1.089-1.089v-3.188a1.089,1.089,0,0,0-1.089-1.089H714.99a1.089,1.089,0,0,0-1.089,1.089v3.188a1.089,1.089,0,0,0,1.089,1.089" transform="translate(-554.654 -355.194)" fill="#e2eaff"/>
    <path id="Trazado_803038" data-name="Trazado 803038" d="M1001.633,462.539h33.432a1.089,1.089,0,0,0,1.089-1.089v-3.188a1.089,1.089,0,0,0-1.089-1.089h-33.432a1.089,1.089,0,0,0-1.089,1.089v3.188a1.089,1.089,0,0,0,1.089,1.089" transform="translate(-777.357 -355.194)" fill="#e2eaff"/>
    <path id="Trazado_803039" data-name="Trazado 803039" d="M858.312,372.331h50.394a1.089,1.089,0,0,0,1.089-1.089v-3.188a1.089,1.089,0,0,0-1.089-1.089H858.312a1.089,1.089,0,0,0-1.089,1.089v3.188a1.089,1.089,0,0,0,1.089,1.089" transform="translate(-666.006 -285.108)" fill="#e2eaff"/>
    <path id="Trazado_803040" data-name="Trazado 803040" d="M1168.29,572.419a.223.223,0,0,1-.223-.223v-5.751a.223.223,0,1,1,.446,0V572.2a.223.223,0,0,1-.223.223" transform="translate(-907.511 -439.917)"/>
    <path id="Trazado_803041" data-name="Trazado 803041" d="M914.517,812.475H861.429a.223.223,0,1,1,0-.446h52.865v-4.661a.223.223,0,0,1,.446,0v4.884a.223.223,0,0,1-.223.223" transform="translate(-669.1 -627.099)"/>
    <path id="Trazado_803042" data-name="Trazado 803042" d="M1138.526,604.763a1.657,1.657,0,0,0-.234,1.252,1.6,1.6,0,0,0,.055.195,6.785,6.785,0,0,0-1.671,1.145,1.688,1.688,0,0,0-.162-.122,1.664,1.664,0,0,0-1.816,2.788,1.682,1.682,0,0,0,.177.1,6.784,6.784,0,0,0-.372,1.991,1.645,1.645,0,0,0-.2.029,1.664,1.664,0,1,0,.883,3.2,6.8,6.8,0,0,0,1.145,1.67,1.69,1.69,0,0,0-.121.162,1.664,1.664,0,1,0,2.888,1.639,6.8,6.8,0,0,0,1.991.371,1.628,1.628,0,0,0,.029.2,1.664,1.664,0,1,0,3.2-.883,6.792,6.792,0,0,0,1.671-1.145,1.728,1.728,0,0,0,.162.121,1.664,1.664,0,0,0,1.816-2.788,1.707,1.707,0,0,0-.177-.1,6.792,6.792,0,0,0,.372-1.991,1.663,1.663,0,1,0-.682-3.229,6.786,6.786,0,0,0-1.145-1.67,1.625,1.625,0,0,0,.122-.162,1.664,1.664,0,1,0-2.888-1.639,6.788,6.788,0,0,0-1.991-.371,1.727,1.727,0,0,0-.028-.2,1.664,1.664,0,0,0-3.023-.564m3.445,10.614a3.089,3.089,0,1,1,2.385-3.661,3.09,3.09,0,0,1-2.385,3.661" transform="translate(-880.252 -469.273)" fill="#e2eaff"/>
    <path id="Trazado_803043" data-name="Trazado 803043" d="M1143.585,627.807a1.89,1.89,0,0,1-1.846-1.5c0-.011,0-.022-.006-.033a7.011,7.011,0,0,1-1.689-.315l-.018.028a1.887,1.887,0,1,1-3.163-2.059l.019-.028a6.98,6.98,0,0,1-.971-1.417l-.033.007a1.887,1.887,0,1,1-.78-3.692l.033-.006a7,7,0,0,1,.316-1.689l-.028-.018a1.887,1.887,0,1,1,2.06-3.162l.028.018a7.021,7.021,0,0,1,1.418-.971c0-.011-.005-.021-.007-.032a1.887,1.887,0,0,1,3.693-.78c0,.011,0,.022.007.033a7,7,0,0,1,1.689.315l.018-.028a1.887,1.887,0,1,1,3.163,2.059l-.019.027a7.01,7.01,0,0,1,.971,1.417l.032-.007a1.887,1.887,0,1,1,.78,3.692l-.033.006a7.014,7.014,0,0,1-.315,1.689l.028.018a1.887,1.887,0,1,1-2.06,3.162l-.028-.018a7.008,7.008,0,0,1-1.417.971c0,.011,0,.021.007.032a1.887,1.887,0,0,1-1.847,2.277m-3.647-2.338a.226.226,0,0,1,.073.012,6.568,6.568,0,0,0,1.926.359.223.223,0,0,1,.214.2,1.474,1.474,0,0,0,.024.173,1.441,1.441,0,0,0,2.82-.6,1.505,1.505,0,0,0-.048-.169.223.223,0,0,1,.114-.273,6.569,6.569,0,0,0,1.616-1.107.223.223,0,0,1,.3-.008,1.478,1.478,0,0,0,.14.105,1.441,1.441,0,1,0,1.573-2.414,1.375,1.375,0,0,0-.153-.086.223.223,0,0,1-.112-.274,6.566,6.566,0,0,0,.359-1.925.223.223,0,0,1,.2-.214,1.475,1.475,0,0,0,.174-.025,1.441,1.441,0,1,0-.764-2.771.223.223,0,0,1-.273-.114,6.553,6.553,0,0,0-1.107-1.615.223.223,0,0,1-.008-.3,1.462,1.462,0,0,0,.105-.14,1.441,1.441,0,1,0-2.415-1.572,1.466,1.466,0,0,0-.085.153.224.224,0,0,1-.273.112,6.567,6.567,0,0,0-1.926-.359.223.223,0,0,1-.214-.2,1.424,1.424,0,0,0-.025-.174,1.441,1.441,0,0,0-2.82.6,1.534,1.534,0,0,0,.048.169.223.223,0,0,1-.114.272,6.576,6.576,0,0,0-1.616,1.107.223.223,0,0,1-.3.008,1.433,1.433,0,0,0-2.134.316,1.44,1.44,0,0,0,.421,1.993,1.449,1.449,0,0,0,.153.086.223.223,0,0,1,.112.273,6.566,6.566,0,0,0-.36,1.925.223.223,0,0,1-.2.214,1.474,1.474,0,0,0-.174.025,1.44,1.44,0,1,0,.764,2.771.223.223,0,0,1,.273.114,6.551,6.551,0,0,0,1.107,1.615.223.223,0,0,1,.008.3,1.47,1.47,0,0,0-.105.14,1.441,1.441,0,1,0,2.415,1.572,1.377,1.377,0,0,0,.086-.153.224.224,0,0,1,.2-.125m2.229-2.919a3.323,3.323,0,1,1,.692-.073,3.342,3.342,0,0,1-.692.073m.013-6.181a2.871,2.871,0,0,0-2.811,3.46,2.867,2.867,0,1,0,2.811-3.46" transform="translate(-880.733 -474.448)"/>
    <path id="Trazado_803044" data-name="Trazado 803044" d="M1055.783,673.2a2.641,2.641,0,0,0-.288,2.326,10.927,10.927,0,0,0-2.687,1.841,2.676,2.676,0,1,0-2.9,4.447,10.921,10.921,0,0,0-.6,3.2,2.675,2.675,0,1,0,1.1,5.192,10.926,10.926,0,0,0,1.842,2.686,2.6,2.6,0,0,0-.2.26,2.675,2.675,0,1,0,4.644,2.635,10.917,10.917,0,0,0,3.2.6,2.73,2.73,0,0,0,.046.322,2.676,2.676,0,1,0,5.148-1.419,10.923,10.923,0,0,0,2.687-1.841,2.718,2.718,0,0,0,.26.2,2.676,2.676,0,1,0,2.637-4.643,10.912,10.912,0,0,0,.6-3.2,2.674,2.674,0,1,0-.784-5.281,2.658,2.658,0,0,0-.313.088,10.913,10.913,0,0,0-1.842-2.686,2.74,2.74,0,0,0,.2-.26,2.676,2.676,0,1,0-4.644-2.635,10.924,10.924,0,0,0-3.2-.6,2.727,2.727,0,0,0-.046-.322,2.676,2.676,0,0,0-4.861-.907m5.54,17.068a4.968,4.968,0,1,1,3.835-5.888,4.968,4.968,0,0,1-3.835,5.888" transform="translate(-813.347 -522.089)" fill="#e2eaff"/>
    <path id="Trazado_803045" data-name="Trazado 803045" d="M1064.389,710.595a2.9,2.9,0,0,1-2.835-2.3c-.01-.05-.02-.1-.027-.154a11.127,11.127,0,0,1-2.893-.54q-.04.07-.081.133a2.9,2.9,0,1,1-4.859-3.163c.027-.042.057-.085.089-.128a11.134,11.134,0,0,1-1.664-2.427c-.052.015-.1.027-.151.037a2.9,2.9,0,1,1-1.2-5.671c.049-.01.1-.019.154-.027a11.128,11.128,0,0,1,.54-2.893c-.047-.026-.091-.053-.133-.081a2.9,2.9,0,1,1,3.164-4.857c.042.027.085.057.128.089a11.134,11.134,0,0,1,2.428-1.664c-.015-.052-.027-.1-.037-.151a2.9,2.9,0,0,1,5.673-1.2c.01.05.019.1.027.154a11.133,11.133,0,0,1,2.893.54c.027-.047.053-.091.081-.133a2.9,2.9,0,1,1,4.858,3.163c-.027.042-.057.084-.089.128a11.138,11.138,0,0,1,1.664,2.427q.078-.022.152-.037a2.9,2.9,0,1,1,1.2,5.671c-.049.01-.1.019-.153.027a11.142,11.142,0,0,1-.54,2.892c.047.027.091.054.133.081a2.9,2.9,0,0,1-3.164,4.858c-.042-.027-.084-.057-.128-.089a11.147,11.147,0,0,1-2.428,1.664c.015.052.027.1.037.151a2.9,2.9,0,0,1-2.838,3.5m-5.865-3.488a.22.22,0,0,1,.073.012,10.687,10.687,0,0,0,3.136.585.223.223,0,0,1,.214.2,2.426,2.426,0,0,0,.042.3,2.453,2.453,0,0,0,4.8-1.014,2.384,2.384,0,0,0-.081-.287.224.224,0,0,1,.114-.273,10.7,10.7,0,0,0,2.632-1.8.223.223,0,0,1,.3-.008,2.441,2.441,0,0,0,3.633-.538,2.452,2.452,0,0,0-.717-3.393,2.491,2.491,0,0,0-.261-.146.223.223,0,0,1-.112-.273,10.683,10.683,0,0,0,.586-3.135.223.223,0,0,1,.2-.214,2.477,2.477,0,0,0,.3-.042,2.452,2.452,0,1,0-1.3-4.717.223.223,0,0,1-.273-.114,10.686,10.686,0,0,0-1.8-2.631.223.223,0,0,1-.008-.3,2.489,2.489,0,0,0,.179-.239,2.452,2.452,0,1,0-4.257-2.415.224.224,0,0,1-.274.112,10.694,10.694,0,0,0-3.136-.585.223.223,0,0,1-.214-.2,2.439,2.439,0,0,0-2.949-2.188A2.439,2.439,0,0,0,1057.53,687a.223.223,0,0,1-.114.273,10.689,10.689,0,0,0-2.632,1.8.224.224,0,0,1-.3.008,2.452,2.452,0,1,0-2.916,3.93,2.419,2.419,0,0,0,.26.146.223.223,0,0,1,.113.273,10.687,10.687,0,0,0-.586,3.136.223.223,0,0,1-.2.214,2.513,2.513,0,0,0-.3.042,2.452,2.452,0,1,0,1.3,4.717.223.223,0,0,1,.273.114,10.681,10.681,0,0,0,1.8,2.631.223.223,0,0,1,.008.3,2.452,2.452,0,1,0,3.932,2.914,2.5,2.5,0,0,0,.146-.261.224.224,0,0,1,.2-.125m3.594-4.967a5.2,5.2,0,1,1,1.075-.113,5.2,5.2,0,0,1-1.075.113m1.029-.331h0Zm-1.025-9.606a4.745,4.745,0,1,0,4.642,3.764,4.746,4.746,0,0,0-4.642-3.764" transform="translate(-814.591 -530.881)"/>
    <path id="Trazado_803046" data-name="Trazado 803046" d="M655.124,670.354c-6,0-11.406-.41-11.487-.417a.223.223,0,0,1-.158-.36c4.5-5.73,22.43-8.52,23.192-8.636a.222.222,0,0,1,.214.09c.112.154,2.723,3.811,1.558,6.456-.6,1.358-2.077,2.183-4.395,2.449a81.428,81.428,0,0,1-8.923.417m-11.017-.83c2.246.155,12.682.8,19.89-.03,2.149-.247,3.507-.982,4.037-2.185.957-2.17-1.012-5.279-1.433-5.9-1.668.269-17.89,3-22.493,8.119" transform="translate(-499.904 -513.506)"/>
    <path id="Trazado_803047" data-name="Trazado 803047" d="M2.419,634.852s-8.294,20.4,14.39,22.553l12.8-26.422L7.567,627.344Z" transform="translate(-0.73 -487.405)" fill="#fff"/>
    <path id="Trazado_803048" data-name="Trazado 803048" d="M16.079,656.851h-.021c-6.9-.654-11.649-3.056-14.125-7.139-4.049-6.677-.487-15.631-.451-15.72a.211.211,0,0,1,.023-.042l5.148-7.508a.222.222,0,0,1,.22-.094l22.044,3.639a.223.223,0,0,1,.164.317l-12.8,26.422a.223.223,0,0,1-.2.125M1.887,634.18c-.191.489-3.409,8.975.429,15.3,2.381,3.924,6.966,6.248,13.63,6.909l12.6-26.014L6.94,626.81Z" transform="translate(0 -486.628)"/>
    <path id="Trazado_803049" data-name="Trazado 803049" d="M9.351,518.685H84.719L98.1,486.6l26.885-11.806s-1.622-34.219-16.226-41.257-52.562-5.036-68.245.433-32.5,40.275-33.943,46.8H25.839Z" transform="translate(-5.106 -333.317)" fill="#5479f7"/>
    <path id="Trazado_803050" data-name="Trazado 803050" d="M82.91,594.67a.221.221,0,0,1-.079-.014.223.223,0,0,1-.13-.287L90,574.921a7.216,7.216,0,0,0,.237-4.34l-.3-1.176a.223.223,0,0,1,.432-.11l.3,1.176a7.662,7.662,0,0,1-.252,4.607l-7.3,19.448a.223.223,0,0,1-.209.145" transform="translate(-64.242 -442.174)"/>
    <path id="Trazado_803051" data-name="Trazado 803051" d="M361.288,624.307a.223.223,0,0,1-.212-.155l-5.3-16.441a2.709,2.709,0,0,0-.783-1.408.962.962,0,0,0-.8-.144.527.527,0,0,0-.365.3.223.223,0,1,1-.416-.162.962.962,0,0,1,.658-.572,1.408,1.408,0,0,1,1.194.217,3.149,3.149,0,0,1,.94,1.627l5.3,16.441a.223.223,0,0,1-.144.281.228.228,0,0,1-.069.011" transform="translate(-274.562 -470.574)"/>
    <path id="Trazado_803052" data-name="Trazado 803052" d="M394.324,628.3S396.882,649,412.05,649.012c21.108.012,47.622-27.161,61.53-27.169,0,0,2.027-5.208-2.29-6.356a8.3,8.3,0,0,0-7.947-4.154s-.986-4.487-11.867-1.895c-7.312,1.742-25.1,8.776-25.1,8.776l-.255-3.821Z" transform="translate(-306.364 -472.867)" fill="#fff"/>
    <path id="Trazado_803053" data-name="Trazado 803053" d="M411.287,648.473h-.014c-6.293,0-11.394-3.63-14.751-10.486a37.247,37.247,0,0,1-3.2-10.425.223.223,0,0,1,.443-.055,36.767,36.767,0,0,0,3.159,10.294c3.324,6.782,8.151,10.223,14.346,10.226h.014c11.589,0,24.955-8.321,36.748-15.663,9.831-6.12,18.333-11.413,24.609-11.5a6.132,6.132,0,0,0,.01-4.274,3.258,3.258,0,0,0-2.2-1.645.224.224,0,0,1-.144-.119,8.151,8.151,0,0,0-7.737-4.028.223.223,0,0,1-.227-.175,2.863,2.863,0,0,0-1.343-1.55c-1.394-.863-4.3-1.593-10.254-.175-7.213,1.718-24.891,8.7-25.069,8.766a.223.223,0,0,1-.3-.193l-.255-3.821a.223.223,0,1,1,.445-.03l.234,3.516c2.316-.909,18.107-7.068,24.845-8.674,6.126-1.459,9.156-.672,10.618.246a3.472,3.472,0,0,1,1.46,1.637,8.611,8.611,0,0,1,7.939,4.194,3.653,3.653,0,0,1,2.388,1.849c1.017,2,0,4.665-.042,4.777a.223.223,0,0,1-.208.142c-6.164,0-15.086,5.558-24.532,11.438-11.844,7.373-25.268,15.73-36.984,15.73" transform="translate(-305.587 -472.105)"/>
    <path id="Trazado_803054" data-name="Trazado 803054" d="M537.734,657.17a.223.223,0,0,1-.222-.2l-.548-6.375a.223.223,0,1,1,.444-.038l.548,6.375a.223.223,0,0,1-.2.241h-.019" transform="translate(-417.185 -505.279)"/>
    <path id="Trazado_803055" data-name="Trazado 803055" d="M678.613,621.989a.223.223,0,0,1-.047-.441l5.022-1.083a.223.223,0,1,1,.094.436l-5.022,1.083a.212.212,0,0,1-.047.005" transform="translate(-527.065 -482.056)"/>
    <path id="Trazado_803056" data-name="Trazado 803056" d="M708.322,639.352a.223.223,0,0,1-.11-.417,10.646,10.646,0,0,1,7.033-1.194.223.223,0,0,1-.08.439,10.191,10.191,0,0,0-6.733,1.143.223.223,0,0,1-.11.029" transform="translate(-550.146 -495.357)"/>
    <path id="Trazado_803057" data-name="Trazado 803057" d="M285.755,247.511s3.942-23.629,14.27-21.665c11.017,2.1,4.772,9.331,4.772,9.331s4.647,3.256-2.914,6.692c-1.616.734-6.2,6.833-7.816,7.446-5.93,2.249-8.313-1.8-8.313-1.8" transform="translate(-222.013 -175.377)"/>
    <path id="Trazado_803058" data-name="Trazado 803058" d="M318.655,300.1a29.031,29.031,0,0,0-1.444-3.291c-2.027,1.915-5.232,4.3-7.767,3.247-4.027-1.68-8.222-10.1-8.222-10.1l5.96-8.44L294.123,291.6s-4.667,17.39,9.8,18.166,16.646-4.139,14.736-9.673" transform="translate(-227.956 -218.719)"/>
    <path id="Trazado_803059" data-name="Trazado 803059" d="M338.266,298.319c2.535,1.058,5.74-1.332,7.767-3.247-3.163-6.338-9.385-15.788-9.385-15.788l-.644.5-5.019,7.107a2.633,2.633,0,0,0-.145,2.814c1.406,2.493,4.461,7.379,7.425,8.615" transform="translate(-256.778 -216.986)" fill="#fff"/>
    <path id="Trazado_803060" data-name="Trazado 803060" d="M336.54,279.933c1.195,1.836,6.166,9.551,8.945,15.041-1.622,1.492-3.882,3.159-5.878,3.159a3.019,3.019,0,0,1-1.169-.226c-2.9-1.21-6.007-6.294-7.208-8.423a2.2,2.2,0,0,1,.12-2.337l4.98-7.052Zm.109-.648-.645.5-5.019,7.107a2.634,2.634,0,0,0-.145,2.814c1.406,2.493,4.462,7.379,7.425,8.615a3.447,3.447,0,0,0,1.341.26c2.249,0,4.744-1.917,6.426-3.507-3.163-6.338-9.385-15.788-9.385-15.788" transform="translate(-256.779 -216.986)"/>
    <path id="Trazado_803061" data-name="Trazado 803061" d="M265.283,325.836a2.276,2.276,0,0,0,.225,3.222,5.181,5.181,0,0,0,3.386,1.1,17.155,17.155,0,0,0,5.539-.717,5.528,5.528,0,0,0,2.937-1.715,5.834,5.834,0,0,0,.754-4.092,28.3,28.3,0,0,0-2.266-8.836,5.263,5.263,0,0,0-2.49-3c-1.433-.583-3.057.07-4.4.845a23.65,23.65,0,0,0-7.466,6.862c-.778,1.109-2.019,2.486-.981,3.771a9.417,9.417,0,0,0,4.759,2.556" transform="translate(-202.102 -242.075)"/>
    <path id="Trazado_803062" data-name="Trazado 803062" d="M267.09,363.155c2.416,1.13,7.273,2.275,14.446-1.229a2.283,2.283,0,0,0,1.206-1.494c.568-2.246,1.93-7.588,2.443-9.189.655-2.045-1.694-8.161-3.129-9.82s-5.822-1.376-6.611,1.218.367,5.121,4.771,4.664l-.132,1.535a2.673,2.673,0,0,1-2.478,2.438c-2.649.184-6.808.377-8.024-.12l-3.609,9.214a2.19,2.19,0,0,0,1.118,2.783" transform="translate(-206.525 -264.458)" fill="#fff"/>
    <path id="Trazado_803063" data-name="Trazado 803063" d="M265.72,359.812a.223.223,0,0,1-.208-.3l3.61-9.213a.223.223,0,0,1,.292-.125c.884.361,3.7.4,7.924.1a2.439,2.439,0,0,0,2.271-2.235l.11-1.27c-2.47.195-3.679-.587-4.26-1.292a3.869,3.869,0,0,1-.479-3.683,3.543,3.543,0,0,1,2.85-2.292,4.455,4.455,0,0,1,4.143.992c1.389,1.606,3.883,7.818,3.173,10.034-.453,1.414-1.579,5.788-2.209,8.269a.223.223,0,0,1-.433-.11c.632-2.486,1.76-6.87,2.217-8.3.621-1.938-1.637-7.932-3.086-9.606a4.061,4.061,0,0,0-3.712-.847,3.114,3.114,0,0,0-2.516,1.985,3.443,3.443,0,0,0,.4,3.269c.764.926,2.194,1.309,4.138,1.108a.223.223,0,0,1,.245.241l-.133,1.535a2.882,2.882,0,0,1-2.684,2.641c-2.876.2-6.5.344-7.91-.062l-3.532,9.015a.223.223,0,0,1-.208.142" transform="translate(-206.274 -263.676)"/>
    <path id="Trazado_803064" data-name="Trazado 803064" d="M327.648,359.641a.223.223,0,0,1-.181-.093,2.922,2.922,0,0,0-2.4-1.187.223.223,0,1,1-.013-.446,3.338,3.338,0,0,1,2.776,1.373.223.223,0,0,1-.181.353" transform="translate(-252.377 -278.076)"/>
    <path id="Trazado_803065" data-name="Trazado 803065" d="M239.926,282.438a2.885,2.885,0,0,1-1.314-1.95s-6.68-7.635-1.711-15.263,10.892-7.406,13.915-6.71c0,0,2.594-.52,3.368,1.135s1.45,8.975-2.977,15.183a27.918,27.918,0,0,1-8.391,7.793,2.575,2.575,0,0,1-2.888-.188" transform="translate(-182.629 -200.603)" fill="#fff"/>
    <path id="Trazado_803066" data-name="Trazado 803066" d="M240.778,282.463a2.79,2.79,0,0,1-1.717-.593,3.075,3.075,0,0,1-1.4-2.04c-.618-.748-6.446-8.151-1.679-15.47,4.935-7.577,10.937-7.533,14.106-6.816.384-.068,2.779-.415,3.565,1.268.9,1.927,1.33,9.339-3,15.407a28.221,28.221,0,0,1-8.46,7.855,2.8,2.8,0,0,1-1.422.389m-1.443-.945a2.34,2.34,0,0,0,2.638.171,27.764,27.764,0,0,0,8.323-7.73c4.507-6.319,3.6-13.576,2.957-14.959-.689-1.475-3.1-1.015-3.122-1.01a.229.229,0,0,1-.094,0c-3.717-.855-9.108-.4-13.678,6.615-4.817,7.4,1.627,14.92,1.692,14.995a.223.223,0,0,1,.055.143,2.743,2.743,0,0,0,1.228,1.778" transform="translate(-181.9 -199.858)"/>
    <path id="Trazado_803067" data-name="Trazado 803067" d="M255.268,282.611a.223.223,0,0,1-.132-.4,28.1,28.1,0,0,0,11.2-19.841.223.223,0,1,1,.444.04,28.556,28.556,0,0,1-11.377,20.16.222.222,0,0,1-.132.043" transform="translate(-198.153 -203.684)"/>
    <path id="Trazado_803068" data-name="Trazado 803068" d="M668.031,555.5a.223.223,0,0,1-.213-.156l-3.039-9.6a.223.223,0,0,1,.425-.135l3.039,9.6a.223.223,0,0,1-.145.28.219.219,0,0,1-.067.01" transform="translate(-516.482 -423.789)"/>
    <path id="Trazado_803069" data-name="Trazado 803069" d="M689.872,558.38a.223.223,0,0,1-.217-.276l2.122-8.77a.223.223,0,0,1,.434.1l-2.122,8.77a.223.223,0,0,1-.217.171" transform="translate(-535.812 -426.664)"/>
    <path id="Trazado_803070" data-name="Trazado 803070" d="M701.129,566.655a.223.223,0,0,1-.159-.379l7.411-7.584a.223.223,0,0,1,.319.312l-7.411,7.584a.222.222,0,0,1-.16.067" transform="translate(-544.558 -434.014)"/>
    <path id="Trazado_803071" data-name="Trazado 803071" d="M180.817,32.582a.223.223,0,0,1-.166-.074l-9.714-10.864h-66.71a.223.223,0,1,1,0-.446h66.81a.222.222,0,0,1,.166.074l9.781,10.938a.223.223,0,0,1-.166.372" transform="translate(-80.804 -16.469)"/>
    <path id="Trazado_803072" data-name="Trazado 803072" d="M95.435,8.776a3.854,3.854,0,1,1-3.854-3.854,3.854,3.854,0,0,1,3.854,3.854" transform="translate(-68.159 -3.824)" fill="#fff"/>
    <path id="Trazado_803073" data-name="Trazado 803073" d="M90.8,12.075A4.077,4.077,0,1,1,94.881,8,4.081,4.081,0,0,1,90.8,12.075m0-7.707A3.631,3.631,0,1,0,94.435,8,3.635,3.635,0,0,0,90.8,4.368" transform="translate(-67.382 -3.047)"/>
    <path id="Trazado_803074" data-name="Trazado 803074" d="M242.026,69.61a.222.222,0,0,1-.166-.074l-8.3-9.285h-43.9a.223.223,0,1,1,0-.446h44a.223.223,0,0,1,.166.074l8.369,9.36a.223.223,0,0,1-.166.372" transform="translate(-147.179 -46.464)"/>
    <path id="Trazado_803075" data-name="Trazado 803075" d="M180.866,47.381a3.854,3.854,0,1,1-3.854-3.854,3.854,3.854,0,0,1,3.854,3.854" transform="translate(-134.533 -33.818)" fill="#fff"/>
    <path id="Trazado_803076" data-name="Trazado 803076" d="M176.236,50.68a4.077,4.077,0,1,1,4.077-4.077,4.081,4.081,0,0,1-4.077,4.077m0-7.707a3.631,3.631,0,1,0,3.631,3.631,3.635,3.635,0,0,0-3.631-3.631" transform="translate(-133.756 -33.041)"/>
    <rect id="Rect치ngulo_375366" data-name="Rect치ngulo 375366" width="43.272" height="28.372" transform="translate(94.847 15.889)" fill="#fff"/>
    <path id="Trazado_803077" data-name="Trazado 803077" d="M467.692,99.05H424.42a.223.223,0,0,1-.223-.223V70.455a.223.223,0,0,1,.223-.223h43.272a.223.223,0,0,1,.223.223V98.827a.223.223,0,0,1-.223.223M424.643,98.6h42.825V70.678H424.643Z" transform="translate(-329.573 -54.566)"/>
    <path id="Trazado_803078" data-name="Trazado 803078" d="M505.949,87.454a2.084,2.084,0,0,0,.144.2,8.34,8.34,0,0,0-1.459,2.012,2.016,2.016,0,0,0-.237-.074,2.042,2.042,0,1,0-.705,4.013,8.334,8.334,0,0,0,.391,2.454,2.041,2.041,0,1,0,1.917,3.6,2.036,2.036,0,0,0,.2-.144,8.333,8.333,0,0,0,2.012,1.459,2.041,2.041,0,1,0,3.9,1.187,2.066,2.066,0,0,0,.042-.245,8.341,8.341,0,0,0,2.454-.391,2.041,2.041,0,1,0,3.6-1.917,1.98,1.98,0,0,0-.144-.2,8.341,8.341,0,0,0,1.459-2.012,2.041,2.041,0,1,0,1.187-3.9,2.04,2.04,0,0,0-.245-.042A8.332,8.332,0,0,0,520.07,91a2.131,2.131,0,0,0,.22-.116,2.042,2.042,0,0,0-2.137-3.48,2.071,2.071,0,0,0-.2.144,8.334,8.334,0,0,0-2.012-1.459,2.075,2.075,0,0,0,.074-.237,2.042,2.042,0,0,0-3.972-.95,2.083,2.083,0,0,0-.041.245,8.335,8.335,0,0,0-2.454.391,2.013,2.013,0,0,0-.115-.22,2.042,2.042,0,0,0-3.48,2.137m9.358,4.093a3.792,3.792,0,1,1-5.215-1.247,3.792,3.792,0,0,1,5.215,1.247" transform="translate(-389.928 -64.746)" fill="#5479f7"/>
    <path id="Trazado_803079" data-name="Trazado 803079" d="M453.462,127.834a1.2,1.2,0,0,0,.084.119,4.883,4.883,0,0,0-.855,1.178,1.234,1.234,0,0,0-.139-.043,1.2,1.2,0,1,0-.413,2.35,4.88,4.88,0,0,0,.229,1.437,1.2,1.2,0,1,0,1.241,2.022,4.88,4.88,0,0,0,1.178.855,1.2,1.2,0,1,0,2.307.552,4.882,4.882,0,0,0,1.438-.229,1.2,1.2,0,1,0,2.106-1.123,1.23,1.23,0,0,0-.084-.118,4.885,4.885,0,0,0,.855-1.178,1.169,1.169,0,0,0,.139.043,1.2,1.2,0,1,0,.413-2.35,4.875,4.875,0,0,0-.229-1.437,1.2,1.2,0,1,0-1.122-2.106,1.246,1.246,0,0,0-.119.084,4.875,4.875,0,0,0-1.178-.854,1.2,1.2,0,1,0-2.283-.7,1.236,1.236,0,0,0-.024.143,4.872,4.872,0,0,0-1.437.229,1.2,1.2,0,1,0-2.106,1.122m5.481,2.4a2.221,2.221,0,1,1-3.054-.731,2.221,2.221,0,0,1,3.054.731" transform="translate(-350.458 -97.444)" fill="#5479f7"/>
    <path id="Trazado_803080" data-name="Trazado 803080" d="M112.1,195.574a4.8,4.8,0,0,0,1.157-1.762,1.726,1.726,0,0,0-.537-1.912c-.416-.28-.973-.3-1.373-.6a1.62,1.62,0,0,1-.359-1.874,5.558,5.558,0,0,1,1.228-1.627,11.69,11.69,0,0,0,2.886-4.7,6.209,6.209,0,0,0-.777-5.324,4.273,4.273,0,0,0-4.933-1.516,7.2,7.2,0,0,0-2.834,2.9,68.229,68.229,0,0,0-5.258,8.927,22.826,22.826,0,0,0-2.325,10.014,7.983,7.983,0,0,0,.818,3.647,3.911,3.911,0,0,0,2.944,2.111c2.026.178,2.8-1.948,4.09-3.076a63.521,63.521,0,0,0,5.276-5.2" transform="translate(-76.891 -136.714)" fill="#fff"/>
    <path id="Trazado_803081" data-name="Trazado 803081" d="M102.2,203.3c-.085,0-.172,0-.261-.012a4.128,4.128,0,0,1-3.121-2.226,8.049,8.049,0,0,1-.845-3.748,22.964,22.964,0,0,1,2.346-10.113,68.683,68.683,0,0,1,5.274-8.956,7.44,7.44,0,0,1,2.932-2.978,4.465,4.465,0,0,1,5.2,1.588,6.4,6.4,0,0,1,.812,5.517,11.762,11.762,0,0,1-2.937,4.8l-.136.144a4.792,4.792,0,0,0-1.048,1.414,1.4,1.4,0,0,0,.287,1.613,2.134,2.134,0,0,0,.646.285,2.742,2.742,0,0,1,.718.309,1.943,1.943,0,0,1,.626,2.161,4.98,4.98,0,0,1-1.2,1.848,63.977,63.977,0,0,1-5.294,5.217,8.863,8.863,0,0,0-1.032,1.156c-.779.977-1.583,1.986-2.964,1.986m7.817-27.888a3.275,3.275,0,0,0-1.313.263,7.1,7.1,0,0,0-2.737,2.815,68.293,68.293,0,0,0-5.241,8.9A22.53,22.53,0,0,0,98.42,197.3a7.629,7.629,0,0,0,.79,3.546,3.68,3.68,0,0,0,2.768,2c1.305.114,2.049-.819,2.837-1.808a9.3,9.3,0,0,1,1.087-1.213,63.45,63.45,0,0,0,5.257-5.181,4.627,4.627,0,0,0,1.109-1.676,1.515,1.515,0,0,0-.448-1.663,2.375,2.375,0,0,0-.6-.255,2.5,2.5,0,0,1-.779-.354,1.847,1.847,0,0,1-.432-2.135A5.141,5.141,0,0,1,111.141,187l.135-.143a11.343,11.343,0,0,0,2.834-4.611,5.954,5.954,0,0,0-.741-5.131,4.274,4.274,0,0,0-3.352-1.708" transform="translate(-76.115 -135.931)"/>
    <path id="Trazado_803082" data-name="Trazado 803082" d="M44.408,190.547c-1.634-2.5-1.774-6.18.38-8.25.881-.847,2.191-1.64,2.043-2.853a2.428,2.428,0,0,0-.66-1.244c-1.12-1.288-2.626-2.177-3.858-3.357s-2.225-2.867-1.848-4.531a3.992,3.992,0,0,1,3.08-2.823,6.815,6.815,0,0,1,4.283.645c4,1.863,6.492,6.1,7.332,10.434s.269,8.8-.4,13.167a6.647,6.647,0,0,1-.88,2.812c-2.28,3.319-8.079-1.869-9.471-4" transform="translate(-31.376 -130.034)" fill="#fff"/>
    <path id="Trazado_803083" data-name="Trazado 803083" d="M51.045,195.072h-.039c-2.727-.031-6.43-3.438-7.568-5.18-1.606-2.457-1.89-6.32.412-8.533.182-.175.384-.349.579-.518.738-.638,1.5-1.3,1.4-2.148a2.25,2.25,0,0,0-.607-1.125,15.615,15.615,0,0,0-2.183-1.948c-.559-.439-1.137-.893-1.661-1.4-.737-.706-2.4-2.583-1.911-4.741a4.208,4.208,0,0,1,3.25-2.992,7.111,7.111,0,0,1,4.425.66c3.719,1.732,6.507,5.692,7.457,10.594.842,4.342.291,8.742-.4,13.243a6.917,6.917,0,0,1-.917,2.9,2.575,2.575,0,0,1-2.234,1.178m-7.152-28.259a5.023,5.023,0,0,0-1.084.115,3.757,3.757,0,0,0-2.911,2.654c-.439,1.937,1.1,3.667,1.785,4.321.508.487,1.078.934,1.628,1.367a15.925,15.925,0,0,1,2.244,2.006,2.652,2.652,0,0,1,.713,1.364c.132,1.086-.761,1.858-1.549,2.539-.2.172-.388.335-.561.5-2.135,2.052-1.853,5.663-.347,7.967,1.136,1.739,4.733,4.95,7.2,4.978a2.12,2.12,0,0,0,1.9-.984,6.477,6.477,0,0,0,.844-2.719c.685-4.461,1.231-8.82.4-13.091-.923-4.762-3.618-8.6-7.207-10.274a7.425,7.425,0,0,0-3.057-.744" transform="translate(-30.592 -129.257)"/>
    <path id="Trazado_803084" data-name="Trazado 803084" d="M66.078,210.943a.222.222,0,0,1-.15-.058c-2.2-2-2.173-5.4-1.958-7.249.1-.822.243-1.652.385-2.455a19.432,19.432,0,0,0,.45-5.029c-.2-2.346-1.724-5.009-4.139-5.324a.223.223,0,1,1,.058-.442c2.674.349,4.3,3.145,4.526,5.727a19.771,19.771,0,0,1-.455,5.145c-.141.8-.288,1.619-.382,2.428-.205,1.762-.242,5,1.815,6.868a.223.223,0,0,1-.15.388" transform="translate(-46.982 -147.917)"/>
    <path id="Trazado_803085" data-name="Trazado 803085" d="M76.15,145.4c.63-1.445,1.575-2.84,1.573-4.417,0-2.283-1.933-4.012-3.294-5.845a11.772,11.772,0,0,1-1.539-11.6c1.689-3.727,6.015-6.219,10.012-5.344a5.161,5.161,0,0,1,3.561,2.425c.788,1.514.445,3.356-.065,4.985s-1.176,3.288-.977,4.982c.355,3.006,3.293,5.147,3.909,8.111.639,3.078-1.375,6.044-3.466,8.391a34.57,34.57,0,0,0-3.387,4.107c-1.106,1.712-1.236,3.24-1.622,5.166-.411,2.051-1.789,2.287-3.134.815a10.47,10.47,0,0,1-2.311-5.21,11.6,11.6,0,0,1,.742-6.566" transform="translate(-55.931 -91.693)" fill="#fff"/>
    <path id="Trazado_803086" data-name="Trazado 803086" d="M78.578,157.576a2.623,2.623,0,0,1-1.819-1.016,10.876,10.876,0,0,1-2.366-5.323,11.894,11.894,0,0,1,.757-6.693c.158-.362.336-.724.509-1.074a7.463,7.463,0,0,0,1.045-3.253c0-1.713-1.176-3.145-2.312-4.53-.316-.386-.643-.784-.939-1.182a11.929,11.929,0,0,1-1.563-11.826,9.541,9.541,0,0,1,10.263-5.47,5.348,5.348,0,0,1,3.711,2.539c.865,1.662.428,3.628-.05,5.155-.073.235-.15.47-.227.707a10.008,10.008,0,0,0-.741,4.183,9.756,9.756,0,0,0,1.943,4.158,11.514,11.514,0,0,1,1.962,3.934c.7,3.37-1.673,6.514-3.518,8.585-.2.225-.4.449-.6.673a27.438,27.438,0,0,0-2.762,3.407,10.519,10.519,0,0,0-1.416,4.176c-.055.3-.111.6-.174.913-.208,1.037-.68,1.707-1.331,1.888a1.362,1.362,0,0,1-.367.05m-3.019-12.853a11.444,11.444,0,0,0-.726,6.439,10.43,10.43,0,0,0,2.255,5.1c.611.669,1.244.975,1.737.837s.84-.682,1.013-1.546c.062-.312.118-.613.173-.907a10.87,10.87,0,0,1,1.48-4.336,27.778,27.778,0,0,1,2.806-3.464q.3-.335.6-.67c1.781-2,4.073-5.024,3.414-8.2a11.186,11.186,0,0,0-1.9-3.777,10.227,10.227,0,0,1-2.016-4.353,10.337,10.337,0,0,1,.76-4.373c.077-.235.153-.469.226-.7.452-1.445.87-3.3.08-4.815a4.908,4.908,0,0,0-3.41-2.31,9.081,9.081,0,0,0-9.761,5.218,11.478,11.478,0,0,0,1.515,11.375c.29.39.613.784.926,1.166,1.185,1.445,2.41,2.94,2.413,4.812a7.9,7.9,0,0,1-1.091,3.452c-.171.346-.347.7-.5,1.054" transform="translate(-55.135 -90.926)"/>
    <path id="Trazado_803087" data-name="Trazado 803087" d="M100.3,172.234a.221.221,0,0,1-.169-.077c-1.634-1.88-1.464-4.69-.76-6.691a23.245,23.245,0,0,1,1.992-3.964c.4-.684.814-1.391,1.179-2.1,1.257-2.462,1.6-4.614,1.024-6.4a10.648,10.648,0,0,0-1.92-3.155,17.275,17.275,0,0,1-1.467-2.1,8.8,8.8,0,0,1,.586-9.281.223.223,0,0,1,.358.265,8.345,8.345,0,0,0-.556,8.8,16.984,16.984,0,0,0,1.43,2.042,11.14,11.14,0,0,1,1.992,3.291c.616,1.9.262,4.165-1.052,6.737-.37.724-.787,1.437-1.191,2.126a22.915,22.915,0,0,0-1.957,3.886c-.663,1.883-.833,4.515.675,6.251a.223.223,0,0,1-.168.369" transform="translate(-76.807 -107.512)"/>
    <path id="Trazado_803088" data-name="Trazado 803088" d="M77.245,287.005H52.061l1.716,19.255H75.529Z" transform="translate(-40.448 -222.984)" fill="#fff"/>
    <path id="Trazado_803089" data-name="Trazado 803089" d="M74.753,305.707H53a.223.223,0,0,1-.222-.2l-1.716-19.255a.223.223,0,0,1,.222-.243H76.468a.223.223,0,0,1,.222.243L74.975,305.5a.223.223,0,0,1-.222.2M53.2,305.261H74.548l1.676-18.809h-24.7Z" transform="translate(-39.671 -222.208)"/>
    <path id="Trazado_803090" data-name="Trazado 803090" d="M35.423,316.587H.662a.223.223,0,0,1-.223-.223V300.232a.223.223,0,0,1,.446,0V316.14H35.423a.223.223,0,0,1,0,.446" transform="translate(-0.341 -233.087)"/>
    <path id="Trazado_803091" data-name="Trazado 803091" d="M705.353,240.027a27.867,27.867,0,1,1-27.867-27.867,27.867,27.867,0,0,1,27.867,27.867" transform="translate(-504.712 -164.834)" fill="#e2eaff"/>
    <path id="Trazado_803092" data-name="Trazado 803092" d="M667.086,260.973a30.725,30.725,0,1,1,2.369-.09q-1.188.09-2.369.09m-20.276-48.12a26.793,26.793,0,1,0,37.782-2.868,26.823,26.823,0,0,0-37.782,2.868" transform="translate(-494.509 -155.124)"/>
    <path id="Trazado_803093" data-name="Trazado 803093" d="M542.32,451.439a2.158,2.158,0,0,1-1.526-3.684l28.474-28.473a2.158,2.158,0,1,1,3.051,3.051l-28.473,28.474a2.151,2.151,0,0,1-1.526.632" transform="translate(-419.671 -325.264)"/>
    <path id="Trazado_803094" data-name="Trazado 803094" d="M744.574,291.776a9.437,9.437,0,0,0-9.437-9.437h-4.755a9.437,9.437,0,0,0-9.437,9.437v9.762h5.145v5.226h13.34v-5.226h5.145Z" transform="translate(-560.127 -219.359)"/>
    <path id="Trazado_803095" data-name="Trazado 803095" d="M788.863,328.343a2.519,2.519,0,1,1-2.519-2.519,2.519,2.519,0,0,1,2.519,2.519" transform="translate(-608.981 -253.144)" fill="#e2eaff"/>
    <path id="Trazado_803096" data-name="Trazado 803096" d="M746.45,328.343a2.519,2.519,0,1,1-2.519-2.519,2.519,2.519,0,0,1,2.519,2.519" transform="translate(-576.028 -253.144)" fill="#e2eaff"/>
    <path id="Trazado_803097" data-name="Trazado 803097" d="M755.179,372.877a.223.223,0,0,1-.223-.223v-5.283a.223.223,0,0,1,.446,0v5.283a.223.223,0,0,1-.223.223" transform="translate(-586.551 -285.25)" fill="#e2eaff"/>
    <path id="Trazado_803098" data-name="Trazado 803098" d="M767.117,372.877a.223.223,0,0,1-.223-.223v-5.283a.223.223,0,1,1,.446,0v5.283a.223.223,0,0,1-.223.223" transform="translate(-595.826 -285.25)" fill="#e2eaff"/>
    <path id="Trazado_803099" data-name="Trazado 803099" d="M779.054,372.877a.223.223,0,0,1-.223-.223v-5.283a.223.223,0,0,1,.446,0v5.283a.223.223,0,0,1-.223.223" transform="translate(-605.101 -285.25)" fill="#e2eaff"/>
    <path id="Trazado_803100" data-name="Trazado 803100" d="M790.992,372.877a.223.223,0,0,1-.223-.223v-5.283a.223.223,0,1,1,.446,0v5.283a.223.223,0,0,1-.223.223" transform="translate(-614.376 -285.25)" fill="#e2eaff"/>
  </g>
</svg>
