<svg id="_8" data-name="8" xmlns="http://www.w3.org/2000/svg" xmlns:xlink="http://www.w3.org/1999/xlink" width="273.55" height="227.37" viewBox="0 0 273.55 227.37">
  <defs>
    <clipPath id="clip-path">
      <rect id="Rectángulo_375064" data-name="Rectángulo 375064" width="273.55" height="227.37" fill="none"/>
    </clipPath>
  </defs>
  <g id="Grupo_1067306" data-name="Grupo 1067306" clip-path="url(#clip-path)">
    <path id="Trazado_802269" data-name="Trazado 802269" d="M184.509,93.987H89.041A9.983,9.983,0,0,1,79.058,84V9.982A9.983,9.983,0,0,1,89.041,0h95.468a9.982,9.982,0,0,1,9.982,9.982V84a9.982,9.982,0,0,1-9.982,9.982" fill="#1e5af9"/>
    <path id="Trazado_802270" data-name="Trazado 802270" d="M92.573,12.216h7.06c4.939,0,7.062,2.3,7.062,6.974v1.863c0,3.119-1,5.111-3.119,5.978v.086c2.383.737,3.162,2.99,3.162,6.411v5.329a8.92,8.92,0,0,0,.521,3.682h-4.853a9.321,9.321,0,0,1-.433-3.725V33.269c0-2.816-.823-3.726-2.989-3.726H97.338v13H92.573Zm6.5,13c1.775,0,2.858-.779,2.858-3.2v-2.34c0-2.165-.736-3.118-2.425-3.118H97.338v8.663Z" fill="#fff"/>
    <rect id="Rectángulo_375062" data-name="Rectángulo 375062" width="4.765" height="30.323" transform="translate(110.029 12.216)" fill="#fff"/>
    <path id="Trazado_802271" data-name="Trazado 802271" d="M118.345,12.216h13v4.332H123.11v8.014h6.542v4.332H123.11v9.313h8.231v4.332h-13Z" fill="#fff"/>
    <path id="Trazado_802272" data-name="Trazado 802272" d="M133.332,35.349V33.616h4.505v2.079c0,2.166.953,2.946,2.47,2.946s2.468-.78,2.468-3.032c0-2.513-.953-4.115-4.072-6.845-3.985-3.509-5.284-5.978-5.284-9.443,0-4.766,2.469-7.538,7.1-7.538s6.931,2.772,6.931,7.624v1.256h-4.5V19.1c0-2.166-.867-2.989-2.383-2.989s-2.382.823-2.382,2.9c0,2.209,1,3.812,4.115,6.541,3.985,3.509,5.242,5.936,5.242,9.7,0,4.939-2.513,7.711-7.191,7.711s-7.018-2.772-7.018-7.624" fill="#fff"/>
    <path id="Trazado_802273" data-name="Trazado 802273" d="M149.921,35.349V19.407c0-4.852,2.426-7.624,7.1-7.624s7.105,2.772,7.105,7.624v2.6h-4.506V19.1c0-2.166-.953-2.989-2.469-2.989s-2.469.823-2.469,2.989V35.695c0,2.166.953,2.946,2.469,2.946s2.469-.78,2.469-2.946V29.76h-2.382V25.428h6.888v9.921c0,4.852-2.426,7.624-7.105,7.624s-7.1-2.772-7.1-7.624" fill="#fff"/>
    <path id="Trazado_802274" data-name="Trazado 802274" d="M166.857,35.349V19.407c0-4.852,2.556-7.624,7.234-7.624s7.235,2.772,7.235,7.624V35.349c0,4.852-2.556,7.624-7.235,7.624s-7.234-2.772-7.234-7.624m9.7.3V19.1c0-2.166-.953-2.989-2.469-2.989s-2.469.823-2.469,2.989V35.652c0,2.166.953,2.989,2.469,2.989s2.469-.823,2.469-2.989" fill="#fff"/>
    <path id="Trazado_802275" data-name="Trazado 802275" d="M273.55,190.612H0a136.777,136.777,0,0,1,273.55,0" fill="#01c3fd"/>
    <path id="Trazado_802276" data-name="Trazado 802276" d="M266.74,190.612H6.81a129.967,129.967,0,0,1,259.93,0" fill="#fff"/>
    <path id="Trazado_802277" data-name="Trazado 802277" d="M266.74,190.612H6.81a129.967,129.967,0,0,1,259.93,0Z" fill="none" stroke="#263238" stroke-linejoin="round" stroke-width="1"/>
    <path id="Trazado_802278" data-name="Trazado 802278" d="M211.94,85.262l-74.66,105.35-.5.7-.5-.7L61.62,85.272a130.019,130.019,0,0,1,150.32-.01" fill="#fff"/>
    <path id="Trazado_802279" data-name="Trazado 802279" d="M211.94,85.262l-74.66,105.35-.5.7-.5-.7L61.62,85.272a130.019,130.019,0,0,1,150.32-.01Z" fill="none" stroke="#263238" stroke-linejoin="round" stroke-width="1"/>
    <path id="Trazado_802280" data-name="Trazado 802280" d="M188,190.612H85.55a51.23,51.23,0,0,1,102.45,0" fill="#fff"/>
    <path id="Trazado_802281" data-name="Trazado 802281" d="M188,190.612H85.55a51.23,51.23,0,0,1,102.45,0Z" fill="none" stroke="#263238" stroke-linejoin="round" stroke-width="1"/>
    <path id="Trazado_802282" data-name="Trazado 802282" d="M97.864,225.381h0a6.008,6.008,0,0,1,.479-8.512l104.813-91.623,5.351,5.947L106.379,225.8a6.007,6.007,0,0,1-8.515-.418" fill="#44449a"/>
    <path id="Trazado_802283" data-name="Trazado 802283" d="M131.841,219.848a29.068,29.068,0,1,0-25.15-32.517A29.067,29.067,0,0,0,131.841,219.848Z" fill="none" stroke="#44449a" stroke-miterlimit="10" stroke-width="1"/>
    <path id="Trazado_802284" data-name="Trazado 802284" d="M133.515,206.738A15.851,15.851,0,1,0,119.8,189.006a15.851,15.851,0,0,0,13.715,17.732" fill="#44449a"/>
    <path id="Trazado_802285" data-name="Trazado 802285" d="M34.015,142.993h4.359c2.994,0,4.281,1.393,4.281,4.229v.735c0,1.891-.578,3.072-1.865,3.6v.051c1.55.526,2.154,1.892,2.154,3.834v1.577c0,2.836-1.5,4.359-4.386,4.359H34.015Zm4.018,7.485c1.077,0,1.733-.473,1.733-1.944v-1.023c0-1.314-.446-1.891-1.471-1.891H36.9v4.858Zm.525,8.272c.972,0,1.5-.446,1.5-1.812v-1.6c0-1.706-.552-2.232-1.865-2.232H36.9v5.646Z" fill="#d7335e"/>
    <path id="Trazado_802286" data-name="Trazado 802286" d="M46.857,142.994H50.77l2.993,18.383H50.875l-.526-3.651v.053H47.067l-.525,3.6H43.863Zm3.151,12.291L48.721,146.2h-.052l-1.261,9.087Z" fill="#d7335e"/>
    <path id="Trazado_802287" data-name="Trazado 802287" d="M54.5,161.376V158.75a3.853,3.853,0,0,0,.945.1c1.156,0,1.707-.551,1.707-1.759v-14.1H60.04v14.024c0,3.019-1.366,4.464-4.2,4.464a6.991,6.991,0,0,1-1.339-.1" fill="#d7335e"/>
    <path id="Trazado_802288" data-name="Trazado 802288" d="M61.9,157.017v-9.664c0-2.941,1.549-4.621,4.385-4.621s4.386,1.68,4.386,4.621v9.664c0,2.942-1.55,4.622-4.386,4.622s-4.385-1.68-4.385-4.622m5.882.184V147.17c0-1.313-.578-1.813-1.5-1.813s-1.5.5-1.5,1.813V157.2c0,1.313.578,1.812,1.5,1.812s1.5-.5,1.5-1.812" fill="#d7335e"/>
    <path id="Trazado_802289" data-name="Trazado 802289" d="M112.049,82.7h4.123l1.838,13.156h.053L119.9,82.7h4.123v18.382h-2.731V87.163h-.053l-2.1,13.918h-2.416l-2.1-13.918h-.053v13.918h-2.521Z" fill="#d7335e"/>
    <path id="Trazado_802290" data-name="Trazado 802290" d="M126.177,82.7h7.878v2.626h-4.989v4.858h3.965v2.626h-3.965v5.646h4.989v2.626h-7.878Z" fill="#d7335e"/>
    <path id="Trazado_802291" data-name="Trazado 802291" d="M135.71,82.7h4.411c2.889,0,4.307,1.6,4.307,4.543v9.3c0,2.941-1.418,4.543-4.307,4.543H135.71Zm4.36,15.755c.918,0,1.469-.472,1.469-1.784V87.11c0-1.312-.551-1.785-1.469-1.785H138.6V98.454Z" fill="#d7335e"/>
    <rect id="Rectángulo_375063" data-name="Rectángulo 375063" width="2.889" height="18.382" transform="translate(146.372 82.699)" fill="#d7335e"/>
    <path id="Trazado_802292" data-name="Trazado 802292" d="M151.2,96.721V87.058c0-2.941,1.549-4.622,4.385-4.622s4.386,1.681,4.386,4.622v9.663c0,2.942-1.55,4.622-4.386,4.622s-4.385-1.68-4.385-4.622m5.882.185V86.874c0-1.313-.578-1.812-1.5-1.812s-1.5.5-1.5,1.812V96.906c0,1.312.578,1.812,1.5,1.812s1.5-.5,1.5-1.812" fill="#d7335e"/>
    <path id="Trazado_802293" data-name="Trazado 802293" d="M204.956,142.995h3.913l2.993,18.382h-2.888l-.526-3.651v.053h-3.282l-.525,3.6h-2.679Zm3.151,12.29L206.82,146.2h-.052l-1.261,9.087Z" fill="#d7335e"/>
    <path id="Trazado_802294" data-name="Trazado 802294" d="M213.254,142.995h2.889v15.756H220.9v2.626h-7.642Z" fill="#d7335e"/>
    <path id="Trazado_802295" data-name="Trazado 802295" d="M222.5,145.621h-3.02v-2.626h8.929v2.626h-3.02v15.756H222.5Z" fill="#d7335e"/>
    <path id="Trazado_802296" data-name="Trazado 802296" d="M229.484,157.017v-9.663c0-2.941,1.549-4.622,4.385-4.622s4.386,1.681,4.386,4.622v9.663c0,2.942-1.55,4.622-4.386,4.622s-4.385-1.68-4.385-4.622m5.882.185V147.17c0-1.313-.578-1.812-1.5-1.812s-1.5.5-1.5,1.812V157.2c0,1.312.578,1.812,1.5,1.812s1.5-.5,1.5-1.812" fill="#d7335e"/>
  </g>
</svg>
