<svg xmlns="http://www.w3.org/2000/svg" width="85" height="85" viewBox="0 0 85 85">
  <g id="intro1" transform="translate(-180 -446)">
    <rect id="Rectángulo_373435" data-name="Rectángulo 373435" width="85" height="85" rx="5" transform="translate(180 446)" fill="#01c3fd"/>
    <g id="neural" transform="translate(191 457)">
      <path id="Trazado_801306" data-name="Trazado 801306" d="M17,44a6.844,6.844,0,0,1-.74,3.13A7,7,0,1,1,17,44Z" fill="#f6db40"/>
      <path id="Trazado_801307" data-name="Trazado 801307" d="M37.31,49.45A6.9,6.9,0,0,1,39,54a7,7,0,1,1-13.61-2.3,6.991,6.991,0,0,1,11.92-2.25Z" fill="#71d2df"/>
      <path id="Trazado_801308" data-name="Trazado 801308" d="M54,25a7,7,0,0,1,0,14,7.029,7.029,0,0,1-7-7,5.862,5.862,0,0,1,.07-.94A6.985,6.985,0,0,1,54,25Z" fill="#f6db40"/>
      <path id="Trazado_801309" data-name="Trazado 801309" d="M38.93,29.94A7,7,0,0,1,25,29a6.844,6.844,0,0,1,.74-3.13A7,7,0,0,1,39,29,5.862,5.862,0,0,1,38.93,29.94Z" fill="#db535b"/>
      <path id="Trazado_801310" data-name="Trazado 801310" d="M32,3a7,7,0,1,1,0,14,7,7,0,0,1-7-7A7,7,0,0,1,32,3Z" fill="#8360f4"/>
      <path id="Trazado_801311" data-name="Trazado 801311" d="M16.58,15.61A6.981,6.981,0,0,1,17,18a6.844,6.844,0,0,1-.74,3.13,7,7,0,1,1,.32-5.52Z" fill="#6599ed"/>
      <path id="Trazado_801312" data-name="Trazado 801312" d="M13.464,36.8a8,8,0,1,0,3.184,11.643L24.2,52.226a8,8,0,1,0,14.42-2.7l10.619-11.1A8,8,0,1,0,49.1,25.688L38.312,14.9A8,8,0,1,0,24.2,11.769l-7.092,2.584A8,8,0,1,0,13.2,25.327l3.681,6.195ZM10,50a6,6,0,1,1,6-6A6.006,6.006,0,0,1,10,50Zm7.539-3.349a7.946,7.946,0,0,0-2.394-8.768l2.876-4.442,8.671,14.591a8.029,8.029,0,0,0-1.794,2.3ZM32,18a7.953,7.953,0,0,0,4.9-1.688L47.689,27.1a7.964,7.964,0,0,0-1.41,2.839L40,29.078c0-.026,0-.052,0-.078a8,8,0,0,0-14.648-4.443l-1.193-.6L28.537,17.2A7.934,7.934,0,0,0,32,18Zm1,28.069V36.93a8.01,8.01,0,0,0,6.722-5.872L46,31.922c0,.026,0,.052,0,.078a7.956,7.956,0,0,0,1.795,5.04l-10.5,10.979A7.966,7.966,0,0,0,33,46.069ZM32,23a6,6,0,1,1-6,6A6.006,6.006,0,0,1,32,23Zm-7.539,3.349A7.97,7.97,0,0,0,31,36.931V46.07a7.934,7.934,0,0,0-2.658.824L19.234,31.567l3.831-5.916ZM32,60a6,6,0,1,1,6-6A6.006,6.006,0,0,1,32,60ZM54,26a6,6,0,1,1-6,6A6.006,6.006,0,0,1,54,26ZM32,4a6,6,0,1,1-6,6A6.006,6.006,0,0,1,32,4Zm-7.111,9.647a8.054,8.054,0,0,0,1.967,2.47l-4.5,6.944-4.82-2.41a7.83,7.83,0,0,0,.256-4.42ZM4,18a6,6,0,1,1,6,6A6.006,6.006,0,0,1,4,18Zm10.915,6.3a8.067,8.067,0,0,0,1.733-1.856l4.617,2.308-3.171,4.9Z" fill="#1a1a1a"/>
    </g>
  </g>
</svg>
