<svg id="cyber" xmlns="http://www.w3.org/2000/svg" width="62" height="62" viewBox="0 0 62 62">
  <g id="Grupo_1068659" data-name="Grupo 1068659">
    <g id="Grupo_1068651" data-name="Grupo 1068651">
      <path id="Trazado_804506" data-name="Trazado 804506" d="M53,51H5V21a4,4,0,0,1,4-4H49a4,4,0,0,1,4,4Z" fill="#ccd1d9"/>
    </g>
    <g id="Grupo_1068652" data-name="Grupo 1068652">
      <path id="Trazado_804507" data-name="Trazado 804507" d="M39.47,51l-2.24,5.44A3.127,3.127,0,0,0,37,57.61v.31A3,3,0,0,0,37.2,59H7a6,6,0,0,1-6-6V51H21v2a2.006,2.006,0,0,0,2,2h8a2.006,2.006,0,0,0,2-2V51Z" fill="#aab2bd"/>
    </g>
    <g id="Grupo_1068653" data-name="Grupo 1068653">
      <path id="Trazado_804508" data-name="Trazado 804508" d="M33,51v2a2.006,2.006,0,0,1-2,2H23a2.006,2.006,0,0,1-2-2V51Z" fill="#fcd770"/>
    </g>
    <g id="Grupo_1068654" data-name="Grupo 1068654">
      <path id="Trazado_804509" data-name="Trazado 804509" d="M49,47H10a1,1,0,0,1-1-1V22a1,1,0,0,1,1-1H48a1,1,0,0,1,1,1Z" fill="#69d6f4"/>
    </g>
    <g id="Grupo_1068655" data-name="Grupo 1068655">
      <path id="Trazado_804510" data-name="Trazado 804510" d="M43.83,21A15.763,15.763,0,0,1,45,27a16,16,0,0,1-32,0,15.763,15.763,0,0,1,1.17-6,15.552,15.552,0,0,1,2.34-4,16,16,0,0,1,24.98,0,15.552,15.552,0,0,1,2.34,4Z" fill="#4fc1e9"/>
    </g>
    <g id="Grupo_1068656" data-name="Grupo 1068656">
      <path id="Trazado_804511" data-name="Trazado 804511" d="M53,37.8l7.76,18.63A3.048,3.048,0,0,1,61,57.62v.3A3.081,3.081,0,0,1,57.92,61H40.08a3.065,3.065,0,0,1-2.88-2,3,3,0,0,1-.2-1.08v-.31a3.127,3.127,0,0,1,.23-1.17L39.47,51l1.64-4,4.98-12.09A3.091,3.091,0,0,1,48.93,33H49a3.093,3.093,0,0,1,2.79,1.89Z" fill="#ffeaa7"/>
    </g>
    <g id="Grupo_1068657" data-name="Grupo 1068657">
      <circle id="Elipse_8664" data-name="Elipse 8664" cx="2" cy="2" r="2" transform="translate(47 53)" fill="#ff826e"/>
    </g>
    <g id="Grupo_1068658" data-name="Grupo 1068658">
      <path id="Trazado_804512" data-name="Trazado 804512" d="M51,40.88a1.927,1.927,0,0,1-.01.24l-.87,6.89a1.129,1.129,0,0,1-2.24,0l-.87-6.89a1.927,1.927,0,0,1-.01-.24A1.878,1.878,0,0,1,48.88,39h.24A1.878,1.878,0,0,1,51,40.88Z" fill="#ff826e"/>
    </g>
  </g>
  <g id="Grupo_1068660" data-name="Grupo 1068660">
    <path id="Trazado_804513" data-name="Trazado 804513" d="M61.686,56.046,54,37.6V21a5.006,5.006,0,0,0-5-5H41.938A16.952,16.952,0,0,0,30,10.051V5a1,1,0,0,1,1-1H52V2H31a3,3,0,0,0-3,3v5.051A16.956,16.956,0,0,0,16.062,16H9a5.006,5.006,0,0,0-5,5V50H0v3a7.008,7.008,0,0,0,7,7H36.591a4.072,4.072,0,0,0,3.493,2H57.915A4.089,4.089,0,0,0,62,57.916v-.3A4.072,4.072,0,0,0,61.686,56.046ZM49,18a3,3,0,0,1,3,3V33.381a4.058,4.058,0,0,0-2-1.239V22a2,2,0,0,0-2-2H44.474A17.08,17.08,0,0,0,43.4,18ZM40.444,46H10V22h2.753a17,17,0,1,0,32.494,0H48V32.115a4.057,4.057,0,0,0-2.835,2.41Zm-24.7-26h5.034a30.416,30.416,0,0,0-.752,6H14.051a14.878,14.878,0,0,1,1.693-6ZM29,12c2.232,0,4.254,2.387,5.546,6H23.454c1.292-3.613,3.314-6,5.546-6Zm6.159,8a28.363,28.363,0,0,1,.816,6H22.024a28.363,28.363,0,0,1,.816-6Zm8.79,6H37.974a30.416,30.416,0,0,0-.752-6h5.034a14.878,14.878,0,0,1,1.693,6ZM20.026,28a30.416,30.416,0,0,0,.752,6H15.744a14.878,14.878,0,0,1-1.693-6Zm2,0H35.975a28.363,28.363,0,0,1-.816,6H22.841a28.361,28.361,0,0,1-.817-6Zm-.688,8A16.654,16.654,0,0,0,23.9,41.089,15.047,15.047,0,0,1,17.028,36Zm2.118,0H34.547c-1.292,3.613-3.314,6-5.546,6s-4.255-2.387-5.547-6Zm13.21,0h4.308A15.042,15.042,0,0,1,34.1,41.089,16.655,16.655,0,0,0,36.664,36Zm5.592-2H37.222a30.416,30.416,0,0,0,.752-6h5.975a14.878,14.878,0,0,1-1.693,6ZM40.972,18H36.664A16.654,16.654,0,0,0,34.1,12.911,15.047,15.047,0,0,1,40.972,18ZM23.9,12.911A16.654,16.654,0,0,0,21.336,18H17.028A15.047,15.047,0,0,1,23.9,12.911ZM6,21a3,3,0,0,1,3-3h5.6a16.933,16.933,0,0,0-1.078,2H10a2,2,0,0,0-2,2V46a2,2,0,0,0,2,2H39.621L38.8,50H6ZM22,52H32v1a1,1,0,0,1-1,1H23a1,1,0,0,1-1-1ZM7,58a5.006,5.006,0,0,1-5-5V52H20v1a3,3,0,0,0,3,3h8a3,3,0,0,0,3-3V52h3.976l-1.668,4.056A4.055,4.055,0,0,0,36,57.609v.307c0,.029.008.055.008.084Zm53-.084A2.087,2.087,0,0,1,57.916,60H40.084A2.087,2.087,0,0,1,38,57.916v-.307a2.068,2.068,0,0,1,.157-.792l8.857-21.53A2.077,2.077,0,0,1,48.941,34h.005a2.082,2.082,0,0,1,1.92,1.283L59.84,56.815a2.083,2.083,0,0,1,.16.8Z"/>
    <path id="Trazado_804514" data-name="Trazado 804514" d="M49.117,38h-.234A2.886,2.886,0,0,0,46,40.883a2.817,2.817,0,0,0,.022.357l.861,6.892a2.133,2.133,0,0,0,4.233,0l.861-6.89A2.694,2.694,0,0,0,52,40.883,2.886,2.886,0,0,0,49.117,38Zm.876,2.992-.861,6.892a.137.137,0,0,1-.264,0l-.861-6.894A.759.759,0,0,1,48,40.883.884.884,0,0,1,48.883,40h.234a.884.884,0,0,1,.883.883.808.808,0,0,1-.007.109Z"/>
    <path id="Trazado_804515" data-name="Trazado 804515" d="M49,52a3,3,0,1,0,3,3A3,3,0,0,0,49,52Zm0,4a1,1,0,1,1,1-1A1,1,0,0,1,49,56Z"/>
    <path id="Trazado_804516" data-name="Trazado 804516" d="M52,0h2V2H52Z"/>
    <path id="Trazado_804517" data-name="Trazado 804517" d="M52,4h2V6H52Z"/>
    <path id="Trazado_804518" data-name="Trazado 804518" d="M54,2h2V4H54Z"/>
  </g>
</svg>
