<svg xmlns="http://www.w3.org/2000/svg" width="62" height="62" viewBox="0 0 62 62">
  <g id="Filled_outline" data-name="Filled outline" transform="translate(-16 -16)">
    <path id="Trazado_804519" data-name="Trazado 804519" d="M44.133,152H91.667a4.133,4.133,0,0,1,4.133,4.133v32.033a3.1,3.1,0,0,1-3.1,3.1H43.1a3.1,3.1,0,0,1-3.1-3.1V156.133A4.133,4.133,0,0,1,44.133,152Z" transform="translate(-20.9 -118.433)" fill="#348fd9"/>
    <path id="Trazado_804520" data-name="Trazado 804520" d="M118.324,57.209A4.159,4.159,0,0,0,115.4,56H76.133A4.132,4.132,0,0,0,72,60.133V108.7h47.533V60.133A4.159,4.159,0,0,0,118.324,57.209Z" transform="translate(-48.767 -34.833)" fill="#60d1e0"/>
    <g id="Grupo_1068661" data-name="Grupo 1068661" transform="translate(27.366 24.267)">
      <path id="Trazado_804521" data-name="Trazado 804521" d="M104,80h2.067v2.067H104Z" transform="translate(-103.996 -80)" fill="#3fb7c7"/>
      <path id="Trazado_804522" data-name="Trazado 804522" d="M136,80h2.067v2.067H136Z" transform="translate(-131.863 -80)" fill="#3fb7c7"/>
      <path id="Trazado_804523" data-name="Trazado 804523" d="M168,80h2.067v2.067H168Z" transform="translate(-159.729 -80)" fill="#3fb7c7"/>
      <path id="Trazado_804524" data-name="Trazado 804524" d="M104,112h25.833v2.067H104Z" transform="translate(-103.999 -107.867)" fill="#3fb7c7"/>
    </g>
    <path id="Trazado_804525" data-name="Trazado 804525" d="M118.324,57.209A4.159,4.159,0,0,0,115.4,56H76.133A4.132,4.132,0,0,0,72,60.133V108.7h47.533V60.133A4.159,4.159,0,0,0,118.324,57.209Z" transform="translate(-48.767 -34.833)" fill="#60d1e0"/>
    <path id="Trazado_804526" data-name="Trazado 804526" d="M104,80h2.067v2.067H104Z" transform="translate(-76.63 -55.733)" fill="#3fb7c7"/>
    <path id="Trazado_804527" data-name="Trazado 804527" d="M136,80h2.067v2.067H136Z" transform="translate(-104.497 -55.733)" fill="#3fb7c7"/>
    <path id="Trazado_804528" data-name="Trazado 804528" d="M168,80h2.067v2.067H168Z" transform="translate(-132.363 -55.733)" fill="#3fb7c7"/>
    <path id="Trazado_804529" data-name="Trazado 804529" d="M104,112h25.833v2.067H104Z" transform="translate(-76.633 -83.6)" fill="#3fb7c7"/>
    <path id="Trazado_804530" data-name="Trazado 804530" d="M175.267,160,136,199.267h39.267Z" transform="translate(-104.5 -125.4)" fill="#5ac6d4"/>
    <path id="Trazado_804531" data-name="Trazado 804531" d="M60.167,441.033a3.528,3.528,0,0,1-2.495,1.033H50.261a3.528,3.528,0,0,1-2.495-1.033A3.528,3.528,0,0,0,45.272,440H24v3.1a3.1,3.1,0,0,0,3.1,3.1H80.833a3.1,3.1,0,0,0,3.1-3.1V440H62.661a3.528,3.528,0,0,0-2.495,1.033Z" transform="translate(-6.967 -369.233)" fill="#e0e0de"/>
    <path id="Trazado_804532" data-name="Trazado 804532" d="M435.1,440v3.1a3.1,3.1,0,0,1-3.1,3.1h4.133a3.1,3.1,0,0,0,3.1-3.1V440Z" transform="translate(-362.267 -369.233)" fill="#d6d6d4"/>
    <path id="Trazado_804533" data-name="Trazado 804533" d="M440,240h4.133v2.067H440Z" transform="translate(-369.233 -195.067)" fill="#3086cd"/>
    <path id="Trazado_804534" data-name="Trazado 804534" d="M40,376h4.133v2.067H40Z" transform="translate(-20.9 -313.5)" fill="#3086cd"/>
    <path id="Trazado_804535" data-name="Trazado 804535" d="M344,240h12.4v2.067H344Z" transform="translate(-285.633 -195.067)" fill="#5ac6d4"/>
    <path id="Trazado_804536" data-name="Trazado 804536" d="M72,328H96.8v8.267H72Z" transform="translate(-48.767 -271.7)" fill="#5ac6d4"/>
    <path id="Trazado_804537" data-name="Trazado 804537" d="M328,120h20.667v15.5H328Z" transform="translate(-271.7 -90.567)" fill="#ffb531"/>
    <path id="Trazado_804538" data-name="Trazado 804538" d="M344,32.267h4.133a4.133,4.133,0,0,1,8.267,0V36.4h4.133V32.267a8.267,8.267,0,1,0-16.533,0Z" transform="translate(-285.633 -6.967)" fill="#e0e0de"/>
    <path id="Trazado_804539" data-name="Trazado 804539" d="M381.692,155.321a2.067,2.067,0,1,0-3.118,0A4.131,4.131,0,0,0,376,159.145h8.267A4.131,4.131,0,0,0,381.692,155.321Z" transform="translate(-313.5 -118.345)" fill="#95573a"/>
    <path id="Trazado_804540" data-name="Trazado 804540" d="M328,218.039h20.667A18.019,18.019,0,0,0,328,218.039Z" transform="translate(-271.7 -173.106)" fill="#ffa912"/>
    <path id="Trazado_804541" data-name="Trazado 804541" d="M348.667,120H328a18.019,18.019,0,0,0,20.667,0Z" transform="translate(-271.7 -90.567)" fill="#ffcb73"/>
    <path id="Trazado_804542" data-name="Trazado 804542" d="M24,312H52.933v8.267H24Z" transform="translate(-6.967 -257.767)" fill="#ffb531"/>
    <path id="Trazado_804543" data-name="Trazado 804543" d="M24,312H52.933v2.067H24Z" transform="translate(-6.967 -257.767)" fill="#ffa912"/>
    <path id="Trazado_804544" data-name="Trazado 804544" d="M34.067,65.567a3.1,3.1,0,0,1,2.067-2.922V79H38.2V53.167a3.1,3.1,0,0,1,3.1-3.1H69.2V48H41.3a5.172,5.172,0,0,0-5.167,5.167V60.5A5.175,5.175,0,0,0,32,65.567v12.4h2.067Z" transform="translate(-13.933 -27.867)"/>
    <path id="Trazado_804545" data-name="Trazado 804545" d="M76.967,285.7H75.933V264H73.867v21.7H55.695a4.531,4.531,0,0,0-3.225,1.336,2.478,2.478,0,0,1-1.764.731H43.295a2.478,2.478,0,0,1-1.764-.731,4.531,4.531,0,0,0-3.225-1.336H20.133v-4.133H18.067V285.7H17.033A1.033,1.033,0,0,0,16,286.733v3.1a4.138,4.138,0,0,0,4.133,4.133H73.867A4.138,4.138,0,0,0,78,289.833v-3.1A1.033,1.033,0,0,0,76.967,285.7Zm-1.033,4.133a2.069,2.069,0,0,1-2.067,2.067H20.133a2.069,2.069,0,0,1-2.067-2.067v-2.067H38.305a2.478,2.478,0,0,1,1.764.731,4.532,4.532,0,0,0,3.221,1.336H50.71a4.531,4.531,0,0,0,3.221-1.336,2.478,2.478,0,0,1,1.764-.731H75.933Z" transform="translate(0 -215.967)"/>
    <path id="Trazado_804546" data-name="Trazado 804546" d="M432,264h2.067v19.633H432Z" transform="translate(-362.267 -215.967)"/>
    <path id="Trazado_804547" data-name="Trazado 804547" d="M64,400h2.067v2.067H64Z" transform="translate(-41.8 -334.4)"/>
    <path id="Trazado_804548" data-name="Trazado 804548" d="M103.995,80h2.067v2.067h-2.067Z" transform="translate(-76.629 -55.733)"/>
    <path id="Trazado_804549" data-name="Trazado 804549" d="M135.995,80h2.067v2.067h-2.067Z" transform="translate(-104.496 -55.733)"/>
    <path id="Trazado_804550" data-name="Trazado 804550" d="M167.995,80h2.067v2.067h-2.067Z" transform="translate(-132.362 -55.733)"/>
    <path id="Trazado_804551" data-name="Trazado 804551" d="M104,112h25.833v2.067H104Z" transform="translate(-76.633 -83.6)"/>
    <path id="Trazado_804552" data-name="Trazado 804552" d="M208.1,147.935a10.348,10.348,0,0,1,10.252.939l1.19-1.69a12.385,12.385,0,0,0-14.263,0l1.19,1.69A10.336,10.336,0,0,1,208.1,147.935Z" transform="translate(-164.83 -112.272)"/>
    <path id="Trazado_804553" data-name="Trazado 804553" d="M298.7,358.947a25.72,25.72,0,0,0,5.332-8.213l-1.915-.776a23.665,23.665,0,0,1-4.905,7.556Z" transform="translate(-244.884 -290.822)"/>
    <path id="Trazado_804554" data-name="Trazado 804554" d="M207.524,28.4H206.49V25.3a9.3,9.3,0,1,0-18.6,0,1.033,1.033,0,0,0,1.033,1.033h4.133A1.033,1.033,0,0,0,194.09,25.3a3.1,3.1,0,1,1,6.2,0v3.1H186.857a1.033,1.033,0,0,0-1.033,1.033v9.4a18.208,18.208,0,0,0-8.432-2.039h-.145a17.129,17.129,0,0,0-9.664,2.979l1.162,1.709a15.071,15.071,0,0,1,8.5-2.622h.145a16.069,16.069,0,0,1,8.432,2.345v2.491a14,14,0,0,0-8.431-2.769h-.145a13.238,13.238,0,0,0-10.83,5.7l-.5.713,1.7,1.18.5-.712a11.17,11.17,0,0,1,9.134-4.818h.145a11.567,11.567,0,0,1,9.5,4.729,11,11,0,0,1,1.618,3.41,10.77,10.77,0,0,1,0,5.9l1.989.561a12.828,12.828,0,0,0,0-7.026,13.055,13.055,0,0,0-1.919-4.04c-.135-.191-.277-.378-.422-.561h19.365a1.033,1.033,0,0,0,1.033-1.033v-15.5A1.033,1.033,0,0,0,207.524,28.4ZM197.19,20.133a5.176,5.176,0,0,0-5.063,4.133h-2.1A7.233,7.233,0,0,1,204.424,25.3v3.1h-2.067V25.3a5.172,5.172,0,0,0-5.167-5.167Zm9.3,23.767h-18.6V30.467h18.6Z" transform="translate(-130.557)"/>
    <path id="Trazado_804555" data-name="Trazado 804555" d="M376.12,148.03a3.038,3.038,0,0,0,.146-.93,3.1,3.1,0,0,0-6.2,0,3.036,3.036,0,0,0,.146.93A5.141,5.141,0,0,0,368,152.267a1.033,1.033,0,0,0,1.033,1.033H377.3a1.033,1.033,0,0,0,1.033-1.033A5.141,5.141,0,0,0,376.12,148.03Zm-5.877,3.2A3.093,3.093,0,0,1,372,149.4a1.033,1.033,0,0,0,.392-1.631,1.021,1.021,0,0,1-.257-.668,1.033,1.033,0,1,1,2.067,0,1.02,1.02,0,0,1-.257.668,1.033,1.033,0,0,0,.392,1.631,3.093,3.093,0,0,1,1.755,1.834Z" transform="translate(-306.533 -111.467)"/>
    <path id="Trazado_804556" data-name="Trazado 804556" d="M17.033,259.437H37.975l-.127.127,1.461,1.462,1.589-1.589h2.916l-2.9,2.9,1.461,1.461,5.2-5.2a17.635,17.635,0,0,0,4.359-7.148,4.8,4.8,0,0,0-.72-4.329,4.9,4.9,0,0,0-4-2.028H46.69a5,5,0,0,0-4.677,3.418c-.07.2-.146.4-.231.592H39.418a5.175,5.175,0,0,0,.644-1.265,7.058,7.058,0,0,1,6.628-4.811h.527a7.038,7.038,0,0,1,5.655,2.863,6.851,6.851,0,0,1,1.026,6.179,19.734,19.734,0,0,1-4.86,7.991l-3.813,3.813,1.461,1.461,3.813-3.813a21.806,21.806,0,0,0,5.369-8.829,8.9,8.9,0,0,0-1.33-8.023,9.113,9.113,0,0,0-7.322-3.708H46.69a9.125,9.125,0,0,0-8.582,6.2,3.241,3.241,0,0,1-.756,1.208l-.731.731H17.033A1.033,1.033,0,0,0,16,250.137V258.4a1.033,1.033,0,0,0,1.033,1.033ZM46.69,247.161h.527a2.858,2.858,0,0,1,2.328,1.182,2.757,2.757,0,0,1,.417,2.484A15.322,15.322,0,0,1,47,256.178v-3.66a13.3,13.3,0,0,0,1.115-2.763.258.258,0,0,0-.207-.321l-1.942-.329H44a2.888,2.888,0,0,1,2.692-1.943ZM18.067,251.17H44.933v6.2H18.067Z" transform="translate(0 -195.904)"/>
    <path id="Trazado_804557" data-name="Trazado 804557" d="M48,336h2.067v2.067H48Z" transform="translate(-27.867 -278.667)"/>
    <path id="Trazado_804558" data-name="Trazado 804558" d="M80,336h2.067v2.067H80Z" transform="translate(-55.733 -278.667)"/>
    <path id="Trazado_804559" data-name="Trazado 804559" d="M112,336h2.067v2.067H112Z" transform="translate(-83.6 -278.667)"/>
    <path id="Trazado_804560" data-name="Trazado 804560" d="M144,336h2.067v2.067H144Z" transform="translate(-111.467 -278.667)"/>
  </g>
</svg>
