<svg xmlns="http://www.w3.org/2000/svg" width="62" height="62" viewBox="0 0 62 62">
  <g id="autorizacion" transform="translate(-1 -1)">
    <g id="Grupo_1068669" data-name="Grupo 1068669">
      <g id="Grupo_1068662" data-name="Grupo 1068662">
        <circle id="Elipse_8665" data-name="Elipse 8665" cx="8" cy="8" r="8" transform="translate(2 2)" fill="#69d6f4"/>
      </g>
      <g id="Grupo_1068663" data-name="Grupo 1068663">
        <circle id="Elipse_8666" data-name="Elipse 8666" cx="12" cy="12" r="12" transform="translate(36 2)" fill="#ff826e"/>
      </g>
      <g id="Grupo_1068664" data-name="Grupo 1068664">
        <path id="Trazado_804561" data-name="Trazado 804561" d="M16,62H4a2.006,2.006,0,0,1-2-2V50a2.006,2.006,0,0,1,2-2H16a2.006,2.006,0,0,1,2,2V60A2.006,2.006,0,0,1,16,62Z" fill="#fcd770"/>
      </g>
      <g id="Grupo_1068665" data-name="Grupo 1068665">
        <circle id="Elipse_8667" data-name="Elipse 8667" cx="2" cy="2" r="2" transform="translate(8 52)" fill="#ff826e"/>
      </g>
      <g id="Grupo_1068666" data-name="Grupo 1068666">
        <circle id="Elipse_8668" data-name="Elipse 8668" cx="2" cy="2" r="2" transform="translate(8 32)" fill="#ff826e"/>
      </g>
      <g id="Grupo_1068667" data-name="Grupo 1068667">
        <path id="Trazado_804562" data-name="Trazado 804562" d="M60,62H44a9.954,9.954,0,0,1,1.66-5.5L46,56H58l.34.5A9.954,9.954,0,0,1,60,62Z" fill="#5cd6b3"/>
      </g>
      <g id="Grupo_1068668" data-name="Grupo 1068668">
        <path id="Trazado_804563" data-name="Trazado 804563" d="M58,36l2.49.62A1.992,1.992,0,0,1,62,38.56V48.9a5.976,5.976,0,0,1-1.31,3.74L58,56H46l-2.69-3.36A5.976,5.976,0,0,1,42,48.9V44.42a6.108,6.108,0,0,0-.63-2.69l-1.2-2.39A1.618,1.618,0,0,1,41.62,37,4.37,4.37,0,0,1,46,41.38V22a2.006,2.006,0,0,1,2-2,2.015,2.015,0,0,1,2,2V34l4,1Z" fill="#f0d0b4"/>
      </g>
    </g>
    <g id="Grupo_1068670" data-name="Grupo 1068670">
      <path id="Trazado_804564" data-name="Trazado 804564" d="M60.728,35.651,59,35.22h0l-4-1-2-.5-2-.5V26.642a13,13,0,1,0-6,0V37.23A5.326,5.326,0,0,0,41.618,36a2.619,2.619,0,0,0-2.342,3.789l1.195,2.392A5.012,5.012,0,0,1,41,44.416V48.9a7.032,7.032,0,0,0,1.533,4.373l2.232,2.789A10.887,10.887,0,0,0,43,62v1H61V62a10.881,10.881,0,0,0-1.765-5.942l2.232-2.789A7.034,7.034,0,0,0,63,48.9V38.562a3,3,0,0,0-2.272-2.911ZM37,14A11,11,0,1,1,51,24.58V22a3,3,0,0,0-6,0v2.58A10.954,10.954,0,0,1,37,14Zm8.056,47a8.885,8.885,0,0,1,1.44-3.941L46.535,57h10.93l.039.059A8.885,8.885,0,0,1,58.944,61ZM61,48.9a5.014,5.014,0,0,1-1.1,3.123L57.519,55H46.481L44.1,52.019A5.016,5.016,0,0,1,43,48.9V44.417a7.037,7.037,0,0,0-.739-3.13L41.066,38.9A.6.6,0,0,1,41,38.618.618.618,0,0,1,41.618,38,3.387,3.387,0,0,1,45,41.382V46h2V22a1,1,0,1,1,2,0V46h2V35.281l2,.5V46h2V36.281l2,.5V46h2V37.28l1.242.311a1,1,0,0,1,.758.971Z"/>
      <path id="Trazado_804565" data-name="Trazado 804565" d="M55.707,8.707,54.293,7.293,45,16.586l-2.293-2.293-1.414,1.414L45,19.414Z"/>
      <path id="Trazado_804566" data-name="Trazado 804566" d="M17,47.184V46A7,7,0,0,0,3,46v1.184A3,3,0,0,0,1,50V60a3,3,0,0,0,3,3H16a3,3,0,0,0,3-3V50A3,3,0,0,0,17,47.184ZM10,41a5.006,5.006,0,0,1,5,5v1H5V46A5.006,5.006,0,0,1,10,41Zm7,19a1,1,0,0,1-1,1H4a1,1,0,0,1-1-1V50a1,1,0,0,1,1-1H16a1,1,0,0,1,1,1Z"/>
      <path id="Trazado_804567" data-name="Trazado 804567" d="M10,51a2.993,2.993,0,0,0-1,5.816V59h2V56.816A2.993,2.993,0,0,0,10,51Zm0,4a1,1,0,1,1,1-1A1,1,0,0,1,10,55Z"/>
      <path id="Trazado_804568" data-name="Trazado 804568" d="M10,1a9,9,0,1,0,9,9A9.01,9.01,0,0,0,10,1ZM8.412,13a11.214,11.214,0,0,1-.362-2h3.9a11.214,11.214,0,0,1-.362,2Zm2.406,2A11.3,11.3,0,0,1,10,16.4,11.3,11.3,0,0,1,9.182,15ZM8.049,9a11.214,11.214,0,0,1,.362-2h3.177a11.214,11.214,0,0,1,.362,2ZM9.182,5A11.2,11.2,0,0,1,10,3.606,11.2,11.2,0,0,1,10.818,5Zm-2.2,0H5.111a7,7,0,0,1,2.67-1.633A13.243,13.243,0,0,0,6.979,5ZM6.347,7a13.072,13.072,0,0,0-.309,2H3.08a6.937,6.937,0,0,1,.605-2Zm-.309,4a13.072,13.072,0,0,0,.309,2H3.685a6.937,6.937,0,0,1-.605-2Zm.941,4a13.246,13.246,0,0,0,.8,1.633A7.016,7.016,0,0,1,5.11,15Zm6.042,0h1.868a7,7,0,0,1-2.67,1.633,13.243,13.243,0,0,0,.8-1.633Zm.632-2a13.072,13.072,0,0,0,.309-2H16.92a6.937,6.937,0,0,1-.6,2Zm.309-4a13.072,13.072,0,0,0-.309-2h2.662a6.937,6.937,0,0,1,.6,2Zm-.941-4a13.246,13.246,0,0,0-.8-1.633A7.016,7.016,0,0,1,14.89,5Z"/>
      <path id="Trazado_804569" data-name="Trazado 804569" d="M7,34a3,3,0,1,0,3-3A3,3,0,0,0,7,34Zm4,0a1,1,0,1,1-1-1A1,1,0,0,1,11,34Z"/>
      <path id="Trazado_804570" data-name="Trazado 804570" d="M14.949,29.051a7,7,0,0,0-9.9,0l1.414,1.414a5,5,0,0,1,7.07,0Z"/>
      <path id="Trazado_804571" data-name="Trazado 804571" d="M17.778,26.222a11.013,11.013,0,0,0-15.557,0l1.414,1.414a9.01,9.01,0,0,1,12.729,0Z"/>
      <path id="Trazado_804572" data-name="Trazado 804572" d="M30,15.348A6.356,6.356,0,0,0,23.652,9H21v2h2.652A4.352,4.352,0,0,1,28,15.348V33H21v2h7V48.652A4.352,4.352,0,0,1,23.652,53H21v2h2.652A6.356,6.356,0,0,0,30,48.652V35h7V33H30Z"/>
    </g>
  </g>
</svg>
