<svg xmlns="http://www.w3.org/2000/svg" xmlns:xlink="http://www.w3.org/1999/xlink" width="190" height="115" viewBox="0 0 190 115">
  <defs>
    <clipPath id="clip-path">
      <path id="path21" d="M0-682.665H84.763V-597.9H0Z" transform="translate(0 682.665)"/>
    </clipPath>
  </defs>
  <g id="Grupo_1068019" data-name="Grupo 1068019" transform="translate(-180 -8442)">
    <path id="Rectángulo_375112" data-name="Rectángulo 375112" d="M0,0H133a57,57,0,0,1,57,57v1a57,57,0,0,1-57,57H0a0,0,0,0,1,0,0V0A0,0,0,0,1,0,0Z" transform="translate(180 8442)" fill="#ccbcfe"/>
    <g id="g15" transform="translate(233 9139.665)">
      <g id="g17" transform="translate(0 -682.665)">
        <g id="g19" clip-path="url(#clip-path)">
          <g id="g25" transform="translate(32.044 1.656)">
            <path id="path27" d="M-173.845-272.569c1.347-8.625,9.094-10.662,9.085-21.305-.014-11.033-8.555-17.452-16.865-17.335-8.311-.117-16.851,6.3-16.865,17.335-.014,10.643,7.738,12.68,9.085,21.305a3.018,3.018,0,0,1,.413-.023h14.735a3.018,3.018,0,0,1,.413.023" transform="translate(198.49 311.211)" fill="#ffda8f" fill-rule="evenodd"/>
          </g>
          <g id="g29" transform="translate(37.82 40.274)">
            <path id="path31" d="M-26.249-52.466H-11.4a3.731,3.731,0,0,0,3.6-3.717,3.732,3.732,0,0,0-3.308-3.7,3.014,3.014,0,0,0-.413-.023H-26.249a3.016,3.016,0,0,0-.413.023,3.732,3.732,0,0,0-3.308,3.7,3.731,3.731,0,0,0,3.6,3.717Z" transform="translate(29.971 59.904)" fill="#f3eff0" fill-rule="evenodd"/>
          </g>
          <g id="g33" transform="translate(41.424 47.712)">
            <path id="path35" d="M-78.647-53.889a3.829,3.829,0,0,0,3.82-3.82v-3.82H-89.8v3.82a3.828,3.828,0,0,0,3.815,3.82Z" transform="translate(89.797 61.529)" fill="#cdc0c4" fill-rule="evenodd"/>
          </g>
          <g id="g37" transform="translate(14.029 59.032)">
            <path id="path39" d="M-265.4-55.4a4.18,4.18,0,0,0-3.656-2.173h-8.4a2.37,2.37,0,0,1-2.187-.934c-6.194-5.833-11.248-5.547-17.443-3.1a6,6,0,0,1-2.726.572h-3.215v15.692h4.815a4.154,4.154,0,0,1,1.553.291l15.988,4.275c5.622,1.525,7.874,2.924,13.214-.638l19.7-14.031a4.141,4.141,0,0,0,1.309-5.542,4.156,4.156,0,0,0-5.537-1.3Z" transform="translate(303.027 63.256)" fill="#ffdcd5" fill-rule="evenodd"/>
          </g>
          <g id="g41" transform="translate(2.743 58.435)">
            <path id="path43" d="M-79.606-130.553V-146.5a2.562,2.562,0,0,0-2.553-2.557h-6.18a2.562,2.562,0,0,0-2.553,2.557v16.209a2.561,2.561,0,0,0,2.553,2.553h6.18a2.561,2.561,0,0,0,2.553-2.553Z" transform="translate(90.892 149.061)" fill="#ff9eb1" fill-rule="evenodd"/>
          </g>
          <g id="g45" transform="translate(14.029 59.461)">
            <path id="path47" d="M-265.4-52.376l13.421-6.894a4.156,4.156,0,0,1,5.537,1.3,4.141,4.141,0,0,1-1.309,5.542l-19.7,14.031c-5.34,3.562-7.593,2.163-13.214.638l-15.988-4.275a4.154,4.154,0,0,0-1.553-.291h-4.815" transform="translate(303.027 59.801)" fill="none" stroke="#000" stroke-linecap="round" stroke-linejoin="round" stroke-miterlimit="10" stroke-width="3"/>
          </g>
          <g id="g49" transform="translate(2.743 58.435)">
            <path id="path51" d="M-18.006,0h6.18A2.562,2.562,0,0,1-9.273,2.557V18.766a2.561,2.561,0,0,1-2.553,2.553h-6.18a2.561,2.561,0,0,1-2.553-2.553V2.557A2.562,2.562,0,0,1-18.006,0Z" transform="translate(20.559)" fill="none" stroke="#000" stroke-linecap="round" stroke-linejoin="round" stroke-miterlimit="10" stroke-width="3"/>
          </g>
          <g id="g53" transform="translate(14.029 59.032)">
            <path id="path55" d="M0-15.646H3.215a6,6,0,0,0,2.726-.572c6.194-2.445,11.248-2.731,17.442,3.1a2.369,2.369,0,0,0,2.187.934h8.4a4.179,4.179,0,0,1,4.167,4.167A4.178,4.178,0,0,1,33.97-3.853H20.352" transform="translate(0 17.864)" fill="none" stroke="#000" stroke-linecap="round" stroke-linejoin="round" stroke-miterlimit="10" stroke-width="3"/>
          </g>
          <g id="g57" transform="translate(41.424 47.712)">
            <path id="path59" d="M0,0V3.82A3.828,3.828,0,0,0,3.815,7.64H11.15a3.829,3.829,0,0,0,3.82-3.82V0" fill="none" stroke="#000" stroke-linecap="round" stroke-linejoin="round" stroke-miterlimit="10" stroke-width="3"/>
          </g>
          <g id="g61" transform="translate(37.82 40.274)">
            <path id="path63" d="M-130.185,0H-144.92a3.733,3.733,0,0,0-3.721,3.721,3.729,3.729,0,0,0,3.721,3.717h14.735a3.729,3.729,0,0,0,3.721-3.717A3.733,3.733,0,0,0-130.185,0Z" transform="translate(148.641)" fill="none" stroke="#000" stroke-linecap="round" stroke-linejoin="round" stroke-miterlimit="10" stroke-width="3"/>
          </g>
          <g id="g65" transform="translate(32.044 1.656)">
            <path id="path67" d="M-237.465-110.8c.042.53.066,1.075.066,1.628.009,10.643-7.738,12.68-9.085,21.305m-15.561,0c-1.347-8.625-9.1-10.662-9.085-21.305.014-11.033,8.555-17.452,16.865-17.335a16.659,16.659,0,0,1,10.085,3.271" transform="translate(271.13 126.511)" fill="none" stroke="#000" stroke-linecap="round" stroke-linejoin="round" stroke-miterlimit="10" stroke-width="3"/>
          </g>
          <g id="g69" transform="translate(48.909 12.094)">
            <path id="path71" d="M0-72.427V-82.694" transform="translate(0 82.694)" fill="none" stroke="#000" stroke-linecap="round" stroke-linejoin="round" stroke-miterlimit="10" stroke-width="3"/>
          </g>
          <g id="g73" transform="translate(48.909 29.851)">
            <path id="path75" d="M0-.067V-.076" transform="translate(0 0.076)" fill="none" stroke="#000" stroke-linecap="round" stroke-linejoin="round" stroke-miterlimit="10" stroke-width="3"/>
          </g>
          <g id="g77" transform="translate(75.296 20.635)">
            <path id="path79" d="M0,0H6.724" fill="none" stroke="#000" stroke-linecap="round" stroke-linejoin="round" stroke-miterlimit="10" stroke-width="3"/>
          </g>
          <g id="g81" transform="translate(72.513 2.915)">
            <path id="path83" d="M0-26.415,5.579-30.16" transform="translate(0 30.16)" fill="none" stroke="#000" stroke-linecap="round" stroke-linejoin="round" stroke-miterlimit="10" stroke-width="3"/>
          </g>
          <g id="g85" transform="translate(72.513 34.61)">
            <path id="path87" d="M0,0,5.579,3.745" fill="none" stroke="#000" stroke-linecap="round" stroke-linejoin="round" stroke-miterlimit="10" stroke-width="3"/>
          </g>
          <g id="g89" transform="translate(15.798 20.635)">
            <path id="path91" d="M-47.4,0h-6.72" transform="translate(54.12)" fill="none" stroke="#000" stroke-linecap="round" stroke-linejoin="round" stroke-miterlimit="10" stroke-width="3"/>
          </g>
          <g id="g93" transform="translate(19.726 2.915)">
            <path id="path95" d="M-39.356-26.415l-5.579-3.745" transform="translate(44.936 30.16)" fill="none" stroke="#000" stroke-linecap="round" stroke-linejoin="round" stroke-miterlimit="10" stroke-width="3"/>
          </g>
          <g id="g97" transform="translate(19.726 34.61)">
            <path id="path99" d="M-39.356,0l-5.579,3.745" transform="translate(44.936)" fill="none" stroke="#000" stroke-linecap="round" stroke-linejoin="round" stroke-miterlimit="10" stroke-width="3"/>
          </g>
          <g id="g101" transform="translate(63.653 10.287)">
            <path id="path103" d="M-.033-.033l0,0" transform="translate(0.037 0.037)" fill="none" stroke="#000" stroke-linecap="round" stroke-linejoin="round" stroke-miterlimit="10" stroke-width="3"/>
          </g>
        </g>
      </g>
    </g>
  </g>
</svg>
