<svg xmlns="http://www.w3.org/2000/svg" width="100" height="100" viewBox="0 0 100 100">
  <g id="Grupo_1068055" data-name="Grupo 1068055" transform="translate(-600 -9336)">
    <path id="Rectángulo_375467" data-name="Rectángulo 375467" d="M10,0h90a0,0,0,0,1,0,0V100a0,0,0,0,1,0,0H10A10,10,0,0,1,0,90V10A10,10,0,0,1,10,0Z" transform="translate(600 9336)" fill="#b0c5fd"/>
    <g id="problem-solving_1_" data-name="problem-solving(1)" transform="translate(622 9358)">
      <path id="Trazado_803420" data-name="Trazado 803420" d="M56.991,32.671a22.671,22.671,0,0,1,45.343,0" transform="translate(-51.701 -10)" fill="none" stroke="#000" stroke-linecap="round" stroke-linejoin="round" stroke-miterlimit="10" stroke-width="2.2"/>
      <path id="Trazado_803421" data-name="Trazado 803421" d="M422.3,179.691l3.634,2.864,3.128-3.353" transform="translate(-375.297 -159.884)" fill="none" stroke="#000" stroke-linecap="round" stroke-linejoin="round" stroke-miterlimit="10" stroke-width="2.2"/>
      <g id="Grupo_1068023" data-name="Grupo 1068023" transform="translate(13.635 7.832)">
        <g id="Grupo_1068022" data-name="Grupo 1068022">
          <path id="Trazado_803422" data-name="Trazado 803422" d="M158.908,93.015a14.347,14.347,0,0,1-1.789,6.959l-5.981,11.865H137.853l-5.981-11.865a14.414,14.414,0,1,1,27.037-6.959Z" transform="translate(-130.081 -78.601)" fill="#ffce62"/>
          <path id="Trazado_803423" data-name="Trazado 803423" d="M308.4,102.846a14.435,14.435,0,0,0-9.156-16.756" transform="translate(-279.934 -85.235)" fill="none" stroke="#000" stroke-linecap="round" stroke-linejoin="round" stroke-miterlimit="10" stroke-width="2.2"/>
          <path id="Trazado_803424" data-name="Trazado 803424" d="M139.545,86.243a14.42,14.42,0,0,0-7.673,20.5l5.981,11.865h13.285l5.981-11.865a14.325,14.325,0,0,0,1.433-3.762" transform="translate(-130.081 -85.37)" fill="none" stroke="#000" stroke-linecap="round" stroke-linejoin="round" stroke-miterlimit="10" stroke-width="2.2"/>
          <path id="Trazado_803425" data-name="Trazado 803425" d="M209.329,380.352h-9.065a2.109,2.109,0,0,1-2.109-2.109v-8.526h13.284v8.526A2.109,2.109,0,0,1,209.329,380.352Z" transform="translate(-190.382 -336.478)" fill="none" stroke="#000" stroke-linecap="round" stroke-linejoin="round" stroke-miterlimit="10" stroke-width="2.2"/>
          <path id="Trazado_803426" data-name="Trazado 803426" d="M212.862,462.87l1.259,3a2.4,2.4,0,0,0,2.212,1.47h2.887a2.4,2.4,0,0,0,2.212-1.47l1.259-3Z" transform="translate(-203.411 -418.996)" fill="none" stroke="#000" stroke-linecap="round" stroke-linejoin="round" stroke-miterlimit="10" stroke-width="2.2"/>
        </g>
        <path id="Trazado_803427" data-name="Trazado 803427" d="M195.355,220.776v-16.6a2.6,2.6,0,0,0-2.595-2.595h0a2.6,2.6,0,0,0-2.595,2.595v.025a2.6,2.6,0,0,0,2.595,2.595h10.134a2.6,2.6,0,0,0,2.595-2.595v-.025a2.6,2.6,0,0,0-2.595-2.595h-.1a2.6,2.6,0,0,0-2.595,2.595v16.6" transform="translate(-183.305 -187.538)" fill="none" stroke="#000" stroke-linecap="round" stroke-linejoin="round" stroke-miterlimit="10" stroke-width="2.2"/>
      </g>
      <ellipse id="Elipse_8645" data-name="Elipse 8645" cx="6.556" cy="6.556" rx="6.556" ry="6.556" transform="translate(42.911 29.928)" fill="#a0c8ff"/>
      <ellipse id="Elipse_8646" data-name="Elipse 8646" cx="6.556" cy="6.556" rx="6.556" ry="6.556" transform="translate(0 29.928)" fill="#fa8ebb"/>
      <ellipse id="Elipse_8647" data-name="Elipse 8647" cx="6.556" cy="6.556" rx="6.556" ry="6.556" transform="translate(42.911 29.928)" fill="none" stroke="#000" stroke-linecap="round" stroke-linejoin="round" stroke-miterlimit="10" stroke-width="2.2"/>
      <ellipse id="Elipse_8648" data-name="Elipse 8648" cx="6.556" cy="6.556" rx="6.556" ry="6.556" transform="translate(0 29.928)" fill="none" stroke="#000" stroke-linecap="round" stroke-linejoin="round" stroke-miterlimit="10" stroke-width="2.2"/>
      <g id="Grupo_1068024" data-name="Grupo 1068024" transform="translate(4.686 34.585)">
        <line id="Línea_1784" data-name="Línea 1784" x1="3.741" y2="3.741" fill="none" stroke="#000" stroke-linecap="round" stroke-linejoin="round" stroke-miterlimit="10" stroke-width="2.2"/>
        <line id="Línea_1785" data-name="Línea 1785" x1="3.741" y1="3.741" fill="none" stroke="#000" stroke-linecap="round" stroke-linejoin="round" stroke-miterlimit="10" stroke-width="2.2"/>
      </g>
      <path id="Trazado_803428" data-name="Trazado 803428" d="M419.635,318.221l1.793,1.793,3.494-3.494" transform="translate(-372.94 -281.523)" fill="none" stroke="#000" stroke-linecap="round" stroke-linejoin="round" stroke-miterlimit="10" stroke-width="2.2"/>
      <line id="Línea_1786" data-name="Línea 1786" transform="translate(28.049 7.832)" fill="none" stroke="#000" stroke-linecap="round" stroke-linejoin="round" stroke-miterlimit="10" stroke-width="2.2"/>
    </g>
  </g>
</svg>
