<svg id="Grupo_1068053" data-name="Grupo 1068053" xmlns="http://www.w3.org/2000/svg" xmlns:xlink="http://www.w3.org/1999/xlink" width="295" height="208.135" viewBox="0 0 295 208.135">
  <defs>
    <clipPath id="clip-path">
      <rect id="Rectángulo_375550" data-name="Rectángulo 375550" width="295" height="208.135" fill="none"/>
    </clipPath>
    <clipPath id="clip-path-4">
      <rect id="Rectángulo_375484" data-name="Rectángulo 375484" width="52.171" height="53.6" fill="none"/>
    </clipPath>
    <clipPath id="clip-path-5">
      <rect id="Rectángulo_375485" data-name="Rectángulo 375485" width="16.46" height="26" fill="none"/>
    </clipPath>
    <clipPath id="clip-path-6">
      <rect id="Rectángulo_375539" data-name="Rectángulo 375539" width="27.362" height="25.04" fill="none"/>
    </clipPath>
    <clipPath id="clip-path-7">
      <rect id="Rectángulo_375540" data-name="Rectángulo 375540" width="30.69" height="34.798" fill="none"/>
    </clipPath>
    <clipPath id="clip-path-8">
      <rect id="Rectángulo_375541" data-name="Rectángulo 375541" width="42.132" height="44.579" fill="none"/>
    </clipPath>
    <clipPath id="clip-path-9">
      <rect id="Rectángulo_375544" data-name="Rectángulo 375544" width="11.834" height="17.598" fill="none"/>
    </clipPath>
    <clipPath id="clip-path-10">
      <rect id="Rectángulo_375547" data-name="Rectángulo 375547" width="31.026" height="3.237" fill="none"/>
    </clipPath>
  </defs>
  <g id="Grupo_1068052" data-name="Grupo 1068052" clip-path="url(#clip-path)">
    <g id="Grupo_1068028" data-name="Grupo 1068028">
      <g id="Grupo_1068027" data-name="Grupo 1068027" clip-path="url(#clip-path)">
        <line id="Línea_1790" data-name="Línea 1790" x2="295" transform="translate(0 202.145)" fill="none" stroke="#716f82" stroke-miterlimit="10" stroke-width="7"/>
      </g>
    </g>
    <rect id="Rectángulo_375471" data-name="Rectángulo 375471" width="25.009" height="53.792" transform="translate(42.698 49.68)" fill="#072050"/>
    <g id="Grupo_1068051" data-name="Grupo 1068051">
      <g id="Grupo_1068050" data-name="Grupo 1068050" clip-path="url(#clip-path)">
        <path id="Trazado_803448" data-name="Trazado 803448" d="M39.445,133.144H119.64V81.362a3.28,3.28,0,0,0-3.28-3.28H42.725a3.28,3.28,0,0,0-3.28,3.28Z" transform="translate(-24.525 -48.548)" fill="#747282"/>
        <path id="Trazado_803449" data-name="Trazado 803449" d="M48.4,229.178h66.325a6.925,6.925,0,0,0,6.925-6.925V219.6H41.471v2.653a6.925,6.925,0,0,0,6.925,6.925" transform="translate(-25.785 -136.538)" fill="#747282"/>
        <path id="Trazado_803450" data-name="Trazado 803450" d="M127.055,81.363v51.785l-19.68-.314-20.6-.329-6.506-.106-20.818-.333-12.6-.2v-50.5a3.278,3.278,0,0,1,3.279-3.276h73.636a3.279,3.279,0,0,1,3.283,3.276" transform="translate(-29.134 -48.551)" fill="#2d2d3a"/>
        <path id="Trazado_803451" data-name="Trazado 803451" d="M54.776,90.128v45.686a.3.3,0,0,0,.3.3h73.6a.3.3,0,0,0,.3-.3V90.128a.3.3,0,0,0-.3-.3h-73.6a.3.3,0,0,0-.3.3" transform="translate(-34.058 -55.85)" fill="#fff"/>
        <path id="Trazado_803452" data-name="Trazado 803452" d="M53.809,229.178h66.325a6.925,6.925,0,0,0,6.925-6.925V219.6H46.884v2.653a6.925,6.925,0,0,0,6.925,6.925" transform="translate(-29.151 -136.538)" fill="#a29fb0"/>
        <path id="Trazado_803453" data-name="Trazado 803453" d="M108.155,267.99h33.522a1.862,1.862,0,0,0,0-3.725H108.155a1.862,1.862,0,0,0,0,3.725" transform="translate(-66.089 -164.309)" fill="#a29fb0"/>
        <path id="Trazado_803454" data-name="Trazado 803454" d="M131.658,101.48H65.732a.994.994,0,0,1-.994-.994V96.64a.994.994,0,0,1,.994-.994h65.926a.994.994,0,0,1,.994.994v3.846a.994.994,0,0,1-.994.994" transform="translate(-40.251 -59.469)" fill="#6e89c4"/>
        <path id="Trazado_803455" data-name="Trazado 803455" d="M74.248,101.021A1.244,1.244,0,1,1,73,99.746a1.26,1.26,0,0,1,1.244,1.275" transform="translate(-44.617 -62.018)" fill="#ea5444"/>
        <path id="Trazado_803456" data-name="Trazado 803456" d="M86.241,101.021A1.244,1.244,0,1,1,85,99.746a1.26,1.26,0,0,1,1.244,1.275" transform="translate(-52.074 -62.018)" fill="#ffc543"/>
        <path id="Trazado_803457" data-name="Trazado 803457" d="M98.235,101.021a1.244,1.244,0,1,1-1.244-1.275,1.26,1.26,0,0,1,1.244,1.275" transform="translate(-59.532 -62.018)" fill="#a2cc3b"/>
        <path id="Trazado_803458" data-name="Trazado 803458" d="M86.91,125.115H64.878a.6.6,0,0,1-.6-.6V117.8a.6.6,0,0,1,.6-.6H86.91a.6.6,0,0,1,.6.6v6.721a.6.6,0,0,1-.6.6" transform="translate(-39.966 -72.868)" fill="#313d6e"/>
        <path id="Trazado_803459" data-name="Trazado 803459" d="M158.406,151.556H136.374a.6.6,0,0,1-.6-.6v-6.72a.6.6,0,0,1,.6-.6h22.032a.6.6,0,0,1,.6.6v6.72a.6.6,0,0,1-.6.6" transform="translate(-84.419 -89.308)" fill="#678c6e"/>
        <path id="Trazado_803460" data-name="Trazado 803460" d="M219.82,125.115H206.5a.6.6,0,0,1-.6-.6V117.8a.6.6,0,0,1,.6-.6H219.82a.6.6,0,0,1,.6.6v6.721a.6.6,0,0,1-.6.6" transform="translate(-128.018 -72.868)" fill="#678c6e"/>
        <path id="Trazado_803461" data-name="Trazado 803461" d="M219.82,151.97H206.5a.6.6,0,0,1-.6-.6v-6.72a.6.6,0,0,1,.6-.6H219.82a.6.6,0,0,1,.6.6v6.72a.6.6,0,0,1-.6.6" transform="translate(-128.018 -89.566)" fill="#ea5444"/>
        <rect id="Rectángulo_375472" data-name="Rectángulo 375472" width="23.229" height="0.568" transform="translate(51.529 50.669)" fill="#072050"/>
        <rect id="Rectángulo_375473" data-name="Rectángulo 375473" width="23.229" height="0.568" transform="translate(51.529 48.648)" fill="#072050"/>
        <rect id="Rectángulo_375474" data-name="Rectángulo 375474" width="23.229" height="0.568" transform="translate(51.529 46.628)" fill="#072050"/>
        <rect id="Rectángulo_375475" data-name="Rectángulo 375475" width="23.229" height="0.568" transform="translate(51.529 44.607)" fill="#072050"/>
        <path id="Trazado_803462" data-name="Trazado 803462" d="M86.91,177.585H64.878a.6.6,0,0,1-.6-.6v-6.72a.6.6,0,0,1,.6-.6H86.91a.6.6,0,0,1,.6.6v6.72a.6.6,0,0,1-.6.6" transform="translate(-39.966 -105.492)" fill="#ea5444"/>
        <rect id="Rectángulo_375476" data-name="Rectángulo 375476" width="23.229" height="0.568" transform="translate(51.529 70.515)" fill="#072050"/>
        <rect id="Rectángulo_375477" data-name="Rectángulo 375477" width="23.229" height="0.568" transform="translate(51.529 68.494)" fill="#072050"/>
        <rect id="Rectángulo_375478" data-name="Rectángulo 375478" width="23.229" height="0.568" transform="translate(51.529 66.474)" fill="#072050"/>
        <rect id="Rectángulo_375479" data-name="Rectángulo 375479" width="23.229" height="0.568" transform="translate(51.529 64.454)" fill="#072050"/>
        <rect id="Rectángulo_375480" data-name="Rectángulo 375480" width="23.229" height="0.568" transform="translate(24.227 60.357)" fill="#072050"/>
        <rect id="Rectángulo_375481" data-name="Rectángulo 375481" width="23.229" height="0.568" transform="translate(24.227 58.337)" fill="#072050"/>
        <rect id="Rectángulo_375482" data-name="Rectángulo 375482" width="23.229" height="0.568" transform="translate(24.227 56.317)" fill="#072050"/>
        <rect id="Rectángulo_375483" data-name="Rectángulo 375483" width="23.229" height="0.568" transform="translate(24.227 54.296)" fill="#072050"/>
        <g id="Grupo_1068031" data-name="Grupo 1068031" transform="translate(30.319 29.536)" opacity="0.55" style="mix-blend-mode: overlay;isolation: isolate">
          <g id="Grupo_1068030" data-name="Grupo 1068030">
            <g id="Grupo_1068029" data-name="Grupo 1068029" clip-path="url(#clip-path-4)">
              <path id="Trazado_803463" data-name="Trazado 803463" d="M132.327,78.087l-24.847,53.6H80.157l24.65-53.6Z" transform="translate(-80.157 -78.087)" fill="#c5cbed"/>
            </g>
          </g>
        </g>
        <path id="Trazado_803464" data-name="Trazado 803464" d="M265.26,7.546l5.134,3.177a8.409,8.409,0,0,1,3.061,10.97,12.365,12.365,0,0,0-.592,1.217c.194-.224-7.864-15.3-7.864-15.3" transform="translate(-164.766 -4.692)" fill="#7c4b39"/>
        <path id="Trazado_803465" data-name="Trazado 803465" d="M218.71,102.281h-2.656a4.444,4.444,0,0,1-4.431-4.431V85.363a4.444,4.444,0,0,1,4.431-4.431h2.656a4.444,4.444,0,0,1,4.431,4.431V97.85a4.444,4.444,0,0,1-4.431,4.431" transform="translate(-131.579 -50.32)" fill="#fcbba4"/>
        <path id="Trazado_803466" data-name="Trazado 803466" d="M223.859,18.219c.119,1.005-4.593,2.706-4.649,3.767l.767,2.13c-5.786-2.1-.682,1.1-.682,1.107-1.718,5.1-1.121,7.92-6.03,9.86a18.022,18.022,0,0,1-7.925,1.212c-3.753-.261-7.086.91-9.81-.388a5.7,5.7,0,0,1-1.6-1.132,18.262,18.262,0,0,1-2.533-3.151c-.277-.451-.547-.9-.792-1.378-1.48-2.858-4.509-11.25-4.263-14.694.681-9.723,10-16.23,20.715-15.494.277.019.546.024.823.04a18.1,18.1,0,0,1,13.76,7.933c.159.238.317.483.467.728v.008c.871,1.417,1.339,7.482,1.339,7.482a11,11,0,0,1,.411,1.971" transform="translate(-115.852 0)" fill="#7c4b39"/>
        <path id="Trazado_803467" data-name="Trazado 803467" d="M235.411,30.813l-.135,2.668-.23,4.426-.36,1.569c-.031.7-.384,4.361-.511,5.026-1.219,6.263-5.331,7.592-11.713,8.384a4.8,4.8,0,0,1-.578.055,13.845,13.845,0,0,1-2.074.048,13.99,13.99,0,0,1-2-.245,14.462,14.462,0,0,1-3.634-1.172.025.025,0,0,1-.016-.008,14.975,14.975,0,0,1-6.643-6.176,14.474,14.474,0,0,1-1.9-6.746c-.008-.166-.008-.332-.008-.506a5.245,5.245,0,0,1,.016-.6v-.1l.016-.483.071-1.259.214-4.347.008-.04V31.3l.04-.808.031-.626.032-.578.008-.151a11.762,11.762,0,0,1,.562-2.9,13.964,13.964,0,0,1,.713-1.9c.04-.1.071-.182.119-.277A12.881,12.881,0,0,1,208.2,22.6v-.008a14.861,14.861,0,0,1,4.228-4.545c.34-.245.7-.475,1.053-.689a15.227,15.227,0,0,1,8.5-2.082,13.244,13.244,0,0,1,6.527,2.145,15.009,15.009,0,0,1,3.357,2.748,14.329,14.329,0,0,1,2.953,5.233c.04.111.072.222.1.332a11.014,11.014,0,0,1,.411,1.972,18.365,18.365,0,0,1,.079,3.111" transform="translate(-127.836 -9.483)" fill="#ffc7b0"/>
        <path id="Trazado_803468" data-name="Trazado 803468" d="M216.767,11.365c3.13,8.625-5.111,7.922-5.495,11.884a37.3,37.3,0,0,0-.319,4.344l-.63,2.029a1.487,1.487,0,0,1-2.914-.419v-.04l.072-3.23-1.608,4.259a24.407,24.407,0,0,1-11.535,13.032A23.22,23.22,0,0,1,184.283,23.6a30.03,30.03,0,0,1,.2-3.4,22.988,22.988,0,0,1,.539-2.977c4.164-16.959,25-11.171,27.006-10.419,2.106.792,4.742,4.56,4.742,4.56" transform="translate(-114.58 -3.264)" fill="#7c4b39"/>
        <path id="Trazado_803469" data-name="Trazado 803469" d="M284.428,71.612c0,.028,0,.224,0,.224-.027.933-.836,1.674-2.837,1.616l.28-7.283c1.625,2.478,2.413,3.918,2.56,5.443" transform="translate(-175.08 -41.141)" fill="#ffc7b0"/>
        <path id="Trazado_803470" data-name="Trazado 803470" d="M277.353,54.163H272.9a.94.94,0,1,1,0-1.88h4.453a.94.94,0,1,1,0,1.88" transform="translate(-169.093 -32.507)" fill="#7c4b39"/>
        <path id="Trazado_803471" data-name="Trazado 803471" d="M278.5,62.285h0a.674.674,0,0,1-.672-.672v-.989a.672.672,0,1,1,1.344,0v.989a.674.674,0,0,1-.672.672" transform="translate(-172.742 -37.276)" fill="#081344"/>
        <g id="Grupo_1068034" data-name="Grupo 1068034" transform="translate(69.703 13.959)" opacity="0.2">
          <g id="Grupo_1068033" data-name="Grupo 1068033">
            <g id="Grupo_1068032" data-name="Grupo 1068032" clip-path="url(#clip-path-5)">
              <path id="Trazado_803472" data-name="Trazado 803472" d="M200.743,58.069a24.479,24.479,0,0,1-6.405,4.838A23.22,23.22,0,0,1,184.283,43.28a29.933,29.933,0,0,1,.2-3.4,22.879,22.879,0,0,1,.539-2.977A32.391,32.391,0,0,0,189.627,48.3c4.552,7.395,9.493,9.319,11.116,9.77" transform="translate(-184.283 -36.906)" fill="#081344"/>
            </g>
          </g>
        </g>
        <path id="Trazado_803473" data-name="Trazado 803473" d="M255.86,70.357l-.132,5.1c0,4.344-5.146,6.09-8.965,5.678l-6.087-.658.612-5.275L242.949,65.1l-2.683-7.539,5.526,2.294v.009c-.418,5.99,3.874,10.832,9.873,10.555Z" transform="translate(-149.388 -35.791)" fill="#7c4b39"/>
        <path id="Trazado_803474" data-name="Trazado 803474" d="M237.2,57.06a1.113,1.113,0,0,1,1.107,1.121l-.026,3.792-.026,3.313-1.3-.008a2.052,2.052,0,0,1-.28-.018,4.271,4.271,0,0,1-3.886-4.245,3.931,3.931,0,0,1,1.249-2.838,4.037,4.037,0,0,1,2.627-1.1h.006a1.605,1.605,0,0,1,.338-.015Z" transform="translate(-144.739 -35.475)" fill="#fcbba4"/>
        <rect id="Rectángulo_375486" data-name="Rectángulo 375486" width="35.025" height="6.458" transform="translate(53.361 132.502)" fill="#081344"/>
        <line id="Línea_1791" data-name="Línea 1791" y2="2.477" transform="translate(41.415 192.745)" fill="#313d6e"/>
        <rect id="Rectángulo_375487" data-name="Rectángulo 375487" width="32.084" height="6.458" transform="translate(187.288 133.048)" fill="#716f82"/>
        <rect id="Rectángulo_375488" data-name="Rectángulo 375488" width="7.297" height="90.952" transform="translate(214.208 111.085)" fill="#716f82"/>
        <rect id="Rectángulo_375489" data-name="Rectángulo 375489" width="7.297" height="91.498" transform="translate(184.906 110.539)" fill="#b1aec1"/>
        <rect id="Rectángulo_375490" data-name="Rectángulo 375490" width="7.297" height="39.037" transform="translate(184.906 106.848)" fill="#716f82"/>
        <rect id="Rectángulo_375491" data-name="Rectángulo 375491" width="32.084" height="6.458" transform="translate(12.288 133.048)" fill="#716f82"/>
        <rect id="Rectángulo_375492" data-name="Rectángulo 375492" width="7.297" height="90.952" transform="translate(39.209 111.085)" fill="#716f82"/>
        <rect id="Rectángulo_375493" data-name="Rectángulo 375493" width="7.297" height="91.498" transform="translate(9.907 110.539)" fill="#716f82"/>
        <rect id="Rectángulo_375494" data-name="Rectángulo 375494" width="24.083" height="51.802" transform="translate(144.918 49.992)" fill="#585668"/>
        <path id="Trazado_803475" data-name="Trazado 803475" d="M384.392,139.467H305.224V91.115a3.159,3.159,0,0,1,3.159-3.159h72.851a3.159,3.159,0,0,1,3.159,3.159Z" transform="translate(-189.776 -54.688)" fill="#ddd"/>
        <path id="Trazado_803476" data-name="Trazado 803476" d="M375.729,229.46H309.918a6.669,6.669,0,0,1-6.669-6.669v-2.555H382.4v2.555a6.669,6.669,0,0,1-6.669,6.669" transform="translate(-188.548 -136.934)" fill="#ddd"/>
        <path id="Trazado_803477" data-name="Trazado 803477" d="M377.176,91.112V139.47H298.007V91.112a3.156,3.156,0,0,1,3.158-3.155h72.853a3.156,3.156,0,0,1,3.158,3.155" transform="translate(-185.289 -54.688)" fill="#767684"/>
        <path id="Trazado_803478" data-name="Trazado 803478" d="M379.032,95.558v44a.3.3,0,0,1-.3.291H305.918a.294.294,0,0,1-.291-.291v-44a.291.291,0,0,1,.291-.291h72.819a.292.292,0,0,1,.3.291" transform="translate(-190.027 -59.233)" fill="#1f3468"/>
        <path id="Trazado_803479" data-name="Trazado 803479" d="M377.187,220.237v2.553a6.671,6.671,0,0,1-6.672,6.672H304.7a6.67,6.67,0,0,1-6.668-6.672v-2.553Z" transform="translate(-185.307 -136.934)" fill="#aba9c4"/>
        <rect id="Rectángulo_375495" data-name="Rectángulo 375495" width="24.596" height="0.851" transform="translate(119.851 41.468)" fill="#6e89c4"/>
        <rect id="Rectángulo_375496" data-name="Rectángulo 375496" width="11.646" height="0.851" transform="translate(155.111 41.468)" fill="#ddd"/>
        <rect id="Rectángulo_375497" data-name="Rectángulo 375497" width="11.646" height="0.851" transform="translate(171.925 41.468)" fill="#ffc543"/>
        <rect id="Rectángulo_375498" data-name="Rectángulo 375498" width="2.755" height="0.851" transform="translate(167.794 41.468)" fill="#6e89c4"/>
        <rect id="Rectángulo_375499" data-name="Rectángulo 375499" width="8.163" height="0.851" transform="translate(145.6 41.468)" fill="#ea5444"/>
        <rect id="Rectángulo_375500" data-name="Rectángulo 375500" width="24.596" height="0.851" transform="translate(119.851 63.263)" fill="#6e89c4"/>
        <rect id="Rectángulo_375501" data-name="Rectángulo 375501" width="11.646" height="0.851" transform="translate(155.111 63.263)" fill="#ddd"/>
        <rect id="Rectángulo_375502" data-name="Rectángulo 375502" width="11.646" height="0.851" transform="translate(171.925 63.263)" fill="#ffc543"/>
        <rect id="Rectángulo_375503" data-name="Rectángulo 375503" width="2.755" height="0.851" transform="translate(167.794 63.263)" fill="#6e89c4"/>
        <rect id="Rectángulo_375504" data-name="Rectángulo 375504" width="8.163" height="0.851" transform="translate(145.6 63.263)" fill="#a29fb0"/>
        <rect id="Rectángulo_375505" data-name="Rectángulo 375505" width="24.596" height="0.851" transform="translate(158.975 55.998)" fill="#6e89c4"/>
        <rect id="Rectángulo_375506" data-name="Rectángulo 375506" width="11.646" height="0.851" transform="translate(136.664 55.998)" fill="#ddd"/>
        <rect id="Rectángulo_375507" data-name="Rectángulo 375507" width="11.646" height="0.851" transform="translate(119.851 55.998)" fill="#ffc543"/>
        <rect id="Rectángulo_375508" data-name="Rectángulo 375508" width="2.755" height="0.851" transform="translate(132.873 55.998)" fill="#6e89c4"/>
        <rect id="Rectángulo_375509" data-name="Rectángulo 375509" width="8.163" height="0.851" transform="translate(149.659 55.998)" fill="#a29fb0"/>
        <rect id="Rectángulo_375510" data-name="Rectángulo 375510" width="9.223" height="0.851" transform="translate(119.851 45.1)" fill="#ea5444"/>
        <rect id="Rectángulo_375511" data-name="Rectángulo 375511" width="3.96" height="0.851" transform="translate(147.425 45.1)" fill="#6e89c4"/>
        <rect id="Rectángulo_375512" data-name="Rectángulo 375512" width="19.332" height="0.851" transform="translate(164.239 45.1)" fill="#ddd"/>
        <rect id="Rectángulo_375513" data-name="Rectángulo 375513" width="10.441" height="0.851" transform="translate(152.421 45.1)" fill="#6e89c4"/>
        <rect id="Rectángulo_375514" data-name="Rectángulo 375514" width="15.849" height="0.851" transform="translate(130.227 45.1)" fill="#6e89c4"/>
        <rect id="Rectángulo_375515" data-name="Rectángulo 375515" width="9.223" height="0.851" transform="translate(119.851 66.896)" fill="#6e89c4"/>
        <rect id="Rectángulo_375516" data-name="Rectángulo 375516" width="3.96" height="0.851" transform="translate(147.425 66.896)" fill="#6e89c4"/>
        <rect id="Rectángulo_375517" data-name="Rectángulo 375517" width="19.332" height="0.851" transform="translate(164.239 66.896)" fill="#6e89c4"/>
        <rect id="Rectángulo_375518" data-name="Rectángulo 375518" width="10.441" height="0.851" transform="translate(152.421 66.896)" fill="#6e89c4"/>
        <rect id="Rectángulo_375519" data-name="Rectángulo 375519" width="15.849" height="0.851" transform="translate(130.227 66.896)" fill="#6e89c4"/>
        <rect id="Rectángulo_375520" data-name="Rectángulo 375520" width="9.223" height="0.851" transform="translate(119.851 59.631)" fill="#ea5444"/>
        <rect id="Rectángulo_375521" data-name="Rectángulo 375521" width="3.96" height="0.851" transform="translate(147.425 59.631)" fill="#6e89c4"/>
        <rect id="Rectángulo_375522" data-name="Rectángulo 375522" width="19.332" height="0.851" transform="translate(164.239 59.631)" fill="#ddd"/>
        <rect id="Rectángulo_375523" data-name="Rectángulo 375523" width="10.441" height="0.851" transform="translate(152.421 59.631)" fill="#6e89c4"/>
        <rect id="Rectángulo_375524" data-name="Rectángulo 375524" width="15.849" height="0.851" transform="translate(130.227 59.631)" fill="#6e89c4"/>
        <rect id="Rectángulo_375525" data-name="Rectángulo 375525" width="9.223" height="0.851" transform="translate(119.851 48.733)" fill="#ddd"/>
        <rect id="Rectángulo_375526" data-name="Rectángulo 375526" width="15.849" height="0.851" transform="translate(130.227 48.733)" fill="#6e89c4"/>
        <rect id="Rectángulo_375527" data-name="Rectángulo 375527" width="9.223" height="0.851" transform="translate(136.853 52.365)" fill="#ddd"/>
        <rect id="Rectángulo_375528" data-name="Rectángulo 375528" width="15.849" height="0.851" transform="translate(119.851 52.365)" fill="#6e89c4"/>
        <path id="Trazado_803480" data-name="Trazado 803480" d="M389.325,266.837H357.043a1.794,1.794,0,0,1-1.794-1.793h0a1.794,1.794,0,0,1,1.794-1.793h32.282a1.793,1.793,0,0,1,1.794,1.793h0a1.793,1.793,0,0,1-1.794,1.793" transform="translate(-220.879 -163.678)" fill="#4a4960"/>
        <path id="Trazado_803481" data-name="Trazado 803481" d="M434.791,280.114H333v-5.262a2.883,2.883,0,0,1,2.883-2.883h96.02a2.884,2.884,0,0,1,2.884,2.883Z" transform="translate(-207.048 -169.099)" fill="#e79271"/>
        <path id="Trazado_803482" data-name="Trazado 803482" d="M201.527,274.853v5.261H5.557v-5.261a2.884,2.884,0,0,1,2.882-2.886H198.645a2.885,2.885,0,0,1,2.883,2.886" transform="translate(-3.455 -169.098)" fill="#a5483c"/>
        <path id="Trazado_803483" data-name="Trazado 803483" d="M286.736,271.967c-1.555,2.534-3.408,5.556-4.993,8.147H233.8l.654-8.147Z" transform="translate(-145.366 -169.098)" fill="#84352f"/>
        <rect id="Rectángulo_375529" data-name="Rectángulo 375529" width="50.36" height="63.106" transform="translate(237.928 138.932)" fill="#7f3954"/>
        <rect id="Rectángulo_375530" data-name="Rectángulo 375530" width="49.491" height="63.106" transform="translate(220.081 138.932)" fill="#6e3856"/>
        <rect id="Rectángulo_375531" data-name="Rectángulo 375531" width="46.948" height="17.072" transform="translate(219.517 143.657)" fill="#df7d54"/>
        <rect id="Rectángulo_375532" data-name="Rectángulo 375532" width="46.948" height="17.072" transform="translate(219.517 163.69)" fill="#df7d54"/>
        <rect id="Rectángulo_375533" data-name="Rectángulo 375533" width="46.948" height="18.314" transform="translate(219.517 183.723)" fill="#df7d54"/>
        <path id="Trazado_803484" data-name="Trazado 803484" d="M618.355,401.782h11.737a.915.915,0,1,0,0-1.829H618.355a.915.915,0,0,0,0,1.829" transform="translate(-383.899 -248.675)" fill="#fff"/>
        <path id="Trazado_803485" data-name="Trazado 803485" d="M617.146,454.373h11.737a.915.915,0,0,0,0-1.829H617.146a.915.915,0,1,0,0,1.829" transform="translate(-383.148 -281.374)" fill="#fff"/>
        <path id="Trazado_803486" data-name="Trazado 803486" d="M617.146,506.964h11.737a.915.915,0,0,0,0-1.829H617.146a.915.915,0,1,0,0,1.829" transform="translate(-383.148 -314.073)" fill="#fff"/>
        <path id="Trazado_803487" data-name="Trazado 803487" d="M278.275,529.783l23.524.25a2.54,2.54,0,0,0,.889-4.929l-11.6-4.184-12.725.175Z" transform="translate(-173.02 -323.887)" fill="#7f3954"/>
        <path id="Trazado_803488" data-name="Trazado 803488" d="M302.547,543.822l-23.815-.077.006-1.707,25.521.082a1.707,1.707,0,0,1-1.712,1.7" transform="translate(-173.304 -337.018)" fill="#081344"/>
        <line id="Línea_1792" data-name="Línea 1792" y1="2.944" x2="2.772" transform="translate(117.773 197.528)" fill="none" stroke="#081344" stroke-linecap="round" stroke-miterlimit="10" stroke-width="1.493"/>
        <line id="Línea_1793" data-name="Línea 1793" y1="2.944" x2="2.772" transform="translate(119.794 198.389)" fill="none" stroke="#081344" stroke-linecap="round" stroke-miterlimit="10" stroke-width="1.493"/>
        <line id="Línea_1794" data-name="Línea 1794" y1="3.338" x2="3.121" transform="translate(121.729 199.143)" fill="none" stroke="#081344" stroke-linecap="round" stroke-miterlimit="10" stroke-width="1.493"/>
        <path id="Trazado_803489" data-name="Trazado 803489" d="M224.873,405.364c1.365-22.946,1-44.161-.791-48.457-1.833-2.668-16.124-8.45-30.406-9.073l6.684-14.591c18.733.941,32.124,7.97,36.808,16,1.977,3.391,3.695,10.23,2.768,33.628-.485,12.255-1.084,21.855-1.084,21.855Z" transform="translate(-120.42 -207.196)" fill="#1c1c2d"/>
        <path id="Trazado_803490" data-name="Trazado 803490" d="M333.653,531.252l23.524.163a2.54,2.54,0,0,0,.871-4.933l-11.611-4.141-12.724.222Z" transform="translate(-207.452 -324.771)" fill="#a0523a"/>
        <path id="Trazado_803491" data-name="Trazado 803491" d="M357.31,545.258l-24.193.012v-1.707l25.9-.012a1.707,1.707,0,0,1-1.706,1.707" transform="translate(-207.118 -337.958)" fill="#081344"/>
        <line id="Línea_1795" data-name="Línea 1795" y1="2.954" x2="2.761" transform="translate(138.699 198.057)" fill="none" stroke="#081344" stroke-linecap="round" stroke-miterlimit="10" stroke-width="1.493"/>
        <line id="Línea_1796" data-name="Línea 1796" y1="2.954" x2="2.761" transform="translate(140.723 198.909)" fill="none" stroke="#081344" stroke-linecap="round" stroke-miterlimit="10" stroke-width="1.493"/>
        <line id="Línea_1797" data-name="Línea 1797" y1="3.35" x2="3.108" transform="translate(142.662 199.656)" fill="none" stroke="#081344" stroke-linecap="round" stroke-miterlimit="10" stroke-width="1.493"/>
        <path id="Trazado_803492" data-name="Trazado 803492" d="M280.125,405.364c1.365-22.946,1-44.161-.791-48.457-1.833-2.668-16.124-8.45-30.406-9.073l6.684-14.591c18.733.941,32.124,7.97,36.808,16,1.977,3.391,3.695,10.23,2.768,33.628-.485,12.255-1.084,21.855-1.084,21.855Z" transform="translate(-154.773 -207.196)" fill="#1c1c2d"/>
        <path id="Trazado_803493" data-name="Trazado 803493" d="M213.917,334.482A10.626,10.626,0,0,1,203.293,345.1H185.439a10.085,10.085,0,0,1-1.559-.119,10.35,10.35,0,0,1-3.649-1.248c-.2-.107-.39-.226-.576-.35a10.607,10.607,0,0,1-4.835-8.9l.327-5.665,38.459-.333Z" transform="translate(-108.696 -204.237)" fill="#1c1c2d"/>
        <path id="Trazado_803494" data-name="Trazado 803494" d="M308.26,257.883l9.2-1.471a1.237,1.237,0,0,0-.391-2.444l-9.2,1.471a1.237,1.237,0,0,0,.391,2.444" transform="translate(-190.773 -157.898)" fill="#fcbba4"/>
        <path id="Trazado_803495" data-name="Trazado 803495" d="M316.007,264.938l7.389-1.181a1.237,1.237,0,0,0-.391-2.444l-7.389,1.181a1.237,1.237,0,1,0,.391,2.444" transform="translate(-195.589 -162.464)" fill="#fcbba4"/>
        <path id="Trazado_803496" data-name="Trazado 803496" d="M311.49,273.112l8.746-1.4a1.237,1.237,0,1,0-.391-2.444l-8.746,1.4a1.237,1.237,0,1,0,.391,2.444" transform="translate(-192.781 -167.412)" fill="#fcbba4"/>
        <path id="Trazado_803497" data-name="Trazado 803497" d="M301.1,258.01c-.1.011-1.227,0-2.451-.024a13.314,13.314,0,0,0-6.1,1.365l-3.63,1.786s2.079,6.169,2.366,6.221c7,1.265,9.4-1.912,9.4-1.912Z" transform="translate(-179.638 -160.404)" fill="#fcbba4"/>
        <rect id="Rectángulo_375534" data-name="Rectángulo 375534" width="3.106" height="10.096" transform="translate(112.935 97.581)" fill="#fff"/>
        <path id="Trazado_803498" data-name="Trazado 803498" d="M200.645,214.586a18.865,18.865,0,0,1-17.1-10.933l-.152-.329-9.587-29.274,11.809-3.867,9.342,28.528a6.422,6.422,0,0,0,5.748,3.449l20.364-.2.123,12.426-20.364.2h-.186" transform="translate(-108.067 -105.812)" fill="#1c1c2d"/>
        <path id="Trazado_803499" data-name="Trazado 803499" d="M396.673,248.232a7.709,7.709,0,0,0-3.3-3.156l-.033-.016a13.307,13.307,0,0,0-6.1-1.348l-4.045.078s-1.025,8.775-.972,8.488c.1-.57,9.888-.423,14.37-.326a1.255,1.255,0,0,0,1.121-1.869Z" transform="translate(-237.648 -151.529)" fill="#fcbba4"/>
        <rect id="Rectángulo_375535" data-name="Rectángulo 375535" width="3.86" height="10.341" transform="translate(143.097 91.601)" fill="#fff"/>
        <path id="Trazado_803500" data-name="Trazado 803500" d="M277.586,197a18.865,18.865,0,0,1-17.1-10.933l-13.8-29.872,11.28-5.213,13.8,29.872a6.385,6.385,0,0,0,5.881,3.72l20.364-.2.123,12.426-20.364.2h-.186" transform="translate(-153.378 -93.875)" fill="#25253a"/>
        <path id="Trazado_803501" data-name="Trazado 803501" d="M215.111,149.612l-.23,26.084-.292,33.211a10.967,10.967,0,0,1-2.85,1.923,42.959,42.959,0,0,1-9.2,3.346c-5.169,1.342-12.449,1.55-18.668,1.4-6.861-.169-12.429-.772-12.429-.772l.143-65.19a18.634,18.634,0,0,1,15.38-18.34A18.978,18.978,0,0,1,190.2,131h6.294a18.619,18.619,0,0,1,18.616,18.616" transform="translate(-106.596 -81.448)" fill="#25253a"/>
        <rect id="Rectángulo_375536" data-name="Rectángulo 375536" width="6.284" height="36.072" transform="translate(79.475 153.754)" fill="#b1aec1"/>
        <path id="Trazado_803502" data-name="Trazado 803502" d="M210.119,411.875v7.9l6.284-2.292v-5.345c-1.573-.07-4.6-.189-6.284-.258" transform="translate(-130.644 -256.087)" fill="#716f82"/>
        <path id="Trazado_803503" data-name="Trazado 803503" d="M201.923,403.214H164.3a3.506,3.506,0,1,1,0-7.013h37.625a3.506,3.506,0,1,1,0,7.013" transform="translate(-99.974 -246.342)" fill="#2d2d3a"/>
        <path id="Trazado_803504" data-name="Trazado 803504" d="M200.833,513.372H196.9a8.293,8.293,0,0,0-8.517-8.029h-28.64a8.293,8.293,0,0,0-8.517,8.029H147.3c0-6.47,5.584-11.734,12.448-11.734h28.64c6.864,0,12.448,5.264,12.448,11.734" transform="translate(-91.583 -311.898)" fill="#2d2d3a"/>
        <rect id="Rectángulo_375537" data-name="Rectángulo 375537" width="9.172" height="5.646" transform="translate(77.989 184.182)" fill="#2d2d3a"/>
        <path id="Trazado_803505" data-name="Trazado 803505" d="M149.994,537.073a3.271,3.271,0,1,1-3.265-3.078,3.176,3.176,0,0,1,3.265,3.078" transform="translate(-89.2 -332.017)" fill="#081344"/>
        <path id="Trazado_803506" data-name="Trazado 803506" d="M149.856,533.22H140.92v-.814a4.172,4.172,0,0,1,4.172-4.172h.593a4.172,4.172,0,0,1,4.172,4.172Z" transform="translate(-87.618 -328.435)" fill="#072050"/>
        <path id="Trazado_803507" data-name="Trazado 803507" d="M282.027,537.073a3.271,3.271,0,1,1-3.265-3.078,3.176,3.176,0,0,1,3.265,3.078" transform="translate(-171.292 -332.017)" fill="#081344"/>
        <path id="Trazado_803508" data-name="Trazado 803508" d="M281.889,533.22h-8.936v-.814a4.172,4.172,0,0,1,4.172-4.172h.593a4.172,4.172,0,0,1,4.172,4.172Z" transform="translate(-169.711 -328.435)" fill="#072050"/>
        <rect id="Rectángulo_375538" data-name="Rectángulo 375538" width="5.203" height="11.116" transform="translate(80.159 190.887)" fill="#2d2d3a"/>
        <path id="Trazado_803509" data-name="Trazado 803509" d="M216.991,537.073a3.271,3.271,0,1,1-3.266-3.078,3.176,3.176,0,0,1,3.266,3.078" transform="translate(-130.856 -332.017)" fill="#081344"/>
        <path id="Trazado_803510" data-name="Trazado 803510" d="M216.853,533.22h-8.936v-.814a4.172,4.172,0,0,1,4.172-4.172h.593a4.172,4.172,0,0,1,4.172,4.172Z" transform="translate(-129.274 -328.435)" fill="#072050"/>
        <path id="Trazado_803511" data-name="Trazado 803511" d="M86.023,212.749,94.438,273.5a7.652,7.652,0,0,0,7.341,6.6l30.711.352L115.413,204.06l-21.8-.012a7.652,7.652,0,0,0-7.591,8.7" transform="translate(-53.44 -126.869)" fill="#9f293b"/>
        <path id="Trazado_803512" data-name="Trazado 803512" d="M223.818,384.28H181.125a6.637,6.637,0,0,1-6.618-6.618h0a6.637,6.637,0,0,1,6.618-6.618h42.693a6.637,6.637,0,0,1,6.618,6.618h0a6.637,6.637,0,0,1-6.618,6.618" transform="translate(-108.501 -230.7)" fill="#f14747"/>
        <path id="Trazado_803513" data-name="Trazado 803513" d="M181.643,148.1c-.827,11.975,1.5,55.167,2.228,67.924-6.862-.169-12.429-.772-12.429-.772l.143-65.19a18.634,18.634,0,0,1,15.38-18.34S182.615,134,181.643,148.1" transform="translate(-106.595 -81.901)" fill="#1c1c2d"/>
        <path id="Trazado_803514" data-name="Trazado 803514" d="M223.432,125.159h-19.2v-5.366l19.2,2.269Z" transform="translate(-126.98 -74.482)" fill="#fff"/>
        <path id="Trazado_803515" data-name="Trazado 803515" d="M158.3,272.034l-8.921-62.3a5.17,5.17,0,0,1,4.631-5.727,5.37,5.37,0,0,1,6.076,4.365l8.92,62.3a5.17,5.17,0,0,1-4.631,5.728c-2.945.375-4.469,2.456-6.076-4.365" transform="translate(-92.847 -126.814)" fill="#f14747"/>
        <path id="Trazado_803516" data-name="Trazado 803516" d="M273.849,224.649l-.292,33.211a10.959,10.959,0,0,1-2.85,1.923l-4.423-50.053s4.053,10.13,7.565,14.919" transform="translate(-165.565 -130.402)" fill="#1c1c2d"/>
        <g id="Grupo_1068037" data-name="Grupo 1068037" transform="translate(164.405 67.488)" opacity="0.32" style="mix-blend-mode: multiply;isolation: isolate">
          <g id="Grupo_1068036" data-name="Grupo 1068036">
            <g id="Grupo_1068035" data-name="Grupo 1068035" clip-path="url(#clip-path-6)">
              <path id="Trazado_803517" data-name="Trazado 803517" d="M462.019,181.96l-2.2,12.281-1.543,8.6a6.624,6.624,0,0,1-2.818.624h-20.8c1.974-2.043,5.288-5.473,8.855-9.225,5.556-5.84,11.733-12.455,14.471-15.814Z" transform="translate(-434.657 -178.427)" fill="#25253a"/>
            </g>
          </g>
        </g>
        <path id="Trazado_803518" data-name="Trazado 803518" d="M476.765,210.068H517.94a3.594,3.594,0,0,0,.52-1.1l9.212-33.256a2.485,2.485,0,0,0-2.395-3.153H489.049a2.492,2.492,0,0,0-2.4,1.822Z" transform="translate(-296.433 -107.288)" fill="#ddd"/>
        <path id="Trazado_803519" data-name="Trazado 803519" d="M521.859,172.578,512.652,205.8a3.568,3.568,0,0,1-3.442,2.617H470.577l10.3-37.173a2.482,2.482,0,0,1,2.391-1.819h36.194a2.485,2.485,0,0,1,2.394,3.151" transform="translate(-292.586 -105.343)" fill="#a29fb0"/>
        <path id="Trazado_803520" data-name="Trazado 803520" d="M522.815,176.831l-7.523,27.092-1.579,5.674H475.386l1.573-5.674,7.869-28.325a2.3,2.3,0,0,1,2.219-1.683H520.6a2.3,2.3,0,0,1,2.219,2.915" transform="translate(-295.576 -108.134)" fill="#1f3468"/>
        <path id="Trazado_803521" data-name="Trazado 803521" d="M521.7,182.295H509.9l.262-.829h11.8Z" transform="translate(-317.036 -112.828)" fill="#eceef0"/>
        <path id="Trazado_803522" data-name="Trazado 803522" d="M560.2,182.295h-5.586l.263-.829h5.585Z" transform="translate(-344.836 -112.828)" fill="#ea5444"/>
        <path id="Trazado_803523" data-name="Trazado 803523" d="M581.518,182.295h-5.586l.263-.829h5.585Z" transform="translate(-358.091 -112.828)" fill="#a29fb0"/>
        <path id="Trazado_803524" data-name="Trazado 803524" d="M572.015,182.295h-1.321l.263-.829h1.322Z" transform="translate(-354.834 -112.828)" fill="#6e89c4"/>
        <path id="Trazado_803525" data-name="Trazado 803525" d="M546.466,182.295h-3.915l.263-.829h3.915Z" transform="translate(-337.336 -112.828)" fill="#a29fb0"/>
        <path id="Trazado_803526" data-name="Trazado 803526" d="M519.371,219.717h5.586l.263-.829h-5.586Z" transform="translate(-322.924 -136.095)" fill="#ddd"/>
        <path id="Trazado_803527" data-name="Trazado 803527" d="M498.051,219.717h5.585l.263-.829h-5.586Z" transform="translate(-309.668 -136.095)" fill="#ffc543"/>
        <path id="Trazado_803528" data-name="Trazado 803528" d="M514.564,219.717h1.321l.263-.829h-1.321Z" transform="translate(-319.935 -136.095)" fill="#6e89c4"/>
        <path id="Trazado_803529" data-name="Trazado 803529" d="M511.363,191.65h-4.424l.263-.829h4.423Z" transform="translate(-315.194 -118.645)" fill="#ea5444"/>
        <path id="Trazado_803530" data-name="Trazado 803530" d="M543.8,191.65h-1.9l.263-.829h1.9Z" transform="translate(-336.934 -118.645)" fill="#6e89c4"/>
        <path id="Trazado_803531" data-name="Trazado 803531" d="M572.5,191.65h-9.272l.263-.829h9.272Z" transform="translate(-350.19 -118.645)" fill="#ea5444"/>
        <path id="Trazado_803532" data-name="Trazado 803532" d="M553.246,191.65h-5.008l.263-.829h5.008Z" transform="translate(-340.872 -118.645)" fill="#6e89c4"/>
        <path id="Trazado_803533" data-name="Trazado 803533" d="M527.7,191.65h-7.6l.263-.829h7.6Z" transform="translate(-323.375 -118.645)" fill="#6e89c4"/>
        <path id="Trazado_803534" data-name="Trazado 803534" d="M493.588,247.784h-4.424l.262-.829h4.424Z" transform="translate(-304.143 -153.546)" fill="#313d6e"/>
        <path id="Trazado_803535" data-name="Trazado 803535" d="M508.4,201.006h-4.424l.263-.829h4.424Z" transform="translate(-313.352 -124.462)" fill="#ddd"/>
        <path id="Trazado_803536" data-name="Trazado 803536" d="M527.488,201.006h-4.424l.263-.829h4.424Z" transform="translate(-325.22 -124.462)" fill="#ddd"/>
        <path id="Trazado_803537" data-name="Trazado 803537" d="M569.032,201.006h-7.6l.263-.829h7.6Z" transform="translate(-349.075 -124.462)" fill="#6e89c4"/>
        <path id="Trazado_803538" data-name="Trazado 803538" d="M501.014,210.361h7.6l.263-.829h-7.6Z" transform="translate(-311.51 -130.278)" fill="#6e89c4"/>
        <path id="Trazado_803539" data-name="Trazado 803539" d="M514.969,253.25l-1.618,5.674H474.061l1.613-5.674Z" transform="translate(-294.752 -157.461)" fill="#a29fb0"/>
        <path id="Trazado_803540" data-name="Trazado 803540" d="M445.62,266.178H398.556a2,2,0,1,1,0-4H445.62a2,2,0,0,1,0,4" transform="translate(-246.563 -163.012)" fill="#a29fb0"/>
        <g id="Grupo_1068040" data-name="Grupo 1068040" transform="translate(186.872 64.084)" opacity="0.55" style="mix-blend-mode: overlay;isolation: isolate">
          <g id="Grupo_1068039" data-name="Grupo 1068039">
            <g id="Grupo_1068038" data-name="Grupo 1068038" clip-path="url(#clip-path-7)">
              <path id="Trazado_803541" data-name="Trazado 803541" d="M524.747,169.427l-.775,1.7-13.7,30.006-1.415,3.094h-14.8l1.415-3.094,13.7-30.006.775-1.7Z" transform="translate(-494.057 -169.427)" fill="#cdd6f9"/>
            </g>
          </g>
        </g>
        <g id="Grupo_1068043" data-name="Grupo 1068043" transform="translate(131.899 36.034)" opacity="0.55" style="mix-blend-mode: overlay;isolation: isolate">
          <g id="Grupo_1068042" data-name="Grupo 1068042">
            <g id="Grupo_1068041" data-name="Grupo 1068041" clip-path="url(#clip-path-8)">
              <path id="Trazado_803542" data-name="Trazado 803542" d="M390.849,95.267l-20.361,44.579H348.717l20.36-44.579Z" transform="translate(-348.717 -95.267)" fill="#cdd6f9"/>
            </g>
          </g>
        </g>
        <path id="Trazado_803543" data-name="Trazado 803543" d="M525.377,265.851h-27.24a2,2,0,0,1,0-4h27.24a2,2,0,1,1,0,4" transform="translate(-308.478 -162.808)" fill="#ddd"/>
        <rect id="Rectángulo_375542" data-name="Rectángulo 375542" width="3.89" height="1.167" transform="translate(203.22 100.368)" fill="#081344"/>
        <rect id="Rectángulo_375543" data-name="Rectángulo 375543" width="2.821" height="1.167" transform="translate(199.232 100.368)" fill="#081344"/>
        <path id="Trazado_803544" data-name="Trazado 803544" d="M449.723,227.451v16.3H436.109v-16.3a1.3,1.3,0,0,1,1.3-1.3h11.011a1.3,1.3,0,0,1,1.3,1.3" transform="translate(-271.155 -140.61)" fill="#fc4f42"/>
        <path id="Trazado_803545" data-name="Trazado 803545" d="M428.744,246.41c-.178-.1-4.357-2.55-4.73-6.837a3.929,3.929,0,0,1,1.02-3.209,5.964,5.964,0,0,1,4.26-1.441l-.109,1.989a4.043,4.043,0,0,0-2.724.842A2,2,0,0,0,426,239.4c.284,3.262,3.7,5.262,3.737,5.283Z" transform="translate(-263.622 -146.062)" fill="#ea5444"/>
        <path id="Trazado_803546" data-name="Trazado 803546" d="M443.362,243.747H436.11v-16.3a1.3,1.3,0,0,1,1.3-1.3h.438c.02.85.252,7.351,2.078,12.033,1.587,4.077,3,5.279,3.433,5.565" transform="translate(-271.156 -140.61)" fill="#ea5444"/>
        <g id="Grupo_1068046" data-name="Grupo 1068046" transform="translate(160.372 85.539)" opacity="0.79">
          <g id="Grupo_1068045" data-name="Grupo 1068045">
            <g id="Grupo_1068044" data-name="Grupo 1068044" clip-path="url(#clip-path-9)">
              <path id="Trazado_803547" data-name="Trazado 803547" d="M424.014,234.12c.332,3.858,3.752,6.229,4.562,6.734v2.9h7.252c-.432-.286-1.846-1.488-3.433-5.565-1.827-4.682-2.059-11.183-2.079-12.033h-.438a1.3,1.3,0,0,0-1.3,1.3v2.025a5.523,5.523,0,0,0-3.54,1.434,3.941,3.941,0,0,0-1.023,3.208m2.451-1.82a3.526,3.526,0,0,1,2.112-.817v6.893a6.89,6.89,0,0,1-2.577-4.43,2,2,0,0,1,.465-1.647" transform="translate(-423.994 -226.151)" fill="#ce2d29"/>
            </g>
          </g>
        </g>
        <rect id="Rectángulo_375545" data-name="Rectángulo 375545" width="21.611" height="1.566" transform="matrix(0.174, -0.985, 0.985, 0.174, 19.436, 93.877)" fill="#6075b0"/>
        <rect id="Rectángulo_375546" data-name="Rectángulo 375546" width="6.499" height="2.427" transform="matrix(0.174, -0.985, 0.985, 0.174, 21.778, 78.388)" fill="#6075b0"/>
        <path id="Trazado_803548" data-name="Trazado 803548" d="M46.095,218.217l-1.561-.131L46.34,196.55l.944-1.378.617,1.508Z" transform="translate(-27.689 -121.35)" fill="#794061"/>
        <path id="Trazado_803549" data-name="Trazado 803549" d="M33.61,222.026l-1.537.3-4.13-21.213.533-1.583,1,1.283Z" transform="translate(-17.374 -124.06)" fill="#072859"/>
        <path id="Trazado_803550" data-name="Trazado 803550" d="M37.452,242.925H30.759l-2.195-17.719H39.647Z" transform="translate(-17.76 -140.024)" fill="#f3885e"/>
        <path id="Trazado_803551" data-name="Trazado 803551" d="M46.109,242.925H39.415l-.988-17.719H48.3Z" transform="translate(-23.893 -140.024)" fill="#ffbe62"/>
        <path id="Trazado_803552" data-name="Trazado 803552" d="M605.02,342.648V352.4h34.054a4.876,4.876,0,1,0,0-9.752Z" transform="translate(-376.177 -213.045)" fill="#f14747"/>
        <g id="Grupo_1068049" data-name="Grupo 1068049" transform="translate(236.466 136.118)" opacity="0.79">
          <g id="Grupo_1068048" data-name="Grupo 1068048">
            <g id="Grupo_1068047" data-name="Grupo 1068047" clip-path="url(#clip-path-10)">
              <path id="Trazado_803553" data-name="Trazado 803553" d="M625.174,359.873v3.237h26.431a4.886,4.886,0,0,0,4.6-3.237Z" transform="translate(-625.174 -359.873)" fill="#ce2d29"/>
            </g>
          </g>
        </g>
        <path id="Trazado_803554" data-name="Trazado 803554" d="M585.771,342.644V352.4H608.1a4.877,4.877,0,1,0,0-9.754Z" transform="translate(-364.209 -213.042)" fill="#9f293b"/>
        <path id="Trazado_803555" data-name="Trazado 803555" d="M585.771,347.065v6.254h21.012a3.127,3.127,0,1,0,0-6.253Z" transform="translate(-364.209 -215.791)" fill="#fff"/>
        <path id="Trazado_803556" data-name="Trazado 803556" d="M603.279,291.4v9.754h34.054a4.877,4.877,0,1,0,0-9.754Z" transform="translate(-375.095 -181.18)" fill="#fbaf3d"/>
        <path id="Trazado_803557" data-name="Trazado 803557" d="M623.686,294.687v-3.236h26.431a4.885,4.885,0,0,1,4.6,3.236Z" transform="translate(-387.783 -181.212)" fill="#ffd72e"/>
        <path id="Trazado_803558" data-name="Trazado 803558" d="M585.771,291.4v9.754H608.1a4.877,4.877,0,1,0,0-9.754Z" transform="translate(-364.209 -181.18)" fill="#f38154"/>
        <path id="Trazado_803559" data-name="Trazado 803559" d="M585.771,295.82v6.254h21.012a3.127,3.127,0,1,0,0-6.253Z" transform="translate(-364.209 -183.929)" fill="#fff"/>
        <path id="Trazado_803560" data-name="Trazado 803560" d="M598.627,317.336v9.756h34.054a4.881,4.881,0,0,0,4.3-7.169,5.029,5.029,0,0,0-.856-1.16,4.875,4.875,0,0,0-3.448-1.426Z" transform="translate(-372.202 -197.307)" fill="#a2cc3b"/>
        <path id="Trazado_803561" data-name="Trazado 803561" d="M601.01,317.336v2.587h37.457a5.03,5.03,0,0,0-.857-1.16,4.875,4.875,0,0,0-3.447-1.426Z" transform="translate(-373.684 -197.307)" fill="#709b2c"/>
        <path id="Trazado_803562" data-name="Trazado 803562" d="M601.01,338.887V336.3h37.457a5.029,5.029,0,0,1-.857,1.16,4.875,4.875,0,0,1-3.447,1.426Z" transform="translate(-373.684 -209.098)" fill="#709b2c"/>
        <path id="Trazado_803563" data-name="Trazado 803563" d="M575.063,317.336v9.754H595.5a4.877,4.877,0,1,0,0-9.754Z" transform="translate(-357.551 -197.307)" fill="#4c842f"/>
        <path id="Trazado_803564" data-name="Trazado 803564" d="M575.063,321.757v6.254h19.121a3.127,3.127,0,1,0,0-6.253Z" transform="translate(-357.551 -200.056)" fill="#fff"/>
        <path id="Trazado_803565" data-name="Trazado 803565" d="M610.649,153.992h0a4.132,4.132,0,0,1,.315-5.989l.2-.177a4.518,4.518,0,0,1,6.216.3,4.133,4.133,0,0,1-.315,5.989l-.2.178a4.518,4.518,0,0,1-6.216-.3" transform="translate(-378.971 -91.232)" fill="#081344"/>
        <path id="Trazado_803566" data-name="Trazado 803566" d="M594.615,163.18l-4.286,3.731L578.16,153.932l4.286-3.731a9.347,9.347,0,0,1,10.534-1.135,8.992,8.992,0,0,1,2.285,1.761,8.52,8.52,0,0,1-.65,12.352" transform="translate(-359.477 -91.986)" fill="#df7d54"/>
        <path id="Trazado_803567" data-name="Trazado 803567" d="M590.743,159.05l-4.286,3.731-8.3-8.849,4.286-3.731a9.346,9.346,0,0,1,10.534-1.135,8.45,8.45,0,0,1,.745,3.937,8.609,8.609,0,0,1-2.982,6.046" transform="translate(-359.477 -91.986)" fill="#ffc543"/>
        <path id="Trazado_803568" data-name="Trazado 803568" d="M589.849,176.323c-1.293,1.154-5.113-.774-8.534-4.316s-5.149-7.35-3.854-8.508c1.02-.915,3.623.1,6.361,2.316a24.8,24.8,0,0,1,2.17,2,23.638,23.638,0,0,1,2.182,2.6c1.9,2.644,2.653,5.037,1.676,5.911" transform="translate(-358.775 -101.449)" fill="#a29fb0"/>
        <path id="Trazado_803569" data-name="Trazado 803569" d="M597.139,174.771a3.336,3.336,0,0,1-4.04.659,3.072,3.072,0,0,1-1.228-4.266,3.114,3.114,0,0,1,.917-.989,24.866,24.866,0,0,1,2.169,2,23.6,23.6,0,0,1,2.182,2.6" transform="translate(-367.74 -105.808)" fill="#fff"/>
        <path id="Trazado_803570" data-name="Trazado 803570" d="M643.26,193.305l11.11-35.861-22.5-14.987-4.722,4.014" transform="translate(-389.937 -88.575)" fill="none" stroke="#081344" stroke-miterlimit="10" stroke-width="4.594"/>
        <path id="Trazado_803571" data-name="Trazado 803571" d="M637.071,138.64a2.768,2.768,0,1,1-2.766-2.665,2.717,2.717,0,0,1,2.766,2.665" transform="translate(-392.665 -84.544)" fill="#081344"/>
        <path id="Trazado_803572" data-name="Trazado 803572" d="M637.961,140.832a1.384,1.384,0,1,1-1.383-1.333,1.358,1.358,0,0,1,1.383,1.333" transform="translate(-394.939 -86.735)" fill="#313d6e"/>
        <path id="Trazado_803573" data-name="Trazado 803573" d="M652.26,282.365H623.64a5.686,5.686,0,0,1,5.686-5.686h17.248a5.686,5.686,0,0,1,5.686,5.686" transform="translate(-387.754 -172.028)" fill="#313d6e"/>
        <rect id="Rectángulo_375548" data-name="Rectángulo 375548" width="5.163" height="1.564" transform="translate(241.787 103.23)" fill="#081344"/>
        <path id="Trazado_803574" data-name="Trazado 803574" d="M696.034,176.913a3.875,3.875,0,1,1-3.872-3.731,3.8,3.8,0,0,1,3.872,3.731" transform="translate(-427.95 -107.678)" fill="#081344"/>
        <path id="Trazado_803575" data-name="Trazado 803575" d="M697.28,179.98a1.938,1.938,0,1,1-1.936-1.866,1.9,1.9,0,0,1,1.936,1.866" transform="translate(-431.133 -110.744)" fill="#313d6e"/>
        <path id="Trazado_803576" data-name="Trazado 803576" d="M742.984,274.237c-4.2,5.716-12.619,6.665-12.619,6.665s-1.615-8.319,2.582-14.035,12.619-6.665,12.619-6.665,1.615,8.319-2.582,14.035" transform="translate(-453.921 -161.783)" fill="#517f38"/>
        <path id="Trazado_803577" data-name="Trazado 803577" d="M700.7,282.526c3.848,3.793,3.638,10.245,3.638,10.245s-6.449.3-10.3-3.488-3.638-10.245-3.638-10.245,6.449-.3,10.3,3.489" transform="translate(-429.262 -173.491)" fill="#3b6837"/>
        <path id="Trazado_803578" data-name="Trazado 803578" d="M722.374,260.835c.782,7.049-4.773,13.449-4.773,13.449s-6.822-5.028-7.6-12.076,4.773-13.449,4.773-13.449,6.822,5.028,7.6,12.076" transform="translate(-441.401 -154.668)" fill="#65b15b"/>
        <path id="Trazado_803579" data-name="Trazado 803579" d="M709.581,332.7H694.974l-4.789-21.312H714.37Z" transform="translate(-429.129 -193.607)" fill="#62324a"/>
        <path id="Trazado_803580" data-name="Trazado 803580" d="M728.472,332.7H713.865l-2.155-21.312h21.552Z" transform="translate(-442.512 -193.607)" fill="#a0523a"/>
      </g>
    </g>
  </g>
</svg>
