<svg xmlns="http://www.w3.org/2000/svg" width="80" height="80" viewBox="0 0 80 80">
  <g id="Grupo_1068689" data-name="Grupo 1068689" transform="translate(-213 -736)">
    <circle id="Elipse_8612" data-name="Elipse 8612" cx="40" cy="40" r="40" transform="translate(213 736)" fill="#e9e2ff"/>
    <path id="server-control" d="M71.456,88.654a4.772,4.772,0,0,1,0,9.35v8.587a.969.969,0,0,1-1.938,0V98.016a4.786,4.786,0,0,1-2.41-8.054,4.7,4.7,0,0,1,2.41-1.3V84.2a.969.969,0,0,1,1.938,0ZM72.5,91.331a2.839,2.839,0,1,0,0,4.021A2.843,2.843,0,0,0,72.5,91.331ZM65.776,70.694h9.41a.972.972,0,0,1,.969.969V79.6a.972.972,0,0,1-.969.969h-9.41a.972.972,0,0,1-.969-.969V71.662A.98.98,0,0,1,65.776,70.694Zm8.441,1.938H66.745v5.995h7.473Zm-32.3,26.693h1.671V97.653h-9.2a3.471,3.471,0,0,1-3.464-3.464v-2.3a3.463,3.463,0,0,1,3.464-3.464h9.2V86.741h-9.2a3.471,3.471,0,0,1-3.464-3.464v-2.3a3.463,3.463,0,0,1,3.464-3.464h9.2V75.829h-9.2a3.471,3.471,0,0,1-3.464-3.464v-2.3A3.463,3.463,0,0,1,34.384,66.6H54.731a3.463,3.463,0,0,1,3.464,3.464v2.3a3.471,3.471,0,0,1-3.464,3.464h-9.2v1.683h9.2a3.463,3.463,0,0,1,3.464,3.464v2.3a3.471,3.471,0,0,1-3.464,3.464h-9.2v1.683h9.2a3.463,3.463,0,0,1,3.464,3.464v2.3a3.471,3.471,0,0,1-3.464,3.464h-9.2v1.671H47.2a.972.972,0,0,1,.969.969v1.817H58.9v-1.817a.972.972,0,0,1,.969-.969h1.671V67.751a.972.972,0,0,1,.969-.969H78.469a.972.972,0,0,1,.969.969V111.52a.972.972,0,0,1-.969.969H62.506a.972.972,0,0,1-.969-.969v-4.978H59.866a.972.972,0,0,1-.969-.969v-1.526H48.167v1.526a.972.972,0,0,1-.969.969h-5.28a.972.972,0,0,1-.969-.969v-1.526H30.218v1.526a.972.972,0,0,1-.969.969h-5.28a.972.972,0,0,1-.969-.969v-5.28a.972.972,0,0,1,.969-.969h5.28a.972.972,0,0,1,.969.969v1.817h10.73v-1.817a.972.972,0,0,1,.969-.969Zm4.312,1.938H42.886V104.6h3.343Zm-17.949,0H24.938V104.6H28.28Zm35.195-1.938h1.671a.972.972,0,0,1,.969.969v5.28a.972.972,0,0,1-.969.969H63.475v4.009H77.5V68.719H63.475Zm.7,1.938H60.835V104.6h3.343ZM54.731,90.35H34.384a1.535,1.535,0,0,0-1.526,1.526v2.3A1.535,1.535,0,0,0,34.384,95.7H54.731a1.535,1.535,0,0,0,1.526-1.526v-2.3A1.535,1.535,0,0,0,54.731,90.35Zm0-10.912H34.384a1.535,1.535,0,0,0-1.526,1.526v2.3a1.535,1.535,0,0,0,1.526,1.526H54.731a1.535,1.535,0,0,0,1.526-1.526v-2.3A1.535,1.535,0,0,0,54.731,79.438Zm0-10.912H34.384a1.535,1.535,0,0,0-1.526,1.526v2.3a1.535,1.535,0,0,0,1.526,1.526H54.731a1.535,1.535,0,0,0,1.526-1.526v-2.3A1.535,1.535,0,0,0,54.731,68.526Z" transform="translate(202 686.4)" fill="#1e5af9"/>
  </g>
</svg>
