<svg id="malware" xmlns="http://www.w3.org/2000/svg" width="60" height="42.423" viewBox="0 0 60 42.423">
  <g id="Grupo_1068065" data-name="Grupo 1068065" transform="translate(0.879 0.879)">
    <g id="Grupo_1068064" data-name="Grupo 1068064">
      <path id="Trazado_803614" data-name="Trazado 803614" d="M37.617,84.252v31.571l48.957,2.344V84.252a1.758,1.758,0,0,0-1.758-1.758H39.375A1.758,1.758,0,0,0,37.617,84.252Z" transform="translate(-34.088 -82.494)" fill="#80b6fc"/>
      <path id="Trazado_803615" data-name="Trazado 803615" d="M432.9,82.494h-3.516a1.758,1.758,0,0,1,1.758,1.758v33.915l3.516-2.344V84.252a1.758,1.758,0,0,0-1.758-1.758Z" transform="translate(-379.944 -82.494)" fill="#62a4fb"/>
      <path id="Trazado_803616" data-name="Trazado 803616" d="M189.31,120.038a9.058,9.058,0,0,0-1.348-.015,8.855,8.855,0,0,0-7.505,8.751v12.954l17.471,1.172V128.773A8.556,8.556,0,0,0,189.31,120.038Z" transform="translate(-160.189 -115.601)" fill="#fd8087"/>
      <path id="Trazado_803617" data-name="Trazado 803617" d="M245.848,119.351a8.919,8.919,0,0,0-1.348.1,8.855,8.855,0,0,1,7.505,8.751v15.3l2.7-2.344V128.2A8.853,8.853,0,0,0,245.848,119.351Z" transform="translate(-216.727 -115.032)" fill="#fd4755"/>
      <ellipse id="Elipse_8649" data-name="Elipse 8649" cx="1.577" cy="1.577" rx="1.577" ry="1.577" transform="translate(27.41 22.99) rotate(-84.78)" fill="#f7f9fa"/>
      <g id="Grupo_1068062" data-name="Grupo 1068062" transform="translate(27.576 7.299)">
        <g id="Grupo_1068061" data-name="Grupo 1068061">
          <g id="Grupo_1068060" data-name="Grupo 1068060">
            <path id="Trazado_803618" data-name="Trazado 803618" d="M244.374,154.794a1.561,1.561,0,0,1-1.561-1.561v-6.889a1.561,1.561,0,0,1,3.123,0v6.889A1.561,1.561,0,0,1,244.374,154.794Z" transform="translate(-242.813 -144.782)" fill="#f7f9fa"/>
          </g>
        </g>
      </g>
      <path id="Trazado_803619" data-name="Trazado 803619" d="M166.253,305.436H148.6a2.93,2.93,0,0,0-2.93,2.93v4.273l23.516,2.344v-6.617A2.93,2.93,0,0,0,166.253,305.436Z" transform="translate(-129.476 -279.31)" fill="#7e8b96"/>
      <path id="Trazado_803620" data-name="Trazado 803620" d="M314.849,305.436h-3.516a2.93,2.93,0,0,1,2.93,2.93v6.617l3.516-2.344v-4.273A2.93,2.93,0,0,0,314.849,305.436Z" transform="translate(-275.728 -279.31)" fill="#4e5a61"/>
      <path id="Trazado_803621" data-name="Trazado 803621" d="M61.641,374.236H10.43a2.93,2.93,0,0,1-2.93-2.93v-3.235A1.172,1.172,0,0,1,8.672,366.9H29.724l7.314,1.172,6.482-1.172H63.4a1.172,1.172,0,0,1,1.172,1.172v3.235A2.93,2.93,0,0,1,61.641,374.236Z" transform="translate(-7.5 -333.57)" fill="#f7f9fa"/>
      <g id="Grupo_1068063" data-name="Grupo 1068063" transform="translate(22.224 33.329)">
        <path id="Trazado_803622" data-name="Trazado 803622" d="M454.773,366.9h-3.516a1.172,1.172,0,0,1,1.172,1.172v3.235a2.93,2.93,0,0,1-2.93,2.93h3.516a2.93,2.93,0,0,0,2.93-2.93v-3.235A1.172,1.172,0,0,0,454.773,366.9Z" transform="translate(-419.927 -366.899)" fill="#e9edf1"/>
        <path id="Trazado_803623" data-name="Trazado 803623" d="M209.764,370.566H198.313a1.172,1.172,0,0,1-1.172-1.172v-2.5h13.8v2.5A1.172,1.172,0,0,1,209.764,370.566Z" transform="translate(-197.141 -366.898)" fill="#e9edf1"/>
      </g>
    </g>
  </g>
  <g id="Grupo_1068066" data-name="Grupo 1068066" transform="translate(0 0)">
    <path id="Trazado_803624" data-name="Trazado 803624" d="M114.965,113.7a.879.879,0,0,0,.621-1.5l-2.9-2.9a.879.879,0,0,0-1.243,1.243l2.9,2.9A.876.876,0,0,0,114.965,113.7Z" transform="translate(-98.158 -105.054)"/>
    <path id="Trazado_803625" data-name="Trazado 803625" d="M86.734,183.688a.879.879,0,0,0,.879.879h4.314a.879.879,0,0,0,0-1.758H87.613A.879.879,0,0,0,86.734,183.688Z" transform="translate(-76.57 -170.174)"/>
    <path id="Trazado_803626" data-name="Trazado 803626" d="M364.24,109.3l-2.9,2.9a.879.879,0,0,0,1.243,1.243l2.9-2.9a.879.879,0,0,0-1.243-1.243Z" transform="translate(-318.771 -105.054)"/>
    <path id="Trazado_803627" data-name="Trazado 803627" d="M373.449,183.688a.879.879,0,0,0,.879.879h4.314a.879.879,0,0,0,0-1.758h-4.314A.879.879,0,0,0,373.449,183.688Z" transform="translate(-329.685 -170.174)"/>
    <path id="Trazado_803628" data-name="Trazado 803628" d="M237.5,250.5a2.456,2.456,0,1,0-2.456-2.456A2.459,2.459,0,0,0,237.5,250.5Zm0-3.154a.7.7,0,1,1-.7.7A.7.7,0,0,1,237.5,247.346Z" transform="translate(-207.497 -225.597)"/>
    <path id="Trazado_803629" data-name="Trazado 803629" d="M237.753,149.052a2.443,2.443,0,0,0,2.44-2.44v-6.889a2.44,2.44,0,1,0-4.88,0v6.889A2.443,2.443,0,0,0,237.753,149.052Zm-.682-9.33a.682.682,0,1,1,1.365,0v6.889a.682.682,0,1,1-1.365,0Z" transform="translate(-207.737 -129.983)"/>
    <path id="Trazado_803630" data-name="Trazado 803630" d="M22.224,110.08V111.7a2.053,2.053,0,0,0,2.051,2.051H35.726a2.053,2.053,0,0,0,2.051-2.051V110.08H57.949a.293.293,0,0,1,.293.293v3.235a2.053,2.053,0,0,1-2.051,2.051h-8.71a.879.879,0,1,0,0,1.758h8.71A3.813,3.813,0,0,0,60,113.609v-3.235a2.053,2.053,0,0,0-2.051-2.051H56.471V77.631a2.64,2.64,0,0,0-2.637-2.637H6.166a2.64,2.64,0,0,0-2.637,2.637v30.692H2.051A2.053,2.053,0,0,0,0,110.373v3.235a3.813,3.813,0,0,0,3.809,3.809H43.651a.879.879,0,0,0,0-1.758H3.809a2.053,2.053,0,0,1-2.051-2.051v-3.235a.293.293,0,0,1,.293-.293H9.066a.879.879,0,1,0,0-1.758H5.287V77.631a.88.88,0,0,1,.879-.879H53.834a.88.88,0,0,1,.879.879v30.692h-10.9v-3.394A3.813,3.813,0,0,0,40,101.12h-.268V89.045a9.732,9.732,0,0,0-19.463,0V92.58a.879.879,0,0,0,1.758,0V89.045a7.974,7.974,0,1,1,15.948,0V101.12H22.026V96.41a.879.879,0,0,0-1.758,0v4.71H20a3.813,3.813,0,0,0-3.809,3.809v3.394H12.9a.879.879,0,1,0,0,1.758Zm13.8,1.618a.293.293,0,0,1-.293.293H24.274a.293.293,0,0,1-.293-.293V110.08H36.019Zm-18.069-3.375v-3.394A2.053,2.053,0,0,1,20,102.878H40a2.053,2.053,0,0,1,2.051,2.051v3.394Z" transform="translate(0 -74.994)"/>
  </g>
</svg>
