<svg xmlns="http://www.w3.org/2000/svg" width="820" height="510" viewBox="0 0 820 510">
  <g id="Grupo_1068694" data-name="Grupo 1068694" transform="translate(-390 -11738)">
    <path id="Trazado_804668" data-name="Trazado 804668" d="M10,0H810a10,10,0,0,1,10,10V500a10,10,0,0,1-10,10H10A10,10,0,0,1,0,500V10A10,10,0,0,1,10,0Z" transform="translate(390 11738)" fill="#fff"/>
    <path id="Trazado_804669" data-name="Trazado 804669" d="M0,0H610V260H0Z" transform="translate(495 11779)" fill="#e9e2ff"/>
    <path id="Trazado_804678" data-name="Trazado 804678" d="M0,0H610V120H0Z" transform="translate(495 12083)" fill="#e9e2ff"/>
    <g id="Trazado_804670" data-name="Trazado 804670" transform="translate(567 11807)" fill="none" stroke-linecap="round" stroke-dasharray="2 3">
      <path d="M0,0H466V140H0Z" stroke="none"/>
      <path d="M 0 -2 L 2 -2 C 2.55230712890625 -2 3 -1.552291870117188 3 -1 C 3 -0.4477081298828125 2.55230712890625 0 2 0 C 2 0 0 0 0 0 C 0 0 0 0 0 0 C 0 0 0 2 0 2 C 0 2.552291870117188 -0.44769287109375 3 -1 3 C -1.55230712890625 3 -2 2.552291870117188 -2 2 L -2 0 C -2 -0.5522918701171875 -1.55230712890625 -1 -1 -1 C -1 -1 -1 -1 -1 -1 C -1 -1.552291870117188 -0.55230712890625 -2 0 -2 Z M 5 -2 L 7 -2 C 7.55230712890625 -2 8 -1.552291870117188 8 -1 C 8 -0.4477081298828125 7.55230712890625 0 7 0 C 7 0 5 0 5 0 C 4.44769287109375 0 4 -0.4477081298828125 4 -1 C 4 -1.552291870117188 4.44769287109375 -2 5 -2 Z M 10 -2 L 12 -2 C 12.55230712890625 -2 13 -1.552291870117188 13 -1 C 13 -0.4477081298828125 12.55230712890625 0 12 0 C 12 0 10 0 10 0 C 9.44769287109375 0 9 -0.4477081298828125 9 -1 C 9 -1.552291870117188 9.44769287109375 -2 10 -2 Z M 15 -2 L 17 -2 C 17.55230712890625 -2 18 -1.552291870117188 18 -1 C 18 -0.4477081298828125 17.55230712890625 0 17 0 C 17 0 15 0 15 0 C 14.44769287109375 0 14 -0.4477081298828125 14 -1 C 14 -1.552291870117188 14.44769287109375 -2 15 -2 Z M 20 -2 L 22 -2 C 22.55230712890625 -2 23 -1.552291870117188 23 -1 C 23 -0.4477081298828125 22.55230712890625 0 22 0 C 22 0 20 0 20 0 C 19.44769287109375 0 19 -0.4477081298828125 19 -1 C 19 -1.552291870117188 19.44769287109375 -2 20 -2 Z M 25 -2 L 27 -2 C 27.55230712890625 -2 28 -1.552291870117188 28 -1 C 28 -0.4477081298828125 27.55230712890625 0 27 0 C 27 0 25 0 25 0 C 24.44769287109375 0 24 -0.4477081298828125 24 -1 C 24 -1.552291870117188 24.44769287109375 -2 25 -2 Z M 30 -2 L 32 -2 C 32.55230712890625 -2 33 -1.552291870117188 33 -1 C 33 -0.4477081298828125 32.55230712890625 0 32 0 C 32 0 30 0 30 0 C 29.44769287109375 0 29 -0.4477081298828125 29 -1 C 29 -1.552291870117188 29.44769287109375 -2 30 -2 Z M 35 -2 L 37 -2 C 37.55230712890625 -2 38 -1.552291870117188 38 -1 C 38 -0.4477081298828125 37.55230712890625 0 37 0 C 37 0 35 0 35 0 C 34.44769287109375 0 34 -0.4477081298828125 34 -1 C 34 -1.552291870117188 34.44769287109375 -2 35 -2 Z M 40 -2 L 42 -2 C 42.55230712890625 -2 43 -1.552291870117188 43 -1 C 43 -0.4477081298828125 42.55230712890625 0 42 0 C 42 0 40 0 40 0 C 39.44769287109375 0 39 -0.4477081298828125 39 -1 C 39 -1.552291870117188 39.44769287109375 -2 40 -2 Z M 45 -2 L 47 -2 C 47.55230712890625 -2 48 -1.552291870117188 48 -1 C 48 -0.4477081298828125 47.55230712890625 0 47 0 C 47 0 45 0 45 0 C 44.44769287109375 0 44 -0.4477081298828125 44 -1 C 44 -1.552291870117188 44.44769287109375 -2 45 -2 Z M 50 -2 L 52 -2 C 52.55230712890625 -2 53 -1.552291870117188 53 -1 C 53 -0.4477081298828125 52.55230712890625 0 52 0 C 52 0 50 0 50 0 C 49.44769287109375 0 49 -0.4477081298828125 49 -1 C 49 -1.552291870117188 49.44769287109375 -2 50 -2 Z M 55 -2 L 57 -2 C 57.55230712890625 -2 58 -1.552291870117188 58 -1 C 58 -0.4477081298828125 57.55230712890625 0 57 0 C 57 0 55 0 55 0 C 54.44769287109375 0 54 -0.4477081298828125 54 -1 C 54 -1.552291870117188 54.44769287109375 -2 55 -2 Z M 60 -2 L 62 -2 C 62.55230712890625 -2 63 -1.552291870117188 63 -1 C 63 -0.4477081298828125 62.55230712890625 0 62 0 C 62 0 60 0 60 0 C 59.44769287109375 0 59 -0.4477081298828125 59 -1 C 59 -1.552291870117188 59.44769287109375 -2 60 -2 Z M 65 -2 L 67 -2 C 67.55230712890625 -2 68 -1.552291870117188 68 -1 C 68 -0.4477081298828125 67.55230712890625 0 67 0 C 67 0 65 0 65 0 C 64.44769287109375 0 64 -0.4477081298828125 64 -1 C 64 -1.552291870117188 64.44769287109375 -2 65 -2 Z M 70 -2 L 72 -2 C 72.55230712890625 -2 73 -1.552291870117188 73 -1 C 73 -0.4477081298828125 72.55230712890625 0 72 0 C 72 0 70 0 70 0 C 69.44769287109375 0 69 -0.4477081298828125 69 -1 C 69 -1.552291870117188 69.44769287109375 -2 70 -2 Z M 75 -2 L 77 -2 C 77.55230712890625 -2 78 -1.552291870117188 78 -1 C 78 -0.4477081298828125 77.55230712890625 0 77 0 C 77 0 75 0 75 0 C 74.44769287109375 0 74 -0.4477081298828125 74 -1 C 74 -1.552291870117188 74.44769287109375 -2 75 -2 Z M 80 -2 L 82 -2 C 82.55230712890625 -2 83 -1.552291870117188 83 -1 C 83 -0.4477081298828125 82.55230712890625 0 82 0 C 82 0 80 0 80 0 C 79.44769287109375 0 79 -0.4477081298828125 79 -1 C 79 -1.552291870117188 79.44769287109375 -2 80 -2 Z M 85 -2 L 87 -2 C 87.55230712890625 -2 88 -1.552291870117188 88 -1 C 88 -0.4477081298828125 87.55230712890625 0 87 0 C 87 0 85 0 85 0 C 84.44769287109375 0 84 -0.4477081298828125 84 -1 C 84 -1.552291870117188 84.44769287109375 -2 85 -2 Z M 90 -2 L 92 -2 C 92.55230712890625 -2 93 -1.552291870117188 93 -1 C 93 -0.4477081298828125 92.55230712890625 0 92 0 C 92 0 90 0 90 0 C 89.44769287109375 0 89 -0.4477081298828125 89 -1 C 89 -1.552291870117188 89.44769287109375 -2 90 -2 Z M 95 -2 L 97 -2 C 97.55230712890625 -2 98 -1.552291870117188 98 -1 C 98 -0.4477081298828125 97.55230712890625 0 97 0 C 97 0 95 0 95 0 C 94.44769287109375 0 94 -0.4477081298828125 94 -1 C 94 -1.552291870117188 94.44769287109375 -2 95 -2 Z M 100 -2 L 102 -2 C 102.5523071289062 -2 103 -1.552291870117188 103 -1 C 103 -0.4477081298828125 102.5523071289062 0 102 0 C 102 0 100 0 100 0 C 99.44769287109375 0 99 -0.4477081298828125 99 -1 C 99 -1.552291870117188 99.44769287109375 -2 100 -2 Z M 105 -2 L 107 -2 C 107.5523071289062 -2 108 -1.552291870117188 108 -1 C 108 -0.4477081298828125 107.5523071289062 0 107 0 C 107 0 105 0 105 0 C 104.4476928710938 0 104 -0.4477081298828125 104 -1 C 104 -1.552291870117188 104.4476928710938 -2 105 -2 Z M 110 -2 L 112 -2 C 112.5523071289062 -2 113 -1.552291870117188 113 -1 C 113 -0.4477081298828125 112.5523071289062 0 112 0 C 112 0 110 0 110 0 C 109.4476928710938 0 109 -0.4477081298828125 109 -1 C 109 -1.552291870117188 109.4476928710938 -2 110 -2 Z M 115 -2 L 117 -2 C 117.5523071289062 -2 118 -1.552291870117188 118 -1 C 118 -0.4477081298828125 117.5523071289062 0 117 0 C 117 0 115 0 115 0 C 114.4476928710938 0 114 -0.4477081298828125 114 -1 C 114 -1.552291870117188 114.4476928710938 -2 115 -2 Z M 120 -2 L 122 -2 C 122.5523071289062 -2 123 -1.552291870117188 123 -1 C 123 -0.4477081298828125 122.5523071289062 0 122 0 C 122 0 120 0 120 0 C 119.4476928710938 0 119 -0.4477081298828125 119 -1 C 119 -1.552291870117188 119.4476928710938 -2 120 -2 Z M 125 -2 L 127 -2 C 127.5523071289062 -2 128 -1.552291870117188 128 -1 C 128 -0.4477081298828125 127.5523071289062 0 127 0 C 127 0 125 0 125 0 C 124.4476928710938 0 124 -0.4477081298828125 124 -1 C 124 -1.552291870117188 124.4476928710938 -2 125 -2 Z M 130 -2 L 132 -2 C 132.5523071289062 -2 133 -1.552291870117188 133 -1 C 133 -0.4477081298828125 132.5523071289062 0 132 0 C 132 0 130 0 130 0 C 129.4476928710938 0 129 -0.4477081298828125 129 -1 C 129 -1.552291870117188 129.4476928710938 -2 130 -2 Z M 135 -2 L 137 -2 C 137.5523071289062 -2 138 -1.552291870117188 138 -1 C 138 -0.4477081298828125 137.5523071289062 0 137 0 C 137 0 135 0 135 0 C 134.4476928710938 0 134 -0.4477081298828125 134 -1 C 134 -1.552291870117188 134.4476928710938 -2 135 -2 Z M 140 -2 L 142 -2 C 142.5523071289062 -2 143 -1.552291870117188 143 -1 C 143 -0.4477081298828125 142.5523071289062 0 142 0 C 142 0 140 0 140 0 C 139.4476928710938 0 139 -0.4477081298828125 139 -1 C 139 -1.552291870117188 139.4476928710938 -2 140 -2 Z M 145 -2 L 147 -2 C 147.5523071289062 -2 148 -1.552291870117188 148 -1 C 148 -0.4477081298828125 147.5523071289062 0 147 0 C 147 0 145 0 145 0 C 144.4476928710938 0 144 -0.4477081298828125 144 -1 C 144 -1.552291870117188 144.4476928710938 -2 145 -2 Z M 150 -2 L 152 -2 C 152.5523071289062 -2 153 -1.552291870117188 153 -1 C 153 -0.4477081298828125 152.5523071289062 0 152 0 C 152 0 150 0 150 0 C 149.4476928710938 0 149 -0.4477081298828125 149 -1 C 149 -1.552291870117188 149.4476928710938 -2 150 -2 Z M 155 -2 L 157 -2 C 157.5523071289062 -2 158 -1.552291870117188 158 -1 C 158 -0.4477081298828125 157.5523071289062 0 157 0 C 157 0 155 0 155 0 C 154.4476928710938 0 154 -0.4477081298828125 154 -1 C 154 -1.552291870117188 154.4476928710938 -2 155 -2 Z M 160 -2 L 162 -2 C 162.5523071289062 -2 163 -1.552291870117188 163 -1 C 163 -0.4477081298828125 162.5523071289062 0 162 0 C 162 0 160 0 160 0 C 159.4476928710938 0 159 -0.4477081298828125 159 -1 C 159 -1.552291870117188 159.4476928710938 -2 160 -2 Z M 165 -2 L 167 -2 C 167.5523071289062 -2 168 -1.552291870117188 168 -1 C 168 -0.4477081298828125 167.5523071289062 0 167 0 C 167 0 165 0 165 0 C 164.4476928710938 0 164 -0.4477081298828125 164 -1 C 164 -1.552291870117188 164.4476928710938 -2 165 -2 Z M 170 -2 L 172 -2 C 172.5523071289062 -2 173 -1.552291870117188 173 -1 C 173 -0.4477081298828125 172.5523071289062 0 172 0 C 172 0 170 0 170 0 C 169.4476928710938 0 169 -0.4477081298828125 169 -1 C 169 -1.552291870117188 169.4476928710938 -2 170 -2 Z M 175 -2 L 177 -2 C 177.5523071289062 -2 178 -1.552291870117188 178 -1 C 178 -0.4477081298828125 177.5523071289062 0 177 0 C 177 0 175 0 175 0 C 174.4476928710938 0 174 -0.4477081298828125 174 -1 C 174 -1.552291870117188 174.4476928710938 -2 175 -2 Z M 180 -2 L 182 -2 C 182.5523071289062 -2 183 -1.552291870117188 183 -1 C 183 -0.4477081298828125 182.5523071289062 0 182 0 C 182 0 180 0 180 0 C 179.4476928710938 0 179 -0.4477081298828125 179 -1 C 179 -1.552291870117188 179.4476928710938 -2 180 -2 Z M 185 -2 L 187 -2 C 187.5523071289062 -2 188 -1.552291870117188 188 -1 C 188 -0.4477081298828125 187.5523071289062 0 187 0 C 187 0 185 0 185 0 C 184.4476928710938 0 184 -0.4477081298828125 184 -1 C 184 -1.552291870117188 184.4476928710938 -2 185 -2 Z M 190 -2 L 192 -2 C 192.5523071289062 -2 193 -1.552291870117188 193 -1 C 193 -0.4477081298828125 192.5523071289062 0 192 0 C 192 0 190 0 190 0 C 189.4476928710938 0 189 -0.4477081298828125 189 -1 C 189 -1.552291870117188 189.4476928710938 -2 190 -2 Z M 195 -2 L 197 -2 C 197.5523071289062 -2 198 -1.552291870117188 198 -1 C 198 -0.4477081298828125 197.5523071289062 0 197 0 C 197 0 195 0 195 0 C 194.4476928710938 0 194 -0.4477081298828125 194 -1 C 194 -1.552291870117188 194.4476928710938 -2 195 -2 Z M 200 -2 L 202 -2 C 202.5523071289062 -2 203 -1.552291870117188 203 -1 C 203 -0.4477081298828125 202.5523071289062 0 202 0 C 202 0 200 0 200 0 C 199.4476928710938 0 199 -0.4477081298828125 199 -1 C 199 -1.552291870117188 199.4476928710938 -2 200 -2 Z M 205 -2 L 207 -2 C 207.5523071289062 -2 208 -1.552291870117188 208 -1 C 208 -0.4477081298828125 207.5523071289062 0 207 0 C 207 0 205 0 205 0 C 204.4476928710938 0 204 -0.4477081298828125 204 -1 C 204 -1.552291870117188 204.4476928710938 -2 205 -2 Z M 210 -2 L 212 -2 C 212.5522918701172 -2 213 -1.552291870117188 213 -1 C 213 -0.4477081298828125 212.5522918701172 0 212 0 C 212 0 210 0 210 0 C 209.4476928710938 0 209 -0.4477081298828125 209 -1 C 209 -1.552291870117188 209.4476928710938 -2 210 -2 Z M 215 -2 L 217 -2 C 217.5522918701172 -2 218 -1.552291870117188 218 -1 C 218 -0.4477081298828125 217.5522918701172 0 217 0 C 217 0 215 0 215 0 C 214.4477081298828 0 214 -0.4477081298828125 214 -1 C 214 -1.552291870117188 214.4477081298828 -2 215 -2 Z M 220 -2 L 222 -2 C 222.5522918701172 -2 223 -1.552291870117188 223 -1 C 223 -0.4477081298828125 222.5522918701172 0 222 0 C 222 0 220 0 220 0 C 219.4477081298828 0 219 -0.4477081298828125 219 -1 C 219 -1.552291870117188 219.4477081298828 -2 220 -2 Z M 225 -2 L 227 -2 C 227.5522918701172 -2 228 -1.552291870117188 228 -1 C 228 -0.4477081298828125 227.5522918701172 0 227 0 C 227 0 225 0 225 0 C 224.4477081298828 0 224 -0.4477081298828125 224 -1 C 224 -1.552291870117188 224.4477081298828 -2 225 -2 Z M 230 -2 L 232 -2 C 232.5522918701172 -2 233 -1.552291870117188 233 -1 C 233 -0.4477081298828125 232.5522918701172 0 232 0 C 232 0 230 0 230 0 C 229.4477081298828 0 229 -0.4477081298828125 229 -1 C 229 -1.552291870117188 229.4477081298828 -2 230 -2 Z M 235 -2 L 237 -2 C 237.5522918701172 -2 238 -1.552291870117188 238 -1 C 238 -0.4477081298828125 237.5522918701172 0 237 0 C 237 0 235 0 235 0 C 234.4477081298828 0 234 -0.4477081298828125 234 -1 C 234 -1.552291870117188 234.4477081298828 -2 235 -2 Z M 240 -2 L 242 -2 C 242.5522918701172 -2 243 -1.552291870117188 243 -1 C 243 -0.4477081298828125 242.5522918701172 0 242 0 C 242 0 240 0 240 0 C 239.4477081298828 0 239 -0.4477081298828125 239 -1 C 239 -1.552291870117188 239.4477081298828 -2 240 -2 Z M 245 -2 L 247 -2 C 247.5522918701172 -2 248 -1.552291870117188 248 -1 C 248 -0.4477081298828125 247.5522918701172 0 247 0 C 247 0 245 0 245 0 C 244.4477081298828 0 244 -0.4477081298828125 244 -1 C 244 -1.552291870117188 244.4477081298828 -2 245 -2 Z M 250 -2 L 252 -2 C 252.5522918701172 -2 253 -1.552291870117188 253 -1 C 253 -0.4477081298828125 252.5522918701172 0 252 0 C 252 0 250 0 250 0 C 249.4477081298828 0 249 -0.4477081298828125 249 -1 C 249 -1.552291870117188 249.4477081298828 -2 250 -2 Z M 255 -2 L 257 -2 C 257.5523071289062 -2 258 -1.552291870117188 258 -1 C 258 -0.4477081298828125 257.5523071289062 0 257 0 C 257 0 255 0 255 0 C 254.4477081298828 0 254 -0.4477081298828125 254 -1 C 254 -1.552291870117188 254.4477081298828 -2 255 -2 Z M 260 -2 L 262 -2 C 262.5523071289062 -2 263 -1.552291870117188 263 -1 C 263 -0.4477081298828125 262.5523071289062 0 262 0 C 262 0 260 0 260 0 C 259.4476928710938 0 259 -0.4477081298828125 259 -1 C 259 -1.552291870117188 259.4476928710938 -2 260 -2 Z M 265 -2 L 267 -2 C 267.5523071289062 -2 268 -1.552291870117188 268 -1 C 268 -0.4477081298828125 267.5523071289062 0 267 0 C 267 0 265 0 265 0 C 264.4476928710938 0 264 -0.4477081298828125 264 -1 C 264 -1.552291870117188 264.4476928710938 -2 265 -2 Z M 270 -2 L 272 -2 C 272.5523071289062 -2 273 -1.552291870117188 273 -1 C 273 -0.4477081298828125 272.5523071289062 0 272 0 C 272 0 270 0 270 0 C 269.4476928710938 0 269 -0.4477081298828125 269 -1 C 269 -1.552291870117188 269.4476928710938 -2 270 -2 Z M 275 -2 L 277 -2 C 277.5523071289062 -2 278 -1.552291870117188 278 -1 C 278 -0.4477081298828125 277.5523071289062 0 277 0 C 277 0 275 0 275 0 C 274.4476928710938 0 274 -0.4477081298828125 274 -1 C 274 -1.552291870117188 274.4476928710938 -2 275 -2 Z M 280 -2 L 282 -2 C 282.5523071289062 -2 283 -1.552291870117188 283 -1 C 283 -0.4477081298828125 282.5523071289062 0 282 0 C 282 0 280 0 280 0 C 279.4476928710938 0 279 -0.4477081298828125 279 -1 C 279 -1.552291870117188 279.4476928710938 -2 280 -2 Z M 285 -2 L 287 -2 C 287.5523071289062 -2 288 -1.552291870117188 288 -1 C 288 -0.4477081298828125 287.5523071289062 0 287 0 C 287 0 285 0 285 0 C 284.4476928710938 0 284 -0.4477081298828125 284 -1 C 284 -1.552291870117188 284.4476928710938 -2 285 -2 Z M 290 -2 L 292 -2 C 292.5523071289062 -2 293 -1.552291870117188 293 -1 C 293 -0.4477081298828125 292.5523071289062 0 292 0 C 292 0 290 0 290 0 C 289.4476928710938 0 289 -0.4477081298828125 289 -1 C 289 -1.552291870117188 289.4476928710938 -2 290 -2 Z M 295 -2 L 297 -2 C 297.5523071289062 -2 298 -1.552291870117188 298 -1 C 298 -0.4477081298828125 297.5523071289062 0 297 0 C 297 0 295 0 295 0 C 294.4476928710938 0 294 -0.4477081298828125 294 -1 C 294 -1.552291870117188 294.4476928710938 -2 295 -2 Z M 300 -2 L 302 -2 C 302.5523071289062 -2 303 -1.552291870117188 303 -1 C 303 -0.4477081298828125 302.5523071289062 0 302 0 C 302 0 300 0 300 0 C 299.4476928710938 0 299 -0.4477081298828125 299 -1 C 299 -1.552291870117188 299.4476928710938 -2 300 -2 Z M 305 -2 L 307 -2 C 307.5523071289062 -2 308 -1.552291870117188 308 -1 C 308 -0.4477081298828125 307.5523071289062 0 307 0 C 307 0 305 0 305 0 C 304.4476928710938 0 304 -0.4477081298828125 304 -1 C 304 -1.552291870117188 304.4476928710938 -2 305 -2 Z M 310 -2 L 312 -2 C 312.5523071289062 -2 313 -1.552291870117188 313 -1 C 313 -0.4477081298828125 312.5523071289062 0 312 0 C 312 0 310 0 310 0 C 309.4476928710938 0 309 -0.4477081298828125 309 -1 C 309 -1.552291870117188 309.4476928710938 -2 310 -2 Z M 315 -2 L 317 -2 C 317.5523071289062 -2 318 -1.552291870117188 318 -1 C 318 -0.4477081298828125 317.5523071289062 0 317 0 C 317 0 315 0 315 0 C 314.4476928710938 0 314 -0.4477081298828125 314 -1 C 314 -1.552291870117188 314.4476928710938 -2 315 -2 Z M 320 -2 L 322 -2 C 322.5523071289062 -2 323 -1.552291870117188 323 -1 C 323 -0.4477081298828125 322.5523071289062 0 322 0 C 322 0 320 0 320 0 C 319.4476928710938 0 319 -0.4477081298828125 319 -1 C 319 -1.552291870117188 319.4476928710938 -2 320 -2 Z M 325 -2 L 327 -2 C 327.5523071289062 -2 328 -1.552291870117188 328 -1 C 328 -0.4477081298828125 327.5523071289062 0 327 0 C 327 0 325 0 325 0 C 324.4476928710938 0 324 -0.4477081298828125 324 -1 C 324 -1.552291870117188 324.4476928710938 -2 325 -2 Z M 330 -2 L 332 -2 C 332.5523071289062 -2 333 -1.552291870117188 333 -1 C 333 -0.4477081298828125 332.5523071289062 0 332 0 C 332 0 330 0 330 0 C 329.4476928710938 0 329 -0.4477081298828125 329 -1 C 329 -1.552291870117188 329.4476928710938 -2 330 -2 Z M 335 -2 L 337 -2 C 337.5523071289062 -2 338 -1.552291870117188 338 -1 C 338 -0.4477081298828125 337.5523071289062 0 337 0 C 337 0 335 0 335 0 C 334.4476928710938 0 334 -0.4477081298828125 334 -1 C 334 -1.552291870117188 334.4476928710938 -2 335 -2 Z M 340 -2 L 342 -2 C 342.5523071289062 -2 343 -1.552291870117188 343 -1 C 343 -0.4477081298828125 342.5523071289062 0 342 0 C 342 0 340 0 340 0 C 339.4476928710938 0 339 -0.4477081298828125 339 -1 C 339 -1.552291870117188 339.4476928710938 -2 340 -2 Z M 345 -2 L 347 -2 C 347.5523071289062 -2 348 -1.552291870117188 348 -1 C 348 -0.4477081298828125 347.5523071289062 0 347 0 C 347 0 345 0 345 0 C 344.4476928710938 0 344 -0.4477081298828125 344 -1 C 344 -1.552291870117188 344.4476928710938 -2 345 -2 Z M 350 -2 L 352 -2 C 352.5523071289062 -2 353 -1.552291870117188 353 -1 C 353 -0.4477081298828125 352.5523071289062 0 352 0 C 352 0 350 0 350 0 C 349.4476928710938 0 349 -0.4477081298828125 349 -1 C 349 -1.552291870117188 349.4476928710938 -2 350 -2 Z M 355 -2 L 357 -2 C 357.5523071289062 -2 358 -1.552291870117188 358 -1 C 358 -0.4477081298828125 357.5523071289062 0 357 0 C 357 0 355 0 355 0 C 354.4476928710938 0 354 -0.4477081298828125 354 -1 C 354 -1.552291870117188 354.4476928710938 -2 355 -2 Z M 360 -2 L 362 -2 C 362.5523071289062 -2 363 -1.552291870117188 363 -1 C 363 -0.4477081298828125 362.5523071289062 0 362 0 C 362 0 360 0 360 0 C 359.4476928710938 0 359 -0.4477081298828125 359 -1 C 359 -1.552291870117188 359.4476928710938 -2 360 -2 Z M 365 -2 L 367 -2 C 367.5523071289062 -2 368 -1.552291870117188 368 -1 C 368 -0.4477081298828125 367.5523071289062 0 367 0 C 367 0 365 0 365 0 C 364.4476928710938 0 364 -0.4477081298828125 364 -1 C 364 -1.552291870117188 364.4476928710938 -2 365 -2 Z M 370 -2 L 372 -2 C 372.5523071289062 -2 373 -1.552291870117188 373 -1 C 373 -0.4477081298828125 372.5523071289062 0 372 0 C 372 0 370 0 370 0 C 369.4476928710938 0 369 -0.4477081298828125 369 -1 C 369 -1.552291870117188 369.4476928710938 -2 370 -2 Z M 375 -2 L 377 -2 C 377.5523071289062 -2 378 -1.552291870117188 378 -1 C 378 -0.4477081298828125 377.5523071289062 0 377 0 C 377 0 375 0 375 0 C 374.4476928710938 0 374 -0.4477081298828125 374 -1 C 374 -1.552291870117188 374.4476928710938 -2 375 -2 Z M 380 -2 L 382 -2 C 382.5523071289062 -2 383 -1.552291870117188 383 -1 C 383 -0.4477081298828125 382.5523071289062 0 382 0 C 382 0 380 0 380 0 C 379.4476928710938 0 379 -0.4477081298828125 379 -1 C 379 -1.552291870117188 379.4476928710938 -2 380 -2 Z M 385 -2 L 387 -2 C 387.5523071289062 -2 388 -1.552291870117188 388 -1 C 388 -0.4477081298828125 387.5523071289062 0 387 0 C 387 0 385 0 385 0 C 384.4476928710938 0 384 -0.4477081298828125 384 -1 C 384 -1.552291870117188 384.4476928710938 -2 385 -2 Z M 390 -2 L 392 -2 C 392.5523071289062 -2 393 -1.552291870117188 393 -1 C 393 -0.4477081298828125 392.5523071289062 0 392 0 C 392 0 390 0 390 0 C 389.4476928710938 0 389 -0.4477081298828125 389 -1 C 389 -1.552291870117188 389.4476928710938 -2 390 -2 Z M 395 -2 L 397 -2 C 397.5523071289062 -2 398 -1.552291870117188 398 -1 C 398 -0.4477081298828125 397.5523071289062 0 397 0 C 397 0 395 0 395 0 C 394.4476928710938 0 394 -0.4477081298828125 394 -1 C 394 -1.552291870117188 394.4476928710938 -2 395 -2 Z M 400 -2 L 402 -2 C 402.5523071289062 -2 403 -1.552291870117188 403 -1 C 403 -0.4477081298828125 402.5523071289062 0 402 0 C 402 0 400 0 400 0 C 399.4476928710938 0 399 -0.4477081298828125 399 -1 C 399 -1.552291870117188 399.4476928710938 -2 400 -2 Z M 405 -2 L 407 -2 C 407.5523071289062 -2 408 -1.552291870117188 408 -1 C 408 -0.4477081298828125 407.5523071289062 0 407 0 C 407 0 405 0 405 0 C 404.4476928710938 0 404 -0.4477081298828125 404 -1 C 404 -1.552291870117188 404.4476928710938 -2 405 -2 Z M 410 -2 L 412 -2 C 412.5523071289062 -2 413 -1.552291870117188 413 -1 C 413 -0.4477081298828125 412.5523071289062 0 412 0 C 412 0 410 0 410 0 C 409.4476928710938 0 409 -0.4477081298828125 409 -1 C 409 -1.552291870117188 409.4476928710938 -2 410 -2 Z M 415 -2 L 417 -2 C 417.5523071289062 -2 418 -1.552291870117188 418 -1 C 418 -0.4477081298828125 417.5523071289062 0 417 0 C 417 0 415 0 415 0 C 414.4476928710938 0 414 -0.4477081298828125 414 -1 C 414 -1.552291870117188 414.4476928710938 -2 415 -2 Z M 420 -2 L 422 -2 C 422.5523071289062 -2 423 -1.552291870117188 423 -1 C 423 -0.4477081298828125 422.5523071289062 0 422 0 C 422 0 420 0 420 0 C 419.4476928710938 0 419 -0.4477081298828125 419 -1 C 419 -1.552291870117188 419.4476928710938 -2 420 -2 Z M 425 -2 L 427 -2 C 427.5523071289062 -2 428 -1.552291870117188 428 -1 C 428 -0.4477081298828125 427.5523071289062 0 427 0 C 427 0 425 0 425 0 C 424.4476928710938 0 424 -0.4477081298828125 424 -1 C 424 -1.552291870117188 424.4476928710938 -2 425 -2 Z M 430 -2 L 432 -2 C 432.5523071289062 -2 433 -1.552291870117188 433 -1 C 433 -0.4477081298828125 432.5523071289062 0 432 0 C 432 0 430 0 430 0 C 429.4476928710938 0 429 -0.4477081298828125 429 -1 C 429 -1.552291870117188 429.4476928710938 -2 430 -2 Z M 435 -2 L 437 -2 C 437.5523071289062 -2 438 -1.552291870117188 438 -1 C 438 -0.4477081298828125 437.5523071289062 0 437 0 C 437 0 435 0 435 0 C 434.4476928710938 0 434 -0.4477081298828125 434 -1 C 434 -1.552291870117188 434.4476928710938 -2 435 -2 Z M 440 -2 L 442 -2 C 442.5523071289062 -2 443 -1.552291870117188 443 -1 C 443 -0.4477081298828125 442.5523071289062 0 442 0 C 442 0 440 0 440 0 C 439.4476928710938 0 439 -0.4477081298828125 439 -1 C 439 -1.552291870117188 439.4476928710938 -2 440 -2 Z M 445 -2 L 447 -2 C 447.5523071289062 -2 448 -1.552291870117188 448 -1 C 448 -0.4477081298828125 447.5523071289062 0 447 0 C 447 0 445 0 445 0 C 444.4476928710938 0 444 -0.4477081298828125 444 -1 C 444 -1.552291870117188 444.4476928710938 -2 445 -2 Z M 450 -2 L 452 -2 C 452.5523071289062 -2 453 -1.552291870117188 453 -1 C 453 -0.4477081298828125 452.5523071289062 0 452 0 C 452 0 450 0 450 0 C 449.4476928710938 0 449 -0.4477081298828125 449 -1 C 449 -1.552291870117188 449.4476928710938 -2 450 -2 Z M 455 -2 L 457 -2 C 457.5523071289062 -2 458 -1.552291870117188 458 -1 C 458 -0.4477081298828125 457.5523071289062 0 457 0 C 457 0 455 0 455 0 C 454.4476928710938 0 454 -0.4477081298828125 454 -1 C 454 -1.552291870117188 454.4476928710938 -2 455 -2 Z M 460 -2 L 462 -2 C 462.5523071289062 -2 463 -1.552291870117188 463 -1 C 463 -0.4477081298828125 462.5523071289062 0 462 0 C 462 0 460 0 460 0 C 459.4476928710938 0 459 -0.4477081298828125 459 -1 C 459 -1.552291870117188 459.4476928710938 -2 460 -2 Z M 465 -2 L 468 -2 L 468 1 C 468 1.552291870117188 467.5523071289062 2 467 2 C 466.4476928710938 2 466 1.552291870117188 466 1 L 466 0 C 466 0 466 0 466 0 C 466 0 465 0 465 0 C 464.4476928710938 0 464 -0.4477081298828125 464 -1 C 464 -1.552291870117188 464.4476928710938 -2 465 -2 Z M 467 3 C 467.5523071289062 3 468 3.447708129882812 468 4 L 468 6 C 468 6.552291870117188 467.5523071289062 7 467 7 C 466.4476928710938 7 466 6.552291870117188 466 6 L 466 4 C 466 3.447708129882812 466.4476928710938 3 467 3 Z M 467 8 C 467.5523071289062 8 468 8.447708129882812 468 9 L 468 11 C 468 11.55229187011719 467.5523071289062 12 467 12 C 466.4476928710938 12 466 11.55229187011719 466 11 L 466 9 C 466 8.447708129882812 466.4476928710938 8 467 8 Z M 467 13 C 467.5523071289062 13 468 13.44770812988281 468 14 L 468 16 C 468 16.55229187011719 467.5523071289062 17 467 17 C 466.4476928710938 17 466 16.55229187011719 466 16 L 466 14 C 466 13.44770812988281 466.4476928710938 13 467 13 Z M 467 18 C 467.5523071289062 18 468 18.44770812988281 468 19 L 468 21 C 468 21.55229187011719 467.5523071289062 22 467 22 C 466.4476928710938 22 466 21.55229187011719 466 21 L 466 19 C 466 18.44770812988281 466.4476928710938 18 467 18 Z M 467 23 C 467.5523071289062 23 468 23.44770812988281 468 24 L 468 26 C 468 26.55229187011719 467.5523071289062 27 467 27 C 466.4476928710938 27 466 26.55229187011719 466 26 L 466 24 C 466 23.44770812988281 466.4476928710938 23 467 23 Z M 467 28 C 467.5523071289062 28 468 28.44770812988281 468 29 L 468 31 C 468 31.55229187011719 467.5523071289062 32 467 32 C 466.4476928710938 32 466 31.55229187011719 466 31 L 466 29 C 466 28.44770812988281 466.4476928710938 28 467 28 Z M 467 33 C 467.5523071289062 33 468 33.44770812988281 468 34 L 468 36 C 468 36.55229187011719 467.5523071289062 37 467 37 C 466.4476928710938 37 466 36.55229187011719 466 36 L 466 34 C 466 33.44770812988281 466.4476928710938 33 467 33 Z M 467 38 C 467.5523071289062 38 468 38.44770812988281 468 39 L 468 41 C 468 41.55229187011719 467.5523071289062 42 467 42 C 466.4476928710938 42 466 41.55229187011719 466 41 L 466 39 C 466 38.44770812988281 466.4476928710938 38 467 38 Z M 467 43 C 467.5523071289062 43 468 43.44770812988281 468 44 L 468 46 C 468 46.55229187011719 467.5523071289062 47 467 47 C 466.4476928710938 47 466 46.55229187011719 466 46 L 466 44 C 466 43.44770812988281 466.4476928710938 43 467 43 Z M 467 48 C 467.5523071289062 48 468 48.44770812988281 468 49 L 468 51 C 468 51.55229187011719 467.5523071289062 52 467 52 C 466.4476928710938 52 466 51.55229187011719 466 51 L 466 49 C 466 48.44770812988281 466.4476928710938 48 467 48 Z M 467 53 C 467.5523071289062 53 468 53.44770812988281 468 54 L 468 56 C 468 56.55229187011719 467.5523071289062 57 467 57 C 466.4476928710938 57 466 56.55229187011719 466 56 L 466 54 C 466 53.44770812988281 466.4476928710938 53 467 53 Z M 467 58 C 467.5523071289062 58 468 58.44770812988281 468 59 L 468 61 C 468 61.55229187011719 467.5523071289062 62 467 62 C 466.4476928710938 62 466 61.55229187011719 466 61 L 466 59 C 466 58.44770812988281 466.4476928710938 58 467 58 Z M 467 63 C 467.5523071289062 63 468 63.44770812988281 468 64 L 468 66 C 468 66.55229187011719 467.5523071289062 67 467 67 C 466.4476928710938 67 466 66.55229187011719 466 66 L 466 64 C 466 63.44770812988281 466.4476928710938 63 467 63 Z M 467 68 C 467.5523071289062 68 468 68.44770812988281 468 69 L 468 71 C 468 71.55229187011719 467.5523071289062 72 467 72 C 466.4476928710938 72 466 71.55229187011719 466 71 L 466 69 C 466 68.44770812988281 466.4476928710938 68 467 68 Z M 467 73 C 467.5523071289062 73 468 73.44770812988281 468 74 L 468 76 C 468 76.55229187011719 467.5523071289062 77 467 77 C 466.4476928710938 77 466 76.55229187011719 466 76 L 466 74 C 466 73.44770812988281 466.4476928710938 73 467 73 Z M 467 78 C 467.5523071289062 78 468 78.44770812988281 468 79 L 468 81 C 468 81.55229187011719 467.5523071289062 82 467 82 C 466.4476928710938 82 466 81.55229187011719 466 81 L 466 79 C 466 78.44770812988281 466.4476928710938 78 467 78 Z M 467 83 C 467.5523071289062 83 468 83.44770812988281 468 84 L 468 86 C 468 86.55229187011719 467.5523071289062 87 467 87 C 466.4476928710938 87 466 86.55229187011719 466 86 L 466 84 C 466 83.44770812988281 466.4476928710938 83 467 83 Z M 467 88 C 467.5523071289062 88 468 88.44770812988281 468 89 L 468 91 C 468 91.55229187011719 467.5523071289062 92 467 92 C 466.4476928710938 92 466 91.55229187011719 466 91 L 466 89 C 466 88.44770812988281 466.4476928710938 88 467 88 Z M 467 93 C 467.5523071289062 93 468 93.44770812988281 468 94 L 468 96 C 468 96.55229187011719 467.5523071289062 97 467 97 C 466.4476928710938 97 466 96.55229187011719 466 96 L 466 94 C 466 93.44770812988281 466.4476928710938 93 467 93 Z M 467 98 C 467.5523071289062 98 468 98.44770812988281 468 99 L 468 101 C 468 101.5522918701172 467.5523071289062 102 467 102 C 466.4476928710938 102 466 101.5522918701172 466 101 L 466 99 C 466 98.44770812988281 466.4476928710938 98 467 98 Z M 467 103 C 467.5523071289062 103 468 103.4477081298828 468 104 L 468 106 C 468 106.5522918701172 467.5523071289062 107 467 107 C 466.4476928710938 107 466 106.5522918701172 466 106 L 466 104 C 466 103.4477081298828 466.4476928710938 103 467 103 Z M 467 108 C 467.5523071289062 108 468 108.4477081298828 468 109 L 468 111 C 468 111.5522918701172 467.5523071289062 112 467 112 C 466.4476928710938 112 466 111.5522918701172 466 111 L 466 109 C 466 108.4477081298828 466.4476928710938 108 467 108 Z M 467 113 C 467.5523071289062 113 468 113.4477081298828 468 114 L 468 116 C 468 116.5522918701172 467.5523071289062 117 467 117 C 466.4476928710938 117 466 116.5522918701172 466 116 L 466 114 C 466 113.4477081298828 466.4476928710938 113 467 113 Z M 467 118 C 467.5523071289062 118 468 118.4477081298828 468 119 L 468 121 C 468 121.5522918701172 467.5523071289062 122 467 122 C 466.4476928710938 122 466 121.5522918701172 466 121 L 466 119 C 466 118.4477081298828 466.4476928710938 118 467 118 Z M 467 123 C 467.5523071289062 123 468 123.4477081298828 468 124 L 468 126 C 468 126.5522918701172 467.5523071289062 127 467 127 C 466.4476928710938 127 466 126.5522918701172 466 126 L 466 124 C 466 123.4477081298828 466.4476928710938 123 467 123 Z M 467 128 C 467.5523071289062 128 468 128.4477081298828 468 129 L 468 131 C 468 131.5522918701172 467.5523071289062 132 467 132 C 466.4476928710938 132 466 131.5522918701172 466 131 L 466 129 C 466 128.4477081298828 466.4476928710938 128 467 128 Z M 467 133 C 467.5523071289062 133 468 133.4477081298828 468 134 L 468 136 C 468 136.5522918701172 467.5523071289062 137 467 137 C 466.4476928710938 137 466 136.5522918701172 466 136 L 466 134 C 466 133.4477081298828 466.4476928710938 133 467 133 Z M 467 138 C 467.5523071289062 138 468 138.4477081298828 468 139 L 468 142 L 465 142 C 464.4476928710938 142 464 141.5522918701172 464 141 C 464 140.4477081298828 464.4476928710938 140 465 140 L 466 140 L 466 139 C 466 138.4477081298828 466.4476928710938 138 467 138 Z M 460 140 L 462 140 C 462.5523071289062 140 463 140.4477081298828 463 141 C 463 141.5522918701172 462.5523071289062 142 462 142 L 460 142 C 459.4476928710938 142 459 141.5522918701172 459 141 C 459 140.4477081298828 459.4476928710938 140 460 140 Z M 455 140 L 457 140 C 457.5523071289062 140 458 140.4477081298828 458 141 C 458 141.5522918701172 457.5523071289062 142 457 142 L 455 142 C 454.4476928710938 142 454 141.5522918701172 454 141 C 454 140.4477081298828 454.4476928710938 140 455 140 Z M 450 140 L 452 140 C 452.5523071289062 140 453 140.4477081298828 453 141 C 453 141.5522918701172 452.5523071289062 142 452 142 L 450 142 C 449.4476928710938 142 449 141.5522918701172 449 141 C 449 140.4477081298828 449.4476928710938 140 450 140 Z M 445 140 L 447 140 C 447.5523071289062 140 448 140.4477081298828 448 141 C 448 141.5522918701172 447.5523071289062 142 447 142 L 445 142 C 444.4476928710938 142 444 141.5522918701172 444 141 C 444 140.4477081298828 444.4476928710938 140 445 140 Z M 440 140 L 442 140 C 442.5523071289062 140 443 140.4477081298828 443 141 C 443 141.5522918701172 442.5523071289062 142 442 142 L 440 142 C 439.4476928710938 142 439 141.5522918701172 439 141 C 439 140.4477081298828 439.4476928710938 140 440 140 Z M 435 140 L 437 140 C 437.5523071289062 140 438 140.4477081298828 438 141 C 438 141.5522918701172 437.5523071289062 142 437 142 L 435 142 C 434.4476928710938 142 434 141.5522918701172 434 141 C 434 140.4477081298828 434.4476928710938 140 435 140 Z M 430 140 L 432 140 C 432.5523071289062 140 433 140.4477081298828 433 141 C 433 141.5522918701172 432.5523071289062 142 432 142 L 430 142 C 429.4476928710938 142 429 141.5522918701172 429 141 C 429 140.4477081298828 429.4476928710938 140 430 140 Z M 425 140 L 427 140 C 427.5523071289062 140 428 140.4477081298828 428 141 C 428 141.5522918701172 427.5523071289062 142 427 142 L 425 142 C 424.4476928710938 142 424 141.5522918701172 424 141 C 424 140.4477081298828 424.4476928710938 140 425 140 Z M 420 140 L 422 140 C 422.5523071289062 140 423 140.4477081298828 423 141 C 423 141.5522918701172 422.5523071289062 142 422 142 L 420 142 C 419.4476928710938 142 419 141.5522918701172 419 141 C 419 140.4477081298828 419.4476928710938 140 420 140 Z M 415 140 L 417 140 C 417.5523071289062 140 418 140.4477081298828 418 141 C 418 141.5522918701172 417.5523071289062 142 417 142 L 415 142 C 414.4476928710938 142 414 141.5522918701172 414 141 C 414 140.4477081298828 414.4476928710938 140 415 140 Z M 410 140 L 412 140 C 412.5523071289062 140 413 140.4477081298828 413 141 C 413 141.5522918701172 412.5523071289062 142 412 142 L 410 142 C 409.4476928710938 142 409 141.5522918701172 409 141 C 409 140.4477081298828 409.4476928710938 140 410 140 Z M 405 140 L 407 140 C 407.5523071289062 140 408 140.4477081298828 408 141 C 408 141.5522918701172 407.5523071289062 142 407 142 L 405 142 C 404.4476928710938 142 404 141.5522918701172 404 141 C 404 140.4477081298828 404.4476928710938 140 405 140 Z M 400 140 L 402 140 C 402.5523071289062 140 403 140.4477081298828 403 141 C 403 141.5522918701172 402.5523071289062 142 402 142 L 400 142 C 399.4476928710938 142 399 141.5522918701172 399 141 C 399 140.4477081298828 399.4476928710938 140 400 140 Z M 395 140 L 397 140 C 397.5523071289062 140 398 140.4477081298828 398 141 C 398 141.5522918701172 397.5523071289062 142 397 142 L 395 142 C 394.4476928710938 142 394 141.5522918701172 394 141 C 394 140.4477081298828 394.4476928710938 140 395 140 Z M 390 140 L 392 140 C 392.5523071289062 140 393 140.4477081298828 393 141 C 393 141.5522918701172 392.5523071289062 142 392 142 L 390 142 C 389.4476928710938 142 389 141.5522918701172 389 141 C 389 140.4477081298828 389.4476928710938 140 390 140 Z M 385 140 L 387 140 C 387.5523071289062 140 388 140.4477081298828 388 141 C 388 141.5522918701172 387.5523071289062 142 387 142 L 385 142 C 384.4476928710938 142 384 141.5522918701172 384 141 C 384 140.4477081298828 384.4476928710938 140 385 140 Z M 380 140 L 382 140 C 382.5523071289062 140 383 140.4477081298828 383 141 C 383 141.5522918701172 382.5523071289062 142 382 142 L 380 142 C 379.4476928710938 142 379 141.5522918701172 379 141 C 379 140.4477081298828 379.4476928710938 140 380 140 Z M 375 140 L 377 140 C 377.5523071289062 140 378 140.4477081298828 378 141 C 378 141.5522918701172 377.5523071289062 142 377 142 L 375 142 C 374.4476928710938 142 374 141.5522918701172 374 141 C 374 140.4477081298828 374.4476928710938 140 375 140 Z M 370 140 L 372 140 C 372.5523071289062 140 373 140.4477081298828 373 141 C 373 141.5522918701172 372.5523071289062 142 372 142 L 370 142 C 369.4476928710938 142 369 141.5522918701172 369 141 C 369 140.4477081298828 369.4476928710938 140 370 140 Z M 365 140 L 367 140 C 367.5523071289062 140 368 140.4477081298828 368 141 C 368 141.5522918701172 367.5523071289062 142 367 142 L 365 142 C 364.4476928710938 142 364 141.5522918701172 364 141 C 364 140.4477081298828 364.4476928710938 140 365 140 Z M 360 140 L 362 140 C 362.5523071289062 140 363 140.4477081298828 363 141 C 363 141.5522918701172 362.5523071289062 142 362 142 L 360 142 C 359.4476928710938 142 359 141.5522918701172 359 141 C 359 140.4477081298828 359.4476928710938 140 360 140 Z M 355 140 L 357 140 C 357.5523071289062 140 358 140.4477081298828 358 141 C 358 141.5522918701172 357.5523071289062 142 357 142 L 355 142 C 354.4476928710938 142 354 141.5522918701172 354 141 C 354 140.4477081298828 354.4476928710938 140 355 140 Z M 350 140 L 352 140 C 352.5523071289062 140 353 140.4477081298828 353 141 C 353 141.5522918701172 352.5523071289062 142 352 142 L 350 142 C 349.4476928710938 142 349 141.5522918701172 349 141 C 349 140.4477081298828 349.4476928710938 140 350 140 Z M 345 140 L 347 140 C 347.5523071289062 140 348 140.4477081298828 348 141 C 348 141.5522918701172 347.5523071289062 142 347 142 L 345 142 C 344.4476928710938 142 344 141.5522918701172 344 141 C 344 140.4477081298828 344.4476928710938 140 345 140 Z M 340 140 L 342 140 C 342.5523071289062 140 343 140.4477081298828 343 141 C 343 141.5522918701172 342.5523071289062 142 342 142 L 340 142 C 339.4476928710938 142 339 141.5522918701172 339 141 C 339 140.4477081298828 339.4476928710938 140 340 140 Z M 335 140 L 337 140 C 337.5523071289062 140 338 140.4477081298828 338 141 C 338 141.5522918701172 337.5523071289062 142 337 142 L 335 142 C 334.4476928710938 142 334 141.5522918701172 334 141 C 334 140.4477081298828 334.4476928710938 140 335 140 Z M 330 140 L 332 140 C 332.5523071289062 140 333 140.4477081298828 333 141 C 333 141.5522918701172 332.5523071289062 142 332 142 L 330 142 C 329.4476928710938 142 329 141.5522918701172 329 141 C 329 140.4477081298828 329.4476928710938 140 330 140 Z M 325 140 L 327 140 C 327.5523071289062 140 328 140.4477081298828 328 141 C 328 141.5522918701172 327.5523071289062 142 327 142 L 325 142 C 324.4476928710938 142 324 141.5522918701172 324 141 C 324 140.4477081298828 324.4476928710938 140 325 140 Z M 320 140 L 322 140 C 322.5523071289062 140 323 140.4477081298828 323 141 C 323 141.5522918701172 322.5523071289062 142 322 142 L 320 142 C 319.4476928710938 142 319 141.5522918701172 319 141 C 319 140.4477081298828 319.4476928710938 140 320 140 Z M 315 140 L 317 140 C 317.5523071289062 140 318 140.4477081298828 318 141 C 318 141.5522918701172 317.5523071289062 142 317 142 L 315 142 C 314.4476928710938 142 314 141.5522918701172 314 141 C 314 140.4477081298828 314.4476928710938 140 315 140 Z M 310 140 L 312 140 C 312.5523071289062 140 313 140.4477081298828 313 141 C 313 141.5522918701172 312.5523071289062 142 312 142 L 310 142 C 309.4476928710938 142 309 141.5522918701172 309 141 C 309 140.4477081298828 309.4476928710938 140 310 140 Z M 305 140 L 307 140 C 307.5523071289062 140 308 140.4477081298828 308 141 C 308 141.5522918701172 307.5523071289062 142 307 142 L 305 142 C 304.4476928710938 142 304 141.5522918701172 304 141 C 304 140.4477081298828 304.4476928710938 140 305 140 Z M 300 140 L 302 140 C 302.5523071289062 140 303 140.4477081298828 303 141 C 303 141.5522918701172 302.5523071289062 142 302 142 L 300 142 C 299.4476928710938 142 299 141.5522918701172 299 141 C 299 140.4477081298828 299.4476928710938 140 300 140 Z M 295 140 L 297 140 C 297.5523071289062 140 298 140.4477081298828 298 141 C 298 141.5522918701172 297.5523071289062 142 297 142 L 295 142 C 294.4476928710938 142 294 141.5522918701172 294 141 C 294 140.4477081298828 294.4476928710938 140 295 140 Z M 290 140 L 292 140 C 292.5523071289062 140 293 140.4477081298828 293 141 C 293 141.5522918701172 292.5523071289062 142 292 142 L 290 142 C 289.4476928710938 142 289 141.5522918701172 289 141 C 289 140.4477081298828 289.4476928710938 140 290 140 Z M 285 140 L 287 140 C 287.5523071289062 140 288 140.4477081298828 288 141 C 288 141.5522918701172 287.5523071289062 142 287 142 L 285 142 C 284.4476928710938 142 284 141.5522918701172 284 141 C 284 140.4477081298828 284.4476928710938 140 285 140 Z M 280 140 L 282 140 C 282.5523071289062 140 283 140.4477081298828 283 141 C 283 141.5522918701172 282.5523071289062 142 282 142 L 280 142 C 279.4476928710938 142 279 141.5522918701172 279 141 C 279 140.4477081298828 279.4476928710938 140 280 140 Z M 275 140 L 277 140 C 277.5523071289062 140 278 140.4477081298828 278 141 C 278 141.5522918701172 277.5523071289062 142 277 142 L 275 142 C 274.4476928710938 142 274 141.5522918701172 274 141 C 274 140.4477081298828 274.4476928710938 140 275 140 Z M 270 140 L 272 140 C 272.5523071289062 140 273 140.4477081298828 273 141 C 273 141.5522918701172 272.5523071289062 142 272 142 L 270 142 C 269.4476928710938 142 269 141.5522918701172 269 141 C 269 140.4477081298828 269.4476928710938 140 270 140 Z M 265 140 L 267 140 C 267.5523071289062 140 268 140.4477081298828 268 141 C 268 141.5522918701172 267.5523071289062 142 267 142 L 265 142 C 264.4476928710938 142 264 141.5522918701172 264 141 C 264 140.4477081298828 264.4476928710938 140 265 140 Z M 260 140 L 262 140 C 262.5523071289062 140 263 140.4477081298828 263 141 C 263 141.5522918701172 262.5523071289062 142 262 142 L 260 142 C 259.4476928710938 142 259 141.5522918701172 259 141 C 259 140.4477081298828 259.4476928710938 140 260 140 Z M 255 140 L 257 140 C 257.5523071289062 140 258 140.4477081298828 258 141 C 258 141.5522918701172 257.5523071289062 142 257 142 L 255 142 C 254.4477081298828 142 254 141.5522918701172 254 141 C 254 140.4477081298828 254.4477081298828 140 255 140 Z M 250 140 L 252 140 C 252.5522918701172 140 253 140.4477081298828 253 141 C 253 141.5522918701172 252.5522918701172 142 252 142 L 250 142 C 249.4477081298828 142 249 141.5522918701172 249 141 C 249 140.4477081298828 249.4477081298828 140 250 140 Z M 245 140 L 247 140 C 247.5522918701172 140 248 140.4477081298828 248 141 C 248 141.5522918701172 247.5522918701172 142 247 142 L 245 142 C 244.4477081298828 142 244 141.5522918701172 244 141 C 244 140.4477081298828 244.4477081298828 140 245 140 Z M 240 140 L 242 140 C 242.5522918701172 140 243 140.4477081298828 243 141 C 243 141.5522918701172 242.5522918701172 142 242 142 L 240 142 C 239.4477081298828 142 239 141.5522918701172 239 141 C 239 140.4477081298828 239.4477081298828 140 240 140 Z M 235 140 L 237 140 C 237.5522918701172 140 238 140.4477081298828 238 141 C 238 141.5522918701172 237.5522918701172 142 237 142 L 235 142 C 234.4477081298828 142 234 141.5522918701172 234 141 C 234 140.4477081298828 234.4477081298828 140 235 140 Z M 230 140 L 232 140 C 232.5522918701172 140 233 140.4477081298828 233 141 C 233 141.5522918701172 232.5522918701172 142 232 142 L 230 142 C 229.4477081298828 142 229 141.5522918701172 229 141 C 229 140.4477081298828 229.4477081298828 140 230 140 Z M 225 140 L 227 140 C 227.5522918701172 140 228 140.4477081298828 228 141 C 228 141.5522918701172 227.5522918701172 142 227 142 L 225 142 C 224.4477081298828 142 224 141.5522918701172 224 141 C 224 140.4477081298828 224.4477081298828 140 225 140 Z M 220 140 L 222 140 C 222.5522918701172 140 223 140.4477081298828 223 141 C 223 141.5522918701172 222.5522918701172 142 222 142 L 220 142 C 219.4477081298828 142 219 141.5522918701172 219 141 C 219 140.4477081298828 219.4477081298828 140 220 140 Z M 215 140 L 217 140 C 217.5522918701172 140 218 140.4477081298828 218 141 C 218 141.5522918701172 217.5522918701172 142 217 142 L 215 142 C 214.4477081298828 142 214 141.5522918701172 214 141 C 214 140.4477081298828 214.4477081298828 140 215 140 Z M 210 140 L 212 140 C 212.5522918701172 140 213 140.4477081298828 213 141 C 213 141.5522918701172 212.5522918701172 142 212 142 L 210 142 C 209.4476928710938 142 209 141.5522918701172 209 141 C 209 140.4477081298828 209.4476928710938 140 210 140 Z M 205 140 L 207 140 C 207.5523071289062 140 208 140.4477081298828 208 141 C 208 141.5522918701172 207.5523071289062 142 207 142 L 205 142 C 204.4476928710938 142 204 141.5522918701172 204 141 C 204 140.4477081298828 204.4476928710938 140 205 140 Z M 200 140 L 202 140 C 202.5523071289062 140 203 140.4477081298828 203 141 C 203 141.5522918701172 202.5523071289062 142 202 142 L 200 142 C 199.4476928710938 142 199 141.5522918701172 199 141 C 199 140.4477081298828 199.4476928710938 140 200 140 Z M 195 140 L 197 140 C 197.5523071289062 140 198 140.4477081298828 198 141 C 198 141.5522918701172 197.5523071289062 142 197 142 L 195 142 C 194.4476928710938 142 194 141.5522918701172 194 141 C 194 140.4477081298828 194.4476928710938 140 195 140 Z M 190 140 L 192 140 C 192.5523071289062 140 193 140.4477081298828 193 141 C 193 141.5522918701172 192.5523071289062 142 192 142 L 190 142 C 189.4476928710938 142 189 141.5522918701172 189 141 C 189 140.4477081298828 189.4476928710938 140 190 140 Z M 185 140 L 187 140 C 187.5523071289062 140 188 140.4477081298828 188 141 C 188 141.5522918701172 187.5523071289062 142 187 142 L 185 142 C 184.4476928710938 142 184 141.5522918701172 184 141 C 184 140.4477081298828 184.4476928710938 140 185 140 Z M 180 140 L 182 140 C 182.5523071289062 140 183 140.4477081298828 183 141 C 183 141.5522918701172 182.5523071289062 142 182 142 L 180 142 C 179.4476928710938 142 179 141.5522918701172 179 141 C 179 140.4477081298828 179.4476928710938 140 180 140 Z M 175 140 L 177 140 C 177.5523071289062 140 178 140.4477081298828 178 141 C 178 141.5522918701172 177.5523071289062 142 177 142 L 175 142 C 174.4476928710938 142 174 141.5522918701172 174 141 C 174 140.4477081298828 174.4476928710938 140 175 140 Z M 170 140 L 172 140 C 172.5523071289062 140 173 140.4477081298828 173 141 C 173 141.5522918701172 172.5523071289062 142 172 142 L 170 142 C 169.4476928710938 142 169 141.5522918701172 169 141 C 169 140.4477081298828 169.4476928710938 140 170 140 Z M 165 140 L 167 140 C 167.5523071289062 140 168 140.4477081298828 168 141 C 168 141.5522918701172 167.5523071289062 142 167 142 L 165 142 C 164.4476928710938 142 164 141.5522918701172 164 141 C 164 140.4477081298828 164.4476928710938 140 165 140 Z M 160 140 L 162 140 C 162.5523071289062 140 163 140.4477081298828 163 141 C 163 141.5522918701172 162.5523071289062 142 162 142 L 160 142 C 159.4476928710938 142 159 141.5522918701172 159 141 C 159 140.4477081298828 159.4476928710938 140 160 140 Z M 155 140 L 157 140 C 157.5523071289062 140 158 140.4477081298828 158 141 C 158 141.5522918701172 157.5523071289062 142 157 142 L 155 142 C 154.4476928710938 142 154 141.5522918701172 154 141 C 154 140.4477081298828 154.4476928710938 140 155 140 Z M 150 140 L 152 140 C 152.5523071289062 140 153 140.4477081298828 153 141 C 153 141.5522918701172 152.5523071289062 142 152 142 L 150 142 C 149.4476928710938 142 149 141.5522918701172 149 141 C 149 140.4477081298828 149.4476928710938 140 150 140 Z M 145 140 L 147 140 C 147.5523071289062 140 148 140.4477081298828 148 141 C 148 141.5522918701172 147.5523071289062 142 147 142 L 145 142 C 144.4476928710938 142 144 141.5522918701172 144 141 C 144 140.4477081298828 144.4476928710938 140 145 140 Z M 140 140 L 142 140 C 142.5523071289062 140 143 140.4477081298828 143 141 C 143 141.5522918701172 142.5523071289062 142 142 142 L 140 142 C 139.4476928710938 142 139 141.5522918701172 139 141 C 139 140.4477081298828 139.4476928710938 140 140 140 Z M 135 140 L 137 140 C 137.5523071289062 140 138 140.4477081298828 138 141 C 138 141.5522918701172 137.5523071289062 142 137 142 L 135 142 C 134.4476928710938 142 134 141.5522918701172 134 141 C 134 140.4477081298828 134.4476928710938 140 135 140 Z M 130 140 L 132 140 C 132.5523071289062 140 133 140.4477081298828 133 141 C 133 141.5522918701172 132.5523071289062 142 132 142 L 130 142 C 129.4476928710938 142 129 141.5522918701172 129 141 C 129 140.4477081298828 129.4476928710938 140 130 140 Z M 125 140 L 127 140 C 127.5523071289062 140 128 140.4477081298828 128 141 C 128 141.5522918701172 127.5523071289062 142 127 142 L 125 142 C 124.4476928710938 142 124 141.5522918701172 124 141 C 124 140.4477081298828 124.4476928710938 140 125 140 Z M 120 140 L 122 140 C 122.5523071289062 140 123 140.4477081298828 123 141 C 123 141.5522918701172 122.5523071289062 142 122 142 L 120 142 C 119.4476928710938 142 119 141.5522918701172 119 141 C 119 140.4477081298828 119.4476928710938 140 120 140 Z M 115 140 L 117 140 C 117.5523071289062 140 118 140.4477081298828 118 141 C 118 141.5522918701172 117.5523071289062 142 117 142 L 115 142 C 114.4476928710938 142 114 141.5522918701172 114 141 C 114 140.4477081298828 114.4476928710938 140 115 140 Z M 110 140 L 112 140 C 112.5523071289062 140 113 140.4477081298828 113 141 C 113 141.5522918701172 112.5523071289062 142 112 142 L 110 142 C 109.4476928710938 142 109 141.5522918701172 109 141 C 109 140.4477081298828 109.4476928710938 140 110 140 Z M 105 140 L 107 140 C 107.5523071289062 140 108 140.4477081298828 108 141 C 108 141.5522918701172 107.5523071289062 142 107 142 L 105 142 C 104.4476928710938 142 104 141.5522918701172 104 141 C 104 140.4477081298828 104.4476928710938 140 105 140 Z M 100 140 L 102 140 C 102.5523071289062 140 103 140.4477081298828 103 141 C 103 141.5522918701172 102.5523071289062 142 102 142 L 100 142 C 99.44769287109375 142 99 141.5522918701172 99 141 C 99 140.4477081298828 99.44769287109375 140 100 140 Z M 95 140 L 97 140 C 97.55230712890625 140 98 140.4477081298828 98 141 C 98 141.5522918701172 97.55230712890625 142 97 142 L 95 142 C 94.44769287109375 142 94 141.5522918701172 94 141 C 94 140.4477081298828 94.44769287109375 140 95 140 Z M 90 140 L 92 140 C 92.55230712890625 140 93 140.4477081298828 93 141 C 93 141.5522918701172 92.55230712890625 142 92 142 L 90 142 C 89.44769287109375 142 89 141.5522918701172 89 141 C 89 140.4477081298828 89.44769287109375 140 90 140 Z M 85 140 L 87 140 C 87.55230712890625 140 88 140.4477081298828 88 141 C 88 141.5522918701172 87.55230712890625 142 87 142 L 85 142 C 84.44769287109375 142 84 141.5522918701172 84 141 C 84 140.4477081298828 84.44769287109375 140 85 140 Z M 80 140 L 82 140 C 82.55230712890625 140 83 140.4477081298828 83 141 C 83 141.5522918701172 82.55230712890625 142 82 142 L 80 142 C 79.44769287109375 142 79 141.5522918701172 79 141 C 79 140.4477081298828 79.44769287109375 140 80 140 Z M 75 140 L 77 140 C 77.55230712890625 140 78 140.4477081298828 78 141 C 78 141.5522918701172 77.55230712890625 142 77 142 L 75 142 C 74.44769287109375 142 74 141.5522918701172 74 141 C 74 140.4477081298828 74.44769287109375 140 75 140 Z M 70 140 L 72 140 C 72.55230712890625 140 73 140.4477081298828 73 141 C 73 141.5522918701172 72.55230712890625 142 72 142 L 70 142 C 69.44769287109375 142 69 141.5522918701172 69 141 C 69 140.4477081298828 69.44769287109375 140 70 140 Z M 65 140 L 67 140 C 67.55230712890625 140 68 140.4477081298828 68 141 C 68 141.5522918701172 67.55230712890625 142 67 142 L 65 142 C 64.44769287109375 142 64 141.5522918701172 64 141 C 64 140.4477081298828 64.44769287109375 140 65 140 Z M 60 140 L 62 140 C 62.55230712890625 140 63 140.4477081298828 63 141 C 63 141.5522918701172 62.55230712890625 142 62 142 L 60 142 C 59.44769287109375 142 59 141.5522918701172 59 141 C 59 140.4477081298828 59.44769287109375 140 60 140 Z M 55 140 L 57 140 C 57.55230712890625 140 58 140.4477081298828 58 141 C 58 141.5522918701172 57.55230712890625 142 57 142 L 55 142 C 54.44769287109375 142 54 141.5522918701172 54 141 C 54 140.4477081298828 54.44769287109375 140 55 140 Z M 50 140 L 52 140 C 52.55230712890625 140 53 140.4477081298828 53 141 C 53 141.5522918701172 52.55230712890625 142 52 142 L 50 142 C 49.44769287109375 142 49 141.5522918701172 49 141 C 49 140.4477081298828 49.44769287109375 140 50 140 Z M 45 140 L 47 140 C 47.55230712890625 140 48 140.4477081298828 48 141 C 48 141.5522918701172 47.55230712890625 142 47 142 L 45 142 C 44.44769287109375 142 44 141.5522918701172 44 141 C 44 140.4477081298828 44.44769287109375 140 45 140 Z M 40 140 L 42 140 C 42.55230712890625 140 43 140.4477081298828 43 141 C 43 141.5522918701172 42.55230712890625 142 42 142 L 40 142 C 39.44769287109375 142 39 141.5522918701172 39 141 C 39 140.4477081298828 39.44769287109375 140 40 140 Z M 35 140 L 37 140 C 37.55230712890625 140 38 140.4477081298828 38 141 C 38 141.5522918701172 37.55230712890625 142 37 142 L 35 142 C 34.44769287109375 142 34 141.5522918701172 34 141 C 34 140.4477081298828 34.44769287109375 140 35 140 Z M 30 140 L 32 140 C 32.55230712890625 140 33 140.4477081298828 33 141 C 33 141.5522918701172 32.55230712890625 142 32 142 L 30 142 C 29.44769287109375 142 29 141.5522918701172 29 141 C 29 140.4477081298828 29.44769287109375 140 30 140 Z M 25 140 L 27 140 C 27.55230712890625 140 28 140.4477081298828 28 141 C 28 141.5522918701172 27.55230712890625 142 27 142 L 25 142 C 24.44769287109375 142 24 141.5522918701172 24 141 C 24 140.4477081298828 24.44769287109375 140 25 140 Z M 20 140 L 22 140 C 22.55230712890625 140 23 140.4477081298828 23 141 C 23 141.5522918701172 22.55230712890625 142 22 142 L 20 142 C 19.44769287109375 142 19 141.5522918701172 19 141 C 19 140.4477081298828 19.44769287109375 140 20 140 Z M 15 140 L 17 140 C 17.55230712890625 140 18 140.4477081298828 18 141 C 18 141.5522918701172 17.55230712890625 142 17 142 L 15 142 C 14.44769287109375 142 14 141.5522918701172 14 141 C 14 140.4477081298828 14.44769287109375 140 15 140 Z M 10 140 L 12 140 C 12.55230712890625 140 13 140.4477081298828 13 141 C 13 141.5522918701172 12.55230712890625 142 12 142 L 10 142 C 9.44769287109375 142 9 141.5522918701172 9 141 C 9 140.4477081298828 9.44769287109375 140 10 140 Z M 5 140 L 7 140 C 7.55230712890625 140 8 140.4477081298828 8 141 C 8 141.5522918701172 7.55230712890625 142 7 142 L 5 142 C 4.44769287109375 142 4 141.5522918701172 4 141 C 4 140.4477081298828 4.44769287109375 140 5 140 Z M 0 140 L 2 140 C 2.55230712890625 140 3 140.4477081298828 3 141 C 3 141.5522918701172 2.55230712890625 142 2 142 L 0 142 C -0.55230712890625 142 -1 141.5522918701172 -1 141 C -1 140.4477081298828 -0.55230712890625 140 0 140 Z M -1 134 C -0.44769287109375 134 0 134.4477081298828 0 135 C 0 135 0 137 0 137 C 0 137.5522918701172 -0.44769287109375 138 -1 138 C -1.55230712890625 138 -2 137.5522918701172 -2 137 L -2 135 C -2 134.4477081298828 -1.55230712890625 134 -1 134 Z M -1 129 C -0.44769287109375 129 0 129.4477081298828 0 130 C 0 130 0 132 0 132 C 0 132.5522918701172 -0.44769287109375 133 -1 133 C -1.55230712890625 133 -2 132.5522918701172 -2 132 L -2 130 C -2 129.4477081298828 -1.55230712890625 129 -1 129 Z M -1 124 C -0.44769287109375 124 0 124.4477081298828 0 125 C 0 125 0 127 0 127 C 0 127.5522918701172 -0.44769287109375 128 -1 128 C -1.55230712890625 128 -2 127.5522918701172 -2 127 L -2 125 C -2 124.4477081298828 -1.55230712890625 124 -1 124 Z M -1 119 C -0.44769287109375 119 0 119.4477081298828 0 120 C 0 120 0 122 0 122 C 0 122.5522918701172 -0.44769287109375 123 -1 123 C -1.55230712890625 123 -2 122.5522918701172 -2 122 L -2 120 C -2 119.4477081298828 -1.55230712890625 119 -1 119 Z M -1 114 C -0.44769287109375 114 0 114.4477081298828 0 115 C 0 115 0 117 0 117 C 0 117.5522918701172 -0.44769287109375 118 -1 118 C -1.55230712890625 118 -2 117.5522918701172 -2 117 L -2 115 C -2 114.4477081298828 -1.55230712890625 114 -1 114 Z M -1 109 C -0.44769287109375 109 0 109.4477081298828 0 110 C 0 110 0 112 0 112 C 0 112.5522918701172 -0.44769287109375 113 -1 113 C -1.55230712890625 113 -2 112.5522918701172 -2 112 L -2 110 C -2 109.4477081298828 -1.55230712890625 109 -1 109 Z M -1 104 C -0.44769287109375 104 0 104.4477081298828 0 105 C 0 105 0 107 0 107 C 0 107.5522918701172 -0.44769287109375 108 -1 108 C -1.55230712890625 108 -2 107.5522918701172 -2 107 L -2 105 C -2 104.4477081298828 -1.55230712890625 104 -1 104 Z M -1 99 C -0.44769287109375 99 0 99.44770812988281 0 100 C 0 100 0 102 0 102 C 0 102.5522918701172 -0.44769287109375 103 -1 103 C -1.55230712890625 103 -2 102.5522918701172 -2 102 L -2 100 C -2 99.44770812988281 -1.55230712890625 99 -1 99 Z M -1 94 C -0.44769287109375 94 0 94.44770812988281 0 95 C 0 95 0 97 0 97 C 0 97.55229187011719 -0.44769287109375 98 -1 98 C -1.55230712890625 98 -2 97.55229187011719 -2 97 L -2 95 C -2 94.44770812988281 -1.55230712890625 94 -1 94 Z M -1 89 C -0.44769287109375 89 0 89.44770812988281 0 90 C 0 90 0 92 0 92 C 0 92.55229187011719 -0.44769287109375 93 -1 93 C -1.55230712890625 93 -2 92.55229187011719 -2 92 L -2 90 C -2 89.44770812988281 -1.55230712890625 89 -1 89 Z M -1 84 C -0.44769287109375 84 0 84.44770812988281 0 85 C 0 85 0 87 0 87 C 0 87.55229187011719 -0.44769287109375 88 -1 88 C -1.55230712890625 88 -2 87.55229187011719 -2 87 L -2 85 C -2 84.44770812988281 -1.55230712890625 84 -1 84 Z M -1 79 C -0.44769287109375 79 0 79.44770812988281 0 80 C 0 80 0 82 0 82 C 0 82.55229187011719 -0.44769287109375 83 -1 83 C -1.55230712890625 83 -2 82.55229187011719 -2 82 L -2 80 C -2 79.44770812988281 -1.55230712890625 79 -1 79 Z M -1 74 C -0.44769287109375 74 0 74.44770812988281 0 75 C 0 75 0 77 0 77 C 0 77.55229187011719 -0.44769287109375 78 -1 78 C -1.55230712890625 78 -2 77.55229187011719 -2 77 L -2 75 C -2 74.44770812988281 -1.55230712890625 74 -1 74 Z M -1 69 C -0.44769287109375 69 0 69.44770812988281 0 70 C 0 70 0 72 0 72 C 0 72.55229187011719 -0.44769287109375 73 -1 73 C -1.55230712890625 73 -2 72.55229187011719 -2 72 L -2 70 C -2 69.44770812988281 -1.55230712890625 69 -1 69 Z M -1 64 C -0.44769287109375 64 0 64.44770812988281 0 65 C 0 65 0 67 0 67 C 0 67.55229187011719 -0.44769287109375 68 -1 68 C -1.55230712890625 68 -2 67.55229187011719 -2 67 L -2 65 C -2 64.44770812988281 -1.55230712890625 64 -1 64 Z M -1 59 C -0.44769287109375 59 0 59.44770812988281 0 60 C 0 60 0 62 0 62 C 0 62.55229187011719 -0.44769287109375 63 -1 63 C -1.55230712890625 63 -2 62.55229187011719 -2 62 L -2 60 C -2 59.44770812988281 -1.55230712890625 59 -1 59 Z M -1 54 C -0.44769287109375 54 0 54.44770812988281 0 55 C 0 55 0 57 0 57 C 0 57.55229187011719 -0.44769287109375 58 -1 58 C -1.55230712890625 58 -2 57.55229187011719 -2 57 L -2 55 C -2 54.44770812988281 -1.55230712890625 54 -1 54 Z M -1 49 C -0.44769287109375 49 0 49.44770812988281 0 50 C 0 50 0 52 0 52 C 0 52.55229187011719 -0.44769287109375 53 -1 53 C -1.55230712890625 53 -2 52.55229187011719 -2 52 L -2 50 C -2 49.44770812988281 -1.55230712890625 49 -1 49 Z M -1 44 C -0.44769287109375 44 0 44.44770812988281 0 45 C 0 45 0 47 0 47 C 0 47.55229187011719 -0.44769287109375 48 -1 48 C -1.55230712890625 48 -2 47.55229187011719 -2 47 L -2 45 C -2 44.44770812988281 -1.55230712890625 44 -1 44 Z M -1 39 C -0.44769287109375 39 0 39.44770812988281 0 40 C 0 40 0 42 0 42 C 0 42.55229187011719 -0.44769287109375 43 -1 43 C -1.55230712890625 43 -2 42.55229187011719 -2 42 L -2 40 C -2 39.44770812988281 -1.55230712890625 39 -1 39 Z M -1 34 C -0.44769287109375 34 0 34.44770812988281 0 35 C 0 35 0 37 0 37 C 0 37.55229187011719 -0.44769287109375 38 -1 38 C -1.55230712890625 38 -2 37.55229187011719 -2 37 L -2 35 C -2 34.44770812988281 -1.55230712890625 34 -1 34 Z M -1 29 C -0.44769287109375 29 0 29.44770812988281 0 30 C 0 30 0 32 0 32 C 0 32.55229187011719 -0.44769287109375 33 -1 33 C -1.55230712890625 33 -2 32.55229187011719 -2 32 L -2 30 C -2 29.44770812988281 -1.55230712890625 29 -1 29 Z M -1 24 C -0.44769287109375 24 0 24.44770812988281 0 25 C 0 25 0 27 0 27 C 0 27.55229187011719 -0.44769287109375 28 -1 28 C -1.55230712890625 28 -2 27.55229187011719 -2 27 L -2 25 C -2 24.44770812988281 -1.55230712890625 24 -1 24 Z M -1 19 C -0.44769287109375 19 0 19.44770812988281 0 20 C 0 20 0 22 0 22 C 0 22.55229187011719 -0.44769287109375 23 -1 23 C -1.55230712890625 23 -2 22.55229187011719 -2 22 L -2 20 C -2 19.44770812988281 -1.55230712890625 19 -1 19 Z M -1 14 C -0.44769287109375 14 0 14.44770812988281 0 15 C 0 15 0 17 0 17 C 0 17.55229187011719 -0.44769287109375 18 -1 18 C -1.55230712890625 18 -2 17.55229187011719 -2 17 L -2 15 C -2 14.44770812988281 -1.55230712890625 14 -1 14 Z M -1 9 C -0.44769287109375 9 0 9.447708129882812 0 10 C 0 10 0 12 0 12 C 0 12.55229187011719 -0.44769287109375 13 -1 13 C -1.55230712890625 13 -2 12.55229187011719 -2 12 L -2 10 C -2 9.447708129882812 -1.55230712890625 9 -1 9 Z M -1 4 C -0.44769287109375 4 0 4.447708129882812 0 5 C 0 5 0 7 0 7 C 0 7.552291870117188 -0.44769287109375 8 -1 8 C -1.55230712890625 8 -2 7.552291870117188 -2 7 L -2 5 C -2 4.447708129882812 -1.55230712890625 4 -1 4 Z" stroke="none" fill="#ccbcfe"/>
    </g>
    <path id="Trazado_804672" data-name="Trazado 804672" d="M4,0H186a4,4,0,0,1,4,4V46a4,4,0,0,1-4,4H4a4,4,0,0,1-4-4V4A4,4,0,0,1,4,0Z" transform="translate(705 11823)" fill="#1e5af9"/>
    <path id="Trazado_804673" data-name="Trazado 804673" d="M4,0H186a4,4,0,0,1,4,4V46a4,4,0,0,1-4,4H4a4,4,0,0,1-4-4V4A4,4,0,0,1,4,0Z" transform="translate(705 11883)" fill="#1e5af9"/>
    <path id="Trazado_804674" data-name="Trazado 804674" d="M4,0H186a4,4,0,0,1,4,4V46a4,4,0,0,1-4,4H4a4,4,0,0,1-4-4V4A4,4,0,0,1,4,0Z" transform="translate(705 11973)" fill="#1e5af9"/>
    <path id="Trazado_804675" data-name="Trazado 804675" d="M1.605,16V5.336H4.886A4.983,4.983,0,0,1,7.4,5.969a4.418,4.418,0,0,1,1.732,1.8,5.557,5.557,0,0,1,.623,2.655v.491a5.573,5.573,0,0,1-.612,2.644,4.38,4.38,0,0,1-1.725,1.794A5.021,5.021,0,0,1,4.908,16ZM3.8,7.116v7.119H4.865a2.386,2.386,0,0,0,1.97-.842,3.806,3.806,0,0,0,.7-2.41v-.564a3.867,3.867,0,0,0-.674-2.465,2.378,2.378,0,0,0-1.97-.839Zm11.06,9.031a3.89,3.89,0,0,1-2.838-1.069,3.8,3.8,0,0,1-1.095-2.849v-.205a4.787,4.787,0,0,1,.461-2.135A3.386,3.386,0,0,1,12.7,8.438a3.669,3.669,0,0,1,1.93-.509,3.289,3.289,0,0,1,2.56,1.025,4.167,4.167,0,0,1,.934,2.908v.864H13.075a1.966,1.966,0,0,0,.619,1.245A1.871,1.871,0,0,0,15,14.44a2.285,2.285,0,0,0,1.912-.886l1.04,1.165a3.178,3.178,0,0,1-1.289,1.051A4.229,4.229,0,0,1,14.862,16.146Zm-.242-6.5a1.326,1.326,0,0,0-1.022.425,2.195,2.195,0,0,0-.5,1.216h2.944v-.168a1.565,1.565,0,0,0-.381-1.088A1.368,1.368,0,0,0,14.62,9.643Zm7.236-3.516V8.075h1.355V9.628H21.857v3.955a.944.944,0,0,0,.168.63.846.846,0,0,0,.645.19,3.376,3.376,0,0,0,.623-.051v1.6a4.358,4.358,0,0,1-1.282.19A2.021,2.021,0,0,1,19.74,13.9V9.628H18.583V8.075H19.74V6.127Zm6.182,10.02A3.89,3.89,0,0,1,25.2,15.077a3.8,3.8,0,0,1-1.095-2.849v-.205a4.787,4.787,0,0,1,.461-2.135,3.386,3.386,0,0,1,1.307-1.45,3.669,3.669,0,0,1,1.93-.509,3.289,3.289,0,0,1,2.56,1.025,4.167,4.167,0,0,1,.934,2.908v.864H26.251a1.966,1.966,0,0,0,.619,1.245,1.871,1.871,0,0,0,1.307.469,2.285,2.285,0,0,0,1.912-.886l1.04,1.165a3.178,3.178,0,0,1-1.289,1.051A4.229,4.229,0,0,1,28.038,16.146Zm-.242-6.5a1.326,1.326,0,0,0-1.022.425,2.195,2.195,0,0,0-.5,1.216h2.944v-.168a1.565,1.565,0,0,0-.381-1.088A1.368,1.368,0,0,0,27.8,9.643Zm8,4.8a1.388,1.388,0,0,0,.952-.322,1.129,1.129,0,0,0,.381-.857h1.985a2.715,2.715,0,0,1-.439,1.476,2.9,2.9,0,0,1-1.183,1.04,3.7,3.7,0,0,1-1.659.37,3.44,3.44,0,0,1-2.681-1.08,4.275,4.275,0,0,1-.981-2.985v-.139a4.226,4.226,0,0,1,.974-2.922,3.4,3.4,0,0,1,2.673-1.091,3.333,3.333,0,0,1,2.384.846,3,3,0,0,1,.912,2.252H37.128a1.443,1.443,0,0,0-.381-1,1.419,1.419,0,0,0-2.084.154,3.116,3.116,0,0,0-.377,1.747v.22a3.155,3.155,0,0,0,.374,1.758A1.292,1.292,0,0,0,35.795,14.44Zm7.822,0a1.388,1.388,0,0,0,.952-.322,1.129,1.129,0,0,0,.381-.857h1.985a2.715,2.715,0,0,1-.439,1.476,2.9,2.9,0,0,1-1.183,1.04,3.7,3.7,0,0,1-1.659.37,3.44,3.44,0,0,1-2.681-1.08,4.275,4.275,0,0,1-.981-2.985v-.139a4.226,4.226,0,0,1,.974-2.922,3.4,3.4,0,0,1,2.673-1.091,3.333,3.333,0,0,1,2.384.846,3,3,0,0,1,.912,2.252H44.95a1.443,1.443,0,0,0-.381-1,1.419,1.419,0,0,0-2.084.154,3.116,3.116,0,0,0-.377,1.747v.22a3.155,3.155,0,0,0,.374,1.758A1.292,1.292,0,0,0,43.617,14.44ZM50.377,16H48.253V8.075h2.124ZM48.129,6.024a1.042,1.042,0,0,1,.319-.784,1.373,1.373,0,0,1,1.732,0,1.036,1.036,0,0,1,.322.784,1.039,1.039,0,0,1-.326.791,1.358,1.358,0,0,1-1.721,0A1.039,1.039,0,0,1,48.129,6.024Zm3.662,5.94a4.7,4.7,0,0,1,.454-2.1,3.324,3.324,0,0,1,1.307-1.428,3.814,3.814,0,0,1,1.981-.505,3.609,3.609,0,0,1,2.618.981,3.939,3.939,0,0,1,1.132,2.666l.015.542a4.142,4.142,0,0,1-1.018,2.926,3.946,3.946,0,0,1-5.468,0,4.215,4.215,0,0,1-1.022-2.988Zm2.117.154a2.954,2.954,0,0,0,.425,1.725,1.528,1.528,0,0,0,2.417.007,3.233,3.233,0,0,0,.432-1.886,2.925,2.925,0,0,0-.432-1.714,1.405,1.405,0,0,0-1.216-.608,1.382,1.382,0,0,0-1.2.6A3.287,3.287,0,0,0,53.907,12.118ZM55.951,4.75h2.307L56.229,7.021H54.508Zm6.6,3.325.066.916a2.767,2.767,0,0,1,2.278-1.062,2.3,2.3,0,0,1,1.875.74,3.451,3.451,0,0,1,.63,2.212V16H65.282V10.932a1.373,1.373,0,0,0-.293-.978,1.312,1.312,0,0,0-.974-.3,1.456,1.456,0,0,0-1.34.762V16H60.558V8.075Zm9.858,3.9a4.776,4.776,0,0,1,.831-2.952,2.7,2.7,0,0,1,2.274-1.1,2.427,2.427,0,0,1,1.912.864V4.75H79.55V16H77.638l-.1-.842a2.491,2.491,0,0,1-2.036.989,2.69,2.69,0,0,1-2.245-1.1A4.93,4.93,0,0,1,72.408,11.979Zm2.117.154a3.12,3.12,0,0,0,.388,1.707,1.265,1.265,0,0,0,1.128.593,1.417,1.417,0,0,0,1.384-.828V10.478a1.4,1.4,0,0,0-1.37-.828Q74.525,9.65,74.525,12.133Zm10.313,4.014A3.89,3.89,0,0,1,82,15.077,3.8,3.8,0,0,1,80.9,12.228v-.205a4.787,4.787,0,0,1,.461-2.135,3.386,3.386,0,0,1,1.307-1.45,3.669,3.669,0,0,1,1.93-.509,3.289,3.289,0,0,1,2.56,1.025,4.167,4.167,0,0,1,.934,2.908v.864H83.051a1.966,1.966,0,0,0,.619,1.245,1.871,1.871,0,0,0,1.307.469,2.285,2.285,0,0,0,1.912-.886l1.04,1.165a3.178,3.178,0,0,1-1.289,1.051A4.229,4.229,0,0,1,84.838,16.146Zm-.242-6.5a1.326,1.326,0,0,0-1.022.425,2.195,2.195,0,0,0-.5,1.216h2.944v-.168a1.565,1.565,0,0,0-.381-1.088A1.368,1.368,0,0,0,84.6,9.643ZM93.612,16V9.628H92.433V8.075h1.179V7.4a2.736,2.736,0,0,1,.765-2.069A2.964,2.964,0,0,1,96.52,4.6a4.948,4.948,0,0,1,1.077.146l-.022,1.641a2.7,2.7,0,0,0-.645-.066q-1.194,0-1.194,1.121v.637h1.575V9.628H95.736V16ZM103,16a2.351,2.351,0,0,1-.212-.71,2.561,2.561,0,0,1-2,.857,2.814,2.814,0,0,1-1.93-.674,2.167,2.167,0,0,1-.765-1.7,2.24,2.24,0,0,1,.934-1.934,4.608,4.608,0,0,1,2.7-.681h.974V10.7a1.306,1.306,0,0,0-.282-.879,1.109,1.109,0,0,0-.89-.33,1.261,1.261,0,0,0-.839.256.871.871,0,0,0-.3.7H98.27A2.126,2.126,0,0,1,98.7,9.181a2.808,2.808,0,0,1,1.2-.919,4.378,4.378,0,0,1,1.743-.333,3.459,3.459,0,0,1,2.325.736,2.575,2.575,0,0,1,.861,2.069v3.435a3.789,3.789,0,0,0,.315,1.707V16Zm-1.75-1.472a1.823,1.823,0,0,0,.864-.209,1.371,1.371,0,0,0,.586-.56V12.4h-.791q-1.589,0-1.692,1.1l-.007.125a.847.847,0,0,0,.278.652A1.081,1.081,0,0,0,101.251,14.528ZM108.685,16h-2.124V4.75h2.124Zm3.977,0h-2.124V4.75h2.124ZM119,16a2.351,2.351,0,0,1-.212-.71,2.561,2.561,0,0,1-2,.857,2.814,2.814,0,0,1-1.93-.674,2.167,2.167,0,0,1-.765-1.7,2.24,2.24,0,0,1,.934-1.934,4.608,4.608,0,0,1,2.7-.681h.974V10.7a1.306,1.306,0,0,0-.282-.879,1.109,1.109,0,0,0-.89-.33,1.261,1.261,0,0,0-.839.256.871.871,0,0,0-.3.7h-2.117a2.126,2.126,0,0,1,.425-1.274,2.808,2.808,0,0,1,1.2-.919,4.378,4.378,0,0,1,1.743-.333,3.459,3.459,0,0,1,2.325.736,2.575,2.575,0,0,1,.861,2.069v3.435a3.789,3.789,0,0,0,.315,1.707V16Zm-1.75-1.472a1.823,1.823,0,0,0,.864-.209,1.371,1.371,0,0,0,.586-.56V12.4h-.791q-1.589,0-1.692,1.1l-.007.125a.847.847,0,0,0,.278.652A1.081,1.081,0,0,0,117.247,14.528Zm9.492-.718a.682.682,0,0,0-.385-.612,4.368,4.368,0,0,0-1.234-.4q-2.827-.593-2.827-2.4a2.178,2.178,0,0,1,.875-1.761,3.531,3.531,0,0,1,2.289-.707,3.8,3.8,0,0,1,2.413.71,2.239,2.239,0,0,1,.9,1.846h-2.117a1.024,1.024,0,0,0-.293-.751,1.24,1.24,0,0,0-.916-.3,1.267,1.267,0,0,0-.828.242.763.763,0,0,0-.293.615.652.652,0,0,0,.333.568,3.428,3.428,0,0,0,1.124.374,9.183,9.183,0,0,1,1.333.355,2.19,2.19,0,0,1,1.677,2.131,2.067,2.067,0,0,1-.93,1.754,4.013,4.013,0,0,1-2.4.67,4.191,4.191,0,0,1-1.769-.355,2.968,2.968,0,0,1-1.212-.974,2.263,2.263,0,0,1-.439-1.337h2.007a1.105,1.105,0,0,0,.417.864,1.656,1.656,0,0,0,1.04.3,1.533,1.533,0,0,0,.919-.231A.718.718,0,0,0,126.74,13.81Z" transform="translate(735 11839)" fill="#fff"/>
    <path id="Trazado_804676" data-name="Trazado 804676" d="M25.815,16V5.336H29.1a4.983,4.983,0,0,1,2.516.634,4.418,4.418,0,0,1,1.732,1.8,5.557,5.557,0,0,1,.623,2.655v.491a5.573,5.573,0,0,1-.612,2.644,4.38,4.38,0,0,1-1.725,1.794A5.021,5.021,0,0,1,29.119,16Zm2.2-8.884v7.119h1.062a2.386,2.386,0,0,0,1.97-.842,3.806,3.806,0,0,0,.7-2.41v-.564a3.867,3.867,0,0,0-.674-2.465,2.378,2.378,0,0,0-1.97-.839ZM37.659,16H35.535V8.075h2.124ZM35.41,6.024a1.042,1.042,0,0,1,.319-.784,1.373,1.373,0,0,1,1.732,0,1.036,1.036,0,0,1,.322.784,1.039,1.039,0,0,1-.326.791,1.358,1.358,0,0,1-1.721,0A1.039,1.039,0,0,1,35.41,6.024ZM43.994,16a2.351,2.351,0,0,1-.212-.71,2.561,2.561,0,0,1-2,.857,2.814,2.814,0,0,1-1.93-.674,2.167,2.167,0,0,1-.765-1.7,2.24,2.24,0,0,1,.934-1.934,4.608,4.608,0,0,1,2.7-.681h.974V10.7a1.306,1.306,0,0,0-.282-.879,1.109,1.109,0,0,0-.89-.33,1.261,1.261,0,0,0-.839.256.871.871,0,0,0-.3.7H39.263a2.126,2.126,0,0,1,.425-1.274,2.808,2.808,0,0,1,1.2-.919,4.378,4.378,0,0,1,1.743-.333,3.459,3.459,0,0,1,2.325.736,2.575,2.575,0,0,1,.861,2.069v3.435a3.789,3.789,0,0,0,.315,1.707V16Zm-1.75-1.472a1.823,1.823,0,0,0,.864-.209,1.371,1.371,0,0,0,.586-.56V12.4H42.9q-1.589,0-1.692,1.1l-.007.125a.847.847,0,0,0,.278.652A1.081,1.081,0,0,0,42.244,14.528Zm4.893-2.549A4.644,4.644,0,0,1,48,9.042a2.812,2.812,0,0,1,2.34-1.113,2.466,2.466,0,0,1,2.029.894l.088-.747H54.38v7.661a3.387,3.387,0,0,1-.472,1.809,3.034,3.034,0,0,1-1.329,1.172,4.673,4.673,0,0,1-2.007.4,4.346,4.346,0,0,1-1.7-.348,3.016,3.016,0,0,1-1.252-.9l.938-1.289a2.48,2.48,0,0,0,1.919.886,1.815,1.815,0,0,0,1.311-.45,1.69,1.69,0,0,0,.469-1.278v-.425a2.448,2.448,0,0,1-1.926.828,2.8,2.8,0,0,1-2.311-1.117,4.643,4.643,0,0,1-.883-2.963Zm2.117.154a2.884,2.884,0,0,0,.432,1.688,1.375,1.375,0,0,0,1.187.612,1.47,1.47,0,0,0,1.384-.725V10.375a1.467,1.467,0,0,0-1.37-.725,1.384,1.384,0,0,0-1.2.623A3.251,3.251,0,0,0,49.253,12.133Zm8.7-4.058.066.916A2.767,2.767,0,0,1,60.3,7.929a2.3,2.3,0,0,1,1.875.74,3.451,3.451,0,0,1,.63,2.212V16H60.686V10.932a1.373,1.373,0,0,0-.293-.978,1.312,1.312,0,0,0-.974-.3,1.456,1.456,0,0,0-1.34.762V16H55.962V8.075Zm6.123,3.889a4.7,4.7,0,0,1,.454-2.1,3.324,3.324,0,0,1,1.307-1.428,3.814,3.814,0,0,1,1.981-.505,3.609,3.609,0,0,1,2.618.981,3.939,3.939,0,0,1,1.132,2.666l.015.542a4.142,4.142,0,0,1-1.018,2.926,3.946,3.946,0,0,1-5.468,0,4.215,4.215,0,0,1-1.022-2.988Zm2.117.154a2.954,2.954,0,0,0,.425,1.725,1.528,1.528,0,0,0,2.417.007,3.233,3.233,0,0,0,.432-1.886,2.925,2.925,0,0,0-.432-1.714,1.405,1.405,0,0,0-1.216-.608,1.382,1.382,0,0,0-1.2.6A3.287,3.287,0,0,0,66.194,12.118ZM68.237,4.75h2.307L68.516,7.021H66.794Zm8.943,9.06A.682.682,0,0,0,76.8,13.2a4.368,4.368,0,0,0-1.234-.4q-2.827-.593-2.827-2.4a2.178,2.178,0,0,1,.875-1.761A3.531,3.531,0,0,1,75.9,7.929a3.8,3.8,0,0,1,2.413.71,2.239,2.239,0,0,1,.9,1.846H77.1a1.024,1.024,0,0,0-.293-.751,1.24,1.24,0,0,0-.916-.3,1.267,1.267,0,0,0-.828.242.763.763,0,0,0-.293.615.652.652,0,0,0,.333.568,3.428,3.428,0,0,0,1.124.374,9.183,9.183,0,0,1,1.333.355,2.19,2.19,0,0,1,1.677,2.131,2.067,2.067,0,0,1-.93,1.754,4.013,4.013,0,0,1-2.4.67,4.191,4.191,0,0,1-1.769-.355,2.968,2.968,0,0,1-1.212-.974,2.263,2.263,0,0,1-.439-1.337h2.007a1.105,1.105,0,0,0,.417.864,1.656,1.656,0,0,0,1.04.3,1.533,1.533,0,0,0,.919-.231A.718.718,0,0,0,77.18,13.81Zm5.955-7.683V8.075H84.49V9.628H83.135v3.955a.944.944,0,0,0,.168.63.846.846,0,0,0,.645.19,3.376,3.376,0,0,0,.623-.051v1.6a4.358,4.358,0,0,1-1.282.19A2.021,2.021,0,0,1,81.018,13.9V9.628H79.861V8.075h1.157V6.127ZM87.9,16H85.779V8.075H87.9ZM85.654,6.024a1.042,1.042,0,0,1,.319-.784,1.373,1.373,0,0,1,1.732,0,1.036,1.036,0,0,1,.322.784,1.039,1.039,0,0,1-.326.791,1.358,1.358,0,0,1-1.721,0A1.039,1.039,0,0,1,85.654,6.024Zm7.288,8.416a1.388,1.388,0,0,0,.952-.322,1.129,1.129,0,0,0,.381-.857H96.26a2.715,2.715,0,0,1-.439,1.476,2.9,2.9,0,0,1-1.183,1.04,3.7,3.7,0,0,1-1.659.37,3.44,3.44,0,0,1-2.681-1.08,4.275,4.275,0,0,1-.981-2.985v-.139a4.226,4.226,0,0,1,.974-2.922,3.4,3.4,0,0,1,2.673-1.091,3.333,3.333,0,0,1,2.384.846,3,3,0,0,1,.912,2.252H94.275a1.443,1.443,0,0,0-.381-1,1.419,1.419,0,0,0-2.084.154,3.116,3.116,0,0,0-.377,1.747v.22a3.155,3.155,0,0,0,.374,1.758A1.292,1.292,0,0,0,92.942,14.44Zm4.2-2.476a4.7,4.7,0,0,1,.454-2.1A3.324,3.324,0,0,1,98.9,8.434a3.814,3.814,0,0,1,1.981-.505,3.609,3.609,0,0,1,2.618.981,3.939,3.939,0,0,1,1.132,2.666l.015.542a4.142,4.142,0,0,1-1.018,2.926,3.946,3.946,0,0,1-5.468,0,4.215,4.215,0,0,1-1.022-2.988Zm2.117.154a2.954,2.954,0,0,0,.425,1.725,1.528,1.528,0,0,0,2.417.007,3.233,3.233,0,0,0,.432-1.886,2.925,2.925,0,0,0-.432-1.714,1.405,1.405,0,0,0-1.216-.608,1.382,1.382,0,0,0-1.2.6A3.287,3.287,0,0,0,99.255,12.118Z" transform="translate(735 11899)" fill="#fff"/>
    <path id="Trazado_804677" data-name="Trazado 804677" d="M14.679,12.1h-1.75V16h-2.2V5.336h3.962a4.479,4.479,0,0,1,2.915.842,2.907,2.907,0,0,1,1.025,2.38,3.281,3.281,0,0,1-.472,1.82A3.222,3.222,0,0,1,16.73,11.54L19.037,15.9V16H16.678Zm-1.75-1.78H14.7A1.815,1.815,0,0,0,15.983,9.9a1.505,1.505,0,0,0,.454-1.161,1.611,1.611,0,0,0-.428-1.187,1.781,1.781,0,0,0-1.315-.432H12.928Zm10.884,5.83a3.89,3.89,0,0,1-2.838-1.069,3.8,3.8,0,0,1-1.095-2.849v-.205a4.787,4.787,0,0,1,.461-2.135,3.386,3.386,0,0,1,1.307-1.45,3.669,3.669,0,0,1,1.93-.509,3.289,3.289,0,0,1,2.56,1.025,4.167,4.167,0,0,1,.934,2.908v.864H22.025a1.966,1.966,0,0,0,.619,1.245,1.871,1.871,0,0,0,1.307.469,2.285,2.285,0,0,0,1.912-.886l1.04,1.165a3.178,3.178,0,0,1-1.289,1.051A4.229,4.229,0,0,1,23.812,16.146Zm-.242-6.5a1.326,1.326,0,0,0-1.022.425,2.195,2.195,0,0,0-.5,1.216h2.944v-.168a1.565,1.565,0,0,0-.381-1.088A1.368,1.368,0,0,0,23.571,9.643Zm8,4.8a1.388,1.388,0,0,0,.952-.322,1.129,1.129,0,0,0,.381-.857h1.985a2.715,2.715,0,0,1-.439,1.476,2.9,2.9,0,0,1-1.183,1.04,3.7,3.7,0,0,1-1.659.37,3.44,3.44,0,0,1-2.681-1.08,4.275,4.275,0,0,1-.981-2.985v-.139a4.226,4.226,0,0,1,.974-2.922,3.4,3.4,0,0,1,2.673-1.091,3.333,3.333,0,0,1,2.384.846,3,3,0,0,1,.912,2.252H32.9a1.443,1.443,0,0,0-.381-1,1.419,1.419,0,0,0-2.084.154,3.116,3.116,0,0,0-.377,1.747v.22a3.155,3.155,0,0,0,.374,1.758A1.292,1.292,0,0,0,31.569,14.44Zm4.2-2.476a4.7,4.7,0,0,1,.454-2.1,3.324,3.324,0,0,1,1.307-1.428,3.814,3.814,0,0,1,1.981-.505,3.609,3.609,0,0,1,2.618.981,3.939,3.939,0,0,1,1.132,2.666l.015.542a4.142,4.142,0,0,1-1.018,2.926,3.946,3.946,0,0,1-5.468,0,4.215,4.215,0,0,1-1.022-2.988Zm2.117.154a2.954,2.954,0,0,0,.425,1.725,1.528,1.528,0,0,0,2.417.007,3.233,3.233,0,0,0,.432-1.886,2.925,2.925,0,0,0-.432-1.714,1.405,1.405,0,0,0-1.216-.608,1.382,1.382,0,0,0-1.2.6A3.287,3.287,0,0,0,37.882,12.118Zm8.643-4.043.066.916a2.767,2.767,0,0,1,2.278-1.062,2.3,2.3,0,0,1,1.875.74,3.451,3.451,0,0,1,.63,2.212V16H49.257V10.932a1.373,1.373,0,0,0-.293-.978,1.312,1.312,0,0,0-.974-.3,1.456,1.456,0,0,0-1.34.762V16H44.532V8.075ZM53.49,16V9.628H52.311V8.075H53.49V7.709a2.972,2.972,0,0,1,.919-2.3A3.7,3.7,0,0,1,56.962,4.6a8.466,8.466,0,0,1,2.4.432l-.308,1.75A9.373,9.373,0,0,0,57.943,6.5a5.47,5.47,0,0,0-.85-.062q-1.479,0-1.479,1.311v.322h1.56V9.628h-1.56V16Zm6.863,0H58.229V8.075h2.124ZM61.8,11.979a4.644,4.644,0,0,1,.868-2.937A2.812,2.812,0,0,1,65,7.929a2.466,2.466,0,0,1,2.029.894l.088-.747h1.919v7.661a3.387,3.387,0,0,1-.472,1.809,3.034,3.034,0,0,1-1.329,1.172,4.673,4.673,0,0,1-2.007.4,4.346,4.346,0,0,1-1.7-.348,3.016,3.016,0,0,1-1.252-.9l.938-1.289a2.48,2.48,0,0,0,1.919.886,1.815,1.815,0,0,0,1.311-.45,1.69,1.69,0,0,0,.469-1.278v-.425a2.448,2.448,0,0,1-1.926.828,2.8,2.8,0,0,1-2.311-1.117,4.643,4.643,0,0,1-.883-2.963Zm2.117.154a2.884,2.884,0,0,0,.432,1.688,1.375,1.375,0,0,0,1.187.612,1.47,1.47,0,0,0,1.384-.725V10.375a1.467,1.467,0,0,0-1.37-.725,1.384,1.384,0,0,0-1.2.623A3.251,3.251,0,0,0,63.912,12.133Zm11.5,3.062a2.654,2.654,0,0,1-2.168.952,2.5,2.5,0,0,1-1.945-.732,3.127,3.127,0,0,1-.685-2.146V8.075h2.117v5.12q0,1.238,1.128,1.238a1.529,1.529,0,0,0,1.479-.747V8.075h2.124V16H75.47Zm8.1-5.134A5.75,5.75,0,0,0,82.75,10a1.55,1.55,0,0,0-1.575.813V16H79.059V8.075h2l.059.945a1.961,1.961,0,0,1,1.765-1.091,2.218,2.218,0,0,1,.659.1ZM88.9,16a2.351,2.351,0,0,1-.212-.71,2.561,2.561,0,0,1-2,.857,2.814,2.814,0,0,1-1.93-.674,2.167,2.167,0,0,1-.765-1.7,2.24,2.24,0,0,1,.934-1.934,4.608,4.608,0,0,1,2.7-.681H88.6V10.7a1.306,1.306,0,0,0-.282-.879,1.109,1.109,0,0,0-.89-.33,1.261,1.261,0,0,0-.839.256.871.871,0,0,0-.3.7H84.171A2.126,2.126,0,0,1,84.6,9.181a2.808,2.808,0,0,1,1.2-.919,4.378,4.378,0,0,1,1.743-.333,3.459,3.459,0,0,1,2.325.736,2.575,2.575,0,0,1,.861,2.069v3.435a3.789,3.789,0,0,0,.315,1.707V16Zm-1.75-1.472a1.823,1.823,0,0,0,.864-.209,1.371,1.371,0,0,0,.586-.56V12.4h-.791q-1.589,0-1.692,1.1l-.007.125a.847.847,0,0,0,.278.652A1.081,1.081,0,0,0,87.152,14.528Zm8.5-.088a1.388,1.388,0,0,0,.952-.322,1.129,1.129,0,0,0,.381-.857h1.985a2.715,2.715,0,0,1-.439,1.476,2.9,2.9,0,0,1-1.183,1.04,3.7,3.7,0,0,1-1.659.37A3.44,3.44,0,0,1,93,15.066a4.275,4.275,0,0,1-.981-2.985v-.139A4.226,4.226,0,0,1,93,9.02,3.4,3.4,0,0,1,95.67,7.929a3.333,3.333,0,0,1,2.384.846,3,3,0,0,1,.912,2.252H96.981a1.443,1.443,0,0,0-.381-1,1.419,1.419,0,0,0-2.084.154,3.116,3.116,0,0,0-.377,1.747v.22a3.155,3.155,0,0,0,.374,1.758A1.292,1.292,0,0,0,95.648,14.44Zm6.76,1.56h-2.124V8.075h2.124ZM100.16,6.024a1.042,1.042,0,0,1,.319-.784,1.373,1.373,0,0,1,1.732,0,1.036,1.036,0,0,1,.322.784,1.039,1.039,0,0,1-.326.791,1.358,1.358,0,0,1-1.721,0A1.039,1.039,0,0,1,100.16,6.024Zm3.662,5.94a4.7,4.7,0,0,1,.454-2.1,3.324,3.324,0,0,1,1.307-1.428,3.814,3.814,0,0,1,1.981-.505,3.609,3.609,0,0,1,2.618.981,3.939,3.939,0,0,1,1.132,2.666l.015.542a4.142,4.142,0,0,1-1.018,2.926,3.946,3.946,0,0,1-5.468,0,4.215,4.215,0,0,1-1.022-2.988Zm2.117.154a2.954,2.954,0,0,0,.425,1.725,1.528,1.528,0,0,0,2.417.007,3.233,3.233,0,0,0,.432-1.886,2.925,2.925,0,0,0-.432-1.714,1.405,1.405,0,0,0-1.216-.608,1.382,1.382,0,0,0-1.2.6A3.287,3.287,0,0,0,105.939,12.118Zm2.043-7.368h2.307L108.26,7.021h-1.721Zm6.6,3.325.066.916a2.767,2.767,0,0,1,2.278-1.062,2.3,2.3,0,0,1,1.875.74,3.451,3.451,0,0,1,.63,2.212V16h-2.117V10.932a1.373,1.373,0,0,0-.293-.978,1.312,1.312,0,0,0-.974-.3,1.456,1.456,0,0,0-1.34.762V16h-2.117V8.075Z" transform="translate(735 11989)" fill="#fff"/>
    <path id="Trazado_804679" data-name="Trazado 804679" d="M8.2,11.642H3.98V16h-2.2V5.336H8.726v1.78H3.98V9.87H8.2ZM10,16V5.336h3.281a4.983,4.983,0,0,1,2.516.634,4.418,4.418,0,0,1,1.732,1.8,5.557,5.557,0,0,1,.623,2.655v.491a5.573,5.573,0,0,1-.612,2.644,4.38,4.38,0,0,1-1.725,1.794A5.021,5.021,0,0,1,13.3,16Zm2.2-8.884v7.119H13.26a2.386,2.386,0,0,0,1.97-.842,3.806,3.806,0,0,0,.7-2.41v-.564a3.867,3.867,0,0,0-.674-2.465,2.378,2.378,0,0,0-1.97-.839ZM22.085,16h-2.2V5.336h2.2Z" transform="translate(576 11814)" fill="#12263f"/>
    <path id="Trazado_804671" data-name="Trazado 804671" d="M6.651,12.4H2.481L1.545,15H.191l3.8-9.953H5.141L8.948,15H7.6Zm-3.773-1.08H6.262l-1.7-4.655Zm6.9-.082A4.333,4.333,0,0,1,10.589,8.5,2.551,2.551,0,0,1,12.7,7.467a2.565,2.565,0,0,1,2.058.889V4.5h1.265V15H14.861l-.062-.793a2.575,2.575,0,0,1-2.112.93,2.526,2.526,0,0,1-2.1-1.053,4.382,4.382,0,0,1-.81-2.748Zm1.265.144a3.281,3.281,0,0,0,.52,1.969A1.68,1.68,0,0,0,13,14.063a1.845,1.845,0,0,0,1.757-1.08v-3.4A1.859,1.859,0,0,0,13.016,8.54a1.687,1.687,0,0,0-1.449.718A3.612,3.612,0,0,0,11.047,11.384Zm6.631-.144a4.341,4.341,0,0,1,.8-2.758,2.592,2.592,0,0,1,2.146-1.015,2.59,2.59,0,0,1,2.071.882L22.75,7.6h1.162v10.24H22.647V14.316a2.654,2.654,0,0,1-2.037.82,2.551,2.551,0,0,1-2.136-1.042,4.438,4.438,0,0,1-.8-2.765Zm1.265.144a3.291,3.291,0,0,0,.537,2,1.707,1.707,0,0,0,1.446.725,1.894,1.894,0,0,0,1.723-1V9.483a1.9,1.9,0,0,0-1.709-.978,1.72,1.72,0,0,0-1.456.728A3.583,3.583,0,0,0,18.942,11.384Zm11.566,2.885a2.686,2.686,0,0,1-2.167.868,2.3,2.3,0,0,1-1.8-.687,2.974,2.974,0,0,1-.625-2.034V7.6H27.18v4.778q0,1.682,1.367,1.682a1.893,1.893,0,0,0,1.928-1.08V7.6h1.265V15h-1.2ZM35.034,15H33.77V7.6h1.265ZM33.667,5.642a.755.755,0,0,1,.188-.52.706.706,0,0,1,.557-.212.717.717,0,0,1,.561.212.747.747,0,0,1,.191.52.722.722,0,0,1-.191.513.73.73,0,0,1-.561.205.718.718,0,0,1-.557-.205A.73.73,0,0,1,33.667,5.642Zm7.7,7.4a.931.931,0,0,0-.386-.8,3.718,3.718,0,0,0-1.347-.489,6.367,6.367,0,0,1-1.524-.492,2.169,2.169,0,0,1-.834-.684A1.635,1.635,0,0,1,37,9.634,1.919,1.919,0,0,1,37.772,8.1a3,3,0,0,1,1.965-.629,3.091,3.091,0,0,1,2.041.649,2.063,2.063,0,0,1,.783,1.661H41.289a1.142,1.142,0,0,0-.441-.9,1.652,1.652,0,0,0-1.111-.376,1.729,1.729,0,0,0-1.08.3.947.947,0,0,0-.39.786.767.767,0,0,0,.362.69,4.458,4.458,0,0,0,1.309.444,6.821,6.821,0,0,1,1.535.506,2.239,2.239,0,0,1,.872.708,1.74,1.74,0,0,1,.284,1.008,1.893,1.893,0,0,1-.793,1.589,3.326,3.326,0,0,1-2.058.6,3.725,3.725,0,0,1-1.572-.314,2.557,2.557,0,0,1-1.07-.878,2.117,2.117,0,0,1-.386-1.22h1.265a1.309,1.309,0,0,0,.509,1.008,1.976,1.976,0,0,0,1.254.373,2.039,2.039,0,0,0,1.152-.291A.893.893,0,0,0,41.364,13.038ZM45.65,15H44.386V7.6H45.65ZM44.283,5.642a.755.755,0,0,1,.188-.52.706.706,0,0,1,.557-.212.717.717,0,0,1,.561.212.747.747,0,0,1,.191.52.722.722,0,0,1-.191.513.73.73,0,0,1-.561.205.718.718,0,0,1-.557-.205A.73.73,0,0,1,44.283,5.642ZM50.641,14.1a1.822,1.822,0,0,0,1.183-.41,1.443,1.443,0,0,0,.561-1.025h1.2a2.293,2.293,0,0,1-.437,1.21,2.881,2.881,0,0,1-1.077.916,3.107,3.107,0,0,1-1.425.342,3.047,3.047,0,0,1-2.4-1.008,4.016,4.016,0,0,1-.892-2.758v-.212a4.453,4.453,0,0,1,.4-1.921A3.02,3.02,0,0,1,48.88,7.932a3.233,3.233,0,0,1,1.753-.465,2.966,2.966,0,0,1,2.068.745,2.663,2.663,0,0,1,.878,1.935h-1.2a1.743,1.743,0,0,0-.543-1.179,1.691,1.691,0,0,0-1.207-.461A1.77,1.77,0,0,0,49.14,9.2a3.259,3.259,0,0,0-.53,2.006v.239a3.194,3.194,0,0,0,.526,1.969A1.779,1.779,0,0,0,50.641,14.1Zm5.735.9H55.111V7.6h1.265ZM55.009,5.642a.755.755,0,0,1,.188-.52.706.706,0,0,1,.557-.212.717.717,0,0,1,.561.212.747.747,0,0,1,.191.52.722.722,0,0,1-.191.513.73.73,0,0,1-.561.205.718.718,0,0,1-.557-.205A.73.73,0,0,1,55.009,5.642Zm3.056,5.592a4.369,4.369,0,0,1,.427-1.955,3.187,3.187,0,0,1,1.189-1.34,3.238,3.238,0,0,1,1.74-.472,3.119,3.119,0,0,1,2.444,1.046,4.024,4.024,0,0,1,.933,2.782v.089a4.407,4.407,0,0,1-.414,1.938A3.14,3.14,0,0,1,63.2,14.658a3.275,3.275,0,0,1-1.767.479A3.111,3.111,0,0,1,59,14.091a4,4,0,0,1-.933-2.769Zm1.271.15a3.164,3.164,0,0,0,.571,1.976,1.934,1.934,0,0,0,3.059-.01,3.46,3.46,0,0,0,.567-2.116,3.159,3.159,0,0,0-.578-1.972,1.836,1.836,0,0,0-1.535-.755,1.816,1.816,0,0,0-1.511.745A3.435,3.435,0,0,0,59.336,11.384ZM62,4.5h1.531L61.694,6.51H60.676ZM67.58,7.6l.041.93a2.7,2.7,0,0,1,2.215-1.066q2.345,0,2.365,2.646V15H70.937V10.105a1.7,1.7,0,0,0-.366-1.183,1.466,1.466,0,0,0-1.118-.383,1.825,1.825,0,0,0-1.08.328,2.228,2.228,0,0,0-.725.861V15H66.384V7.6Zm9.687,3.637A4.333,4.333,0,0,1,78.073,8.5a2.745,2.745,0,0,1,4.17-.147V4.5h1.265V15H82.346l-.062-.793a2.575,2.575,0,0,1-2.112.93,2.526,2.526,0,0,1-2.1-1.053,4.382,4.382,0,0,1-.81-2.748Zm1.265.144a3.281,3.281,0,0,0,.52,1.969,1.68,1.68,0,0,0,1.436.711,1.845,1.845,0,0,0,1.757-1.08v-3.4A1.859,1.859,0,0,0,80.5,8.54a1.687,1.687,0,0,0-1.449.718A3.612,3.612,0,0,0,78.531,11.384Zm10.008,3.753a3.232,3.232,0,0,1-2.447-.988,3.666,3.666,0,0,1-.943-2.642v-.232a4.438,4.438,0,0,1,.42-1.965,3.28,3.28,0,0,1,1.176-1.354,2.956,2.956,0,0,1,1.637-.489,2.77,2.77,0,0,1,2.242.95,4.114,4.114,0,0,1,.8,2.721v.526H86.413a2.629,2.629,0,0,0,.639,1.767,2.009,2.009,0,0,0,1.555.673,2.2,2.2,0,0,0,1.135-.273,2.851,2.851,0,0,0,.813-.725l.772.6A3.106,3.106,0,0,1,88.539,15.137Zm-.157-6.631a1.687,1.687,0,0,0-1.285.557,2.708,2.708,0,0,0-.643,1.562h3.705v-.1a2.409,2.409,0,0,0-.52-1.494A1.588,1.588,0,0,0,88.382,8.506ZM3.4,28.284,5.229,22.6H6.521L3.869,30H2.905L.226,22.6H1.518ZM12.2,30a2.657,2.657,0,0,1-.178-.779,2.822,2.822,0,0,1-2.105.916,2.611,2.611,0,0,1-1.794-.619,2,2,0,0,1-.7-1.569A2.091,2.091,0,0,1,8.3,26.155a4.142,4.142,0,0,1,2.471-.639H12v-.581a1.42,1.42,0,0,0-.4-1.056,1.593,1.593,0,0,0-1.169-.393,1.844,1.844,0,0,0-1.135.342,1.007,1.007,0,0,0-.458.827H7.574a1.745,1.745,0,0,1,.393-1.07,2.683,2.683,0,0,1,1.066-.817,3.588,3.588,0,0,1,1.48-.3,2.924,2.924,0,0,1,2,.639,2.306,2.306,0,0,1,.752,1.76v3.4a4.162,4.162,0,0,0,.26,1.62V30Zm-2.1-.964a2.223,2.223,0,0,0,1.128-.308,1.861,1.861,0,0,0,.772-.8V26.411h-.991q-2.324,0-2.324,1.36a1.151,1.151,0,0,0,.4.93A1.524,1.524,0,0,0,10.1,29.036Zm8.723-5.3a3.79,3.79,0,0,0-.622-.048,1.667,1.667,0,0,0-1.688,1.06V30H15.251V22.6h1.23l.021.854a1.969,1.969,0,0,1,1.764-.991,1.292,1.292,0,0,1,.561.1ZM21.362,30H20.1V22.6h1.265ZM20,20.642a.755.755,0,0,1,.188-.52.706.706,0,0,1,.557-.212.717.717,0,0,1,.561.212.747.747,0,0,1,.191.52.722.722,0,0,1-.191.513.73.73,0,0,1-.561.205.718.718,0,0,1-.557-.205A.73.73,0,0,1,20,20.642ZM27.952,30a2.657,2.657,0,0,1-.178-.779,2.822,2.822,0,0,1-2.105.916,2.611,2.611,0,0,1-1.794-.619,2,2,0,0,1-.7-1.569,2.091,2.091,0,0,1,.878-1.794,4.141,4.141,0,0,1,2.471-.639h1.23v-.581a1.42,1.42,0,0,0-.4-1.056,1.593,1.593,0,0,0-1.169-.393,1.844,1.844,0,0,0-1.135.342,1.007,1.007,0,0,0-.458.827H23.324a1.745,1.745,0,0,1,.393-1.07,2.683,2.683,0,0,1,1.066-.817,3.588,3.588,0,0,1,1.48-.3,2.924,2.924,0,0,1,2,.639,2.306,2.306,0,0,1,.752,1.76v3.4a4.162,4.162,0,0,0,.26,1.62V30Zm-2.1-.964a2.223,2.223,0,0,0,1.128-.308,1.861,1.861,0,0,0,.772-.8V26.411h-.991q-2.324,0-2.324,1.36a1.151,1.151,0,0,0,.4.93A1.524,1.524,0,0,0,25.854,29.036Zm11.409-2.652a4.4,4.4,0,0,1-.779,2.724,2.49,2.49,0,0,1-2.092,1.029,2.578,2.578,0,0,1-2.167-.991L32.163,30H31V19.5h1.265v3.917a2.564,2.564,0,0,1,2.112-.95,2.505,2.505,0,0,1,2.116,1.019,4.53,4.53,0,0,1,.769,2.789ZM36,26.24a3.417,3.417,0,0,0-.5-2,1.652,1.652,0,0,0-1.436-.7,1.857,1.857,0,0,0-1.8,1.162v3.2a1.909,1.909,0,0,0,1.812,1.162,1.643,1.643,0,0,0,1.415-.7A3.634,3.634,0,0,0,36,26.24ZM40.229,30H38.965V19.5h1.265Zm5.093.137a3.232,3.232,0,0,1-2.447-.988,3.666,3.666,0,0,1-.943-2.642v-.232a4.438,4.438,0,0,1,.42-1.965,3.279,3.279,0,0,1,1.176-1.354,2.956,2.956,0,0,1,1.637-.489,2.77,2.77,0,0,1,2.242.95,4.114,4.114,0,0,1,.8,2.721v.526H43.2a2.629,2.629,0,0,0,.639,1.767,2.009,2.009,0,0,0,1.555.673,2.2,2.2,0,0,0,1.135-.273,2.851,2.851,0,0,0,.813-.725l.772.6A3.106,3.106,0,0,1,45.322,30.137Zm-.157-6.631a1.687,1.687,0,0,0-1.285.557,2.708,2.708,0,0,0-.643,1.562h3.705v-.1a2.409,2.409,0,0,0-.52-1.494A1.588,1.588,0,0,0,45.165,23.506Zm8.812,4.532a.931.931,0,0,0-.386-.8,3.718,3.718,0,0,0-1.347-.489,6.367,6.367,0,0,1-1.524-.492,2.169,2.169,0,0,1-.834-.684,1.635,1.635,0,0,1-.27-.943,1.919,1.919,0,0,1,.769-1.538,3,3,0,0,1,1.965-.629,3.091,3.091,0,0,1,2.041.649,2.063,2.063,0,0,1,.783,1.661H53.9a1.142,1.142,0,0,0-.441-.9,1.652,1.652,0,0,0-1.111-.376,1.729,1.729,0,0,0-1.08.3.947.947,0,0,0-.39.786.767.767,0,0,0,.362.69,4.458,4.458,0,0,0,1.309.444,6.821,6.821,0,0,1,1.535.506,2.239,2.239,0,0,1,.872.708,1.74,1.74,0,0,1,.284,1.008,1.893,1.893,0,0,1-.793,1.589,3.326,3.326,0,0,1-2.058.6,3.725,3.725,0,0,1-1.572-.314,2.557,2.557,0,0,1-1.07-.878,2.117,2.117,0,0,1-.386-1.22h1.265a1.309,1.309,0,0,0,.509,1.008,1.976,1.976,0,0,0,1.254.373,2.039,2.039,0,0,0,1.152-.291A.893.893,0,0,0,53.977,28.038Zm6.07-1.8a4.333,4.333,0,0,1,.807-2.738,2.745,2.745,0,0,1,4.17-.147V19.5h1.265V30H65.126l-.062-.793a2.575,2.575,0,0,1-2.112.93,2.526,2.526,0,0,1-2.1-1.053,4.382,4.382,0,0,1-.81-2.748Zm1.265.144a3.281,3.281,0,0,0,.52,1.969,1.68,1.68,0,0,0,1.436.711,1.845,1.845,0,0,0,1.757-1.08v-3.4A1.859,1.859,0,0,0,63.28,23.54a1.687,1.687,0,0,0-1.449.718A3.612,3.612,0,0,0,61.312,26.384Zm10.008,3.753a3.232,3.232,0,0,1-2.447-.988,3.666,3.666,0,0,1-.943-2.642v-.232a4.438,4.438,0,0,1,.42-1.965,3.28,3.28,0,0,1,1.176-1.354,2.956,2.956,0,0,1,1.637-.489,2.77,2.77,0,0,1,2.242.95,4.114,4.114,0,0,1,.8,2.721v.526H69.193a2.629,2.629,0,0,0,.639,1.767,2.009,2.009,0,0,0,1.555.673,2.2,2.2,0,0,0,1.135-.273,2.851,2.851,0,0,0,.813-.725l.772.6A3.106,3.106,0,0,1,71.319,30.137Zm-.157-6.631a1.687,1.687,0,0,0-1.285.557,2.708,2.708,0,0,0-.643,1.562h3.705v-.1a2.409,2.409,0,0,0-.52-1.494A1.588,1.588,0,0,0,71.162,23.506ZM77.041,30H75.776V19.5h1.265Zm11.737-3.616a4.429,4.429,0,0,1-.772,2.721,2.476,2.476,0,0,1-2.092,1.032,2.713,2.713,0,0,1-2.119-.854v3.562H82.53V22.6h1.155l.062.82a2.605,2.605,0,0,1,2.146-.957,2.522,2.522,0,0,1,2.109,1,4.477,4.477,0,0,1,.776,2.8Zm-1.265-.144a3.268,3.268,0,0,0-.533-1.976,1.718,1.718,0,0,0-1.463-.725,1.859,1.859,0,0,0-1.723,1.019v3.534A1.863,1.863,0,0,0,85.531,29.1a1.71,1.71,0,0,0,1.446-.721A3.567,3.567,0,0,0,87.514,26.24Zm6.446-2.5a3.79,3.79,0,0,0-.622-.048,1.667,1.667,0,0,0-1.688,1.06V30H90.385V22.6h1.23l.021.854a1.969,1.969,0,0,1,1.764-.991,1.292,1.292,0,0,1,.561.1Zm.69,2.5a4.369,4.369,0,0,1,.427-1.955,3.187,3.187,0,0,1,1.189-1.34,3.238,3.238,0,0,1,1.74-.472,3.119,3.119,0,0,1,2.444,1.046,4.024,4.024,0,0,1,.933,2.782v.089a4.407,4.407,0,0,1-.414,1.938,3.14,3.14,0,0,1-1.183,1.336,3.275,3.275,0,0,1-1.767.479,3.111,3.111,0,0,1-2.437-1.046,4,4,0,0,1-.933-2.769Zm1.271.15a3.164,3.164,0,0,0,.571,1.976,1.934,1.934,0,0,0,3.059-.01,3.46,3.46,0,0,0,.567-2.116,3.159,3.159,0,0,0-.578-1.972,1.836,1.836,0,0,0-1.535-.755,1.816,1.816,0,0,0-1.511.745A3.434,3.434,0,0,0,95.922,26.384ZM105.937,29.1a1.822,1.822,0,0,0,1.183-.41,1.443,1.443,0,0,0,.561-1.025h1.2a2.293,2.293,0,0,1-.437,1.21,2.882,2.882,0,0,1-1.077.916,3.107,3.107,0,0,1-1.425.342,3.047,3.047,0,0,1-2.4-1.008,4.016,4.016,0,0,1-.892-2.758v-.212a4.453,4.453,0,0,1,.4-1.921,3.02,3.02,0,0,1,1.138-1.306,3.233,3.233,0,0,1,1.753-.465,2.966,2.966,0,0,1,2.068.745,2.663,2.663,0,0,1,.878,1.935h-1.2a1.743,1.743,0,0,0-.543-1.179,1.691,1.691,0,0,0-1.207-.461,1.77,1.77,0,0,0-1.494.694,3.259,3.259,0,0,0-.53,2.006v.239a3.194,3.194,0,0,0,.526,1.969A1.779,1.779,0,0,0,105.937,29.1Zm7.431,1.032a3.232,3.232,0,0,1-2.447-.988,3.666,3.666,0,0,1-.943-2.642v-.232a4.438,4.438,0,0,1,.42-1.965,3.28,3.28,0,0,1,1.176-1.354,2.956,2.956,0,0,1,1.637-.489,2.77,2.77,0,0,1,2.242.95,4.114,4.114,0,0,1,.8,2.721v.526h-5.011a2.629,2.629,0,0,0,.639,1.767,2.009,2.009,0,0,0,1.555.673,2.2,2.2,0,0,0,1.135-.273,2.851,2.851,0,0,0,.813-.725l.772.6A3.106,3.106,0,0,1,113.367,30.137Zm-.157-6.631a1.687,1.687,0,0,0-1.285.557,2.708,2.708,0,0,0-.643,1.562h3.705v-.1a2.409,2.409,0,0,0-.52-1.494A1.588,1.588,0,0,0,113.21,23.506Zm8.812,4.532a.931.931,0,0,0-.386-.8,3.718,3.718,0,0,0-1.347-.489,6.367,6.367,0,0,1-1.524-.492,2.169,2.169,0,0,1-.834-.684,1.635,1.635,0,0,1-.27-.943,1.919,1.919,0,0,1,.769-1.538,3,3,0,0,1,1.965-.629,3.091,3.091,0,0,1,2.041.649,2.063,2.063,0,0,1,.783,1.661h-1.271a1.142,1.142,0,0,0-.441-.9,1.652,1.652,0,0,0-1.111-.376,1.729,1.729,0,0,0-1.08.3.947.947,0,0,0-.39.786.767.767,0,0,0,.362.69,4.458,4.458,0,0,0,1.309.444,6.821,6.821,0,0,1,1.535.506,2.239,2.239,0,0,1,.872.708,1.74,1.74,0,0,1,.284,1.008,1.893,1.893,0,0,1-.793,1.589,3.326,3.326,0,0,1-2.058.6,3.725,3.725,0,0,1-1.572-.314,2.557,2.557,0,0,1-1.07-.878,2.117,2.117,0,0,1-.386-1.22h1.265a1.309,1.309,0,0,0,.509,1.008,1.976,1.976,0,0,0,1.254.373,2.039,2.039,0,0,0,1.152-.291A.893.893,0,0,0,122.021,28.038Zm2.577-1.8a4.369,4.369,0,0,1,.427-1.955,3.187,3.187,0,0,1,1.189-1.34,3.238,3.238,0,0,1,1.74-.472,3.119,3.119,0,0,1,2.444,1.046,4.024,4.024,0,0,1,.933,2.782v.089a4.407,4.407,0,0,1-.414,1.938,3.14,3.14,0,0,1-1.183,1.336,3.275,3.275,0,0,1-1.767.479,3.111,3.111,0,0,1-2.437-1.046,4,4,0,0,1-.933-2.769Zm1.271.15a3.164,3.164,0,0,0,.571,1.976,1.934,1.934,0,0,0,3.059-.01,3.46,3.46,0,0,0,.567-2.116,3.159,3.159,0,0,0-.578-1.972,1.836,1.836,0,0,0-1.535-.755,1.816,1.816,0,0,0-1.511.745A3.434,3.434,0,0,0,125.87,26.384Z" transform="translate(968 12043)" fill="#12263f"/>
    <path id="Icon_awesome-long-arrow-alt-down" data-name="Icon awesome-long-arrow-alt-down" d="M6.947,47.436V30.555A.555.555,0,0,0,6.391,30H3.8a.555.555,0,0,0-.555.555V47.436H1.113a1.111,1.111,0,0,0-.785,1.9L4.31,53.315a1.111,1.111,0,0,0,1.571,0l3.983-3.983a1.111,1.111,0,0,0-.785-1.9Z" transform="translate(795 11919)" fill="#f9305f"/>
    <path id="Icon_awesome-long-arrow-alt-down-2" data-name="Icon awesome-long-arrow-alt-down" d="M6.947,47.436,6.93,10.179a.555.555,0,0,0-.555-.555H3.783a.555.555,0,0,0-.555.555l.016,37.257H1.113a1.111,1.111,0,0,0-.785,1.9L4.31,53.315a1.111,1.111,0,0,0,1.571,0l3.983-3.983a1.111,1.111,0,0,0-.785-1.9Z" transform="translate(795 12029.36)" fill="#f9305f"/>
    <path id="Icon_awesome-long-arrow-alt-down-3" data-name="Icon awesome-long-arrow-alt-down" d="M6.947,137.436,6.93,10.179a.555.555,0,0,0-.555-.555H3.783a.555.555,0,0,0-.555.555l.016,127.257H1.113a1.111,1.111,0,0,0-.785,1.9l3.983,3.983a1.111,1.111,0,0,0,1.571,0l3.983-3.983a1.111,1.111,0,0,0-.785-1.9Z" transform="translate(963.191 12092.624) rotate(180)" fill="#f9305f"/>
    <g id="Grupo_1068074" data-name="Grupo 1068074" transform="translate(-39.36 183)">
      <rect id="Rectngulo_375568" data-name="Rectngulo 375568" width="190" height="50" rx="4" transform="translate(674 11920)" fill="#1e5af9"/>
      <rect id="Rectngulo_375569" data-name="Rectngulo 375569" width="190" height="50" rx="4" transform="translate(888 11920)" fill="#1e5af9"/>
      <text id="Control" transform="translate(704 11936)" fill="#fff" font-size="15" font-family="Roboto-Bold, Roboto" font-weight="700"><tspan x="40.284" y="16">Control</tspan></text>
      <text id="Proceso" transform="translate(918 11936)" fill="#fff" font-size="15" font-family="Roboto-Bold, Roboto" font-weight="700"><tspan x="37.256" y="16">Proceso</tspan></text>
      <path id="Icon_awesome-long-arrow-alt-down-4" data-name="Icon awesome-long-arrow-alt-down" d="M6.947,47.436V30.555A.555.555,0,0,0,6.391,30H3.8a.555.555,0,0,0-.555.555V47.436H1.113a1.111,1.111,0,0,0-.785,1.9L4.31,53.315a1.111,1.111,0,0,0,1.571,0l3.983-3.983a1.111,1.111,0,0,0-.785-1.9Z" transform="translate(546.36 11950.191) rotate(-90)" fill="#f9305f"/>
      <path id="Icon_awesome-long-arrow-alt-down-5" data-name="Icon awesome-long-arrow-alt-down" d="M6.947,47.436V30.555A.555.555,0,0,0,6.391,30H3.8a.555.555,0,0,0-.555.555V47.436H1.113a1.111,1.111,0,0,0-.785,1.9L4.31,53.315a1.111,1.111,0,0,0,1.571,0l3.983-3.983a1.111,1.111,0,0,0-.785-1.9Z" transform="translate(620 11950.191) rotate(-90)" fill="#f9305f"/>
      <path id="Icon_awesome-long-arrow-alt-down-6" data-name="Icon awesome-long-arrow-alt-down" d="M6.947,47.436V30.555A.555.555,0,0,0,6.391,30H3.8a.555.555,0,0,0-.555.555V47.436H1.113a1.111,1.111,0,0,0-.785,1.9L4.31,53.315a1.111,1.111,0,0,0,1.571,0l3.983-3.983a1.111,1.111,0,0,0-.785-1.9Z" transform="translate(630.095 12023.64) rotate(180)" fill="#f9305f"/>
      <path id="Icon_awesome-long-arrow-alt-down-7" data-name="Icon awesome-long-arrow-alt-down" d="M6.947,47.436V30.555A.555.555,0,0,0,6.391,30H3.8a.555.555,0,0,0-.555.555V47.436H1.113a1.111,1.111,0,0,0-.785,1.9L4.31,53.315a1.111,1.111,0,0,0,1.571,0l3.983-3.983a1.111,1.111,0,0,0-.785-1.9Z" transform="translate(834 11950.191) rotate(-90)" fill="#f9305f"/>
      <g id="Grupo_1068073" data-name="Grupo 1068073">
        <g id="Elipse_8654" data-name="Elipse 8654" transform="translate(600 11920)" fill="none" stroke="#1e5af9" stroke-width="3">
          <circle cx="25" cy="25" r="25" stroke="none"/>
          <circle cx="25" cy="25" r="23.5" fill="none"/>
        </g>
        <line id="Lnea_1798" data-name="Lnea 1798" y1="32" x2="32" transform="translate(609 11929)" fill="none" stroke="#1e5af9" stroke-linecap="round" stroke-width="3"/>
        <line id="Lnea_1799" data-name="Lnea 1799" x1="32" y1="32" transform="translate(609 11929)" fill="none" stroke="#1e5af9" stroke-linecap="round" stroke-width="3"/>
      </g>
      <rect id="Rectngulo_375570" data-name="Rectngulo 375570" width="479" height="4" transform="translate(623.36 11990)" fill="#f9305f"/>
      <rect id="Rectngulo_375571" data-name="Rectngulo 375571" width="24" height="4" transform="translate(1078.36 11943)" fill="#f9305f"/>
      <rect id="Rectngulo_375572" data-name="Rectngulo 375572" width="51" height="4" transform="translate(1102.36 11943) rotate(90)" fill="#f9305f"/>
    </g>
  </g>
</svg>
