<svg xmlns="http://www.w3.org/2000/svg" width="80" height="80" viewBox="0 0 80 80">
  <g id="Grupo_1068690" data-name="Grupo 1068690" transform="translate(-842 -736)">
    <circle id="Elipse_8613" data-name="Elipse 8613" cx="40" cy="40" r="40" transform="translate(842 736)" fill="#e9e2ff"/>
    <g id="travel-agency" transform="translate(854 748)">
      <path id="_x35_" d="M83.61,15.321a18.784,18.784,0,0,1-3.232,2.1A31.234,31.234,0,0,1,81.841,26.3H88.61a16.419,16.419,0,0,0-4.8-10.782Zm5,12.7H81.842A30.863,30.863,0,0,1,80.464,36.6a2.851,2.851,0,0,1-.1.293,18.416,18.416,0,0,1,3.244,2.1,16.491,16.491,0,0,0,5-10.976ZM82.293,40.139A17.228,17.228,0,0,0,79.769,38.5,14.45,14.45,0,0,1,76.6,43.371a.85.85,0,0,1-1.208-.025.865.865,0,0,1,.025-1.219,12.657,12.657,0,0,0,2.793-4.33,1.647,1.647,0,0,1-.219-.085,16.288,16.288,0,0,0-4.964-1.024v.231a.859.859,0,0,1-.854.866.87.87,0,0,1-.867-.866v-8.9H67.267a.859.859,0,0,1-.854-.866.848.848,0,0,1,.854-.854H71.3V19.358a18.406,18.406,0,0,1-3.951-.635,17.285,17.285,0,0,1-1.8-.6,29.263,29.263,0,0,0-1.341,9.025.86.86,0,1,1-1.72,0,31.378,31.378,0,0,1,1.475-9.732c-.366-.2-.719-.39-1.073-.6a.856.856,0,0,1,.867-1.476c.268.158.536.317.817.451.183-.439.378-.866.6-1.281a13.566,13.566,0,0,1,2.073-3.074,16.676,16.676,0,0,0-4,1.878.861.861,0,0,1-.927-1.452,18.035,18.035,0,0,1,9.854-2.89,18.178,18.178,0,0,1,8.477,34.258.848.848,0,0,1-1.159-.354.861.861,0,0,1,.354-1.158,23.722,23.722,0,0,0,2.452-1.585Zm-5.2-28.7a13.918,13.918,0,0,1,2.073,3.074c.207.415.4.842.6,1.281a17.087,17.087,0,0,0,2.524-1.622A16.568,16.568,0,0,0,77.1,11.442Zm1.7,24.746.036-.1a29.019,29.019,0,0,0,1.293-8.074h-7.1v6.939A18.38,18.38,0,0,1,78.6,36.114C78.671,36.139,78.732,36.163,78.793,36.188ZM80.123,26.3a28.689,28.689,0,0,0-1.329-8.171c-.062.025-.135.049-.2.073a18.354,18.354,0,0,1-5.573,1.159V26.3Zm-7.1-15.5v6.83a16.3,16.3,0,0,0,4.964-1.036c.073-.025.146-.049.207-.073-.17-.427-.354-.83-.549-1.22-1.256-2.452-2.865-4.086-4.622-4.5Zm-1.72,6.83V10.8c-1.756.415-3.365,2.049-4.61,4.5-.195.39-.378.793-.561,1.22a15.8,15.8,0,0,0,1.671.549,15.746,15.746,0,0,0,3.5.561Z" transform="translate(-35.277 -5.113)" fill="#1e5af9"/>
      <path id="_x34_" d="M10.617,53.194l1.732,5.451,3.317-2.415-3.72-4.183Zm2.073-2.9,4.244,4.781,4.232-4.781.012-.012a.841.841,0,0,1,1.207-.085l2.305,1.988L30.215,54.6a5.96,5.96,0,0,1,2.671,2.268,6.333,6.333,0,0,1,.976,3.415v3.134a.86.86,0,1,1-1.719,0V60.279a4.593,4.593,0,0,0-.695-2.488,4.395,4.395,0,0,0-1.915-1.622l-4.78-2.085L22.776,60.3a.852.852,0,0,1-1.317.427l-3.671-2.671v6a.859.859,0,0,1-.854.866.869.869,0,0,1-.866-.866v-6L12.41,60.731a2.582,2.582,0,0,1-.256.122A.848.848,0,0,1,11.08,60.3L9.1,54.084,4.324,56.17a4.294,4.294,0,0,0-1.9,1.622,4.5,4.5,0,0,0-.707,2.488v14.2a.859.859,0,0,1-.854.866.87.87,0,0,1-.866-.866v-14.2A6.338,6.338,0,0,1,.97,56.864,6.025,6.025,0,0,1,3.641,54.6l5.524-2.415,2.3-1.988a.842.842,0,0,1,1.208.085ZM6.64,66.9a.86.86,0,0,1,1.72,0v7.574a.86.86,0,1,1-1.72,0ZM21.91,52.047,18.19,56.23l3.317,2.415,1.732-5.451Z" transform="translate(0.006 -28.473)" fill="#1e5af9"/>
      <path id="_x33_" d="M50.515,83.777H31.441a1.687,1.687,0,0,0-1.561,1.341L27.465,98.851a1,1,0,0,0,1.024,1.256H47.136a1.959,1.959,0,0,0,1.817-1.561l2.4-13.721a1.123,1.123,0,0,0,.025-.207.813.813,0,0,0-.867-.841ZM40.429,91.033a.87.87,0,0,1,.866.866.859.859,0,0,1-.866.854.848.848,0,0,1-.854-.854A.859.859,0,0,1,40.429,91.033Zm-8.988-8.976H50.515a2.1,2.1,0,0,1,.475.049,2.508,2.508,0,0,1,2.11,2.512,3.506,3.506,0,0,1-.049.5l-2.4,13.733a3.706,3.706,0,0,1-3.513,2.976H28.489a2.7,2.7,0,0,1-2.756-2.744,4.227,4.227,0,0,1,.037-.537l2.415-13.721A3.432,3.432,0,0,1,31.441,82.057Z" transform="translate(-14.659 -46.75)" fill="#1e5af9"/>
      <path id="_x32_" d="M15.494,114.031a.859.859,0,0,1,.866.854.92.92,0,0,1-.025.183l-.354,2a1.491,1.491,0,0,0-.012.231,1.011,1.011,0,0,0,.219.671.969.969,0,0,0,.6.329c.061.012.134.012.207.025l.012,1.72H8.945a2.94,2.94,0,0,1-1.6-.463,2.211,2.211,0,0,1-.963-1.329l-.78-3.159a.857.857,0,0,1,.634-1.036.567.567,0,0,1,.207-.025Zm-1.024,1.72H7.53l.524,2.1a.454.454,0,0,0,.232.293,1.188,1.188,0,0,0,.658.183h5.488a2.822,2.822,0,0,1-.183-1.024,4.226,4.226,0,0,1,.037-.537Z" transform="translate(-3.176 -64.967)" fill="#1e5af9"/>
      <path id="_x31_" d="M25,20.251l-.293,2.22A.862.862,0,1,1,23,22.239l.451-3.293-.219-.195a7.094,7.094,0,0,1-1.854-2.561,7.91,7.91,0,0,1-.634-3.2V7.787a7.67,7.67,0,0,1,2.22-5.647A8.116,8.116,0,0,1,28.755-.006,8.107,8.107,0,0,1,34.537,2.14a7.67,7.67,0,0,1,2.22,5.647v5.208a8,8,0,0,1-.634,3.2,7.09,7.09,0,0,1-1.854,2.561l-.219.195.451,3.293a.874.874,0,0,1-.732.976.855.855,0,0,1-.963-.744l-.3-2.22a5.648,5.648,0,0,1-1.2.634,7.962,7.962,0,0,1-5.11,0,5.621,5.621,0,0,1-1.2-.634ZM22.487,7.226A2.845,2.845,0,0,0,26.28,5.36.856.856,0,0,1,27.4,4.9a.838.838,0,0,1,.475.5c.012.012,1.573,4.488,7.159,3.086V7.787a5.973,5.973,0,0,0-1.7-4.415,6.41,6.41,0,0,0-4.586-1.659,6.422,6.422,0,0,0-4.6,1.659A5.813,5.813,0,0,0,22.487,7.226Zm12.549,3.025c-4.476.976-6.866-1.208-7.976-2.793a4.177,4.177,0,0,1-4.6,1.536v4a6.411,6.411,0,0,0,.488,2.513,5.356,5.356,0,0,0,1.427,1.963l1.037.927a4.657,4.657,0,0,0,1.415.89,6.259,6.259,0,0,0,3.842,0A4.866,4.866,0,0,0,32.1,18.4l1.037-.927a5.118,5.118,0,0,0,1.378-1.891,6.292,6.292,0,0,0,.524-2.586V10.251Z" transform="translate(-11.816 0.006)" fill="#1e5af9"/>
    </g>
  </g>
</svg>
