<svg xmlns="http://www.w3.org/2000/svg" xmlns:xlink="http://www.w3.org/1999/xlink" width="612" height="412" viewBox="0 0 612 412">
  <defs>
    <clipPath id="clip-path">
      <path id="path3095" d="M0-682.665H55.116v55.116H0Z" transform="translate(0 682.665)"/>
    </clipPath>
  </defs>
  <g id="Grupo_1068691" data-name="Grupo 1068691" transform="translate(-494 -2596)">
    <path id="Trazado_804612" data-name="Trazado 804612" d="M5.914,12.992V17H3.57V5.625H8.008a5.134,5.134,0,0,1,2.254.469,3.454,3.454,0,0,1,1.5,1.332,3.714,3.714,0,0,1,.523,1.965,3.266,3.266,0,0,1-1.145,2.637,4.767,4.767,0,0,1-3.168.965Zm0-1.9H8.008a2.059,2.059,0,0,0,1.418-.437,1.591,1.591,0,0,0,.488-1.25,1.876,1.876,0,0,0-.492-1.352,1.839,1.839,0,0,0-1.359-.531H5.914ZM18.8,16.141a2.831,2.831,0,0,1-2.312,1.016,2.67,2.67,0,0,1-2.074-.781,3.335,3.335,0,0,1-.73-2.289V8.547h2.258v5.461q0,1.32,1.2,1.32a1.631,1.631,0,0,0,1.578-.8V8.547h2.266V17H18.867Zm7.781,1.016a4.15,4.15,0,0,1-3.027-1.141,4.054,4.054,0,0,1-1.168-3.039v-.219a5.106,5.106,0,0,1,.492-2.277,3.612,3.612,0,0,1,1.395-1.547,3.914,3.914,0,0,1,2.059-.543,3.508,3.508,0,0,1,2.73,1.094,4.444,4.444,0,0,1,1,3.1v.922H24.68a2.1,2.1,0,0,0,.66,1.328,2,2,0,0,0,1.395.5,2.437,2.437,0,0,0,2.039-.945l1.109,1.242a3.389,3.389,0,0,1-1.375,1.121A4.511,4.511,0,0,1,26.586,17.156Zm-.258-6.937a1.414,1.414,0,0,0-1.09.453,2.341,2.341,0,0,0-.535,1.3h3.141v-.18a1.669,1.669,0,0,0-.406-1.16A1.459,1.459,0,0,0,26.328,10.219Zm9.594,4.445a.727.727,0,0,0-.41-.652,4.659,4.659,0,0,0-1.316-.426q-3.016-.633-3.016-2.562a2.323,2.323,0,0,1,.934-1.879,3.766,3.766,0,0,1,2.441-.754,4.053,4.053,0,0,1,2.574.758,2.388,2.388,0,0,1,.965,1.969H35.836a1.092,1.092,0,0,0-.312-.8A1.322,1.322,0,0,0,34.547,10a1.351,1.351,0,0,0-.883.258.814.814,0,0,0-.312.656.7.7,0,0,0,.355.605,3.657,3.657,0,0,0,1.2.4,9.8,9.8,0,0,1,1.422.379,2.336,2.336,0,0,1,1.789,2.273,2.2,2.2,0,0,1-.992,1.871,4.28,4.28,0,0,1-2.562.715,4.47,4.47,0,0,1-1.887-.379,3.166,3.166,0,0,1-1.293-1.039,2.414,2.414,0,0,1-.469-1.426h2.141a1.179,1.179,0,0,0,.445.922,1.766,1.766,0,0,0,1.109.32,1.635,1.635,0,0,0,.98-.246A.766.766,0,0,0,35.922,14.664Zm6.352-8.2V8.547h1.445V10.2H42.273v4.219a1.007,1.007,0,0,0,.18.672.9.9,0,0,0,.688.2,3.6,3.6,0,0,0,.664-.055v1.711a4.648,4.648,0,0,1-1.367.2,2.156,2.156,0,0,1-2.422-2.4V10.2H38.781V8.547h1.234V6.469ZM44.391,12.7a5.013,5.013,0,0,1,.484-2.242A3.546,3.546,0,0,1,46.27,8.93a4.069,4.069,0,0,1,2.113-.539,3.849,3.849,0,0,1,2.793,1.047,4.2,4.2,0,0,1,1.207,2.844l.016.578a4.418,4.418,0,0,1-1.086,3.121,4.209,4.209,0,0,1-5.832,0,4.5,4.5,0,0,1-1.09-3.187Zm2.258.164A3.151,3.151,0,0,0,47.1,14.7a1.629,1.629,0,0,0,2.578.008,3.448,3.448,0,0,0,.461-2.012,3.12,3.12,0,0,0-.461-1.828,1.5,1.5,0,0,0-1.3-.648,1.475,1.475,0,0,0-1.281.645A3.506,3.506,0,0,0,46.648,12.859ZM62.672,17a2.507,2.507,0,0,1-.227-.758,2.732,2.732,0,0,1-2.133.914,3,3,0,0,1-2.059-.719,2.312,2.312,0,0,1-.816-1.812,2.389,2.389,0,0,1,1-2.062,4.915,4.915,0,0,1,2.879-.727h1.039v-.484a1.393,1.393,0,0,0-.3-.937,1.183,1.183,0,0,0-.949-.352,1.345,1.345,0,0,0-.895.273.929.929,0,0,0-.324.75H57.625a2.268,2.268,0,0,1,.453-1.359,3,3,0,0,1,1.281-.98,4.669,4.669,0,0,1,1.859-.355,3.689,3.689,0,0,1,2.48.785,2.747,2.747,0,0,1,.918,2.207v3.664a4.041,4.041,0,0,0,.336,1.82V17ZM60.8,15.43a1.945,1.945,0,0,0,.922-.223,1.462,1.462,0,0,0,.625-.6V13.156h-.844q-1.7,0-1.8,1.172l-.008.133a.9.9,0,0,0,.3.7A1.153,1.153,0,0,0,60.8,15.43ZM66,12.711a5.094,5.094,0,0,1,.887-3.148,2.877,2.877,0,0,1,2.426-1.172,2.589,2.589,0,0,1,2.039.922V5h2.266V17H71.578l-.109-.9A2.657,2.657,0,0,1,69.3,17.156,2.869,2.869,0,0,1,66.9,15.98,5.258,5.258,0,0,1,66,12.711Zm2.258.164a3.328,3.328,0,0,0,.414,1.82,1.349,1.349,0,0,0,1.2.633,1.511,1.511,0,0,0,1.477-.883V11.109a1.489,1.489,0,0,0-1.461-.883Q68.258,10.227,68.258,12.875Zm9.227-4.328.07.945a2.971,2.971,0,0,1,2.43-1.1A2.255,2.255,0,0,1,82.227,9.68a2.9,2.9,0,0,1,2.539-1.289,2.521,2.521,0,0,1,2.047.8,3.681,3.681,0,0,1,.672,2.41V17H85.219V11.609a1.61,1.61,0,0,0-.281-1.051,1.246,1.246,0,0,0-.992-.332,1.409,1.409,0,0,0-1.406.969l.008,5.8H80.289V11.617A1.59,1.59,0,0,0,80,10.555a1.259,1.259,0,0,0-.984-.328,1.463,1.463,0,0,0-1.391.8V17H75.367V8.547ZM91.6,17H89.336V8.547H91.6ZM89.2,6.359a1.112,1.112,0,0,1,.34-.836,1.465,1.465,0,0,1,1.848,0,1.105,1.105,0,0,1,.344.836,1.108,1.108,0,0,1-.348.844,1.448,1.448,0,0,1-1.836,0A1.108,1.108,0,0,1,89.2,6.359Zm6.336,2.188.07.977a2.951,2.951,0,0,1,2.43-1.133,2.453,2.453,0,0,1,2,.789,3.682,3.682,0,0,1,.672,2.359V17H98.453V11.594a1.465,1.465,0,0,0-.312-1.043,1.4,1.4,0,0,0-1.039-.324,1.553,1.553,0,0,0-1.43.813V17H93.414V8.547ZM104.8,17h-2.266V8.547H104.8Zm-2.4-10.641a1.112,1.112,0,0,1,.34-.836,1.465,1.465,0,0,1,1.848,0,1.105,1.105,0,0,1,.344.836,1.108,1.108,0,0,1-.348.844,1.448,1.448,0,0,1-1.836,0A1.108,1.108,0,0,1,102.406,6.359Zm8.836,8.3a.727.727,0,0,0-.41-.652,4.659,4.659,0,0,0-1.316-.426q-3.016-.633-3.016-2.562a2.323,2.323,0,0,1,.934-1.879,3.766,3.766,0,0,1,2.441-.754,4.053,4.053,0,0,1,2.574.758,2.388,2.388,0,0,1,.965,1.969h-2.258a1.092,1.092,0,0,0-.312-.8,1.322,1.322,0,0,0-.977-.316,1.351,1.351,0,0,0-.883.258.814.814,0,0,0-.312.656.7.7,0,0,0,.355.605,3.657,3.657,0,0,0,1.2.4,9.8,9.8,0,0,1,1.422.379,2.336,2.336,0,0,1,1.789,2.273,2.2,2.2,0,0,1-.992,1.871,4.28,4.28,0,0,1-2.562.715A4.47,4.47,0,0,1,108,16.777a3.166,3.166,0,0,1-1.293-1.039,2.414,2.414,0,0,1-.469-1.426h2.141a1.179,1.179,0,0,0,.445.922,1.766,1.766,0,0,0,1.109.32,1.635,1.635,0,0,0,.98-.246A.766.766,0,0,0,111.242,14.664Zm6.352-8.2V8.547h1.445V10.2h-1.445v4.219a1.007,1.007,0,0,0,.18.672.9.9,0,0,0,.688.2,3.6,3.6,0,0,0,.664-.055v1.711a4.648,4.648,0,0,1-1.367.2,2.156,2.156,0,0,1-2.422-2.4V10.2H114.1V8.547h1.234V6.469Zm7.453,4.2a6.134,6.134,0,0,0-.812-.062,1.654,1.654,0,0,0-1.68.867V17H120.3V8.547h2.133l.063,1.008a2.092,2.092,0,0,1,1.883-1.164,2.366,2.366,0,0,1,.7.1ZM130.8,17a2.507,2.507,0,0,1-.227-.758,2.732,2.732,0,0,1-2.133.914,3,3,0,0,1-2.059-.719,2.312,2.312,0,0,1-.816-1.812,2.389,2.389,0,0,1,1-2.062,4.915,4.915,0,0,1,2.879-.727h1.039v-.484a1.393,1.393,0,0,0-.3-.937,1.183,1.183,0,0,0-.949-.352,1.345,1.345,0,0,0-.895.273.929.929,0,0,0-.324.75H125.75a2.268,2.268,0,0,1,.453-1.359,3,3,0,0,1,1.281-.98,4.669,4.669,0,0,1,1.859-.355,3.689,3.689,0,0,1,2.48.785,2.747,2.747,0,0,1,.918,2.207v3.664a4.041,4.041,0,0,0,.336,1.82V17Zm-1.867-1.57a1.945,1.945,0,0,0,.922-.223,1.462,1.462,0,0,0,.625-.6V13.156h-.844q-1.7,0-1.8,1.172l-.008.133a.9.9,0,0,0,.3.7A1.153,1.153,0,0,0,128.93,15.43Zm5.2-2.719a5.094,5.094,0,0,1,.887-3.148,2.877,2.877,0,0,1,2.426-1.172,2.589,2.589,0,0,1,2.039.922V5h2.266V17H139.7l-.109-.9a2.657,2.657,0,0,1-2.172,1.055,2.869,2.869,0,0,1-2.395-1.176A5.258,5.258,0,0,1,134.125,12.711Zm2.258.164a3.328,3.328,0,0,0,.414,1.82,1.349,1.349,0,0,0,1.2.633,1.511,1.511,0,0,0,1.477-.883V11.109a1.489,1.489,0,0,0-1.461-.883Q136.383,10.227,136.383,12.875Zm6.758-.18a5.013,5.013,0,0,1,.484-2.242A3.546,3.546,0,0,1,145.02,8.93a4.069,4.069,0,0,1,2.113-.539,3.849,3.849,0,0,1,2.793,1.047,4.2,4.2,0,0,1,1.207,2.844l.016.578a4.418,4.418,0,0,1-1.086,3.121,4.209,4.209,0,0,1-5.832,0,4.5,4.5,0,0,1-1.09-3.187Zm2.258.164a3.151,3.151,0,0,0,.453,1.84,1.629,1.629,0,0,0,2.578.008,3.448,3.448,0,0,0,.461-2.012,3.12,3.12,0,0,0-.461-1.828,1.5,1.5,0,0,0-1.3-.648,1.475,1.475,0,0,0-1.281.645A3.506,3.506,0,0,0,145.4,12.859Zm11.891-2.2a6.134,6.134,0,0,0-.812-.062,1.654,1.654,0,0,0-1.68.867V17h-2.258V8.547h2.133l.063,1.008a2.092,2.092,0,0,1,1.883-1.164,2.366,2.366,0,0,1,.7.1Zm4.719,2.047a5.094,5.094,0,0,1,.887-3.148,2.877,2.877,0,0,1,2.426-1.172,2.589,2.589,0,0,1,2.039.922V5h2.266V17h-2.039l-.109-.9a2.657,2.657,0,0,1-2.172,1.055,2.869,2.869,0,0,1-2.395-1.176A5.258,5.258,0,0,1,162.008,12.711Zm2.258.164a3.328,3.328,0,0,0,.414,1.82,1.349,1.349,0,0,0,1.2.633,1.511,1.511,0,0,0,1.477-.883V11.109a1.489,1.489,0,0,0-1.461-.883Q164.266,10.227,164.266,12.875Zm11,4.281a4.15,4.15,0,0,1-3.027-1.141,4.054,4.054,0,0,1-1.168-3.039v-.219a5.106,5.106,0,0,1,.492-2.277,3.612,3.612,0,0,1,1.395-1.547,3.914,3.914,0,0,1,2.059-.543,3.508,3.508,0,0,1,2.73,1.094,4.444,4.444,0,0,1,1,3.1v.922h-5.383a2.1,2.1,0,0,0,.66,1.328,2,2,0,0,0,1.395.5,2.437,2.437,0,0,0,2.039-.945l1.109,1.242a3.389,3.389,0,0,1-1.375,1.121A4.511,4.511,0,0,1,175.266,17.156Zm-.258-6.937a1.414,1.414,0,0,0-1.09.453,2.341,2.341,0,0,0-.535,1.3h3.141v-.18a1.669,1.669,0,0,0-.406-1.16A1.459,1.459,0,0,0,175.008,10.219ZM186.391,17h-2.266V5h2.266Zm6.758,0a2.507,2.507,0,0,1-.227-.758,2.732,2.732,0,0,1-2.133.914,3,3,0,0,1-2.059-.719,2.312,2.312,0,0,1-.816-1.812,2.389,2.389,0,0,1,1-2.062,4.915,4.915,0,0,1,2.879-.727h1.039v-.484a1.393,1.393,0,0,0-.3-.937,1.183,1.183,0,0,0-.949-.352,1.345,1.345,0,0,0-.895.273.929.929,0,0,0-.324.75H188.1a2.268,2.268,0,0,1,.453-1.359,3,3,0,0,1,1.281-.98,4.669,4.669,0,0,1,1.859-.355,3.689,3.689,0,0,1,2.48.785,2.747,2.747,0,0,1,.918,2.207v3.664a4.041,4.041,0,0,0,.336,1.82V17Zm-1.867-1.57a1.945,1.945,0,0,0,.922-.223,1.462,1.462,0,0,0,.625-.6V13.156h-.844q-1.7,0-1.8,1.172l-.008.133a.9.9,0,0,0,.3.7A1.153,1.153,0,0,0,191.281,15.43Zm14.281-4.766a6.134,6.134,0,0,0-.812-.062,1.654,1.654,0,0,0-1.68.867V17h-2.258V8.547h2.133l.063,1.008a2.092,2.092,0,0,1,1.883-1.164,2.366,2.366,0,0,1,.7.1Zm4.977,6.492a4.15,4.15,0,0,1-3.027-1.141,4.054,4.054,0,0,1-1.168-3.039v-.219a5.106,5.106,0,0,1,.492-2.277,3.612,3.612,0,0,1,1.395-1.547,3.914,3.914,0,0,1,2.059-.543,3.508,3.508,0,0,1,2.73,1.094,4.444,4.444,0,0,1,1,3.1v.922h-5.383a2.1,2.1,0,0,0,.66,1.328,2,2,0,0,0,1.395.5,2.437,2.437,0,0,0,2.039-.945l1.109,1.242a3.389,3.389,0,0,1-1.375,1.121A4.511,4.511,0,0,1,210.539,17.156Zm-.258-6.937a1.414,1.414,0,0,0-1.09.453,2.341,2.341,0,0,0-.535,1.3H211.8v-.18a1.669,1.669,0,0,0-.406-1.16A1.459,1.459,0,0,0,210.281,10.219Zm4.664,2.492a5.094,5.094,0,0,1,.887-3.148,2.877,2.877,0,0,1,2.426-1.172,2.589,2.589,0,0,1,2.039.922V5h2.266V17h-2.039l-.109-.9a2.657,2.657,0,0,1-2.172,1.055,2.869,2.869,0,0,1-2.395-1.176A5.258,5.258,0,0,1,214.945,12.711Zm2.258.164a3.328,3.328,0,0,0,.414,1.82,1.349,1.349,0,0,0,1.2.633,1.511,1.511,0,0,0,1.477-.883V11.109a1.489,1.489,0,0,0-1.461-.883Q217.2,10.227,217.2,12.875Z" transform="translate(690 2623)" fill="#12263f"/>
    <path id="path3089" d="M116.653-487.474H73.386V-520h43.266Z" transform="translate(707.539 3378.131)" fill="#465a61"/>
    <g id="g3091" transform="translate(775 2845)">
      <g id="g3093" clip-path="url(#clip-path)">
        <g id="g3099" transform="translate(2.547 38.708)">
          <path id="path3101" d="M-554.659-177.628h-47.406a1.308,1.308,0,0,1-1.308-1.308v-12.984a1.308,1.308,0,0,1,1.308-1.308h47.406a1.308,1.308,0,0,1,1.308,1.308v12.984a1.308,1.308,0,0,1-1.308,1.308" transform="translate(603.373 193.229)" fill="#7a8d98"/>
        </g>
        <g id="g3103" transform="translate(5.925 44.194)">
          <path id="path3105" d="M-277.711-52.717h-22.076a2.315,2.315,0,0,1-2.315-2.315,2.315,2.315,0,0,1,2.315-2.315h22.076a2.315,2.315,0,0,1,2.315,2.315,2.315,2.315,0,0,1-2.315,2.315" transform="translate(302.102 57.347)" fill="#9facba"/>
        </g>
        <g id="g3107" transform="translate(38.384 42.583)">
          <path id="path3109" d="M-20.56-89.388h0a1.806,1.806,0,0,1-1.806-1.806v-4.239a1.806,1.806,0,0,1,1.806-1.806,1.806,1.806,0,0,1,1.806,1.806v4.239a1.806,1.806,0,0,1-1.806,1.806" transform="translate(22.365 97.238)" fill="#ffd15c"/>
        </g>
        <g id="g3111" transform="translate(2.547 19.832)">
          <path id="path3113" d="M-554.659-177.628h-47.406a1.308,1.308,0,0,1-1.308-1.308v-12.984a1.308,1.308,0,0,1,1.308-1.308h47.406a1.308,1.308,0,0,1,1.308,1.308v12.984a1.308,1.308,0,0,1-1.308,1.308" transform="translate(603.373 193.229)" fill="#7a8d98"/>
        </g>
        <g id="g3115" transform="translate(5.925 25.317)">
          <path id="path3117" d="M-277.711-52.717h-22.076a2.315,2.315,0,0,1-2.315-2.315,2.315,2.315,0,0,1,2.315-2.315h22.076a2.315,2.315,0,0,1,2.315,2.315,2.315,2.315,0,0,1-2.315,2.315" transform="translate(302.102 57.347)" fill="#9facba"/>
        </g>
        <g id="g3119" transform="translate(38.384 23.707)">
          <path id="path3121" d="M-20.56-89.388h0a1.806,1.806,0,0,1-1.806-1.806v-4.239a1.806,1.806,0,0,1,1.806-1.806,1.806,1.806,0,0,1,1.806,1.806v4.239a1.806,1.806,0,0,1-1.806,1.806" transform="translate(22.365 97.238)" fill="#60b8fe"/>
        </g>
        <g id="g3123" transform="translate(2.547 0.807)">
          <path id="path3125" d="M-554.659-177.628h-47.406a1.308,1.308,0,0,1-1.308-1.308v-12.984a1.308,1.308,0,0,1,1.308-1.308h47.406a1.308,1.308,0,0,1,1.308,1.308v12.984a1.308,1.308,0,0,1-1.308,1.308" transform="translate(603.373 193.229)" fill="#7a8d98"/>
        </g>
        <g id="g3127" transform="translate(5.925 6.293)">
          <path id="path3129" d="M-277.711-52.717h-22.076a2.315,2.315,0,0,1-2.315-2.315,2.315,2.315,0,0,1,2.315-2.315h22.076a2.315,2.315,0,0,1,2.315,2.315,2.315,2.315,0,0,1-2.315,2.315" transform="translate(302.102 57.347)" fill="#9facba"/>
        </g>
        <g id="g3131" transform="translate(38.384 4.682)">
          <path id="path3133" d="M-20.56-89.388h0a1.806,1.806,0,0,1-1.806-1.806v-4.239a1.806,1.806,0,0,1,1.806-1.806,1.806,1.806,0,0,1,1.806,1.806v4.239a1.806,1.806,0,0,1-1.806,1.806" transform="translate(22.365 97.238)" fill="#60b8fe"/>
        </g>
        <g id="g3135" transform="translate(47.114 38.708)">
          <path id="path3137" d="M-47.216,0h-4.147a1.308,1.308,0,0,1,1.308,1.308V14.292A1.308,1.308,0,0,1-51.363,15.6h4.147a1.308,1.308,0,0,0,1.308-1.308V1.308A1.308,1.308,0,0,0-47.216,0" transform="translate(51.363)" fill="#596c76"/>
        </g>
        <g id="g3139" transform="translate(47.114 19.832)">
          <path id="path3141" d="M-47.216,0h-4.147a1.308,1.308,0,0,1,1.308,1.308V14.292A1.308,1.308,0,0,1-51.363,15.6h4.147a1.308,1.308,0,0,0,1.308-1.308V1.308A1.308,1.308,0,0,0-47.216,0" transform="translate(51.363)" fill="#596c76"/>
        </g>
        <g id="g3143" transform="translate(47.114 0.807)">
          <path id="path3145" d="M-47.216,0h-4.147a1.308,1.308,0,0,1,1.308,1.308V14.292A1.308,1.308,0,0,1-51.363,15.6h4.147a1.308,1.308,0,0,0,1.308-1.308V1.308A1.308,1.308,0,0,0-47.216,0" transform="translate(51.363)" fill="#596c76"/>
        </g>
        <g id="g3147" transform="translate(45.58 4.682)">
          <path id="path3149" d="M-20.558,0h0c-.037,0-.074,0-.111.006a1.8,1.8,0,0,0-1.695,1.8V6.045a1.8,1.8,0,0,0,1.695,1.8c.037,0,.074.006.111.006a1.806,1.806,0,0,0,1.806-1.806V1.806A1.806,1.806,0,0,0-20.558,0" transform="translate(22.364)" fill="#ffd15c"/>
        </g>
        <g id="g3151" transform="translate(48.423 5.011)">
          <path id="path3153" d="M0,0V7.193A1.8,1.8,0,0,0,.769,5.716V1.477A1.8,1.8,0,0,0,0,0" fill="#ffc344"/>
        </g>
        <g id="g3155" transform="translate(45.58 23.707)">
          <path id="path3157" d="M-20.558,0h0c-.037,0-.074,0-.111.006a1.8,1.8,0,0,0-1.695,1.8V6.045a1.8,1.8,0,0,0,1.695,1.8c.037,0,.074.006.111.006a1.806,1.806,0,0,0,1.806-1.806V1.806A1.806,1.806,0,0,0-20.558,0" transform="translate(22.364)" fill="#fe646f"/>
        </g>
        <g id="g3159" transform="translate(48.423 24.036)">
          <path id="path3161" d="M0,0V7.193A1.8,1.8,0,0,0,.769,5.716V1.477A1.8,1.8,0,0,0,0,0" fill="#fd4755"/>
        </g>
        <g id="g3163" transform="translate(45.58 42.583)">
          <path id="path3165" d="M-20.558,0c-.037,0-.074,0-.111.006a1.8,1.8,0,0,0-1.695,1.8V6.045a1.8,1.8,0,0,0,1.695,1.8c.037,0,.074.006.111.006a1.806,1.806,0,0,0,1.806-1.806V1.806A1.806,1.806,0,0,0-20.558,0" transform="translate(22.364)" fill="#60b8fe"/>
        </g>
        <g id="g3167" transform="translate(48.423 42.912)">
          <path id="path3169" d="M0,0V7.193A1.8,1.8,0,0,0,.769,5.716V1.477A1.8,1.8,0,0,0,0,0" fill="#27a5fe"/>
        </g>
        <g id="g3171" transform="translate(2.547 38.708)">
          <path id="path3173" d="M-14.9-177.628H32.509a1.308,1.308,0,0,0,1.308-1.308v-12.984a1.308,1.308,0,0,0-1.308-1.308H-14.9a1.308,1.308,0,0,0-1.308,1.308v12.984A1.308,1.308,0,0,0-14.9-177.628Z" transform="translate(16.205 193.229)" fill="none" stroke="#000" stroke-linecap="round" stroke-linejoin="round" stroke-miterlimit="10" stroke-width="2" stroke-dasharray="503 35 288 0"/>
        </g>
        <g id="g3175" transform="translate(5.925 44.194)">
          <path id="path3177" d="M-277.711-52.717h-22.076a2.315,2.315,0,0,1-2.315-2.315,2.315,2.315,0,0,1,2.315-2.315h22.076a2.315,2.315,0,0,1,2.315,2.315A2.315,2.315,0,0,1-277.711-52.717Z" transform="translate(302.102 57.347)" fill="none" stroke="#000" stroke-linecap="round" stroke-linejoin="round" stroke-miterlimit="10" stroke-width="2"/>
        </g>
        <g id="g3179" transform="translate(38.384 42.583)">
          <path id="path3181" d="M-20.56-89.388h0a1.806,1.806,0,0,1-1.806-1.806v-4.239a1.806,1.806,0,0,1,1.806-1.806,1.806,1.806,0,0,1,1.806,1.806v4.239A1.806,1.806,0,0,1-20.56-89.388Z" transform="translate(22.365 97.238)" fill="none" stroke="#000" stroke-linecap="round" stroke-linejoin="round" stroke-miterlimit="10" stroke-width="2"/>
        </g>
        <g id="g3183" transform="translate(45.58 42.583)">
          <path id="path3185" d="M-20.558-89.388h0a1.806,1.806,0,0,1-1.806-1.806v-4.239a1.806,1.806,0,0,1,1.806-1.806,1.806,1.806,0,0,1,1.806,1.806v4.239A1.806,1.806,0,0,1-20.558-89.388Z" transform="translate(22.364 97.238)" fill="none" stroke="#000" stroke-linecap="round" stroke-linejoin="round" stroke-miterlimit="10" stroke-width="2"/>
        </g>
        <g id="g3187" transform="translate(2.547 19.832)">
          <path id="path3189" d="M-554.659-177.628h-47.406a1.308,1.308,0,0,1-1.308-1.308v-12.984a1.308,1.308,0,0,1,1.308-1.308h47.406a1.308,1.308,0,0,1,1.308,1.308v12.984A1.308,1.308,0,0,1-554.659-177.628Z" transform="translate(603.373 193.229)" fill="none" stroke="#000" stroke-linecap="round" stroke-linejoin="round" stroke-miterlimit="10" stroke-width="2"/>
        </g>
        <g id="g3191" transform="translate(5.925 25.317)">
          <path id="path3193" d="M-277.711-52.717h-22.076a2.315,2.315,0,0,1-2.315-2.315,2.315,2.315,0,0,1,2.315-2.315h22.076a2.315,2.315,0,0,1,2.315,2.315A2.315,2.315,0,0,1-277.711-52.717Z" transform="translate(302.102 57.347)" fill="none" stroke="#000" stroke-linecap="round" stroke-linejoin="round" stroke-miterlimit="10" stroke-width="2"/>
        </g>
        <g id="g3195" transform="translate(38.384 23.707)">
          <path id="path3197" d="M-20.56-89.388h0a1.806,1.806,0,0,1-1.806-1.806v-4.239a1.806,1.806,0,0,1,1.806-1.806,1.806,1.806,0,0,1,1.806,1.806v4.239A1.806,1.806,0,0,1-20.56-89.388Z" transform="translate(22.365 97.238)" fill="none" stroke="#000" stroke-linecap="round" stroke-linejoin="round" stroke-miterlimit="10" stroke-width="2"/>
        </g>
        <g id="g3199" transform="translate(45.58 23.707)">
          <path id="path3201" d="M-20.558-89.388h0a1.806,1.806,0,0,1-1.806-1.806v-4.239a1.806,1.806,0,0,1,1.806-1.806,1.806,1.806,0,0,1,1.806,1.806v4.239A1.806,1.806,0,0,1-20.558-89.388Z" transform="translate(22.364 97.238)" fill="none" stroke="#000" stroke-linecap="round" stroke-linejoin="round" stroke-miterlimit="10" stroke-width="2"/>
        </g>
        <g id="g3203" transform="translate(2.547 0.807)">
          <path id="path3205" d="M-554.659-177.628h-47.406a1.308,1.308,0,0,1-1.308-1.308v-12.984a1.308,1.308,0,0,1,1.308-1.308h47.406a1.308,1.308,0,0,1,1.308,1.308v12.984A1.308,1.308,0,0,1-554.659-177.628Z" transform="translate(603.373 193.229)" fill="none" stroke="#000" stroke-linecap="round" stroke-linejoin="round" stroke-miterlimit="10" stroke-width="2" stroke-dasharray="511 35 288 0"/>
        </g>
        <g id="g3207" transform="translate(5.925 6.293)">
          <path id="path3209" d="M-277.711-52.717h-22.076a2.315,2.315,0,0,1-2.315-2.315,2.315,2.315,0,0,1,2.315-2.315h22.076a2.315,2.315,0,0,1,2.315,2.315A2.315,2.315,0,0,1-277.711-52.717Z" transform="translate(302.102 57.347)" fill="none" stroke="#000" stroke-linecap="round" stroke-linejoin="round" stroke-miterlimit="10" stroke-width="2"/>
        </g>
        <g id="g3211" transform="translate(38.384 4.682)">
          <path id="path3213" d="M-20.56-89.388h0a1.806,1.806,0,0,1-1.806-1.806v-4.239a1.806,1.806,0,0,1,1.806-1.806,1.806,1.806,0,0,1,1.806,1.806v4.239A1.806,1.806,0,0,1-20.56-89.388Z" transform="translate(22.365 97.238)" fill="none" stroke="#000" stroke-linecap="round" stroke-linejoin="round" stroke-miterlimit="10" stroke-width="2"/>
        </g>
        <g id="g3215" transform="translate(45.58 4.682)">
          <path id="path3217" d="M-20.558-89.388h0a1.806,1.806,0,0,1-1.806-1.806v-4.239a1.806,1.806,0,0,1,1.806-1.806,1.806,1.806,0,0,1,1.806,1.806v4.239A1.806,1.806,0,0,1-20.558-89.388Z" transform="translate(22.364 97.238)" fill="none" stroke="#000" stroke-linecap="round" stroke-linejoin="round" stroke-miterlimit="10" stroke-width="2"/>
        </g>
        <path id="path3219" d="M116.653-479.436H73.386v3.424h43.266Z" transform="translate(-67.461 495.844)" fill="none" stroke="#000" stroke-linecap="round" stroke-linejoin="round" stroke-miterlimit="10" stroke-width="2"/>
        <path id="path3221" d="M73.386-240.526h43.266V-243.8H73.386Z" transform="translate(-67.461 279.234)" fill="none" stroke="#000" stroke-linecap="round" stroke-linejoin="round" stroke-miterlimit="10" stroke-width="2"/>
      </g>
    </g>
    <path id="Trazado_804613" data-name="Trazado 804613" d="M60,0A60,60,0,1,1,0,60,60,60,0,0,1,60,0Z" transform="translate(743 2651)" fill="#eff3ff"/>
    <g id="Page-1" transform="translate(773 2681)">
      <g id="_016---PC-and-Monitor" data-name="016---PC-and-Monitor">
        <path id="Shape" d="M45,19V44H1V19a4,4,0,0,1,4-4H41A4,4,0,0,1,45,19Z" fill="#02a9f4"/>
        <path id="Shape-2" data-name="Shape" d="M45,19V44H1V39.32C28.48,41.68,35.69,22.57,37.46,15H41A4,4,0,0,1,45,19Z" fill="#0377bc"/>
        <path id="Shape-3" data-name="Shape" d="M45,44v1a4,4,0,0,1-4,4H5a4,4,0,0,1-4-4V44Z" fill="#607d8b"/>
        <path id="Shape-4" data-name="Shape" d="M42,44v1a4,4,0,0,1-4,4h3a4,4,0,0,0,4-4V44Z" fill="#37474f"/>
        <path id="Rectangle-path" d="M17,49H29v6H17Z" fill="#607d8b"/>
        <path id="Rectangle-path-2" data-name="Rectangle-path" d="M26,49h3v6H26Z" fill="#37474f"/>
        <path id="Shape-5" data-name="Shape" d="M35,57a2,2,0,0,1-2,2H13a2,2,0,0,1,0-4H33A2,2,0,0,1,35,57Z" fill="#607d8b"/>
        <path id="Shape-6" data-name="Shape" d="M33,55H30a2,2,0,0,1,0,4h3a2,2,0,0,0,0-4Z" fill="#37474f"/>
        <path id="Shape-7" data-name="Shape" d="M5,24a1,1,0,0,1-.71-1.71l4-4a1,1,0,1,1,1.42,1.42l-4,4A1,1,0,0,1,5,24Z" fill="#f5f5f5"/>
        <path id="Shape-8" data-name="Shape" d="M5,30a1,1,0,0,1-.71-1.71l10-10a1,1,0,1,1,1.42,1.42l-10,10A1,1,0,0,1,5,30Z" fill="#f5f5f5"/>
        <path id="Shape-9" data-name="Shape" d="M59,3V57a2,2,0,0,1-2,2H33a2,2,0,0,0,0-4H29V49H41a4,4,0,0,0,4-4V19a4,4,0,0,0-4-4H29V3a2,2,0,0,1,2-2H57A2,2,0,0,1,59,3Z" fill="#3f51b5"/>
        <path id="Shape-10" data-name="Shape" d="M57,1H54a2,2,0,0,1,2,2V57a2,2,0,0,1-2,2h3a2,2,0,0,0,2-2V3A2,2,0,0,0,57,1Z" fill="#283593"/>
        <rect id="Rectangle-path-3" data-name="Rectangle-path" width="22" height="4" rx="1" transform="translate(33 6)" fill="#283593"/>
        <circle id="Oval" cx="2" cy="2" r="2" transform="translate(50 15)" fill="#ffeb3a"/>
        <circle id="Oval-2" data-name="Oval" cx="2" cy="2" r="2" transform="translate(50 23)" fill="#ffeb3a"/>
        <g id="Grupo_1067903" data-name="Grupo 1067903">
          <path id="Shape-11" data-name="Shape" d="M57,0H31a3,3,0,0,0-3,3V14H5a5,5,0,0,0-5,5V45a5,5,0,0,0,5,5H16v4H13a3,3,0,0,0,0,6H57a3,3,0,0,0,3-3V3A3,3,0,0,0,57,0ZM5,16H41a3,3,0,0,1,3,3V43H2V19A3,3,0,0,1,5,16ZM2,45H44a3,3,0,0,1-3,3H5A3,3,0,0,1,2,45Zm16,5H28v4H18Zm13,8H13a1,1,0,0,1,0-2H33a1,1,0,0,1,0,2Zm27-1a1,1,0,0,1-1,1H35.82A3,3,0,0,0,33,54H30V50H41a5,5,0,0,0,5-5V19a5,5,0,0,0-5-5H30V3a1,1,0,0,1,1-1H57a1,1,0,0,1,1,1Z"/>
          <path id="Shape-12" data-name="Shape" d="M54,5H34a2,2,0,0,0-2,2V9a2,2,0,0,0,2,2H54a2,2,0,0,0,2-2V7A2,2,0,0,0,54,5ZM34,9V7H54V9Z"/>
          <path id="Shape-13" data-name="Shape" d="M52,20a3,3,0,1,0-3-3A3,3,0,0,0,52,20Zm0-4a1,1,0,1,1-1,1A1,1,0,0,1,52,16Z"/>
          <path id="Shape-14" data-name="Shape" d="M55,25a3,3,0,1,0-3,3A3,3,0,0,0,55,25Zm-3,1a1,1,0,1,1,1-1A1,1,0,0,1,52,26Z"/>
          <path id="Shape-15" data-name="Shape" d="M39,52a1,1,0,0,0-1,1v2a1,1,0,0,0,2,0V53A1,1,0,0,0,39,52Z"/>
          <path id="Shape-16" data-name="Shape" d="M43,52a1,1,0,0,0-1,1v2a1,1,0,0,0,2,0V53A1,1,0,0,0,43,52Z"/>
          <path id="Shape-17" data-name="Shape" d="M47,52a1,1,0,0,0-1,1v2a1,1,0,0,0,2,0V53A1,1,0,0,0,47,52Z"/>
          <path id="Shape-18" data-name="Shape" d="M51,52a1,1,0,0,0-1,1v2a1,1,0,0,0,2,0V53A1,1,0,0,0,51,52Z"/>
          <path id="Shape-19" data-name="Shape" d="M55,52a1,1,0,0,0-1,1v2a1,1,0,0,0,2,0V53A1,1,0,0,0,55,52Z"/>
        </g>
      </g>
    </g>
    <path id="Trazado_804614" data-name="Trazado 804614" d="M3.508,17H1.164V5.625H3.508Zm4.1-8.453.07.977a2.951,2.951,0,0,1,2.43-1.133,2.453,2.453,0,0,1,2,.789,3.682,3.682,0,0,1,.672,2.359V17H10.523V11.594a1.465,1.465,0,0,0-.312-1.043,1.4,1.4,0,0,0-1.039-.324,1.553,1.553,0,0,0-1.43.813V17H5.484V8.547ZM17.2,6.469V8.547h1.445V10.2H17.2v4.219a1.007,1.007,0,0,0,.18.672.9.9,0,0,0,.688.2,3.6,3.6,0,0,0,.664-.055v1.711a4.648,4.648,0,0,1-1.367.2,2.156,2.156,0,0,1-2.422-2.4V10.2H13.7V8.547h1.234V6.469Zm6.594,10.688a4.15,4.15,0,0,1-3.027-1.141,4.054,4.054,0,0,1-1.168-3.039v-.219a5.106,5.106,0,0,1,.492-2.277A3.612,3.612,0,0,1,21.48,8.934a3.914,3.914,0,0,1,2.059-.543,3.508,3.508,0,0,1,2.73,1.094,4.444,4.444,0,0,1,1,3.1v.922H21.883a2.1,2.1,0,0,0,.66,1.328,2,2,0,0,0,1.395.5,2.437,2.437,0,0,0,2.039-.945l1.109,1.242a3.389,3.389,0,0,1-1.375,1.121A4.511,4.511,0,0,1,23.789,17.156Zm-.258-6.937a1.414,1.414,0,0,0-1.09.453,2.341,2.341,0,0,0-.535,1.3h3.141v-.18a1.669,1.669,0,0,0-.406-1.16A1.459,1.459,0,0,0,23.531,10.219Zm9.766.445a6.134,6.134,0,0,0-.812-.062,1.654,1.654,0,0,0-1.68.867V17H28.547V8.547H30.68l.063,1.008a2.092,2.092,0,0,1,1.883-1.164,2.366,2.366,0,0,1,.7.1ZM35.156,17V10.2H33.9V8.547h1.258V7.828a2.918,2.918,0,0,1,.816-2.207,3.162,3.162,0,0,1,2.285-.785,5.278,5.278,0,0,1,1.148.156l-.023,1.75a2.878,2.878,0,0,0-.687-.07q-1.273,0-1.273,1.2v.68H39.1V10.2h-1.68V17Zm10.016,0a2.507,2.507,0,0,1-.227-.758,2.732,2.732,0,0,1-2.133.914,3,3,0,0,1-2.059-.719,2.312,2.312,0,0,1-.816-1.812,2.389,2.389,0,0,1,1-2.062,4.915,4.915,0,0,1,2.879-.727h1.039v-.484a1.393,1.393,0,0,0-.3-.937,1.183,1.183,0,0,0-.949-.352,1.345,1.345,0,0,0-.895.273.929.929,0,0,0-.324.75H40.125a2.268,2.268,0,0,1,.453-1.359,3,3,0,0,1,1.281-.98,4.669,4.669,0,0,1,1.859-.355,3.689,3.689,0,0,1,2.48.785,2.747,2.747,0,0,1,.918,2.207v3.664a4.041,4.041,0,0,0,.336,1.82V17ZM43.3,15.43a1.945,1.945,0,0,0,.922-.223,1.462,1.462,0,0,0,.625-.6V13.156h-.844q-1.7,0-1.8,1.172l-.008.133a.9.9,0,0,0,.3.7A1.153,1.153,0,0,0,43.3,15.43Zm8.141-.25h4.133V17H48.563V15.625l3.977-5.25H48.68V8.547h6.773V9.883Z" transform="translate(775 2799)" fill="#12263f"/>
    <path id="Trazado_804615" data-name="Trazado 804615" d="M12.684,11.57a6.867,6.867,0,0,1-.594,2.945,4.472,4.472,0,0,1-1.7,1.953,4.7,4.7,0,0,1-2.535.688,4.732,4.732,0,0,1-2.523-.68,4.515,4.515,0,0,1-1.719-1.941A6.67,6.67,0,0,1,3,11.633V11.07A6.831,6.831,0,0,1,3.6,8.113,4.508,4.508,0,0,1,5.313,6.152,4.706,4.706,0,0,1,7.84,5.469a4.706,4.706,0,0,1,2.527.684,4.508,4.508,0,0,1,1.711,1.961,6.811,6.811,0,0,1,.605,2.949Zm-2.375-.516a4.787,4.787,0,0,0-.641-2.719,2.088,2.088,0,0,0-1.828-.93,2.088,2.088,0,0,0-1.82.918,4.732,4.732,0,0,0-.648,2.691v.555a4.847,4.847,0,0,0,.641,2.7,2.082,2.082,0,0,0,1.844.961,2.064,2.064,0,0,0,1.813-.926,4.819,4.819,0,0,0,.641-2.7Zm11.539,1.8a5.07,5.07,0,0,1-.887,3.129,2.843,2.843,0,0,1-2.395,1.176,2.633,2.633,0,0,1-2.07-.891V20.25H14.238V8.547h2.094l.078.828a2.654,2.654,0,0,1,2.141-.984,2.862,2.862,0,0,1,2.43,1.156,5.207,5.207,0,0,1,.867,3.188Zm-2.258-.164a3.327,3.327,0,0,0-.418-1.82,1.361,1.361,0,0,0-1.215-.641,1.478,1.478,0,0,0-1.461.813V14.5a1.5,1.5,0,0,0,1.477.836Q19.59,15.336,19.59,12.688Zm7.547,4.469a4.15,4.15,0,0,1-3.027-1.141,4.054,4.054,0,0,1-1.168-3.039v-.219a5.106,5.106,0,0,1,.492-2.277,3.612,3.612,0,0,1,1.395-1.547,3.914,3.914,0,0,1,2.059-.543,3.508,3.508,0,0,1,2.73,1.094,4.444,4.444,0,0,1,1,3.1v.922H25.23a2.1,2.1,0,0,0,.66,1.328,2,2,0,0,0,1.395.5,2.437,2.437,0,0,0,2.039-.945l1.109,1.242a3.389,3.389,0,0,1-1.375,1.121A4.511,4.511,0,0,1,27.137,17.156Zm-.258-6.937a1.414,1.414,0,0,0-1.09.453,2.341,2.341,0,0,0-.535,1.3h3.141v-.18a1.669,1.669,0,0,0-.406-1.16A1.459,1.459,0,0,0,26.879,10.219Zm9.766.445a6.134,6.134,0,0,0-.812-.062,1.654,1.654,0,0,0-1.68.867V17H31.895V8.547h2.133l.063,1.008a2.092,2.092,0,0,1,1.883-1.164,2.366,2.366,0,0,1,.7.1ZM42.395,17a2.507,2.507,0,0,1-.227-.758,2.732,2.732,0,0,1-2.133.914,3,3,0,0,1-2.059-.719,2.312,2.312,0,0,1-.816-1.812,2.389,2.389,0,0,1,1-2.062,4.915,4.915,0,0,1,2.879-.727h1.039v-.484a1.393,1.393,0,0,0-.3-.937,1.183,1.183,0,0,0-.949-.352,1.345,1.345,0,0,0-.895.273.929.929,0,0,0-.324.75H37.348A2.268,2.268,0,0,1,37.8,9.727a3,3,0,0,1,1.281-.98,4.669,4.669,0,0,1,1.859-.355,3.689,3.689,0,0,1,2.48.785,2.747,2.747,0,0,1,.918,2.207v3.664a4.041,4.041,0,0,0,.336,1.82V17Zm-1.867-1.57a1.945,1.945,0,0,0,.922-.223,1.462,1.462,0,0,0,.625-.6V13.156H41.23q-1.7,0-1.8,1.172l-.008.133a.9.9,0,0,0,.3.7A1.153,1.153,0,0,0,40.527,15.43Zm9.063-.094a1.481,1.481,0,0,0,1.016-.344,1.2,1.2,0,0,0,.406-.914h2.117a2.9,2.9,0,0,1-.469,1.574A3.093,3.093,0,0,1,51.4,16.762a3.949,3.949,0,0,1-1.77.395A3.67,3.67,0,0,1,46.77,16a4.56,4.56,0,0,1-1.047-3.184v-.148a4.508,4.508,0,0,1,1.039-3.117,3.627,3.627,0,0,1,2.852-1.164,3.555,3.555,0,0,1,2.543.9,3.2,3.2,0,0,1,.973,2.4H51.012a1.539,1.539,0,0,0-.406-1.066,1.513,1.513,0,0,0-2.223.164,3.324,3.324,0,0,0-.4,1.863v.234a3.366,3.366,0,0,0,.4,1.875A1.378,1.378,0,0,0,49.59,15.336ZM56.8,17H54.535V8.547H56.8ZM54.4,6.359a1.112,1.112,0,0,1,.34-.836,1.465,1.465,0,0,1,1.848,0,1.105,1.105,0,0,1,.344.836,1.108,1.108,0,0,1-.348.844,1.448,1.448,0,0,1-1.836,0A1.108,1.108,0,0,1,54.4,6.359ZM58.309,12.7a5.013,5.013,0,0,1,.484-2.242A3.546,3.546,0,0,1,60.188,8.93,4.069,4.069,0,0,1,62.3,8.391a3.849,3.849,0,0,1,2.793,1.047A4.2,4.2,0,0,1,66.3,12.281l.016.578A4.418,4.418,0,0,1,65.23,15.98a4.209,4.209,0,0,1-5.832,0,4.5,4.5,0,0,1-1.09-3.187Zm2.258.164a3.151,3.151,0,0,0,.453,1.84,1.629,1.629,0,0,0,2.578.008,3.448,3.448,0,0,0,.461-2.012,3.12,3.12,0,0,0-.461-1.828,1.5,1.5,0,0,0-1.3-.648,1.475,1.475,0,0,0-1.281.645A3.506,3.506,0,0,0,60.566,12.859Zm9.219-4.312.07.977a2.951,2.951,0,0,1,2.43-1.133,2.453,2.453,0,0,1,2,.789,3.682,3.682,0,0,1,.672,2.359V17H72.7V11.594a1.465,1.465,0,0,0-.312-1.043,1.4,1.4,0,0,0-1.039-.324,1.553,1.553,0,0,0-1.43.813V17H67.66V8.547Zm10.773,8.609a4.15,4.15,0,0,1-3.027-1.141,4.054,4.054,0,0,1-1.168-3.039v-.219a5.106,5.106,0,0,1,.492-2.277A3.612,3.612,0,0,1,78.25,8.934a3.914,3.914,0,0,1,2.059-.543,3.508,3.508,0,0,1,2.73,1.094,4.444,4.444,0,0,1,1,3.1v.922H78.652a2.1,2.1,0,0,0,.66,1.328,2,2,0,0,0,1.395.5,2.437,2.437,0,0,0,2.039-.945l1.109,1.242a3.389,3.389,0,0,1-1.375,1.121A4.511,4.511,0,0,1,80.559,17.156ZM80.3,10.219a1.414,1.414,0,0,0-1.09.453,2.341,2.341,0,0,0-.535,1.3h3.141v-.18a1.669,1.669,0,0,0-.406-1.16A1.459,1.459,0,0,0,80.3,10.219Zm9.594,4.445a.727.727,0,0,0-.41-.652,4.659,4.659,0,0,0-1.316-.426q-3.016-.633-3.016-2.562a2.323,2.323,0,0,1,.934-1.879,3.766,3.766,0,0,1,2.441-.754,4.053,4.053,0,0,1,2.574.758,2.388,2.388,0,0,1,.965,1.969H89.809a1.092,1.092,0,0,0-.312-.8A1.322,1.322,0,0,0,88.52,10a1.351,1.351,0,0,0-.883.258.814.814,0,0,0-.312.656.7.7,0,0,0,.355.605,3.657,3.657,0,0,0,1.2.4A9.8,9.8,0,0,1,90.3,12.3,2.336,2.336,0,0,1,92.09,14.57a2.2,2.2,0,0,1-.992,1.871,4.28,4.28,0,0,1-2.562.715,4.47,4.47,0,0,1-1.887-.379,3.166,3.166,0,0,1-1.293-1.039,2.414,2.414,0,0,1-.469-1.426h2.141a1.179,1.179,0,0,0,.445.922,1.766,1.766,0,0,0,1.109.32,1.635,1.635,0,0,0,.98-.246A.766.766,0,0,0,89.895,14.664ZM10.359,30.711a5.094,5.094,0,0,1,.887-3.148,2.877,2.877,0,0,1,2.426-1.172,2.589,2.589,0,0,1,2.039.922V23h2.266V35H15.938l-.109-.9a2.657,2.657,0,0,1-2.172,1.055,2.869,2.869,0,0,1-2.395-1.176A5.258,5.258,0,0,1,10.359,30.711Zm2.258.164a3.328,3.328,0,0,0,.414,1.82,1.349,1.349,0,0,0,1.2.633,1.511,1.511,0,0,0,1.477-.883V29.109a1.489,1.489,0,0,0-1.461-.883Q12.617,28.227,12.617,30.875Zm11,4.281a4.15,4.15,0,0,1-3.027-1.141,4.054,4.054,0,0,1-1.168-3.039v-.219a5.106,5.106,0,0,1,.492-2.277,3.612,3.612,0,0,1,1.395-1.547,3.914,3.914,0,0,1,2.059-.543,3.508,3.508,0,0,1,2.73,1.094,4.444,4.444,0,0,1,1,3.1v.922H21.711a2.1,2.1,0,0,0,.66,1.328,2,2,0,0,0,1.395.5,2.437,2.437,0,0,0,2.039-.945l1.109,1.242a3.389,3.389,0,0,1-1.375,1.121A4.511,4.511,0,0,1,23.617,35.156Zm-.258-6.937a1.414,1.414,0,0,0-1.09.453,2.341,2.341,0,0,0-.535,1.3h3.141v-.18a1.669,1.669,0,0,0-.406-1.16A1.459,1.459,0,0,0,23.359,28.219Zm8.672,2.492a4.954,4.954,0,0,1,.926-3.133,3,3,0,0,1,2.5-1.187,2.631,2.631,0,0,1,2.164.953l.094-.8h2.047v8.172a3.613,3.613,0,0,1-.5,1.93,3.236,3.236,0,0,1-1.418,1.25,4.985,4.985,0,0,1-2.141.43,4.635,4.635,0,0,1-1.812-.371A3.217,3.217,0,0,1,32.547,37l1-1.375a2.645,2.645,0,0,0,2.047.945,1.936,1.936,0,0,0,1.4-.48,1.8,1.8,0,0,0,.5-1.363v-.453a2.612,2.612,0,0,1-2.055.883,2.992,2.992,0,0,1-2.465-1.191,4.953,4.953,0,0,1-.941-3.16Zm2.258.164a3.076,3.076,0,0,0,.461,1.8,1.467,1.467,0,0,0,1.266.652,1.568,1.568,0,0,0,1.477-.773V29a1.565,1.565,0,0,0-1.461-.773,1.476,1.476,0,0,0-1.277.664A3.467,3.467,0,0,0,34.289,30.875Zm11.094,4.281a4.15,4.15,0,0,1-3.027-1.141,4.054,4.054,0,0,1-1.168-3.039v-.219a5.106,5.106,0,0,1,.492-2.277,3.612,3.612,0,0,1,1.395-1.547,3.914,3.914,0,0,1,2.059-.543,3.508,3.508,0,0,1,2.73,1.094,4.444,4.444,0,0,1,1,3.1v.922H43.477a2.1,2.1,0,0,0,.66,1.328,2,2,0,0,0,1.395.5,2.437,2.437,0,0,0,2.039-.945l1.109,1.242A3.389,3.389,0,0,1,47.3,34.754,4.511,4.511,0,0,1,45.383,35.156Zm-.258-6.937a1.414,1.414,0,0,0-1.09.453,2.341,2.341,0,0,0-.535,1.3h3.141v-.18a1.669,1.669,0,0,0-.406-1.16A1.459,1.459,0,0,0,45.125,28.219Zm9.594,4.445a.727.727,0,0,0-.41-.652,4.659,4.659,0,0,0-1.316-.426q-3.016-.633-3.016-2.562a2.323,2.323,0,0,1,.934-1.879,3.766,3.766,0,0,1,2.441-.754,4.053,4.053,0,0,1,2.574.758,2.388,2.388,0,0,1,.965,1.969H54.633a1.092,1.092,0,0,0-.312-.8A1.322,1.322,0,0,0,53.344,28a1.351,1.351,0,0,0-.883.258.814.814,0,0,0-.312.656.7.7,0,0,0,.355.605,3.657,3.657,0,0,0,1.2.4,9.8,9.8,0,0,1,1.422.379,2.336,2.336,0,0,1,1.789,2.273,2.205,2.205,0,0,1-.992,1.871,4.28,4.28,0,0,1-2.562.715,4.47,4.47,0,0,1-1.887-.379,3.166,3.166,0,0,1-1.293-1.039,2.414,2.414,0,0,1-.469-1.426h2.141a1.179,1.179,0,0,0,.445.922,1.766,1.766,0,0,0,1.109.32,1.635,1.635,0,0,0,.98-.246A.766.766,0,0,0,54.719,32.664Zm6.352-8.2v2.078h1.445V28.2H61.07v4.219a1.007,1.007,0,0,0,.18.672.9.9,0,0,0,.688.2,3.6,3.6,0,0,0,.664-.055v1.711a4.648,4.648,0,0,1-1.367.2,2.156,2.156,0,0,1-2.422-2.4V28.2H57.578V26.547h1.234V24.469ZM66.156,35H63.891V26.547h2.266Zm-2.4-10.641a1.112,1.112,0,0,1,.34-.836,1.465,1.465,0,0,1,1.848,0,1.193,1.193,0,0,1,0,1.68,1.448,1.448,0,0,1-1.836,0A1.108,1.108,0,0,1,63.758,24.359ZM67.664,30.7a5.013,5.013,0,0,1,.484-2.242,3.546,3.546,0,0,1,1.395-1.523,4.069,4.069,0,0,1,2.113-.539,3.849,3.849,0,0,1,2.793,1.047,4.2,4.2,0,0,1,1.207,2.844l.016.578a4.418,4.418,0,0,1-1.086,3.121,4.209,4.209,0,0,1-5.832,0,4.5,4.5,0,0,1-1.09-3.187Zm2.258.164a3.151,3.151,0,0,0,.453,1.84,1.629,1.629,0,0,0,2.578.008,3.448,3.448,0,0,0,.461-2.012,3.12,3.12,0,0,0-.461-1.828,1.5,1.5,0,0,0-1.3-.648,1.475,1.475,0,0,0-1.281.645A3.506,3.506,0,0,0,69.922,30.859ZM72.1,23h2.461L72.4,25.422H70.563Zm7.039,3.547.07.977a2.951,2.951,0,0,1,2.43-1.133,2.453,2.453,0,0,1,2,.789,3.682,3.682,0,0,1,.672,2.359V35H82.055V29.594a1.465,1.465,0,0,0-.312-1.043,1.4,1.4,0,0,0-1.039-.324,1.553,1.553,0,0,0-1.43.813V35H77.016V26.547Z" transform="translate(756 2933)" fill="#12263f"/>
    <path id="Trazado_804616" data-name="Trazado 804616" d="M8.391,12.07h-4.5v3.047H9.172V17H1.547V5.625H9.156v1.9H3.891v2.711h4.5Zm4.969,2.172,1.57-5.7h2.359L14.438,17H12.281L9.43,8.547h2.359Zm8.813,2.914a4.15,4.15,0,0,1-3.027-1.141,4.054,4.054,0,0,1-1.168-3.039v-.219a5.106,5.106,0,0,1,.492-2.277,3.612,3.612,0,0,1,1.395-1.547,3.914,3.914,0,0,1,2.059-.543,3.508,3.508,0,0,1,2.73,1.094,4.444,4.444,0,0,1,1,3.1v.922H20.266a2.1,2.1,0,0,0,.66,1.328,2,2,0,0,0,1.395.5,2.437,2.437,0,0,0,2.039-.945l1.109,1.242a3.389,3.389,0,0,1-1.375,1.121A4.511,4.511,0,0,1,22.172,17.156Zm-.258-6.937a1.414,1.414,0,0,0-1.09.453,2.341,2.341,0,0,0-.535,1.3H23.43v-.18a1.669,1.669,0,0,0-.406-1.16A1.459,1.459,0,0,0,21.914,10.219Zm7.094-1.672.07.977a2.951,2.951,0,0,1,2.43-1.133,2.453,2.453,0,0,1,2,.789,3.682,3.682,0,0,1,.672,2.359V17H31.922V11.594a1.465,1.465,0,0,0-.312-1.043,1.4,1.4,0,0,0-1.039-.324,1.553,1.553,0,0,0-1.43.813V17H26.883V8.547Zm9.586-2.078V8.547h1.445V10.2H38.594v4.219a1.007,1.007,0,0,0,.18.672.9.9,0,0,0,.688.2,3.6,3.6,0,0,0,.664-.055v1.711a4.648,4.648,0,0,1-1.367.2,2.156,2.156,0,0,1-2.422-2.4V10.2H35.1V8.547h1.234V6.469ZM40.711,12.7a5.013,5.013,0,0,1,.484-2.242A3.546,3.546,0,0,1,42.59,8.93,4.069,4.069,0,0,1,44.7,8.391,3.849,3.849,0,0,1,47.5,9.438,4.2,4.2,0,0,1,48.7,12.281l.016.578a4.418,4.418,0,0,1-1.086,3.121,4.209,4.209,0,0,1-5.832,0,4.5,4.5,0,0,1-1.09-3.187Zm2.258.164a3.151,3.151,0,0,0,.453,1.84A1.629,1.629,0,0,0,46,14.707a3.448,3.448,0,0,0,.461-2.012A3.12,3.12,0,0,0,46,10.867a1.5,1.5,0,0,0-1.3-.648,1.475,1.475,0,0,0-1.281.645A3.506,3.506,0,0,0,42.969,12.859Zm11.719,1.8a.727.727,0,0,0-.41-.652,4.659,4.659,0,0,0-1.316-.426q-3.016-.633-3.016-2.562a2.323,2.323,0,0,1,.934-1.879,3.766,3.766,0,0,1,2.441-.754,4.053,4.053,0,0,1,2.574.758,2.388,2.388,0,0,1,.965,1.969H54.6a1.092,1.092,0,0,0-.312-.8A1.322,1.322,0,0,0,53.313,10a1.351,1.351,0,0,0-.883.258.814.814,0,0,0-.312.656.7.7,0,0,0,.355.605,3.657,3.657,0,0,0,1.2.4,9.8,9.8,0,0,1,1.422.379,2.336,2.336,0,0,1,1.789,2.273,2.2,2.2,0,0,1-.992,1.871,4.28,4.28,0,0,1-2.562.715,4.47,4.47,0,0,1-1.887-.379,3.166,3.166,0,0,1-1.293-1.039,2.414,2.414,0,0,1-.469-1.426H51.82a1.179,1.179,0,0,0,.445.922,1.766,1.766,0,0,0,1.109.32,1.635,1.635,0,0,0,.98-.246A.766.766,0,0,0,54.688,14.664Z" transform="translate(685 2848.5)" fill="#12263f"/>
    <path id="Trazado_804617" data-name="Trazado 804617" d="M8.391,12.07h-4.5v3.047H9.172V17H1.547V5.625H9.156v1.9H3.891v2.711h4.5Zm4.969,2.172,1.57-5.7h2.359L14.438,17H12.281L9.43,8.547h2.359Zm8.813,2.914a4.15,4.15,0,0,1-3.027-1.141,4.054,4.054,0,0,1-1.168-3.039v-.219a5.106,5.106,0,0,1,.492-2.277,3.612,3.612,0,0,1,1.395-1.547,3.914,3.914,0,0,1,2.059-.543,3.508,3.508,0,0,1,2.73,1.094,4.444,4.444,0,0,1,1,3.1v.922H20.266a2.1,2.1,0,0,0,.66,1.328,2,2,0,0,0,1.395.5,2.437,2.437,0,0,0,2.039-.945l1.109,1.242a3.389,3.389,0,0,1-1.375,1.121A4.511,4.511,0,0,1,22.172,17.156Zm-.258-6.937a1.414,1.414,0,0,0-1.09.453,2.341,2.341,0,0,0-.535,1.3H23.43v-.18a1.669,1.669,0,0,0-.406-1.16A1.459,1.459,0,0,0,21.914,10.219Zm7.094-1.672.07.977a2.951,2.951,0,0,1,2.43-1.133,2.453,2.453,0,0,1,2,.789,3.682,3.682,0,0,1,.672,2.359V17H31.922V11.594a1.465,1.465,0,0,0-.312-1.043,1.4,1.4,0,0,0-1.039-.324,1.553,1.553,0,0,0-1.43.813V17H26.883V8.547Zm9.586-2.078V8.547h1.445V10.2H38.594v4.219a1.007,1.007,0,0,0,.18.672.9.9,0,0,0,.688.2,3.6,3.6,0,0,0,.664-.055v1.711a4.648,4.648,0,0,1-1.367.2,2.156,2.156,0,0,1-2.422-2.4V10.2H35.1V8.547h1.234V6.469ZM40.711,12.7a5.013,5.013,0,0,1,.484-2.242A3.546,3.546,0,0,1,42.59,8.93,4.069,4.069,0,0,1,44.7,8.391,3.849,3.849,0,0,1,47.5,9.438,4.2,4.2,0,0,1,48.7,12.281l.016.578a4.418,4.418,0,0,1-1.086,3.121,4.209,4.209,0,0,1-5.832,0,4.5,4.5,0,0,1-1.09-3.187Zm2.258.164a3.151,3.151,0,0,0,.453,1.84A1.629,1.629,0,0,0,46,14.707a3.448,3.448,0,0,0,.461-2.012A3.12,3.12,0,0,0,46,10.867a1.5,1.5,0,0,0-1.3-.648,1.475,1.475,0,0,0-1.281.645A3.506,3.506,0,0,0,42.969,12.859Zm11.719,1.8a.727.727,0,0,0-.41-.652,4.659,4.659,0,0,0-1.316-.426q-3.016-.633-3.016-2.562a2.323,2.323,0,0,1,.934-1.879,3.766,3.766,0,0,1,2.441-.754,4.053,4.053,0,0,1,2.574.758,2.388,2.388,0,0,1,.965,1.969H54.6a1.092,1.092,0,0,0-.312-.8A1.322,1.322,0,0,0,53.313,10a1.351,1.351,0,0,0-.883.258.814.814,0,0,0-.312.656.7.7,0,0,0,.355.605,3.657,3.657,0,0,0,1.2.4,9.8,9.8,0,0,1,1.422.379,2.336,2.336,0,0,1,1.789,2.273,2.2,2.2,0,0,1-.992,1.871,4.28,4.28,0,0,1-2.562.715,4.47,4.47,0,0,1-1.887-.379,3.166,3.166,0,0,1-1.293-1.039,2.414,2.414,0,0,1-.469-1.426H51.82a1.179,1.179,0,0,0,.445.922,1.766,1.766,0,0,0,1.109.32,1.635,1.635,0,0,0,.98-.246A.766.766,0,0,0,54.688,14.664Z" transform="translate(863 2848.5)" fill="#12263f"/>
    <path id="Icon_awesome-long-arrow-alt-down" data-name="Icon awesome-long-arrow-alt-down" d="M11.813,24.324v-71.23a.844.844,0,0,0-.844-.844H7.031a.844.844,0,0,0-.844.844v71.23H2.949A1.688,1.688,0,0,0,1.756,27.2l6.051,6.051a1.687,1.687,0,0,0,2.386,0L16.244,27.2a1.688,1.688,0,0,0-1.193-2.881H11.813Z" transform="translate(707.25 2890.116) rotate(90)" fill="#f9305f"/>
    <path id="Icon_awesome-long-arrow-alt-down-2" data-name="Icon awesome-long-arrow-alt-down" d="M10.555,9.426v71.23a.844.844,0,0,1-.844.844H5.773a.844.844,0,0,1-.844-.844V9.426H1.691A1.688,1.688,0,0,1,.5,6.545L6.549.494a1.688,1.688,0,0,1,2.387,0l6.051,6.051a1.688,1.688,0,0,1-1.193,2.881H10.555Z" transform="translate(755.5 2864.816) rotate(90)" fill="#f9305f"/>
    <path id="Icon_awesome-long-arrow-alt-down-3" data-name="Icon awesome-long-arrow-alt-down" d="M10.555,72.074V.844A.844.844,0,0,0,9.711,0H5.773A.844.844,0,0,0,4.93.844v71.23H1.691A1.688,1.688,0,0,0,.5,74.955l6.051,6.051a1.688,1.688,0,0,0,2.387,0l6.051-6.051a1.688,1.688,0,0,0-1.193-2.881Z" transform="translate(931.116 2864.816) rotate(90)" fill="#f9305f"/>
    <path id="Icon_awesome-long-arrow-alt-down-4" data-name="Icon awesome-long-arrow-alt-down" d="M10.555,9.426v71.23a.844.844,0,0,1-.844.844H5.773a.844.844,0,0,1-.844-.844V9.426H1.691A1.688,1.688,0,0,1,.5,6.545L6.549.494a1.688,1.688,0,0,1,2.387,0l6.051,6.051a1.688,1.688,0,0,1-1.193,2.881H10.555Z" transform="translate(931.616 2891.374) rotate(90)" fill="#f9305f"/>
    <path id="Trazado_804618" data-name="Trazado 804618" d="M60,0A60,60,0,1,1,0,60,60,60,0,0,1,60,0Z" transform="translate(550 2840)" fill="#eff3ff"/>
    <g id="XMLID_47_" transform="translate(578 2865)">
      <path id="Trazado_803118" data-name="Trazado 803118" d="M330,258.895V255h14.281v7.79H330Z" transform="translate(-287.156 -228.384)" fill="#e7eced"/>
      <rect id="Rectángulo_375398" data-name="Rectángulo 375398" width="3.976" height="7.952" transform="translate(33.399 26.778)" fill="#ffd248"/>
      <rect id="Rectángulo_375399" data-name="Rectángulo 375399" width="3.976" height="7.952" transform="translate(24.652 26.778)" fill="#31c0d8"/>
      <path id="Trazado_803119" data-name="Trazado 803119" d="M13.246,236.878H10V222.6a2.6,2.6,0,0,1,2.6-2.6H68.424a2.6,2.6,0,0,1,2.6,2.6v14.282H67.775v5.193H13.246Zm52.582-4.544v-7.79H51.546v7.79Zm-19.475,0v-7.79H42.458v7.79Zm-9.088,0v-7.79H33.37v7.79Zm-9.088,0v-7.79H24.281v7.79Zm-9.088,0v-7.79H15.193v7.79Z" transform="translate(-8.702 -197.928)" fill="#afb6bb"/>
      <rect id="Rectángulo_375400" data-name="Rectángulo 375400" width="5.567" height="4.771" transform="translate(48.508 44.273)" fill="#546a79"/>
      <rect id="Rectángulo_375401" data-name="Rectángulo 375401" width="5.567" height="15.904" transform="translate(48.508 6.102)" fill="#e7eced"/>
      <rect id="Rectángulo_375402" data-name="Rectángulo 375402" width="5.567" height="4.771" transform="translate(48.508 1.331)" fill="#546a79"/>
      <path id="Trazado_803120" data-name="Trazado 803120" d="M196.878,181.3v3.895H180V181.3a1.3,1.3,0,0,1,1.3-1.3H195.58A1.3,1.3,0,0,1,196.878,181.3Z" transform="translate(-156.63 -163.122)" fill="#546a79"/>
      <rect id="Rectángulo_375403" data-name="Rectángulo 375403" width="3.181" height="7.952" transform="translate(15.904 26.778)" fill="#ffd248"/>
      <rect id="Rectángulo_375404" data-name="Rectángulo 375404" width="5.567" height="15.904" transform="translate(9.543 6.102)" fill="#e7eced"/>
      <rect id="Rectángulo_375405" data-name="Rectángulo 375405" width="5.567" height="4.771" transform="translate(9.543 1.331)" fill="#546a79"/>
      <rect id="Rectángulo_375406" data-name="Rectángulo 375406" width="5.567" height="4.771" transform="translate(9.543 44.273)" fill="#546a79"/>
      <rect id="Rectángulo_375407" data-name="Rectángulo 375407" width="3.976" height="7.952" transform="translate(6.362 26.778)" fill="#31c0d8"/>
      <g id="Grupo_1067904" data-name="Grupo 1067904" transform="translate(5.193 25.317)">
        <path id="Trazado_803121" data-name="Trazado 803121" d="M45.193,255.387H41.3a1.3,1.3,0,0,1-1.3-1.3V246.3a1.3,1.3,0,0,1,1.3-1.3h3.895a1.3,1.3,0,0,1,1.3,1.3v7.79A1.3,1.3,0,0,1,45.193,255.387Zm-2.6-2.6h1.3V247.6H42.6Z" transform="translate(-40 -245)" fill="#231f20"/>
      </g>
      <g id="Grupo_1067905" data-name="Grupo 1067905" transform="translate(14.281 25.317)">
        <path id="Trazado_803122" data-name="Trazado 803122" d="M115.193,255.387H111.3a1.3,1.3,0,0,1-1.3-1.3V246.3a1.3,1.3,0,0,1,1.3-1.3h3.895a1.3,1.3,0,0,1,1.3,1.3v7.79A1.3,1.3,0,0,1,115.193,255.387Zm-2.6-2.6h1.3V247.6h-1.3Z" transform="translate(-110 -245)" fill="#231f20"/>
      </g>
      <g id="Grupo_1067906" data-name="Grupo 1067906" transform="translate(23.37 25.317)">
        <path id="Trazado_803123" data-name="Trazado 803123" d="M185.193,255.387H181.3a1.3,1.3,0,0,1-1.3-1.3V246.3a1.3,1.3,0,0,1,1.3-1.3h3.895a1.3,1.3,0,0,1,1.3,1.3v7.79A1.3,1.3,0,0,1,185.193,255.387Zm-2.6-2.6h1.3V247.6h-1.3Z" transform="translate(-180 -245)" fill="#231f20"/>
      </g>
      <g id="Grupo_1067907" data-name="Grupo 1067907" transform="translate(32.458 25.317)">
        <path id="Trazado_803124" data-name="Trazado 803124" d="M255.193,255.387H251.3a1.3,1.3,0,0,1-1.3-1.3V246.3a1.3,1.3,0,0,1,1.3-1.3h3.895a1.3,1.3,0,0,1,1.3,1.3v7.79A1.3,1.3,0,0,1,255.193,255.387Zm-2.6-2.6h1.3V247.6h-1.3Z" transform="translate(-250 -245)" fill="#231f20"/>
      </g>
      <path id="Trazado_803125" data-name="Trazado 803125" d="M335.58,245H321.3a1.3,1.3,0,0,0-1.3,1.3v7.79a1.3,1.3,0,0,0,1.3,1.3H335.58a1.3,1.3,0,0,0,1.3-1.3V246.3A1.3,1.3,0,0,0,335.58,245Zm-1.3,7.79H322.6v-1.3h9.737v-2.6H322.6v-1.3h11.685Z" transform="translate(-278.454 -219.683)" fill="#231f20"/>
      <path id="Trazado_803126" data-name="Trazado 803126" d="M59.722,70.773H55.178V51.3a1.3,1.3,0,0,0-1.3-1.3H48.687a1.3,1.3,0,0,0-1.3,1.3V70.773H41.546v-2.6a2.6,2.6,0,0,0-2.6-2.6H24.668a2.6,2.6,0,0,0-2.6,2.6v2.6H16.229V51.3a1.3,1.3,0,0,0-1.3-1.3H9.737a1.3,1.3,0,0,0-1.3,1.3V70.773H3.895A3.9,3.9,0,0,0,0,74.668V88.95a1.3,1.3,0,0,0,1.3,1.3H3.246v3.895a1.3,1.3,0,0,0,1.3,1.3H8.439v3.895a1.3,1.3,0,0,0,1.3,1.3h5.193a1.3,1.3,0,0,0,1.3-1.3V95.441h31.16v3.895a1.3,1.3,0,0,0,1.3,1.3H53.88a1.3,1.3,0,0,0,1.3-1.3V95.441h3.895a1.3,1.3,0,0,0,1.3-1.3V90.248h1.947a1.3,1.3,0,0,0,1.3-1.3V74.668A3.9,3.9,0,0,0,59.722,70.773ZM49.985,57.79h2.6V70.773h-2.6Zm2.6-5.193v2.6h-2.6V52.6ZM24.668,68.176H38.949v2.6H24.668ZM11.036,57.79h2.6V70.773h-2.6Zm2.6-5.193v2.6h-2.6V52.6Zm0,45.441h-2.6v-2.6h2.6Zm38.949,0h-2.6v-2.6h2.6Zm8.439-10.387H59.073a1.3,1.3,0,0,0-1.3,1.3v3.895H5.842v-2.6H54.529v-2.6H2.6V74.668a1.3,1.3,0,0,1,1.3-1.3H59.722a1.3,1.3,0,0,1,1.3,1.3Z" transform="translate(0 -50)" fill="#231f20"/>
    </g>
    <path id="Trazado_804619" data-name="Trazado 804619" d="M7.656,14.656H3.547L2.766,17H.273L4.508,5.625H6.68L10.938,17H8.445Zm-3.477-1.9H7.023L5.594,8.5Zm7.344-.047a4.954,4.954,0,0,1,.926-3.133,3,3,0,0,1,2.5-1.187,2.631,2.631,0,0,1,2.164.953l.094-.8H19.25v8.172a3.613,3.613,0,0,1-.5,1.93,3.236,3.236,0,0,1-1.418,1.25,4.985,4.985,0,0,1-2.141.43,4.635,4.635,0,0,1-1.812-.371A3.217,3.217,0,0,1,12.039,19l1-1.375a2.645,2.645,0,0,0,2.047.945,1.936,1.936,0,0,0,1.4-.48,1.8,1.8,0,0,0,.5-1.363v-.453a2.612,2.612,0,0,1-2.055.883,2.992,2.992,0,0,1-2.465-1.191,4.953,4.953,0,0,1-.941-3.16Zm2.258.164a3.076,3.076,0,0,0,.461,1.8,1.467,1.467,0,0,0,1.266.652,1.568,1.568,0,0,0,1.477-.773V11a1.565,1.565,0,0,0-1.461-.773,1.476,1.476,0,0,0-1.277.664A3.467,3.467,0,0,0,13.781,12.875Zm11.094,4.281a4.15,4.15,0,0,1-3.027-1.141,4.054,4.054,0,0,1-1.168-3.039v-.219a5.106,5.106,0,0,1,.492-2.277,3.612,3.612,0,0,1,1.395-1.547,3.914,3.914,0,0,1,2.059-.543,3.508,3.508,0,0,1,2.73,1.094,4.444,4.444,0,0,1,1,3.1v.922H22.969a2.1,2.1,0,0,0,.66,1.328,2,2,0,0,0,1.395.5,2.437,2.437,0,0,0,2.039-.945l1.109,1.242A3.389,3.389,0,0,1,26.8,16.754,4.511,4.511,0,0,1,24.875,17.156Zm-.258-6.937a1.414,1.414,0,0,0-1.09.453,2.341,2.341,0,0,0-.535,1.3h3.141v-.18a1.669,1.669,0,0,0-.406-1.16A1.459,1.459,0,0,0,24.617,10.219Zm7.094-1.672.07.977a2.951,2.951,0,0,1,2.43-1.133,2.453,2.453,0,0,1,2,.789,3.682,3.682,0,0,1,.672,2.359V17H34.625V11.594a1.465,1.465,0,0,0-.312-1.043,1.4,1.4,0,0,0-1.039-.324,1.553,1.553,0,0,0-1.43.813V17H29.586V8.547ZM41.3,6.469V8.547h1.445V10.2H41.3v4.219a1.007,1.007,0,0,0,.18.672.9.9,0,0,0,.688.2,3.6,3.6,0,0,0,.664-.055v1.711a4.648,4.648,0,0,1-1.367.2,2.156,2.156,0,0,1-2.422-2.4V10.2H37.8V8.547h1.234V6.469Zm6.594,10.688a4.15,4.15,0,0,1-3.027-1.141A4.054,4.054,0,0,1,43.7,12.977v-.219a5.106,5.106,0,0,1,.492-2.277,3.612,3.612,0,0,1,1.395-1.547,3.914,3.914,0,0,1,2.059-.543,3.508,3.508,0,0,1,2.73,1.094,4.444,4.444,0,0,1,1,3.1v.922H45.984a2.1,2.1,0,0,0,.66,1.328,2,2,0,0,0,1.395.5,2.437,2.437,0,0,0,2.039-.945l1.109,1.242a3.389,3.389,0,0,1-1.375,1.121A4.511,4.511,0,0,1,47.891,17.156Zm-.258-6.937a1.414,1.414,0,0,0-1.09.453,2.341,2.341,0,0,0-.535,1.3h3.141v-.18a1.669,1.669,0,0,0-.406-1.16A1.459,1.459,0,0,0,47.633,10.219Z" transform="translate(584 2926)" fill="#12263f"/>
    <path id="Trazado_804620" data-name="Trazado 804620" d="M60,0A60,60,0,1,1,0,60,60,60,0,0,1,60,0Z" transform="translate(931 2842)" fill="#eff3ff"/>
    <g id="XMLID_47_2" data-name="XMLID_47_" transform="translate(959 2867)">
      <path id="Trazado_803118-2" data-name="Trazado 803118" d="M330,258.895V255h14.281v7.79H330Z" transform="translate(-287.156 -228.384)" fill="#e7eced"/>
      <rect id="Rectángulo_375398-2" data-name="Rectángulo 375398" width="3.976" height="7.952" transform="translate(33.399 26.778)" fill="#ffd248"/>
      <rect id="Rectángulo_375399-2" data-name="Rectángulo 375399" width="3.976" height="7.952" transform="translate(24.652 26.778)" fill="#31c0d8"/>
      <path id="Trazado_803119-2" data-name="Trazado 803119" d="M13.246,236.878H10V222.6a2.6,2.6,0,0,1,2.6-2.6H68.424a2.6,2.6,0,0,1,2.6,2.6v14.282H67.775v5.193H13.246Zm52.582-4.544v-7.79H51.546v7.79Zm-19.475,0v-7.79H42.458v7.79Zm-9.088,0v-7.79H33.37v7.79Zm-9.088,0v-7.79H24.281v7.79Zm-9.088,0v-7.79H15.193v7.79Z" transform="translate(-8.702 -197.928)" fill="#afb6bb"/>
      <rect id="Rectángulo_375400-2" data-name="Rectángulo 375400" width="5.567" height="4.771" transform="translate(48.508 44.273)" fill="#546a79"/>
      <rect id="Rectángulo_375401-2" data-name="Rectángulo 375401" width="5.567" height="15.904" transform="translate(48.508 6.102)" fill="#e7eced"/>
      <rect id="Rectángulo_375402-2" data-name="Rectángulo 375402" width="5.567" height="4.771" transform="translate(48.508 1.331)" fill="#546a79"/>
      <path id="Trazado_803120-2" data-name="Trazado 803120" d="M196.878,181.3v3.895H180V181.3a1.3,1.3,0,0,1,1.3-1.3H195.58A1.3,1.3,0,0,1,196.878,181.3Z" transform="translate(-156.63 -163.122)" fill="#546a79"/>
      <rect id="Rectángulo_375403-2" data-name="Rectángulo 375403" width="3.181" height="7.952" transform="translate(15.904 26.778)" fill="#ffd248"/>
      <rect id="Rectángulo_375404-2" data-name="Rectángulo 375404" width="5.567" height="15.904" transform="translate(9.543 6.102)" fill="#e7eced"/>
      <rect id="Rectángulo_375405-2" data-name="Rectángulo 375405" width="5.567" height="4.771" transform="translate(9.543 1.331)" fill="#546a79"/>
      <rect id="Rectángulo_375406-2" data-name="Rectángulo 375406" width="5.567" height="4.771" transform="translate(9.543 44.273)" fill="#546a79"/>
      <rect id="Rectángulo_375407-2" data-name="Rectángulo 375407" width="3.976" height="7.952" transform="translate(6.362 26.778)" fill="#31c0d8"/>
      <g id="Grupo_1067904-2" data-name="Grupo 1067904" transform="translate(5.193 25.317)">
        <path id="Trazado_803121-2" data-name="Trazado 803121" d="M45.193,255.387H41.3a1.3,1.3,0,0,1-1.3-1.3V246.3a1.3,1.3,0,0,1,1.3-1.3h3.895a1.3,1.3,0,0,1,1.3,1.3v7.79A1.3,1.3,0,0,1,45.193,255.387Zm-2.6-2.6h1.3V247.6H42.6Z" transform="translate(-40 -245)" fill="#231f20"/>
      </g>
      <g id="Grupo_1067905-2" data-name="Grupo 1067905" transform="translate(14.281 25.317)">
        <path id="Trazado_803122-2" data-name="Trazado 803122" d="M115.193,255.387H111.3a1.3,1.3,0,0,1-1.3-1.3V246.3a1.3,1.3,0,0,1,1.3-1.3h3.895a1.3,1.3,0,0,1,1.3,1.3v7.79A1.3,1.3,0,0,1,115.193,255.387Zm-2.6-2.6h1.3V247.6h-1.3Z" transform="translate(-110 -245)" fill="#231f20"/>
      </g>
      <g id="Grupo_1067906-2" data-name="Grupo 1067906" transform="translate(23.37 25.317)">
        <path id="Trazado_803123-2" data-name="Trazado 803123" d="M185.193,255.387H181.3a1.3,1.3,0,0,1-1.3-1.3V246.3a1.3,1.3,0,0,1,1.3-1.3h3.895a1.3,1.3,0,0,1,1.3,1.3v7.79A1.3,1.3,0,0,1,185.193,255.387Zm-2.6-2.6h1.3V247.6h-1.3Z" transform="translate(-180 -245)" fill="#231f20"/>
      </g>
      <g id="Grupo_1067907-2" data-name="Grupo 1067907" transform="translate(32.458 25.317)">
        <path id="Trazado_803124-2" data-name="Trazado 803124" d="M255.193,255.387H251.3a1.3,1.3,0,0,1-1.3-1.3V246.3a1.3,1.3,0,0,1,1.3-1.3h3.895a1.3,1.3,0,0,1,1.3,1.3v7.79A1.3,1.3,0,0,1,255.193,255.387Zm-2.6-2.6h1.3V247.6h-1.3Z" transform="translate(-250 -245)" fill="#231f20"/>
      </g>
      <path id="Trazado_803125-2" data-name="Trazado 803125" d="M335.58,245H321.3a1.3,1.3,0,0,0-1.3,1.3v7.79a1.3,1.3,0,0,0,1.3,1.3H335.58a1.3,1.3,0,0,0,1.3-1.3V246.3A1.3,1.3,0,0,0,335.58,245Zm-1.3,7.79H322.6v-1.3h9.737v-2.6H322.6v-1.3h11.685Z" transform="translate(-278.454 -219.683)" fill="#231f20"/>
      <path id="Trazado_803126-2" data-name="Trazado 803126" d="M59.722,70.773H55.178V51.3a1.3,1.3,0,0,0-1.3-1.3H48.687a1.3,1.3,0,0,0-1.3,1.3V70.773H41.546v-2.6a2.6,2.6,0,0,0-2.6-2.6H24.668a2.6,2.6,0,0,0-2.6,2.6v2.6H16.229V51.3a1.3,1.3,0,0,0-1.3-1.3H9.737a1.3,1.3,0,0,0-1.3,1.3V70.773H3.895A3.9,3.9,0,0,0,0,74.668V88.95a1.3,1.3,0,0,0,1.3,1.3H3.246v3.895a1.3,1.3,0,0,0,1.3,1.3H8.439v3.895a1.3,1.3,0,0,0,1.3,1.3h5.193a1.3,1.3,0,0,0,1.3-1.3V95.441h31.16v3.895a1.3,1.3,0,0,0,1.3,1.3H53.88a1.3,1.3,0,0,0,1.3-1.3V95.441h3.895a1.3,1.3,0,0,0,1.3-1.3V90.248h1.947a1.3,1.3,0,0,0,1.3-1.3V74.668A3.9,3.9,0,0,0,59.722,70.773ZM49.985,57.79h2.6V70.773h-2.6Zm2.6-5.193v2.6h-2.6V52.6ZM24.668,68.176H38.949v2.6H24.668ZM11.036,57.79h2.6V70.773h-2.6Zm2.6-5.193v2.6h-2.6V52.6Zm0,45.441h-2.6v-2.6h2.6Zm38.949,0h-2.6v-2.6h2.6Zm8.439-10.387H59.073a1.3,1.3,0,0,0-1.3,1.3v3.895H5.842v-2.6H54.529v-2.6H2.6V74.668a1.3,1.3,0,0,1,1.3-1.3H59.722a1.3,1.3,0,0,1,1.3,1.3Z" transform="translate(0 -50)" fill="#231f20"/>
    </g>
    <path id="Trazado_804621" data-name="Trazado 804621" d="M7.656,14.656H3.547L2.766,17H.273L4.508,5.625H6.68L10.938,17H8.445Zm-3.477-1.9H7.023L5.594,8.5Zm7.344-.047a4.954,4.954,0,0,1,.926-3.133,3,3,0,0,1,2.5-1.187,2.631,2.631,0,0,1,2.164.953l.094-.8H19.25v8.172a3.613,3.613,0,0,1-.5,1.93,3.236,3.236,0,0,1-1.418,1.25,4.985,4.985,0,0,1-2.141.43,4.635,4.635,0,0,1-1.812-.371A3.217,3.217,0,0,1,12.039,19l1-1.375a2.645,2.645,0,0,0,2.047.945,1.936,1.936,0,0,0,1.4-.48,1.8,1.8,0,0,0,.5-1.363v-.453a2.612,2.612,0,0,1-2.055.883,2.992,2.992,0,0,1-2.465-1.191,4.953,4.953,0,0,1-.941-3.16Zm2.258.164a3.076,3.076,0,0,0,.461,1.8,1.467,1.467,0,0,0,1.266.652,1.568,1.568,0,0,0,1.477-.773V11a1.565,1.565,0,0,0-1.461-.773,1.476,1.476,0,0,0-1.277.664A3.467,3.467,0,0,0,13.781,12.875Zm11.094,4.281a4.15,4.15,0,0,1-3.027-1.141,4.054,4.054,0,0,1-1.168-3.039v-.219a5.106,5.106,0,0,1,.492-2.277,3.612,3.612,0,0,1,1.395-1.547,3.914,3.914,0,0,1,2.059-.543,3.508,3.508,0,0,1,2.73,1.094,4.444,4.444,0,0,1,1,3.1v.922H22.969a2.1,2.1,0,0,0,.66,1.328,2,2,0,0,0,1.395.5,2.437,2.437,0,0,0,2.039-.945l1.109,1.242A3.389,3.389,0,0,1,26.8,16.754,4.511,4.511,0,0,1,24.875,17.156Zm-.258-6.937a1.414,1.414,0,0,0-1.09.453,2.341,2.341,0,0,0-.535,1.3h3.141v-.18a1.669,1.669,0,0,0-.406-1.16A1.459,1.459,0,0,0,24.617,10.219Zm7.094-1.672.07.977a2.951,2.951,0,0,1,2.43-1.133,2.453,2.453,0,0,1,2,.789,3.682,3.682,0,0,1,.672,2.359V17H34.625V11.594a1.465,1.465,0,0,0-.312-1.043,1.4,1.4,0,0,0-1.039-.324,1.553,1.553,0,0,0-1.43.813V17H29.586V8.547ZM41.3,6.469V8.547h1.445V10.2H41.3v4.219a1.007,1.007,0,0,0,.18.672.9.9,0,0,0,.688.2,3.6,3.6,0,0,0,.664-.055v1.711a4.648,4.648,0,0,1-1.367.2,2.156,2.156,0,0,1-2.422-2.4V10.2H37.8V8.547h1.234V6.469Zm6.594,10.688a4.15,4.15,0,0,1-3.027-1.141A4.054,4.054,0,0,1,43.7,12.977v-.219a5.106,5.106,0,0,1,.492-2.277,3.612,3.612,0,0,1,1.395-1.547,3.914,3.914,0,0,1,2.059-.543,3.508,3.508,0,0,1,2.73,1.094,4.444,4.444,0,0,1,1,3.1v.922H45.984a2.1,2.1,0,0,0,.66,1.328,2,2,0,0,0,1.395.5,2.437,2.437,0,0,0,2.039-.945l1.109,1.242a3.389,3.389,0,0,1-1.375,1.121A4.511,4.511,0,0,1,47.891,17.156Zm-.258-6.937a1.414,1.414,0,0,0-1.09.453,2.341,2.341,0,0,0-.535,1.3h3.141v-.18a1.669,1.669,0,0,0-.406-1.16A1.459,1.459,0,0,0,47.633,10.219Z" transform="translate(965 2928)" fill="#12263f"/>
    <path id="Trazado_804622" data-name="Trazado 804622" d="M1,0H5A1,1,0,0,1,6,1V27a1,1,0,0,1-1,1H1a1,1,0,0,1-1-1V1A1,1,0,0,1,1,0Z" transform="translate(800 2771)" fill="#f9305f"/>
    <path id="Trazado_804623" data-name="Trazado 804623" d="M1,0H5A1,1,0,0,1,6,1V24a1,1,0,0,1-1,1H1a1,1,0,0,1-1-1V1A1,1,0,0,1,1,0Z" transform="translate(800 2820)" fill="#f9305f"/>
    <g id="Trazado_804624" data-name="Trazado 804624" transform="translate(495 2597)" fill="none" stroke-linecap="round">
      <path d="M10,0H600a10,10,0,0,1,10,10V400a10,10,0,0,1-10,10H10A10,10,0,0,1,0,400V10A10,10,0,0,1,10,0Z" stroke="none"/>
      <path d="M 10 0 C 4.4771728515625 0 0 4.477142333984375 0 10 L 0 400 C 0 405.5228576660156 4.4771728515625 410 10 410 L 600 410 C 605.5228271484375 410 610 405.5228576660156 610 400 L 610 10 C 610 4.477142333984375 605.5228271484375 0 600 0 L 10 0 M 10 -1 L 600 -1 C 602.938232421875 -1 605.7005615234375 0.14422607421875 607.7781372070312 2.221832275390625 C 609.8557739257812 4.299468994140625 611 7.061767578125 611 10 L 611 400 C 611 402.938232421875 609.8557739257812 405.7005310058594 607.7781372070312 407.7781677246094 C 605.7005615234375 409.8557739257812 602.938232421875 411 600 411 L 10 411 C 7.061767578125 411 4.2994384765625 409.8557739257812 2.22186279296875 407.7781677246094 C 0.14422607421875 405.7005310058594 -1 402.938232421875 -1 400 L -1 10 C -1 7.061767578125 0.14422607421875 4.299468994140625 2.22186279296875 2.221832275390625 C 4.2994384765625 0.14422607421875 7.061767578125 -1 10 -1 Z" stroke="none" fill="#1e5af9"/>
    </g>
  </g>
</svg>
