<svg xmlns="http://www.w3.org/2000/svg" xmlns:xlink="http://www.w3.org/1999/xlink" width="295" height="191.059" viewBox="0 0 295 191.059">
  <defs>
    <clipPath id="clip-path">
      <rect id="Rectángulo_375425" data-name="Rectángulo 375425" width="295" height="191.059" fill="none"/>
    </clipPath>
  </defs>
  <g id="Grupo_1067992" data-name="Grupo 1067992" transform="translate(0 -0.003)">
    <rect id="Rectángulo_375423" data-name="Rectángulo 375423" width="64.052" height="62.711" transform="translate(21.688 123.866)" fill="#5a8ad1"/>
    <g id="Grupo_1067991" data-name="Grupo 1067991" transform="translate(0 0.003)">
      <g id="Grupo_1067990" data-name="Grupo 1067990" transform="translate(0 0)" clip-path="url(#clip-path)">
        <path id="Trazado_803231" data-name="Trazado 803231" d="M334.146,1636.547H272.1a4.185,4.185,0,0,1-4.185-4.185v-6.642a4.185,4.185,0,0,1,4.185-4.185h62.05a4.185,4.185,0,0,1,4.185,4.185v6.642a4.185,4.185,0,0,1-4.185,4.185" transform="translate(-249.27 -1508.715)" fill="#c2e2ff"/>
        <path id="Trazado_803232" data-name="Trazado 803232" d="M314.918,1618.756h-62.05a5.63,5.63,0,0,1-5.623-5.623v-6.642a5.629,5.629,0,0,1,5.623-5.623h62.05a5.629,5.629,0,0,1,5.623,5.623v6.642a5.63,5.63,0,0,1-5.623,5.623m-62.05-15.012a2.75,2.75,0,0,0-2.747,2.747v6.642a2.75,2.75,0,0,0,2.747,2.747h62.05a2.75,2.75,0,0,0,2.747-2.747v-6.642a2.75,2.75,0,0,0-2.747-2.747Z" transform="translate(-230.043 -1489.486)" fill="#91cbff"/>
        <path id="Trazado_803233" data-name="Trazado 803233" d="M964.142,1703.867a1.911,1.911,0,1,1-1.911-1.911,1.911,1.911,0,0,1,1.911,1.911" transform="translate(-893.505 -1583.54)" fill="#fff"/>
        <path id="Trazado_803234" data-name="Trazado 803234" d="M1055.025,1703.867a1.911,1.911,0,1,1-1.911-1.911,1.911,1.911,0,0,1,1.911,1.911" transform="translate(-978.065 -1583.54)" fill="#fff"/>
        <path id="Trazado_803235" data-name="Trazado 803235" d="M1145.908,1703.867a1.911,1.911,0,1,1-1.911-1.911,1.911,1.911,0,0,1,1.911,1.911" transform="translate(-1062.625 -1583.54)" fill="#75a4e8"/>
        <path id="Trazado_803236" data-name="Trazado 803236" d="M334.146,1927.08H272.1a4.185,4.185,0,0,1-4.185-4.185v-6.642a4.185,4.185,0,0,1,4.185-4.185h62.05a4.185,4.185,0,0,1,4.185,4.185v6.642a4.185,4.185,0,0,1-4.185,4.185" transform="translate(-249.27 -1779.033)" fill="#c2e2ff"/>
        <path id="Trazado_803237" data-name="Trazado 803237" d="M314.918,1909.289h-62.05a5.629,5.629,0,0,1-5.623-5.623v-6.642a5.63,5.63,0,0,1,5.623-5.623h62.05a5.63,5.63,0,0,1,5.623,5.623v6.642a5.629,5.629,0,0,1-5.623,5.623m-62.05-15.012a2.751,2.751,0,0,0-2.747,2.747v6.642a2.75,2.75,0,0,0,2.747,2.747h62.05a2.75,2.75,0,0,0,2.747-2.747v-6.642a2.751,2.751,0,0,0-2.747-2.747Z" transform="translate(-230.043 -1759.804)" fill="#91cbff"/>
        <path id="Trazado_803238" data-name="Trazado 803238" d="M964.142,1994.4a1.911,1.911,0,1,1-1.911-1.911,1.911,1.911,0,0,1,1.911,1.911" transform="translate(-893.505 -1853.859)" fill="#fff"/>
        <path id="Trazado_803239" data-name="Trazado 803239" d="M1055.025,1994.4a1.911,1.911,0,1,1-1.911-1.911,1.911,1.911,0,0,1,1.911,1.911" transform="translate(-978.065 -1853.859)" fill="#fff"/>
        <path id="Trazado_803240" data-name="Trazado 803240" d="M1145.908,1994.4a1.911,1.911,0,1,1-1.911-1.911,1.911,1.911,0,0,1,1.911,1.911" transform="translate(-1062.625 -1853.859)" fill="#75a4e8"/>
        <path id="Trazado_803241" data-name="Trazado 803241" d="M334.146,2217.613H272.1a4.185,4.185,0,0,1-4.185-4.185v-6.642a4.185,4.185,0,0,1,4.185-4.185h62.05a4.185,4.185,0,0,1,4.185,4.185v6.642a4.185,4.185,0,0,1-4.185,4.185" transform="translate(-249.27 -2049.352)" fill="#c2e2ff"/>
        <path id="Trazado_803242" data-name="Trazado 803242" d="M314.918,2199.822h-62.05a5.63,5.63,0,0,1-5.623-5.623v-6.642a5.629,5.629,0,0,1,5.623-5.623h62.05a5.629,5.629,0,0,1,5.623,5.623v6.642a5.63,5.63,0,0,1-5.623,5.623m-62.05-15.012a2.75,2.75,0,0,0-2.747,2.747v6.642a2.751,2.751,0,0,0,2.747,2.748h62.05a2.751,2.751,0,0,0,2.747-2.748v-6.642a2.75,2.75,0,0,0-2.747-2.747Z" transform="translate(-230.043 -2030.123)" fill="#91cbff"/>
        <path id="Trazado_803243" data-name="Trazado 803243" d="M964.142,2284.933a1.911,1.911,0,1,1-1.911-1.911,1.911,1.911,0,0,1,1.911,1.911" transform="translate(-893.505 -2124.178)" fill="#fff"/>
        <path id="Trazado_803244" data-name="Trazado 803244" d="M1055.025,2284.933a1.911,1.911,0,1,1-1.911-1.911,1.911,1.911,0,0,1,1.911,1.911" transform="translate(-978.065 -2124.178)" fill="#fff"/>
        <path id="Trazado_803245" data-name="Trazado 803245" d="M1145.908,2284.933a1.911,1.911,0,1,1-1.911-1.911,1.911,1.911,0,0,1,1.911,1.911" transform="translate(-1062.625 -2124.178)" fill="#75a4e8"/>
        <path id="Trazado_803246" data-name="Trazado 803246" d="M334.146,2508.146H272.1a4.185,4.185,0,0,1-4.185-4.185v-6.642a4.185,4.185,0,0,1,4.185-4.185h62.05a4.185,4.185,0,0,1,4.185,4.185v6.642a4.185,4.185,0,0,1-4.185,4.185" transform="translate(-249.27 -2319.671)" fill="#c2e2ff"/>
        <path id="Trazado_803247" data-name="Trazado 803247" d="M314.918,2490.356h-62.05a5.629,5.629,0,0,1-5.623-5.623v-6.642a5.629,5.629,0,0,1,5.623-5.623h62.05a5.629,5.629,0,0,1,5.623,5.623v6.642a5.629,5.629,0,0,1-5.623,5.623m-62.05-15.012a2.75,2.75,0,0,0-2.747,2.747v6.642a2.75,2.75,0,0,0,2.747,2.747h62.05a2.75,2.75,0,0,0,2.747-2.747v-6.642a2.75,2.75,0,0,0-2.747-2.747Z" transform="translate(-230.043 -2300.443)" fill="#91cbff"/>
        <path id="Trazado_803248" data-name="Trazado 803248" d="M964.142,2575.466a1.911,1.911,0,1,1-1.911-1.911,1.911,1.911,0,0,1,1.911,1.911" transform="translate(-893.505 -2394.496)" fill="#fff"/>
        <path id="Trazado_803249" data-name="Trazado 803249" d="M1055.025,2575.466a1.911,1.911,0,1,1-1.911-1.911,1.911,1.911,0,0,1,1.911,1.911" transform="translate(-978.065 -2394.496)" fill="#fff"/>
        <path id="Trazado_803250" data-name="Trazado 803250" d="M1145.908,2575.466a1.911,1.911,0,1,1-1.911-1.911,1.911,1.911,0,0,1,1.911,1.911" transform="translate(-1062.625 -2394.496)" fill="#75a4e8"/>
        <path id="Trazado_803251" data-name="Trazado 803251" d="M269.872,1421.383a1.05,1.05,0,0,1-.52-.138l-10.791-6.131a1.054,1.054,0,1,1,1.042-1.833l10.791,6.131a1.055,1.055,0,0,1-.522,1.971" transform="translate(-240.075 -1314.821)" fill="#ff765f"/>
        <path id="Trazado_803252" data-name="Trazado 803252" d="M370.1,1205.589a1.055,1.055,0,0,1-.977-.657l-7.471-18.341a1.054,1.054,0,0,1,1.953-.8l7.471,18.341a1.055,1.055,0,0,1-.976,1.452" transform="translate(-336.418 -1102.682)" fill="#ff765f"/>
        <path id="Trazado_803253" data-name="Trazado 803253" d="M2206.189,2609.572h-56.251v-7.458a1.234,1.234,0,0,1,1.234-1.234h53.783a1.234,1.234,0,0,1,1.234,1.234Z" transform="translate(-2000.353 -2419.92)" fill="#5d8cf4"/>
        <path id="Trazado_803254" data-name="Trazado 803254" d="M2359.725,2295.7l-19.219,7.345a21.266,21.266,0,0,1-5.643,13.888h30.518a21.27,21.27,0,0,1-5.656-14.444Z" transform="translate(-2172.412 -2135.977)" fill="#75a4e8"/>
        <path id="Trazado_803255" data-name="Trazado 803255" d="M2435.185,2253.17h-19.206v9.749c0,.186-.008.371-.013.556l19.219-7.345Z" transform="translate(-2247.872 -2096.403)" fill="#5a8ad1"/>
        <path id="Trazado_803256" data-name="Trazado 803256" d="M1510.667,589.953a2.742,2.742,0,0,0-2.662-2.816H1344.649a2.742,2.742,0,0,0-2.662,2.816V688.18h168.68Z" transform="translate(-1248.616 -546.286)" fill="#5d8cf4"/>
        <rect id="Rectángulo_375424" data-name="Rectángulo 375424" width="162.814" height="92.521" transform="translate(96.304 44.418)" fill="#fff"/>
        <path id="Trazado_803257" data-name="Trazado 803257" d="M1341.987,2039.4v10.874c0,2.869,3.128,5.194,6.987,5.194H1503.68c3.859,0,6.987-2.325,6.987-5.194V2039.4Z" transform="translate(-1248.616 -1897.503)" fill="#ff765f"/>
        <path id="Trazado_803258" data-name="Trazado 803258" d="M2108.589,1753.524a2.214,2.214,0,0,1-.352,1.228,2.339,2.339,0,0,1-1.03.853,3.857,3.857,0,0,1-1.608.308,3.618,3.618,0,0,1-1.839-.421,2.45,2.45,0,0,1-.835-.809,1.836,1.836,0,0,1-.321-.984.667.667,0,0,1,.683-.673.58.58,0,0,1,.408.154,1.219,1.219,0,0,1,.285.457,3.041,3.041,0,0,0,.311.6,1.259,1.259,0,0,0,.47.4,1.736,1.736,0,0,0,.8.157,1.8,1.8,0,0,0,1.1-.316.95.95,0,0,0,.424-.789.833.833,0,0,0-.229-.609,1.474,1.474,0,0,0-.591-.357q-.362-.123-.969-.262a7.1,7.1,0,0,1-1.359-.444,2.2,2.2,0,0,1-.868-.694,1.8,1.8,0,0,1-.321-1.092,1.875,1.875,0,0,1,.339-1.1,2.139,2.139,0,0,1,.981-.742,4.018,4.018,0,0,1,1.51-.26,3.735,3.735,0,0,1,1.2.172,2.536,2.536,0,0,1,.84.457,1.912,1.912,0,0,1,.488.6,1.38,1.38,0,0,1,.154.611.723.723,0,0,1-.193.491.614.614,0,0,1-.48.218.553.553,0,0,1-.4-.131,1.781,1.781,0,0,1-.3-.429,1.94,1.94,0,0,0-.493-.665,1.441,1.441,0,0,0-.925-.239,1.6,1.6,0,0,0-.953.259.754.754,0,0,0-.362.624.631.631,0,0,0,.123.39,1.035,1.035,0,0,0,.339.283,2.29,2.29,0,0,0,.437.185q.221.067.729.2a11.456,11.456,0,0,1,1.154.329,3.507,3.507,0,0,1,.878.437,1.8,1.8,0,0,1,.565.65,2.082,2.082,0,0,1,.2.963" transform="translate(-1956.312 -1626.497)" fill="#ff765f"/>
        <path id="Trazado_803259" data-name="Trazado 803259" d="M2206.24,1781.162H2203.5a1.863,1.863,0,0,0,.193.843,1.29,1.29,0,0,0,1.184.735,1.684,1.684,0,0,0,.46-.059,1.5,1.5,0,0,0,.4-.185,3.051,3.051,0,0,0,.36-.27q.164-.144.427-.391a.46.46,0,0,1,.308-.093.508.508,0,0,1,.349.118.422.422,0,0,1,.134.334.911.911,0,0,1-.149.444,1.765,1.765,0,0,1-.45.488,2.559,2.559,0,0,1-.755.388,3.255,3.255,0,0,1-1.045.154,2.8,2.8,0,0,1-2.1-.771,2.869,2.869,0,0,1-.75-2.091,3.482,3.482,0,0,1,.185-1.153,2.541,2.541,0,0,1,.539-.912,2.339,2.339,0,0,1,.873-.583,3.136,3.136,0,0,1,1.151-.2,2.729,2.729,0,0,1,1.41.347,2.28,2.28,0,0,1,.881.9,2.36,2.36,0,0,1,.293,1.12q0,.529-.3.686a1.889,1.889,0,0,1-.853.157m-2.743-.8h2.543a1.7,1.7,0,0,0-.388-1.076,1.161,1.161,0,0,0-.886-.357,1.123,1.123,0,0,0-.86.362,1.8,1.8,0,0,0-.408,1.071" transform="translate(-2048.851 -1654.252)" fill="#ff765f"/>
        <path id="Trazado_803260" data-name="Trazado 803260" d="M2296.945,1781.781v1.171a.9.9,0,0,1-.2.64.668.668,0,0,1-.509.213.642.642,0,0,1-.5-.216.92.92,0,0,1-.2-.637v-3.9q0-.945.683-.945a.571.571,0,0,1,.5.221,1.218,1.218,0,0,1,.17.652,2.455,2.455,0,0,1,.516-.652,1.067,1.067,0,0,1,.707-.221,1.809,1.809,0,0,1,.858.221.66.66,0,0,1,.416.586.557.557,0,0,1-.177.424.55.55,0,0,1-.383.167,1.765,1.765,0,0,1-.373-.1,1.733,1.733,0,0,0-.521-.1.763.763,0,0,0-.5.162,1.038,1.038,0,0,0-.3.48,3.346,3.346,0,0,0-.149.758q-.041.439-.041,1.071" transform="translate(-2135.826 -1654.389)" fill="#ff765f"/>
        <path id="Trazado_803261" data-name="Trazado 803261" d="M2355.012,1778.976l1.135,3.185,1.223-3.324a1.978,1.978,0,0,1,.282-.568.517.517,0,0,1,.421-.167.633.633,0,0,1,.455.18.561.561,0,0,1,.188.416.845.845,0,0,1-.033.216,2,2,0,0,1-.077.231l-.1.246-1.346,3.339q-.056.144-.146.365a1.9,1.9,0,0,1-.2.377.789.789,0,0,1-.272.244.818.818,0,0,1-.393.087.761.761,0,0,1-.475-.136.917.917,0,0,1-.262-.3q-.085-.162-.285-.639l-1.336-3.3q-.047-.123-.095-.247a2.158,2.158,0,0,1-.083-.252.911.911,0,0,1-.033-.221.536.536,0,0,1,.087-.285.683.683,0,0,1,.241-.231.653.653,0,0,1,.334-.09.531.531,0,0,1,.48.2,3.186,3.186,0,0,1,.29.673" transform="translate(-2189.825 -1654.389)" fill="#ff765f"/>
        <path id="Trazado_803262" data-name="Trazado 803262" d="M2440.306,1781.162h-2.743a1.863,1.863,0,0,0,.193.843,1.29,1.29,0,0,0,1.184.735,1.683,1.683,0,0,0,.46-.059,1.5,1.5,0,0,0,.4-.185,3.069,3.069,0,0,0,.36-.27q.164-.144.427-.391a.46.46,0,0,1,.308-.093.508.508,0,0,1,.349.118.422.422,0,0,1,.134.334.913.913,0,0,1-.149.444,1.761,1.761,0,0,1-.45.488,2.562,2.562,0,0,1-.755.388,3.255,3.255,0,0,1-1.045.154,2.8,2.8,0,0,1-2.1-.771,2.869,2.869,0,0,1-.75-2.091,3.489,3.489,0,0,1,.185-1.153,2.548,2.548,0,0,1,.539-.912,2.34,2.34,0,0,1,.874-.583,3.135,3.135,0,0,1,1.151-.2,2.729,2.729,0,0,1,1.41.347,2.28,2.28,0,0,1,.881.9,2.357,2.357,0,0,1,.293,1.12q0,.529-.3.686a1.889,1.889,0,0,1-.853.157m-2.743-.8h2.543a1.706,1.706,0,0,0-.388-1.076,1.161,1.161,0,0,0-.886-.357,1.123,1.123,0,0,0-.861.362,1.8,1.8,0,0,0-.408,1.071" transform="translate(-2266.632 -1654.252)" fill="#ff765f"/>
        <path id="Trazado_803263" data-name="Trazado 803263" d="M2531.011,1781.781v1.171a.9.9,0,0,1-.2.64.668.668,0,0,1-.509.213.642.642,0,0,1-.5-.216.92.92,0,0,1-.2-.637v-3.9q0-.945.683-.945a.571.571,0,0,1,.5.221,1.218,1.218,0,0,1,.169.652,2.455,2.455,0,0,1,.516-.652,1.067,1.067,0,0,1,.707-.221,1.809,1.809,0,0,1,.858.221.66.66,0,0,1,.416.586.557.557,0,0,1-.177.424.55.55,0,0,1-.383.167,1.768,1.768,0,0,1-.373-.1,1.731,1.731,0,0,0-.521-.1.763.763,0,0,0-.5.162,1.042,1.042,0,0,0-.3.48,3.347,3.347,0,0,0-.149.758q-.041.439-.041,1.071" transform="translate(-2353.608 -1654.389)" fill="#ff765f"/>
        <path id="Trazado_803264" data-name="Trazado 803264" d="M2634.2,1781.162h-2.743a1.86,1.86,0,0,0,.193.843,1.29,1.29,0,0,0,1.184.735,1.683,1.683,0,0,0,.46-.059,1.494,1.494,0,0,0,.4-.185,3.069,3.069,0,0,0,.36-.27q.164-.144.427-.391a.46.46,0,0,1,.308-.093.508.508,0,0,1,.349.118.422.422,0,0,1,.134.334.913.913,0,0,1-.149.444,1.768,1.768,0,0,1-.449.488,2.563,2.563,0,0,1-.755.388,3.254,3.254,0,0,1-1.045.154,2.8,2.8,0,0,1-2.1-.771,2.869,2.869,0,0,1-.75-2.091,3.489,3.489,0,0,1,.185-1.153,2.544,2.544,0,0,1,.539-.912,2.338,2.338,0,0,1,.874-.583,3.135,3.135,0,0,1,1.151-.2,2.73,2.73,0,0,1,1.41.347,2.281,2.281,0,0,1,.881.9,2.357,2.357,0,0,1,.293,1.12q0,.529-.3.686a1.889,1.889,0,0,1-.853.157m-2.743-.8H2634a1.7,1.7,0,0,0-.388-1.076,1.161,1.161,0,0,0-.886-.357,1.123,1.123,0,0,0-.861.362,1.8,1.8,0,0,0-.408,1.071" transform="translate(-2447.039 -1654.252)" fill="#ff765f"/>
        <path id="Trazado_803265" data-name="Trazado 803265" d="M2724.909,1781.781v1.171a.9.9,0,0,1-.2.64.667.667,0,0,1-.508.213.642.642,0,0,1-.5-.216.92.92,0,0,1-.2-.637v-3.9q0-.945.683-.945a.57.57,0,0,1,.5.221,1.218,1.218,0,0,1,.17.652,2.45,2.45,0,0,1,.516-.652,1.067,1.067,0,0,1,.707-.221,1.809,1.809,0,0,1,.858.221.66.66,0,0,1,.416.586.557.557,0,0,1-.177.424.55.55,0,0,1-.383.167,1.768,1.768,0,0,1-.372-.1,1.733,1.733,0,0,0-.521-.1.763.763,0,0,0-.5.162,1.038,1.038,0,0,0-.3.48,3.347,3.347,0,0,0-.149.758q-.041.439-.041,1.071" transform="translate(-2534.015 -1654.389)" fill="#ff765f"/>
        <path id="Trazado_803266" data-name="Trazado 803266" d="M2789.149,1781.781v1.171a.9.9,0,0,1-.2.64.669.669,0,0,1-.509.213.642.642,0,0,1-.5-.216.921.921,0,0,1-.2-.637v-3.9q0-.945.683-.945a.57.57,0,0,1,.5.221,1.218,1.218,0,0,1,.17.652,2.45,2.45,0,0,1,.516-.652,1.066,1.066,0,0,1,.706-.221,1.808,1.808,0,0,1,.858.221.66.66,0,0,1,.416.586.557.557,0,0,1-.177.424.55.55,0,0,1-.383.167,1.768,1.768,0,0,1-.373-.1,1.731,1.731,0,0,0-.521-.1.763.763,0,0,0-.5.162,1.044,1.044,0,0,0-.3.48,3.361,3.361,0,0,0-.149.758q-.041.439-.041,1.071" transform="translate(-2593.785 -1654.389)" fill="#ff765f"/>
        <path id="Trazado_803267" data-name="Trazado 803267" d="M2849.151,1780.954a3.315,3.315,0,0,1-.2,1.156,2.552,2.552,0,0,1-.565.909,2.5,2.5,0,0,1-.884.583,3.125,3.125,0,0,1-1.156.2,3.036,3.036,0,0,1-1.146-.205,2.528,2.528,0,0,1-1.446-1.492,3.306,3.306,0,0,1-.193-1.153,3.341,3.341,0,0,1,.2-1.166,2.534,2.534,0,0,1,.56-.9,2.47,2.47,0,0,1,.884-.578,3.344,3.344,0,0,1,2.3,0,2.486,2.486,0,0,1,1.451,1.49,3.328,3.328,0,0,1,.193,1.156m-1.408,0a2.1,2.1,0,0,0-.378-1.336,1.226,1.226,0,0,0-1.015-.478,1.257,1.257,0,0,0-.724.213,1.352,1.352,0,0,0-.483.629,2.857,2.857,0,0,0,0,1.932,1.377,1.377,0,0,0,.478.629,1.24,1.24,0,0,0,.732.218,1.224,1.224,0,0,0,1.015-.48,2.1,2.1,0,0,0,.378-1.328" transform="translate(-2645.722 -1654.389)" fill="#ff765f"/>
        <path id="Trazado_803268" data-name="Trazado 803268" d="M2940.959,1781.781v1.171a.9.9,0,0,1-.2.64.668.668,0,0,1-.509.213.642.642,0,0,1-.5-.216.92.92,0,0,1-.2-.637v-3.9q0-.945.683-.945a.571.571,0,0,1,.5.221,1.218,1.218,0,0,1,.17.652,2.45,2.45,0,0,1,.516-.652,1.067,1.067,0,0,1,.707-.221,1.809,1.809,0,0,1,.858.221.66.66,0,0,1,.416.586.557.557,0,0,1-.177.424.55.55,0,0,1-.383.167,1.768,1.768,0,0,1-.373-.1,1.731,1.731,0,0,0-.521-.1.762.762,0,0,0-.5.162,1.038,1.038,0,0,0-.3.48,3.333,3.333,0,0,0-.149.758q-.041.439-.041,1.071" transform="translate(-2735.033 -1654.389)" fill="#ff765f"/>
        <path id="Trazado_803269" data-name="Trazado 803269" d="M1939.472,973.111h0a2.039,2.039,0,0,1,0-2.883l15.564-15.564a2.039,2.039,0,0,1,2.883,2.883l-15.564,15.564a2.039,2.039,0,0,1-2.883,0" transform="translate(-1803.975 -887.686)" fill="#5d8cf4"/>
        <path id="Trazado_803270" data-name="Trazado 803270" d="M1957.919,973.111h0a2.039,2.039,0,0,0,0-2.883l-15.564-15.564a2.039,2.039,0,0,0-2.883,2.883l15.564,15.564a2.039,2.039,0,0,0,2.883,0" transform="translate(-1803.975 -887.686)" fill="#5d8cf4"/>
        <path id="Trazado_803271" data-name="Trazado 803271" d="M2819.188,973.111h0a2.038,2.038,0,0,1,0-2.883l15.563-15.564a2.039,2.039,0,0,1,2.883,2.883l-15.564,15.564a2.039,2.039,0,0,1-2.883,0" transform="translate(-2622.483 -887.686)" fill="#5d8cf4"/>
        <path id="Trazado_803272" data-name="Trazado 803272" d="M2837.635,973.111h0a2.039,2.039,0,0,0,0-2.883l-15.564-15.564a2.039,2.039,0,0,0-2.883,2.883l15.563,15.564a2.039,2.039,0,0,0,2.883,0" transform="translate(-2622.483 -887.686)" fill="#5d8cf4"/>
        <path id="Trazado_803273" data-name="Trazado 803273" d="M2291.576,1450.673a2.087,2.087,0,0,1-1.859-1.135,15.921,15.921,0,0,0-28.3-.181,2.087,2.087,0,1,1-3.69-1.951,20.113,20.113,0,0,1,35.709.227,2.088,2.088,0,0,1-1.855,3.04" transform="translate(-2100.412 -1336.688)" fill="#5d8cf4"/>
        <path id="Trazado_803274" data-name="Trazado 803274" d="M1511.03,704.922a2.227,2.227,0,1,1-2.227-2.226,2.227,2.227,0,0,1,2.227,2.226" transform="translate(-1401.755 -653.805)" fill="#b3d9ff"/>
        <path id="Trazado_803275" data-name="Trazado 803275" d="M1611.474,704.922a2.226,2.226,0,1,1-2.226-2.226,2.226,2.226,0,0,1,2.226,2.226" transform="translate(-1495.21 -653.805)" fill="#b3d9ff"/>
        <path id="Trazado_803276" data-name="Trazado 803276" d="M1711.919,704.922a2.227,2.227,0,1,1-2.227-2.226,2.226,2.226,0,0,1,2.227,2.226" transform="translate(-1588.667 -653.805)" fill="#b3d9ff"/>
        <path id="Trazado_803277" data-name="Trazado 803277" d="M1602.38,792.558H1448.759a.4.4,0,0,1,0-.808H1602.38a.4.4,0,0,1,0,.808" transform="translate(-1347.584 -736.663)" fill="#b3d9ff"/>
        <path id="Trazado_803278" data-name="Trazado 803278" d="M1704.332,980.614a2.6,2.6,0,0,0,.712.13l.327-.627.792-.052c.044.064.094.134.139.206.086.137.168.276.253.414.17-.045.655-.218.693-.233-.012-.255-.024-.492-.035-.732l.668-.447.664.33.47-.53c-.1-.164-.211-.314-.307-.468-.033-.053-.065-.107-.094-.162l.352-.707.744-.03.081-.387.066-.313-.657-.336a7.546,7.546,0,0,1-.028-.811l.582-.392a3.244,3.244,0,0,0-.218-.687l-.711.034c-.155-.215-.309-.449-.453-.683l.306-.6c-.043-.127-.2-.278-.521-.513l-.6.4-.719-.356c-.016-.241-.033-.482-.05-.736a4.321,4.321,0,0,0-.7-.14l-.328.646-.8.04-.39-.591a3.192,3.192,0,0,0-.684.229l.035.717-.675.438-.64-.315a2.665,2.665,0,0,0-.47.516.8.8,0,0,0,.052.115c.08.123.16.247.246.366a.327.327,0,0,1,.074.175l-.179.356-.167.333-.727.034a2.731,2.731,0,0,0-.133.715l.144.072.48.239c.017.264.034.527.052.8l-.608.409a3.388,3.388,0,0,0,.23.681l.719-.033c.146.231.314.442.438.686l-.3.608a1.682,1.682,0,0,0,.515.49c.038-.021.083-.044.125-.07.129-.081.256-.164.385-.244.042-.026.088-.047.124-.066l.7.351.037.73m.393-4.287a.854.854,0,1,1,.7.987.853.853,0,0,1-.7-.987" transform="translate(-1582.924 -904.544)" fill="#b3d9ff"/>
        <path id="Trazado_803279" data-name="Trazado 803279" d="M1772.507,1712.671l.446.818c-.047.078-.1.166-.151.249-.1.159-.211.316-.317.473.131.159.555.591.59.623l.762-.4.805.491c-.008.29-.016.572-.024.87l.8.239c.124-.189.231-.379.347-.557.04-.062.082-.122.126-.18h.012l.864.025c.136.251.294.531.419.763a3.263,3.263,0,0,0,.711-.143v0l.136-.031c.012-.3.023-.578.034-.865a8.779,8.779,0,0,1,.849-.429l.7.426a3.8,3.8,0,0,0,.625-.571l-.386-.74c.153-.271.326-.551.5-.819l.789.03a1.637,1.637,0,0,0,.29-.808l-.721-.443.025-.941.76-.417c-.041-.214-.079-.427-.14-.638-.018-.061-.037-.121-.059-.181l-.849-.031-.438-.834.437-.707a3.744,3.744,0,0,0-.581-.616l-.747.39-.8-.5c.007-.292.013-.562.02-.837a3.129,3.129,0,0,0-.781-.246.987.987,0,0,0-.1.112c-.092.146-.184.292-.268.443a.383.383,0,0,1-.15.166l-.467-.015-.437-.014-.4-.758a4.9,4.9,0,0,0-.661.143,1.443,1.443,0,0,0-.166.068c0,.064,0,.126-.005.189-.006.21-.011.417-.017.629l-.83.451-.735-.447a3.97,3.97,0,0,0-.612.58l.389.75c-.174.27-.315.552-.515.8l-.8-.025a1.979,1.979,0,0,0-.268.79c.042.03.087.067.136.1.149.1.3.192.45.29.049.032.093.07.131.1-.01.324-.019.63-.028.92l-.759.4a4.091,4.091,0,0,0,.157.7,1.374,1.374,0,0,0,.055.127l.829.039m.9-.7a3.2,3.2,0,0,1,2.191-3.962l.009,0a3.2,3.2,0,0,1,1.771,6.153l-.009,0a3.2,3.2,0,0,1-3.962-2.191" transform="translate(-1648.214 -1587.367)" fill="#b3d9ff"/>
        <path id="Trazado_803280" data-name="Trazado 803280" d="M3277.872,1261.5l.953,1.425-.669,1.375a6.8,6.8,0,0,0,1.148,1.022l1.26-.829,1.536.752c.033.5.066,1.011.1,1.539a9.192,9.192,0,0,0,1.5.318l.717-1.4,1.707-.094.841,1.286a2.973,2.973,0,0,0,1.452-.567l-.095-1.431c.478-.336.976-.666,1.461-.957l1.362.664a6.914,6.914,0,0,0,1-1.163l-.81-1.256a15.991,15.991,0,0,1,.735-1.564l1.568-.105.3-1.5-1.432-.683c-.019-.33-.037-.657-.056-.986-.013-.229-.026-.458-.04-.694.1-.083.21-.161.32-.238.317-.22.657-.423.993-.659l-.475-1.433-1.577.089-.933-1.436.683-1.4c-.061-.062-.866-.809-1.161-1.039-.281.2-.56.4-.842.6-.149.1-.305.2-.445.287l-1.507-.768c-.039-.507-.075-1-.114-1.5a5.54,5.54,0,0,0-1.5-.343l-.685,1.4-1.668.1c-.056-.068-.128-.146-.188-.233-.185-.265-.365-.535-.549-.8-.061-.087-.129-.168-.187-.242a3.586,3.586,0,0,0-1.42.527c.028.473.057.952.086,1.446-.446.375-.951.645-1.432.975l-1.38-.668a7.2,7.2,0,0,0-1.021,1.14l.794,1.228.054.083-.775,1.529-1.483.083a5.828,5.828,0,0,0-.34,1.511l1.4.678q.023.392.047.791.025.42.051.848a.693.693,0,0,1-.292.281c-.269.16-.529.334-.79.509a1.775,1.775,0,0,0-.2.182,5.69,5.69,0,0,0,.487,1.4l1.518-.079m3.176-6.475a4.741,4.741,0,1,1,.824,6.654,4.741,4.741,0,0,1-.824-6.654" transform="translate(-3047.746 -1161.924)" fill="#b3d9ff"/>
        <path id="Trazado_803281" data-name="Trazado 803281" d="M3362.093,1334.564a3.562,3.562,0,1,0-5,.619,3.561,3.561,0,0,0,5-.619m-5.171-3.454a2.679,2.679,0,1,1,1.1,3.624,2.679,2.679,0,0,1-1.1-3.624" transform="translate(-3122.243 -1236.359)" fill="#b3d9ff"/>
        <path id="Trazado_803282" data-name="Trazado 803282" d="M3265.705,1516.259l-11.735-5,3.245,11.588,2.192-3.454,3.143,3.646,2.226-2.091-3.122-3.3Z" transform="translate(-3027.57 -1406.115)" fill="#fff"/>
        <path id="Trazado_803283" data-name="Trazado 803283" d="M3257.341,1518.228h-.021a.39.39,0,0,1-.274-.135l-2.8-3.249-1.911,3.01a.389.389,0,0,1-.7-.1l-3.245-11.588a.389.389,0,0,1,.528-.463l11.735,5a.389.389,0,0,1-.026.726l-3.48,1.2,2.707,2.86a.389.389,0,0,1-.016.551l-2.226,2.091a.388.388,0,0,1-.267.106m-3.143-4.425a.39.39,0,0,1,.295.135l2.877,3.339,1.645-1.546-2.854-3.015a.389.389,0,0,1,.156-.636l3.094-1.065-10.057-4.281,2.791,9.966,1.724-2.716a.389.389,0,0,1,.3-.179h.028" transform="translate(-3022.362 -1400.909)" fill="#5d8cf4"/>
        <path id="Trazado_803284" data-name="Trazado 803284" d="M3287.342,1908.2H3241.4l11.486-28.462,8.6-21.323a3.02,3.02,0,0,1,5.762,0l8.6,21.323Z" transform="translate(-3015.874 -1727.143)" fill="#c2e2ff"/>
        <path id="Trazado_803285" data-name="Trazado 803285" d="M3242.212,2610.842h-48.228a2.318,2.318,0,0,1-2.318-2.318v-3.961a2.318,2.318,0,0,1,2.318-2.318h48.228a2.318,2.318,0,0,1,2.318,2.318v3.961a2.318,2.318,0,0,1-2.318,2.318" transform="translate(-2969.601 -2421.19)" fill="#75a4e8"/>
        <path id="Trazado_803286" data-name="Trazado 803286" d="M3332.081,2372.028l-38.706.012,2.977-7.376,32.673-.207,3.056,7.572" transform="translate(-3064.234 -2199.946)" fill="#91cbff"/>
        <path id="Trazado_803287" data-name="Trazado 803287" d="M3402.048,2170.611l-27.3.214,2.972-7.364,21.368-.187,2.961,7.337" transform="translate(-3139.944 -2012.761)" fill="#91cbff"/>
        <path id="Trazado_803288" data-name="Trazado 803288" d="M594.678,487.518a.926.926,0,0,1-.8-1.389l28.491-49.348a.926.926,0,0,1,1.6,0l12.171,21.081a60.448,60.448,0,0,0,2.525-11.433l-10.056-17.418a6.284,6.284,0,0,0-10.884,0l-33.169,57.45A6.284,6.284,0,0,0,590,495.888h7.981a62.278,62.278,0,0,0,16.3-8.369Z" transform="translate(-543.095 -396.24)" fill="#ff765f"/>
        <path id="Trazado_803289" data-name="Trazado 803289" d="M852.67,761.407l-23.112-40.032a60.445,60.445,0,0,1-2.525,11.432l16.32,28.267a.926.926,0,0,1-.8,1.389H805.173a62.28,62.28,0,0,1-16.3,8.369h58.356a6.284,6.284,0,0,0,5.442-9.426" transform="translate(-733.985 -671.185)" fill="#ff765f"/>
        <path id="Trazado_803290" data-name="Trazado 803290" d="M1036.077,902.771a5.717,5.717,0,0,1-.055,7.756,5.238,5.238,0,0,1-3.9,1.569,5.539,5.539,0,0,1-3.53-1.14,60.73,60.73,0,0,1-5.43,4.391h37.377a.926.926,0,0,0,.8-1.389l-16.32-28.267a57.921,57.921,0,0,1-6.756,13.991c-.7,1.058-1.432,2.085-2.191,3.089" transform="translate(-951.977 -824.068)" fill="#fff"/>
        <path id="Trazado_803291" data-name="Trazado 803291" d="M756.677,576.5l-28.491,49.348a.926.926,0,0,0,.8,1.389h19.6a60.743,60.743,0,0,0,5.43-4.391,5.432,5.432,0,0,1-.49-.429,5.655,5.655,0,0,1,0-7.818,5.4,5.4,0,0,1,4.02-1.593,5.2,5.2,0,0,1,3.9,1.593c.02.02.036.042.055.062.759-1,1.492-2.031,2.191-3.089a57.921,57.921,0,0,0,6.756-13.991L758.281,576.5a.926.926,0,0,0-1.6,0m4.209,33.957h-6.863l-1.618-19.411h10.049Z" transform="translate(-677.405 -535.962)" fill="#fff"/>
        <path id="Trazado_803292" data-name="Trazado 803292" d="M1081.166,1109.034c-.019-.02-.036-.042-.055-.062a5.2,5.2,0,0,0-3.9-1.593,5.4,5.4,0,0,0-4.02,1.593,5.656,5.656,0,0,0,0,7.818,5.449,5.449,0,0,0,.49.429,59.794,59.794,0,0,0,7.482-8.185" transform="translate(-997.066 -1030.332)" fill="#ff765f"/>
        <path id="Trazado_803293" data-name="Trazado 803293" d="M1108.632,1138.926a5.717,5.717,0,0,0,.055-7.756,59.8,59.8,0,0,1-7.482,8.185,5.539,5.539,0,0,0,3.53,1.14,5.238,5.238,0,0,0,3.9-1.569" transform="translate(-1024.587 -1052.468)" fill="#ff765f"/>
        <path id="Trazado_803294" data-name="Trazado 803294" d="M1079.579,811.162h6.863l1.568-19.411h-10.049Z" transform="translate(-1002.961 -736.663)" fill="#ff765f"/>
        <path id="Trazado_803295" data-name="Trazado 803295" d="M3169.6,29.283a7.831,7.831,0,0,0-3.214-2.9c-2.777-1.187-14.32.084-14.935.645-.117-.524-2.9-12.413-10.209-14.51-5.187-1.488-10.487,2.575-13.423,10.318-.562-.526-4.939-4.46-9.453-.967a14.626,14.626,0,0,0-4.159,6.126,18.118,18.118,0,0,1-5.1.967,18.233,18.233,0,0,1-7.519-1.332,8.373,8.373,0,0,0-8.775,1.584L3090,31.54h80.009q-.208-1.128-.416-2.257" transform="translate(-2875.012 -11.363)" fill="#c2e2ff"/>
        <path id="Trazado_803296" data-name="Trazado 803296" d="M100.785,204.3a2.289,2.289,0,0,1-2.253-2.475,3.848,3.848,0,0,1,1.654-2.946,3.739,3.739,0,0,1,4.612.561,7.142,7.142,0,0,1,2.894-5.141c2.508-1.609,6.145-1.048,8.591,1.589a10.009,10.009,0,0,1,7.144-9.441,9.321,9.321,0,0,1,10.49,4.487,9.022,9.022,0,0,1,.9,4.861,3.876,3.876,0,0,1,4.7,0A4.175,4.175,0,0,1,140.968,200a5.237,5.237,0,0,1,6.33.187l.051.045a2.342,2.342,0,0,1-1.509,4.068Z" transform="translate(-91.67 -173.192)" fill="#c2e2ff"/>
        <path id="Trazado_803297" data-name="Trazado 803297" d="M370.789,2725.416h0l-285.474-.15a.7.7,0,0,1,0-1.392h0l285.474.15a.7.7,0,0,1,0,1.391" transform="translate(-78.732 -2534.357)" fill="#1d1d1b"/>
        <path id="Trazado_803298" data-name="Trazado 803298" d="M1363.213,6.378A6.374,6.374,0,1,1,1356.838,0a6.374,6.374,0,0,1,6.374,6.374" transform="translate(-1256.504 -0.004)" fill="#5d8cf4"/>
        <path id="Trazado_803299" data-name="Trazado 803299" d="M3964.2,1453.311a6.374,6.374,0,1,1-6.374-6.374,6.374,6.374,0,0,1,6.374,6.374" transform="translate(-3676.525 -1346.265)" fill="#ff765f"/>
        <path id="Trazado_803300" data-name="Trazado 803300" d="M4.411,1228.441a4.411,4.411,0,1,1,4.411-4.411,4.416,4.416,0,0,1-4.411,4.411m0-8.129a3.717,3.717,0,1,0,3.717,3.717,3.722,3.722,0,0,0-3.717-3.717" transform="translate(0 -1134.762)" fill="#b3d9ff"/>
        <path id="Trazado_803301" data-name="Trazado 803301" d="M3984.22,666.926a4.4,4.4,0,1,1,4.4-4.4,4.406,4.406,0,0,1-4.4,4.4m0-8.108a3.707,3.707,0,1,0,3.707,3.707,3.711,3.711,0,0,0-3.707-3.707" transform="translate(-3702.918 -612.334)" fill="#b3d9ff"/>
        <path id="Trazado_803302" data-name="Trazado 803302" d="M2530.723,131.274a4.507,4.507,0,1,1-4.507-4.507,4.507,4.507,0,0,1,4.507,4.507" transform="translate(-2346.257 -117.947)" fill="#ff765f"/>
        <path id="Trazado_803303" data-name="Trazado 803303" d="M1594.279,2506.56a3.616,3.616,0,1,1-3.616-3.616,3.616,3.616,0,0,1,3.616,3.616" transform="translate(-1476.626 -2328.798)" fill="#5d8cf4"/>
      </g>
    </g>
  </g>
</svg>
