<svg xmlns="http://www.w3.org/2000/svg" xmlns:xlink="http://www.w3.org/1999/xlink" width="295" height="250" viewBox="0 0 295 250">
  <defs>
    <clipPath id="clip-path">
      <rect id="Rectángulo_375434" data-name="Rectángulo 375434" width="291.252" height="215.047" fill="none"/>
    </clipPath>
  </defs>
  <g id="Grupo_1068011" data-name="Grupo 1068011" transform="translate(-390 -5722)">
    <rect id="Rectángulo_375445" data-name="Rectángulo 375445" width="295" height="250" transform="translate(390 5722)" fill="none"/>
    <g id="Grupo_1068010" data-name="Grupo 1068010" transform="translate(391.874 5739.384)">
      <g id="Grupo_1067993" data-name="Grupo 1067993" clip-path="url(#clip-path)">
        <path id="Trazado_803304" data-name="Trazado 803304" d="M268.906,217.228H49.451a13.766,13.766,0,0,1-13.766-13.767V47.559A13.766,13.766,0,0,1,49.451,33.792H268.906a13.767,13.767,0,0,1,13.767,13.767v155.9a13.767,13.767,0,0,1-13.767,13.767" transform="translate(-2.669 -2.527)" fill="#fff"/>
        <path id="Trazado_803305" data-name="Trazado 803305" d="M283.253,65.912H36.265V44.928A11.136,11.136,0,0,1,47.4,33.792H269.61a13.643,13.643,0,0,1,13.643,13.644Z" transform="translate(-2.712 -2.527)" fill="#e0e0e0"/>
        <path id="Trazado_803306" data-name="Trazado 803306" d="M55.593,49.783a3.634,3.634,0,1,1-3.634-3.634,3.635,3.635,0,0,1,3.634,3.634" transform="translate(-3.614 -3.451)" fill="#fff"/>
        <path id="Trazado_803307" data-name="Trazado 803307" d="M67.429,49.783a3.634,3.634,0,1,1-3.634-3.634,3.634,3.634,0,0,1,3.634,3.634" transform="translate(-4.499 -3.451)" fill="#fff"/>
        <path id="Trazado_803308" data-name="Trazado 803308" d="M79.264,49.783a3.634,3.634,0,1,1-3.634-3.634,3.634,3.634,0,0,1,3.634,3.634" transform="translate(-5.384 -3.451)" fill="#fff"/>
        <path id="Trazado_803309" data-name="Trazado 803309" d="M269.467,217.209s.183-.017.544-.039a11.219,11.219,0,0,0,1.605-.169,13.758,13.758,0,0,0,11.272-10.807,36.768,36.768,0,0,0,.266-6.555q0-3.525-.01-7.5c-.018-21.205-.043-51.882-.073-89.787q-.008-14.216-.016-29.751,0-7.759-.007-15.826,0-4.033,0-8.14a17.356,17.356,0,0,0-.337-4.058,13.5,13.5,0,0,0-1.488-3.8,13.086,13.086,0,0,0-2.579-3.211,12.768,12.768,0,0,0-3.452-2.31,13.088,13.088,0,0,0-4.023-1.159,39.331,39.331,0,0,0-4.272-.117l-17.544.006-36.62.01-163.059.019H48.316c-.441.029-.886.032-1.326.08a11.8,11.8,0,0,0-9.82,7.811,11.73,11.73,0,0,0-.6,2.556,23.029,23.029,0,0,0-.092,2.65v21.28q0,21.13,0,41.6c0,27.277-.009,53.588-.014,78.651q0,4.7,0,9.34,0,2.32,0,4.625c-.014.773.031,1.524.078,2.277L36.7,206c.058.372.178.731.264,1.1a13.637,13.637,0,0,0,8.909,9.262,14.886,14.886,0,0,0,4.339.649l34.544.012,62.005.028,89.782.074,24.409.043,6.348.023c1.43.007,2.163.023,2.163.023s-.733.016-2.163.024l-6.348.023-24.409.043-89.782.073-62.005.029-34.544.011a15.315,15.315,0,0,1-4.464-.666,14.055,14.055,0,0,1-9.186-9.54c-.089-.377-.211-.748-.272-1.131l-.176-1.152c-.05-.774-.094-1.557-.08-2.32q0-2.305,0-4.625,0-4.639,0-9.34c0-25.063-.009-51.374-.014-78.651q0-20.457,0-41.6,0-10.564,0-21.28a23.334,23.334,0,0,1,.093-2.7,12.2,12.2,0,0,1,.625-2.657,12.346,12.346,0,0,1,10.2-8.117c.457-.05.919-.054,1.378-.082h1.355l163.059.019,36.62.009,17.544.006a39.715,39.715,0,0,1,4.321.122,13.471,13.471,0,0,1,4.138,1.2,13.176,13.176,0,0,1,3.549,2.38,13.489,13.489,0,0,1,2.651,3.3,13.9,13.9,0,0,1,1.527,3.915,17.767,17.767,0,0,1,.343,4.14q0,4.107,0,8.14,0,8.065-.006,15.826-.008,15.519-.016,29.751c-.031,37.905-.055,68.582-.073,89.787q-.006,3.976-.01,7.5a36.854,36.854,0,0,1-.291,6.583,13.834,13.834,0,0,1-5.554,8.467,13.619,13.619,0,0,1-5.846,2.36,10.329,10.329,0,0,1-1.612.145c-.362.015-.545.016-.545.016" transform="translate(-2.693 -2.508)" fill="#263238"/>
        <path id="Trazado_803310" data-name="Trazado 803310" d="M133.95,15.63c-3.061-1.943-3.8-6.45-2.141-9.672S136.987.776,140.565.2A16.686,16.686,0,0,1,154.94,4.962c1.975,2.035,3.575,4.687,6.254,5.62,2.354.819,4.957.08,7.43.4a11.212,11.212,0,0,1,7.852,5.661,24.2,24.2,0,0,1,2.792,9.55c.36,3.045.6,6.387,2.711,8.609,2.06,2.167,5.314,2.626,7.876,4.168a10.781,10.781,0,0,1,3.2,14.726c-1.014,1.479-2.47,2.837-2.588,4.626-.107,1.635.949,3.089,1.444,4.651a7.279,7.279,0,0,1-6.227,9.037c-2.125.122-4.4-.707-6.307.243s-2.6,3.225-3.806,4.96a9.1,9.1,0,0,1-11.1,2.865c-1.564-.767-3.039-2.032-4.776-1.915s-3.1,1.6-4.8,1.927c-2.233.431-4.354-1.213-5.682-3.06s-2.253-4.022-3.953-5.534c-2.224-1.979-5.351-2.468-8.167-3.437a23.038,23.038,0,0,1-13.01-32.273" transform="translate(-9.093 0)" fill="#263238"/>
        <path id="Trazado_803311" data-name="Trazado 803311" d="M169.848,60a6.247,6.247,0,0,1,2.484-1.634l-.191-.012a3.63,3.63,0,0,1,.532-.09,2.468,2.468,0,0,1,1.941.24H174.6a4.6,4.6,0,0,1,2.513,2.187,5.437,5.437,0,0,1-.64,5.6,4.156,4.156,0,0,1-7.627-1.428A5.159,5.159,0,0,1,169.848,60" transform="translate(-12.61 -4.35)" fill="#455a64"/>
        <path id="Trazado_803312" data-name="Trazado 803312" d="M125.844,85.921l-3.06-56.165a5.068,5.068,0,0,1,4.386-5.266l26.69-7.559c8.584-1.155,14.609,9.284,15.4,17.909.878,9.582,1.571,21.315.637,28.511-1.878,14.468-13.731,16.658-13.731,16.658,0-.049-.087,3.64,0,8.875l-5.448,17.8Z" transform="translate(-9.181 -1.259)" fill="#ffc09d"/>
        <path id="Trazado_803313" data-name="Trazado 803313" d="M168.7,49.4a1.848,1.848,0,0,1-1.728,1.914,1.768,1.768,0,0,1-1.951-1.612,1.849,1.849,0,0,1,1.726-1.915A1.769,1.769,0,0,1,168.7,49.4" transform="translate(-12.34 -3.573)" fill="#263238"/>
        <path id="Trazado_803314" data-name="Trazado 803314" d="M169.861,42.825c-.222.248-1.651-.748-3.638-.687-1.986.033-3.416,1.1-3.639.86-.109-.1.112-.546.734-1.026a5.069,5.069,0,0,1,2.9-.986,4.868,4.868,0,0,1,2.905.847c.625.452.844.881.734.992" transform="translate(-12.156 -3.065)" fill="#263238"/>
        <path id="Trazado_803315" data-name="Trazado 803315" d="M149.664,49.708a1.847,1.847,0,0,1-1.728,1.914,1.767,1.767,0,0,1-1.95-1.612,1.848,1.848,0,0,1,1.726-1.915,1.769,1.769,0,0,1,1.953,1.613" transform="translate(-10.917 -3.596)" fill="#263238"/>
        <path id="Trazado_803316" data-name="Trazado 803316" d="M148.756,43.826c-.223.247-1.653-.749-3.64-.687-1.986.033-3.415,1.1-3.638.86-.108-.1.11-.546.735-1.026a5.07,5.07,0,0,1,2.9-.987,4.881,4.881,0,0,1,2.905.848c.623.452.844.882.735.993" transform="translate(-10.578 -3.14)" fill="#263238"/>
        <path id="Trazado_803317" data-name="Trazado 803317" d="M157.482,58.348a13.135,13.135,0,0,1,3.211-.674c.506-.067.984-.181,1.059-.53a2.583,2.583,0,0,0-.381-1.494q-.769-1.822-1.611-3.822c-2.241-5.444-3.879-9.925-3.658-10.014s2.215,4.252,4.456,9.7q.809,2.014,1.548,3.847a2.933,2.933,0,0,1,.32,1.985,1.275,1.275,0,0,1-.813.766,3.468,3.468,0,0,1-.86.144,12.919,12.919,0,0,1-3.272.1" transform="translate(-11.672 -3.127)" fill="#263238"/>
        <path id="Trazado_803318" data-name="Trazado 803318" d="M157.364,84.737A34.59,34.59,0,0,1,138.8,80.1s4.169,10.712,18.545,8.955Z" transform="translate(-10.379 -5.99)" fill="#ff9b6c"/>
        <path id="Trazado_803319" data-name="Trazado 803319" d="M156.852,64.638a4.893,4.893,0,0,0-4.087-2.022,3.189,3.189,0,0,0-2.576,1.5,2.92,2.92,0,0,0,3.4,4.279,7.257,7.257,0,0,0,2.876-1.893,2.265,2.265,0,0,0,.608-.762,1.013,1.013,0,0,0-.106-1.006" transform="translate(-11.202 -4.682)" fill="#ff9b6c"/>
        <path id="Trazado_803320" data-name="Trazado 803320" d="M151.291,61.351c.323-.028.388,2.129,2.279,3.608s4.179,1.176,4.205,1.478c.033.134-.5.433-1.47.488a5.384,5.384,0,0,1-3.508-1.111,4.684,4.684,0,0,1-1.772-3.03c-.107-.9.117-1.441.266-1.432" transform="translate(-11.292 -4.588)" fill="#263238"/>
        <path id="Trazado_803321" data-name="Trazado 803321" d="M149.313,34.992c-.18.546-2.172.346-4.5.694-2.332.3-4.192,1.036-4.516.56-.144-.228.169-.745.914-1.29A7.909,7.909,0,0,1,148.081,34c.866.321,1.308.733,1.231.992" transform="translate(-10.489 -2.513)" fill="#263238"/>
        <path id="Trazado_803322" data-name="Trazado 803322" d="M168.936,35.444c-.337.461-1.719.031-3.367.056-1.647-.033-3.032.39-3.366-.073-.147-.226.059-.684.657-1.129a4.876,4.876,0,0,1,5.425.014c.595.447.8.907.651,1.132" transform="translate(-12.126 -2.504)" fill="#263238"/>
        <path id="Trazado_803323" data-name="Trazado 803323" d="M179.92,31.223a9.9,9.9,0,0,0-3.8-5.45,36.816,36.816,0,0,1-3.207-1.866c-2.081-1.679-2.563-4.6-3.848-6.95a10.88,10.88,0,0,0-8.287-5.5c-2.854-.291-5.795.565-8.577-.136-2.056-.519-3.853-1.854-5.935-2.249-4.057-.772-7.829,2.14-10.77,5.039-.011,2.9,2.3,4.846,4.53,6.711a10.075,10.075,0,0,0,8.155,2.152c2.217-.405,4.646-1.526,6.564-.344,2.018,1.242,2.1,4.283,3.891,5.837,2.557,2.22,6.624.137,9.87,1.1,2.507.744,4.074,3.14,5.739,5.156s4.161,3.933,6.668,3.189a29.4,29.4,0,0,0-.995-6.689" transform="translate(-10.133 -0.669)" fill="#263238"/>
        <path id="Trazado_803324" data-name="Trazado 803324" d="M146.656,19.041c-1.819-.52-5.54-1.7-6.516-3.275-2.118-3.427-5.854-5.766-9.67-5.558a9.178,9.178,0,0,0-8.261,7.253,13.193,13.193,0,0,0-11.339,7.3,13.786,13.786,0,0,0-.72,1.692,10.035,10.035,0,0,0-.672,8.427c.629,1.643,1.7,3.47.856,5.013-.86,1.571-3.033,1.62-4.726,2.2a6.665,6.665,0,0,0-4.2,7.444c.235,1.093.758,2.184.53,3.278-.237,1.139-1.212,1.944-1.961,2.834a8.295,8.295,0,0,0,4.864,13.5c1.293.236,2.7.181,3.817.871,1.284.79,1.847,2.335,2.753,3.541a7.156,7.156,0,0,0,7.753,2.428,6.546,6.546,0,0,0,1.558-.784,5.136,5.136,0,0,0,4.552,2.016l-.534-30.369a2.513,2.513,0,0,0,1.841,1.442c4.873,1.1,5.586-8.941,4.5-11.664a28.322,28.322,0,0,0,4.891-5.142c1.345-1.989,2.53-7.412,2.244-9.854,1.757.1,9.24-2.369,8.442-2.6" transform="translate(-7.332 -0.762)" fill="#263238"/>
        <path id="Trazado_803325" data-name="Trazado 803325" d="M127.615,52.246c-.155-3.087-3.931-3.747-6.607-2.2-1.468.849-2.592,2.556-2.457,5.834.36,8.739,9.059,6.575,9.064,6.324,0-.156.18-6.343,0-9.957" transform="translate(-8.865 -3.682)" fill="#ffc09d"/>
        <path id="Trazado_803326" data-name="Trazado 803326" d="M124.989,59.238c-.04-.026-.148.113-.4.241a1.525,1.525,0,0,1-1.137.07c-.936-.3-1.775-1.735-1.882-3.308a5.033,5.033,0,0,1,.337-2.2,1.759,1.759,0,0,1,1.1-1.216.777.777,0,0,1,.916.38c.127.24.079.416.126.429.025.021.181-.155.1-.512a.975.975,0,0,0-.366-.534,1.151,1.151,0,0,0-.851-.188,2.139,2.139,0,0,0-1.534,1.42,5.172,5.172,0,0,0-.427,2.457c.128,1.759,1.1,3.37,2.376,3.682a1.633,1.633,0,0,0,1.382-.288c.263-.228.3-.425.269-.439" transform="translate(-9.045 -3.918)" fill="#ff9b6c"/>
        <path id="Trazado_803327" data-name="Trazado 803327" d="M135.9,17.2a5.218,5.218,0,0,0-1.743,1.46c-.866,1.191-1.191,3.472-.643,6.044l.047.22-.216.054a8.45,8.45,0,0,0-5.63,4.96,6.558,6.558,0,0,0-.452,2.132,12.914,12.914,0,0,0,.273,2.309,17.339,17.339,0,0,1,.333,2.487,4.11,4.11,0,0,1-.692,2.579c-1.087,1.653-2.834,2.468-4.336,3.257a14.689,14.689,0,0,0-4.057,2.658,10.92,10.92,0,0,0-3.264,7.322,11.394,11.394,0,0,0,1.152,5.4c.58,1.194,1.068,1.763,1.018,1.8-.017.013-.143-.122-.373-.393a9.309,9.309,0,0,1-.859-1.294,11.1,11.1,0,0,1-1.374-5.523,11.238,11.238,0,0,1,3.3-7.714,15.058,15.058,0,0,1,4.182-2.792c1.5-.789,3.148-1.6,4.093-3.055.969-1.327.536-3.059.281-4.624a13.169,13.169,0,0,1-.269-2.425,7.085,7.085,0,0,1,.511-2.332,8.859,8.859,0,0,1,6.056-5.193l-.167.275c-.518-2.7-.108-5.057.881-6.3a3.683,3.683,0,0,1,1.367-1.115,2.128,2.128,0,0,1,.582-.2" transform="translate(-8.606 -1.286)" fill="#455a64"/>
        <path id="Trazado_803328" data-name="Trazado 803328" d="M121.689,63.178a6.255,6.255,0,0,1,2.484-1.633l-.191-.012a3.4,3.4,0,0,1,.532-.09,2.464,2.464,0,0,1,1.941.24l-.019,0a4.593,4.593,0,0,1,2.513,2.187,5.439,5.439,0,0,1-.64,5.6,4.156,4.156,0,0,1-7.627-1.428,5.159,5.159,0,0,1,1.006-4.866" transform="translate(-9.009 -4.588)" fill="#455a64"/>
        <path id="Trazado_803329" data-name="Trazado 803329" d="M266.209,100.317s6.853-9.41,9.272-9.69,17.562.279,19.691,0,14.1-5.6,14.1-5.6,2.129.754,1.862,2.758-13.57,9.566-15.166,9.846S281.6,98.9,281.6,98.9l-7.739,12.163Z" transform="translate(-19.907 -6.358)" fill="#ffc09d"/>
        <path id="Trazado_803330" data-name="Trazado 803330" d="M254.7,97.5l-28.943,28.534-41.131-25.726a17.488,17.488,0,0,0-7.641-2.577l-16.136-1.658L154.37,90.04,149.106,107.4,123.238,87.468l-4.8,9.013L101.2,104.743l16.523,81.2s-.1,1.268-3.646,11.255c-1.059,2.985-5.059,17.7-4.363,23.762l44.706.38,46.453-.228L192.5,193.057l-4.934-21.688c1.249-26.572,1.89-30.827.593-37.364l0,.01s26.994,15.837,40.334,17.361c2.075.237,7.863-2.536,10.594-5.748,10.938-12.874,29.7-35.963,29.7-35.963Z" transform="translate(-7.568 -6.541)" fill="#a8c6ff"/>
        <path id="Trazado_803331" data-name="Trazado 803331" d="M108.724,146.774l-7,25.842,47.155,25.095-9.02,18.591-55.827-22.2a16.872,16.872,0,0,1-7.755-6c-2.215-3.232-3.889-7.12-1.684-14.3l12.015-45.077c.763-2.864,2.072-7.392,3.4-11.112a22.157,22.157,0,0,1,6.011-9.174,21.269,21.269,0,0,1,3.116-2.308" transform="translate(-5.5 -7.937)" fill="#a8c6ff"/>
        <path id="Trazado_803332" data-name="Trazado 803332" d="M99.115,106.139s-.188.13-.557.378-.911.627-1.584,1.169a20.823,20.823,0,0,0-4.883,5.665c-1.714,2.782-2.81,6.636-4.145,11.04-1.291,4.423-2.555,9.522-4.064,15.128l-4.863,18.356L76.306,168.1q-.7,2.635-1.419,5.347a24.588,24.588,0,0,0-1.1,5.516,13.057,13.057,0,0,0,.8,5.629,15.208,15.208,0,0,0,1.331,2.609,15.718,15.718,0,0,0,1.785,2.381,16.759,16.759,0,0,0,4.854,3.631c.917.469,1.9.831,2.879,1.225l2.957,1.175,24.519,9.743,27,10.742-.289.109,9.031-18.586.091.272-47.12-25.157-.1-.052.029-.1,5.226-19.036c.612-2.2,1.083-3.885,1.4-5.042.161-.562.284-.991.37-1.293s.139-.435.139-.435-.028.151-.1.444-.189.738-.333,1.3c-.306,1.161-.753,2.858-1.333,5.061-1.186,4.434-2.914,10.9-5.1,19.068l-.068-.155,47.19,25.032.177.093-.086.179-9.01,18.6-.092.188-.2-.079-27.008-10.731L88.23,196.022l-2.956-1.176c-.975-.392-1.972-.761-2.915-1.244a17.218,17.218,0,0,1-4.978-3.733,16.1,16.1,0,0,1-1.829-2.444,15.536,15.536,0,0,1-1.364-2.683,13.439,13.439,0,0,1-.823-5.8,24.9,24.9,0,0,1,1.119-5.6l1.429-5.343q1.41-5.268,2.736-10.218c1.767-6.591,3.413-12.732,4.917-18.339,1.528-5.6,2.814-10.69,4.131-15.117,1.359-4.4,2.484-8.261,4.238-11.057a20.509,20.509,0,0,1,4.98-5.648,15.69,15.69,0,0,1,2.2-1.477" transform="translate(-5.484 -7.937)" fill="#263238"/>
        <path id="Trazado_803333" data-name="Trazado 803333" d="M202.492,219.155l-13.43-6.424-26.208-2.079-8.813-4.579L148,219s13.316,8.024,16.913,8.317l22.035-.667,11.52,1.209Z" transform="translate(-11.067 -15.41)" fill="#ffc09d"/>
        <path id="Trazado_803334" data-name="Trazado 803334" d="M113.5,143.61c-.093-.017.3-1.737.469-4.558a34.83,34.83,0,0,0-.074-4.951,34.866,34.866,0,0,0-3.115-11.684,35.734,35.734,0,0,0-2.409-4.36c-1.554-2.385-2.76-3.7-2.687-3.757a6.532,6.532,0,0,1,.872.9,13.513,13.513,0,0,1,.939,1.124c.345.454.763.956,1.151,1.562a32.308,32.308,0,0,1,2.522,4.361,33.08,33.08,0,0,1,3.153,11.823,31.749,31.749,0,0,1-.024,5.005c-.036.712-.151,1.35-.225,1.911a13.173,13.173,0,0,1-.259,1.428,6.317,6.317,0,0,1-.313,1.2" transform="translate(-7.903 -8.547)" fill="#263238"/>
        <path id="Trazado_803335" data-name="Trazado 803335" d="M103.452,178.158c-.016.078-.764-.067-1.976-.086a13.626,13.626,0,0,0-8.746,3c-.944.761-1.446,1.334-1.506,1.282a5.282,5.282,0,0,1,1.293-1.531,12.129,12.129,0,0,1,8.975-3.081,5.3,5.3,0,0,1,1.961.414" transform="translate(-6.822 -13.289)" fill="#263238"/>
        <path id="Trazado_803336" data-name="Trazado 803336" d="M188.128,117.693a8.574,8.574,0,0,1,.856,1.2l.436.662.455.825a22.319,22.319,0,0,1,1.045,2.048l.557,1.217q.253.654.522,1.354c.385.927.666,1.962,1.022,3.032a59.175,59.175,0,0,1,1.535,7.16,83.42,83.42,0,0,1,.781,13.257c-.027,1.7-.085,3.072-.15,4.02a8.641,8.641,0,0,1-.145,1.469,8.592,8.592,0,0,1-.043-1.476c.007-.948.014-2.32,0-4.015a98.082,98.082,0,0,0-.917-13.184,64.208,64.208,0,0,0-1.486-7.109c-.34-1.062-.605-2.094-.971-3.017l-.49-1.35-.524-1.218c-.314-.786-.669-1.462-.971-2.061l-.417-.838-.4-.679a8.681,8.681,0,0,1-.7-1.3" transform="translate(-14.068 -8.801)" fill="#263238"/>
        <path id="Trazado_803337" data-name="Trazado 803337" d="M149.864,109.579a1.252,1.252,0,0,1-.357-.146c-.228-.109-.559-.28-.982-.514a21.487,21.487,0,0,1-3.447-2.3l.237-.03a56.312,56.312,0,0,0-5.5,11.042l-.126.346-.261-.261-3.528-3.532c-4.486-4.5-8.528-8.6-11.436-11.575l-3.426-3.547-.915-.982a1.743,1.743,0,0,1-.3-.365,1.748,1.748,0,0,1,.365.3l.978.918,3.535,3.439c2.97,2.918,7.049,6.974,11.536,11.476l3.52,3.54-.388.085a52.313,52.313,0,0,1,5.677-11.053l.1-.149.136.119a25,25,0,0,0,3.322,2.382,12.715,12.715,0,0,1,1.252.808" transform="translate(-8.961 -7.307)" fill="#263238"/>
        <path id="Trazado_803338" data-name="Trazado 803338" d="M164.5,97.065a4.952,4.952,0,0,1,.085,1.178,21.74,21.74,0,0,1-.221,3.212,24.789,24.789,0,0,1-3.7,9.916l-.283.437-.188.291-.206-.283A37.038,37.038,0,0,1,155.6,103.9h.341l-1.589,3.627a7.683,7.683,0,0,1-.654,1.31,7.577,7.577,0,0,1,.463-1.39l1.439-3.689.162-.415.179.415a40.832,40.832,0,0,0,4.439,7.771l-.394.007c.091-.141.183-.285.278-.429a26.224,26.224,0,0,0,3.765-9.706c.452-2.654.38-4.339.473-4.337" transform="translate(-11.493 -7.259)" fill="#263238"/>
        <path id="Trazado_803339" data-name="Trazado 803339" d="M170.872,189.188a5.1,5.1,0,0,1-.135-.806q-.108-.859-.292-2.322c-.244-2.064-.588-4.972-1.011-8.547-.872-7.212-2.055-17.187-4.151-28.067-1.067-5.437-2.3-10.57-3.588-15.192-.695-2.3-1.308-4.493-2.021-6.5-.345-1.009-.654-1.993-.994-2.924l-1-2.666c-.611-1.71-1.284-3.208-1.833-4.541l-.782-1.851-.712-1.532q-.613-1.339-.972-2.127a5.152,5.152,0,0,1-.309-.758,5.176,5.176,0,0,1,.4.714l1.055,2.091.751,1.516c.264.56.526,1.18.819,1.839.575,1.326,1.272,2.818,1.9,4.525q.5,1.273,1.035,2.662c.349.93.669,1.912,1.022,2.922.731,2.012,1.361,4.212,2.069,6.511,1.316,4.629,2.566,9.773,3.634,15.223,2.1,10.9,3.232,20.9,4.017,28.12.386,3.614.672,6.541.859,8.565q.128,1.47.2,2.332a5.2,5.2,0,0,1,.038.816" transform="translate(-11.446 -8.327)" fill="#263238"/>
        <path id="Trazado_803340" data-name="Trazado 803340" d="M183.474,183.049a8.37,8.37,0,0,1-1.452.029c-.934-.011-2.284-.056-3.953-.135-3.335-.157-7.94-.485-13-1.046s-9.632-1.255-12.921-1.833c-1.644-.289-2.972-.541-3.885-.736a8.346,8.346,0,0,1-1.41-.346,8.444,8.444,0,0,1,1.442.162l3.907.584c3.3.491,7.862,1.127,12.919,1.689s9.646.941,12.972,1.185l3.94.288a8.37,8.37,0,0,1,1.443.158" transform="translate(-10.981 -13.384)" fill="#263238"/>
        <path id="Trazado_803341" data-name="Trazado 803341" d="M179.328,196.638a6.044,6.044,0,0,1-1.176-.374L175,195.107c-2.658-.978-6.341-2.3-10.446-3.639s-7.858-2.452-10.581-3.232l-3.224-.926a6.083,6.083,0,0,1-1.169-.393,6.042,6.042,0,0,1,1.216.211c.776.165,1.893.43,3.268.779,2.749.7,6.524,1.76,10.641,3.1s7.788,2.717,10.418,3.779c1.316.529,2.373.975,3.1,1.3a6.1,6.1,0,0,1,1.107.548" transform="translate(-11.186 -13.977)" fill="#263238"/>
        <path id="Trazado_803342" data-name="Trazado 803342" d="M237.96,141.015a5.387,5.387,0,0,1-.919-1.582,18.695,18.695,0,0,1-1.634-8.618,5.4,5.4,0,0,1,.276-1.809,47.188,47.188,0,0,0,.5,6.126,47.179,47.179,0,0,0,1.775,5.883" transform="translate(-17.602 -9.647)" fill="#263238"/>
        <path id="Trazado_803343" data-name="Trazado 803343" d="M274.884,163.118l-75.551.613c-2.451,0-4.793,1.178-5.16,3.6L185.916,222.4H147a2.269,2.269,0,1,0,0,4.537H271.29l8.494-58.116a4.957,4.957,0,0,0-4.9-5.7" transform="translate(-10.823 -12.198)" fill="#e0e0e0"/>
        <path id="Trazado_803344" data-name="Trazado 803344" d="M274.98,163.116a4.017,4.017,0,0,1,1.191.112,4.993,4.993,0,0,1,3.819,4.325,13.945,13.945,0,0,1-.278,3.107c-.316,2.226-.68,4.789-1.09,7.669l-7,48.637-.029.2h-.2l-120.578.072h-3.246a3.134,3.134,0,0,1-1.716-.327,2.575,2.575,0,0,1,.011-4.5,3.152,3.152,0,0,1,1.7-.319h1.6l12.629,0,24.226.007-.291.251c2.972-19.72,5.745-38.116,8.232-54.619a4.276,4.276,0,0,1,1.4-2.877,5.617,5.617,0,0,1,2.889-1.275,25.042,25.042,0,0,1,3.047-.107l2.966-.02,11.374-.076,20.214-.129,28.777-.147,7.7-.014,1.988.009c.447,0,.674.02.674.02s-.228.019-.674.031l-1.987.042-7.7.111-28.776.32-20.214.2-11.374.108-2.966.028a24.826,24.826,0,0,0-2.972.108,5.129,5.129,0,0,0-2.634,1.162,3.761,3.761,0,0,0-1.229,2.58c-2.463,16.507-5.208,34.907-8.15,54.631l-.037.251h-.254l-24.226.008-12.629,0h-1.6a2.54,2.54,0,0,0-1.408.244,1.966,1.966,0,0,0-.008,3.435,2.533,2.533,0,0,0,1.419.249h3.246l120.578.071-.23.2c3.031-20.443,5.5-37.07,7.208-48.608.432-2.877.816-5.437,1.15-7.659a14.013,14.013,0,0,0,.308-3.062,4.845,4.845,0,0,0-.876-2.349,4.935,4.935,0,0,0-2.792-1.925,9.889,9.889,0,0,0-1.174-.179" transform="translate(-10.808 -12.196)" fill="#263238"/>
        <path id="Trazado_803345" data-name="Trazado 803345" d="M192.676,226.476c.107.018,2.512-14,5.371-31.313s5.091-31.363,4.984-31.381-2.511,14-5.371,31.317-5.091,31.359-4.984,31.377" transform="translate(-14.408 -12.248)" fill="#263238"/>
        <path id="Trazado_803346" data-name="Trazado 803346" d="M236.729,198.389a4.73,4.73,0,1,0,4.73-4.73,4.729,4.729,0,0,0-4.73,4.73" transform="translate(-17.703 -14.482)" fill="#fff"/>
        <path id="Trazado_803347" data-name="Trazado 803347" d="M88.577,77.649H76.226v-2.4a5.341,5.341,0,0,0-5.34-5.34H5.6a5.341,5.341,0,0,0-5.34,5.34v53.171A5.341,5.341,0,0,0,5.6,133.756H70.886a5.34,5.34,0,0,0,5.34-5.339V89.377Z" transform="translate(-0.02 -5.228)" fill="#fff"/>
        <path id="Trazado_803348" data-name="Trazado 803348" d="M88.557,77.631,76.283,89.44l.035-.081c.014,5.891.031,13.309.053,21.988.006,4.343.014,9,.022,13.942-.019,1.244.047,2.467-.04,3.779a5.5,5.5,0,0,1-1.815,3.467,5.587,5.587,0,0,1-3.755,1.4l-4.057,0-35.549.026c-6.332,0-12.846.006-19.507.007H6.647a9.036,9.036,0,0,1-2.578-.212,5.587,5.587,0,0,1-3.743-3.5,5.787,5.787,0,0,1-.3-1.3C0,128.5,0,128.076,0,127.649v-5.171c0-14.728.007-28.937.01-42.315q0-2.509.006-4.979a5.58,5.58,0,0,1,4.5-5.414,13.816,13.816,0,0,1,2.431-.1l4.72,0c6.233,0,12.218.012,17.918.017l30.43.045q3.293.007,6.309.014l2.939.006a13.906,13.906,0,0,1,2.809.144,5.489,5.489,0,0,1,3.842,3.26,5.828,5.828,0,0,1,.4,2.315q0,1.121-.007,2.159l-.1-.1,12.351.1c-.675.006-4.5.036-12.351.1h-.1v-.1q0-1.038-.007-2.159a5.617,5.617,0,0,0-.4-2.229,5.249,5.249,0,0,0-3.689-3.1,13.8,13.8,0,0,0-2.753-.124q-1.434.006-2.939.008l-6.309.013-30.43.044-17.918.019-4.72,0a13.505,13.505,0,0,0-2.345.1,5.131,5.131,0,0,0-4.126,4.98v4.975c0,13.378.007,27.587.011,42.315v5.171a6.3,6.3,0,0,0,.3,2.451A5.107,5.107,0,0,0,4.2,133.3a8.6,8.6,0,0,0,2.448.2H11.67l19.507.006,35.549.026c2.678-.135,5.628.575,7.553-1.292a5.112,5.112,0,0,0,1.695-3.22c.085-1.22.027-2.509.047-3.732.007-4.941.015-9.6.021-13.942.021-8.679.039-16.1.053-21.988V89.31l.035-.032L88.557,77.631" transform="translate(0 -5.209)" fill="#263238"/>
        <path id="Trazado_803349" data-name="Trazado 803349" d="M71.9,86.407a9.664,9.664,0,0,1-6.156,5.328c-1.935.527-4.016.422-5.883,1.164-3.407,1.356-5.21,5.1-6.739,8.508s-3.436,7.13-6.9,8.33c-2.86.993-6.014-.056-8.667-1.534s-5.106-3.406-7.978-4.357c-5.1-1.689-10.854.035-15.065,3.435s-7.073,8.274-9.238,13.309H71.757Z" transform="translate(-0.394 -6.462)" fill="#455a64"/>
        <path id="Trazado_803350" data-name="Trazado 803350" d="M71.885,119.945s-.014-.265-.02-.759q-.007-.766-.021-2.182c-.011-1.923-.027-4.722-.047-8.306-.024-7.179-.058-17.493-.1-30.11l.189.189L5.33,78.829H5.325l.241-.241c-.007,14.661-.013,28.638-.019,41.356l-.223-.223,47.867.109,13.742.06,3.668.027.951.014c.215,0,.331.013.331.013a2.291,2.291,0,0,1-.3.013l-.926.014L67.03,120l-13.691.06-48.014.109H5.1v-.223c-.006-12.718-.012-26.7-.019-41.356v-.241H5.33l66.555.052h.19v.189c-.042,12.666-.076,23.02-.1,30.228-.02,3.565-.036,6.35-.047,8.263-.009.93-.017,1.644-.021,2.147-.006.481-.02.719-.02.719" transform="translate(-0.38 -5.859)" fill="#263238"/>
        <path id="Trazado_803351" data-name="Trazado 803351" d="M23.653,119.874c-.133,0-.241-9.1-.241-20.33s.107-20.332.241-20.332.241,9.1.241,20.332-.107,20.33-.241,20.33" transform="translate(-1.751 -5.924)" fill="#263238"/>
        <path id="Trazado_803352" data-name="Trazado 803352" d="M42.158,120.612c-.133,0-.241-9.4-.241-21s.107-21,.241-21,.241,9.4.241,21-.107,21-.241,21" transform="translate(-3.135 -5.878)" fill="#263238"/>
        <path id="Trazado_803353" data-name="Trazado 803353" d="M60.2,120.612c-.133,0-.241-9.4-.241-21s.107-21,.241-21,.241,9.4.241,21-.107,21-.241,21" transform="translate(-4.484 -5.878)" fill="#263238"/>
        <path id="Trazado_803354" data-name="Trazado 803354" d="M71.771,101.516c0,.133-14.853.241-33.172.241s-33.175-.107-33.175-.241,14.851-.241,33.175-.241,33.172.107,33.172.241" transform="translate(-0.406 -7.573)" fill="#263238"/>
        <rect id="Rectángulo_375433" data-name="Rectángulo 375433" width="55.227" height="4.052" transform="translate(5.103 117.514)" fill="#e0e0e0"/>
      </g>
    </g>
  </g>
</svg>
