<svg xmlns="http://www.w3.org/2000/svg" xmlns:xlink="http://www.w3.org/1999/xlink" width="295" height="250" viewBox="0 0 295 250">
  <defs>
    <clipPath id="clip-path">
      <rect id="Rectángulo_375444" data-name="Rectángulo 375444" width="281.236" height="234.724" fill="none"/>
    </clipPath>
    <clipPath id="clip-path-3">
      <rect id="Rectángulo_375435" data-name="Rectángulo 375435" width="91.799" height="36.959" fill="none"/>
    </clipPath>
    <clipPath id="clip-path-4">
      <rect id="Rectángulo_375436" data-name="Rectángulo 375436" width="5.724" height="30.139" fill="none"/>
    </clipPath>
    <clipPath id="clip-path-5">
      <rect id="Rectángulo_375437" data-name="Rectángulo 375437" width="33.704" height="23.608" fill="none"/>
    </clipPath>
  </defs>
  <g id="Grupo_1068013" data-name="Grupo 1068013" transform="translate(-895 -5722)">
    <rect id="Rectángulo_375446" data-name="Rectángulo 375446" width="295" height="250" transform="translate(895 5722)" fill="none"/>
    <g id="Grupo_1068012" data-name="Grupo 1068012" transform="translate(897 5725)">
      <g id="Grupo_1068008" data-name="Grupo 1068008" clip-path="url(#clip-path)">
        <g id="Grupo_1068005" data-name="Grupo 1068005">
          <g id="Grupo_1068004" data-name="Grupo 1068004" clip-path="url(#clip-path)">
            <path id="Trazado_803355" data-name="Trazado 803355" d="M266.017,235.614H69.286c-6.816,0-12.342-6.383-12.342-14.258V59.892c0-7.875,5.526-14.258,12.342-14.258H266.017c6.816,0,12.342,6.383,12.342,14.258V221.356c0,7.875-5.526,14.258-12.342,14.258" transform="translate(-1.321 -1.059)" fill="#fff"/>
            <path id="Trazado_803356" data-name="Trazado 803356" d="M278.672,78.851H57.878V57.342A11.757,11.757,0,0,1,69.635,45.585H265.709a12.963,12.963,0,0,1,12.963,12.963Z" transform="translate(-1.343 -1.058)" fill="#e0e0e0"/>
            <path id="Trazado_803357" data-name="Trazado 803357" d="M75.015,61.471a3.723,3.723,0,1,1-3.723-3.764,3.743,3.743,0,0,1,3.723,3.764" transform="translate(-1.568 -1.339)" fill="#fff"/>
            <path id="Trazado_803358" data-name="Trazado 803358" d="M86.5,61.471a3.723,3.723,0,1,1-3.723-3.764A3.743,3.743,0,0,1,86.5,61.471" transform="translate(-1.834 -1.339)" fill="#fff"/>
            <path id="Trazado_803359" data-name="Trazado 803359" d="M97.985,61.471a3.723,3.723,0,1,1-3.723-3.764,3.743,3.743,0,0,1,3.723,3.764" transform="translate(-2.101 -1.339)" fill="#fff"/>
            <path id="Trazado_803360" data-name="Trazado 803360" d="M266.31,235.56s.174-.019.517-.043a8.657,8.657,0,0,0,1.522-.193,11.3,11.3,0,0,0,5.326-2.666,14.479,14.479,0,0,0,4.65-8.476,37.537,37.537,0,0,0,.243-6.3q-.006-3.388-.012-7.211c-.019-20.385-.045-49.872-.077-86.308-.009-18.219-.02-38.176-.03-59.6q0-2.009,0-4.034a19.416,19.416,0,0,0-.313-4.007,14.634,14.634,0,0,0-3.569-7.153,11.473,11.473,0,0,0-7.065-3.7c-1.347-.116-2.766-.051-4.16-.067h-4.218l-34.822.011-155.048.02a16.566,16.566,0,0,0-2.536.111,7.8,7.8,0,0,0-1.224.27c-.2.062-.4.115-.6.183l-.578.245a10.334,10.334,0,0,0-3.943,3.055,12.87,12.87,0,0,0-2.321,4.46,16,16,0,0,0-.569,5.031q0,10.3,0,20.456,0,20.311,0,39.992c0,26.219-.01,51.51-.014,75.6q0,9.034,0,17.84c.009,2.931-.024,5.857.02,8.736A15.276,15.276,0,0,0,58.165,226a13.9,13.9,0,0,0,1.786,3.811,13.3,13.3,0,0,0,2.79,3.081,11.738,11.738,0,0,0,3.611,1.933,12.229,12.229,0,0,0,1.99.447c.678.04,1.352.089,2.047.072l4.123,0,16.164.006,58.96.03,85.371.079,23.211.046,6.037.024c1.36.009,2.056.025,2.056.025s-.7.017-2.056.025l-6.037.024-23.211.046-85.371.079-58.96.029-16.164.007-4.123,0c-.685.017-1.39-.031-2.1-.074a12.625,12.625,0,0,1-2.068-.463,12.172,12.172,0,0,1-3.748-2,13.7,13.7,0,0,1-2.883-3.18,14.306,14.306,0,0,1-1.841-3.921,15.687,15.687,0,0,1-.71-4.311c-.046-2.907-.015-5.813-.025-8.75q0-8.8,0-17.84c0-24.093-.009-49.383-.014-75.6q0-19.664,0-39.992,0-10.155,0-20.456a16.512,16.512,0,0,1,.589-5.17,13.375,13.375,0,0,1,2.412-4.634,10.827,10.827,0,0,1,4.125-3.194l.608-.257c.208-.071.421-.128.631-.192a8.164,8.164,0,0,1,1.287-.284,17.024,17.024,0,0,1,2.607-.116l155.048.019,34.822.011h4.218c1.406.02,2.781-.048,4.207.074a11.893,11.893,0,0,1,7.323,3.839,15.062,15.062,0,0,1,3.668,7.361,19.851,19.851,0,0,1,.316,4.088q0,2.025,0,4.034c-.011,21.423-.021,41.38-.03,59.6-.032,36.436-.059,65.923-.077,86.308q-.006,3.821-.012,7.211a37.473,37.473,0,0,1-.268,6.331,14.559,14.559,0,0,1-4.728,8.525,11.258,11.258,0,0,1-5.382,2.64,8.14,8.14,0,0,1-1.529.169c-.345.016-.519.018-.519.018" transform="translate(-1.322 -1.052)" fill="#263238"/>
            <path id="Trazado_803361" data-name="Trazado 803361" d="M33.809,185.184c-4.011-.44-8.511-.757-8.511-.757l-3.981-.493a4.544,4.544,0,0,0,.241.768,3,3,0,0,1,.316,1.472c-.131.955-1.161,1.528-2.115,1.7a5.859,5.859,0,0,1-5.45-1.959,5.783,5.783,0,0,1-.993-5.464,4.232,4.232,0,0,1-.359-1.611c-.1-3.767,4.368-6.93,4.368-6.93l-1.369-.367s-4.347.594-6.631,7.527a4.49,4.49,0,0,1-1.975,2.5,2.283,2.283,0,0,1-1.926.287c-1.672-.6-1.676-1.932-.31-6.28s4.129-8.1,7.022-9.108a30.487,30.487,0,0,1,4.09-1.221S4.071,161.216,3.312,160.93c-2.2-.828-3.659-2.5-3.24-4.014.269-.971,1.326-2,3.912-1.114,2.238.767,26.183,5.71,26.183,5.71l10.462,2.806,8.252,3.716L43.1,182.494l-.95.636a12.526,12.526,0,0,1-8.336,2.054" transform="translate(0 -3.607)" fill="#ae7461"/>
            <path id="Trazado_803362" data-name="Trazado 803362" d="M39.555,166.187c-.095,1.383-1.479,2.363-2.842,2.662s-2.786.132-4.167.333c-4.13.6-7.32,4.372-11.473,4.777-.579.057-1.31-.054-1.485-.6-.163-.51.278-1,.68-1.359q5.147-4.6,10.293-9.208" transform="translate(-0.454 -3.777)" fill="#ae7461"/>
            <path id="Trazado_803363" data-name="Trazado 803363" d="M30.551,162.788a5.587,5.587,0,0,0-1.215.883c-.748.607-1.814,1.5-3.12,2.623l-4.558,3.966-1.311,1.155c-.387.4-1.07.745-1.19,1.69a1.152,1.152,0,0,0,.717,1.082,2.4,2.4,0,0,0,1.117.169,9.171,9.171,0,0,0,1.995-.416c2.6-.873,4.6-2.463,6.617-3.421a10.508,10.508,0,0,1,2.949-1.01c.958-.155,1.9-.136,2.775-.208a4.906,4.906,0,0,0,3.77-1.666c.609-.841.474-1.468.447-1.447a4.049,4.049,0,0,1-.685,1.254,4.747,4.747,0,0,1-3.562,1.306c-.843.037-1.792-.019-2.84.119a10.848,10.848,0,0,0-3.169,1c-2.108.969-4.132,2.528-6.543,3.325a8.544,8.544,0,0,1-1.8.384c-.572.047-1.067-.154-1.017-.457,0-.338.476-.762.92-1.153l1.292-1.174c1.633-1.5,3.13-2.878,4.446-4.09,1.258-1.172,2.267-2.131,2.952-2.807a5.55,5.55,0,0,0,1.011-1.109" transform="translate(-0.444 -3.777)" fill="#6f4439"/>
            <path id="Trazado_803364" data-name="Trazado 803364" d="M17.557,172.147a5.73,5.73,0,0,0-2.61,0,4.429,4.429,0,0,0-2.262,1.577,11.227,11.227,0,0,0-1.613,3.1,17.9,17.9,0,0,1-1.492,3.3,5.823,5.823,0,0,1-2.157,2.1,2.275,2.275,0,0,1-2.03.069c-.434-.224-.6-.44-.585-.454.028-.041.238.12.661.273a2.15,2.15,0,0,0,1.788-.2,5.763,5.763,0,0,0,1.925-2.027A19.794,19.794,0,0,0,10.6,176.64a10.943,10.943,0,0,1,1.726-3.214,4.646,4.646,0,0,1,2.537-1.629,4.132,4.132,0,0,1,2.028.039c.461.134.682.284.67.311" transform="translate(-0.112 -3.984)" fill="#6f4439"/>
            <path id="Trazado_803365" data-name="Trazado 803365" d="M2.529,160.719a14.609,14.609,0,0,1,2.422.786l5.779,2.041,5.809,1.953a14.273,14.273,0,0,1,2.392.872,11.514,11.514,0,0,1-2.5-.53c-1.522-.4-3.6-1.036-5.873-1.817s-4.3-1.567-5.743-2.185a11.283,11.283,0,0,1-2.29-1.119" transform="translate(-0.059 -3.729)" fill="#6f4439"/>
            <path id="Trazado_803366" data-name="Trazado 803366" d="M19.549,175.9c.026.028-.179.232-.519.608a2.359,2.359,0,0,0-.737,1.824,1.253,1.253,0,0,0,.788.967,6.754,6.754,0,0,0,1.606.421,2.849,2.849,0,0,1,1.8.933,2.4,2.4,0,0,1,.316,2.164,2.772,2.772,0,0,1-1.482,1.608,3.488,3.488,0,0,1-2,.317,11.206,11.206,0,0,1-3.085-1.1,6.554,6.554,0,0,1-1.78-1.293,1.46,1.46,0,0,1-.418-.692c.041-.022.187.22.558.552a7.733,7.733,0,0,0,1.8,1.113,11.979,11.979,0,0,0,2.992.964,2.755,2.755,0,0,0,2.925-1.617,1.926,1.926,0,0,0-.231-1.713,2.426,2.426,0,0,0-1.5-.777,6.738,6.738,0,0,1-1.7-.5,1.628,1.628,0,0,1-.951-1.3,2.47,2.47,0,0,1,.955-2c.394-.344.637-.492.658-.47" transform="translate(-0.326 -4.081)" fill="#6f4439"/>
            <path id="Trazado_803367" data-name="Trazado 803367" d="M21,184.225c0-.024.284,0,.661.3a2.191,2.191,0,0,1,.754,1.825,2.965,2.965,0,0,1-1.745,2.361,4.869,4.869,0,0,1-3.6.092,5.814,5.814,0,0,1-2.875-2.133,5.521,5.521,0,0,1-.981-2.744,5.24,5.24,0,0,1,.2-1.946c.141-.441.275-.661.3-.651a9.084,9.084,0,0,0-.147,2.557,5.432,5.432,0,0,0,1.005,2.51,5.538,5.538,0,0,0,2.659,1.928,4.528,4.528,0,0,0,3.239-.035,2.634,2.634,0,0,0,1.583-1.974,2.077,2.077,0,0,0-.533-1.647c-.3-.316-.542-.4-.525-.443" transform="translate(-0.306 -4.207)" fill="#6f4439"/>
            <path id="Trazado_803368" data-name="Trazado 803368" d="M32.386,178.434c-.045-.012.019-.476.419-1.147a4.841,4.841,0,0,1,2.406-1.991l-.023.445a14.428,14.428,0,0,1-1.522-.817,10.83,10.83,0,0,1-4.188-4.211,27.391,27.391,0,0,0,4.458,3.781c.5.308.994.578,1.462.81l.518.255-.54.19a5.072,5.072,0,0,0-2.318,1.706c-.443.581-.61,1-.672.977" transform="translate(-0.684 -3.961)" fill="#6f4439"/>
            <path id="Trazado_803369" data-name="Trazado 803369" d="M11.257,171.652c.1-.095.8.667.887,1.882s-.489,2.079-.6,2c-.134-.062.182-.9.092-1.96-.067-1.058-.5-1.84-.38-1.922" transform="translate(-0.261 -3.982)" fill="#6f4439"/>
            <path id="Trazado_803370" data-name="Trazado 803370" d="M140.376,146.949S114.47,191.186,105.841,195.5s-39.821-1.983-47.074-3.634C50.535,189.991,40.03,186.7,40.03,186.7L43.1,162.136l6.787.147s38.466,3.893,40.69,2.137,17.039-30.09,17.039-30.09,9.3-18.782,12.63-23.078c4.9-6.311,8.972-6.311,8.972-6.311Z" transform="translate(-0.929 -2.435)" fill="#a8c6ff"/>
            <path id="Trazado_803371" data-name="Trazado 803371" d="M110.9,236.359c.685-35.108,3.834-106.451,3.834-106.451l16.136-25.267a72.16,72.16,0,0,1,11.155-2.145c6.174-.681,7.224-1.271,7.224-1.271l4.494-7.079,37.022-2.16,5.658,10.494s23.182,12.077,26.27,13.778-17.035,84.934-17.035,84.934l3.882,35.167Z" transform="translate(-2.573 -2.134)" fill="#a8c6ff"/>
            <path id="Trazado_803372" data-name="Trazado 803372" d="M143.859,237.059c.143-6.16.464-13.489.891-21.622.486-8.131,1.13-17.064,2.052-26.418.962-9.355,2.1-18.242,3.36-26.293,1.331-8.039,2.661-15.262,4.09-21.264q.516-2.252.982-4.288l1.006-3.794c.618-2.373,1.151-4.416,1.684-6.06.483-1.615.862-2.888,1.138-3.811l.278-1a1.311,1.311,0,0,0,.072-.348,1.335,1.335,0,0,0-.142.325c-.092.258-.205.58-.347.977l-1.267,3.777c-.574,1.634-1.148,3.67-1.8,6.037q-.5,1.779-1.061,3.79-.489,2.032-1.033,4.285c-1.494,6-2.878,13.225-4.247,21.274-1.3,8.06-2.458,16.957-3.421,26.324-.924,9.367-1.548,18.311-2,26.452-.391,8.143-.66,15.48-.738,21.645" transform="translate(-3.326 -2.834)" fill="#263238"/>
            <path id="Trazado_803373" data-name="Trazado 803373" d="M114.765,130.81a15.433,15.433,0,0,0-.226,2.4c-.1,1.545-.209,3.783-.319,6.549-.225,5.532-.413,13.176-.635,21.616s-.505,16.078-.777,21.6c-.134,2.674-.244,4.882-.327,6.544a15.458,15.458,0,0,0-.045,2.407,15.535,15.535,0,0,0,.321-2.386c.166-1.539.355-3.772.556-6.535.4-5.524.766-13.168.987-21.615s.329-16.088.425-21.62c.038-2.678.069-4.89.093-6.553a15.588,15.588,0,0,0-.053-2.407" transform="translate(-2.608 -3.035)" fill="#263238"/>
            <g id="Grupo_1067997" data-name="Grupo 1067997" transform="translate(113.409 181.711)" opacity="0.3">
              <g id="Grupo_1067996" data-name="Grupo 1067996">
                <g id="Grupo_1067995" data-name="Grupo 1067995" clip-path="url(#clip-path-3)">
                  <path id="Trazado_803374" data-name="Trazado 803374" d="M116.141,192.281a6.652,6.652,0,0,1,4.063-4.913,17.859,17.859,0,0,1,6.542-1.213,115.361,115.361,0,0,1,80.023,27.529l1.134,7.848c-7.041,2.984-15.214.938-22.2-2.176s-13.618-7.3-21.134-8.747c-6.513-1.252-13.534-.412-19.546-3.194-3.793-1.754-6.909-4.85-10.888-6.132-3.553-1.145-7.432-.726-11.073-1.558s-7.382-3.766-6.925-7.442" transform="translate(-116.103 -186.027)"/>
                </g>
              </g>
            </g>
            <path id="Trazado_803375" data-name="Trazado 803375" d="M224.1,116.835a29.357,29.357,0,0,1,14.7,19.724c1.946,8.662,7.6,32.485,7.6,32.485s6.142,28.425,5.265,33.936-2.725,17.812-14.719,19.262-53.721-13.75-53.721-13.75l-11.407-4.641,4.388-20.884,19.6,4.931L215,189.42l-2.593-17.361L208.15,160.9s.239-12.162,4.919-22.314S224.1,116.835,224.1,116.835" transform="translate(-3.987 -2.711)" fill="#a8c6ff"/>
            <path id="Trazado_803376" data-name="Trazado 803376" d="M150.678,173.545l-15.143-30.6a6.127,6.127,0,0,0-5.495-3.4H91.991a1.854,1.854,0,0,0-1.647,2.728L116.1,189.959a4.152,4.152,0,0,0,3.655,2.17h39.463Z" transform="translate(-2.091 -3.238)" fill="#455a64"/>
            <path id="Trazado_803377" data-name="Trazado 803377" d="M90.607,142.55a3.074,3.074,0,0,0,.761.061l2.179.037,8.014,0,26.415-.225a7.585,7.585,0,0,1,3.513.843,6.552,6.552,0,0,1,2.335,2.562c1.106,2.091,2.037,4.272,3,6.261,1.89,3.994,3.6,7.605,5.048,10.671l3.46,7.168.973,1.934a2.992,2.992,0,0,0,.384.653,3.041,3.041,0,0,0-.253-.713c-.226-.528-.508-1.186-.852-1.99-.809-1.807-1.911-4.265-3.253-7.262l-4.909-10.734c-.957-2.016-1.841-4.139-2.987-6.328a7.225,7.225,0,0,0-2.588-2.832,8.251,8.251,0,0,0-3.84-.941c-10.362.067-19.679.29-26.452.431l-8.011.223-2.177.1a3.119,3.119,0,0,0-.759.082" transform="translate(-2.102 -3.288)" fill="#263238"/>
            <path id="Trazado_803378" data-name="Trazado 803378" d="M114.59,149.43a1.238,1.238,0,0,0-.57,1.893,1.821,1.821,0,0,0,2.014.757,1.409,1.409,0,0,0,1.049-1,1.736,1.736,0,0,0-1.162-1.74,2.745,2.745,0,0,0-1.33.093" transform="translate(-2.64 -3.464)" fill="#fff"/>
            <path id="Trazado_803379" data-name="Trazado 803379" d="M174.781,185.86l-2.625-2.676s-3.852-5.558-5.429-7.294-11.032-7.815-11.032-7.815-4.557-6.125-5.257-6.125-2.918.393-2.32,3.24a43.441,43.441,0,0,0,2.5,8.216l-20.2.44a4.3,4.3,0,0,0-3.292,1.562c-.527.667-.747,1.4.2,1.872,2.1,1.042,10.682,3.126,10.682,3.126l-3.832-.979s-.822,3.634,1.6,5.36a13.04,13.04,0,0,1,2.58,2.044s.119,3.438,1.17,4.827,12.429,7.2,12.429,7.2,7.271,2.131,10.949,1.958,7.462,1.894,7.875,2.005,4-16.955,4-16.955" transform="translate(-2.939 -3.758)" fill="#ae7461"/>
            <path id="Trazado_803380" data-name="Trazado 803380" d="M149.2,173.763c.006.2,2.55.3,5.673.63s5.7.5,5.719.28c.012-.174-2.492-.639-5.648-.985s-5.753-.117-5.745.074" transform="translate(-3.462 -4.026)" fill="#6f4439"/>
            <path id="Trazado_803381" data-name="Trazado 803381" d="M151.562,182.807c.063-.214-3.622-1.212-8.251-1.739-2.309-.291-4.4-.5-5.91-.663a11.124,11.124,0,0,0-2.464-.186,7.124,7.124,0,0,0,2.388.681c1.5.295,3.593.581,5.9.87,4.614.526,8.293,1.2,8.341,1.036" transform="translate(-3.131 -4.181)" fill="#6f4439"/>
            <path id="Trazado_803382" data-name="Trazado 803382" d="M151.65,189.525c0-.209-2.944-.3-6.5-.912-3.559-.595-6.364-1.483-6.435-1.285-.07.168,2.679,1.375,6.315,1.984,3.632.626,6.631.4,6.62.214" transform="translate(-3.218 -4.346)" fill="#6f4439"/>
            <path id="Trazado_803383" data-name="Trazado 803383" d="M150.7,197.01c.193.032.486-.755.654-1.758s.144-1.841-.051-1.874-.487.755-.654,1.758-.145,1.841.051,1.874" transform="translate(-3.493 -4.487)" fill="#6f4439"/>
            <path id="Trazado_803384" data-name="Trazado 803384" d="M152.553,188.03c.2-.016.309-.667.655-1.354.33-.7.78-1.181.668-1.349-.091-.168-.88.154-1.311,1.039s-.2,1.7-.013,1.663" transform="translate(-3.534 -4.299)" fill="#6f4439"/>
            <path id="Trazado_803385" data-name="Trazado 803385" d="M154.916,179.037c.2.021.406-.4.651-.873s.451-.895.315-1.04-.65.118-.953.724-.205,1.175-.012,1.19" transform="translate(-3.59 -4.109)" fill="#6f4439"/>
            <path id="Trazado_803386" data-name="Trazado 803386" d="M159.793,121.717a7.434,7.434,0,0,0,1.154-.662l3.185-1.9c1.368-.807,3.025-1.773,4.886-2.915a45.9,45.9,0,0,0,5.991-4.172l-.523-.09a19.521,19.521,0,0,1,2.147,9.676v.043l-.021.8.61-.517c5.937-5.025,11.263-9.64,14.966-13.148,1.855-1.749,3.321-3.2,4.3-4.234a12.3,12.3,0,0,0,1.467-1.659,14.148,14.148,0,0,0-1.663,1.463l-4.45,4.063c-3.781,3.405-9.149,7.951-15.088,12.978l.589.283,0-.044a19.842,19.842,0,0,0-2.27-10.009l-.2-.375-.323.286a48.727,48.727,0,0,1-5.836,4.186l-4.8,3.04c-1.34.854-2.391,1.554-3.092,2.061a5.269,5.269,0,0,0-1.033.841" transform="translate(-3.707 -2.388)" fill="#263238"/>
            <path id="Trazado_803387" data-name="Trazado 803387" d="M150.031,101.445a6.578,6.578,0,0,0-.777,1.466c-.441.971-1.038,2.392-1.721,4.169s-1.462,3.9-2.189,6.325c-.183.606-.353,1.233-.492,1.894a3.689,3.689,0,0,0-.093,1.126.512.512,0,0,0,.589.389.532.532,0,0,0,.306-.176l.078-.1.316-.4,2.612-3.355c1.173-1.521,2.309-2.992,3.373-4.369l-.582-.046c2.11,3.956,4.028,7.336,5.479,9.691.725,1.179,1.331,2.1,1.774,2.717a4.063,4.063,0,0,0,.741.91,4.924,4.924,0,0,0-.543-1.035l-1.593-2.81c-1.342-2.407-3.178-5.822-5.246-9.79l-.248-.475-.334.429-3.375,4.331-2.586,3.347-.311.4-.078.1.126.125v0s0,0-.006.014l0,.006.006,0,.183-.047a3.917,3.917,0,0,1,.088-.849c.125-.625.284-1.243.455-1.842.683-2.4,1.418-4.541,2.032-6.335l1.5-4.235a8.516,8.516,0,0,0,.519-1.57" transform="translate(-3.358 -2.354)" fill="#263238"/>
            <path id="Trazado_803388" data-name="Trazado 803388" d="M240.359,189.114a13.007,13.007,0,0,0-3.516-.93,35.562,35.562,0,0,0-17.382,1.386,12.93,12.93,0,0,0-3.32,1.474,31.97,31.97,0,0,0,3.472-1,43.23,43.23,0,0,1,17.157-1.368,31.888,31.888,0,0,0,3.589.434" transform="translate(-5.015 -4.355)" fill="#263238"/>
            <path id="Trazado_803389" data-name="Trazado 803389" d="M228.24,183.839c-.015-.174-3.335.275-6.9,2.236-3.578,1.934-5.739,4.474-5.6,4.579.151.157,2.475-2.087,5.943-3.959,3.449-1.9,6.606-2.644,6.553-2.856" transform="translate(-5.005 -4.265)" fill="#263238"/>
            <path id="Trazado_803390" data-name="Trazado 803390" d="M210.834,162.858a2.205,2.205,0,0,0,.032.49c.045.364.1.834.176,1.422.18,1.3.432,3.123.75,5.434.694,4.754,1.68,11.511,2.883,19.755l0-.022c.011.173.023.371.036.57l.307-.3-20.559-1.923.052.009-18.213-4.6-.36-.091-.076.361c-.348,1.653-.719,3.419-1.093,5.2-1.133,5.409-2.237,10.674-3.286,15.684l-.059.281.267.109A322.187,322.187,0,0,0,210.1,218.366c4.895,1.318,8.836,2.255,11.552,2.867l3.123.673.811.157a.945.945,0,0,0,.28.033A1,1,0,0,0,225.6,222l-.8-.217L221.712,221c-2.7-.684-6.617-1.688-11.488-3.062A346.914,346.914,0,0,1,171.953,204.6l.208.39c1.055-5.01,2.165-10.274,3.3-15.682.374-1.781.744-3.547,1.091-5.2l-.436.271,18.222,4.566.026.007.026,0,20.568,1.814.33.029-.023-.326c-.015-.2-.028-.4-.041-.569v-.013l0-.01c-1.3-8.23-2.371-14.973-3.123-19.72-.383-2.3-.684-4.116-.9-5.411l-.255-1.411a2.234,2.234,0,0,0-.115-.478" transform="translate(-3.977 -3.779)" fill="#263238"/>
            <path id="Trazado_803391" data-name="Trazado 803391" d="M210.364,141.349a32.29,32.29,0,0,0,.889-3.485,40.344,40.344,0,0,1,7.694-15.305,32.645,32.645,0,0,0,2.271-2.8,12.7,12.7,0,0,0-2.658,2.479,33.573,33.573,0,0,0-7.8,15.514,12.578,12.578,0,0,0-.4,3.6" transform="translate(-4.88 -2.779)" fill="#263238"/>
            <g id="Grupo_1068000" data-name="Grupo 1068000" transform="translate(203.328 145.648)" opacity="0.3">
              <g id="Grupo_1067999" data-name="Grupo 1067999">
                <g id="Grupo_1067998" data-name="Grupo 1067998" clip-path="url(#clip-path-4)">
                  <path id="Trazado_803392" data-name="Trazado 803392" d="M209.615,149.108c1.655,8.925,2.838,19,4.267,27.964-.337.418-.155,1.758-.492,2.175-1.663-4.589-3.851-10.122-4.791-14.908s-.272-10.525,1.017-15.231" transform="translate(-208.158 -149.108)"/>
                </g>
              </g>
            </g>
            <g id="Grupo_1068003" data-name="Grupo 1068003" transform="translate(157.126 103.914)" opacity="0.3">
              <g id="Grupo_1068002" data-name="Grupo 1068002">
                <g id="Grupo_1068001" data-name="Grupo 1068001" clip-path="url(#clip-path-5)">
                  <path id="Trazado_803393" data-name="Trazado 803393" d="M173.189,119.506,160.857,121.2a88.992,88.992,0,0,0,13.949-9.286c1.539,3.6,2.4,4.91,2.146,10.106,5.973-4.977,11.637-10.658,17.611-15.636a103.908,103.908,0,0,1-22.346,23.609,38.941,38.941,0,0,0,.973-10.484" transform="translate(-160.858 -106.382)"/>
                </g>
              </g>
            </g>
            <path id="Trazado_803394" data-name="Trazado 803394" d="M178.6,10.382a6.625,6.625,0,0,0-6.748-3.569,9.1,9.1,0,0,0-11.132-.175,8.257,8.257,0,0,0-7.919-.424,8.131,8.131,0,0,0-4.434,6.521A6.925,6.925,0,0,0,141.23,16a6.8,6.8,0,0,0,.88,7.75,6.627,6.627,0,0,0-4.575,7.293,6.676,6.676,0,0,0,6.856,5.247l32.743-18.468a6.52,6.52,0,0,0,1.467-7.443" transform="translate(-3.189 -0.112)" fill="#263238"/>
            <path id="Trazado_803395" data-name="Trazado 803395" d="M140.281,71.955c.16-7.042,1.678-21.516,3.206-34.6a27.329,27.329,0,0,1,28.174-24.029l1.417.049c15.26,1.414,22.573,15.055,20.726,30.142l-4.3,47.566-29.524,26.625-6.435-18.817,1.025-9.582s-14.62-2.774-14.29-17.354" transform="translate(-3.255 -0.309)" fill="#ae7461"/>
            <path id="Trazado_803396" data-name="Trazado 803396" d="M154.786,90.972a35.918,35.918,0,0,0,19.453-4.924s-4.9,10.332-19.515,8.513Z" transform="translate(-3.59 -1.996)" fill="#6f4439"/>
            <path id="Trazado_803397" data-name="Trazado 803397" d="M147.952,51.975a2.089,2.089,0,0,0,1.95,2.17,2,2,0,0,0,2.229-1.8,2.089,2.089,0,0,0-1.947-2.171,2.005,2.005,0,0,0-2.232,1.8" transform="translate(-3.433 -1.164)" fill="#263238"/>
            <path id="Trazado_803398" data-name="Trazado 803398" d="M146.541,45.29c.25.28,1.88-.832,4.139-.748,2.257.052,3.874,1.262,4.128,1,.125-.117-.122-.616-.825-1.162a5.8,5.8,0,0,0-3.294-1.132,5.569,5.569,0,0,0-3.307.934c-.712.5-.965.988-.84,1.114" transform="translate(-3.399 -1.003)" fill="#263238"/>
            <path id="Trazado_803399" data-name="Trazado 803399" d="M168.337,52.895a2.088,2.088,0,0,0,1.95,2.169,2,2,0,0,0,2.23-1.8,2.091,2.091,0,0,0-1.949-2.17,2.005,2.005,0,0,0-2.231,1.8" transform="translate(-3.906 -1.185)" fill="#263238"/>
            <path id="Trazado_803400" data-name="Trazado 803400" d="M169.252,46.5c.251.28,1.884-.831,4.141-.747,2.256.052,3.874,1.261,4.128,1,.125-.117-.12-.616-.826-1.162a5.8,5.8,0,0,0-3.293-1.132,5.566,5.566,0,0,0-3.307.934c-.711.5-.965.987-.842,1.113" transform="translate(-3.926 -1.031)" fill="#263238"/>
            <path id="Trazado_803401" data-name="Trazado 803401" d="M160.13,62.823a15.048,15.048,0,0,0-3.644-.783c-.575-.078-1.116-.211-1.2-.6a2.9,2.9,0,0,1,.444-1.682q.886-2.048,1.859-4.3c2.587-6.119,4.479-11.157,4.23-11.259s-2.547,4.777-5.133,10.894q-.936,2.264-1.789,4.324a3.293,3.293,0,0,0-.377,2.235,1.442,1.442,0,0,0,.918.868,3.909,3.909,0,0,0,.975.169,14.9,14.9,0,0,0,3.718.134" transform="translate(-3.583 -1.025)" fill="#263238"/>
            <path id="Trazado_803402" data-name="Trazado 803402" d="M166.837,65.086c-.366-.034-.457,2.4-2.615,4.05s-4.76,1.3-4.79,1.634c-.04.151.565.492,1.667.561a6.143,6.143,0,0,0,3.993-1.227,5.268,5.268,0,0,0,2.036-3.4c.13-1.014-.123-1.625-.291-1.617" transform="translate(-3.699 -1.51)" fill="#263238"/>
            <path id="Trazado_803403" data-name="Trazado 803403" d="M168.971,37.509c.2.616,2.466.405,5.1.814,2.647.356,4.757,1.2,5.127.665.166-.256-.187-.842-1.03-1.461a9.048,9.048,0,0,0-7.795-1.126c-.987.355-1.494.817-1.408,1.109" transform="translate(-3.92 -0.835)" fill="#263238"/>
            <path id="Trazado_803404" data-name="Trazado 803404" d="M147.623,38.68c.379.523,1.954.048,3.825.088,1.873-.025,3.443.461,3.826-.059.169-.253-.062-.771-.737-1.277a5.58,5.58,0,0,0-6.166-.023c-.679.5-.915,1.017-.748,1.271" transform="translate(-3.424 -0.847)" fill="#263238"/>
            <path id="Trazado_803405" data-name="Trazado 803405" d="M145.251,30.677s4.2-8.993,8.709-10.969c5.463-2.393,7.571,3.535,12.74,2.293s10.386-3.539,15.48.567c5.577,4.493,2.788,7.415,2.914,13.894.514,26.266,5.081,33.847,6.888,21.545.2-1.348,4.022-2.293,4.784-7.989.988-7.388,1.591-16.377.107-21.695-1.25-4.483-3.691-7.634-8.145-11.169-7.028-5.579-16.936-6.037-23.69-5.6s-20,7.672-19.789,19.121" transform="translate(-3.37 -0.265)" fill="#263238"/>
            <path id="Trazado_803406" data-name="Trazado 803406" d="M192.129,58.585a3.982,3.982,0,0,1,4.441-3.664c2.732.354,5.728,2,5.35,7.613-.671,9.953-10.608,7.231-10.607,6.945,0-.2.5-6.732.817-10.894" transform="translate(-4.439 -1.274)" fill="#ae7461"/>
            <path id="Trazado_803407" data-name="Trazado 803407" d="M193.807,65.957c.046-.029.167.133.453.287a1.769,1.769,0,0,0,1.305.113c1.086-.316,2.091-1.926,2.261-3.717a5.7,5.7,0,0,0-.322-2.514,2.014,2.014,0,0,0-1.225-1.418.9.9,0,0,0-1.065.407c-.152.269-.1.472-.156.485-.03.023-.2-.182-.1-.587a1.111,1.111,0,0,1,.438-.6,1.329,1.329,0,0,1,.984-.189,2.453,2.453,0,0,1,1.722,1.663,5.855,5.855,0,0,1,.42,2.814c-.2,2-1.362,3.81-2.84,4.129a1.89,1.89,0,0,1-1.581-.368c-.294-.268-.332-.493-.3-.509" transform="translate(-4.496 -1.35)" fill="#6f4439"/>
            <path id="Trazado_803408" data-name="Trazado 803408" d="M191.714,38.186a9.589,9.589,0,0,1-4.324,1.8c-1.578.1-3.345-.858-3.555-2.411-.095-.7.1-1.5-.337-2.048-.527-.658-1.545-.493-2.39-.434a6.411,6.411,0,0,1-6.5-4.79c-.783,1.08-2.521.973-3.623.213a14.358,14.358,0,0,1-2.634-3,4.143,4.143,0,0,0-3.389-1.831,9.971,9.971,0,0,1-2.2.4c-1.316-.162-1.906-1.716-2.06-3.022s-.256-2.826-1.349-3.57c-1.012-.691-2.368-.358-3.589-.223s-2.779-.2-3.049-1.39a2.352,2.352,0,0,1,.513-1.791A6.545,6.545,0,0,1,161,13.917a8.852,8.852,0,0,1,16.264-1.135,8.988,8.988,0,0,1,14.195,3.73,6.68,6.68,0,0,1,6.7,2.514,6.553,6.553,0,0,1,.288,7.1c1.77,1.085,3.254,2.918,3.219,4.983s-2.133,4.048-4.121,3.436a3.682,3.682,0,0,1-1.581,4.633,3.748,3.748,0,0,1-4.758-1.294" transform="translate(-3.542 -0.184)" fill="#263238"/>
            <path id="Trazado_803409" data-name="Trazado 803409" d="M199.01,35.178a2.374,2.374,0,0,1-.694,1.893,3.231,3.231,0,0,1-2.055,1.121,3.5,3.5,0,0,1-2.836-.924l.428-.049a10,10,0,0,1-2.093,2.416A5.788,5.788,0,0,1,189.89,40.7a4.486,4.486,0,0,1-4.87-1.632,5.74,5.74,0,0,1-.74-2.1,1.939,1.939,0,0,1-.049-.808c.044-.008.119.269.269.758a6.66,6.66,0,0,0,.862,1.926,4.123,4.123,0,0,0,6.033.35,10.044,10.044,0,0,0,1.994-2.263l.188-.287.24.238a3.068,3.068,0,0,0,2.4.85,2.97,2.97,0,0,0,1.851-.888,4.821,4.821,0,0,0,.948-1.664" transform="translate(-4.274 -0.816)" fill="#455a64"/>
            <path id="Trazado_803410" data-name="Trazado 803410" d="M170.432,66.616c-.163,0-.189-1.057-1.013-1.955-.792-.925-1.841-1.084-1.826-1.245,0-.07.286-.145.74-.051a2.905,2.905,0,0,1,1.52.917,2.859,2.859,0,0,1,.724,1.613c.035.458-.075.728-.146.721" transform="translate(-3.888 -1.469)" fill="#6f4439"/>
            <path id="Trazado_803411" data-name="Trazado 803411" d="M171.461,63.877c-.144.08-.5-.279-1.022-.533-.518-.27-1.019-.339-1.038-.5-.036-.152.607-.361,1.3-.012s.906.985.761,1.045" transform="translate(-3.93 -1.453)" fill="#6f4439"/>
            <path id="Trazado_803412" data-name="Trazado 803412" d="M152.614,6.51c-.045-.1-1.084.554-1.9,2.206a8.469,8.469,0,0,0-.9,3.072,5.6,5.6,0,0,0,1.037,3.823,8.153,8.153,0,0,0,3.135,2.412,22.858,22.858,0,0,0,2.966,1.116,13.014,13.014,0,0,0,2.81.716,10.829,10.829,0,0,0-2.642-1.188c-.825-.326-1.812-.705-2.84-1.229a8,8,0,0,1-2.85-2.243,5.13,5.13,0,0,1-.958-3.364,8.864,8.864,0,0,1,.7-2.908,12,12,0,0,1,1.438-2.414" transform="translate(-3.475 -0.151)" fill="#e0e0e0"/>
            <path id="Trazado_803413" data-name="Trazado 803413" d="M146.151,13.217c-.081,0-.146.632.125,1.6a7.3,7.3,0,0,0,2.083,3.294,7.385,7.385,0,0,0,3.475,1.8c1,.191,1.623.078,1.621,0,0-.113-.6-.184-1.491-.482a8.672,8.672,0,0,1-5.214-4.778c-.369-.861-.486-1.451-.6-1.437" transform="translate(-3.389 -0.307)" fill="#e0e0e0"/>
          </g>
        </g>
        <g id="Grupo_1068007" data-name="Grupo 1068007">
          <g id="Grupo_1068006" data-name="Grupo 1068006" clip-path="url(#clip-path)">
            <path id="Trazado_803414" data-name="Trazado 803414" d="M280.3.2a5.659,5.659,0,0,1,5.659,5.641l.183,51.521-.157,20.78a5.659,5.659,0,0,1-5.659,5.616H240.541l-12.483,12.46V83.758h-2.674a5.657,5.657,0,0,1-5.658-5.707l.69-72.241A5.659,5.659,0,0,1,226.074.2Z" transform="translate(-5.098 -0.005)" fill="#fff"/>
            <path id="Trazado_803415" data-name="Trazado 803415" d="M280.292.2s-.254.017-.751.025l-2.208.024-8.5.047L237.5.371,227.1.388a8.345,8.345,0,0,0-2.659.253,5.573,5.573,0,0,0-2.273,1.4,5.424,5.424,0,0,0-1.349,2.36,10.837,10.837,0,0,0-.212,2.832c-.066,7.81-.139,16.163-.214,24.966s-.162,18.056-.249,27.663q-.066,7.206-.135,14.665c-.007,1.238-.035,2.5-.023,3.731a5.37,5.37,0,0,0,1.253,3.3,5.479,5.479,0,0,0,3.053,1.828,9.165,9.165,0,0,0,1.849.109h2.167V96.214l-.434-.18,12.485-12.458.074-.073h.1l26.711.011,12.6.009a5.536,5.536,0,0,0,5.016-2.463,5.34,5.34,0,0,0,.874-2.694c.031-.969.023-1.966.036-2.938.047-7.809.176-15.193.148-22.08s-.025-13.273-.037-19.086c-.009-11.614-.016-20.933-.021-27.365a10.47,10.47,0,0,0-.126-2.243A5.4,5.4,0,0,0,285,2.847,5.6,5.6,0,0,0,282.742.811,6.278,6.278,0,0,0,280.292.2a6.14,6.14,0,0,1,.651.017,5.656,5.656,0,0,1,4.172,2.561,5.527,5.527,0,0,1,.78,1.847,10.562,10.562,0,0,1,.149,2.277c.041,6.432.1,15.751.174,27.365.029,5.814.063,12.2.1,19.086s-.065,14.273-.1,22.082c-.012.981,0,1.951-.032,2.958a5.807,5.807,0,0,1-.942,2.921,6.006,6.006,0,0,1-5.4,2.677l-12.6.008-26.711.012.178-.074L228.231,96.393l-.434.434V83.754l.254.254h-1.914a9.624,9.624,0,0,1-1.952-.12,5.992,5.992,0,0,1-3.34-2,5.88,5.88,0,0,1-1.369-3.612c-.012-1.271.018-2.5.024-3.75q.073-7.455.145-14.666c.1-9.607.191-18.859.28-27.662s.181-17.156.263-24.966a11.161,11.161,0,0,1,.233-2.935,5.815,5.815,0,0,1,1.455-2.532,5.963,5.963,0,0,1,2.442-1.5A8.7,8.7,0,0,1,227.1,0L237.5.02,268.837.1l8.5.047,2.208.024c.5.009.751.025.751.025" transform="translate(-5.092 0)" fill="#263238"/>
            <rect id="Rectángulo_375439" data-name="Rectángulo 375439" width="8.529" height="27.626" transform="translate(262.317 46.551)" fill="#455a64"/>
            <rect id="Rectángulo_375440" data-name="Rectángulo 375440" width="8.529" height="14.589" transform="translate(224.94 59.588)" fill="#455a64"/>
            <rect id="Rectángulo_375441" data-name="Rectángulo 375441" width="8.529" height="32.822" transform="translate(249.069 41.355)" fill="#455a64"/>
            <rect id="Rectángulo_375442" data-name="Rectángulo 375442" width="8.529" height="46.576" transform="translate(236.282 27.601)" fill="#455a64"/>
            <path id="Trazado_803416" data-name="Trazado 803416" d="M281.887,74.374s-.009-.112-.013-.319c0-.224-.008-.526-.013-.92-.007-.824-.016-2.013-.027-3.558-.014-3.119-.033-7.657-.059-13.412-.028-11.515-.067-27.9-.113-47.434l.225.225-56.877.029H225l.254-.254c-.015,24.213-.028,46.781-.04,65.644L225,74.159l41.222.11,11.548.056,3.052.025c.693.008,1.062.023,1.062.023s-.338.016-1.016.023l-3.01.025-11.5.055L225,74.589h-.215v-.215c-.012-18.863-.025-41.431-.04-65.644V8.475h.261l56.877.029h.226V8.73c-.047,19.6-.086,36.029-.113,47.579-.025,5.734-.045,10.255-.06,13.362-.011,1.526-.02,2.7-.026,3.514,0,.384-.01.679-.013.9a2.415,2.415,0,0,1-.013.294" transform="translate(-5.215 -0.197)" fill="#263238"/>
            <path id="Trazado_803417" data-name="Trazado 803417" d="M281.893,55.243c0,.141-12.735.254-28.44.254s-28.442-.113-28.442-.254,12.732-.254,28.442-.254,28.44.113,28.44.254" transform="translate(-5.221 -1.276)" fill="#263238"/>
            <path id="Trazado_803418" data-name="Trazado 803418" d="M281.893,24.8c0,.141-12.735.255-28.44.255s-28.442-.114-28.442-.255,12.732-.254,28.442-.254,28.44.113,28.44.254" transform="translate(-5.221 -0.57)" fill="#263238"/>
          </g>
        </g>
      </g>
    </g>
  </g>
</svg>
