<svg xmlns="http://www.w3.org/2000/svg" width="100" height="100" viewBox="0 0 100 100">
  <g id="Grupo_1068054" data-name="Grupo 1068054" transform="translate(-180 -9336)">
    <path id="Rectángulo_375466" data-name="Rectángulo 375466" d="M10,0h90a0,0,0,0,1,0,0V100a0,0,0,0,1,0,0H10A10,10,0,0,1,0,90V10A10,10,0,0,1,10,0Z" transform="translate(180 9336)" fill="#b0c5fd"/>
    <g id="search" transform="translate(202 9358)">
      <path id="Trazado_803429" data-name="Trazado 803429" d="M209.7,45.394A17.7,17.7,0,1,0,192,27.7,17.7,17.7,0,0,0,209.7,45.394Z" transform="translate(-171.22 -10)" fill="#faf7f5"/>
      <path id="Trazado_803430" data-name="Trazado 803430" d="M226.646,22.59a17.7,17.7,0,1,0,.025,10.129" transform="translate(-171.22 -10)" fill="none" stroke="#000" stroke-linecap="round" stroke-linejoin="round" stroke-miterlimit="10" stroke-width="2.2"/>
      <line id="Línea_1787" data-name="Línea 1787" transform="translate(56.174 17.645)" fill="none" stroke="#000" stroke-linecap="round" stroke-linejoin="round" stroke-miterlimit="10" stroke-width="2.2"/>
      <path id="Trazado_803431" data-name="Trazado 803431" d="M164.792,272.023l-3.612,8.509-4.669-1.982a23.692,23.692,0,0,1-6.656,6.542l1.9,4.7-8.571,3.463-1.9-4.7a23.692,23.692,0,0,1-9.333-.082l-1.982,4.785-8.509-3.727.782-1.843a5.727,5.727,0,0,0,2.015-2.454,21.264,21.264,0,0,1,2.794-4.707,18.2,18.2,0,0,0,26.969-9.407,17.719,17.719,0,0,0,6.58-4.767,23.839,23.839,0,0,1-.477,3.688Z" transform="translate(-108.734 -237.084)" fill="#ddb9a3" stroke="#000" stroke-linecap="round" stroke-linejoin="round" stroke-miterlimit="10" stroke-width="2.2"/>
      <path id="Trazado_803432" data-name="Trazado 803432" d="M36.905,14.308a17.735,17.735,0,0,0-4.768,6.58c-.29.1-.58.209-.868.325a18.213,18.213,0,0,0-8.54,26.644,21.275,21.275,0,0,1-4.705,2.794,5.7,5.7,0,0,0-1.844,1.271l-2.717,1.1L10,44.45l4.7-1.9a23.676,23.676,0,0,1,.083-9.334l-4.67-1.981,3.612-8.509L18.4,24.707a23.708,23.708,0,0,1,6.656-6.542l-1.9-4.7L31.724,10l1.9,4.7A23.472,23.472,0,0,1,36.905,14.308Z" transform="translate(-10 -10)" fill="#ddb9a3" stroke="#000" stroke-linecap="round" stroke-linejoin="round" stroke-miterlimit="10" stroke-width="2.2"/>
      <path id="Trazado_803433" data-name="Trazado 803433" d="M357.023,169.2a13.13,13.13,0,0,0,11.936-14.224" transform="translate(-317.402 -138.424)" fill="none" stroke="#000" stroke-linecap="round" stroke-linejoin="round" stroke-miterlimit="10" stroke-width="2.2"/>
      <path id="Trazado_803434" data-name="Trazado 803434" d="M243.979,50.438a13.13,13.13,0,0,0-11.936,14.224" transform="translate(-206.647 -45.821)" fill="none" stroke="#000" stroke-linecap="round" stroke-linejoin="round" stroke-miterlimit="10" stroke-width="2.2"/>
      <path id="Trazado_803435" data-name="Trazado 803435" d="M70.559,286.772l-4.844-4.844-6.259,5.718a21.467,21.467,0,0,1-6,3.885,5.71,5.71,0,1,0,7.5,7.5,21.467,21.467,0,0,1,3.885-6Z" transform="translate(-45.432 -250.881)" fill="#ffda8f" stroke="#000" stroke-linecap="round" stroke-linejoin="round" stroke-miterlimit="10" stroke-width="2.2"/>
      <path id="Trazado_803436" data-name="Trazado 803436" d="M179.615,245.617h0a2.283,2.283,0,0,1-3.23,0l-8.074-8.074a2.283,2.283,0,0,1,0-3.229h0a2.283,2.283,0,0,1,3.229,0l8.074,8.073A2.283,2.283,0,0,1,179.615,245.617Z" transform="translate(-149.644 -208.111)" fill="#ffda8f" stroke="#000" stroke-linecap="round" stroke-linejoin="round" stroke-miterlimit="10" stroke-width="2.2"/>
      <line id="Línea_1788" data-name="Línea 1788" transform="translate(38.477 26.089)" fill="none" stroke="#000" stroke-linecap="round" stroke-linejoin="round" stroke-miterlimit="10" stroke-width="2.2"/>
      <path id="Trazado_803437" data-name="Trazado 803437" d="M315,105.136a3.653,3.653,0,1,1,5.914,2.856,5.836,5.836,0,0,0-2.26,4.582h0" transform="translate(-280.177 -91.053)" fill="none" stroke="#000" stroke-linecap="round" stroke-linejoin="round" stroke-miterlimit="10" stroke-width="2.2"/>
    </g>
  </g>
</svg>
