<svg xmlns="http://www.w3.org/2000/svg" xmlns:xlink="http://www.w3.org/1999/xlink" width="310" height="280" viewBox="0 0 310 280">
  <defs>
    <clipPath id="clip-path">
      <rect id="Rectángulo_375106" data-name="Rectángulo 375106" width="271.842" height="256.21" fill="none"/>
    </clipPath>
    <clipPath id="clip-path-3">
      <rect id="Rectángulo_375103" data-name="Rectángulo 375103" width="12.617" height="14.042" fill="none"/>
    </clipPath>
  </defs>
  <g id="Grupo_1067340" data-name="Grupo 1067340" transform="translate(9664 5855)">
    <rect id="Rectángulo_375108" data-name="Rectángulo 375108" width="310" height="280" transform="translate(-9664 -5855)" fill="none"/>
    <g id="Grupo_1067332" data-name="Grupo 1067332" transform="translate(-9645 -5843)">
      <g id="Grupo_1067337" data-name="Grupo 1067337" clip-path="url(#clip-path)">
        <g id="Grupo_1067336" data-name="Grupo 1067336">
          <g id="Grupo_1067335" data-name="Grupo 1067335" clip-path="url(#clip-path)">
            <path id="Trazado_802298" data-name="Trazado 802298" d="M238.055,46.213c23.272,24.095,54.718,80.908,14.395,131.018-43.888,54.541-100.136-6.656-140.066,10.035,0,0-48.48,33.145-93.437-24S12.106,13.913,100.873,1.247c40.936-5.841,102.242,8.792,137.182,44.966" transform="translate(0 0)" fill="#e3eef2"/>
            <path id="Trazado_802299" data-name="Trazado 802299" d="M715.932,469.355a3.212,3.212,0,1,1-3.29-3.133A3.212,3.212,0,0,1,715.932,469.355Z" transform="translate(-474.509 -311.802)" fill="none" stroke="#1f1406" stroke-linecap="round" stroke-linejoin="round" stroke-width="2.277"/>
            <path id="Trazado_802300" data-name="Trazado 802300" d="M447.8,130.555a3.212,3.212,0,1,1-3.29-3.133A3.212,3.212,0,0,1,447.8,130.555Z" transform="translate(-295.184 -85.217)" fill="none" stroke="#1f1406" stroke-linecap="round" stroke-linejoin="round" stroke-width="2.277"/>
            <path id="Trazado_802301" data-name="Trazado 802301" d="M77.071,274.057a3.212,3.212,0,1,1-3.212-3.212A3.212,3.212,0,0,1,77.071,274.057Z" transform="translate(-47.248 -181.137)" fill="none" stroke="#1f1406" stroke-linecap="round" stroke-linejoin="round" stroke-width="2.277"/>
            <path id="Trazado_802302" data-name="Trazado 802302" d="M344.041,605.387,211.939,582c-5.406-.957-7-4.016-3.552-6.833l22.028-18.012c3.445-2.817,10.62-4.325,16.026-3.367l132.1,23.385c5.406.957,7,4.016,3.552,6.833L360.068,602.02c-3.445,2.817-10.62,4.324-16.026,3.367" transform="translate(-138.149 -370.174)" fill="#efe5da"/>
            <path id="Trazado_802303" data-name="Trazado 802303" d="M333.436,239.169,182.812,211.677l-.013,0-.3-.055h0l-.527-.1q-.1-.016-.2-.028c-.069-.009-.138-.016-.206-.022s-.137-.011-.205-.014-.141-.006-.211-.007-.14,0-.21,0-.148,0-.222.01H180.7l-.02,0c-.064,0-.127.01-.19.017l-.1.013-.078.01-.061.008c-.077.012-.152.026-.227.042l-.019,0h0q-.134.028-.263.064l-.029.009c-.04.011-.078.025-.117.036s-.093.027-.138.043l-.038.015c-.063.023-.123.048-.184.073-.033.014-.067.025-.1.04l-.021.011q-.18.082-.347.18l-.025.013c-.013.007-.023.017-.035.025a3.573,3.573,0,0,0-.41.286l-4.922,4.028a3.588,3.588,0,0,1,.4-.28c.054-.033.111-.064.167-.094s.135-.073.205-.106.169-.075.256-.109c.033-.013.065-.027.1-.039q.182-.066.375-.116l.072-.018c.131-.032.264-.06.4-.081l.03,0q.216-.032.442-.046l.036,0q.221-.011.45,0l.045,0c.161.006.325.018.491.039q.1.012.2.028l.159.027,1.106.2,154.9,28.447c.23.042.713-4.971.22-5.061m-152.39-26.73Z" transform="translate(-115.952 -141.416)" fill="#b0c5fd"/>
            <path id="Trazado_802304" data-name="Trazado 802304" d="M646.429,298.479c0-.005,0-.01,0-.016q-.015-.083-.034-.167t-.041-.166c0-.008,0-.016-.007-.023l-.007-.023c-.011-.038-.022-.077-.034-.115-.016-.054-.034-.107-.053-.16-.009-.025-.019-.05-.028-.075l-.012-.032-.019-.051c-.021-.053-.043-.1-.066-.157s-.045-.1-.068-.146l0-.006,0,0c-.026-.052-.052-.1-.079-.154s-.055-.1-.084-.151l-.024-.039-.017-.029c-.016-.027-.031-.054-.048-.08q-.044-.071-.091-.141c-.023-.035-.048-.07-.073-.105l-.01-.015-.011-.016c-.031-.044-.063-.087-.1-.131s-.064-.083-.1-.124l-.043-.052-.018-.022-.04-.048c-.036-.042-.072-.083-.109-.125l-.113-.122-.011-.011-.018-.018c-.041-.043-.083-.085-.125-.127s-.082-.076-.123-.114l-.082-.076-.039-.036c-.069-.061-.141-.118-.213-.176-.023-.019-.046-.039-.07-.058l-.011-.009q-.139-.108-.286-.21l-.042-.028-.038-.025c-.034-.023-.068-.046-.1-.068q-.086-.056-.175-.109l-.068-.039-.035-.021-.064-.037c-.057-.032-.115-.064-.174-.094l-.134-.068-.024-.012-.022-.011c-.062-.03-.125-.059-.188-.088s-.131-.057-.2-.084l0,0,0,0c-.064-.026-.128-.051-.193-.075s-.137-.049-.206-.073l-.026-.008-.029-.009-.15-.047c-.068-.02-.137-.039-.206-.057l-.058-.014-.019-.005h-.006l-.122-.03c-.068-.015-.136-.029-.205-.043l-1.108-.2-5.129,3.988s1.453.269,1.521.285.137.032.2.05.138.037.206.057.137.042.2.065l.085.03c.109.038.217.078.323.121h0c.107.044.213.091.317.14l.04.018q.148.072.293.15l.044.024q.141.078.276.161l.048.03q.135.084.264.175c.045.031.087.064.131.1s.106.077.157.117.117.1.174.144c.037.031.076.062.113.094s.062.058.093.086c.056.051.111.1.164.154l.042.042c.072.073.143.147.211.223l.017.019q.106.12.2.244l.02.026q.095.122.182.247l.022.032q.085.123.162.25l.023.038q.075.126.142.255l.02.04c.044.087.085.174.123.262l.016.039c.037.089.072.179.1.269l.012.036c.031.092.059.183.083.276.012.047.024.093.034.14s.023.111.033.167.02.117.027.176.014.118.019.178.009.129.011.194,0,.1,0,.151c0,0,0,.1,0,.274l-1.747,115.614,3.664-3.944a4.659,4.659,0,0,0,1.353-3.01l1.641-111.739c.006-.488.015-1.222.015-1.222,0-.05,0-.1,0-.151s0-.085-.007-.128c0,0,0,0,0-.007s0-.012,0-.017,0-.028,0-.042q-.007-.089-.019-.178c-.006-.047-.014-.094-.021-.14,0-.007,0-.014,0-.021" transform="translate(-424.942 -196.557)" fill="#b0c5fd"/>
            <path id="Trazado_802305" data-name="Trazado 802305" d="M459.913,605.325s-.778.659-.83.745c-.024.039-.269.415-.385.564-.086.111-.379.449-.433.507-.158.17-34.463,31.29-34.463,31.29l1.1,5.468,33.8-30.858a1.322,1.322,0,0,0,.663-.432c.054-.058.1-.116.148-.173.1-.112.2-.223.285-.334l0,0c.115-.148.215-.3.309-.442.026-.04.049-.079.073-.119s.058-.091.083-.136.035-.079.056-.12c.06-.114.113-.227.16-.34.016-.039.04-.078.055-.117s.016-.06.027-.091c.034-.1.061-.2.085-.292.012-.046.031-.094.041-.14,0-.023,0-.045.008-.069.016-.091.024-.18.031-.27,0-.05.016-.1.018-.152,0-.018,0-.034,0-.051a2.444,2.444,0,0,0-.019-.275c-.005-.049,0-.1-.011-.148,0-.024-.008-.047-.013-.07Z" transform="translate(-283.433 -404.832)" fill="#708bd2"/>
            <path id="Trazado_802306" data-name="Trazado 802306" d="M325.432,698.345c-.229.2-.472.4-.726.584-.078.058-.156.116-.236.172-.282.2-.574.394-.88.578l-.05.031q-.386.229-.793.441c-.039.02-.081.038-.12.058-.234.119-.47.236-.713.346l-.092.039c-.312.139-.631.27-.954.393-.119.045-.238.089-.358.132q-.283.1-.569.195-.2.066-.405.127c-.165.05-.331.1-.5.142-.143.039-.287.078-.431.113s-.31.074-.465.108-.3.065-.444.094-.309.058-.463.084-.292.049-.439.07c-.166.024-.331.044-.5.063-.137.016-.275.032-.411.044-.2.018-.4.029-.6.04-.111.006-.224.014-.334.017q-.536.015-1.051-.011c-.171-.009-.338-.024-.5-.04-.085-.008-.173-.013-.257-.023-.255-.03-.5-.068-.747-.116l-32.42-6.432c-2-.4-2.811.327-3.051-.861l.762,3.807c.24,1.188,1.388,2.125,3.392,2.522l32.42,6.432c.242.048.492.086.747.116.084.01.172.015.258.023.145.014.289.031.438.039.022,0,.045,0,.066,0q.515.026,1.051.011c.024,0,.046,0,.069,0,.087,0,.177-.013.265-.017.2-.01.4-.022.6-.04.045,0,.09,0,.135-.009.092-.009.185-.024.277-.035.165-.019.329-.039.5-.063.056-.008.111-.013.167-.021.091-.014.182-.034.273-.049.154-.026.307-.053.461-.083.06-.012.12-.02.18-.032.089-.019.178-.042.267-.062.154-.034.309-.069.463-.108.062-.015.124-.027.185-.043.083-.022.165-.048.248-.071.166-.045.331-.092.5-.142.066-.02.133-.036.2-.057s.137-.048.206-.07c.19-.062.379-.127.568-.194.076-.028.153-.05.228-.079.045-.017.087-.037.131-.054.323-.123.642-.253.954-.393.025-.011.051-.02.076-.031l.016-.008c.242-.11.479-.227.713-.346.039-.02.081-.038.12-.058q.407-.212.793-.441l.011-.006.037-.025c.307-.184.6-.379.882-.579.08-.057.158-.114.236-.172.254-.189.5-.383.725-.585.027-.024.06-.046.087-.07l.054-.049-1.1-5.468c-.045.041-.1.079-.142.12" transform="translate(-185.203 -464.627)" fill="#708bd2"/>
            <path id="Trazado_802307" data-name="Trazado 802307" d="M358.138,585.754c3.894.773,4.577,3.6,1.539,6.372l-33.8,30.858c-3.164,2.888-9.123,4.606-13.177,3.8l-32.42-6.432c-4.054-.8-4.606-3.815-1.217-6.657l36.226-30.376c3.256-2.73,8.953-4.29,12.848-3.518Z" transform="translate(-185.147 -387.631)" fill="#b0c5fd"/>
            <path id="Trazado_802308" data-name="Trazado 802308" d="M320.741,632.774l46.783,8.65,9.443-8.653-45.091-9.1Z" transform="translate(-214.507 -417.104)" fill="#708bd2"/>
            <g id="Grupo_1067334" data-name="Grupo 1067334" transform="translate(153.017 213.821)" opacity="0.29" style="mix-blend-mode: multiply;isolation: isolate">
              <g id="Grupo_1067333" data-name="Grupo 1067333">
                <g id="Grupo_1067332-2" data-name="Grupo 1067332" clip-path="url(#clip-path-3)">
                  <path id="Trazado_802309" data-name="Trazado 802309" d="M461.987,656.065l.727,3.543,11.89-10.643-.7-3.4Z" transform="translate(-461.987 -645.566)" fill="#45446c"/>
                </g>
              </g>
            </g>
            <path id="Trazado_802310" data-name="Trazado 802310" d="M331.545,388.67c-.022,3.566-4.523,6.937-8.328,6.238l-147.555-27.1c-2.736-.5-4.931-2.77-4.9-5.068l1.27-104.209c.028-2.3,2.266-3.751,5-3.249L332.191,283.78Z" transform="translate(-114.202 -170.665)" fill="#b0c5fd"/>
            <path id="Trazado_802311" data-name="Trazado 802311" d="M331.539,348.1c-.067,5.416-6.7,10.422-12.438,9.379L175.4,331.342c-2.736-.5-4.931-2.77-4.9-5.068l1.27-104.209c.028-2.3,2.267-3.751,5-3.249l149.39,27.435a7.977,7.977,0,0,1,6.535,7.943Z" transform="translate(-114.025 -146.275)" fill="#708bd2"/>
            <path id="Trazado_802312" data-name="Trazado 802312" d="M335.227,364.4c-.065,3.548-4.284,6.788-7.982,6.13l-137.3-24.449c-2.6-.465-4.677-2.438-4.647-4.407l1.387-89.34c.031-1.97,2.159-3.188,4.757-2.723l139.336,24.608a7.31,7.31,0,0,1,5.975,7.35Z" transform="translate(-123.924 -166.872)" fill="#b0c5fd"/>
            <path id="Trazado_802313" data-name="Trazado 802313" d="M409.107,271.812a1.2,1.2,0,0,1-1.387,1.269,1.758,1.758,0,0,1-1.355-1.739,1.2,1.2,0,0,1,1.387-1.269,1.758,1.758,0,0,1,1.355,1.739" transform="translate(-271.771 -180.608)" fill="#fff"/>
            <path id="Trazado_802314" data-name="Trazado 802314" d="M495.753,712.82l-25.714-5.476c.743-1.354.346-3.489,2.881-5.457l19.4-15.055a14.049,14.049,0,0,1,10.1-2.408l25.714,5.476c3.02.643,3.417,2.779.883,4.746l-19.4,15.055c-2.535,1.967-7.08,3.05-13.864,3.118" transform="translate(-314.355 -457.609)" fill="#efe5da"/>
            <path id="Trazado_802315" data-name="Trazado 802315" d="M344.742,389.428,216.9,367.084l1.6-87.839,127.051,23.506Z" transform="translate(-145.061 -186.755)" fill="#fff"/>
            <path id="Trazado_802316" data-name="Trazado 802316" d="M387.98,599.7l13.217-5.768-3.349-4.171Z" transform="translate(-259.475 -394.425)" fill="#2b4ca1"/>
            <path id="Trazado_802317" data-name="Trazado 802317" d="M505.845,679.774l.217,9.608-6.693,1.344-52.32,11.235-.594-9.367Z" transform="translate(-298.583 -454.623)" fill="#6479de"/>
            <path id="Trazado_802318" data-name="Trazado 802318" d="M476.276,713.3l-25.541-5.439c-3-.639-3.395-2.76-.877-4.715L469.125,688.2a13.95,13.95,0,0,1,10.031-2.391l25.54,5.439c3,.639,3.395,2.76.877,4.714l-19.266,14.953a13.952,13.952,0,0,1-10.032,2.391" transform="translate(-299.75 -458.533)" fill="#6479de"/>
            <path id="Trazado_802319" data-name="Trazado 802319" d="M474.6,684.208l-25.714-5.476c-3.02-.643-3.417-2.779-.883-4.746l19.4-15.055a14.046,14.046,0,0,1,10.1-2.408L503.211,662c3.021.643,3.418,2.779.883,4.747L484.7,681.8a14.048,14.048,0,0,1-10.1,2.407" transform="translate(-298.499 -438.949)" fill="#6c83f0"/>
            <path id="Trazado_802320" data-name="Trazado 802320" d="M495.211,744.4a.974.974,0,0,1-1.2.992,1.516,1.516,0,0,1-1.2-1.434.973.973,0,0,1,1.2-.992,1.515,1.515,0,0,1,1.2,1.434" transform="translate(-329.591 -496.87)" fill="#fff"/>
            <path id="Trazado_802321" data-name="Trazado 802321" d="M506.519,746.84a.974.974,0,0,1-1.2.992,1.516,1.516,0,0,1-1.2-1.434.973.973,0,0,1,1.2-.992,1.515,1.515,0,0,1,1.2,1.434" transform="translate(-337.153 -498.503)" fill="#fff"/>
            <path id="Trazado_802322" data-name="Trazado 802322" d="M517.827,749.281a.974.974,0,0,1-1.2.992,1.516,1.516,0,0,1-1.2-1.434.973.973,0,0,1,1.2-.992,1.515,1.515,0,0,1,1.2,1.434" transform="translate(-344.716 -500.136)" fill="#fff"/>
            <path id="Trazado_802323" data-name="Trazado 802323" d="M530.054,751.726a.974.974,0,0,1-1.2.992,1.516,1.516,0,0,1-1.2-1.434.974.974,0,0,1,1.2-.992,1.516,1.516,0,0,1,1.2,1.434" transform="translate(-352.892 -501.771)" fill="#fff"/>
            <path id="Trazado_802324" data-name="Trazado 802324" d="M506.284,688.567l-19.4,15.055a14.046,14.046,0,0,1-10.1,2.407l-25.714-5.476" transform="translate(-301.67 -460.503)" fill="none" stroke="#1f1406" stroke-linecap="round" stroke-linejoin="round" stroke-width="1.72"/>
            <path id="Trazado_802325" data-name="Trazado 802325" d="M504.913,641.686l.217,9.608-6.693,1.344-52.32,11.235-.594-9.367Z" transform="translate(-297.96 -429.15)" fill="#6479de"/>
            <path id="Trazado_802326" data-name="Trazado 802326" d="M475.345,675.214l-25.54-5.439c-3-.639-3.395-2.76-.877-4.714l19.266-14.953a13.953,13.953,0,0,1,10.032-2.391l25.54,5.439c3,.639,3.395,2.76.877,4.714l-19.266,14.953a13.953,13.953,0,0,1-10.032,2.391" transform="translate(-299.127 -433.06)" fill="#6479de"/>
            <path id="Trazado_802327" data-name="Trazado 802327" d="M473.666,646.12l-25.714-5.476c-3.02-.643-3.417-2.779-.883-4.746l19.4-15.055a14.046,14.046,0,0,1,10.1-2.408l25.714,5.476c3.02.643,3.418,2.779.883,4.747l-19.4,15.055a14.048,14.048,0,0,1-10.1,2.407" transform="translate(-297.877 -413.476)" fill="#6c83f0"/>
            <path id="Trazado_802328" data-name="Trazado 802328" d="M516.42,711.887a.974.974,0,0,1-1.2.992,1.516,1.516,0,0,1-1.2-1.434.974.974,0,0,1,1.2-.992,1.515,1.515,0,0,1,1.2,1.434" transform="translate(-343.775 -475.127)" fill="#fff"/>
            <path id="Trazado_802329" data-name="Trazado 802329" d="M527.728,714.329a.974.974,0,0,1-1.2.992,1.515,1.515,0,0,1-1.2-1.434.973.973,0,0,1,1.2-.992,1.515,1.515,0,0,1,1.2,1.434" transform="translate(-351.338 -476.76)" fill="#fff"/>
            <path id="Trazado_802330" data-name="Trazado 802330" d="M503.982,603.6l.217,9.608-6.693,1.344-52.32,11.235-.594-9.367Z" transform="translate(-297.337 -403.677)" fill="#6479de"/>
            <path id="Trazado_802331" data-name="Trazado 802331" d="M474.413,637.127l-25.54-5.439c-3-.639-3.395-2.76-.877-4.715l19.266-14.953a13.951,13.951,0,0,1,10.032-2.391l25.54,5.439c3,.639,3.395,2.76.877,4.714l-19.266,14.953a13.952,13.952,0,0,1-10.032,2.391" transform="translate(-298.504 -407.588)" fill="#6479de"/>
            <path id="Trazado_802332" data-name="Trazado 802332" d="M472.734,608.032l-25.714-5.476c-3.02-.643-3.417-2.779-.883-4.746l19.4-15.055a14.048,14.048,0,0,1,10.1-2.408l25.714,5.476c3.02.643,3.417,2.779.883,4.747l-19.4,15.055a14.047,14.047,0,0,1-10.1,2.407" transform="translate(-297.253 -388.004)" fill="#6c83f0"/>
            <path id="Trazado_802333" data-name="Trazado 802333" d="M506.385,667.836a.974.974,0,0,1-1.2.992,1.516,1.516,0,0,1-1.2-1.434.973.973,0,0,1,1.2-.992,1.515,1.515,0,0,1,1.2,1.434" transform="translate(-337.064 -445.666)" fill="#fff"/>
            <path id="Trazado_802334" data-name="Trazado 802334" d="M517.693,670.277a.974.974,0,0,1-1.2.992,1.516,1.516,0,0,1-1.2-1.434.973.973,0,0,1,1.2-.992,1.515,1.515,0,0,1,1.2,1.434" transform="translate(-344.626 -447.299)" fill="#fff"/>
            <path id="Trazado_802335" data-name="Trazado 802335" d="M529,672.719a.974.974,0,0,1-1.2.992,1.516,1.516,0,0,1-1.2-1.434.973.973,0,0,1,1.2-.992,1.515,1.515,0,0,1,1.2,1.434" transform="translate(-352.188 -448.932)" fill="#fff"/>
            <path id="Trazado_802336" data-name="Trazado 802336" d="M347.374,412.312h0c-18.333-11.741-31.966-25.875-32.043-44.688l-.181-44.145,32.692-6.492,32.812,22.969.181,44.145c.394,6.312-12.323,22.53-33.462,28.211" transform="translate(-210.768 -211.996)" fill="#e3eef2"/>
            <path id="Trazado_802337" data-name="Trazado 802337" d="M304.67,421.41h0c-16.81-5.477-28.453-25.887-28.531-44.7l-7.5-38.575,7.319-5.57,32.692-6.492,32.813,22.969.181,44.145c.5,15.416-18.338,30.167-36.974,28.223" transform="translate(-179.662 -218.072)" fill="#ff6488"/>
            <path id="Trazado_802338" data-name="Trazado 802338" d="M319.814,421.41h0c-16.811-5.477-28.453-25.887-28.531-44.7l25.192-45.067,7.319-5.57,32.813,22.969.181,44.145c.5,15.416-18.338,30.167-36.973,28.223" transform="translate(-194.806 -218.072)" fill="#e33961"/>
            <path id="Trazado_802339" data-name="Trazado 802339" d="M319.814,467.789h0c-16.811-5.477-28.453-25.887-28.531-44.7l58-22.1,7.319-5.57.181,44.145c.345,10.677-8.584,21.036-20.3,25.749a35.107,35.107,0,0,1-16.675,2.474" transform="translate(-194.806 -264.451)" fill="#e33961"/>
            <path id="Trazado_802340" data-name="Trazado 802340" d="M300.863,438.214h0c-18.333-11.741-31.966-25.875-32.043-44.688l-.181-44.145,32.692-6.492,32.812,22.969L334.325,410c.395,6.312-12.323,22.53-33.462,28.211" transform="translate(-179.662 -229.319)" fill="#f9305f"/>
            <path id="Trazado_802341" data-name="Trazado 802341" d="M324.919,455.326c-9.281-8.491-19.813-16.929-19.859-28.178l-.108-26.4,19.549-3.882L344.122,410.6l-3.149,17.014c.046,11.25-16.054,27.71-16.054,27.71" transform="translate(-203.947 -265.419)" fill="#fff"/>
            <path id="Trazado_802342" data-name="Trazado 802342" d="M364.392,455.326h0l-.418-58.458L383.6,410.6,383.7,437c-.911,5.528-7.425,13.422-19.311,18.325" transform="translate(-243.42 -265.419)" fill="#e4e6f2"/>
            <path id="Trazado_802343" data-name="Trazado 802343" d="M358.656,449.218c.029,2.6-1.89,4.255-4.286,3.7a6.118,6.118,0,0,1-4.392-5.706c-.029-2.6,1.89-4.255,4.286-3.7a6.118,6.118,0,0,1,4.393,5.706" transform="translate(-234.059 -296.544)" fill="#f9305f"/>
            <path id="Trazado_802344" data-name="Trazado 802344" d="M350.415,480.283a8.6,8.6,0,0,1-.888-.333l-2.742-.883a26.576,26.576,0,0,0-4.518-1.039l-2.618-.36a7.043,7.043,0,0,1-.885-.076c-2.208-.267-3.91,1.358-3.882,3.818l.03,2.611,9.7,2.241.119.028,9.7,2.241-.03-2.611a6.257,6.257,0,0,0-3.989-5.636" transform="translate(-223.963 -319.387)" fill="#f9305f"/>
            <path id="Trazado_802345" data-name="Trazado 802345" d="M505.377,651.51l-19.4,15.055a14.046,14.046,0,0,1-10.1,2.408L450.165,663.5" transform="translate(-301.064 -435.72)" fill="none" stroke="#1f1406" stroke-linecap="round" stroke-linejoin="round" stroke-width="1.72"/>
            <path id="Trazado_802346" data-name="Trazado 802346" d="M504.349,609.49l-19.4,15.055a14.046,14.046,0,0,1-10.1,2.407l-25.714-5.476" transform="translate(-300.376 -407.618)" fill="none" stroke="#1f1406" stroke-linecap="round" stroke-linejoin="round" stroke-width="1.72"/>
            <path id="Trazado_802347" data-name="Trazado 802347" d="M51.33,731.1c5.55-2.889,14.946-2.9,20.986-.014a12.542,12.542,0,0,1,2.593,1.615,19.245,19.245,0,0,1,12.722.791c4.244,2.025,4.523,5.312.623,7.343-3.748,1.951-9.985,2.025-14.233.232-.258.161-.529.318-.819.469-5.55,2.89-14.946,2.9-20.986.014s-6.437-7.56-.887-10.45" transform="translate(-31.71 -487.497)" fill="#efe5da"/>
            <rect id="Rectángulo_375104" data-name="Rectángulo 375104" width="15.162" height="13.279" transform="translate(31.628 199.786) rotate(-89.86)" fill="#6f92f2"/>
            <path id="Trazado_802348" data-name="Trazado 802348" d="M79.742,742.227l-.072,3.124a16.616,16.616,0,0,1-.49,2.354,2,2,0,0,1-1.711,1.249,2.575,2.575,0,0,1-1.945-3.314c.534-1.626,1.6-4.219,1.6-4.219a5.816,5.816,0,0,0,2.619.806" transform="translate(-50.423 -495.851)" fill="#472e0e"/>
            <path id="Trazado_802349" data-name="Trazado 802349" d="M76.473,637.456c.723,1.747,2.161,2.243,2.468.506.892-9.805,4.129-17.843,4.969-27.008.943-10.291.206-10.538,1.628-26.314l-9.706.623c.7,11.507.1,25.9.1,25.9-3.565,10.756-.031,12.605.541,26.292" transform="translate(-49.732 -390.999)" fill="#c95836"/>
            <path id="Trazado_802350" data-name="Trazado 802350" d="M82.605,744.607s-.576,3.361-1.984,3.073-.484-3.58-.484-3.58Z" transform="translate(-53.396 -497.644)" fill="#c95836"/>
            <path id="Trazado_802351" data-name="Trazado 802351" d="M86.292,574.65s-2.63,28.613-3.192,31.7-3.533,18.708-3.533,18.708a17.772,17.772,0,0,1-5.738-.014s-2.36-11.586-1.007-21.451a205.145,205.145,0,0,0,1.346-23.022l6.324-9.812Z" transform="translate(-48.422 -381.716)" fill="#472e0e"/>
            <path id="Trazado_802352" data-name="Trazado 802352" d="M95.154,406.225c-.98-.248-1.844.686-2.36,1.492-1.043,1.638-1.632,2.52-2.567,4.192-.974,1.688-1.055,4.481,1.18,5.844,3.161,1.754,5.047.782,6.607,1.048,1.257-.089,7.99-1.236,6.492-5.174-.191-.5-.5-1.027-.747-1.655A17.6,17.6,0,0,0,102.13,408c-1.32-2.31-5.742-3.774-6.976-1.774" transform="translate(-59.908 -271.047)" fill="#2e1a10" fill-rule="evenodd"/>
            <path id="Trazado_802353" data-name="Trazado 802353" d="M138.012,739.9l-4.342-5.44a5.459,5.459,0,0,0-3.047-.43.861.861,0,0,0-.787.846l-.145.878c-.2,1.474-.4,1.955.506,2.472l5.368,3.07c1.093.913,4.28.589,2.447-1.4" transform="translate(-86.622 -490.877)" fill="#472e0e"/>
            <path id="Trazado_802354" data-name="Trazado 802354" d="M137.144,735.7s2.206,3.672,1.866,3.883c-1.412.877-4.4-1.825-4.4-1.825s1.943-2.239,2.534-2.059" transform="translate(-90.025 -492.02)" fill="#c95836"/>
            <path id="Trazado_802355" data-name="Trazado 802355" d="M123.974,625.21a2.6,2.6,0,0,0,1,1.817c1.431,1.036,2.482-.474,2.645-1.984.24-10.164,2.623-18.088,2.852-27.589.258-10.668-.519-10.871-.147-27.225l-9.957,1.314c1.52,11.807,1.9,26.68,1.9,26.68-2.865,11.092.137,13.687,1.708,26.986" transform="translate(-80.499 -381.361)" fill="#c95836"/>
            <path id="Trazado_802356" data-name="Trazado 802356" d="M75.937,535.958s-2.672,4.317-.517,10.879c1.394,4.245,11.614,6.679,11.614,6.679l2.3-.433,1.417,21.4a48.792,48.792,0,0,0,2.085,24.963s3.658,1.442,5.265.516c0,0,2.746-21.246,2.776-22.42s-.117-38.215-.117-38.215Z" transform="translate(-49.878 -358.441)" fill="#472e0e"/>
            <path id="Trazado_802357" data-name="Trazado 802357" d="M217.418,426.509h0a1.376,1.376,0,0,1,.119,1.921l-2.247,1.184c-.494.443-.19.085-.75-.532s-1.1-.272-.343-1.324l1.425-1.216a2.189,2.189,0,0,1,.62-.382c.424-.165.737-.135,1.176.349" transform="translate(-143.003 -284.949)" fill="#c95836"/>
            <path id="Trazado_802358" data-name="Trazado 802358" d="M127.834,446.622c-3.671-1.831-3.015-3.962-3.015-3.962l-1.177-8.376c2.624-.554,13.919,4.093,18.9,5.425a4.231,4.231,0,0,0,3.208-1.46l6.87-6.5a.832.832,0,0,1,1.2.053l1.364,1.543a1.454,1.454,0,0,1,.073,1.837l-5.574,7.412a19.012,19.012,0,0,1-7.9,6.034,6.507,6.507,0,0,1-2.963.452c-2.372-.187-7.614-.775-10.98-2.454" transform="translate(-82.69 -288.592)" fill="#6f92f2"/>
            <path id="Trazado_802359" data-name="Trazado 802359" d="M88.337,438.7c-.064.025,1.361.413-2.2-.635a10.434,10.434,0,0,0-4.759-.38l-4.639,2.109c-8.416,2.84-8.542,5.279-6.308,9.762a26.586,26.586,0,0,1,2.116,7.547c.167,2.841-.364,10.655-.821,11.58-.594,1.2,4.675,8.617,15.6,7.042,8.6-1.24,7.521-4.769,7.2-9.468-.2-2.956-.1-9.986-.129-12.332a25.172,25.172,0,0,0-1.773-8.7c-.663-1.817-1.121-3.119-1.418-3.976a3.453,3.453,0,0,0-1.706-1.954Z" transform="translate(-46.282 -292.632)" fill="#fff"/>
            <path id="Trazado_802360" data-name="Trazado 802360" d="M74.816,440.253a25.732,25.732,0,0,1,3.395,15.635c-1.09,8.666-3.583,42.5-3.583,42.5s-9.816-2.013-11.816-6.656c-1.712-3.973.8-35.355,1.59-44.276a4.738,4.738,0,0,1,2.445-3.609c1.844-1.11,5.69-3.162,7.97-3.593" transform="translate(-41.616 -294.435)" fill="#6f92f2"/>
            <path id="Trazado_802361" data-name="Trazado 802361" d="M123.553,439.872c-.459-.012,2.8,4.664,3.961,10.025.992,4.563.842,6.388,1.286,11.7.61,7.3-.878,35.285-.878,35.285s8.233-3.3,8.334-7.517-1.471-38.83-1.471-38.83l-2.918-8.194s-6.834-2.43-8.313-2.468" transform="translate(-82.601 -294.18)" fill="#6f92f2"/>
            <path id="Trazado_802362" data-name="Trazado 802362" d="M158.049,470.3c.251.258-.234.443-.062,4.372" transform="translate(-105.634 -314.533)" fill="none" stroke="#445994" stroke-linecap="round" stroke-linejoin="round" stroke-width="1.21"/>
            <path id="Trazado_802363" data-name="Trazado 802363" d="M107.822,438.077s1.237,3.5-1.1,4.2-5.3-3.941-5.3-3.941l1.764-.825,3.212.02Z" transform="translate(-67.83 -292.604)" fill="#c95836"/>
            <path id="Trazado_802364" data-name="Trazado 802364" d="M129.034,427.44a4.046,4.046,0,0,1,.207,2.626" transform="translate(-86.296 -285.866)" fill="none" stroke="#7d3c31" stroke-linecap="round" stroke-linejoin="round" stroke-width="0.605"/>
            <path id="Trazado_802365" data-name="Trazado 802365" d="M108.163,430.551l.274-.283c.715.176,1.347.077,1.481-.63l.756-3.986a1.418,1.418,0,0,0-1.056-1.606l-.212-.053c-.715-.176-1.83,0-1.964.708l-.98,4.207c-.134.707.986,1.466,1.7,1.642" transform="translate(-71.193 -283.519)" fill="#c95836"/>
            <path id="Trazado_802366" data-name="Trazado 802366" d="M112.3,431.491a3.228,3.228,0,0,1-2.9-1.589s1.066,2.6,2.643,2.954Z" transform="translate(-73.167 -287.512)" fill="#873b24"/>
            <path id="Trazado_802367" data-name="Trazado 802367" d="M103.884,408.144a1.652,1.652,0,0,1,2.484-.778c.87-.423,1.952.071,2.782,1.426,1.154,1.888,1.541,4.957.663,6.566a1.852,1.852,0,0,1-1.635.93,4.5,4.5,0,0,1-1.708-.219c-1.994-.64-2.019-.347-2.788-1.6-1.154-1.888-.675-4.712.2-6.321" transform="translate(-68.884 -272.243)" fill="#c95836"/>
            <path id="Trazado_802368" data-name="Trazado 802368" d="M102.623,408.542c-1.887,5.627-2.4,4.7-2.256,6.667.026.347,1.168,1.388.109,1.693,0,0-3.4-.408-2.93-4.9.58-5.591,3.418-2.769,3.418-2.769Z" transform="translate(-65.208 -273.213)" fill="#2e1a10"/>
            <path id="Trazado_802369" data-name="Trazado 802369" d="M100.473,407.588c.328-1.632,2.584-2.134,5.979.637,1.248-.576.507-2.05-.539-2.832a4.983,4.983,0,0,0-3.464-1.256,3.426,3.426,0,0,0-3.518,3.1c-.041.2-.926.939-.937,1.1l.742-.26c-.087,1.327.4-.656,1.737-.491" transform="translate(-65.538 -270.271)" fill="#2e1a10"/>
            <path id="Trazado_802370" data-name="Trazado 802370" d="M118.271,427.726h0c.4-.109.642-.681.544-1.278l-1.441.395c.1.6.5.992.9.883" transform="translate(-78.498 -285.202)" fill="#fff"/>
            <path id="Trazado_802371" data-name="Trazado 802371" d="M103.3,425.2a1.134,1.134,0,1,0-.409-1.551,1.134,1.134,0,0,0,.409,1.551" transform="translate(-68.707 -282.956)" fill="#c95836"/>
            <line id="Línea_1773" data-name="Línea 1773" x1="1.722" y1="0.847" transform="translate(34.402 135.401)" fill="none" stroke="#7d3c31" stroke-linecap="round" stroke-linejoin="round" stroke-width="0.605"/>
            <path id="Trazado_802372" data-name="Trazado 802372" d="M98.4,430.015a5.057,5.057,0,0,1-.513-4.557" transform="translate(-65.267 -284.539)" fill="none" stroke="#7d3c31" stroke-linecap="round" stroke-linejoin="round" stroke-width="0.605"/>
            <path id="Trazado_802373" data-name="Trazado 802373" d="M51.637,462l-3.753,14.159-4.743,11.918,5.023,1.033,5.953-9.581,1.895-8.98Z" transform="translate(-28.852 -308.978)" fill="#6f92f2"/>
            <path id="Trazado_802374" data-name="Trazado 802374" d="M53.133,530.8l.068-.388-.728.288-.1-.226L36.36,525.627a1.322,1.322,0,0,0-.822.136L27.5,529.9l.016-.086-1.454.589-.076.413H26c.01.038.047.069.112.089l16.658,5.039a1.324,1.324,0,0,0,.823-.137l9.307-4.787c.142-.073.222-.153.235-.22Z" transform="translate(-17.38 -351.517)" fill="#ad9b8f"/>
            <path id="Trazado_802375" data-name="Trazado 802375" d="M42.977,534.7l-16.659-5.039c-.193-.058-.138-.215.122-.349l9.307-4.787a1.322,1.322,0,0,1,.822-.137l16.659,5.039c.193.058.138.215-.122.349L43.8,534.568a1.324,1.324,0,0,1-.822.137" transform="translate(-17.524 -350.691)" fill="#efe5da"/>
            <path id="Trazado_802376" data-name="Trazado 802376" d="M34.205,511.277a1.214,1.214,0,0,0-.809-.76l-17.609-5.146a.619.619,0,0,0-.391-.006h0l0,0a.306.306,0,0,0-.092.056l-.592.468.533-.081,1.581,7.162a1.213,1.213,0,0,0,.809.76L34.282,518.6l.535.359.917,3.062a1.214,1.214,0,0,0,.714-.352Z" transform="translate(-9.836 -337.961)" fill="#efe5da"/>
            <path id="Trazado_802377" data-name="Trazado 802377" d="M15.076,506.84l17.609,5.146a1.212,1.212,0,0,1,.809.76l1.6,7.241c0,.005,0,.01,0,.015l.64,2.9c.068.309-.184.47-.563.359l-17.609-5.146a1.214,1.214,0,0,1-.81-.76l-1.6-7.241c0-.005,0-.01,0-.015l-.64-2.9c-.068-.309.184-.47.563-.359" transform="translate(-9.699 -338.944)" fill="#472e0e"/>
            <path id="Trazado_802378" data-name="Trazado 802378" d="M42.269,530.229a1.033,1.033,0,0,1-1.494.85,1.933,1.933,0,0,1-1.31-1.8,1.032,1.032,0,0,1,1.494-.85,1.933,1.933,0,0,1,1.31,1.8" transform="translate(-26.391 -353.347)" fill="#fff"/>
            <path id="Trazado_802379" data-name="Trazado 802379" d="M36.2,543.462h0c-.149-.974.293-1.73.983-1.68l2.675.91c.691.05,1.195.076,1.344,1.052s-.169,1.5-1.422,1.391l-1.959-.193a2.367,2.367,0,0,1-.77-.206,1.4,1.4,0,0,1-.852-1.273" transform="translate(-24.19 -362.334)" fill="#c95836"/>
            <line id="Línea_1774" data-name="Línea 1774" y1="7.532" x2="2.092" transform="translate(26.345 157.9)" fill="none" stroke="#445994" stroke-linecap="round" stroke-linejoin="round" stroke-width="1.21"/>
          </g>
        </g>
      </g>
    </g>
  </g>
</svg>
