<svg id="Grupo_1068693" data-name="Grupo 1068693" xmlns="http://www.w3.org/2000/svg" width="60" height="57.983" viewBox="0 0 60 57.983">
  <g id="Grupo_1068058" data-name="Grupo 1068058" transform="translate(0.879 0.879)">
    <g id="Grupo_1068057" data-name="Grupo 1068057">
      <path id="Trazado_803581" data-name="Trazado 803581" d="M7.5,79.4a1.758,1.758,0,0,0,1.758,1.758H61.875A1.758,1.758,0,0,0,63.633,79.4V27.864a1.758,1.758,0,0,0-1.758-1.758H10.43a1.758,1.758,0,0,0-1.758,1.758L7.5,37.495Z" transform="translate(-7.5 -24.934)" fill="#f7f9fa"/>
      <path id="Trazado_803582" data-name="Trazado 803582" d="M461.844,18.106H459.5a1.573,1.573,0,0,1,1.758,1.523v52.71A1.758,1.758,0,0,1,459.5,74.1h3.516a1.758,1.758,0,0,0,1.758-1.758V30.432l-1.172-10.8a1.573,1.573,0,0,0-1.758-1.523Z" transform="translate(-406.531 -17.872)" fill="#e9edf1"/>
      <path id="Trazado_803583" data-name="Trazado 803583" d="M62.578,16.106H9.258A1.758,1.758,0,0,0,7.5,17.864v10.8H64.336v-10.8A1.758,1.758,0,0,0,62.578,16.106Z" transform="translate(-7.5 -16.106)" fill="#978ecb"/>
      <path id="Trazado_803584" data-name="Trazado 803584" d="M463.016,16.106H459.5a1.758,1.758,0,0,1,1.758,1.758v10.8h3.516v-10.8A1.758,1.758,0,0,0,463.016,16.106Z" transform="translate(-406.531 -16.106)" fill="#6e61b6"/>
      <path id="Trazado_803585" data-name="Trazado 803585" d="M191.386,54.76a1.89,1.89,0,0,1-1.968,1.968,1.989,1.989,0,1,1,0-3.935A1.89,1.89,0,0,1,191.386,54.76Z" transform="translate(-166.259 -48.479)" fill="#6cf5c2"/>
      <path id="Trazado_803586" data-name="Trazado 803586" d="M198.944,51.907a2.077,2.077,0,0,0-.82.168,2.085,2.085,0,0,1,0,3.834,2.085,2.085,0,1,0,.82-4Z" transform="translate(-175.785 -47.712)" fill="#05e39c"/>
      <path id="Trazado_803587" data-name="Trazado 803587" d="M119.971,54.76A1.89,1.89,0,0,1,118,56.727a1.989,1.989,0,1,1,0-3.935A1.89,1.89,0,0,1,119.971,54.76Z" transform="translate(-103.213 -48.479)" fill="#ffe282"/>
      <path id="Trazado_803588" data-name="Trazado 803588" d="M127.529,51.907a2.077,2.077,0,0,0-.82.168,2.085,2.085,0,0,1,0,3.834,2.085,2.085,0,1,0,.82-4Z" transform="translate(-112.739 -47.712)" fill="#ffd368"/>
      <path id="Trazado_803589" data-name="Trazado 803589" d="M48.557,54.76a1.89,1.89,0,0,1-1.968,1.968,1.989,1.989,0,1,1,0-3.935A1.89,1.89,0,0,1,48.557,54.76Z" transform="translate(-40.168 -48.479)" fill="#fd8087"/>
      <path id="Trazado_803590" data-name="Trazado 803590" d="M56.115,51.907a2.077,2.077,0,0,0-.82.168,2.085,2.085,0,0,1,0,3.834,2.085,2.085,0,1,0,.82-4Z" transform="translate(-49.694 -47.712)" fill="#fd4755"/>
      <path id="Trazado_803591" data-name="Trazado 803591" d="M70.737,186.244a1.89,1.89,0,0,1-1.968,1.968,1.989,1.989,0,1,1,0-3.935A1.89,1.89,0,0,1,70.737,186.244Z" transform="translate(-59.748 -164.555)" fill="#6cf5c2"/>
      <path id="Trazado_803592" data-name="Trazado 803592" d="M78.3,183.391a2.077,2.077,0,0,0-.82.168,2.085,2.085,0,0,1,0,3.834,2.085,2.085,0,1,0,.82-4Z" transform="translate(-69.275 -163.787)" fill="#05e39c"/>
      <path id="Trazado_803593" data-name="Trazado 803593" d="M413.787,186.244a1.89,1.89,0,0,1-1.968,1.968,1.989,1.989,0,1,1,0-3.935,1.89,1.89,0,0,1,1.968,1.968Z" transform="translate(-362.597 -164.555)" fill="#6cf5c2"/>
      <path id="Trazado_803594" data-name="Trazado 803594" d="M421.345,183.391a2.077,2.077,0,0,0-.82.168,2.085,2.085,0,0,1,0,3.834,2.085,2.085,0,1,0,.82-4Z" transform="translate(-372.124 -163.787)" fill="#05e39c"/>
      <path id="Trazado_803595" data-name="Trazado 803595" d="M70.737,403.8a1.89,1.89,0,0,1-1.968,1.968,1.989,1.989,0,1,1,0-3.935A1.89,1.89,0,0,1,70.737,403.8Z" transform="translate(-59.748 -356.618)" fill="#6cf5c2"/>
      <path id="Trazado_803596" data-name="Trazado 803596" d="M78.3,400.949a2.077,2.077,0,0,0-.82.168,2.085,2.085,0,0,1,0,3.834,2.085,2.085,0,1,0,.82-4Z" transform="translate(-69.275 -355.85)" fill="#05e39c"/>
      <path id="Trazado_803597" data-name="Trazado 803597" d="M413.787,403.8a1.89,1.89,0,0,1-1.968,1.968,1.989,1.989,0,1,1,0-3.935,1.89,1.89,0,0,1,1.968,1.968Z" transform="translate(-362.597 -356.618)" fill="#6cf5c2"/>
      <path id="Trazado_803598" data-name="Trazado 803598" d="M421.345,400.949a2.077,2.077,0,0,0-.82.168,2.085,2.085,0,0,1,0,3.834,2.085,2.085,0,1,0,.82-4Z" transform="translate(-372.124 -355.85)" fill="#05e39c"/>
      <path id="Trazado_803599" data-name="Trazado 803599" d="M423.787,294.654a1.89,1.89,0,0,1-1.968,1.968,1.989,1.989,0,1,1,0-3.935A1.89,1.89,0,0,1,423.787,294.654Z" transform="translate(-371.425 -260.261)" fill="#6cf5c2"/>
      <path id="Trazado_803600" data-name="Trazado 803600" d="M431.345,291.8a2.077,2.077,0,0,0-.82.168,2.085,2.085,0,0,1,0,3.834,2.085,2.085,0,1,0,.82-4Z" transform="translate(-380.952 -259.493)" fill="#05e39c"/>
      <path id="Trazado_803601" data-name="Trazado 803601" d="M60.737,294.654a1.89,1.89,0,0,1-1.968,1.968,1.989,1.989,0,1,1,0-3.935A1.89,1.89,0,0,1,60.737,294.654Z" transform="translate(-50.92 -260.261)" fill="#6cf5c2"/>
      <path id="Trazado_803602" data-name="Trazado 803602" d="M68.3,291.8a2.077,2.077,0,0,0-.82.168,2.085,2.085,0,0,1,0,3.834,2.085,2.085,0,1,0,.82-4Z" transform="translate(-60.447 -259.493)" fill="#05e39c"/>
      <path id="Trazado_803603" data-name="Trazado 803603" d="M166.891,208.623c0,7.434-4.854,13.342-12.288,13.342-.455,0-.9.095-1.348.051a13.461,13.461,0,0,1-.028-26.783c.452-.046.912.048,1.376.048C162.037,195.28,166.891,201.189,166.891,208.623Z" transform="translate(-125.483 -174.23)" fill="#978ecb"/>
      <path id="Trazado_803604" data-name="Trazado 803604" d="M245.848,194.736q-.682,0-1.348.067a13.46,13.46,0,0,1,0,26.786q.665.066,1.348.067a13.46,13.46,0,0,0,0-26.919Z" transform="translate(-216.727 -173.803)" fill="#6e61b6"/>
      <path id="Trazado_803605" data-name="Trazado 803605" d="M212.68,294.619a5.955,5.955,0,0,1-.947.04,5.752,5.752,0,0,1-4.8-5.673v-5.751a.947.947,0,0,1,.947-.947h8.436a.947.947,0,0,1,.947.947v5.751C217.258,292.162,215.855,294.619,212.68,294.619Z" transform="translate(-183.558 -251.096)" fill="#fd8087"/>
      <path id="Trazado_803606" data-name="Trazado 803606" d="M253.673,282.288h-1.893a.947.947,0,0,1,.947.947v5.751a5.751,5.751,0,0,1-4.8,5.672,5.748,5.748,0,0,0,6.7-5.672v-5.75A.947.947,0,0,0,253.673,282.288Z" transform="translate(-219.748 -251.095)" fill="#fd4755"/>
    </g>
  </g>
  <g id="Grupo_1068059" data-name="Grupo 1068059">
    <path id="Trazado_803607" data-name="Trazado 803607" d="M179.833,47.371a2.964,2.964,0,1,0,2.964-2.964A2.967,2.967,0,0,0,179.833,47.371Zm4.17,0a1.206,1.206,0,1,1-1.206-1.206A1.207,1.207,0,0,1,184,47.371Z" transform="translate(-158.759 -40.212)"/>
    <path id="Trazado_803608" data-name="Trazado 803608" d="M108.418,47.371a2.964,2.964,0,1,0,2.964-2.964A2.967,2.967,0,0,0,108.418,47.371Zm4.17,0a1.206,1.206,0,1,1-1.206-1.206A1.207,1.207,0,0,1,112.588,47.371Z" transform="translate(-95.713 -40.212)"/>
    <path id="Trazado_803609" data-name="Trazado 803609" d="M37,47.371a2.964,2.964,0,1,0,2.964-2.964A2.967,2.967,0,0,0,37,47.371Zm4.17,0a1.206,1.206,0,1,1-1.206-1.206A1.207,1.207,0,0,1,41.173,47.371Z" transform="translate(-32.667 -40.212)"/>
    <path id="Trazado_803610" data-name="Trazado 803610" d="M57.363,8.606H2.637A2.64,2.64,0,0,0,0,11.243V45.376a.879.879,0,1,0,1.758,0V22.924H34.64a.879.879,0,0,0,0-1.758H1.758V11.243a.88.88,0,0,1,.879-.879H57.363a.88.88,0,0,1,.879.879v9.924H38.471a.879.879,0,1,0,0,1.758H58.242V63.952a.88.88,0,0,1-.879.879H2.637a.88.88,0,0,1-.879-.879V49.207a.879.879,0,0,0-1.758,0V63.952a2.64,2.64,0,0,0,2.637,2.637H57.363A2.64,2.64,0,0,0,60,63.952V11.243a2.64,2.64,0,0,0-2.637-2.637Z" transform="translate(0 -8.606)"/>
    <path id="Trazado_803611" data-name="Trazado 803611" d="M206.058,223.174A4.832,4.832,0,0,0,201.231,228v1.223a1.827,1.827,0,0,0-1.8,1.824V236.8a6.629,6.629,0,0,0,13.259,0v-5.751a1.827,1.827,0,0,0-1.8-1.824V228a4.832,4.832,0,0,0-4.827-4.827Zm0,1.758A3.073,3.073,0,0,1,209.128,228v1.221h-6.138V228A3.073,3.073,0,0,1,206.058,224.932Zm4.872,6.116V236.8a4.872,4.872,0,0,1-9.743,0v-5.751a.068.068,0,0,1,.068-.068h9.608A.068.068,0,0,1,210.93,231.048Z" transform="translate(-176.058 -198.029)"/>
    <path id="Trazado_803612" data-name="Trazado 803612" d="M246.955,316.661a1.23,1.23,0,1,0-1.188,0l-.669,1.556a.2.2,0,0,0,.185.281h2.156a.2.2,0,0,0,.185-.281Z" transform="translate(-216.361 -278.523)"/>
    <path id="Trazado_803613" data-name="Trazado 803613" d="M54.979,190.68a2.964,2.964,0,1,0,0,1.758h4.132a14.244,14.244,0,0,0,.916,4.249H54.492a2.053,2.053,0,0,0-2.051,2.051v2.781a2.964,2.964,0,1,0,1.758,0v-2.781a.293.293,0,0,1,.293-.293h6.349a14.432,14.432,0,0,0,.939,1.488.879.879,0,0,0,1.426-1.028,12.623,12.623,0,0,1-1.022-1.679.854.854,0,0,0-.039-.082,12.588,12.588,0,1,1,3.547,4.342.879.879,0,0,0-1.081,1.386,14.2,14.2,0,0,0,8.81,3.025,14.35,14.35,0,0,0,12.574-7.453h6.355a.293.293,0,0,1,.293.293v2.781a2.964,2.964,0,1,0,1.758,0v-2.781a2.053,2.053,0,0,0-2.051-2.051H86.81a14.238,14.238,0,0,0,.921-4.249h4.131a2.964,2.964,0,1,0,0-1.758H87.731a14.237,14.237,0,0,0-.921-4.249h5.539a2.053,2.053,0,0,0,2.051-2.051v-2.695a2.964,2.964,0,1,0-1.758,0v2.695a.293.293,0,0,1-.293.293H85.994a14.333,14.333,0,0,0-25.148,0H54.492a.293.293,0,0,1-.293-.293v-2.695a2.964,2.964,0,1,0-1.758,0v2.695a2.053,2.053,0,0,0,2.051,2.051H60.03a14.238,14.238,0,0,0-.921,4.249ZM53.32,205.556a1.206,1.206,0,1,1,1.206-1.206A1.207,1.207,0,0,1,53.32,205.556Zm40.2,0a1.206,1.206,0,1,1,1.206-1.206A1.207,1.207,0,0,1,93.521,205.556Zm0-27.907a1.206,1.206,0,1,1-1.206,1.206A1.207,1.207,0,0,1,93.521,177.649Zm1.172,12.7a1.206,1.206,0,1,1-1.206,1.206A1.207,1.207,0,0,1,94.693,190.353Zm-41.373-12.7a1.206,1.206,0,1,1-1.206,1.206A1.207,1.207,0,0,1,53.32,177.649Zm-1.172,15.116a1.206,1.206,0,1,1,1.206-1.206A1.207,1.207,0,0,1,52.148,192.765Z" transform="translate(-43.42 -156.287)"/>
  </g>
</svg>
