<svg id="ransomware" xmlns="http://www.w3.org/2000/svg" width="60" height="53.311" viewBox="0 0 60 53.311">
  <g id="Grupo_1068068" data-name="Grupo 1068068" transform="translate(0.879 0.879)">
    <g id="Grupo_1068067" data-name="Grupo 1068067">
      <path id="Trazado_803631" data-name="Trazado 803631" d="M170.89,338.022l7.293-2.344,7.293,2.344-.776,1.115,1.608,1.229,2.205,6.212-10.33,2.344-10.33-2.344,2.205-6.212,1.59-1.178Z" transform="translate(-149.062 -300.564)" fill="#978ecb"/>
      <path id="Trazado_803632" data-name="Trazado 803632" d="M186.669,340.366h16.249l-.832-2.344-7.293-2.344-7.293,2.344Z" transform="translate(-165.673 -300.564)" fill="#6e61b6"/>
      <path id="Trazado_803633" data-name="Trazado 803633" d="M137.075,434.224H104.9a1.172,1.172,0,0,1-1.172-1.172v-1.438a2.93,2.93,0,0,1,2.93-2.93h28.657a2.93,2.93,0,0,1,2.93,2.93v1.438A1.172,1.172,0,0,1,137.075,434.224Z" transform="translate(-92.453 -382.671)" fill="#f7f9fa"/>
      <path id="Trazado_803634" data-name="Trazado 803634" d="M356.786,428.684H353.27a2.93,2.93,0,0,1,2.93,2.93v1.438a1.172,1.172,0,0,1-1.172,1.172h3.516a1.172,1.172,0,0,0,1.172-1.172v-1.438A2.93,2.93,0,0,0,356.786,428.684Z" transform="translate(-312.75 -382.671)" fill="#e9edf1"/>
      <path id="Trazado_803635" data-name="Trazado 803635" d="M62.4,73.5a1.758,1.758,0,0,0,1.758-1.758V37.8A1.758,1.758,0,0,0,62.4,36.042H9.258A1.758,1.758,0,0,0,7.5,37.8V71.742A1.758,1.758,0,0,0,9.258,73.5Z" transform="translate(-7.5 -36.042)" fill="#80b6fc"/>
      <path id="Trazado_803636" data-name="Trazado 803636" d="M463.016,36.042H459.5a1.758,1.758,0,0,1,1.758,1.758V71.742A1.758,1.758,0,0,1,459.5,73.5h3.516a1.758,1.758,0,0,0,1.758-1.758V37.8a1.758,1.758,0,0,0-1.758-1.758Z" transform="translate(-406.531 -36.042)" fill="#62a4fb"/>
      <path id="Trazado_803637" data-name="Trazado 803637" d="M166.891,94.891c0,7.434-4.854,13.342-12.288,13.342-.455,0-.9.095-1.348.051a13.461,13.461,0,0,1-.028-26.783c.452-.046.912.048,1.376.048C162.037,81.548,166.891,87.457,166.891,94.891Z" transform="translate(-125.483 -76.162)" fill="#978ecb"/>
      <path id="Trazado_803638" data-name="Trazado 803638" d="M245.848,81q-.682,0-1.348.067a13.46,13.46,0,0,1,0,26.786q.665.066,1.348.067a13.46,13.46,0,0,0,0-26.919Z" transform="translate(-216.727 -75.734)" fill="#6e61b6"/>
      <path id="Trazado_803639" data-name="Trazado 803639" d="M212.68,180.887a5.956,5.956,0,0,1-.947.04,5.752,5.752,0,0,1-4.8-5.673V169.5a.947.947,0,0,1,.947-.947h8.436a.947.947,0,0,1,.947.947v5.751C217.258,178.43,215.855,180.887,212.68,180.887Z" transform="translate(-183.558 -153.028)" fill="#fd8087"/>
      <path id="Trazado_803640" data-name="Trazado 803640" d="M253.673,168.556h-1.893a.947.947,0,0,1,.947.947v5.751a5.751,5.751,0,0,1-4.8,5.672,5.748,5.748,0,0,0,6.7-5.672V169.5A.947.947,0,0,0,253.673,168.556Z" transform="translate(-219.748 -153.027)" fill="#fd4755"/>
      <path id="Trazado_803641" data-name="Trazado 803641" d="M400.185,131.887h1.181v10.44a.55.55,0,0,0,.551.551h2.753a.551.551,0,0,0,.551-.551v-10.44H406.4a.551.551,0,0,0,.44-.882l-1.442-1.915-1.666-2.212a.551.551,0,0,0-.88,0l-1.666,2.212-1.442,1.915A.551.551,0,0,0,400.185,131.887Z" transform="translate(-353.681 -116.04)" fill="#ffe282"/>
      <path id="Trazado_803642" data-name="Trazado 803642" d="M56.682,137.65H55.5v-10.44a.55.55,0,0,0-.551-.551H52.2a.551.551,0,0,0-.551.551v10.44H50.467a.551.551,0,0,0-.44.882l1.442,1.915,1.666,2.212a.551.551,0,0,0,.88,0l1.666-2.212,1.442-1.915A.551.551,0,0,0,56.682,137.65Z" transform="translate(-44.945 -116.041)" fill="#fd8087"/>
    </g>
  </g>
  <g id="Grupo_1068069" data-name="Grupo 1068069" transform="translate(0 0)">
    <path id="Trazado_803643" data-name="Trazado 803643" d="M44.914,76.313a2.053,2.053,0,0,1,2.051,2.051V79.8a.293.293,0,0,1-.293.293H42.15a.879.879,0,0,0,0,1.758h4.523A2.053,2.053,0,0,0,48.723,79.8V78.363a3.813,3.813,0,0,0-3.809-3.809H40.95l-2.413-6.8H57.363A2.64,2.64,0,0,0,60,65.12V31.179a2.64,2.64,0,0,0-2.637-2.637H48.482a.879.879,0,0,0,0,1.758h8.881a.88.88,0,0,1,.879.879V65.12a.88.88,0,0,1-.879.879H2.637a.88.88,0,0,1-.879-.879V31.179a.88.88,0,0,1,.879-.879H44.622a.879.879,0,1,0,0-1.758H2.637A2.64,2.64,0,0,0,0,31.179V65.12a2.64,2.64,0,0,0,2.637,2.637H21.463l-2.413,6.8H15.086a3.813,3.813,0,0,0-3.809,3.809V79.8a2.053,2.053,0,0,0,2.051,2.051H38.319a.879.879,0,1,0,0-1.758H13.328a.293.293,0,0,1-.293-.293V78.363a2.053,2.053,0,0,1,2.051-2.051Zm-5.829-1.758H20.915l2.413-6.8H36.672Z" transform="translate(0 -28.542)"/>
    <path id="Trazado_803644" data-name="Trazado 803644" d="M206.058,109.442a4.832,4.832,0,0,0-4.827,4.827v1.223a1.827,1.827,0,0,0-1.8,1.824v5.751a6.629,6.629,0,0,0,13.259,0v-5.751a1.827,1.827,0,0,0-1.8-1.824v-1.223a4.832,4.832,0,0,0-4.827-4.827Zm0,1.758a3.073,3.073,0,0,1,3.069,3.069v1.221h-6.138v-1.221A3.073,3.073,0,0,1,206.058,111.2Zm4.872,6.116v5.751a4.872,4.872,0,0,1-9.743,0v-5.751a.068.068,0,0,1,.068-.068h9.608A.068.068,0,0,1,210.93,117.316Z" transform="translate(-176.058 -99.962)"/>
    <path id="Trazado_803645" data-name="Trazado 803645" d="M246.955,202.929a1.23,1.23,0,1,0-1.188,0l-.669,1.556a.2.2,0,0,0,.185.281h2.156a.2.2,0,0,0,.185-.281Z" transform="translate(-216.361 -180.455)"/>
    <path id="Trazado_803646" data-name="Trazado 803646" d="M139.02,97.921a.879.879,0,0,0,.153,1.234,14.2,14.2,0,0,0,8.81,3.025,14.336,14.336,0,1,0-11.64-5.964.879.879,0,1,0,1.426-1.028,12.582,12.582,0,1,1,2.485,2.581.879.879,0,0,0-1.234.153Z" transform="translate(-117.983 -68.234)"/>
    <path id="Trazado_803647" data-name="Trazado 803647" d="M393.562,126.145h.3v9.561a1.431,1.431,0,0,0,1.429,1.429h2.753a1.431,1.431,0,0,0,1.429-1.429v-9.561h.3a1.43,1.43,0,0,0,1.142-2.289l-3.107-4.127a1.429,1.429,0,0,0-2.284,0l-3.108,4.127a1.43,1.43,0,0,0,1.142,2.289Zm3.108-5.011,2.449,3.253H398.6a.879.879,0,0,0-.879.879v10.112h-2.1V125.266a.879.879,0,0,0-.879-.879h-.522Z" transform="translate(-346.178 -108.54)"/>
    <path id="Trazado_803648" data-name="Trazado 803648" d="M48.328,119.159H45.575a1.431,1.431,0,0,0-1.429,1.429v9.561h-.3a1.43,1.43,0,0,0-1.142,2.289l3.108,4.127a1.417,1.417,0,0,0,1.142.57h0a1.418,1.418,0,0,0,1.142-.57l3.108-4.127a1.429,1.429,0,0,0-1.142-2.289h-.3v-9.561A1.431,1.431,0,0,0,48.328,119.159Zm-1.376,16L44.5,131.907h.522a.879.879,0,0,0,.879-.879V120.917H48v10.112a.879.879,0,0,0,.879.879H49.4Z" transform="translate(-37.442 -108.54)"/>
  </g>
</svg>
