<svg xmlns="http://www.w3.org/2000/svg" width="120" height="120" viewBox="0 0 120 120">
  <g id="Grupo_1067352" data-name="Grupo 1067352" transform="translate(-583 -7733)">
    <circle id="Elipse_8583" data-name="Elipse 8583" cx="60" cy="60" r="60" transform="translate(583 7733)" fill="#01c3fd"/>
    <g id="server" transform="translate(599 7749)">
      <path id="Trazado_802456" data-name="Trazado 802456" d="M79.2,45.073,68.387,41.582V38.774a4.069,4.069,0,0,0-4.065-4.065H62.581V30.064h1.742A4.069,4.069,0,0,0,68.387,26V15.548a4.069,4.069,0,0,0-4.065-4.065H44V9.161A1.161,1.161,0,0,0,42.839,8h-9.29a1.161,1.161,0,0,0-1.161,1.161v2.323H12.065A4.069,4.069,0,0,0,8,15.548V26a4.069,4.069,0,0,0,4.065,4.065h1.742V34.71H12.065A4.069,4.069,0,0,0,8,38.774V49.226a4.069,4.069,0,0,0,4.065,4.065h1.742v4.645H12.065A4.069,4.069,0,0,0,8,62V72.452a4.069,4.069,0,0,0,4.065,4.064H32.387v2.323A1.161,1.161,0,0,0,33.548,80h9.29A1.161,1.161,0,0,0,44,78.839V76.516H59.4l4.85,3.284a1.16,1.16,0,0,0,1.3,0l8.833-5.981A12.759,12.759,0,0,0,80,63.241V46.177a1.161,1.161,0,0,0-.8-1.1Zm-14.873-8.04a1.743,1.743,0,0,1,1.742,1.742v2.058l-.8-.26a1.154,1.154,0,0,0-.714,0l-13.935,4.5a1.16,1.16,0,0,0-.8,1.1v4.79h-9.29V37.032ZM49.806,53.29v4.645H16.129V53.29ZM16.129,34.71V30.064H60.258V34.71Zm48.193-20.9a1.743,1.743,0,0,1,1.742,1.742V26a1.743,1.743,0,0,1-1.742,1.742H40.516V13.806ZM34.71,10.323h6.968v1.161H34.71ZM12.065,27.742A1.743,1.743,0,0,1,10.323,26V15.548a1.743,1.743,0,0,1,1.742-1.742H38.194V27.742Zm0,23.226a1.743,1.743,0,0,1-1.742-1.742V38.774a1.743,1.743,0,0,1,1.742-1.742H38.194V50.968Zm0,23.226a1.743,1.743,0,0,1-1.742-1.742V62a1.743,1.743,0,0,1,1.742-1.742H38.194V74.193Zm29.613,3.484H34.71V76.516h6.968Zm-1.161-3.484V60.258h9.29v2.983a12.759,12.759,0,0,0,5.612,10.578l.553.375ZM77.677,63.241A10.442,10.442,0,0,1,73.086,71.9L64.9,77.436,56.72,71.9a10.442,10.442,0,0,1-4.591-8.655V47.022L64.9,42.9l1.961.633.026.009,10.787,3.482Z" fill="#12263f"/>
      <path id="Trazado_802457" data-name="Trazado 802457" d="M359.1,289.29h-1.161v-3.484a5.806,5.806,0,1,0-11.613,0v3.484h-1.161A1.161,1.161,0,0,0,344,290.452v9.29a1.161,1.161,0,0,0,1.161,1.161H359.1a1.161,1.161,0,0,0,1.161-1.161v-9.29A1.161,1.161,0,0,0,359.1,289.29Zm-10.452-3.484a3.484,3.484,0,1,1,6.968,0v3.484h-6.968Zm9.29,12.774H346.323v-6.968h11.613Z" transform="translate(-287.226 -232.516)" fill="#12263f"/>
      <path id="Trazado_802458" data-name="Trazado 802458" d="M46.968,235.484a3.484,3.484,0,1,0-3.484,3.484A3.484,3.484,0,0,0,46.968,235.484Zm-4.645,0a1.161,1.161,0,1,1,1.161,1.161A1.161,1.161,0,0,1,42.323,235.484Z" transform="translate(-27.355 -191.484)" fill="#12263f"/>
      <path id="Trazado_802459" data-name="Trazado 802459" d="M99.484,238.968A3.484,3.484,0,1,0,96,235.484,3.484,3.484,0,0,0,99.484,238.968Zm0-4.645a1.161,1.161,0,1,1-1.161,1.161A1.161,1.161,0,0,1,99.484,234.323Z" transform="translate(-75.226 -191.484)" fill="#12263f"/>
      <path id="Trazado_802460" data-name="Trazado 802460" d="M43.484,392a3.484,3.484,0,1,0,3.484,3.484A3.484,3.484,0,0,0,43.484,392Zm0,4.645a1.161,1.161,0,1,1,1.161-1.161A1.161,1.161,0,0,1,43.484,396.645Z" transform="translate(-27.355 -328.258)" fill="#12263f"/>
      <path id="Trazado_802461" data-name="Trazado 802461" d="M99.484,392a3.484,3.484,0,1,0,3.484,3.484A3.484,3.484,0,0,0,99.484,392Zm0,4.645a1.161,1.161,0,1,1,1.161-1.161A1.161,1.161,0,0,1,99.484,396.645Z" transform="translate(-75.226 -328.258)" fill="#12263f"/>
      <path id="Trazado_802462" data-name="Trazado 802462" d="M155.484,238.968A3.484,3.484,0,1,0,152,235.484,3.484,3.484,0,0,0,155.484,238.968Zm0-4.645a1.161,1.161,0,1,1-1.161,1.161A1.161,1.161,0,0,1,155.484,234.323Z" transform="translate(-123.097 -191.484)" fill="#12263f"/>
      <path id="Trazado_802463" data-name="Trazado 802463" d="M46.968,75.484a3.484,3.484,0,1,0-3.484,3.484A3.484,3.484,0,0,0,46.968,75.484Zm-4.645,0a1.161,1.161,0,1,1,1.161,1.161,1.161,1.161,0,0,1-1.161-1.161Z" transform="translate(-27.355 -54.71)" fill="#12263f"/>
      <path id="Trazado_802464" data-name="Trazado 802464" d="M99.484,78.968A3.484,3.484,0,1,0,96,75.484,3.484,3.484,0,0,0,99.484,78.968Zm0-4.645a1.161,1.161,0,1,1-1.161,1.161A1.161,1.161,0,0,1,99.484,74.323Z" transform="translate(-75.226 -54.71)" fill="#12263f"/>
      <path id="Trazado_802465" data-name="Trazado 802465" d="M155.484,78.968A3.484,3.484,0,1,0,152,75.484,3.484,3.484,0,0,0,155.484,78.968Zm0-4.645a1.161,1.161,0,1,1-1.161,1.161A1.161,1.161,0,0,1,155.484,74.323Z" transform="translate(-123.097 -54.71)" fill="#12263f"/>
      <path id="Trazado_802466" data-name="Trazado 802466" d="M158.968,395.484a3.484,3.484,0,1,0-3.484,3.484A3.484,3.484,0,0,0,158.968,395.484Zm-3.484,1.161a1.161,1.161,0,1,1,1.161-1.161A1.161,1.161,0,0,1,155.484,396.645Z" transform="translate(-123.097 -328.258)" fill="#12263f"/>
    </g>
  </g>
</svg>
