<svg xmlns="http://www.w3.org/2000/svg" width="120" height="120" viewBox="0 0 120 120">
  <g id="Grupo_1067354" data-name="Grupo 1067354" transform="translate(-1213 -7733)">
    <circle id="Elipse_8585" data-name="Elipse 8585" cx="60" cy="60" r="60" transform="translate(1213 7733)" fill="#01c3fd"/>
    <g id="padlock_1_" data-name="padlock(1)" transform="translate(1229 7749)">
      <path id="Trazado_802472" data-name="Trazado 802472" d="M218.3,306.344v2.3a3.451,3.451,0,1,0,6.9,0v-2.3a5.753,5.753,0,1,0-6.9,0Zm1.1-7.124a3.42,3.42,0,0,1,2.354-.929q.122,0,.244.008a3.452,3.452,0,0,1,1.481,6.434,1.151,1.151,0,0,0-.574,1v2.916a1.15,1.15,0,1,1-2.3,0v-2.916a1.15,1.15,0,0,0-.574-1,3.466,3.466,0,0,1-1.726-2.99,3.418,3.418,0,0,1,1.1-2.522Z" transform="translate(-178.087 -246.575)" fill="#12263f"/>
      <ellipse id="Elipse_8591" data-name="Elipse 8591" cx="0.5" cy="1.5" rx="0.5" ry="1.5" transform="translate(32.623 48.703)" fill="#12263f"/>
      <ellipse id="Elipse_8592" data-name="Elipse 8592" cx="0.5" cy="1.5" rx="0.5" ry="1.5" transform="translate(53.623 48.703)" fill="#12263f"/>
      <ellipse id="Elipse_8593" data-name="Elipse 8593" cx="0.5" cy="1" rx="0.5" ry="1" transform="translate(32.623 63.703)" fill="#12263f"/>
      <ellipse id="Elipse_8594" data-name="Elipse 8594" cx="0.5" cy="1" rx="0.5" ry="1" transform="translate(53.623 63.703)" fill="#12263f"/>
      <path id="Trazado_802473" data-name="Trazado 802473" d="M79.326,43.663a35.73,35.73,0,0,0-7.505-21.887,4.6,4.6,0,0,0-6.271-6.271,35.666,35.666,0,0,0-43.773,0,4.6,4.6,0,0,0-6.271,6.271,35.666,35.666,0,0,0,0,43.773,4.6,4.6,0,0,0,6.271,6.271,35.666,35.666,0,0,0,43.773,0,4.6,4.6,0,0,0,6.271-6.271,35.73,35.73,0,0,0,7.505-21.887ZM67.822,17.2a2.3,2.3,0,1,1-2.3,2.3A2.3,2.3,0,0,1,67.822,17.2ZM19.5,17.2a2.3,2.3,0,1,1-2.3,2.3A2.3,2.3,0,0,1,19.5,17.2Zm0,52.919a2.3,2.3,0,1,1,2.3-2.3A2.3,2.3,0,0,1,19.5,70.123Zm48.318,0a2.3,2.3,0,1,1,2.3-2.3A2.3,2.3,0,0,1,67.822,70.123Zm2.377-6.24A4.6,4.6,0,0,0,63.883,70.2a33.36,33.36,0,0,1-40.44,0,4.6,4.6,0,0,0-6.316-6.316,33.36,33.36,0,0,1,0-40.44,4.6,4.6,0,0,0,6.316-6.316,33.36,33.36,0,0,1,40.44,0A4.6,4.6,0,0,0,70.2,23.443,33.36,33.36,0,0,1,70.2,63.883Z" fill="#12263f"/>
      <path id="Trazado_802474" data-name="Trazado 802474" d="M180.76,107.61H162.354V91.5a4.6,4.6,0,1,1,9.2,0v8.053a1.15,1.15,0,0,0,1.15,1.15h4.6a1.15,1.15,0,0,0,1.15-1.15V91.5a11.5,11.5,0,1,0-23.008,0V107.61h-2.3a1.15,1.15,0,0,0-1.15,1.15v20.708a1.15,1.15,0,0,0,1.15,1.15h27.61a1.15,1.15,0,0,0,1.15-1.15V108.76A1.15,1.15,0,0,0,180.76,107.61ZM157.752,91.5a9.2,9.2,0,1,1,18.407,0v6.9h-2.3V91.5a6.9,6.9,0,0,0-13.805,0V107.61h-2.3Zm21.858,36.813H154.3V109.911H179.61Z" transform="translate(-123.292 -61.646)" fill="#12263f"/>
    </g>
  </g>
</svg>
