<svg xmlns="http://www.w3.org/2000/svg" width="120" height="120" viewBox="0 0 120 120">
  <g id="Grupo_1067355" data-name="Grupo 1067355" transform="translate(-426 -8003)">
    <circle id="Elipse_8595" data-name="Elipse 8595" cx="60" cy="60" r="60" transform="translate(426 8003)" fill="#01c3fd"/>
    <g id="lock_1_" data-name="lock(1)" transform="translate(446 8035)">
      <path id="Trazado_802485" data-name="Trazado 802485" d="M222.907,296.006a6.457,6.457,0,0,0-4.321,11.606V310.2a3.874,3.874,0,0,0,7.748,0v-2.58a6.458,6.458,0,0,0-3.427-11.608Zm1.489,9.8a1.291,1.291,0,0,0-.645,1.118V310.2a1.291,1.291,0,1,1-2.583,0v-3.273a1.291,1.291,0,0,0-.645-1.118,3.875,3.875,0,0,1,1.935-7.23q.136,0,.274.009A3.875,3.875,0,0,1,224.4,305.8Z" transform="translate(-182.429 -261.127)" fill="#12263f"/>
      <circle id="Elipse_8603" data-name="Elipse 8603" cx="1.5" cy="1.5" r="1.5" transform="translate(26.999 34.935)" fill="#12263f"/>
      <circle id="Elipse_8604" data-name="Elipse 8604" cx="1.5" cy="1.5" r="1.5" transform="translate(49.999 34.935)" fill="#12263f"/>
      <circle id="Elipse_8605" data-name="Elipse 8605" cx="1.5" cy="1.5" r="1.5" transform="translate(26.999 49.935)" fill="#12263f"/>
      <circle id="Elipse_8606" data-name="Elipse 8606" cx="1.5" cy="1.5" r="1.5" transform="translate(49.999 49.935)" fill="#12263f"/>
      <path id="Trazado_802486" data-name="Trazado 802486" d="M84.179,117.447a3.879,3.879,0,0,0-3.651,2.583H64.81v-2.583h2.583a1.293,1.293,0,0,0,.914-.378l4.786-4.787H75.14a1.364,1.364,0,0,0,.216-.019,3.874,3.874,0,1,0,0-2.544,1.365,1.365,0,0,0-.216-.019H72.558a1.293,1.293,0,0,0-.914.378l-4.786,4.787H64.81v-2.583a1.291,1.291,0,0,0-1.291-1.291H60.936V92.913a12.913,12.913,0,0,0-25.826,0v18.078H32.528a1.291,1.291,0,0,0-1.291,1.291v2.583H29.189L24.4,110.077a1.293,1.293,0,0,0-.914-.378H20.907a1.365,1.365,0,0,0-.216.019,3.874,3.874,0,1,0,0,2.544,1.364,1.364,0,0,0,.216.019h2.048l4.786,4.787a1.293,1.293,0,0,0,.914.378h2.583v2.583H15.519a3.874,3.874,0,1,0,0,2.583H31.237v2.583H28.654a1.293,1.293,0,0,0-.914.378l-4.786,4.787H20.907a1.365,1.365,0,0,0-.216.019,3.874,3.874,0,1,0,0,2.544,1.365,1.365,0,0,0,.216.019h2.583a1.292,1.292,0,0,0,.914-.378l4.786-4.787h2.048v7.748a1.291,1.291,0,0,0,1.291,1.291H63.519a1.291,1.291,0,0,0,1.291-1.291v-7.748h2.048l4.786,4.787a1.293,1.293,0,0,0,.914.378H75.14a1.365,1.365,0,0,0,.216-.019,3.874,3.874,0,1,0,0-2.544,1.365,1.365,0,0,0-.216-.019H73.092l-4.786-4.787a1.293,1.293,0,0,0-.914-.378H64.81v-2.583H80.528a3.874,3.874,0,1,0,3.651-5.165ZM79.014,109.7a1.291,1.291,0,1,1-1.291,1.291,1.291,1.291,0,0,1,1.291-1.291Zm-61.981,2.583a1.291,1.291,0,1,1,1.291-1.291A1.291,1.291,0,0,1,17.033,112.282Zm-5.165,10.33a1.291,1.291,0,1,1,1.291-1.291A1.291,1.291,0,0,1,11.868,122.612Zm5.165,10.33a1.291,1.291,0,1,1,1.291-1.291A1.291,1.291,0,0,1,17.033,132.942Zm20.66-40.03a10.33,10.33,0,0,1,20.66,0v18.078H55.771V92.913a7.748,7.748,0,0,0-15.5,0v18.078H37.693Zm15.5,0v18.078H42.858V92.913a5.165,5.165,0,0,1,10.33,0Zm9.039,41.321H33.819v-20.66H62.228Zm16.787-3.874a1.291,1.291,0,1,1-1.291,1.291,1.291,1.291,0,0,1,1.291-1.291Zm5.165-7.748a1.291,1.291,0,1,1,1.291-1.291A1.291,1.291,0,0,1,84.179,122.612Z" transform="translate(-7.993 -80)" fill="#12263f"/>
    </g>
  </g>
</svg>
