<svg xmlns="http://www.w3.org/2000/svg" width="120" height="120" viewBox="0 0 120 120">
  <g id="Grupo_1067357" data-name="Grupo 1067357" transform="translate(-1056 -8003)">
    <circle id="Elipse_8608" data-name="Elipse 8608" cx="60" cy="60" r="60" transform="translate(1056 8003)" fill="#01c3fd"/>
    <g id="spy" transform="translate(1080 8034)">
      <path id="Trazado_802478" data-name="Trazado 802478" d="M78.49,56H9.156A1.156,1.156,0,0,0,8,57.156v55.468a1.156,1.156,0,0,0,1.156,1.156H78.49a1.156,1.156,0,0,0,1.156-1.156V57.156A1.156,1.156,0,0,0,78.49,56Zm-1.156,55.468H10.311V65.245H77.335Zm0-48.534H10.311V58.311H77.335Z" transform="translate(-8 -56)" fill="#12263f"/>
      <path id="Trazado_802479" data-name="Trazado 802479" d="M97.156,82.311h1.156a1.156,1.156,0,1,0,0-2.311H97.156a1.156,1.156,0,1,0,0,2.311Z" transform="translate(-83.289 -76.533)" fill="#12263f"/>
      <path id="Trazado_802480" data-name="Trazado 802480" d="M65.156,82.311h1.156a1.156,1.156,0,1,0,0-2.311H65.156a1.156,1.156,0,1,0,0,2.311Z" transform="translate(-55.911 -76.533)" fill="#12263f"/>
      <path id="Trazado_802481" data-name="Trazado 802481" d="M33.156,82.311h1.156a1.156,1.156,0,0,0,0-2.311H33.156a1.156,1.156,0,1,0,0,2.311Z" transform="translate(-28.533 -76.533)" fill="#12263f"/>
      <path id="Trazado_802482" data-name="Trazado 802482" d="M201.245,176a9.245,9.245,0,1,0,9.245,9.245A9.245,9.245,0,0,0,201.245,176Zm0,16.178a6.933,6.933,0,1,1,6.933-6.933A6.933,6.933,0,0,1,201.245,192.178Z" transform="translate(-165.422 -158.666)" fill="#12263f"/>
      <path id="Trazado_802483" data-name="Trazado 802483" d="M124.891,150.289a48.367,48.367,0,0,0-7.643-7.123C111.026,138.479,104.571,136,98.576,136s-12.45,2.479-18.673,7.166a48.367,48.367,0,0,0-7.643,7.123,1.154,1.154,0,0,0,0,1.468,48.368,48.368,0,0,0,7.643,7.123c6.223,4.687,12.678,7.166,18.673,7.166s12.45-2.479,18.673-7.166a48.367,48.367,0,0,0,7.643-7.123,1.154,1.154,0,0,0,0-1.468Zm-9.079,6.777c-4.046,3.042-10.322,6.668-17.237,6.668s-13.191-3.626-17.237-6.668a49,49,0,0,1-6.649-6.044,49,49,0,0,1,6.649-6.044c4.046-3.042,10.322-6.668,17.237-6.668s13.191,3.626,17.237,6.668a49,49,0,0,1,6.649,6.044,49,49,0,0,1-6.649,6.044Z" transform="translate(-62.753 -124.444)" fill="#12263f"/>
      <path id="Trazado_802484" data-name="Trazado 802484" d="M163.823,360H129.156A1.156,1.156,0,0,0,128,361.156v6.933a1.156,1.156,0,0,0,1.156,1.156h34.667a1.156,1.156,0,0,0,1.156-1.156v-6.933A1.156,1.156,0,0,0,163.823,360Zm-1.156,6.933H130.311v-4.622h32.356Z" transform="translate(-110.666 -316.088)" fill="#12263f"/>
      <circle id="Elipse_8596" data-name="Elipse 8596" cx="0.895" cy="0.895" r="0.895" transform="translate(34.954 47.795)" fill="#12263f"/>
      <circle id="Elipse_8597" data-name="Elipse 8597" cx="0.895" cy="0.895" r="0.895" transform="translate(30.479 47.795)" fill="#12263f"/>
      <ellipse id="Elipse_8598" data-name="Elipse 8598" cx="1.342" cy="0.895" rx="1.342" ry="0.895" transform="translate(25.11 47.795)" fill="#12263f"/>
      <circle id="Elipse_8599" data-name="Elipse 8599" cx="0.895" cy="0.895" r="0.895" transform="translate(39.429 47.795)" fill="#12263f"/>
      <ellipse id="Elipse_8600" data-name="Elipse 8600" cx="1.342" cy="0.895" rx="1.342" ry="0.895" transform="translate(43.904 47.795)" fill="#12263f"/>
      <ellipse id="Elipse_8601" data-name="Elipse 8601" cx="1.342" cy="0.895" rx="1.342" ry="0.895" transform="translate(48.378 47.795)" fill="#12263f"/>
      <ellipse id="Elipse_8602" data-name="Elipse 8602" cx="1.342" cy="0.895" rx="1.342" ry="0.895" transform="translate(20.636 47.795)" fill="#12263f"/>
    </g>
  </g>
</svg>
