<svg xmlns="http://www.w3.org/2000/svg" width="190" height="115" viewBox="0 0 190 115">
  <g id="Grupo_1068367" data-name="Grupo 1068367" transform="translate(-180 -8442)">
    <path id="Rectángulo_375112" data-name="Rectángulo 375112" d="M0,0H133a57,57,0,0,1,57,57v1a57,57,0,0,1-57,57H0a0,0,0,0,1,0,0V0A0,0,0,0,1,0,0Z" transform="translate(180 8442)" fill="#ccbcfe"/>
    <g id="gear" transform="translate(230 8455)">
      <path id="Trazado_803874" data-name="Trazado 803874" d="M194.99,401.495,192,413.453h17.937l-2.99-11.958V400H194.99Z" transform="translate(-156.126 -325.262)" fill="#505968"/>
      <path id="Trazado_803875" data-name="Trazado 803875" d="M13.979,72H88.717A5.979,5.979,0,0,1,94.7,77.979V128.8a5.979,5.979,0,0,1-5.979,5.979H13.979A5.979,5.979,0,0,1,8,128.8V77.979A5.979,5.979,0,0,1,13.979,72Z" transform="translate(-6.505 -58.547)" fill="#adf0ff"/>
      <path id="Trazado_803876" data-name="Trazado 803876" d="M8,362.99a5.979,5.979,0,0,0,5.979,5.979H88.717A5.979,5.979,0,0,0,94.7,362.99V360H8Z" transform="translate(-6.505 -292.736)" fill="#a6adb9"/>
      <path id="Trazado_803877" data-name="Trazado 803877" d="M186.822,37.9V28.927h-4.978a20.8,20.8,0,0,0-2.821-6.788l3.526-3.526-6.341-6.341L172.683,15.8a20.8,20.8,0,0,0-6.788-2.821V8h-8.969v4.978a20.8,20.8,0,0,0-6.788,2.821l-3.526-3.526-6.341,6.341,3.526,3.526a20.8,20.8,0,0,0-2.821,6.788H136V37.9h4.978a20.8,20.8,0,0,0,2.821,6.788l-3.526,3.526,6.341,6.341,3.525-3.526a20.8,20.8,0,0,0,6.789,2.821v4.978H165.9V53.844a20.8,20.8,0,0,0,6.788-2.821l3.526,3.526,6.341-6.341-3.526-3.525a20.805,20.805,0,0,0,2.821-6.789Zm-25.411,5.979a10.463,10.463,0,1,1,10.463-10.463A10.463,10.463,0,0,1,161.411,43.874Z" transform="translate(-110.589 -6.505)" fill="#ee2849"/>
      <path id="Trazado_803878" data-name="Trazado 803878" d="M89.865,182.948a12.008,12.008,0,0,0-.127-1.652l3.356-1.943-4.484-7.773-3.354,1.943a11.936,11.936,0,0,0-2.864-1.656V168H73.422v3.867a11.936,11.936,0,0,0-2.864,1.664L67.2,171.587,62.72,179.36l3.356,1.943a10.8,10.8,0,0,0,0,3.3l-3.356,1.928,4.484,7.773,3.354-1.943a11.936,11.936,0,0,0,2.864,1.664V197.9h8.969v-3.867a11.936,11.936,0,0,0,2.864-1.664l3.354,1.943,4.484-7.773-3.356-1.943a12.019,12.019,0,0,0,.127-1.644Zm-11.958,5.979a5.979,5.979,0,1,1,5.979-5.979A5.979,5.979,0,0,1,77.907,188.927Z" transform="translate(-51.001 -136.61)" fill="#faa41b"/>
      <path id="Trazado_803879" data-name="Trazado 803879" d="M82.212,11.958H73.426a1.479,1.479,0,0,0-.408-.906L66.675,4.708a1.538,1.538,0,0,0-2.114,0l-2.691,2.7A22.273,22.273,0,0,0,56.8,5.3V1.495A1.5,1.5,0,0,0,55.306,0H46.338a1.5,1.5,0,0,0-1.495,1.495V5.3a22.274,22.274,0,0,0-5.063,2.1l-2.691-2.7a1.538,1.538,0,0,0-2.114,0l-6.35,6.344a1.479,1.479,0,0,0-.408.906H7.474A7.483,7.483,0,0,0,0,19.432V70.254a7.483,7.483,0,0,0,7.474,7.474H36.949l-2.525,10.1a1.495,1.495,0,0,0,1.45,1.856H53.811a1.495,1.495,0,0,0,1.45-1.856l-2.525-10.1H82.212a7.483,7.483,0,0,0,7.474-7.474V19.432a7.483,7.483,0,0,0-7.474-7.474ZM34.266,14.577,31.8,12.108l4.227-4.229,2.468,2.471a1.5,1.5,0,0,0,1.867.2,19.283,19.283,0,0,1,6.3-2.619,1.5,1.5,0,0,0,1.175-1.46V2.99h5.979V6.472a1.5,1.5,0,0,0,1.175,1.46,19.283,19.283,0,0,1,6.3,2.619,1.5,1.5,0,0,0,1.865-.2L65.62,7.879l4.229,4.23-2.469,2.468a1.5,1.5,0,0,0-.2,1.865,19.234,19.234,0,0,1,2.619,6.3,1.5,1.5,0,0,0,1.46,1.173h3.483V29.9H71.255a1.5,1.5,0,0,0-1.46,1.175,19.234,19.234,0,0,1-2.619,6.3,1.5,1.5,0,0,0,.2,1.864L69.847,41.7,65.62,45.932l-2.468-2.471a1.5,1.5,0,0,0-1.867-.2,19.283,19.283,0,0,1-6.3,2.619,1.5,1.5,0,0,0-1.175,1.46v3.483H47.832V47.339a1.5,1.5,0,0,0-1.175-1.46,19.16,19.16,0,0,1-4.344-1.534l.526-.3A1.5,1.5,0,0,0,43.387,42L38.9,34.231a1.5,1.5,0,0,0-2.042-.547l-2.517,1.453a13.388,13.388,0,0,0-1.459-.845v-2.9A1.5,1.5,0,0,0,31.39,29.9H26.906V23.916h3.483a1.5,1.5,0,0,0,1.46-1.175,19.234,19.234,0,0,1,2.619-6.3,1.5,1.5,0,0,0-.2-1.865ZM22.983,56.033a10.529,10.529,0,0,1-2.507-1.451,1.5,1.5,0,0,0-1.667-.117l-2.06,1.187-2.99-5.175,2.061-1.2a1.5,1.5,0,0,0,.734-1.495,9.306,9.306,0,0,1,0-2.9,1.5,1.5,0,0,0-.734-1.495l-2.061-1.2,2.99-5.175,2.06,1.187a1.5,1.5,0,0,0,1.667-.117,10.529,10.529,0,0,1,2.507-1.451,1.5,1.5,0,0,0,.933-1.383V32.885H29.9v2.372a1.5,1.5,0,0,0,.933,1.386,10.529,10.529,0,0,1,2.507,1.451A1.5,1.5,0,0,0,35,38.211l2.06-1.187,2.99,5.175-2.061,1.2a1.5,1.5,0,0,0-.734,1.495,9.306,9.306,0,0,1,0,2.9,1.5,1.5,0,0,0,.734,1.495l2.061,1.2-2.99,5.175L35,54.468a1.5,1.5,0,0,0-1.667.117,10.529,10.529,0,0,1-2.507,1.451,1.5,1.5,0,0,0-.933,1.386V59.79H23.916V57.418a1.5,1.5,0,0,0-.933-1.386ZM7.474,14.948H30.409l.915.915a22.233,22.233,0,0,0-2.1,5.064H25.411a1.5,1.5,0,0,0-1.495,1.495V29.9H22.421a1.5,1.5,0,0,0-1.495,1.495v2.9a13.4,13.4,0,0,0-1.459.846l-2.517-1.453a1.5,1.5,0,0,0-2.042.547l-4.484,7.773a1.5,1.5,0,0,0,.547,2.042L13.484,45.5c-.021.3-.031.571-.031.845s.01.552.031.845l-2.513,1.451a1.5,1.5,0,0,0-.547,2.033l4.484,7.773a1.5,1.5,0,0,0,2.042.547l2.517-1.453a13.4,13.4,0,0,0,1.459.846v2.9a1.5,1.5,0,0,0,1.495,1.495H31.39a1.5,1.5,0,0,0,1.495-1.495v-2.9a13.4,13.4,0,0,0,1.459-.846l2.517,1.453a1.5,1.5,0,0,0,2.042-.547l4.484-7.773a1.5,1.5,0,0,0-.547-2.042l-2.513-1.451c.012-.164.012-.317.018-.475a22.129,22.129,0,0,0,4.5,1.807v3.809a1.5,1.5,0,0,0,1.495,1.495h8.969A1.5,1.5,0,0,0,56.8,52.317V48.508a22.274,22.274,0,0,0,5.063-2.1l2.691,2.7a1.538,1.538,0,0,0,2.114,0l6.342-6.344a1.5,1.5,0,0,0,0-2.114l-2.691-2.691a22.232,22.232,0,0,0,2.1-5.07h3.809a1.5,1.5,0,0,0,1.495-1.495V22.421a1.5,1.5,0,0,0-1.495-1.495H72.424a22.233,22.233,0,0,0-2.1-5.064l.915-.915H82.212A4.484,4.484,0,0,1,86.7,19.432V65.769H2.99V19.432a4.484,4.484,0,0,1,4.484-4.484ZM51.9,86.7H37.789l2.242-8.969h9.623ZM82.212,74.738H7.474A4.484,4.484,0,0,1,2.99,70.254V68.759H86.7v1.495A4.484,4.484,0,0,1,82.212,74.738Z"/>
      <path id="Trazado_803880" data-name="Trazado 803880" d="M219.958,103.916A11.958,11.958,0,1,0,208,91.958,11.958,11.958,0,0,0,219.958,103.916Zm0-20.927a8.969,8.969,0,1,1-8.969,8.969A8.968,8.968,0,0,1,219.958,82.99Z" transform="translate(-169.136 -65.052)"/>
      <path id="Trazado_803881" data-name="Trazado 803881" d="M118.948,215.474a7.474,7.474,0,1,0-7.474,7.474A7.474,7.474,0,0,0,118.948,215.474Zm-11.958,0a4.484,4.484,0,1,1,4.484,4.484A4.484,4.484,0,0,1,106.99,215.474Z" transform="translate(-84.568 -169.136)"/>
    </g>
  </g>
</svg>
