<svg xmlns="http://www.w3.org/2000/svg" width="190" height="115" viewBox="0 0 190 115">
  <g id="Grupo_1068650" data-name="Grupo 1068650" transform="translate(-180 -8442)">
    <path id="Rect치ngulo_375112" data-name="Rect치ngulo 375112" d="M0,0H133a57,57,0,0,1,57,57v1a57,57,0,0,1-57,57H0a0,0,0,0,1,0,0V0A0,0,0,0,1,0,0Z" transform="translate(180 8442)" fill="#ccbcfe"/>
    <g id="software" transform="translate(231.745 8456.244)">
      <path id="Trazado_804483" data-name="Trazado 804483" d="M88.842,145.569H10.134A2.634,2.634,0,0,1,7.5,142.935v-48.8A2.634,2.634,0,0,1,10.134,91.5H88.842a2.634,2.634,0,0,1,2.634,2.634v48.8A2.634,2.634,0,0,1,88.842,145.569Z" transform="translate(-6.233 -76.04)" fill="#685c79"/>
      <path id="Trazado_804484" data-name="Trazado 804484" d="M463.978,91.5h-5.069a2.634,2.634,0,0,1,2.634,2.634v48.8a2.634,2.634,0,0,1-2.634,2.634h5.069a2.634,2.634,0,0,0,2.634-2.634v-48.8A2.634,2.634,0,0,0,463.978,91.5Z" transform="translate(-381.369 -76.04)" fill="#594f69"/>
      <rect id="Rect치ngulo_376289" data-name="Rect치ngulo 376289" width="43.931" height="73.838" transform="translate(80.175 20.529) rotate(90)" fill="#ade7ff"/>
      <path id="Trazado_804485" data-name="Trazado 804485" d="M158.128,479.569H114.534A2.535,2.535,0,0,1,112,477.034h0a2.535,2.535,0,0,1,2.534-2.534h43.593a2.535,2.535,0,0,1,2.534,2.534h0A2.535,2.535,0,0,1,158.128,479.569Z" transform="translate(-93.076 -394.326)" fill="#685c79"/>
      <path id="Trazado_804486" data-name="Trazado 804486" d="M359.964,474.5h-5.09a2.535,2.535,0,1,1,0,5.069h5.09a2.535,2.535,0,0,0,0-5.069Z" transform="translate(-294.912 -394.326)" fill="#594f69"/>
      <path id="Trazado_804487" data-name="Trazado 804487" d="M193.3,422.145h-32A13.369,13.369,0,0,0,166.76,411.5h21.088A13.369,13.369,0,0,0,193.3,422.145Z" transform="translate(-134.048 -341.97)" fill="#ade7ff"/>
      <path id="Trazado_804488" data-name="Trazado 804488" d="M294.856,411.5h-4.787a13.369,13.369,0,0,0,5.457,10.645h4.787A13.369,13.369,0,0,1,294.856,411.5Z" transform="translate(-241.057 -341.97)" fill="#82d2f5"/>
      <path id="Trazado_804489" data-name="Trazado 804489" d="M191.779,152.83V173.5l-16.39,7.83L159,173.5V152.83L175.39,145Z" transform="translate(-132.134 -120.5)" fill="#ff2c5c"/>
      <path id="Trazado_804490" data-name="Trazado 804490" d="M249.254,152.83l-5.069,2.422-16.025-8,4.7-2.247Z" transform="translate(-189.609 -120.5)" fill="#e62753"/>
      <path id="Trazado_804491" data-name="Trazado 804491" d="M175.39,199.173V219.84L159,212.01V191.343Z" transform="translate(-132.134 -159.012)" fill="#4fb1f5"/>
      <path id="Trazado_804492" data-name="Trazado 804492" d="M256,199.173V219.84l16.39-7.83V191.343Z" transform="translate(-212.745 -159.012)" fill="#ffd659"/>
      <path id="Trazado_804493" data-name="Trazado 804493" d="M328.069,191.343,323,193.765l.076,20.63,4.993-2.385Z" transform="translate(-268.424 -159.012)" fill="#ffbd54"/>
      <circle id="Elipse_8658" data-name="Elipse 8658" cx="2.534" cy="2.534" r="2.534" transform="translate(63.595 1.267)" fill="#ff2c5c"/>
      <circle id="Elipse_8659" data-name="Elipse 8659" cx="2.534" cy="2.534" r="2.534" transform="translate(40.721 1.267)" fill="#ff2c5c"/>
      <circle id="Elipse_8660" data-name="Elipse 8660" cx="2.534" cy="2.534" r="2.534" transform="translate(17.847 1.267)" fill="#ff2c5c"/>
      <path id="Trazado_804494" data-name="Trazado 804494" d="M82.609,14.193H64.883a1.267,1.267,0,0,0,0,2.534H82.609a1.369,1.369,0,0,1,1.367,1.367V66.9a1.369,1.369,0,0,1-1.367,1.367H3.9A1.369,1.369,0,0,1,2.534,66.9v-48.8A1.369,1.369,0,0,1,3.9,16.728H31.745v2.534H6.336a1.267,1.267,0,0,0-1.267,1.267V54.013a1.267,1.267,0,0,0,2.534,0V21.8H31.745v6.8l-5.425,2.592a1.275,1.275,0,0,0-.721,1.144V53a1.268,1.268,0,0,0,.721,1.144l16.39,7.83a1.283,1.283,0,0,0,1.093,0l9.214-4.4a1.267,1.267,0,0,0-1.093-2.287l-7.4,3.535V40.96L58.378,34.34V52.2l-1.882.9a1.267,1.267,0,0,0,1.093,2.287l2.6-1.244A1.268,1.268,0,0,0,60.912,53V32.331a1.274,1.274,0,0,0-.721-1.144L54.766,28.6V21.8H78.907v41.4H7.6V59.42a1.267,1.267,0,0,0-2.534,0v5.041a1.267,1.267,0,0,0,1.267,1.267H80.175a1.267,1.267,0,0,0,1.267-1.267V20.529a1.267,1.267,0,0,0-1.267-1.267H54.766V16.728h4.71a1.267,1.267,0,0,0,0-2.534h-4.71V11.659H66.129A1.267,1.267,0,0,0,67.4,10.391V7.386a3.8,3.8,0,1,0-2.534,0V9.124H53.5a1.267,1.267,0,0,0-1.267,1.267v3.8H44.523V7.386a3.8,3.8,0,1,0-2.534,0v6.808H34.279v-3.8a1.267,1.267,0,0,0-1.267-1.267H21.649V7.386a3.8,3.8,0,1,0-2.534,0v3.006a1.267,1.267,0,0,0,1.267,1.267H31.745v2.534H3.9a3.906,3.906,0,0,0-3.9,3.9V66.9a3.906,3.906,0,0,0,3.9,3.9H31.376a12.078,12.078,0,0,1-4.533,8.11H21.459a3.8,3.8,0,0,0,0,7.6H65.052a3.8,3.8,0,0,0,0-7.6H59.671a12.2,12.2,0,0,1-4.535-8.11H82.609a3.906,3.906,0,0,0,3.9-3.9v-48.8A3.906,3.906,0,0,0,82.609,14.193ZM66.129,2.534A1.267,1.267,0,1,1,64.862,3.8,1.269,1.269,0,0,1,66.129,2.534Zm-22.874,0A1.267,1.267,0,1,1,41.988,3.8,1.269,1.269,0,0,1,43.255,2.534Zm-22.874,0A1.267,1.267,0,1,1,19.114,3.8,1.269,1.269,0,0,1,20.382,2.534ZM34.279,21.8h7.709v1.9l-7.709,3.683ZM56.705,32.331l-13.45,6.426-13.45-6.426L43.255,25.9ZM28.133,34.34,41.988,40.96V58.818L28.133,52.2Zm24.1-6.956L44.523,23.7V21.8h7.709Zm0-10.657v2.534H44.523V16.728Zm-10.244,0v2.534H34.279V16.728ZM66.319,82.709a1.269,1.269,0,0,1-1.267,1.267H21.459a1.267,1.267,0,1,1,0-2.534H65.052A1.269,1.269,0,0,1,66.319,82.709Zm-10.283-3.8H30.475a14.292,14.292,0,0,0,3.45-8.11H52.586A14.293,14.293,0,0,0,56.036,78.907Z"/>
    </g>
  </g>
</svg>
