<svg xmlns="http://www.w3.org/2000/svg" width="80" height="80" viewBox="0 0 80 80">
  <g id="_4" data-name="4" transform="translate(-200 -1094)">
    <circle id="Elipse_8611" data-name="Elipse 8611" cx="40" cy="40" r="40" transform="translate(200 1094)" fill="#e9e2ff"/>
    <g id="device" transform="translate(214 1108)">
      <path id="Trazado_803103" data-name="Trazado 803103" d="M58.27,12.732a.868.868,0,0,0-.668-.321h-.763V2.868A.868.868,0,0,0,55.971,2H38.619a.868.868,0,0,0-.868.868v9.543h-.763a.868.868,0,0,0-.668.321.858.858,0,0,0-.174.729l.755,3.47a.868.868,0,0,0,.85.685H56.838a.868.868,0,0,0,.85-.685l.755-3.47a.858.858,0,0,0-.174-.729Zm-18.783-9H55.1v8.676H49.03a.868.868,0,0,0-.868.868H46.428a.868.868,0,0,0-.868-.868H39.487ZM56.144,15.881h-17.7l-.373-1.735h6.62a.868.868,0,0,0,.868.868h3.47a.868.868,0,0,0,.868-.868h6.62Z" transform="translate(-6.52 -2)" fill="#1e5af9"/>
      <path id="Trazado_803104" data-name="Trazado 803104" d="M18.484,42H4.6A2.611,2.611,0,0,0,2,44.6v8.676a2.61,2.61,0,0,0,2.6,2.6H7.891l-.581,2.394a.852.852,0,0,0,.156.746.868.868,0,0,0,.685.33h6.784a.868.868,0,0,0,.685-.33.852.852,0,0,0,.156-.746L15.2,55.881h3.288a2.61,2.61,0,0,0,2.6-2.6V44.6A2.611,2.611,0,0,0,18.484,42ZM9.253,57.616l.425-1.735h3.731l.425,1.735Zm10.1-4.338a.868.868,0,0,1-.868.868H4.6a.868.868,0,0,1-.868-.868v-.868H19.351Zm0-2.6H3.735V44.6a.868.868,0,0,1,.868-.868H18.484a.868.868,0,0,1,.868.868Z" transform="translate(-2 -7.297)" fill="#1e5af9"/>
      <path id="Trazado_803105" data-name="Trazado 803105" d="M57.543,40H50.6A2.61,2.61,0,0,0,48,42.6V56.484a2.61,2.61,0,0,0,2.6,2.6h6.941a2.611,2.611,0,0,0,2.6-2.6V42.6A2.61,2.61,0,0,0,57.543,40Zm-1.735,1.735a.868.868,0,0,1-.868.868H53.205a.868.868,0,0,1-.868-.868Zm2.6,14.749a.868.868,0,0,1-.868.868H50.6a.868.868,0,0,1-.868-.868V42.6a.868.868,0,0,1,.868-.868,2.61,2.61,0,0,0,2.6,2.6h1.735a2.611,2.611,0,0,0,2.6-2.6.868.868,0,0,1,.868.868Z" transform="translate(-8.092 -7.032)" fill="#1e5af9"/>
      <path id="Trazado_803106" data-name="Trazado 803106" d="M15.013,2H4.6A2.611,2.611,0,0,0,2,4.6V18.484a2.611,2.611,0,0,0,2.6,2.6H15.013a2.611,2.611,0,0,0,2.6-2.6V4.6a2.61,2.61,0,0,0-2.6-2.6Zm.868,16.484a.868.868,0,0,1-.868.868H4.6a.868.868,0,0,1-.868-.868V4.6A.868.868,0,0,1,4.6,3.735H15.013a.868.868,0,0,1,.868.868Z" transform="translate(-2 -2)" fill="#1e5af9"/>
      <rect id="Rectángulo_375370" data-name="Rectángulo 375370" width="0.92" height="0.92" transform="translate(7.36 14.323)" fill="#1e5af9"/>
      <path id="Trazado_803107" data-name="Trazado 803107" d="M39.323,28.027l-2.082-.26,1.293-1.657a.862.862,0,0,0-.078-1.145l-2.334-2.334a.868.868,0,0,0-1.145-.078l-1.657,1.293-.26-2.082A.879.879,0,0,0,32.192,21h-3.3a.879.879,0,0,0-.868.763l-.26,2.082L26.11,22.553a.868.868,0,0,0-1.145.078l-2.334,2.334a.862.862,0,0,0-.078,1.145l1.293,1.657-2.082.26a.879.879,0,0,0-.763.868v3.3a.879.879,0,0,0,.763.868l2.082.26-1.293,1.657a.862.862,0,0,0,.078,1.145l2.334,2.334a.868.868,0,0,0,1.145.078l1.657-1.293.26,2.082a.879.879,0,0,0,.868.763h3.3a.879.879,0,0,0,.868-.763l.26-2.082,1.657,1.293a.868.868,0,0,0,1.145-.078l2.334-2.334a.862.862,0,0,0,.078-1.145l-1.293-1.657,2.082-.26a.879.879,0,0,0,.763-.868v-3.3a.879.879,0,0,0-.763-.868Zm-.972,3.4-2.056.26a.854.854,0,0,0-.711.581c-.078.208-.165.416-.26.616a.849.849,0,0,0,.1.911l1.275,1.64-1.258,1.258L33.8,35.419a.849.849,0,0,0-.911-.1,6.73,6.73,0,0,1-.625.26.858.858,0,0,0-.573.711l-.26,2.056h-1.77L29.4,36.3a.858.858,0,0,0-.573-.711,6.73,6.73,0,0,1-.625-.26.849.849,0,0,0-.911.1l-1.64,1.275-1.258-1.258,1.275-1.64a.849.849,0,0,0,.1-.911c-.1-.2-.182-.408-.26-.616a.854.854,0,0,0-.711-.581l-2.056-.26v-1.77l2.056-.26a.854.854,0,0,0,.711-.581c.078-.208.165-.416.26-.616a.849.849,0,0,0-.1-.911l-1.275-1.64,1.258-1.258,1.64,1.275a.849.849,0,0,0,.911.1c.2-.1.408-.182.616-.26a.854.854,0,0,0,.581-.711l.26-2.056h1.77l.26,2.056a.854.854,0,0,0,.581.711c.208.078.416.165.616.26a.849.849,0,0,0,.911-.1l1.64-1.275,1.258,1.258-1.275,1.64a.849.849,0,0,0-.1.911c.1.2.182.408.26.616a.854.854,0,0,0,.711.581l2.056.26Z" transform="translate(-4.516 -4.516)" fill="#1e5af9"/>
      <path id="Trazado_803108" data-name="Trazado 803108" d="M35.676,31.338a4.338,4.338,0,1,0-4.338,4.338,4.338,4.338,0,0,0,4.338-4.338Zm-4.338,2.6a2.6,2.6,0,1,1,2.6-2.6A2.6,2.6,0,0,1,31.338,33.941Z" transform="translate(-5.311 -5.311)" fill="#1e5af9"/>
      <path id="Trazado_803109" data-name="Trazado 803109" d="M45,28.941v1.735h3.47a.868.868,0,0,0,.868-.868V22H47.6v6.941Z" transform="translate(-7.695 -4.649)" fill="#1e5af9"/>
      <path id="Trazado_803110" data-name="Trazado 803110" d="M11,31.868v6.941h1.735V32.735h5.205V31H11.868A.868.868,0,0,0,11,31.868Z" transform="translate(-3.192 -5.841)" fill="#1e5af9"/>
      <path id="Trazado_803111" data-name="Trazado 803111" d="M29.808,18.073h1.735V12.868A.868.868,0,0,0,30.676,12H22v1.735h7.808Z" transform="translate(-4.649 -3.324)" fill="#1e5af9"/>
      <path id="Trazado_803112" data-name="Trazado 803112" d="M32.735,45H31v6.941a.868.868,0,0,0,.868.868H44.013V51.073H32.735Z" transform="translate(-5.841 -7.695)" fill="#1e5af9"/>
    </g>
  </g>
</svg>
