<svg id="_5" data-name="5" xmlns="http://www.w3.org/2000/svg" xmlns:xlink="http://www.w3.org/1999/xlink" width="500" height="313.053" viewBox="0 0 500 313.053">
  <defs>
    <clipPath id="clip-path">
      <rect id="Rectángulo_375008" data-name="Rectángulo 375008" width="500" height="313.053" fill="none"/>
    </clipPath>
  </defs>
  <path id="Trazado_801896" data-name="Trazado 801896" d="M247.929,39.259l-1.178.124-1.141.2-1.1.264-1.042.335-.98.405-.909.477L3.121,181.807,1.627,182.92.611,184.185l-.539,1.369L0,186.984.4,188.433l.854,1.422,1.31,1.354,1.761,1.242L240.386,331.785l1.023.553,1.08.486,1.128.42,1.167.352,1.195.286,1.215.219,1.226.151,1.229.081,1.219.014,1.2-.055,1.176-.125,1.142-.2,1.1-.264,1.042-.335.98-.406.907-.477L496.879,191.745l1.494-1.113,1.016-1.264L499.93,188l.07-1.431-.394-1.448-.855-1.422-1.31-1.355-1.76-1.241L259.615,41.766l-1.024-.553-1.079-.485-1.128-.42-1.167-.353-1.195-.287-1.216-.219-1.227-.15-1.227-.082-1.221-.014Z" transform="translate(0 -21.295)" fill="#e5e8e5"/>
  <path id="Trazado_801897" data-name="Trazado 801897" d="M502.2,336.118V325.095l-.515,1.3-.967,1.2-1.423,1.06-227.028,134-.864.454-.933.386-.993.319-1.044.251-1.087.185-1.12.118-1.146.053-1.161-.013-1.17-.078-1.167-.144-1.158-.208-1.138-.272-1.11-.336-1.074-.4-1.029-.463-.974-.526L30.35,329.334l-1.676-1.182-1.247-1.29-.813-1.354-.376-1.379v11.023l.376,1.379.813,1.354,1.247,1.29,1.676,1.182L255.1,473.011l.974.526L257.1,474l1.074.4,1.11.336,1.138.272,1.158.209,1.167.143,1.17.079,1.161.013,1.146-.053,1.12-.118,1.087-.185,1.044-.251.993-.319.933-.386.864-.454,227.028-134,1.423-1.06.967-1.2Z" transform="translate(-14.253 -176.069)" fill="#c9e3f6" fill-rule="evenodd"/>
  <path id="Trazado_801898" data-name="Trazado 801898" d="M29.21,151.887l227.029-134,.864-.454.933-.386.992-.319,1.046-.251,1.086-.185,1.121-.118,1.145-.053,1.162.014,1.169.078,1.168.144,1.158.208,1.138.273,1.111.336,1.073.4,1.028.463.974.526L498.156,151.215l1.675,1.182,1.247,1.29.814,1.354.375,1.379-.067,1.362-.515,1.3-.967,1.2-1.423,1.061-227.028,134-.864.454-.933.386-.993.319-1.044.251-1.087.185-1.12.118-1.146.053-1.161-.013-1.17-.078-1.167-.143-1.158-.209-1.138-.272-1.111-.336-1.074-.4-1.029-.463-.973-.526L30.351,162.021l-1.676-1.183-1.247-1.29-.813-1.354-.375-1.379.067-1.362.514-1.3.967-1.2Z" transform="translate(-14.253 -8.756)" fill="#e3f3fc" fill-rule="evenodd"/>
  <g id="Grupo_1067228" data-name="Grupo 1067228">
    <g id="Grupo_1067227" data-name="Grupo 1067227" clip-path="url(#clip-path)">
      <path id="Trazado_801899" data-name="Trazado 801899" d="M56.216,168.08l-.011-.007-.044-.028L56.1,168l-.041-.035-.035-.032-.032-.034-.035-.041-.043-.059-.029-.044-.007-.011-.016-.03-.016-.027-.029-.065-.008-.02-.017-.048,0-.016-.011-.034,0-.011a1.008,1.008,0,0,1-.028-.2v-.069a.948.948,0,0,1,.028-.2l0-.011.011-.034,0-.015.017-.048.008-.02.029-.066.016-.027.016-.03,0-.007.012-.02.011-.015.015-.023.028-.037.014-.018.018-.021.01-.011.035-.037.053-.048.02-.017.031-.024.007-.005.017-.011.062-.04.946-.559a.951.951,0,0,1,1.3,1.311l.363.214a.951.951,0,0,1-.967,1.639Zm6.833-3.463a.951.951,0,0,1-.967-1.639l1.64-.968a.952.952,0,0,1,.967,1.639Zm6.56-3.872a.951.951,0,0,1-.967-1.639l1.64-.968a.951.951,0,1,1,.967,1.639Zm6.56-3.872a.951.951,0,0,1-.967-1.639l1.639-.968a.951.951,0,0,1,.967,1.639ZM82.726,153a.951.951,0,1,1-.967-1.639l1.639-.968a.952.952,0,1,1,.967,1.639Zm6.558-3.872a.951.951,0,1,1-.967-1.639l1.639-.968a.951.951,0,0,1,.967,1.639Zm6.557-3.872a.951.951,0,0,1-.967-1.639l1.639-.968a.951.951,0,0,1,.967,1.639Zm6.558-3.872a.951.951,0,0,1-.967-1.639l1.639-.968a.951.951,0,1,1,.967,1.639Zm6.558-3.872a.951.951,0,1,1-.967-1.639l1.639-.968a.951.951,0,1,1,.967,1.639Zm6.558-3.872a.951.951,0,1,1-.967-1.639l1.639-.967a.951.951,0,0,1,.967,1.639Zm6.556-3.87a.951.951,0,0,1-.967-1.639l1.639-.967a.951.951,0,0,1,.967,1.639Zm6.557-3.87a.951.951,0,0,1-.967-1.639l1.639-.967a.951.951,0,0,1,.967,1.639Zm6.557-3.87a.951.951,0,1,1-.967-1.639l1.639-.967a.951.951,0,1,1,.967,1.639Zm6.557-3.87a.951.951,0,1,1-.967-1.639l1.639-.967a.951.951,0,1,1,.967,1.639Zm6.557-3.87a.951.951,0,0,1-.967-1.639l1.639-.967a.951.951,0,1,1,.967,1.639Zm6.557-3.869a.951.951,0,1,1-.967-1.639l1.639-.967a.951.951,0,1,1,.967,1.639Zm6.557-3.87a.952.952,0,1,1-.967-1.639l1.639-.967a.951.951,0,1,1,.967,1.639Zm6.556-3.87a.951.951,0,1,1-.967-1.639l1.639-.967a.951.951,0,0,1,.967,1.639Zm6.557-3.869a.951.951,0,0,1-.967-1.639l1.639-.967a.951.951,0,0,1,.967,1.639Zm6.557-3.87a.951.951,0,0,1-.967-1.639l1.639-.967a.951.951,0,0,1,.967,1.639Zm6.557-3.87a.951.951,0,1,1-.967-1.639l1.639-.967a.951.951,0,1,1,.967,1.639ZM194.2,87.2a.951.951,0,1,1-.967-1.639l1.639-.967a.951.951,0,1,1,.967,1.639Zm6.557-3.87a.951.951,0,1,1-.967-1.639l1.639-.967a.952.952,0,1,1,.967,1.639Zm6.557-3.87a.951.951,0,1,1-.967-1.639l1.639-.967a.951.951,0,1,1,.967,1.639Zm6.557-3.87a.951.951,0,1,1-.967-1.639l1.639-.967a.951.951,0,1,1,.967,1.639Zm6.556-3.87a.951.951,0,0,1-.967-1.639l1.639-.967a.951.951,0,0,1,.967,1.639Zm6.557-3.87a.951.951,0,0,1-.967-1.639l1.639-.967a.952.952,0,0,1,.967,1.639Zm6.557-3.869a.952.952,0,0,1-.967-1.639l1.639-.967a.952.952,0,0,1,.967,1.639Zm6.557-3.87a.951.951,0,1,1-.967-1.639l1.639-.967a.951.951,0,0,1,.967,1.639Zm6.557-3.869a.951.951,0,1,1-.967-1.639l1.639-.967a.951.951,0,1,1,.967,1.639Zm6.557-3.869a.951.951,0,1,1-.967-1.639l1.639-.967a.951.951,0,1,1,.967,1.639Zm6.557-3.869a.951.951,0,1,1-.967-1.639l1.639-.967a.951.951,0,1,1,.967,1.639Zm6.557-3.869A.951.951,0,1,1,265.353,43l1.639-.967a.951.951,0,0,1,.967,1.639Zm6.556-3.869a.951.951,0,1,1-.967-1.639l1.639-.967a.951.951,0,0,1,.967,1.639Zm6.342-3.134a.952.952,0,1,1-.09-1.9l.429-.02h.081l.6.006.053,0,.616.042.057,0,.222.027a.952.952,0,0,1-.232,1.89l-.2-.025-.567-.038-.545-.007Zm1.692-1.873-.122,1.9.127-1.9Zm4.918,3.91a.951.951,0,0,1,.967-1.639l1.64.968a.951.951,0,1,1-.967,1.639Zm6.56,3.872a.951.951,0,1,1,.967-1.639l1.64.968a.951.951,0,0,1-.967,1.639Zm6.56,3.872a.951.951,0,1,1,.967-1.639l1.64.968a.952.952,0,0,1-.967,1.639Zm6.559,3.872a.951.951,0,0,1,.967-1.639l1.639.968a.951.951,0,0,1-.967,1.639Zm6.558,3.872a.951.951,0,0,1,.967-1.639l1.639.967a.952.952,0,0,1-.967,1.639Zm6.558,3.872a.951.951,0,1,1,.967-1.639l1.639.968A.951.951,0,1,1,320.262,60Zm6.558,3.872a.952.952,0,1,1,.967-1.639l1.639.968a.951.951,0,0,1-.967,1.639Zm6.558,3.872a.951.951,0,0,1,.967-1.639l1.639.968a.951.951,0,0,1-.967,1.639Zm6.558,3.871a.951.951,0,1,1,.967-1.639l1.639.968a.951.951,0,0,1-.967,1.639Zm6.557,3.872a.952.952,0,0,1,.967-1.639l1.639.968a.951.951,0,1,1-.967,1.639Zm6.557,3.871a.951.951,0,1,1,.967-1.639l1.639.967a.951.951,0,0,1-.967,1.639Zm6.557,3.87a.951.951,0,1,1,.967-1.639l1.639.967a.951.951,0,0,1-.967,1.639Zm6.557,3.869a.951.951,0,1,1,.967-1.639l1.639.967a.951.951,0,0,1-.967,1.639ZM371.08,90a.951.951,0,1,1,.967-1.639l1.639.967a.951.951,0,0,1-.967,1.639Zm6.557,3.87a.951.951,0,0,1,.967-1.639l1.639.967a.951.951,0,0,1-.967,1.639Zm6.557,3.869a.952.952,0,0,1,.967-1.639l1.639.967a.951.951,0,1,1-.967,1.639Zm6.557,3.87a.952.952,0,1,1,.967-1.639l1.639.967a.951.951,0,1,1-.967,1.639Zm6.557,3.87a.951.951,0,1,1,.967-1.639l1.639.967a.951.951,0,1,1-.967,1.639Zm6.557,3.87a.951.951,0,1,1,.967-1.639l1.639.967a.952.952,0,1,1-.967,1.639Zm6.557,3.87a.951.951,0,1,1,.967-1.639l1.639.967a.952.952,0,1,1-.967,1.639Zm6.557,3.87a.952.952,0,1,1,.967-1.639l1.639.967a.951.951,0,0,1-.967,1.639Zm6.556,3.87a.952.952,0,0,1,.967-1.639l1.639.967a.951.951,0,1,1-.967,1.639Zm6.557,3.87a.951.951,0,1,1,.967-1.639l1.639.967a.952.952,0,0,1-.967,1.639Zm6.557,3.87a.951.951,0,1,1,.967-1.639l1.638.967a.951.951,0,1,1-.967,1.639Zm6.557,3.869a.951.951,0,1,1,.967-1.639l1.639.967a.951.951,0,1,1-.967,1.639Zm6.557,3.87a.951.951,0,1,1,.967-1.639l1.639.967a.951.951,0,1,1-.967,1.639Zm6.557,3.87a.951.951,0,1,1,.967-1.639l1.638.967a.951.951,0,1,1-.967,1.639Zm6.557,3.869a.951.951,0,1,1,.967-1.639l1.638.967a.951.951,0,1,1-.967,1.639Zm6.556,3.869a.951.951,0,0,1,.967-1.639l1.639.967a.952.952,0,0,1-.967,1.639Zm6.557,3.869a.951.951,0,0,1,.967-1.639l1.639.967a.952.952,0,0,1-.967,1.639Zm6.557,3.869a.952.952,0,0,1,.967-1.639l1.639.967a.951.951,0,0,1-.967,1.639Zm6.557,3.869a.951.951,0,1,1,.967-1.639l1.639.967a.951.951,0,1,1-.967,1.639Zm6.557,3.869a.952.952,0,1,1,.967-1.639l1.639.967a.952.952,0,0,1-.967,1.639Zm6.557,3.869a.952.952,0,0,1,.967-1.639l1.167.688a.951.951,0,0,1,0,1.639l-.473.28a.951.951,0,0,1-1.434-.835Zm-4.226,2.233a.952.952,0,0,1,.967,1.639l-1.64.968a.952.952,0,1,1-.967-1.639Zm-6.56,3.872a.951.951,0,0,1,.967,1.639l-1.64.968a.951.951,0,1,1-.967-1.639Zm-6.56,3.872a.951.951,0,1,1,.967,1.639l-1.64.967a.951.951,0,1,1-.967-1.639Zm-6.558,3.872a.951.951,0,0,1,.967,1.639l-1.639.968a.952.952,0,0,1-.967-1.639Zm-6.558,3.872a.952.952,0,1,1,.967,1.639l-1.639.968a.951.951,0,0,1-.967-1.639Zm-6.558,3.872a.951.951,0,1,1,.967,1.639l-1.639.968a.952.952,0,0,1-.967-1.639Zm-6.557,3.872a.951.951,0,0,1,.967,1.639l-1.639.968a.951.951,0,0,1-.967-1.639Zm-6.558,3.872a.951.951,0,1,1,.967,1.639l-1.638.968a.952.952,0,0,1-.967-1.639Zm-6.558,3.872a.952.952,0,0,1,.967,1.639l-1.639.967a.952.952,0,0,1-.967-1.639Zm-6.557,3.87a.951.951,0,1,1,.967,1.639l-1.639.967a.951.951,0,0,1-.967-1.639Zm-6.557,3.87a.951.951,0,1,1,.967,1.639l-1.639.967a.951.951,0,0,1-.967-1.639Zm-6.556,3.87a.952.952,0,0,1,.967,1.639l-1.639.967a.951.951,0,0,1-.967-1.639Zm-6.557,3.87a.951.951,0,0,1,.967,1.639l-1.639.967a.952.952,0,0,1-.967-1.639Zm-6.557,3.87a.952.952,0,0,1,.967,1.639l-1.639.967a.951.951,0,1,1-.967-1.639Zm-6.557,3.87a.952.952,0,1,1,.967,1.639l-1.639.967a.952.952,0,1,1-.967-1.639Zm-6.557,3.87a.951.951,0,1,1,.967,1.639l-1.639.966a.951.951,0,1,1-.967-1.638Zm-6.557,3.869a.951.951,0,1,1,.967,1.639l-1.639.967a.951.951,0,1,1-.967-1.639Zm-6.557,3.869a.952.952,0,0,1,.967,1.639l-1.639.967a.952.952,0,1,1-.967-1.639Zm-6.557,3.87a.952.952,0,0,1,.967,1.639l-1.639.967a.952.952,0,0,1-.967-1.639Zm-6.557,3.87a.951.951,0,0,1,.967,1.639l-1.639.967a.951.951,0,0,1-.967-1.639Zm-6.557,3.87a.951.951,0,0,1,.967,1.639l-1.639.967A.951.951,0,0,1,365.2,248Zm-6.557,3.87a.951.951,0,0,1,.967,1.639l-1.639.967a.951.951,0,1,1-.967-1.639Zm-6.557,3.87a.952.952,0,1,1,.967,1.639l-1.639.967a.951.951,0,1,1-.967-1.639Zm-6.557,3.87a.951.951,0,1,1,.967,1.639l-1.639.967a.951.951,0,0,1-.967-1.639Zm-6.557,3.87a.951.951,0,1,1,.967,1.638l-1.639.967a.951.951,0,1,1-.967-1.639Zm-6.557,3.87a.952.952,0,1,1,.967,1.639l-1.639.967a.951.951,0,0,1-.967-1.639Zm-6.557,3.87a.952.952,0,1,1,.967,1.639l-1.639.967a.951.951,0,0,1-.967-1.639Zm-6.556,3.87a.952.952,0,0,1,.967,1.639l-1.639.967a.951.951,0,1,1-.967-1.639ZM314.388,278a.952.952,0,0,1,.967,1.639l-1.639.967a.951.951,0,1,1-.967-1.639Zm-6.557,3.869a.951.951,0,0,1,.967,1.639l-1.639.967a.951.951,0,1,1-.967-1.639Zm-6.557,3.869a.951.951,0,1,1,.967,1.639l-1.639.967a.951.951,0,1,1-.967-1.639Zm-6.557,3.869a.952.952,0,1,1,.967,1.639l-1.639.967a.952.952,0,1,1-.967-1.639Zm-6.557,3.869a.952.952,0,1,1,.967,1.639l-1.639.967a.952.952,0,0,1-.967-1.639Zm-6.322,3.366a.952.952,0,1,1,.2,1.894l-.431.045h-.016l-.04,0-.544.026h-.081l-.6-.006-.053,0-.3-.021a.952.952,0,0,1,.127-1.9l.275.019.543.006.508-.024Zm-6.629-1.712a.952.952,0,1,1-.967,1.639l-1.64-.968a.951.951,0,0,1,.967-1.639Zm-6.56-3.872a.952.952,0,1,1-.967,1.639l-1.64-.968a.952.952,0,0,1,.967-1.639Zm-6.56-3.872a.952.952,0,0,1-.967,1.639l-1.64-.968a.951.951,0,0,1,.967-1.639Zm-6.559-3.872a.951.951,0,1,1-.967,1.639l-1.639-.968a.951.951,0,1,1,.967-1.639Zm-6.558-3.872a.951.951,0,0,1-.967,1.639l-1.639-.968a.951.951,0,1,1,.967-1.639Zm-6.558-3.872a.952.952,0,0,1-.967,1.639l-1.639-.968a.952.952,0,0,1,.967-1.639Zm-6.558-3.871a.951.951,0,1,1-.967,1.639l-1.639-.968a.951.951,0,1,1,.967-1.639Zm-6.558-3.872a.952.952,0,1,1-.967,1.639l-1.639-.968a.951.951,0,1,1,.967-1.638Zm-6.558-3.872a.952.952,0,0,1-.967,1.639l-1.639-.968a.952.952,0,0,1,.967-1.639Zm-6.558-3.872a.951.951,0,0,1-.967,1.639l-1.639-.967a.951.951,0,0,1,.967-1.639Zm-6.557-3.87a.952.952,0,1,1-.967,1.639l-1.639-.967a.952.952,0,0,1,.967-1.639Zm-6.557-3.869a.951.951,0,1,1-.967,1.639l-1.639-.967a.951.951,0,0,1,.967-1.639Zm-6.557-3.87a.951.951,0,1,1-.967,1.639l-1.639-.967a.951.951,0,1,1,.967-1.639Zm-6.557-3.87a.951.951,0,1,1-.967,1.639l-1.639-.967a.951.951,0,1,1,.967-1.639Zm-6.557-3.87a.951.951,0,1,1-.967,1.639l-1.639-.967a.952.952,0,0,1,.967-1.639Zm-6.556-3.87a.951.951,0,0,1-.967,1.639l-1.639-.967a.951.951,0,0,1,.967-1.639Zm-6.557-3.87a.951.951,0,0,1-.967,1.639l-1.639-.967a.951.951,0,0,1,.967-1.639Zm-6.557-3.869a.951.951,0,0,1-.967,1.638l-1.639-.967a.951.951,0,1,1,.967-1.638Zm-6.557-3.87a.951.951,0,0,1-.967,1.639l-1.639-.967a.951.951,0,1,1,.967-1.639Zm-6.557-3.87a.951.951,0,0,1-.967,1.639l-1.639-.967a.951.951,0,1,1,.967-1.639Zm-6.557-3.87a.952.952,0,0,1-.967,1.639l-1.639-.967a.952.952,0,1,1,.967-1.639Zm-6.557-3.869a.951.951,0,0,1-.967,1.639l-1.639-.967a.951.951,0,1,1,.967-1.639Zm-6.557-3.87a.951.951,0,0,1-.967,1.639l-1.639-.967a.951.951,0,0,1,.967-1.639Zm-6.557-3.87a.952.952,0,0,1-.967,1.639l-1.639-.967a.952.952,0,0,1,.967-1.639Zm-6.557-3.869a.951.951,0,0,1-.967,1.639l-1.639-.967a.951.951,0,0,1,.967-1.639Zm-6.557-3.87a.951.951,0,0,1-.967,1.639l-1.639-.967a.951.951,0,1,1,.967-1.639Zm-6.557-3.87a.952.952,0,1,1-.967,1.639l-1.639-.967a.951.951,0,1,1,.967-1.639Zm-6.557-3.869a.951.951,0,1,1-.967,1.639l-1.639-.967a.951.951,0,1,1,.967-1.639Zm-6.557-3.869a.951.951,0,1,1-.967,1.639L89,187.425a.951.951,0,1,1,.967-1.639Zm-6.557-3.869a.951.951,0,1,1-.967,1.639l-1.639-.967a.951.951,0,0,1,.967-1.639Zm-6.557-3.869a.951.951,0,1,1-.967,1.639l-1.639-.967a.951.951,0,0,1,.967-1.639Zm-6.556-3.869a.952.952,0,0,1-.967,1.639l-1.639-.967a.952.952,0,0,1,.967-1.639Zm-6.557-3.869a.951.951,0,0,1-.967,1.639l-1.639-.967a.951.951,0,0,1,.967-1.639Z" transform="translate(-30.283 -19.399)" fill="#fff" fill-rule="evenodd"/>
      <path id="Trazado_801900" data-name="Trazado 801900" d="M782.335,329.81l-227.028,134-.864.454-.933.386-.993.319-1.044.251-1.087.186-1.12.118-1.146.053-.827-.01V476.59l.827.01,1.146-.053,1.12-.118,1.087-.185,1.044-.251.993-.319.933-.386.864-.454,227.028-134,1.423-1.06.967-1.2.515-1.3V326.243l-.515,1.3-.967,1.2Z" transform="translate(-297.294 -177.218)" fill="#b7d9f2" fill-rule="evenodd"/>
      <path id="Trazado_801901" data-name="Trazado 801901" d="M635.139,275.48a19.33,19.33,0,0,1-6.277-.912c-8.22-2.865-5.767-11.6,5.471-19.52C643.154,248.857,654.756,245,663.32,245a19.377,19.377,0,0,1,6.29.917c8.22,2.849,5.773,11.586-5.48,19.508-8.818,6.2-20.423,10.055-28.99,10.055" transform="translate(-338.962 -133.086)" fill="#c9e3f6" fill-rule="evenodd"/>
      <path id="Trazado_801902" data-name="Trazado 801902" d="M501.576,533.2a19.33,19.33,0,0,1-6.276-.912c-8.221-2.865-5.767-11.6,5.471-19.52,8.82-6.192,20.423-10.049,28.986-10.049a19.36,19.36,0,0,1,6.289.918c8.221,2.849,5.774,11.586-5.48,19.507-8.818,6.2-20.423,10.055-28.99,10.055" transform="translate(-266.409 -273.081)" fill="#c9e3f6" fill-rule="evenodd"/>
      <path id="Trazado_801903" data-name="Trazado 801903" d="M855.869,326.867A27.953,27.953,0,0,1,842.2,323.6c-7.546-4.355-7.546-11.42,0-15.783a30.231,30.231,0,0,1,27.332,0c7.541,4.362,7.55,11.428,0,15.783a27.943,27.943,0,0,1-13.664,3.269" transform="translate(-454.416 -165.434)" fill="#c9e3f6" fill-rule="evenodd"/>
      <path id="Trazado_801904" data-name="Trazado 801904" d="M152.474,303.7l4.562,23.161c0,2.9,4.177,5.251,9.327,5.251s9.325-2.351,9.325-5.251l4.562-23.161Z" transform="translate(-82.825 -164.97)" fill="#80a8d8" fill-rule="evenodd"/>
      <path id="Trazado_801905" data-name="Trazado 801905" d="M180.25,294.4c0,4.319-6.218,7.818-13.887,7.818s-13.887-3.5-13.887-7.818,6.216-7.814,13.887-7.814,13.887,3.5,13.887,7.814" transform="translate(-82.826 -155.677)" fill="#a0c6e9" fill-rule="evenodd"/>
      <path id="Trazado_801906" data-name="Trazado 801906" d="M168.818,291.093c5.716,0,10.483,2.284,11.584,5.316a3.856,3.856,0,0,0,.238-1.337c0-3.675-5.292-6.653-11.822-6.653s-11.823,2.978-11.823,6.653a3.869,3.869,0,0,0,.24,1.337c1.1-3.032,5.866-5.316,11.583-5.316" transform="translate(-85.281 -156.671)" fill="#80a8d8" fill-rule="evenodd"/>
      <path id="Trazado_801907" data-name="Trazado 801907" d="M169.1,304.907c5.716,0,10.483-2.284,11.584-5.318-1.1-3.032-5.868-5.316-11.584-5.316s-10.483,2.284-11.583,5.316c1.1,3.035,5.866,5.318,11.583,5.318" transform="translate(-85.566 -159.851)" fill="#6e96ce" fill-rule="evenodd"/>
      <path id="Trazado_801908" data-name="Trazado 801908" d="M155.778,236.667a27.158,27.158,0,0,1,3.837,6.272c1.82,4,6.715,27.059,6.715,27.059a7.273,7.273,0,0,1,2.1-1.068,5.219,5.219,0,0,0,1.867-1.094s-3.444-17.1-5.865-21.836c-4.222-8.251-8.649-9.333-8.65-9.333" transform="translate(-84.62 -128.559)" fill="#789fd3" fill-rule="evenodd"/>
      <path id="Trazado_801909" data-name="Trazado 801909" d="M151.61,217.467s-2.033-1.728-2.475-2.144c-1.458-1.373-3.114-3.274-4.667-4.562,3.194-.3,9.337,4.111,9.337,4.111Z" transform="translate(-78.476 -114.479)" fill="#b7d9f2" fill-rule="evenodd"/>
      <path id="Trazado_801910" data-name="Trazado 801910" d="M164.177,207.475s.86-5.71,4.056-7.971A65.829,65.829,0,0,1,167,208.765Z" transform="translate(-89.182 -108.372)" fill="#b7d9f2" fill-rule="evenodd"/>
      <path id="Trazado_801911" data-name="Trazado 801911" d="M147.6,211.455c-1.6-1.8-7.579-3.944-7.579-3.944a10.655,10.655,0,0,1,4.586-1.049,9.142,9.142,0,0,1,4.489,1.049,15.615,15.615,0,0,1-1.5-3.784c-.6-2.974,1.238-7.362,1.238-7.362s2.19,3.583,2.453,5.054,1.086,4.142,1.086,4.142a13.3,13.3,0,0,1,2.6-3.71,18.411,18.411,0,0,1,3.989-2.759,8.721,8.721,0,0,0-2.293,4.635c-.5,3.784,1.982,8.249-.923,10.55-3.292,2.608-6.624-1.1-8.154-2.822" transform="translate(-76.058 -106.666)" fill="#c9e3f6" fill-rule="evenodd"/>
      <path id="Trazado_801912" data-name="Trazado 801912" d="M172.676,235.347s-1.172-.771-1.5.765c.526,1.237,3.4,6.893,3.916,11.61s1.741,18.949,1.741,18.949l1.375-.278s-1.185-15.581-2.319-21.248a42.363,42.363,0,0,0-3.216-9.8" transform="translate(-92.986 -127.737)" fill="#789fd3" fill-rule="evenodd"/>
      <path id="Trazado_801913" data-name="Trazado 801913" d="M161.686,262.294a16.955,16.955,0,0,1,3.415,4.373c1.494,2.736,5.365,18.368,5.365,18.368l1.167-.023s-3.717-15-4.937-18.053a23.042,23.042,0,0,0-3.889-5.943Z" transform="translate(-87.829 -141.786)" fill="#8eb6e1" fill-rule="evenodd"/>
      <path id="Trazado_801914" data-name="Trazado 801914" d="M188.968,273.363a10.389,10.389,0,0,1-1.794-4.372c-.481-2.736,1.448-18.368,1.448-18.368l-1.175.022s-1.848,15-1.759,18.053a15,15,0,0,0,1.685,5.943Z" transform="translate(-100.865 -136.14)" fill="#789fd3" fill-rule="evenodd"/>
      <path id="Trazado_801915" data-name="Trazado 801915" d="M146.086,252.724s4.17,3.766,5.974,3.517,3.023-1.5,2.868-3.078-5.67-5.886-5.67-5.886Z" transform="translate(-79.355 -134.323)" fill="#b7d9f2" fill-rule="evenodd"/>
      <path id="Trazado_801916" data-name="Trazado 801916" d="M135.071,235.587a11.1,11.1,0,0,1,0-5.3,7.88,7.88,0,0,1,3.129-4.162,40.412,40.412,0,0,0,.778,4.731c.553,2.34.906,4.733.906,4.733a8.629,8.629,0,0,1,3.593-.8c2.038,0,4.685,1.828,4.685,1.828a9.033,9.033,0,0,1-3.515,1.9c-2.06.531-4.319,1.16-4.319,1.16s.908,2.428,1.451,4.292a35.315,35.315,0,0,1,.81,5.4s-3.46-2.5-4.39-3.95-2.394-3.351-2.394-3.351a8.028,8.028,0,0,0-3.362,2.688,10.421,10.421,0,0,0-2.035,4.411s-1.919-3.867-.852-5.729,4.054-3.789,4.054-3.789-1.818-.6-3.2-1.129-3.249-1.507-3.249-1.507a3.943,3.943,0,0,1,3.249-2.22,17.723,17.723,0,0,1,4.661.8" transform="translate(-69.075 -122.832)" fill="#c9e3f6" fill-rule="evenodd"/>
      <path id="Trazado_801917" data-name="Trazado 801917" d="M140.568,245.3a12.6,12.6,0,0,0-2.594-.655,3.9,3.9,0,0,0-1.927.159l2.276,1.334a17.105,17.105,0,0,0,2.178.82s-1.4.8-1.863,1.129a13.406,13.406,0,0,0-1.366,1.33s2.963-1.129,3.229-1.2a6.418,6.418,0,0,0,1-.514,13.929,13.929,0,0,0,1.329,2.558,15.737,15.737,0,0,0,1.6,1.745s-.372-2.208-.619-3-.46-1.811-.46-1.811a4.509,4.509,0,0,1,1.944-1.39c1.545-.511,3.016-.948,3.016-.948a10.984,10.984,0,0,0-3.066-.549,10.978,10.978,0,0,0-2.345.986,20.361,20.361,0,0,1-1.264-4.859,22.8,22.8,0,0,0-1.062,4.859" transform="translate(-73.902 -130.607)" fill="#b7d9f2" fill-rule="evenodd"/>
      <path id="Trazado_801918" data-name="Trazado 801918" d="M136.046,284.648a7.757,7.757,0,0,1,6.1-3.014c4.121-.077,10.841,7.177,12.871,11.03.272.518,2.687,3.548,2.687,3.548s-1.455,1.016-3.885-1.942-10.272-11.472-17.775-9.622" transform="translate(-73.901 -152.985)" fill="#8eb6e1" fill-rule="evenodd"/>
      <path id="Trazado_801919" data-name="Trazado 801919" d="M183.468,270.644a67.657,67.657,0,0,1,.818-11.162c.941-5.586,4.056-13.09,7.03-16.259s7.912-4.188,7.912-4.188-5.742,8.177-6.812,10.854-4.06,13.948-4.459,15.742-1.1,4.595-1.1,4.595a2.782,2.782,0,0,1-3.392.417" transform="translate(-99.658 -129.846)" fill="#8eb6e1" fill-rule="evenodd"/>
      <path id="Trazado_801920" data-name="Trazado 801920" d="M195.864,250.4s-4.62,6.729-5.767,11.639-3.522,15.184-3.522,15.184l1.034-.208s2.4-11.11,3.468-14.975,4.788-11.639,4.788-11.639" transform="translate(-101.349 -136.018)" fill="#789fd3" fill-rule="evenodd"/>
      <path id="Trazado_801921" data-name="Trazado 801921" d="M148.683,287.09a8.513,8.513,0,0,1,3.593,1.491c1.727,1.263,7.237,8.559,10.451,10.347a4.822,4.822,0,0,0,.946.321s-4.833-4.045-6.478-6.436c-2.21-3.217-5.12-6.746-8.512-5.722" transform="translate(-80.766 -155.852)" fill="#789fd3" fill-rule="evenodd"/>
      <path id="Trazado_801922" data-name="Trazado 801922" d="M192.908,223.418s-3.982,5.331-5.18,9.59,3.3,5.041,4.1.776a94.434,94.434,0,0,0,1.084-10.366" transform="translate(-101.865 -121.362)" fill="#c9e3f6" fill-rule="evenodd"/>
      <path id="Trazado_801923" data-name="Trazado 801923" d="M689.166,336.311a7.608,7.608,0,0,1-5.9-.015,7.588,7.588,0,0,1,5.9.015m6.551-7.672c-11.106-6.412-29.054-6.411-40.091,0-5.535,3.217-8.273,7.438-8.23,11.656,0-.043-.005-.085-.005-.127l-.012,4.292a9.81,9.81,0,0,0,.451,2.93l-5.785,3.362-.01,3.672-40.019,23.257v3.907L602,385.882l6.749-.011,4.72-2.743,3.5.974,5.291-3.075,0-1.684,1.452.838,3.307-1.922,0-1.607,1.385.8,7.209-4.19,0-1.251,1.453.4,5.291-3.074.005-1.685,1.45.838,3.308-1.922,0-1.148.989.571,6.416-3.728,3.164,1.825,7.452-4.33c10.248,2.4,22.407,1.2,30.678-3.61,5.483-3.187,8.228-7.356,8.24-11.533l.012-4.292c0,.122-.011.243-.016.365.178-4.35-2.6-8.736-8.353-12.055" transform="translate(-327.012 -175.907)" fill="#c9e3f6" fill-rule="evenodd"/>
      <path id="Trazado_801924" data-name="Trazado 801924" d="M783.683,345.329c.142-.065.283-.136.414-.212a2.915,2.915,0,0,0,1.207-1.195,1.693,1.693,0,0,0,.168-.815c0-.038,0-.076-.01-.115s-.01-.078-.017-.116-.021-.088-.033-.132-.034-.112-.055-.168c-.015-.037-.031-.073-.047-.109s-.037-.077-.058-.115-.046-.078-.07-.117a2.015,2.015,0,0,0-.119-.169,1.245,1.245,0,0,0-.082-.1c-.031-.037-.063-.074-.1-.11s-.069-.069-.106-.1q-.086-.082-.182-.159c-.039-.032-.078-.064-.12-.094s-.091-.067-.138-.1-.094-.06-.141-.09l-.118-.073a7.341,7.341,0,0,0-4.646-.7l-.044.005c-.113.021-.226.044-.337.068-.032.008-.065.012-.1.02-.105.025-.206.053-.309.083-.036.009-.075.018-.111.029-.108.032-.212.069-.316.108-.029.01-.058.019-.086.029-.122.047-.243.1-.359.153l-.021.009c-.123.058-.243.12-.358.186l-.015.01a3.2,3.2,0,0,0-1.036.905c-.023.032-.039.066-.06.1-.031.049-.063.1-.089.149a1.479,1.479,0,0,0-.073.175l-.033.079a1.753,1.753,0,0,0-.053.208l-.012.052a1.747,1.747,0,0,0-.019.218l0,.046v.017a2.379,2.379,0,0,0,1.4,1.933c.122.071.25.136.381.2a7.589,7.589,0,0,1,5.9.015" transform="translate(-421.529 -184.925)" fill="#8eb6e1" fill-rule="evenodd"/>
      <path id="Trazado_801925" data-name="Trazado 801925" d="M703.013,365.174c-.041-.066-.08-.133-.119-.2-.1-.171-.2-.344-.291-.518-.034-.065-.069-.129-.1-.194-.116-.23-.226-.461-.325-.694l-.028-.072c-.087-.21-.167-.422-.24-.634-.024-.069-.047-.141-.069-.211q-.086-.269-.157-.538c-.016-.063-.034-.126-.049-.188-.057-.236-.107-.472-.147-.709-.006-.039-.01-.079-.017-.119-.03-.2-.054-.4-.073-.6q-.009-.108-.016-.216c-.012-.185-.02-.37-.021-.553,0-.043,0-.085,0-.127l-.013,4.292a9.826,9.826,0,0,0,.451,2.93l1.668-.969c-.158-.225-.3-.451-.445-.68" transform="translate(-380.973 -195.337)" fill="#8eb6e1" fill-rule="evenodd"/>
      <rect id="Rectángulo_375005" data-name="Rectángulo 375005" height="2.915" transform="translate(316.932 177.326)" fill="#a99d2c"/>
      <path id="Trazado_801926" data-name="Trazado 801926" d="M689.651,382.771l-.01,3.672,3.174-1.844Z" transform="translate(-374.618 -207.924)" fill="#8eb6e1" fill-rule="evenodd"/>
      <path id="Trazado_801927" data-name="Trazado 801927" d="M779.172,360.313c-.006.127-.007.253-.017.38s-.032.27-.047.4-.027.253-.048.38-.053.27-.082.4-.047.252-.078.377-.077.268-.115.4-.068.25-.111.375-.1.265-.148.4-.089.249-.14.371-.122.266-.183.4-.11.245-.171.366-.145.264-.218.395-.129.24-.2.36-.168.261-.252.39-.15.237-.231.353c-.091.132-.192.26-.29.389-.085.114-.167.231-.257.344-.1.13-.217.257-.326.385-.1.111-.185.225-.286.335-.115.128-.242.253-.363.38-.1.108-.2.218-.312.326-.129.127-.269.252-.406.378-.112.1-.219.208-.336.311-.143.127-.3.25-.448.375-.119.1-.233.2-.357.3-.165.13-.342.258-.515.386-.119.089-.231.178-.354.266-.2.141-.407.278-.614.416-.108.071-.21.146-.321.217q-.484.312-1,.611c-8.271,4.805-20.429,6.01-30.676,3.61l-.013,4.292c10.248,2.4,22.407,1.2,30.678-3.61,5.483-3.187,8.228-7.356,8.24-11.533l.012-4.292c0,.122-.011.243-.016.365" transform="translate(-402.113 -195.526)" fill="#8eb6e1" fill-rule="evenodd"/>
      <path id="Trazado_801928" data-name="Trazado 801928" d="M696.132,404.611l0-1.147-.992.576Z" transform="translate(-377.607 -219.165)" fill="#a0c6e9" fill-rule="evenodd"/>
      <path id="Trazado_801929" data-name="Trazado 801929" d="M697.311,403.464l0,1.147,1.607.928-.009,3.145.989.571.011-4.292Z" transform="translate(-378.783 -219.165)" fill="#8eb6e1" fill-rule="evenodd"/>
      <path id="Trazado_801930" data-name="Trazado 801930" d="M687.241,409.913l0-.982-.554.322Z" transform="translate(-373.015 -222.135)" fill="#a0c6e9" fill-rule="evenodd"/>
      <path id="Trazado_801931" data-name="Trazado 801931" d="M687.9,408.931l0,.982,1.142,1.363-.007,2.609,1.451.838.012-4.292Z" transform="translate(-373.671 -222.134)" fill="#8eb6e1" fill-rule="evenodd"/>
      <path id="Trazado_801932" data-name="Trazado 801932" d="M670.5,419.305v-.641l-.554.323Z" transform="translate(-363.918 -227.421)" fill="#a0c6e9" fill-rule="evenodd"/>
      <path id="Trazado_801933" data-name="Trazado 801933" d="M671.156,418.664v.641l2.042,1.179-.008,3.042,1.452.4.012-4.293Z" transform="translate(-364.576 -227.421)" fill="#8eb6e1" fill-rule="evenodd"/>
      <path id="Trazado_801934" data-name="Trazado 801934" d="M652.506,430.147l0-1.607-1.39.807Z" transform="translate(-353.693 -232.786)" fill="#a0c6e9" fill-rule="evenodd"/>
      <path id="Trazado_801935" data-name="Trazado 801935" d="M654.158,428.54l0,1.607,1.21.7-.008,2.685,1.385.8.012-4.293Z" transform="translate(-355.341 -232.786)" fill="#8eb6e1" fill-rule="evenodd"/>
      <path id="Trazado_801936" data-name="Trazado 801936" d="M643.22,435.5l0-.98-.555.322Z" transform="translate(-349.102 -236.032)" fill="#a0c6e9" fill-rule="evenodd"/>
      <path id="Trazado_801937" data-name="Trazado 801937" d="M643.879,434.516l0,.98,1.142,1.364-.008,2.609,1.452.838.012-4.293Z" transform="translate(-349.758 -236.032)" fill="#8eb6e1" fill-rule="evenodd"/>
      <path id="Trazado_801938" data-name="Trazado 801938" d="M717.029,398.579l-.012,4.294,3.163,1.825.012-4.292Z" transform="translate(-389.489 -216.511)" fill="#8eb6e1" fill-rule="evenodd"/>
      <path id="Trazado_801939" data-name="Trazado 801939" d="M627.122,444.246l-.012,4.293,3.5.974.012-4.292Z" transform="translate(-340.651 -241.318)" fill="#8eb6e1" fill-rule="evenodd"/>
      <path id="Trazado_801940" data-name="Trazado 801940" d="M723.955,397.428l-.012,4.292,7.452-4.33.012-4.292Z" transform="translate(-393.251 -213.534)" fill="#a0c6e9" fill-rule="evenodd"/>
      <path id="Trazado_801941" data-name="Trazado 801941" d="M702.983,402.309l-.011,4.292,6.416-3.728.012-4.294Z" transform="translate(-381.859 -216.511)" fill="#a0c6e9" fill-rule="evenodd"/>
      <path id="Trazado_801942" data-name="Trazado 801942" d="M693.57,409.928l-.012,4.292,3.308-1.922,0-1.148.009-3.145Z" transform="translate(-376.746 -221.632)" fill="#a0c6e9" fill-rule="evenodd"/>
      <path id="Trazado_801943" data-name="Trazado 801943" d="M678.8,417.141l-.012,4.293,5.291-3.074.005-1.685.007-2.608Z" transform="translate(-368.723 -224.924)" fill="#a0c6e9" fill-rule="evenodd"/>
      <path id="Trazado_801944" data-name="Trazado 801944" d="M659.83,426.839l-.012,4.293,7.209-4.19,0-1.251.009-3.042Z" transform="translate(-358.418 -229.587)" fill="#a0c6e9" fill-rule="evenodd"/>
      <path id="Trazado_801945" data-name="Trazado 801945" d="M649.55,435.51l-.012,4.293,3.307-1.922,0-1.607.008-2.685Z" transform="translate(-352.834 -235.528)" fill="#a0c6e9" fill-rule="evenodd"/>
      <path id="Trazado_801946" data-name="Trazado 801946" d="M634.779,442.723l-.012,4.292,5.291-3.075,0-1.684.008-2.609Z" transform="translate(-344.81 -238.82)" fill="#a0c6e9" fill-rule="evenodd"/>
      <path id="Trazado_801947" data-name="Trazado 801947" d="M616.79,446.989l-.012,4.292,4.72-2.743.012-4.292Z" transform="translate(-335.038 -241.318)" fill="#a0c6e9" fill-rule="evenodd"/>
      <path id="Trazado_801948" data-name="Trazado 801948" d="M602.015,450.263,602,454.555l6.749-.011.012-4.292Z" transform="translate(-327.012 -244.58)" fill="#8eb6e1" fill-rule="evenodd"/>
      <path id="Trazado_801949" data-name="Trazado 801949" d="M649.709,390.049a.814.814,0,0,0,.237-.2c.193-.25.115-.554-.239-.758a1.831,1.831,0,0,0-1.662,0l-.363.21-2.52,1.466L606.9,413c-.341.2-.423.487-.255.73a.823.823,0,0,0,.264.231,1.779,1.779,0,0,0,1.051.185,1.591,1.591,0,0,0,.217-.037,1.413,1.413,0,0,0,.387-.148Z" transform="translate(-329.49 -211.247)" fill="#a0c6e9" fill-rule="evenodd"/>
      <path id="Trazado_801950" data-name="Trazado 801950" d="M744.241,341.69c-.131-.062-.26-.127-.381-.2a2.378,2.378,0,0,1-1.4-1.933v-.017l0-.046a1.456,1.456,0,0,1,.018-.218l.012-.053a1.754,1.754,0,0,1,.052-.207l.033-.079a1.663,1.663,0,0,1,.073-.175c.026-.05.059-.1.09-.149.021-.033.037-.067.06-.1a3.186,3.186,0,0,1,1.036-.905l.015-.01c.115-.066.235-.128.358-.186l.021-.009c.116-.054.236-.105.359-.152l.085-.029c.1-.038.208-.075.317-.108.036-.011.075-.019.111-.029.1-.03.2-.058.308-.083.032-.008.064-.012.1-.02.111-.023.223-.047.337-.066l.044-.007a7.34,7.34,0,0,1,4.646.7c.041.024.079.049.118.073s.1.06.141.09.094.065.139.1.081.062.12.094c.063.052.124.1.181.159.037.034.072.069.107.1s.067.072.1.11a1.133,1.133,0,0,1,.082.1,1.954,1.954,0,0,1,.119.169c.025.039.05.078.07.117s.04.076.058.115.031.072.047.109a1.745,1.745,0,0,1,.056.168c.012.044.024.088.033.132s.013.077.017.116.007.077.009.115a1.687,1.687,0,0,1-.167.815,2.918,2.918,0,0,1-1.207,1.195,4.66,4.66,0,0,1-.415.212,7.606,7.606,0,0,1-5.9-.015m14.911,4.325c-.016-.138-.031-.269-.053-.4s-.048-.268-.073-.4a7.442,7.442,0,0,0-.217-.8c-.042-.132-.089-.263-.136-.4s-.116-.284-.174-.431c-.052-.116-.111-.232-.169-.353a9.181,9.181,0,0,0-.484-.863c-.058-.1-.121-.19-.185-.285-.079-.127-.168-.248-.252-.368a12.205,12.205,0,0,0-.932-1.118c-.047-.047-.09-.094-.137-.142-.117-.121-.232-.237-.353-.353-.173-.163-.353-.327-.537-.489l-.053-.042c-.132-.116-.263-.233-.4-.343-.159-.127-.317-.253-.485-.379l-.036-.027c-.211-.158-.422-.31-.648-.457-.4-.274-.822-.543-1.264-.8a35,35,0,0,0-31.791,0c-.274.159-.538.322-.79.485a16.085,16.085,0,0,0-2.648,2.091,11.555,11.555,0,0,0-1.838,2.29c-.053.09-.1.174-.153.264l-.037.064c-.1.194-.2.389-.3.584s-.173.4-.252.595l0,.01c-.064.179-.127.364-.185.543a8.074,8.074,0,0,0-.31,1.661l.005.046c.005.069.015.139.021.207.015.127.029.252.049.379q.018.113.04.226c.023.118.048.236.076.354.019.081.038.162.06.243.01.036.017.073.027.109.026.09.057.18.085.27.019.058.036.116.055.173.065.187.135.374.214.559l.036.079c.07.163.148.326.229.487.024.047.049.093.074.14q.117.223.249.443l.073.122a10.926,10.926,0,0,0,.8,1.125l.007.009c.145.179.3.355.456.53l.072.079q.224.243.465.48l.058.058a15.383,15.383,0,0,0,1.215,1.057l.021.016c.205.161.417.318.637.474.031.024.065.047.1.069q.315.221.649.436l.07.046c.251.16.508.318.776.473,6.493,3.749,15.931,4.731,23.951,2.953a27.5,27.5,0,0,0,7.845-2.953l.056-.034q.334-.2.651-.4c.086-.053.168-.109.25-.164.148-.1.292-.195.434-.293.086-.06.171-.12.255-.181.143-.1.284-.211.423-.318.067-.052.136-.1.2-.154q.287-.23.555-.463c.061-.053.118-.108.177-.161.125-.112.246-.225.363-.339.066-.063.13-.127.193-.19q.167-.169.324-.339c.053-.058.108-.115.16-.173.151-.17.3-.342.436-.515l.007-.01c.139-.175.267-.35.393-.527l.091-.136c.1-.143.19-.286.279-.431l.076-.127a8.93,8.93,0,0,0,.8-1.745l.016-.047c.025-.08.053-.159.077-.238a7.919,7.919,0,0,0,.288-1.559c0-.1-.009-.2-.02-.3" transform="translate(-387.988 -181.301)" fill="#a0c6e9" fill-rule="evenodd"/>
      <path id="Trazado_801951" data-name="Trazado 801951" d="M810.2,351.025l-.03-.057c-.061-.111-.122-.223-.188-.334l-.025-.041c.086.144.167.287.243.432" transform="translate(-439.977 -190.445)" fill="#c1bb44" fill-rule="evenodd"/>
      <path id="Trazado_801952" data-name="Trazado 801952" d="M800.144,340.88c.113.074.222.148.33.225l-.005,0c-.089-.063-.18-.124-.271-.186l-.054-.036-.041-.027q-.262-.178-.538-.354l-.037-.024c.21.132.416.268.616.405" transform="translate(-434.31 -184.949)" fill="#c1bb44" fill-rule="evenodd"/>
      <path id="Trazado_801953" data-name="Trazado 801953" d="M719.254,345.258a12.7,12.7,0,0,0-.979,1.073l-.047.054c-.11.137-.211.277-.311.416-.039.053-.083.106-.12.16a12.012,12.012,0,0,1,1.456-1.7" transform="translate(-389.913 -187.547)" fill="#c1bb44" fill-rule="evenodd"/>
      <path id="Trazado_801954" data-name="Trazado 801954" d="M763.258,331.263h0q.539,0,1.079.015-.539-.016-1.079-.015" transform="translate(-414.607 -179.945)" fill="#c1bb44" fill-rule="evenodd"/>
      <path id="Trazado_801955" data-name="Trazado 801955" d="M714.228,360.247c-.013-.185-.022-.37-.022-.556v.018c0,.05,0,.1.005.15,0,.129.005.258.016.387" transform="translate(-387.962 -195.387)" fill="#c1bb44" fill-rule="evenodd"/>
      <path id="Trazado_801956" data-name="Trazado 801956" d="M811.526,353.869l-.021-.061c-.015-.047-.032-.093-.048-.14-.022-.064-.044-.129-.067-.194s-.057-.144-.086-.216c.029.072.06.145.086.216.047.132.094.264.136.395" transform="translate(-440.706 -191.893)" fill="#c1bb44" fill-rule="evenodd"/>
      <path id="Trazado_801957" data-name="Trazado 801957" d="M808.716,348.726c-.028-.043-.059-.085-.089-.127s-.049-.074-.075-.111-.06-.086-.089-.129c-.071-.1-.148-.189-.222-.282.074.094.151.187.222.282.085.121.173.242.253.368" transform="translate(-439.043 -189.077)" fill="#c1bb44" fill-rule="evenodd"/>
      <path id="Trazado_801958" data-name="Trazado 801958" d="M714.228,344.8v0h0a8.045,8.045,0,0,1,.31-1.661c.058-.179.121-.364.185-.543l.005-.01c.079-.2.164-.4.252-.595s.19-.391.3-.585l.037-.064c.053-.089.1-.173.153-.264a11.583,11.583,0,0,1,1.838-2.29,16.111,16.111,0,0,1,2.648-2.091c.253-.163.516-.327.79-.485a35,35,0,0,1,31.79,0c.443.253.864.522,1.264.8.226.148.437.3.648.458l.036.027c.168.126.326.252.485.379.142.111.273.227.4.343l.053.042c.185.163.364.327.537.489.122.116.237.233.353.354.047.048.09.1.137.142a12.179,12.179,0,0,1,.932,1.117c.085.121.173.242.252.368.063.095.127.19.185.285a9.123,9.123,0,0,1,.484.863c.058.121.116.237.169.353.058.147.121.29.174.431s.094.264.136.4a7.429,7.429,0,0,1,.217.8c.026.131.052.263.073.4s.036.264.052.4c.01.1.015.2.02.3v.01c.009-.1.016-.206.021-.31v-.3h0c0-.1,0-.2-.008-.3l0-.072,0-.064c0-.115-.012-.229-.024-.344l0-.061c-.016-.137-.031-.269-.052-.4l-.01-.051-.013-.072c-.016-.092-.032-.186-.05-.276s-.044-.18-.066-.27l-.01-.042c-.041-.162-.085-.324-.141-.482-.042-.132-.089-.264-.136-.4-.027-.07-.057-.143-.087-.215s-.058-.143-.088-.216c-.052-.116-.111-.232-.169-.353-.014-.03-.031-.059-.046-.088l-.069-.129c-.076-.145-.157-.288-.243-.432-.038-.065-.075-.131-.116-.2l-.011-.019c-.058-.1-.121-.189-.185-.285-.079-.127-.168-.248-.252-.368-.071-.1-.148-.189-.222-.283l-.027-.036c-.037-.047-.073-.094-.111-.141-.106-.131-.219-.26-.333-.388-.058-.065-.113-.131-.173-.2l-.065-.074c-.047-.047-.09-.1-.137-.143-.07-.073-.143-.143-.214-.214l-.112-.112-.026-.026c-.066-.062-.135-.122-.2-.184-.11-.1-.22-.2-.335-.306l-.053-.042c-.09-.08-.185-.157-.278-.235-.043-.035-.083-.072-.127-.108l-.048-.038q-.149-.117-.3-.234c-.045-.036-.089-.072-.136-.107l-.036-.026c-.106-.079-.211-.157-.318-.233s-.217-.151-.33-.224c-.2-.137-.406-.273-.616-.406-.111-.07-.228-.137-.342-.206s-.2-.125-.307-.185a25.356,25.356,0,0,0-4.462-2l-.021-.008-.053-.017q-.935-.319-1.906-.58-.5-.134-1.009-.253-1.016-.24-2.061-.418a37.681,37.681,0,0,0-5.327-.523q-.54-.016-1.079-.015t-1.078.015a34.528,34.528,0,0,0-11.276,2.133c-.622.238-1.229.5-1.815.775s-1.156.577-1.7.894c-.274.158-.538.322-.79.484-.482.309-.93.628-1.35.957l-.078.058a14.952,14.952,0,0,0-1.22,1.077,12.064,12.064,0,0,0-1.456,1.7l-.006.01c-.133.191-.259.384-.375.578-.024.04-.047.079-.069.118l-.084.144-.037.064c-.023.043-.043.086-.066.131-.064.122-.127.244-.185.366-.013.028-.031.058-.045.087s-.03.072-.046.109c-.055.125-.107.249-.158.372-.015.038-.033.076-.048.114l-.005.011c-.026.075-.052.151-.078.227-.02.06-.04.118-.06.177s-.032.092-.047.138c-.027.093-.048.187-.073.281-.016.064-.035.128-.051.194-.03.132-.055.264-.08.4-.011.065-.026.129-.036.194a7.433,7.433,0,0,0-.092,1.15v.026c0,.185.007.371.022.556" transform="translate(-387.962 -179.945)" fill="#8eb6e1" fill-rule="evenodd"/>
      <path id="Trazado_801959" data-name="Trazado 801959" d="M404.371,269.34l.578,40.638-1.676,1,.458,32.732,3.966-2.357-1.03-73.367Z" transform="translate(-219.061 -145.572)" fill="#248a8f" fill-rule="evenodd"/>
      <path id="Trazado_801960" data-name="Trazado 801960" d="M386.668,29.528l-5.254,9.4,1.554,139.7c.1,7.085-4.138,15.468-9.41,18.609l-43.107,25.706-5.756,10.3-8.835-4.937c-1.992-1.2-3.283-3.88-3.341-7.674L310.869,74.369c-.1-7.1,4.143-15.481,9.416-18.62L371.547,25.19c2.519-1.506,4.834-1.539,6.584-.413l.009-.016Z" transform="translate(-168.866 -13.032)" fill="#8eb6e1" fill-rule="evenodd"/>
      <path id="Trazado_801961" data-name="Trazado 801961" d="M400,42.791c-.1-7.1-4.5-10.331-9.774-7.176L338.963,66.173c-5.275,3.138-9.512,11.523-9.415,18.623l1.65,146.266c.1,7.085,4.5,10.316,9.77,7.176l51.267-30.572c5.273-3.14,9.511-11.523,9.409-18.607Z" transform="translate(-179.012 -18.689)" fill="#fff" fill-rule="evenodd"/>
      <path id="Trazado_801962" data-name="Trazado 801962" d="M340.711,70.617c-4.5,2.686-8.087,9.775-8,15.819l1.643,146.28c.084,6.041,3.813,8.771,8.3,6.1l51.269-30.573c4.49-2.671,8.082-9.774,8-15.816l-1.651-146.27c-.086-6.043-3.808-8.784-8.307-6.1Z" transform="translate(-180.731 -21.2)" fill="#b7d9f2" fill-rule="evenodd"/>
      <path id="Trazado_801963" data-name="Trazado 801963" d="M401.214,88.238l-62.05,36.993,1.259,118.461L402.475,206.7Z" transform="translate(-184.237 -47.931)" fill="#80a8d8" fill-rule="evenodd"/>
      <path id="Trazado_801964" data-name="Trazado 801964" d="M333.1,156.576l-9.779,5.643,9.908,16.731,5.224,3.144Z" transform="translate(-175.628 -85.053)" fill="#a0c6e9" fill-rule="evenodd"/>
      <path id="Trazado_801965" data-name="Trazado 801965" d="M344.536,163.46l-9.775,5.645,9.9,16.728Z" transform="translate(-181.845 -88.793)" fill="#c9e3f6" fill-rule="evenodd"/>
      <path id="Trazado_801966" data-name="Trazado 801966" d="M233.242,211.943l-2.536,6.777,5.187,2.906,2.21-4.234Z" transform="translate(-125.322 -115.129)" fill="#a0c6e9" fill-rule="evenodd"/>
      <path id="Trazado_801967" data-name="Trazado 801967" d="M283.093,93.291,231.1,123.307c-1.65.952-2.991-.058-2.991-2.26v-48a7.161,7.161,0,0,1,2.991-5.71l51.993-30.017c1.649-.954,2.989.058,2.989,2.261v48a7.168,7.168,0,0,1-2.989,5.713" transform="translate(-123.911 -20.075)" fill="#a0c6e9" fill-rule="evenodd"/>
      <path id="Trazado_801968" data-name="Trazado 801968" d="M344.626,42.794c.29-.192,3.826-5.218,3.826-5.218l5.487,3.371-2.992,4.963Z" transform="translate(-187.203 -20.412)" fill="#a0c6e9" fill-rule="evenodd"/>
      <path id="Trazado_801969" data-name="Trazado 801969" d="M294.3,99.887,242.3,129.905c-1.654.953-2.991-.057-2.991-2.259v-48A7.151,7.151,0,0,1,242.3,73.93L294.3,43.914c1.651-.955,2.989.059,2.989,2.258v48a7.156,7.156,0,0,1-2.989,5.711" transform="translate(-129.997 -23.659)" fill="#c9e3f6" fill-rule="evenodd"/>
      <path id="Trazado_801970" data-name="Trazado 801970" d="M265.39,149.193c0,3.308-2.012,7.153-4.5,8.585s-4.491-.089-4.491-3.4,2.013-7.154,4.491-8.587,4.5.09,4.5,3.4" transform="translate(-139.28 -78.904)" fill="#fff" fill-rule="evenodd"/>
      <path id="Trazado_801971" data-name="Trazado 801971" d="M301.922,128.1c0,3.308-2.013,7.154-4.5,8.587s-4.489-.089-4.489-3.4,2.012-7.153,4.489-8.586,4.5.088,4.5,3.4" transform="translate(-159.125 -67.449)" fill="#fff" fill-rule="evenodd"/>
      <path id="Trazado_801972" data-name="Trazado 801972" d="M338.442,107.015c0,3.31-2.008,7.153-4.492,8.587s-4.493-.089-4.493-3.4,2.012-7.154,4.493-8.586,4.492.088,4.492,3.4" transform="translate(-178.964 -55.993)" fill="#fff" fill-rule="evenodd"/>
      <path id="Trazado_801973" data-name="Trazado 801973" d="M422.7,243.566l50.527-30.743c2.472-1.431,4.477-4.594,4.477-7.068l1.628-41.569c0-2.473-3.633-3.2-6.106-1.768l-51.325,29.8c-2.473,1.431-4.477,4.6-4.477,7.068v41.451a3.455,3.455,0,0,0,5.276,2.83" transform="translate(-226.749 -87.832)" fill="#b7d9f2" fill-rule="evenodd"/>
      <path id="Trazado_801974" data-name="Trazado 801974" d="M425.893,243.686l51.326-29.8c2.473-1.43,4.477-4.595,4.477-7.068v-41.45c0-2.474-2-3.318-4.477-1.887l-51.326,29.8c-2.473,1.431-4.477,4.6-4.477,7.068V241.8c0,2.474,2,3.319,4.477,1.888" transform="translate(-228.916 -88.425)" fill="#c9e3f6" fill-rule="evenodd"/>
      <path id="Trazado_801975" data-name="Trazado 801975" d="M481.7,192.293l-60.281,35v-8.208l60.281-35Z" transform="translate(-228.917 -99.997)" fill="#a0c6e9" fill-rule="evenodd"/>
      <path id="Trazado_801976" data-name="Trazado 801976" d="M433.185,290.261l10.926-6.344a1.978,1.978,0,0,0,.953-1.5v-8.824c0-.527-.426-.706-.953-.4l-10.926,6.343a1.979,1.979,0,0,0-.953,1.5v8.824c0,.526.426.706.953.4" transform="translate(-234.792 -148.317)" fill="#a0c6e9" fill-rule="evenodd"/>
      <path id="Trazado_801977" data-name="Trazado 801977" d="M501.645,232.785l16.224-9.224a1.92,1.92,0,0,0,.933-1.464c0-.514-.419-.694-.934-.4l-16.223,9.224a1.924,1.924,0,0,0-.932,1.464c0,.513.42.694.932.4" transform="translate(-271.991 -120.35)" fill="#fff" fill-rule="evenodd"/>
      <path id="Trazado_801978" data-name="Trazado 801978" d="M501.645,186.829l16.224-9.224a1.92,1.92,0,0,0,.933-1.464c0-.513-.419-.694-.934-.4l-16.223,9.224a1.925,1.925,0,0,0-.932,1.464c0,.514.42.694.932.4" transform="translate(-271.991 -95.387)" fill="#fff" fill-rule="evenodd"/>
      <path id="Trazado_801979" data-name="Trazado 801979" d="M484.342,250.4l24.127-13.717a1.922,1.922,0,0,0,.933-1.464c0-.513-.419-.695-.934-.4l-24.126,13.718a1.917,1.917,0,0,0-.934,1.464c0,.513.418.695.934.4" transform="translate(-262.591 -127.477)" fill="#fff" fill-rule="evenodd"/>
      <path id="Trazado_801980" data-name="Trazado 801980" d="M484.342,259.67l24.127-13.717a1.922,1.922,0,0,0,.933-1.464c0-.513-.419-.695-.934-.4L484.342,257.8a1.917,1.917,0,0,0-.934,1.464c0,.513.418.695.934.4" transform="translate(-262.591 -132.513)" fill="#fff" fill-rule="evenodd"/>
      <path id="Trazado_801981" data-name="Trazado 801981" d="M497.873,265.428l17.946-10.2a1.92,1.92,0,0,0,.933-1.464c0-.513-.418-.695-.934-.4l-17.946,10.2a1.921,1.921,0,0,0-.934,1.463c0,.514.421.695.934.4" transform="translate(-269.941 -137.55)" fill="#fff" fill-rule="evenodd"/>
      <path id="Trazado_801982" data-name="Trazado 801982" d="M432.218,288.653l5.122-2.614a2.17,2.17,0,0,0,1.187-1.94v-3.543h-.319V284.1a1.85,1.85,0,0,1-1.016,1.655l-5.118,2.612Z" transform="translate(-234.706 -152.4)" fill="#fff" fill-rule="evenodd"/>
      <path id="Trazado_801983" data-name="Trazado 801983" d="M432.216,301.408l5.818-3.117a.567.567,0,0,1,.835.5v1.531h.319v-1.531a.886.886,0,0,0-1.307-.782l-5.815,3.116Z" transform="translate(-234.702 -161.823)" fill="#fff" fill-rule="evenodd"/>
      <path id="Trazado_801984" data-name="Trazado 801984" d="M432.218,293.025l12.834-6.985-.154-.28-12.832,6.984Z" transform="translate(-234.701 -155.227)" fill="#fff" fill-rule="evenodd"/>
      <path id="Trazado_801985" data-name="Trazado 801985" d="M447.612,254.13l50.526-30.742c2.473-1.43,4.477-4.6,4.477-7.068l1.628-41.569c0-2.473-3.632-3.2-6.1-1.77l-51.326,29.8c-2.473,1.43-4.478,4.6-4.478,7.068V251.3a3.455,3.455,0,0,0,5.278,2.829" transform="translate(-240.279 -93.57)" fill="#80a8d8" fill-rule="evenodd"/>
      <path id="Trazado_801986" data-name="Trazado 801986" d="M450.8,254.251l51.326-29.8c2.472-1.431,4.477-4.6,4.477-7.067v-41.45c0-2.474-2.005-3.319-4.478-1.887l-51.325,29.8c-2.473,1.43-4.477,4.595-4.477,7.068v41.45c0,2.474,2,3.318,4.477,1.887" transform="translate(-242.448 -94.164)" fill="#c9e3f6" fill-rule="evenodd"/>
      <path id="Trazado_801987" data-name="Trazado 801987" d="M506.606,202.858l-60.281,35v-8.207l60.281-35Z" transform="translate(-242.448 -105.736)" fill="#a0c6e9" fill-rule="evenodd"/>
      <path id="Trazado_801988" data-name="Trazado 801988" d="M458.095,300.828l10.926-6.344a1.982,1.982,0,0,0,.955-1.505v-8.824c0-.526-.428-.706-.955-.4L458.095,290.1a1.979,1.979,0,0,0-.953,1.505v8.824c0,.526.426.706.953.4" transform="translate(-248.323 -154.057)" fill="#a0c6e9" fill-rule="evenodd"/>
      <path id="Trazado_801989" data-name="Trazado 801989" d="M526.555,243.351l16.226-9.224a1.924,1.924,0,0,0,.933-1.464c0-.514-.421-.695-.934-.4l-16.225,9.224a1.924,1.924,0,0,0-.933,1.464c0,.513.42.694.933.4" transform="translate(-285.522 -126.09)" fill="#fff" fill-rule="evenodd"/>
      <path id="Trazado_801990" data-name="Trazado 801990" d="M526.555,197.4l16.226-9.224a1.924,1.924,0,0,0,.933-1.464c0-.513-.421-.695-.934-.4l-16.225,9.224a1.925,1.925,0,0,0-.933,1.464c0,.513.42.695.933.4" transform="translate(-285.522 -101.127)" fill="#fff" fill-rule="evenodd"/>
      <path id="Trazado_801991" data-name="Trazado 801991" d="M509.25,260.964l24.13-13.718a1.926,1.926,0,0,0,.933-1.464c0-.513-.421-.695-.934-.4L509.25,259.1a1.923,1.923,0,0,0-.933,1.464c0,.513.421.694.933.4" transform="translate(-276.122 -133.216)" fill="#fff" fill-rule="evenodd"/>
      <path id="Trazado_801992" data-name="Trazado 801992" d="M509.25,270.236l24.13-13.718a1.926,1.926,0,0,0,.933-1.464c0-.513-.421-.695-.934-.4L509.25,268.37a1.924,1.924,0,0,0-.933,1.464c0,.513.421.694.933.4" transform="translate(-276.122 -138.253)" fill="#fff" fill-rule="evenodd"/>
      <path id="Trazado_801993" data-name="Trazado 801993" d="M522.781,275.993l17.95-10.2a1.924,1.924,0,0,0,.933-1.464c0-.513-.421-.695-.934-.4l-17.949,10.2a1.924,1.924,0,0,0-.933,1.465h0c0,.513.421.694.933.4" transform="translate(-283.472 -143.29)" fill="#fff" fill-rule="evenodd"/>
      <path id="Trazado_801994" data-name="Trazado 801994" d="M457.128,299.219l5.12-2.614a2.168,2.168,0,0,0,1.188-1.94v-3.544h-.319v3.544a1.853,1.853,0,0,1-1.014,1.655l-5.121,2.612Z" transform="translate(-248.237 -158.14)" fill="#fff" fill-rule="evenodd"/>
      <path id="Trazado_801995" data-name="Trazado 801995" d="M457.128,311.974l5.815-3.117a.568.568,0,0,1,.836.5v1.53h.321v-1.53a.889.889,0,0,0-1.307-.783l-5.818,3.117Z" transform="translate(-248.232 -167.562)" fill="#fff" fill-rule="evenodd"/>
      <rect id="Rectángulo_375006" data-name="Rectángulo 375006" width="14.611" height="0.32" transform="matrix(0.878, -0.478, 0.478, 0.878, 208.742, 142.344)" fill="#fff"/>
      <rect id="Rectángulo_375007" data-name="Rectángulo 375007" width="0.319" height="10.694" transform="translate(217.754 131.314)" fill="#fff"/>
      <path id="Trazado_801996" data-name="Trazado 801996" d="M566.428,59.686l6.895-4-1.7-.991-6.893,4Z" transform="translate(-306.763 -29.71)" fill="#248a8f" fill-rule="evenodd"/>
      <path id="Trazado_801997" data-name="Trazado 801997" d="M578.921,42.661l.151-.069.049-.023.145-.053.034-.012.172-.053.1-.025.048-.011.138-.027c.075-.011.145-.017.213-.022l.041,0c.062,0,.125,0,.186,0l.028,0,.144.018.041.007.159.036.007,0,.146.049.041.017.117.058.034.02-11.354-6.6-.021-.011-.02-.01L569.4,35.9l-.02-.01-.021-.007-.138-.05-.006,0-.159-.036-.021,0-.028,0-.138-.016-.026,0h-.006c-.063,0-.118,0-.187,0h-.014l-.028,0c-.069.005-.137.011-.207.022l-.145.027-.048.012-.09.021-.006,0-.172.053-.035.013-.138.053-.021.008-.034.016-.153.069-.055.028c-.069.034-.13.07-.2.108l11.355,6.6c.068-.038.138-.074.2-.107Z" transform="translate(-308.164 -19.426)" fill="#80a8d8" fill-rule="evenodd"/>
      <path id="Trazado_801998" data-name="Trazado 801998" d="M521.449,125.984l-11.363-6.6a2.234,2.234,0,0,0,.924,2.031l11.362,6.6a2.2,2.2,0,0,1-.924-2.031" transform="translate(-277.083 -64.849)" fill="#80a8d8" fill-rule="evenodd"/>
      <path id="Trazado_801999" data-name="Trazado 801999" d="M521.328,84.392l-11.361-6.6.054,19,11.362,6.6Z" transform="translate(-277.018 -42.257)" fill="#80a8d8" fill-rule="evenodd"/>
      <path id="Trazado_802000" data-name="Trazado 802000" d="M539.913,36.71l-23.034,13.3,11.362,6.6,23.027-13.3Z" transform="translate(-280.773 -19.941)" fill="#80a8d8" fill-rule="evenodd"/>
      <path id="Trazado_802001" data-name="Trazado 802001" d="M564.2,52.457c-.007-2.011-1.427-2.821-3.178-1.811L538,63.943a6.949,6.949,0,0,0-3.158,5.468l.055,19c.006,2.009,1.427,2.82,3.179,1.81l23.027-13.3a6.952,6.952,0,0,0,3.157-5.467Z" transform="translate(-290.529 -27.275)" fill="#a0c6e9" fill-rule="evenodd"/>
      <path id="Trazado_802002" data-name="Trazado 802002" d="M521.344,77.556c.007-.09.013-.181.027-.272l.007-.075.021-.127.013-.087.027-.124.015-.069c.02-.106.048-.211.075-.317l.014-.052.083-.275.006-.02c.034-.088.062-.176.1-.264l.027-.065c.027-.074.055-.148.09-.222l.014-.034c.034-.081.069-.163.111-.243l.034-.063a1.916,1.916,0,0,1,.1-.19l.027-.059c.042-.079.083-.158.131-.235l.028-.044c.042-.068.076-.134.124-.2l.035-.058c.047-.081.1-.16.158-.239l.027-.035c.055-.081.117-.161.172-.239l.027-.032c.076-.1.153-.191.235-.284l.027-.037.152-.163.007-.011.158-.166.034-.034c.076-.069.145-.136.221-.2l.02-.019q.114-.1.228-.19l.048-.036c.076-.059.152-.115.227-.169l.048-.027c.083-.055.166-.107.249-.157l-11.362-6.6c-.083.05-.166.1-.248.157l-.041.029c-.083.053-.159.111-.234.169l-.042.035c-.083.061-.158.124-.234.191l-.021.018c-.076.065-.145.132-.213.2l-.021.02-.015.013-.166.166-.006.011-.152.163-.014.016-.013.021c-.083.092-.158.186-.234.284l-.007.008-.014.023c-.062.079-.124.158-.179.239l-.014.024-.014.011c-.048.079-.1.158-.158.24l-.014.022-.021.035-.122.2-.021.032-.008.012c-.041.077-.09.155-.13.235l-.008.019-.021.039a2.1,2.1,0,0,0-.1.19l-.022.039-.013.025c-.034.08-.075.162-.111.243v.008l-.013.025c-.027.074-.062.149-.09.223l-.014.036-.014.029c-.027.088-.061.176-.089.264l-.008.006v.014a2.016,2.016,0,0,0-.082.274l-.014.034-.007.018c-.029.106-.055.211-.076.317l-.008.027-.007.042-.021.124-.02.087-.014.127-.014.06v.015c-.014.092-.021.183-.027.273v.057c-.007.093-.013.184-.013.275l11.361,6.6c0-.091,0-.182.008-.275Z" transform="translate(-277.018 -35.754)" fill="#80a8d8" fill-rule="evenodd"/>
      <path id="Trazado_802003" data-name="Trazado 802003" d="M565.288,19.162c-.007-1.913-.682-3.26-1.771-3.895l-4.151-2.41c1.089.634,1.772,1.982,1.779,3.9l.028,11.891,4.15,2.411Z" transform="translate(-303.852 -6.984)" fill="#b7d9f2" fill-rule="evenodd"/>
      <path id="Trazado_802004" data-name="Trazado 802004" d="M531.489,44.525l-4.151-2.41.035,11.892,4.15,2.411Z" transform="translate(-286.454 -22.877)" fill="#b7d9f2" fill-rule="evenodd"/>
      <path id="Trazado_802005" data-name="Trazado 802005" d="M557.074,12.589c-.015-6.541-4.661-9.19-10.355-5.9S536.4,17.97,536.425,24.513l.034,11.892,4.247-2.452-.034-11.893a13.36,13.36,0,0,1,6.06-10.491c3.35-1.936,6.08-.377,6.095,3.473l.034,11.892,4.247-2.453Z" transform="translate(-291.39 -2.865)" fill="#8eb6e1" fill-rule="evenodd"/>
      <path id="Trazado_802006" data-name="Trazado 802006" d="M531.53,20.5c.007-.068.015-.136.021-.2a3.777,3.777,0,0,1,.042-.4,1.559,1.559,0,0,1,.021-.189c.021-.178.042-.355.069-.533l.02-.1c.028-.187.063-.375.1-.564l.014-.069c.034-.145.062-.292.1-.439.02-.089.041-.18.062-.269.028-.118.055-.238.09-.357.02-.088.042-.176.069-.264.041-.146.082-.291.124-.437l.041-.151c.063-.2.125-.4.194-.593l.034-.108.165-.476.069-.183c.055-.147.111-.294.172-.44l.055-.142c.075-.19.158-.378.241-.566l.048-.109.206-.465.076-.158c.083-.175.166-.349.255-.522l.02-.038c.091-.185.187-.367.284-.55l.082-.15c.082-.146.159-.289.242-.432l.076-.129c.1-.18.206-.358.317-.535l.069-.106c.09-.143.18-.285.269-.424l.111-.174c.089-.129.172-.256.261-.384l.1-.148c.11-.162.228-.322.344-.481l.027-.045c.124-.171.255-.339.386-.506.062-.08.124-.156.186-.234.076-.1.159-.2.235-.293.069-.078.131-.155.2-.232s.151-.182.227-.272c.171-.191.338-.38.51-.565h.007c.172-.184.344-.364.523-.54.11-.109.221-.217.331-.321l.1-.1q.228-.212.456-.412l.123-.1c.111-.1.228-.2.344-.292l.166-.135c.1-.082.207-.162.311-.24l.179-.139c.1-.074.207-.148.3-.22l.186-.128c.11-.075.221-.148.33-.221l.159-.1c.166-.1.331-.205.5-.3.109-.063.213-.124.323-.182l.1-.051.248-.127.083-.043c.11-.053.214-.1.324-.153l.047-.022c.09-.041.18-.08.27-.118l.1-.043.186-.073.1-.041c.069-.025.131-.048.2-.072l.083-.03c.1-.032.185-.063.282-.09l.035-.013c.082-.024.159-.048.242-.068l.054-.016c.145-.037.283-.071.421-.1l.027-.005c.138-.03.283-.055.421-.078h.015c.117-.018.227-.033.344-.045l.068-.006q.166-.017.331-.024l.062,0c.089,0,.172-.006.261-.006h.063c.1,0,.193.005.3.011l.062,0c.083.005.159.012.235.02l.062.008c.089.011.179.024.268.04l.062.011c.069.012.138.026.207.042l.075.016c.083.02.166.042.255.066l.014.005c.075.023.151.048.234.075l.069.024c.062.024.13.05.193.076l.048.019c.076.033.159.069.234.106l.055.028.179.1.1.053L544.973.7l-.054-.032-.035-.019L544.7.55l-.055-.027c-.076-.037-.151-.074-.234-.106L544.4.411,544.367.4c-.068-.027-.13-.053-.2-.076L544.1.3c-.075-.026-.151-.052-.234-.074l-.013,0h0c-.083-.025-.166-.047-.255-.067l-.069-.016c-.069-.015-.145-.029-.213-.042l-.042-.009-.013,0c-.09-.016-.179-.028-.276-.039l-.062-.007c-.076-.008-.152-.015-.227-.021l-.042,0h-.028c-.1-.006-.192-.01-.3-.011h-.055c-.09,0-.179,0-.269,0h-.063c-.1.005-.213.014-.33.024l-.07.007c-.11.012-.227.027-.344.044h0l-.014,0c-.137.022-.275.048-.42.077l-.027.006c-.138.029-.276.063-.414.1l-.034.008-.027.008-.234.069-.042.012L539.7.456l-.083.03-.2.073-.1.04-.186.074-.055.023-.042.019c-.09.038-.186.078-.275.119l-.049.021c-.1.049-.214.1-.317.153l-.09.044c-.082.041-.164.084-.248.128l-.09.049c-.11.059-.221.119-.331.183q-.248.143-.5.3l-.158.1q-.166.107-.332.22l-.179.127c-.1.073-.207.147-.3.222l-.186.138c-.1.078-.206.158-.3.239L535.5,2.9c-.117.1-.227.193-.344.292l-.118.1c-.159.135-.311.272-.455.413l-.1.1c-.1.091-.193.182-.29.275l-.041.046c-.179.178-.359.356-.531.541h0c-.172.184-.344.373-.51.565l-.041.048c-.069.073-.131.148-.193.223s-.132.153-.194.231c-.083.1-.158.2-.234.294-.069.078-.132.155-.193.233l-.028.04c-.117.154-.242.31-.352.467l-.034.043c-.1.14-.206.282-.3.424l-.042.06-.1.146c-.083.127-.172.254-.254.384L531.019,8l-.083.13-.186.293-.063.107L530.4,9l-.034.06-.069.128c-.083.144-.166.288-.242.431l-.083.152-.055.1c-.083.149-.158.3-.234.449l-.021.041c-.062.13-.131.261-.192.391l-.056.127-.075.159c-.076.154-.145.308-.214.464l-.048.109-.014.039c-.076.174-.151.351-.221.527l-.062.142-.1.259-.063.181-.069.182c-.055.16-.117.319-.172.478l-.035.106-.007.03c-.062.187-.124.376-.179.564l-.048.152c-.035.113-.062.225-.1.336l-.028.1c-.021.089-.042.177-.069.265-.027.119-.062.237-.089.356-.021.089-.041.18-.062.269-.014.065-.028.13-.041.194-.021.082-.035.163-.048.245l-.014.069c-.041.188-.068.376-.1.563l-.014.1c-.028.152-.048.3-.069.455l-.008.079c-.007.063-.014.126-.02.189-.014.132-.028.266-.042.4a2.021,2.021,0,0,0-.014.2c-.014.133-.021.266-.027.4l-.007.179c-.008.189-.014.379-.014.566l4.15,2.41c0-.188,0-.376.007-.566l.013-.18c.008-.132.014-.264.021-.4" transform="translate(-286.454)" fill="#b7d9f2" fill-rule="evenodd"/>
      <path id="Trazado_802007" data-name="Trazado 802007" d="M566.858,83.484a7.194,7.194,0,0,0,1.538-4.118c-.008-2.11-1.5-2.96-3.337-1.9-.083.047-.159.1-.242.152a7.457,7.457,0,0,0-3.061,5.291c-.089,1.532.552,2.479,1.545,2.63l-1.235,6.484c-.144.769.3,1.172.917.818l4.234-2.445a1.964,1.964,0,0,0,.91-1.873Z" transform="translate(-305.146 -41.832)" fill="#789fd3" fill-rule="evenodd"/>
      <path id="Trazado_802008" data-name="Trazado 802008" d="M411.383,157.526a10.262,10.262,0,0,0-4.659,8.073,3.892,3.892,0,0,0,.67,2.335,24.465,24.465,0,0,0-4.629,11.665l17.33-10.017c-.493-3.642-2.268-5.925-4.668-6.28a8.856,8.856,0,0,0,.646-3.1c-.011-2.976-2.1-4.166-4.691-2.676" transform="translate(-218.786 -85.221)" fill="#fbfcfd" fill-rule="evenodd"/>
      <path id="Trazado_802009" data-name="Trazado 802009" d="M378.7,159.5l.031-.753.056-.762.1-.758.107-.784.127-.778.169-.813.193-.809.213-.819.188-.655.01-.03.036-.137.265-.8.275-.793.289-.759.3-.758.255-.58,0-.014.056-.143.345-.753.393-.819.477-.925.549-.972.1-.184.121-.208c.361-.63.754-1.24,1.151-1.845.324-.473.646-.941.986-1.394l.677-.9.606-.736.6-.7.6-.661.107-.111.061-.072.468-.483.65-.647.677-.635.692-.6.34-.274.087-.072.265-.214.682-.524.661-.477.666-.428.646-.406.159-.087.487-.275.642-.33.417-.194.082-.04.121-.061.632-.266.619-.233.113-.032.085-.029.423-.138.635-.179.311-.065.131-.03.193-.047.682-.11.4-.042.154-.014.131-.016.728-.021.32.014.24.006.249.016.885.125.02.012.218.056.851.233.06.031,1.2.549,4.141,2.416-1.185-.554-.921-.269-.224-.061-1.156-.148-.243-.005-1.174.021-.137.015-1.294.2-.131.03-1.358.381-.1.031a14.807,14.807,0,0,0-1.469.591l-.1.045c-.51.235-1.017.5-1.541.8a24.744,24.744,0,0,0-3.088,2.137l-.061.055a28.922,28.922,0,0,0-2.843,2.662l-.056.056a35.431,35.431,0,0,0-4.848,6.576l-.1.168a37.266,37.266,0,0,0-1.826,3.608l-.022.04a36.34,36.34,0,0,0-1.4,3.816l-.006.044a28.444,28.444,0,0,0-.9,3.837v0a24.191,24.191,0,0,0-.31,3.775c0,.594.047,1.155.086,1.7l.01.142c.056.507.133.992.213,1.46l.036.162.336,1.292.081.245.412,1.063.07.164.616,1.1a8.23,8.23,0,0,0,1.075,1.34l.289.272a7.643,7.643,0,0,0,1.3,1l-4.134-2.408a7.652,7.652,0,0,1-1.313-1l-.291-.28a7.9,7.9,0,0,1-1.073-1.326l-.02-.022-.585-1.063-.016-.042-.046-.116-.3-.721-.139-.388-.07-.22-.07-.213-.2-.793-.062-.28-.034-.2-.05-.274-.118-.742-.047-.432-.011-.133-.014-.177-.052-.727-.015-.754V160.2Z" transform="translate(-205.708 -71.322)" fill="#a0c6e9" fill-rule="evenodd"/>
      <path id="Trazado_802010" data-name="Trazado 802010" d="M411.936,158.546l-17.33,10.016a24.454,24.454,0,0,1,4.629-11.664,3.877,3.877,0,0,1-.67-2.335,10.264,10.264,0,0,1,4.659-8.072c2.589-1.491,4.68-.3,4.691,2.676a8.843,8.843,0,0,1-.646,3.1c2.4.354,4.175,2.639,4.668,6.28M403.2,138.692c-8.55,4.939-15.473,16.929-15.453,26.777.036,9.832,7,13.811,15.562,8.866s15.478-16.923,15.448-26.767-6.989-13.814-15.557-8.876" transform="translate(-210.625 -74.185)" fill="#c9e3f6" fill-rule="evenodd"/>
      <path id="Trazado_802011" data-name="Trazado 802011" d="M321.973,274.346l.75-2.469-6.38-2.754-.02.033c-3.426-1.224-7.786-.627-12.538,2.116-11.018,6.361-19.95,21.831-19.95,34.553,0,7.251,2.9,12.039,7.44,13.643l4.906,2.108,3.028-2.158-.068-.029a22.128,22.128,0,0,0,4.643-2.046c11.018-6.361,19.949-21.831,19.949-34.553a18.7,18.7,0,0,0-1.762-8.444" transform="translate(-154.182 -145.879)" fill="#a0c6e9" fill-rule="evenodd"/>
      <path id="Trazado_802012" data-name="Trazado 802012" d="M335.253,287.678c0,12.721-8.931,28.192-19.949,34.552s-19.949,1.2-19.949-11.517,8.931-28.192,19.949-34.553,19.949-1.2,19.949,11.518" transform="translate(-160.439 -148.533)" fill="#c9e3f6" fill-rule="evenodd"/>
      <path id="Trazado_802013" data-name="Trazado 802013" d="M318.781,312.238l4.728-5.423,3.346,5.739,10.422-21.732L326.7,321.887Z" transform="translate(-173.164 -157.977)" fill="#fff" fill-rule="evenodd"/>
      <path id="Trazado_802014" data-name="Trazado 802014" d="M860.885,256.549c.418-.38.619-3.177.718-5.967-.518-4.139.775-11.142.775-15.42a119.129,119.129,0,0,0-.941-12.291c-.441-3.32-1.061-6.24-1.374-9.587a41.5,41.5,0,0,1-.8-13.746,34.909,34.909,0,0,0,11.846,1.727,32.207,32.207,0,0,1-.245,10.2,37.747,37.747,0,0,1-1.756,5.87,14.244,14.244,0,0,0-1.127,4.3c-.076,1.715,1.523,4.469,1.844,6.1.967,4.919-1.079,7.93-2.516,14.352a32.9,32.9,0,0,0-.747,5.413,6.528,6.528,0,0,1,.981,1.39c.878,1.652-.5,3.087-1.216,4.406s-.3,5.171-1.161,5.784-3.715,2.456-5.646,1.576c-1.407-.639.191-3.035,1.361-4.1" transform="translate(-466.601 -108.391)" fill="#f4ae92" fill-rule="evenodd"/>
      <path id="Trazado_802015" data-name="Trazado 802015" d="M815,124.554c1.272,1.646,2.739,2.364,3.326,2.286s-.2-1.1-.586-2.286.685-.864,1.663.505.49,2.839,1.176,3.329a31.062,31.062,0,0,0,6.621,2.119c.831.157,2.572.6,3.621.91,1.292-2.1,4.658-7.655,6.481-11.582,2.1-4.516,7.346-1.785,7.346-1.785l-3.8,10.308s-5.862,5.728-8.045,8.343c-1.18,1.417-2.617.947-5.356.361s-6.846-4.5-9.314-6.23c-1.474-1.03-5.774-2.447-6.032-5.38s1.629-2.546,2.9-.9" transform="translate(-441.126 -63.681)" fill="#f4ae92" fill-rule="evenodd"/>
      <path id="Trazado_802016" data-name="Trazado 802016" d="M866.81,308.345a61.251,61.251,0,0,0-2.016,7.974c-.118,1.2-2.1,2.791-5.5,2.644s-2.154-1.772-1.373-3.019c.365-.583.716-1.039,1.047-1.52a2.561,2.561,0,0,0,1.95,1.171,2.214,2.214,0,0,0,2.742-1.38c.732-1.343,1.829-5.37,2.272-6.509s-.417-3.177-.417-3.177l0,0c.921,1.1,1.942,1.822,1.291,3.812" transform="translate(-465.552 -165.422)" fill="#101e3b" fill-rule="evenodd"/>
      <path id="Trazado_802017" data-name="Trazado 802017" d="M877.659,311.858V317.8c0,.11-.2.2-.438.2s-.437-.089-.437-.2v-4.567Z" transform="translate(-476.276 -169.404)" fill="#101e3b" fill-rule="evenodd"/>
      <path id="Trazado_802018" data-name="Trazado 802018" d="M878.577,266.619c.376-.425.283-3.227.087-6.011-.949-4.062-.4-11.162-.851-15.417a119.182,119.182,0,0,0-2.225-12.123c-.79-3.257-1.712-6.094-2.375-9.389a41.523,41.523,0,0,1-2.235-13.584,34.992,34.992,0,0,0,11.962.47,32.269,32.269,0,0,1,.828,10.167,37.556,37.556,0,0,1-1.13,6.022,14.286,14.286,0,0,0-.669,4.394c.106,1.713,1.6,4.714,2.054,6.306,1.607,5.622.18,7.562-.574,14.1a32.962,32.962,0,0,0-.175,5.465A6.36,6.36,0,0,1,884.4,258.3c1.047,1.548-.176,3.12-.746,4.508s.243,5.174-.546,5.873-3.436,2.833-5.45,2.163c-1.468-.488-.129-3.039.922-4.222" transform="translate(-473.122 -114.125)" fill="#f4ae92" fill-rule="evenodd"/>
      <path id="Trazado_802019" data-name="Trazado 802019" d="M891.222,316.483a60.943,60.943,0,0,0-1.168,8.14c.009,1.2-1.8,2.992-5.191,3.207s-2.328-1.538-1.682-2.86c.3-.617.6-1.106.882-1.622a2.553,2.553,0,0,0,2.062.962,2.217,2.217,0,0,0,2.58-1.663c.587-1.409,1.256-5.53,1.576-6.71s-.749-3.114-.749-3.114l0,0c1.031,1,2.122,1.607,1.686,3.658" transform="translate(-479.38 -169.928)" fill="#101e3b" fill-rule="evenodd"/>
      <path id="Trazado_802020" data-name="Trazado 802020" d="M900.894,319.778l.623,5.91c.012.108-.174.218-.414.242s-.444-.042-.456-.15l-.48-4.543Z" transform="translate(-488.978 -173.706)" fill="#101e3b" fill-rule="evenodd"/>
      <path id="Trazado_802021" data-name="Trazado 802021" d="M859.12,147.5c1.317-2.55,3.013-4.257,2.986-6.113a32.624,32.624,0,0,1,.572-8.455c-.741-1-3.176-2.223-1.966-5.564a16.866,16.866,0,0,1,2.7-4.227,18.4,18.4,0,0,1,3.716-3.982c1.441-.994,1.992-.4,3.433.23a40.385,40.385,0,0,1,8.716,4.1,15.94,15.94,0,0,1,2.349,1.772c1.119,1.311.825,2.432.824,3.716,0,.091-3.978,7.264-5.923,11.746-.7,1.6-1.583,2.521-.491,4.508,1.411,2.569,2.647,3.583,3.9,8.725,2.9,11.864-3.8,28.117-3.8,28.117a10.741,10.741,0,0,1-7.485,2.272c-6.224-.389-8.758-3.2-8.758-3.2s-2.334-11.039-2.427-19.277c-.062-5.459,0-11.163,1.655-14.366" transform="translate(-465.773 -64.441)" fill="#4385c6" fill-rule="evenodd"/>
      <path id="Trazado_802022" data-name="Trazado 802022" d="M873.35,112.914a3.719,3.719,0,0,1,.718-2.889c.824-1.072,2.612-1.986,3.894-1.218l.035.037a2.392,2.392,0,0,1,1.774,2.309c.8,2.407-1.719,4.663-3.948,4.307a3.066,3.066,0,0,1-.169,2.064,1.7,1.7,0,0,1-2.72.652,3.742,3.742,0,0,1-1.254-3.706,2.325,2.325,0,0,1,1.67-1.556" transform="translate(-473.44 -58.95)" fill="#101e3b" fill-rule="evenodd"/>
      <path id="Trazado_802023" data-name="Trazado 802023" d="M888.356,116.921a3.764,3.764,0,0,1-3.362-.907,2.976,2.976,0,0,1-1.041-2.109,2.9,2.9,0,0,0,1.14-2.225c.048-.754-.173-1.528-.187-2.3a13.712,13.712,0,0,1,3.444-1.437c.7-.107,1.8-1.961,2.473-2.263a12.387,12.387,0,0,0-.088,4.985,14.573,14.573,0,0,0,1.094,4.655,8.844,8.844,0,0,1-3.471,1.6" transform="translate(-480.17 -57.408)" fill="#f09172" fill-rule="evenodd"/>
      <path id="Trazado_802024" data-name="Trazado 802024" d="M876.594,91.435c.21-1.747.761-3.925,2.21-5.07a5.317,5.317,0,0,1,4.547-.927c2.669.4,4.719,4.476,3.976,7.871-.686,3.135-2.674,7-6.262,7.387-3.989.429-4.792-6.6-4.472-9.261" transform="translate(-476.138 -46.341)" fill="#f4ae92" fill-rule="evenodd"/>
      <path id="Trazado_802025" data-name="Trazado 802025" d="M891.92,100.569s1.448-1.622,2.067-.351-.556,3.439-1.57,3.207-.5-2.855-.5-2.855" transform="translate(-484.426 -54.175)" fill="#f8cfbb" fill-rule="evenodd"/>
      <path id="Trazado_802026" data-name="Trazado 802026" d="M871.2,80.368a6.627,6.627,0,0,1,7.732-.65c1-1.2,2.81-1.02,4.248-.338a4,4,0,0,1,2.2,3.978c2.846.14,4.26,4.411,2.368,6.428a3.433,3.433,0,0,1,1.305,2.94,4.282,4.282,0,0,1-3.152,3.6c1.109.956,1.937,2.125,1.345,3.717-.756,2.034-3,2.518-4.924,2.683l0,.021a3.005,3.005,0,0,1-1.015,3.286,2.767,2.767,0,0,1-3.655.177,2.33,2.33,0,0,1-.709-3.339,2.9,2.9,0,0,1,1.892-1.142,2.535,2.535,0,0,1,2.436-3.567,2.979,2.979,0,0,1,.1-2.837,5.8,5.8,0,0,1-2.163-4.457,2.846,2.846,0,0,1,.525-1.771,7.546,7.546,0,0,1-4.189-4.763,5.451,5.451,0,0,0-2.2,1.747,6.726,6.726,0,0,0-.629,3.335c-3.948-1.55-4.007-6.639-1.521-9.046" transform="translate(-472.327 -42.786)" fill="#101e3b" fill-rule="evenodd"/>
      <path id="Trazado_802027" data-name="Trazado 802027" d="M880.552,166.779l-.1,3.679s-5.022,2.3-8.962,1.754c-4.767-.662-5.911-2.683-5.911-2.683l.922-4.455s.4,1.649,4.523,2.044a50.328,50.328,0,0,0,9.526-.339" transform="translate(-470.19 -89.669)" fill="#2f73b7" fill-rule="evenodd"/>
      <path id="Trazado_802028" data-name="Trazado 802028" d="M878.317,209.139s-.851,4.575-4.694,5.551-5.962,0-5.962,0,4.3-.689,6.107-1.825a42.058,42.058,0,0,0,4.549-3.726" transform="translate(-471.32 -113.606)" fill="#2f73b7" fill-rule="evenodd"/>
      <path id="Trazado_802029" data-name="Trazado 802029" d="M872.423,201.981a7.639,7.639,0,0,1-4.393-2.287,12.737,12.737,0,0,1-2.458-3.732s-.281,3.911,2.373,5.465,4.479.554,4.479.554" transform="translate(-470.18 -106.448)" fill="#2f73b7" fill-rule="evenodd"/>
      <path id="Trazado_802030" data-name="Trazado 802030" d="M877.633,226.37s-2.3,4.668-5.32,6.588a6.411,6.411,0,0,1-3.752,1.008,26.017,26.017,0,0,1,3.721-2.928,42.451,42.451,0,0,0,5.351-4.668" transform="translate(-471.809 -122.966)" fill="#2f73b7" fill-rule="evenodd"/>
      <path id="Trazado_802031" data-name="Trazado 802031" d="M882.246,152.274s-3.357.664-4.843,0a41.408,41.408,0,0,1-3.84-2.105,4.716,4.716,0,0,0,3.84,3.438,5.6,5.6,0,0,0,4.843-1.332" transform="translate(-474.525 -81.573)" fill="#2f73b7" fill-rule="evenodd"/>
      <path id="Trazado_802032" data-name="Trazado 802032" d="M872.47,157.828l-.808.455,6.222,14.6.808-.454Z" transform="translate(-473.493 -85.734)" fill="#fdffff" fill-rule="evenodd"/>
      <path id="Trazado_802033" data-name="Trazado 802033" d="M848.169,144.72l.808-.456,10.731,6.2-.808.455Z" transform="translate(-460.732 -78.365)" fill="#fdffff" fill-rule="evenodd"/>
      <path id="Trazado_802034" data-name="Trazado 802034" d="M852.745,162.868l12.8,7.39-7.421-17.418-12.8-7.39Z" transform="translate(-459.186 -79.009)" fill="#80a8d8" fill-rule="evenodd"/>
      <path id="Trazado_802035" data-name="Trazado 802035" d="M874.309,160.441l-.964.543,7.421,17.418.964-.542Z" transform="translate(-474.408 -87.153)" fill="#a0c6e9" fill-rule="evenodd"/>
      <path id="Trazado_802036" data-name="Trazado 802036" d="M845.323,144.805l.964-.542,12.8,7.39-.964.543Z" transform="translate(-459.186 -78.365)" fill="#b7d9f2" fill-rule="evenodd"/>
      <path id="Trazado_802037" data-name="Trazado 802037" d="M870.069,153.22c.81-.177,2.054.721,2.9,1.011a3.368,3.368,0,0,0,2.455-.271c.35-.5-.426-1.742-.13-2.451.212-.507.529-.14,1.2,1.007.656,1.115.726,1.792,1.269,2.334,0,0,4.274-.939,5.872-2.246,3.23-2.638,5.37-2.81,5.37-2.81s-2.6-4.874-3.045-7.474c-1.467-.449-4.115-.124-3.3-4.93a10.047,10.047,0,0,1,4.048-6.777,5.241,5.241,0,0,1,4.005,5.372c1.356,4.755,2.148,6.839,2.712,9.13s.34,3.569.679,4.85-.06,1.819-1.583,3.614a15.239,15.239,0,0,1-7.152,3.8c-1.417.363-6.808.97-8.374.487s-4.622-.352-6.249-2.054c-.98-1.024-1.952-2.317-.676-2.592" transform="translate(-472.297 -70.949)" fill="#f4ae92" fill-rule="evenodd"/>
      <path id="Trazado_802038" data-name="Trazado 802038" d="M675.066,62.875,679.9,74.548c.6,2.335,3.89,4.85,7.363,9.069,2.094,2.562,7.039-.055,5.333-3.16l-6.054-10.771-3.986-10.228c-1.872-3.539-5.169-5.456-7.487-4.264Z" transform="translate(-366.701 -29.789)" fill="#103e7d" fill-rule="evenodd"/>
      <path id="Trazado_802039" data-name="Trazado 802039" d="M684.695,241.914c-.669.882-.667,2.921-.511,5.227.626,2.329,2.833,2.149,4.715,2.442,3.634.569,5.444,3.3,10.282,3.294,2.875,0,4.792-.619,5.4-2.442a3.1,3.1,0,0,0-1.42-2.557s-6.589-2.953-6.76-3.066a34.331,34.331,0,0,1-3.181-2.5c-.057-.227-1.136-5.282-1.136-5.282h-7.1Z" transform="translate(-371.607 -128.756)" fill="#101e3b" fill-rule="evenodd"/>
      <path id="Trazado_802040" data-name="Trazado 802040" d="M686.876,192.8c-3.675,2.2-9.028,4.128-9.591,1.414-.18-.818-.351-1.629-.515-2.44-1.564-7.744-2.3-15.15-.883-21.656l-3.605-12.29-1-3.408c-.069-7.911,3.409-10.5,9.4-9.309.239.045.48.1.726.157.348.085.7.181,1.06.286l.705,4.329,3.033,18.623c.893,7.209-.566,18.02.668,24.294" transform="translate(-364.645 -78.677)" fill="#103e7d" fill-rule="evenodd"/>
      <path id="Trazado_802041" data-name="Trazado 802041" d="M637.506,267.39c-.655,2.1-.786,2.708-.511,4.261a23.084,23.084,0,0,1,.966,2.329c.4,1.4.34,3.749,2.43,5.153,2.49,1.965,7.3,2.056,8.817-.041a11.009,11.009,0,0,0-1.94-5.108l-2.444-4.545.157-4.256-7.02-1.541Z" transform="translate(-345.947 -143.212)" fill="#101e3b" fill-rule="evenodd"/>
      <path id="Trazado_802042" data-name="Trazado 802042" d="M663.36,142.3a5.822,5.822,0,0,1-.17,1.245,9.39,9.39,0,0,1-2.987,4.467l-.042.041c-.131.122-.267.245-.4.364-2.28,2.011-4.993,3.692-6.18,5.529a5.725,5.725,0,0,0-.286.522q-.236,1.4-.5,2.829c-1.122,6.2-2.576,12.87-4.271,19.86a114.969,114.969,0,0,0-3.026,23.857c-3.453,1.592-7.707.61-8.644-2.1.027-3.4.042-6.854.123-10.084.17-6.719.638-12.505,2.13-15.078V140.118l4.956-.575,12.559-1.459,3.433-.4,2.652,3.7Z" transform="translate(-345.946 -74.792)" fill="#103e7d" fill-rule="evenodd"/>
      <path id="Trazado_802043" data-name="Trazado 802043" d="M677.958,195.635a71.977,71.977,0,0,1-1.641-14.069,35.708,35.708,0,0,1,.757-7.587l-3.605-12.29c1.186-1.837,3.9-3.517,6.179-5.529a9.271,9.271,0,0,0-1.806,2.58c-1.353,3.518.007,9.036,1.62,14.741-1.636,4.438-1.575,13.282-1.5,22.154m2.09-39.839h0l.042-.041a12.142,12.142,0,0,0,2.219-2.631,5.842,5.842,0,0,0,1.753-1.186l.3,1.807a9.952,9.952,0,0,0-4.272,2.01Z" transform="translate(-365.833 -82.534)" fill="#072b5d" fill-rule="evenodd"/>
      <path id="Trazado_802044" data-name="Trazado 802044" d="M637.125,194.555c.17-6.718.638-12.505,2.13-15.078v-23.4a13.415,13.415,0,0,0,3.439,2.118,16.5,16.5,0,0,0,2.952.965,14.755,14.755,0,0,0,3.212.377,6.056,6.056,0,0,0,3.9-1.06c1.06-.815,3.409-6.283,4.27-10.214a.047.047,0,0,0,.006-.031,7.838,7.838,0,0,0,4.745,3.159,5.867,5.867,0,0,0,.79-.279,12.152,12.152,0,0,1-2.219,2.631l-.043.041c-.138.116-.27.236-.4.364-2.279,2.011-4.993,3.692-6.179,5.529a5.6,5.6,0,0,0-.286.522q-.235,1.4-.5,2.829c-.081,0-.162-.006-.242-.006-3.108,0-6.047,2.864-8.961,6.233l-1.575,10.225c-2.444,3.325-3.7,9.294-5.041,15.078" transform="translate(-346.091 -80.519)" fill="#072b5d" fill-rule="evenodd"/>
      <path id="Trazado_802045" data-name="Trazado 802045" d="M662.164,98.508a2.148,2.148,0,0,1-.368,2.065,5.91,5.91,0,0,1-2.986,1.939,7.838,7.838,0,0,1-4.745-3.159c-.855,3.933-3.214,9.427-4.276,10.245-1.289,1.132-4.138,1.353-7.11.682a16.517,16.517,0,0,1-2.952-.965,11.529,11.529,0,0,1-5.3-4.263c-.989-2.22.8-7.39.617-13.661l-.9-8.207-2.488-12.359c3.446-6.114,8.074-9.652,12.471-12.573h9.931c2.278,2.133,3.527,5.556,4.2,9.7,0,0-.11,16.605.6,20.631a56.073,56.073,0,0,0,3.3,9.921" transform="translate(-343.125 -31.643)" fill="#103e7d" fill-rule="evenodd"/>
      <path id="Trazado_802046" data-name="Trazado 802046" d="M660.146,71.524l-7.36-.01,11.668,20.8c3.316-7.873,4.05-15.354.1-23.582Z" transform="translate(-354.598 -37.338)" fill="#c9e3f6" fill-rule="evenodd"/>
      <path id="Trazado_802047" data-name="Trazado 802047" d="M668.354,75.046l-.211,2.78,1.763,2.617c.624,3.991,1.691,8.34,1.635,11.447l1.431,3.912,1.458-3.968a119.4,119.4,0,0,0-3.268-12.507l-.112-3.41-1.908-1.2Z" transform="translate(-362.94 -40.588)" fill="#4385c6" fill-rule="evenodd"/>
      <path id="Trazado_802048" data-name="Trazado 802048" d="M655.865,55.926l-4,3.181c-2,6.112,3,8.622,6.269,12.026l1.916-5.341,4.744.925-1.745-8.7Z" transform="translate(-353.851 -30.379)" fill="#fff" fill-rule="evenodd"/>
      <path id="Trazado_802049" data-name="Trazado 802049" d="M650.281,60.21c-2.949,2.254-1.368,6.671,2.068,10.716,3.1,3.644,8.067,11.773,8.61,17.755-3.078-5.86-8.555-13.136-11.554-15.221l.876-2.153-2,.448a11.656,11.656,0,0,1-2.586-7.971Z" transform="translate(-350.725 -32.707)" fill="#072b5d" fill-rule="evenodd"/>
      <path id="Trazado_802050" data-name="Trazado 802050" d="M671.284,58.1c4.308,4.143,6.81,21.217,3.3,28.711,3.853-4.654,5.067-11.683,3.51-22.715l-1.145-.708.331-1.2-3.657-4.415Z" transform="translate(-364.647 -31.383)" fill="#072b5d" fill-rule="evenodd"/>
      <path id="Trazado_802051" data-name="Trazado 802051" d="M680.691,148.26a.24.24,0,0,0,.007-.031.05.05,0,0,1-.007.031" transform="translate(-369.756 -80.519)" fill="#000509" fill-rule="evenodd"/>
      <path id="Trazado_802052" data-name="Trazado 802052" d="M645.615,132.817a16.529,16.529,0,0,1-2.952-.965,11.533,11.533,0,0,1-5.3-4.263,4.662,4.662,0,0,1-.3-1.861c0-2.5.929-6.358.931-10.854,0-.312,0-.629-.014-.946l-.9-8.207,5.893-5.98a39.819,39.819,0,0,1,1.267,9.653c10.9,4.63,12.605,8.743,12.754,12.5a.3.3,0,0,1-.007.031c-.146.3-2.741.341-5.549.341-.477,0-.959,0-1.437,0l-1.4,0c-2.4,0-4.369.03-4.357.248a55.315,55.315,0,0,0,1.368,10.313" transform="translate(-346.06 -54.18)" fill="#072b5d" fill-rule="evenodd"/>
      <path id="Trazado_802053" data-name="Trazado 802053" d="M657.963,52.813l-1.9,3.331c-1.515,4.044,3.3,7.411,6.256,6.921l2.99-5.392Z" transform="translate(-356.224 -28.688)" fill="#f4ae92" fill-rule="evenodd"/>
      <path id="Trazado_802054" data-name="Trazado 802054" d="M670.2,77.689l.06-.165.146.028a2.335,2.335,0,0,1-.206.137" transform="translate(-364.057 -42.112)" fill="#4385c6" fill-rule="evenodd"/>
      <path id="Trazado_802055" data-name="Trazado 802055" d="M665.652,74.721c-.69,0-1.463-.524-2.29-2.028a5.786,5.786,0,0,0,2.478.626,3.651,3.651,0,0,0,.6-.048l.925-1.67.94.837a8.124,8.124,0,0,1-1.616,1.9l-.147-.028-.06.165a1.638,1.638,0,0,1-.833.249" transform="translate(-360.343 -38.895)" fill="#fff" fill-rule="evenodd"/>
      <path id="Trazado_802056" data-name="Trazado 802056" d="M664.651,68.046a5.787,5.787,0,0,1-2.478-.626,11.366,11.366,0,0,1-.98-5.525l4.984,4.434L665.253,68a3.65,3.65,0,0,1-.6.048" transform="translate(-359.154 -33.622)" fill="#f09172" fill-rule="evenodd"/>
      <path id="Trazado_802057" data-name="Trazado 802057" d="M659.718,51c.31,2.748,1.137,5.368,4.157,7.287a2.085,2.085,0,0,0,2.6-.064l2.464-3.361a9.015,9.015,0,0,0,2.08-3.578l-3.748-7.725h-5.818l-2.76,3.805Z" transform="translate(-357.809 -23.661)" fill="#f4ae92" fill-rule="evenodd"/>
      <path id="Trazado_802058" data-name="Trazado 802058" d="M656.954,47.356l2.309.49a1.979,1.979,0,0,1,2.5-.188,8.853,8.853,0,0,0,5.561,1.755,4.029,4.029,0,0,0,3.956-4.4c-.165-2.209-3.9-7.215-8.21-6.922-5.092.344-7.532,4.146-6.569,9.781Z" transform="translate(-356.504 -20.683)" fill="#101e3b" fill-rule="evenodd"/>
      <path id="Trazado_802059" data-name="Trazado 802059" d="M628.576,84.641c-2.336,5.419-1.392,16.6.08,19.959,1.449,3.3,15.44,7.838,18.66,6.581,1.618-1.457,1.381-2.616.937-4.492-2.4-2.528-6.394-4.838-11.305-7.118l.725-10.672c-1.007-7.571-7.408-9.34-9.1-4.259" transform="translate(-340.68 -44.412)" fill="#103e7d" fill-rule="evenodd"/>
      <path id="Trazado_802060" data-name="Trazado 802060" d="M686.464,119.974l-5.124,8.3.44.531,14.367-7.664,5.568-7.781-.44-.531Z" transform="translate(-370.109 -61.29)" fill="#6e96ce" fill-rule="evenodd"/>
      <path id="Trazado_802061" data-name="Trazado 802061" d="M687.426,121.136l-5.124,8.3,14.809-7.133,5.127-8.312Z" transform="translate(-370.632 -61.921)" fill="#5479bb" fill-rule="evenodd"/>
      <path id="Trazado_802062" data-name="Trazado 802062" d="M682.021,135.988l-5.646.936-.808-.2.319-.4,1-1.667-2.729-.727a34.738,34.738,0,0,0-4.064,1.1l-1.366-.434c-1.211-.123-1.956,3.895-.734,4.139l2.953.757,3.588.775c1.317.382,2,.027,3.5,0l1.6-.746,1.117-1.057,1.118-1.086.5-.326c.755-.233.762-1.053-.353-1.063" transform="translate(-362.519 -72.75)" fill="#f3a87d" fill-rule="evenodd"/>
      <path id="Trazado_802063" data-name="Trazado 802063" d="M712.649,124.356l2.353-1.9.979-1.586.451,2.035-.6,2.013L714.3,126.4a1.693,1.693,0,0,1-.935.461l-.7.1a.626.626,0,0,1-.629-.3l-.058-.1-.439-.214a.589.589,0,0,1-.324-.444l-.043-.312a.606.606,0,0,1,.311-.616Z" transform="translate(-386.314 -65.659)" fill="#f3a87d" fill-rule="evenodd"/>
      <path id="Trazado_802064" data-name="Trazado 802064" d="M707.124,116.908l-.5-.971c-1.15-2.133,1.488-3.108,2.988-2.014l2.2.721Z" transform="translate(-383.692 -61.638)" fill="#f3a87d" fill-rule="evenodd"/>
      <path id="Trazado_802065" data-name="Trazado 802065" d="M656.954,47.355l2.308.49a1.982,1.982,0,0,1,2.5-.188,9.786,9.786,0,0,0,3.789,1.654,4.247,4.247,0,0,1-2.738.338c2.209.757,2.9.862,5.054-.2-.317.587-.525.756-1.387,1.294a5.27,5.27,0,0,0,4.675-4.342,4.3,4.3,0,0,0,.122-1.392c-.159-2.141-3.669-6.9-7.808-6.935-.133,0-.267,0-.4.011-5.093.344-7.533,4.147-6.57,9.781Z" transform="translate(-356.504 -20.683)" fill="#101e3b" fill-rule="evenodd"/>
      <path id="Trazado_802066" data-name="Trazado 802066" d="M658.347,52.84a.968.968,0,0,0-1.012.359,1.372,1.372,0,0,0-.176.79,4.082,4.082,0,0,0,.4,1.694,1.826,1.826,0,0,0,.424.6.88.88,0,0,0,.682.23c.875-.125.714-1.24.795-1.859a1.677,1.677,0,0,0-1.116-1.817" transform="translate(-356.973 -28.689)" fill="#f4ae92" fill-rule="evenodd"/>
      <path id="Trazado_802067" data-name="Trazado 802067" d="M539.338,282.084c3.785-.32,5.81,2.307,7.171,6.047.431,2.292-.51,5.558-1.7,7.558l-4.652,2.036c-1.58.379-2.98,1.026-4.109.756-2.889-.692-2.86-5.74-2.91-9.768.4-3.466,1.732-6.227,6.2-6.629" transform="translate(-289.602 -153.216)" fill="#f4ae92" fill-rule="evenodd"/>
      <path id="Trazado_802068" data-name="Trazado 802068" d="M540.744,319.368l-1.239-7.023,7.984-2.823,2.48,6.59Z" transform="translate(-293.063 -168.135)" fill="#f4ae92" fill-rule="evenodd"/>
      <path id="Trazado_802069" data-name="Trazado 802069" d="M520.345,535.125l1.819,3.449a5.036,5.036,0,0,1,.375,4.691c-1.36,1.822-4.074,1.524-6.977.931-3.7-1.111-5.594-1.988-7.879-2.675-3.431-1.163-2.819-3.925.872-4.187l6.019-.406,1.977-.175.173-1.977Z" transform="translate(-274.548 -290.495)" fill="#101e3b" fill-rule="evenodd"/>
      <path id="Trazado_802070" data-name="Trazado 802070" d="M572.906,513.985l1.982,1.278a5.694,5.694,0,0,1,.385,5c-1.547,1.018-3.179,1.047-5.888-.465-3.338-2.783-4.716-2.675-6.052-4.574-1.551-2.4.734-3.435,2.635-3.163l3.8.528Z" transform="translate(-305.728 -278.133)" fill="#101e3b" fill-rule="evenodd"/>
      <path id="Trazado_802071" data-name="Trazado 802071" d="M544.172,384.152l2.092,14.359c.493,1.652,1.024,3.336,1.569,4.991a90.537,90.537,0,0,0,4.862,12.341,14.1,14.1,0,0,0,1.013,1.684l1.512,2.907c.148,1.181.338,2.353.563,3.508,1.163,6.046,3.121,11.675,3.855,16.727l-.869-.122c-2.318.475-2.676,1.195-1.429,2.475a10.348,10.348,0,0,0,3.925,2.065c2.015.349,3.57-.108,3.489-1.512-.358-9.154.311-17.634-1.336-24.057a16.875,16.875,0,0,0-2.154-5.13l-1.075-2.69c.057-.748.1-1.506.131-2.274a107.951,107.951,0,0,0-.451-14.807,25.515,25.515,0,0,0-3.949-15l-4.075,1.512-3.544,1.4Z" transform="translate(-295.598 -206.211)" fill="#f4ae92" fill-rule="evenodd"/>
      <path id="Trazado_802072" data-name="Trazado 802072" d="M518.6,458.542l5.749,1.279c1.861.349,3.608-.674,3.954-1.861-1.539-11.558,3.062-18.6,0-28.606V425.4l1.158-5.861,2.215-11.233,1.219-1.349,3.2-3.536L534,385.98H522.259l-2.209,13.257a58.658,58.658,0,0,0-1.987,19.047,42.786,42.786,0,0,0,.939,6.186l.5,4.6.2,1.792a183.9,183.9,0,0,1,2.214,22.005A3.12,3.12,0,0,1,519.3,456.1c-2.888.442-3.774,1.432-.7,2.442" transform="translate(-280.662 -209.667)" fill="#f4ae92" fill-rule="evenodd"/>
      <path id="Trazado_802073" data-name="Trazado 802073" d="M516.677,346.581a5.681,5.681,0,0,0,3.969,5.318,6.374,6.374,0,0,0,2.061.34,6.272,6.272,0,0,0,3.316-.936,5.569,5.569,0,0,0,2.711-4.722,5.854,5.854,0,0,0-6.027-5.66,6.273,6.273,0,0,0-3.66,1.158,5.843,5.843,0,0,0-1.569,1.684,5.379,5.379,0,0,0-.8,2.817" transform="translate(-280.663 -185.191)" fill="#8e62a6" fill-rule="evenodd"/>
      <path id="Trazado_802074" data-name="Trazado 802074" d="M518.857,387.391c3.487,2.637,24.07,4.032,29.534-6.9l-1.628-18.374c-.893-6.785-.859-9.135-4.35-14.643-.236-.376-.493-.762-.762-1.171-1.8-5.257,2.191-9.5,3.657-17.239a28.424,28.424,0,0,0,.409-3,7.9,7.9,0,0,0-1.087-5.3,5.4,5.4,0,0,0-5.149-2.447,38.341,38.341,0,0,0-15.339,5.44l-1.721,1.108-2.711,4.915-.29,2.243-.335,2.624a49.568,49.568,0,0,1,2.224,4.953,18.686,18.686,0,0,1,1.265,9.6c-.82,2.526-1.54,5.019-2.159,7.5a73.583,73.583,0,0,0-1.561,30.681" transform="translate(-281.33 -172.899)" fill="#4385c6" fill-rule="evenodd"/>
      <path id="Trazado_802075" data-name="Trazado 802075" d="M544.293,295.06a10.149,10.149,0,0,0,2.27-7.267c-.432-3.68-2.5-7.5-6.863-7.733-6.334-.338-9.4,4.617-7.252,10.37,2.034,2.035,3.509,4.142,4.753,5.388,3.2,2.4,5.462,1.811,7.093-.757" transform="translate(-288.86 -152.122)" fill="#101e3b" fill-rule="evenodd"/>
      <path id="Trazado_802076" data-name="Trazado 802076" d="M554.507,309.522s3.319,3.494,4.071,6.785c1.411,6.163-3.466,13.745-3.466,13.745s-3.889-8.428-3.026-12c.808-3.355.155-8.528.155-8.528Z" transform="translate(-299.829 -168.135)" fill="#101e3b" fill-rule="evenodd"/>
      <path id="Trazado_802077" data-name="Trazado 802077" d="M535.694,302.934c.988.581.843,3.692.843,3.692l-1.164.814-.581-3.46s-.228-1.711.9-1.046" transform="translate(-290.493 -164.473)" fill="#f4ae92" fill-rule="evenodd"/>
      <path id="Trazado_802078" data-name="Trazado 802078" d="M522.313,395.093c.216-.221.437-.433.661-.637q.7-2.735,1.566-5.5l-.06.045a60.093,60.093,0,0,0-2.167,6.095" transform="translate(-283.724 -211.282)" fill="#3775ba" fill-rule="evenodd"/>
      <path id="Trazado_802079" data-name="Trazado 802079" d="M527.057,387.383l.06-.045q.212-.678.432-1.358c-.152.47-.318.937-.492,1.4" transform="translate(-286.301 -209.667)" fill="#140206" fill-rule="evenodd"/>
      <path id="Trazado_802080" data-name="Trazado 802080" d="M520.646,355.277a49.534,49.534,0,0,0-2.225-4.953l.335-2.623-1.279-.559a5.377,5.377,0,0,0-.8,2.818,5.68,5.68,0,0,0,3.969,5.318" transform="translate(-280.663 -188.57)" fill="#74151a" fill-rule="evenodd"/>
      <path id="Trazado_802081" data-name="Trazado 802081" d="M521.987,368.884c6.5-5.918,16.371-5.195,21.835-8.6-.236-.376-.493-.762-.762-1.171a8.383,8.383,0,0,1-.457-2.733c0-4.143,2.909-8.144,4.113-14.506-2.918,7.217-8.692,11.552-13.765,11.552a7.9,7.9,0,0,1-4.854-1.607,10.942,10.942,0,0,1-3.6-5.372l-3.669-1.609-.335,2.624a49.584,49.584,0,0,1,2.225,4.953,22.854,22.854,0,0,1,1.37,5.553,15.833,15.833,0,0,1,.088,1.682,14.5,14.5,0,0,1-.194,2.37c-.147.454-.291.906-.432,1.358q-.865,2.771-1.565,5.5" transform="translate(-282.737 -185.71)" fill="#2f73b7" fill-rule="evenodd"/>
      <path id="Trazado_802082" data-name="Trazado 802082" d="M514.606,338.159l4.586.879.733-2.049-1.552-2.049-2.515.712Z" transform="translate(-279.538 -181.942)" fill="#f3a87d" fill-rule="evenodd"/>
      <path id="Trazado_802083" data-name="Trazado 802083" d="M508.218,339.658l-8.853-14.517-9.295,4.5,8.854,14.516Z" transform="translate(-266.21 -176.619)" fill="#6e96ce" fill-rule="evenodd"/>
      <path id="Trazado_802084" data-name="Trazado 802084" d="M499.277,343.178l8.426-4.08L500,326.5l-8.424,4.08Z" transform="translate(-267.028 -177.359)" fill="#fff" fill-rule="evenodd"/>
      <path id="Trazado_802085" data-name="Trazado 802085" d="M508.332,330.795l1.681-.314a3.777,3.777,0,0,0,2.662,2.154l.878.3a6.3,6.3,0,0,1,.754-1.4,2.957,2.957,0,0,0-1.483-2.406l-2.565-.464-3.124,1.125c-.086.691.187,1.006,1.2,1.012" transform="translate(-275.471 -178.529)" fill="#f3a87d" fill-rule="evenodd"/>
      <path id="Trazado_802086" data-name="Trazado 802086" d="M503.788,345.433l.187-.006a.533.533,0,0,0,.409-.635L501.638,332a.534.534,0,1,0-1.045.223l2.747,12.793a.535.535,0,0,0,.447.416" transform="translate(-271.92 -180.115)" fill="#6e96ce" fill-rule="evenodd"/>
      <path id="Trazado_802087" data-name="Trazado 802087" d="M494.963,343.867c-.073.5.254.852.249,1.2,0,.137-.034.392-.055.626a3.528,3.528,0,0,0-.026.417c.03.83,1.895,2.044,2.5,2.417l2.427,1.154,2.885,2.563.586-.981,1.4-2.145-2.157-2.619a7.86,7.86,0,0,0-.2-3.658l-1.118-1.353-2.067-1.008.206.893a19.441,19.441,0,0,0-1.688-1.008c-.4-.2-1.094-.326-1.391.029-.144.171-.078.545-.2.735-.136.218-.654.439-.761.677s.063.794-.029,1.021c-.108.27-.5.507-.571,1.036" transform="translate(-268.862 -184.785)" fill="#f4ae92" fill-rule="evenodd"/>
      <path id="Trazado_802088" data-name="Trazado 802088" d="M504.819,341.46l2.1,1.766-1.959-1.151Z" transform="translate(-274.222 -185.484)" fill="#f4ae92" fill-rule="evenodd"/>
      <path id="Trazado_802089" data-name="Trazado 802089" d="M495.368,352.266a3.724,3.724,0,0,0-.026.417c.03.83,1.895,2.044,2.5,2.417l2.427,1.154,2.885,2.564.586-.982a11.441,11.441,0,0,1-3.014-3.031c-2.125-.015-4.6-.883-5.363-2.539" transform="translate(-269.074 -191.354)" fill="#f4ae92" fill-rule="evenodd"/>
      <path id="Trazado_802090" data-name="Trazado 802090" d="M515.974,332.5c-2.865,1.387-3.236,3.552-3.235,8.495l-.264,5.09-3.68-3.839c-2.368-.153-2.952.262-2.715,3.183,1.354,4.083,4.041,9.975,6.736,12.475,1.7,1.576,4.474-.21,5.578-4.5l1.868-11.067c1.075-6.138.2-10.957-4.289-9.835" transform="translate(-274.88 -180.529)" fill="#f4ae92" fill-rule="evenodd"/>
    </g>
  </g>
</svg>
