<svg id="_7" data-name="7" xmlns="http://www.w3.org/2000/svg" xmlns:xlink="http://www.w3.org/1999/xlink" width="273.55" height="242.29" viewBox="0 0 273.55 242.29">
  <defs>
    <clipPath id="clip-path">
      <rect id="Rectángulo_375061" data-name="Rectángulo 375061" width="273.55" height="242.29" fill="none"/>
    </clipPath>
  </defs>
  <g id="Grupo_1067304" data-name="Grupo 1067304" clip-path="url(#clip-path)">
    <path id="Trazado_802241" data-name="Trazado 802241" d="M184.509,93.988H89.041a9.983,9.983,0,0,1-9.983-9.982V9.983A9.983,9.983,0,0,1,89.041,0h95.468a9.982,9.982,0,0,1,9.982,9.982V84.006a9.982,9.982,0,0,1-9.982,9.982" fill="#1e5af9"/>
    <path id="Trazado_802242" data-name="Trazado 802242" d="M92.573,12.216h7.06c4.939,0,7.062,2.3,7.062,6.975v1.863c0,3.118-1,5.111-3.119,5.977v.087c2.383.737,3.162,2.99,3.162,6.411v5.329a8.925,8.925,0,0,0,.521,3.682h-4.853a9.328,9.328,0,0,1-.433-3.725V33.27c0-2.817-.823-3.726-2.989-3.726H97.338v13H92.573Zm6.5,13c1.775,0,2.858-.779,2.858-3.206V19.667c0-2.166-.736-3.119-2.425-3.119H97.338v8.664Z" fill="#fff"/>
    <rect id="Rectángulo_375059" data-name="Rectángulo 375059" width="4.765" height="30.324" transform="translate(110.029 12.216)" fill="#fff"/>
    <path id="Trazado_802243" data-name="Trazado 802243" d="M118.345,12.216h13v4.332H123.11v8.015h6.542v4.332H123.11v9.313h8.231V42.54h-13Z" fill="#fff"/>
    <path id="Trazado_802244" data-name="Trazado 802244" d="M133.332,35.349V33.617h4.505V35.7c0,2.166.953,2.945,2.47,2.945s2.468-.779,2.468-3.032c0-2.513-.953-4.115-4.072-6.845-3.985-3.509-5.284-5.978-5.284-9.443,0-4.765,2.469-7.537,7.1-7.537s6.931,2.772,6.931,7.624v1.255h-4.5V19.1c0-2.166-.867-2.988-2.383-2.988s-2.382.822-2.382,2.9c0,2.209,1,3.811,4.115,6.541,3.985,3.509,5.242,5.935,5.242,9.7,0,4.939-2.513,7.711-7.191,7.711s-7.018-2.772-7.018-7.624" fill="#fff"/>
    <path id="Trazado_802245" data-name="Trazado 802245" d="M149.921,35.349V19.408c0-4.852,2.426-7.624,7.1-7.624s7.105,2.772,7.105,7.624v2.6h-4.506V19.1c0-2.166-.953-2.988-2.469-2.988s-2.469.822-2.469,2.988V35.7c0,2.166.953,2.945,2.469,2.945s2.469-.779,2.469-2.945V29.761h-2.382V25.429h6.888v9.92c0,4.852-2.426,7.624-7.105,7.624s-7.1-2.772-7.1-7.624" fill="#fff"/>
    <path id="Trazado_802246" data-name="Trazado 802246" d="M166.857,35.349V19.408c0-4.852,2.556-7.624,7.234-7.624s7.235,2.772,7.235,7.624V35.349c0,4.852-2.556,7.624-7.235,7.624s-7.234-2.772-7.234-7.624m9.7.3V19.1c0-2.166-.953-2.988-2.469-2.988s-2.469.822-2.469,2.988V35.653c0,2.166.953,2.988,2.469,2.988s2.469-.822,2.469-2.988" fill="#fff"/>
    <path id="Trazado_802247" data-name="Trazado 802247" d="M273.55,190.612H0a136.777,136.777,0,0,1,273.55,0" fill="#01c3fd"/>
    <path id="Trazado_802248" data-name="Trazado 802248" d="M266.74,190.612H6.81a129.967,129.967,0,0,1,259.93,0" fill="#fff"/>
    <path id="Trazado_802249" data-name="Trazado 802249" d="M266.74,190.612H6.81a129.967,129.967,0,0,1,259.93,0Z" fill="none" stroke="#263238" stroke-linejoin="round" stroke-width="1"/>
    <path id="Trazado_802250" data-name="Trazado 802250" d="M211.94,85.262l-74.66,105.35-.5.7-.5-.7L61.62,85.272a130.019,130.019,0,0,1,150.32-.01" fill="#fff"/>
    <path id="Trazado_802251" data-name="Trazado 802251" d="M211.94,85.262l-74.66,105.35-.5.7-.5-.7L61.62,85.272a130.019,130.019,0,0,1,150.32-.01Z" fill="none" stroke="#263238" stroke-linejoin="round" stroke-width="1"/>
    <path id="Trazado_802252" data-name="Trazado 802252" d="M188,190.612H85.55a51.23,51.23,0,0,1,102.45,0" fill="#fff"/>
    <path id="Trazado_802253" data-name="Trazado 802253" d="M188,190.612H85.55a51.23,51.23,0,0,1,102.45,0Z" fill="none" stroke="#263238" stroke-linejoin="round" stroke-width="1"/>
    <path id="Trazado_802254" data-name="Trazado 802254" d="M34.015,142.994h4.359c2.994,0,4.281,1.393,4.281,4.229v.735c0,1.891-.578,3.072-1.865,3.6v.051c1.55.526,2.154,1.892,2.154,3.834v1.577c0,2.836-1.5,4.359-4.386,4.359H34.015Zm4.018,7.485c1.077,0,1.733-.473,1.733-1.944v-1.023c0-1.314-.446-1.892-1.471-1.892H36.9v4.859Zm.525,8.272c.972,0,1.5-.446,1.5-1.812v-1.6c0-1.707-.552-2.232-1.865-2.232H36.9v5.646Z" fill="#d7335e"/>
    <path id="Trazado_802255" data-name="Trazado 802255" d="M46.857,142.994H50.77l2.993,18.383H50.875l-.526-3.651v.053H47.067l-.525,3.6H43.863Zm3.151,12.29L48.721,146.2h-.052l-1.261,9.086Z" fill="#d7335e"/>
    <path id="Trazado_802256" data-name="Trazado 802256" d="M54.5,161.377v-2.626a3.9,3.9,0,0,0,.945.1c1.156,0,1.707-.551,1.707-1.759v-14.1H60.04v14.024c0,3.019-1.366,4.463-4.2,4.463a6.994,6.994,0,0,1-1.339-.1" fill="#d7335e"/>
    <path id="Trazado_802257" data-name="Trazado 802257" d="M61.9,157.017v-9.664c0-2.941,1.549-4.622,4.385-4.622s4.386,1.681,4.386,4.622v9.664c0,2.942-1.55,4.622-4.386,4.622s-4.385-1.68-4.385-4.622m5.882.184V147.17c0-1.314-.578-1.813-1.5-1.813s-1.5.5-1.5,1.813V157.2c0,1.313.578,1.812,1.5,1.812s1.5-.5,1.5-1.812" fill="#d7335e"/>
    <path id="Trazado_802258" data-name="Trazado 802258" d="M112.049,82.7h4.123l1.838,13.156h.053L119.9,82.7h4.123v18.382h-2.731V87.163h-.053l-2.1,13.918h-2.416l-2.1-13.918h-.053v13.918h-2.521Z" fill="#d7335e"/>
    <path id="Trazado_802259" data-name="Trazado 802259" d="M126.177,82.7h7.878v2.626h-4.989v4.858h3.965v2.626h-3.965v5.646h4.989v2.626h-7.878Z" fill="#d7335e"/>
    <path id="Trazado_802260" data-name="Trazado 802260" d="M135.71,82.7h4.411c2.889,0,4.307,1.6,4.307,4.543v9.3c0,2.941-1.418,4.543-4.307,4.543H135.71Zm4.36,15.756c.918,0,1.469-.473,1.469-1.785V87.11c0-1.312-.551-1.785-1.469-1.785H138.6v13.13Z" fill="#d7335e"/>
    <rect id="Rectángulo_375060" data-name="Rectángulo 375060" width="2.889" height="18.382" transform="translate(146.372 82.699)" fill="#d7335e"/>
    <path id="Trazado_802261" data-name="Trazado 802261" d="M151.2,96.721V87.059c0-2.941,1.549-4.622,4.385-4.622s4.386,1.681,4.386,4.622v9.662c0,2.942-1.55,4.623-4.386,4.623s-4.385-1.681-4.385-4.623m5.882.185V86.874c0-1.312-.578-1.811-1.5-1.811s-1.5.5-1.5,1.811V96.906c0,1.313.578,1.813,1.5,1.813s1.5-.5,1.5-1.813" fill="#d7335e"/>
    <path id="Trazado_802262" data-name="Trazado 802262" d="M204.956,142.994h3.913l2.993,18.383h-2.888l-.526-3.651v.053h-3.282l-.525,3.6h-2.679Zm3.151,12.29L206.82,146.2h-.052l-1.261,9.086Z" fill="#d7335e"/>
    <path id="Trazado_802263" data-name="Trazado 802263" d="M213.254,142.994h2.889v15.757H220.9v2.626h-7.642Z" fill="#d7335e"/>
    <path id="Trazado_802264" data-name="Trazado 802264" d="M222.5,145.62h-3.02v-2.626h8.929v2.626h-3.02v15.757H222.5Z" fill="#d7335e"/>
    <path id="Trazado_802265" data-name="Trazado 802265" d="M229.484,157.017v-9.664c0-2.941,1.549-4.622,4.385-4.622s4.386,1.681,4.386,4.622v9.664c0,2.942-1.55,4.622-4.386,4.622s-4.385-1.68-4.385-4.622m5.882.184V147.17c0-1.314-.578-1.813-1.5-1.813s-1.5.5-1.5,1.813V157.2c0,1.313.578,1.812,1.5,1.812s1.5-.5,1.5-1.812" fill="#d7335e"/>
    <path id="Trazado_802266" data-name="Trazado 802266" d="M137.228,242.29h0a6.007,6.007,0,0,1-6.018-6.038l1.743-139.2,8-.015,2.27,139.2a6.007,6.007,0,0,1-6,6.061" fill="#44449a"/>
    <path id="Trazado_802267" data-name="Trazado 802267" d="M155.788,213.3a29.068,29.068,0,1,0-41-2.979A29.068,29.068,0,0,0,155.788,213.3Z" fill="none" stroke="#44449a" stroke-miterlimit="10" stroke-width="1"/>
    <path id="Trazado_802268" data-name="Trazado 802268" d="M147.144,203.3a15.852,15.852,0,1,0-22.358-1.624,15.85,15.85,0,0,0,22.358,1.624" fill="#44449a"/>
  </g>
</svg>
