<svg xmlns="http://www.w3.org/2000/svg" width="12.857" height="10" viewBox="0 0 12.857 10">
  <path id="icon" d="M0,33.071A1.072,1.072,0,0,1,1.071,32H3.214a1.072,1.072,0,0,1,1.071,1.071v.357H8.571v-.357A1.072,1.072,0,0,1,9.643,32h2.143a1.072,1.072,0,0,1,1.071,1.071v2.143a1.072,1.072,0,0,1-1.071,1.071H9.643a1.072,1.072,0,0,1-1.071-1.071v-.357H4.286v.357a.909.909,0,0,1-.007.112l1.792,2.388H8.214a1.072,1.072,0,0,1,1.071,1.071v2.143A1.072,1.072,0,0,1,8.214,42H6.071A1.072,1.072,0,0,1,5,40.929V38.786a.909.909,0,0,1,.007-.112L3.214,36.286H1.071A1.072,1.072,0,0,1,0,35.214Z" transform="translate(0 -32)" fill="#6e40fc"/>
</svg>
